G04 CAM350 V8.0.1 (Build 31) Date:  Thu Jun 11 14:51:13 2020 *
G04 Database: c:\users\administrator\desktop\work\2020_05\loadcell\cammerge\cam_merge.cam *
G04 Layer 2: adt001027.pho *
%FSLAX35Y35*%
%MOIN*%
%SFA1.000B1.000*%

%MIA0B0*%
%IPPOS*%
%ADD12C,0.00150*%
%ADD71R,0.05906X0.05906*%
%ADD27C,0.05906*%
%ADD29C,0.06000*%
%ADD72R,0.06102X0.06102*%
%ADD73C,0.06102*%
%ADD30R,0.11024X0.11024*%
%ADD31C,0.11024*%
%ADD32R,0.05512X0.05512*%
%ADD33C,0.05512*%
%ADD34C,0.27559*%
%ADD37R,0.06000X0.06000*%
%ADD38C,0.07874*%
%ADD39C,0.10000*%
%ADD40C,0.08858*%
%ADD41C,0.07283*%
%ADD42C,0.05118*%
%ADD43C,0.09843*%
%ADD44C,0.01000*%
%ADD48R,0.17323X0.39370*%
%ADD49C,0.00984*%
%ADD50C,0.00787*%
%ADD51C,0.00591*%
%ADD52C,0.00500*%
%ADD63C,0.03543*%
%ADD109C,0.23622*%
%ADD112R,0.06496X0.06496*%
%ADD113C,0.06496*%
%ADD116O,0.06500X0.01600*%
%ADD117O,0.01600X0.06500*%
%ADD118C,0.00492*%
%LNadt001027.pho*%
%LPD*%
G54D71*
X145669Y354331D03*
X65000Y305000D03*
Y200000D03*
X330709Y535433D03*
X129921Y515748D03*
X153543Y405512D03*
X176378Y455787D03*
X31496Y505906D03*
X110000Y420000D03*
X29528Y481378D03*
X165354Y562992D03*
X220472D03*
X244094D03*
X57087Y440945D03*
X137795Y133858D03*
X173228Y220472D03*
X185039D03*
X137795Y106299D03*
X173228Y185039D03*
X185039D03*
X165354Y161417D03*
G54D27*
X145669Y364331D03*
X155669Y354331D03*
Y364331D03*
X165669Y354331D03*
Y364331D03*
X175669Y354331D03*
Y364331D03*
X185669Y354331D03*
Y364331D03*
X195669Y354331D03*
Y364331D03*
X205669Y354331D03*
Y364331D03*
X75000Y305000D03*
X85000D03*
X95000D03*
X105000D03*
X115000D03*
X125000D03*
Y335000D03*
X115000D03*
X105000D03*
X95000D03*
X85000D03*
X75000D03*
X65000D03*
X75000Y200000D03*
X85000D03*
X95000D03*
Y230000D03*
X85000D03*
X75000D03*
X65000D03*
X66929Y165354D03*
Y135354D03*
X55118Y165354D03*
Y135354D03*
X115000Y375000D03*
Y355000D03*
X176700Y324500D03*
Y304500D03*
X216535Y279528D03*
X186535D03*
X330709Y515433D03*
X129921Y535748D03*
X153543Y385512D03*
X271654Y527559D03*
Y507559D03*
X176378Y445787D03*
X118110Y452756D03*
Y432756D03*
X41339Y548425D03*
Y568425D03*
X41496Y505906D03*
X51496D03*
X61496D03*
X71496D03*
X81496D03*
X91496D03*
X101496D03*
Y535906D03*
X91496D03*
X81496D03*
X71496D03*
X61496D03*
X51496D03*
X41496D03*
X31496D03*
X55118Y222441D03*
Y202441D03*
X95000Y280000D03*
Y260000D03*
X45276Y251969D03*
Y271969D03*
X216535Y267717D03*
X186535D03*
X110000Y410000D03*
X94488Y366142D03*
Y346142D03*
X95000Y395000D03*
Y415000D03*
X106299Y153543D03*
Y173543D03*
X29528Y471378D03*
X155354Y562992D03*
X210472D03*
X234094D03*
X67087Y440945D03*
X77087D03*
X87087D03*
Y470945D03*
X77087D03*
X67087D03*
X57087D03*
X147795Y133858D03*
X157795D03*
X167795D03*
X177795D03*
X187795D03*
X173228Y230472D03*
Y240472D03*
X185039Y230472D03*
Y240472D03*
X147795Y106299D03*
X157795D03*
X167795D03*
X177795D03*
X187795D03*
X173228Y195039D03*
Y205039D03*
X185039Y195039D03*
Y205039D03*
X175354Y161417D03*
X185354D03*
X51181Y118110D03*
X31181D03*
X31496Y106299D03*
X51496D03*
G54D29*
X141732Y228346D03*
Y188346D03*
X118110Y228346D03*
Y188346D03*
X129921Y228346D03*
Y188346D03*
X106299Y188976D03*
Y228976D03*
X115000Y250000D03*
Y290000D03*
X125000Y250000D03*
Y290000D03*
X104331Y346457D03*
Y386457D03*
X146900Y332500D03*
Y292500D03*
X52756Y386614D03*
Y426614D03*
X75000Y290000D03*
Y250000D03*
X157200Y292500D03*
Y332500D03*
X65000Y290000D03*
Y250000D03*
X167600Y332100D03*
Y292100D03*
X85000Y250000D03*
Y290000D03*
X31496Y222598D03*
Y212598D03*
Y202598D03*
X85000Y385000D03*
Y345000D03*
X27953Y404882D03*
Y394882D03*
Y384882D03*
X75000Y385000D03*
Y345000D03*
X65000Y385000D03*
Y345000D03*
X200787Y507874D03*
Y547874D03*
X106299Y472441D03*
Y432441D03*
X236220Y507874D03*
Y547874D03*
X80709Y497126D03*
X59055Y485157D03*
X188976Y547244D03*
Y507244D03*
X212598Y547244D03*
Y507244D03*
X177165Y507874D03*
Y547874D03*
X259843Y547244D03*
Y507244D03*
X224409Y547244D03*
Y507244D03*
X248031Y507874D03*
Y547874D03*
X259843Y303150D03*
Y263150D03*
X271654Y303150D03*
Y263150D03*
X39370Y485157D03*
X54724Y355276D03*
X24724D03*
Y345276D03*
G54D72*
X43307Y133858D03*
X90551D03*
X31496D03*
X78740D03*
X232283Y444882D03*
Y381890D03*
X110236Y137795D03*
X122047D03*
X240500Y213800D03*
X292700D03*
G54D73*
X43307Y173858D03*
X90551D03*
X31496D03*
X78740D03*
X192283Y444882D03*
Y381890D03*
X110236Y97795D03*
X122047D03*
X200500Y213800D03*
X252700D03*
G54D30*
X307087Y559055D03*
X330709Y248031D03*
G54D31*
X291181Y559055D03*
X330709Y263937D03*
G54D32*
X263780Y562992D03*
X98425D03*
X133858D03*
X188976D03*
G54D33*
X273780D03*
X108425D03*
X143858D03*
X198976D03*
X203150Y459843D03*
X209843D03*
X216535D03*
X223228D03*
X229921D03*
X203150Y396850D03*
X209843D03*
X216535D03*
X223228D03*
X229921D03*
G54D34*
X20235Y571416D03*
X335196D03*
X20235Y20235D03*
X335196D03*
X20235Y295826D03*
X335196D03*
G54D37*
X80709Y487126D03*
X59055Y495157D03*
X39370D03*
X54724Y345276D03*
G54D38*
X39370Y62992D03*
X59055D03*
X78740D03*
X98425D03*
X118110D03*
X137795D03*
X157480D03*
X177165D03*
X196850D03*
X216535D03*
X236220D03*
X255906D03*
X275591D03*
X295276D03*
X314961D03*
X337400Y333100D03*
X295077D03*
X337400Y484675D03*
X305904D03*
G54D39*
X330709Y129921D03*
Y217795D03*
G54D40*
Y47244D03*
X338209Y87244D03*
G54D41*
X208800Y194500D03*
X238721D03*
Y115760D03*
X208800Y101980D03*
Y129539D03*
X260700Y194500D03*
X290621D03*
Y115760D03*
X260700Y101980D03*
Y129539D03*
G54D42*
X212598Y228346D03*
X220098D03*
X227598D03*
X212598Y244094D03*
X220098D03*
X227598D03*
X153543Y539370D03*
X161043D03*
X168543D03*
X264961Y227559D03*
X272461D03*
X279961D03*
X265354Y243701D03*
X272854D03*
X280354D03*
X267717Y535433D03*
X275217D03*
X282717D03*
G54D48*
X156299Y479921D03*
X131890D03*
Y436220D03*
X156299D03*
G54D43*
X216535Y485039D03*
Y422047D03*
G54D109*
X20235Y719034D03*
X335196D03*
Y994625D03*
X20235D03*
G54D71*
X145669Y777539D03*
X43307Y836594D03*
X62992D03*
X251969D03*
X213504Y641713D03*
X51181Y963642D03*
X271654Y836594D03*
X82677Y698799D03*
X43307Y664429D03*
X19685Y694862D03*
X175197Y698799D03*
G54D27*
X145669Y787539D03*
X155669Y777539D03*
Y787539D03*
X165669Y777539D03*
Y787539D03*
X175669Y777539D03*
Y787539D03*
X185669Y777539D03*
Y787539D03*
X195669Y777539D03*
Y787539D03*
X205669Y777539D03*
Y787539D03*
X265748Y694862D03*
Y664862D03*
X43307Y826594D03*
Y816594D03*
Y806594D03*
Y796594D03*
X62992Y826594D03*
Y816594D03*
Y806594D03*
X92992D03*
Y816594D03*
Y826594D03*
Y836594D03*
X251969Y826594D03*
Y816594D03*
Y806594D03*
Y796594D03*
X253937Y694862D03*
Y664862D03*
X223504Y641713D03*
X51181Y953642D03*
X204724Y623996D03*
X224724D03*
X69685Y963760D03*
Y943760D03*
X271653Y826594D03*
Y816594D03*
Y806594D03*
Y796594D03*
Y786594D03*
Y776594D03*
X301653D03*
Y786594D03*
Y796594D03*
Y806594D03*
Y816594D03*
Y826594D03*
Y836594D03*
X277559Y671240D03*
X297559D03*
X241732Y623209D03*
Y643209D03*
X82677Y688799D03*
Y678799D03*
Y668799D03*
Y658799D03*
Y648799D03*
Y638799D03*
Y628799D03*
Y618799D03*
X232283Y663366D03*
Y693366D03*
X202283Y663366D03*
Y693366D03*
X177165Y712579D03*
Y732579D03*
X43307Y654429D03*
X85039Y785020D03*
Y765020D03*
X204724Y614154D03*
X224724D03*
X318898Y931083D03*
X298898D03*
X318898Y836594D03*
Y816594D03*
X106299Y836594D03*
Y816594D03*
X19685Y684862D03*
Y674862D03*
Y664862D03*
Y654862D03*
Y644862D03*
X165197Y698799D03*
X155197D03*
X145197D03*
X135197D03*
X125197D03*
X115197D03*
X105197D03*
X95197D03*
G54D43*
X40354Y742106D03*
X89567D03*
Y722421D03*
X40354D03*
X115157Y742106D03*
X164370D03*
Y722421D03*
X115157D03*
X189961Y742106D03*
X239173D03*
Y722421D03*
X189961D03*
X264764Y742106D03*
X313976D03*
Y722421D03*
X264764D03*
Y627933D03*
X313976D03*
Y608248D03*
X264764D03*
G54D32*
X318898Y913366D03*
Y866122D03*
X35433Y913366D03*
G54D33*
X318898Y903366D03*
Y856122D03*
X35433Y903366D03*
G54D29*
X287402Y860217D03*
Y900217D03*
X299213Y860217D03*
Y900217D03*
X316929Y661398D03*
X276929D03*
X277559Y649587D03*
X317559D03*
X59055Y860217D03*
Y900217D03*
X251969Y645650D03*
Y605650D03*
X94488Y972421D03*
X134488D03*
X147638D03*
X187638D03*
X175197Y828720D03*
X215197D03*
X122047Y842500D03*
X162047D03*
X122047Y828720D03*
X162047D03*
X241732Y972421D03*
X201732D03*
X175197Y842500D03*
X215197D03*
X175197Y814941D03*
X215197D03*
X94488Y986201D03*
X134488D03*
X147638D03*
X187638D03*
X293307D03*
X253307D03*
X200787D03*
X240787D03*
X59055Y663366D03*
Y623366D03*
G54D116*
X175919Y620131D03*
Y623271D03*
Y626411D03*
Y629551D03*
Y632691D03*
Y635831D03*
Y638971D03*
Y642111D03*
Y645251D03*
Y648391D03*
Y651531D03*
Y654671D03*
Y657811D03*
Y660951D03*
Y664091D03*
Y667231D03*
X115419D03*
Y664091D03*
Y660951D03*
Y657811D03*
Y654671D03*
Y651531D03*
Y648391D03*
Y645251D03*
Y642111D03*
Y638971D03*
Y635831D03*
Y632691D03*
Y629551D03*
Y626411D03*
Y623271D03*
Y620131D03*
G54D117*
X169219Y673931D03*
X166079D03*
X162939D03*
X159799D03*
X156659D03*
X153519D03*
X150379D03*
X147239D03*
X144099D03*
X140959D03*
X137819D03*
X134679D03*
X131539D03*
X128399D03*
X125259D03*
X122119D03*
Y613431D03*
X125259D03*
X128399D03*
X131539D03*
X134679D03*
X137819D03*
X140959D03*
X144099D03*
X147239D03*
X150379D03*
X153519D03*
X156659D03*
X159799D03*
X162939D03*
X166079D03*
X169219D03*
G54D112*
X152165Y865650D03*
G54D113*
X162165D03*
X172165D03*
X182165D03*
X192165D03*
X202165D03*
Y925650D03*
X192165D03*
X182165D03*
X172165D03*
X162165D03*
X152165D03*
G54D42*
X133858Y946831D03*
X141358D03*
X148858D03*
X165354D03*
X172854D03*
X180354D03*
X196850D03*
X204350D03*
X211850D03*
X228346D03*
X235846D03*
X243346D03*
G54D63*
X23622Y612185D03*
Y617185D03*
X28622Y612185D03*
Y617185D03*
X33622Y612185D03*
Y617185D03*
X38622Y612185D03*
Y617185D03*
X43622Y612185D03*
Y617185D03*
G54D49*
X60000Y310000D02*
G01X130000D01*
Y330000*
X60000*
Y310000*
Y205000D02*
G01X100000D01*
Y225000*
X60000*
Y205000*
X66929Y142854D02*
G01Y140354D01*
Y157854D02*
G01Y160354D01*
X61929Y157854D02*
G01X71929D01*
Y142854*
X61929*
Y157854*
X55118Y142854D02*
G01Y140354D01*
Y157854D02*
G01Y160354D01*
X50118Y157854D02*
G01X60118D01*
Y142854*
X50118*
Y157854*
X43307Y163858D02*
G01Y168858D01*
X48307Y143858D02*
G01X38307D01*
Y163858*
X48307*
Y143858*
X43307D02*
G01Y138858D01*
X90551Y163858D02*
G01Y168858D01*
X95551Y143858D02*
G01X85551D01*
Y163858*
X95551*
Y143858*
X90551D02*
G01Y138858D01*
X31496Y163858D02*
G01Y168858D01*
X36496Y143858D02*
G01X26496D01*
Y163858*
X36496*
Y143858*
X31496D02*
G01Y138858D01*
X78740Y163858D02*
G01Y168858D01*
X83740Y143858D02*
G01X73740D01*
Y163858*
X83740*
Y143858*
X78740D02*
G01Y138858D01*
X111457Y363000D02*
G01X118543D01*
Y367000D02*
G01X111457D01*
X115000Y370000D02*
G01Y367000D01*
Y363000D02*
G01Y360000D01*
X173157Y312500D02*
G01X180243D01*
Y316500D02*
G01X173157D01*
X176700Y319500D02*
G01Y316500D01*
Y312500D02*
G01Y309500D01*
X194035Y279528D02*
G01X191535D01*
X209035D02*
G01X211535D01*
X209035Y284528D02*
G01Y274528D01*
X194035*
Y284528*
X209035*
X202283Y444882D02*
G01X197283D01*
X222283Y449882D02*
G01Y439882D01*
X202283*
Y449882*
X222283*
Y444882D02*
G01X227283D01*
X202283Y381890D02*
G01X197283D01*
X222283Y386890D02*
G01Y376890D01*
X202283*
Y386890*
X222283*
Y381890D02*
G01X227283D01*
X268110Y515559D02*
G01X275197D01*
Y519559D02*
G01X268110D01*
X271654Y522559D02*
G01Y519559D01*
Y515559D02*
G01Y512559D01*
X114567Y440756D02*
G01X121654D01*
Y444756D02*
G01X114567D01*
X118110Y447756D02*
G01Y444756D01*
Y440756D02*
G01Y437756D01*
X44882Y560425D02*
G01X37795D01*
Y556425D02*
G01X44882D01*
X41339Y553425D02*
G01Y556425D01*
Y560425D02*
G01Y563425D01*
X26496Y510906D02*
G01X106496D01*
Y530906*
X26496*
Y510906*
X110236Y107795D02*
G01Y102795D01*
X105236Y127795D02*
G01X115236D01*
Y107795*
X105236*
Y127795*
X110236D02*
G01Y132795D01*
X122047Y107795D02*
G01Y102795D01*
X117047Y127795D02*
G01X127047D01*
Y107795*
X117047*
Y127795*
X122047D02*
G01Y132795D01*
X51575Y210441D02*
G01X58661D01*
Y214441D02*
G01X51575D01*
X55118Y217441D02*
G01Y214441D01*
Y210441D02*
G01Y207441D01*
X91457Y268000D02*
G01X98543D01*
Y272000D02*
G01X91457D01*
X95000Y275000D02*
G01Y272000D01*
Y268000D02*
G01Y265000D01*
X48819Y263969D02*
G01X41732D01*
Y259969D02*
G01X48819D01*
X45276Y256969D02*
G01Y259969D01*
Y263969D02*
G01Y266969D01*
X194035Y267717D02*
G01X191535D01*
X209035D02*
G01X211535D01*
X209035Y272717D02*
G01Y262717D01*
X194035*
Y272717*
X209035*
X90945Y354142D02*
G01X98031D01*
Y358142D02*
G01X90945D01*
X94488Y361142D02*
G01Y358142D01*
Y354142D02*
G01Y351142D01*
X98543Y407000D02*
G01X91457D01*
Y403000D02*
G01X98543D01*
X95000Y400000D02*
G01Y403000D01*
Y407000D02*
G01Y410000D01*
X109843Y165543D02*
G01X102756D01*
Y161543D02*
G01X109843D01*
X106299Y158543D02*
G01Y161543D01*
Y165543D02*
G01Y168543D01*
X210500Y213800D02*
G01X205500D01*
X230500Y218800D02*
G01Y208800D01*
X210500*
Y218800*
X230500*
Y213800D02*
G01X235500D01*
X262700D02*
G01X257700D01*
X282700Y218800D02*
G01Y208800D01*
X262700*
Y218800*
X282700*
Y213800D02*
G01X287700D01*
X52087Y445945D02*
G01X92087D01*
Y465945*
X52087*
Y445945*
X39181Y121654D02*
G01Y114567D01*
X43181D02*
G01Y121654D01*
X46181Y118110D02*
G01X43181D01*
X39181D02*
G01X36181D01*
X43496Y102756D02*
G01Y109843D01*
X39496D02*
G01Y102756D01*
X36496Y106299D02*
G01X39496D01*
X43496D02*
G01X46496D01*
G54D44*
X38307Y160858D02*
G01X48307D01*
X38307Y159858D02*
G01X48307D01*
X38307Y158858D02*
G01X48307D01*
X85551Y160858D02*
G01X95551D01*
X85551Y159858D02*
G01X95551D01*
X85551Y158858D02*
G01X95551D01*
X26496Y160858D02*
G01X36496D01*
X26496Y159858D02*
G01X36496D01*
X26496Y158858D02*
G01X36496D01*
X73740Y160858D02*
G01X83740D01*
X73740Y159858D02*
G01X83740D01*
X73740Y158858D02*
G01X83740D01*
X26496Y227598D02*
G01X45496D01*
Y197598*
X26496*
Y227598*
X22953Y409882D02*
G01X41953D01*
Y379882*
X22953*
Y409882*
X205283Y439882D02*
G01Y449882D01*
X206283Y439882D02*
G01Y449882D01*
X207283Y439882D02*
G01Y449882D01*
X205283Y376890D02*
G01Y386890D01*
X206283Y376890D02*
G01Y386890D01*
X207283Y376890D02*
G01Y386890D01*
X115236Y110795D02*
G01X105236D01*
X115236Y111795D02*
G01X105236D01*
X115236Y112795D02*
G01X105236D01*
X127047Y110795D02*
G01X117047D01*
X127047Y111795D02*
G01X117047D01*
X127047Y112795D02*
G01X117047D01*
X343146Y86944D02*
G75*
G03X325646Y86944I-8750D01*
X325709Y46744D02*
G01Y86844D01*
X343209Y46744D02*
G01Y86644D01*
X328709Y62644D02*
G01X340709D01*
X328709Y72644D02*
G01X340709D01*
X334709Y62644D02*
G01Y56644D01*
Y72644D02*
G01Y78644D01*
X213500Y208800D02*
G01Y218800D01*
X214500Y208800D02*
G01Y218800D01*
X215500Y208800D02*
G01Y218800D01*
X265700Y208800D02*
G01Y218800D01*
X266700Y208800D02*
G01Y218800D01*
X267700Y208800D02*
G01Y218800D01*
X168228Y215472D02*
G01Y245472D01*
X178228*
Y215472*
X168228*
X180039D02*
G01Y245472D01*
X190039*
Y215472*
X180039*
X168228Y180039D02*
G01Y210039D01*
X178228*
Y180039*
X168228*
X180039D02*
G01Y210039D01*
X190039*
Y180039*
X180039*
X49724Y340276D02*
G01X40974D01*
Y341526*
X38474*
Y340276*
X29724*
Y360276*
X49724*
Y340276*
X0Y0D02*
G01X354331D01*
Y590551*
X0*
Y0*
G54D50*
X140669Y369331D02*
G01X210669D01*
Y349331*
X143669*
X140669Y352331*
Y369331*
G54D51*
X22910Y222598D02*
G03X22910Y222598I-1414D01*
X19367Y404882D02*
G03X19367Y404882I-1414D01*
G54D52*
X173058Y345929D02*
G01X172897Y346341D01*
X172575Y346752*
X172253Y346958*
X171609*
X171287Y346752*
X170965Y346341*
X170804Y345929*
X170642Y345312*
Y344282*
X170804Y343665*
X170965Y343253*
X171287Y342842*
X171609Y342636*
X172253*
X172575Y342842*
X172897Y343253*
X173058Y343665*
X175474Y346958D02*
G01X175152Y346752D01*
X174830Y346341*
X174669Y345929*
X174508Y345312*
Y344282*
X174669Y343665*
X174830Y343253*
X175152Y342842*
X175474Y342636*
X176118*
X176441Y342842*
X176763Y343253*
X176924Y343665*
X177085Y344282*
Y345312*
X176924Y345929*
X176763Y346341*
X176441Y346752*
X176118Y346958*
X175474*
X178534D02*
G01Y342636D01*
Y346958D02*
G01X180789Y342636D01*
Y346958D02*
G01Y342636D01*
X182239Y346135D02*
G01X182561Y346341D01*
X183044Y346958*
Y342636*
X49848Y307776D02*
G01Y304454D01*
X50009Y303789*
X50331Y303346*
X50814Y303125*
X51136*
X51620Y303346*
X51942Y303789*
X52103Y304454*
Y307776*
X55485Y307111D02*
G01X55324Y307554D01*
X54841Y307776*
X54519*
X54035Y307554*
X53713Y306890*
X53552Y305782*
Y304675*
X53713Y303789*
X54035Y303346*
X54519Y303125*
X54680*
X55163Y303346*
X55485Y303789*
X55646Y304454*
Y304675*
X55485Y305340*
X55163Y305782*
X54680Y306004*
X54519*
X54035Y305782*
X53713Y305340*
X53552Y304675*
X144390Y180351D02*
G01X139739D01*
X144390D02*
G01Y178901D01*
X144168Y178418*
X143947Y178257*
X143504Y178096*
X143061*
X142618Y178257*
X142397Y178418*
X142175Y178901*
Y180351*
Y179223D02*
G01X139739Y178096D01*
X144390Y176324D02*
G01Y174553D01*
X142618Y175519*
Y175036*
X142397Y174714*
X142175Y174553*
X141511Y174392*
X141068*
X140404Y174553*
X139961Y174875*
X139739Y175358*
Y175841*
X139961Y176324*
X140182Y176485*
X140625Y176646*
X144390Y171976D02*
G01X144168Y172459D01*
X143504Y172781*
X142397Y172942*
X141732*
X140625Y172781*
X139961Y172459*
X139739Y171976*
Y171654*
X139961Y171170*
X140625Y170848*
X141732Y170687*
X142397*
X143504Y170848*
X144168Y171170*
X144390Y171654*
Y171976*
X116831Y182319D02*
G01X112180D01*
X116831D02*
G01Y180870D01*
X116609Y180387*
X116388Y180225*
X115945Y180064*
X115502*
X115059Y180225*
X114838Y180387*
X114616Y180870*
Y182319*
Y181192D02*
G01X112180Y180064D01*
X115723Y178454D02*
G01X115945D01*
X116388Y178293*
X116609Y178132*
X116831Y177810*
Y177165*
X116609Y176843*
X116388Y176682*
X115945Y176521*
X115502*
X115059Y176682*
X114395Y177004*
X112180Y178615*
Y176360*
X116831Y174105D02*
G01X116609Y174588D01*
X116166Y174749*
X115723*
X115281Y174588*
X115059Y174266*
X114838Y173622*
X114616Y173139*
X114173Y172817*
X113730Y172656*
X113066*
X112623Y172817*
X112402Y172978*
X112180Y173461*
Y174105*
X112402Y174588*
X112623Y174749*
X113066Y174911*
X113730*
X114173Y174749*
X114616Y174427*
X114838Y173944*
X115059Y173300*
X115281Y172978*
X115723Y172817*
X116166*
X116609Y172978*
X116831Y173461*
Y174105*
X132579Y182319D02*
G01X127928D01*
X132579D02*
G01Y180870D01*
X132357Y180387*
X132136Y180225*
X131693Y180064*
X131250*
X130807Y180225*
X130586Y180387*
X130364Y180870*
Y182319*
Y181192D02*
G01X127928Y180064D01*
X131471Y178454D02*
G01X131693D01*
X132136Y178293*
X132357Y178132*
X132579Y177810*
Y177165*
X132357Y176843*
X132136Y176682*
X131693Y176521*
X131250*
X130807Y176682*
X130143Y177004*
X127928Y178615*
Y176360*
X131029Y172817D02*
G01X130364Y172978D01*
X129921Y173300*
X129700Y173783*
Y173944*
X129921Y174427*
X130364Y174749*
X131029Y174911*
X131250*
X131914Y174749*
X132357Y174427*
X132579Y173944*
Y173783*
X132357Y173300*
X131914Y172978*
X131029Y172817*
X129921*
X128814Y172978*
X128150Y173300*
X127928Y173783*
Y174105*
X128150Y174588*
X128593Y174749*
X101083Y188225D02*
G01X96432D01*
X101083D02*
G01Y186775D01*
X100861Y186292*
X100640Y186131*
X100197Y185970*
X99754*
X99311Y186131*
X99090Y186292*
X98868Y186775*
Y188225*
Y187097D02*
G01X96432Y185970D01*
X99975Y184359D02*
G01X100197D01*
X100640Y184198*
X100861Y184037*
X101083Y183715*
Y183071*
X100861Y182749*
X100640Y182588*
X100197Y182427*
X99754*
X99311Y182588*
X98647Y182910*
X96432Y184520*
Y182266*
X101083Y178561D02*
G01X96432Y180172D01*
X101083Y180816D02*
G01Y178561D01*
X110925Y251297D02*
G01X106275D01*
X110925D02*
G01Y249848D01*
X110704Y249365*
X110482Y249204*
X110039Y249043*
X109596*
X109154Y249204*
X108932Y249365*
X108711Y249848*
Y251297*
Y250170D02*
G01X106275Y249043D01*
X109818Y247432D02*
G01X110039D01*
X110482Y247271*
X110704Y247110*
X110925Y246788*
Y246144*
X110704Y245821*
X110482Y245660*
X110039Y245499*
X109596*
X109154Y245660*
X108489Y245982*
X106275Y247593*
Y245338*
X110925Y242278D02*
G01X107825Y243889D01*
Y241473*
X110925Y242278D02*
G01X106275D01*
X134547Y251297D02*
G01X129897D01*
X134547D02*
G01Y249848D01*
X134326Y249365*
X134104Y249204*
X133661Y249043*
X133219*
X132776Y249204*
X132554Y249365*
X132333Y249848*
Y251297*
Y250170D02*
G01X129897Y249043D01*
X133440Y247432D02*
G01X133661D01*
X134104Y247271*
X134326Y247110*
X134547Y246788*
Y246144*
X134326Y245821*
X134104Y245660*
X133661Y245499*
X133219*
X132776Y245660*
X132111Y245982*
X129897Y247593*
Y245338*
X134547Y241795D02*
G01Y243406D01*
X132554Y243567*
X132776Y243406*
X132997Y242922*
Y242439*
X132776Y241956*
X132333Y241634*
X131668Y241473*
X131225Y241634*
X130561Y241795*
X130118Y242117*
X129897Y242600*
Y243083*
X130118Y243567*
X130340Y243728*
X130782Y243889*
X106053Y401815D02*
G01X101403D01*
X106053D02*
G01Y400365D01*
X105832Y399882*
X105610Y399721*
X105167Y399560*
X104724*
X104281Y399721*
X104060Y399882*
X103839Y400365*
Y401815*
Y400687D02*
G01X101403Y399560D01*
X105167Y398110D02*
G01X105389Y397788D01*
X106053Y397305*
X101403*
X106053Y393762D02*
G01Y395372D01*
X104060Y395533*
X104281Y395372*
X104503Y394889*
Y394406*
X104281Y393923*
X103839Y393601*
X103174Y393440*
X102731Y393601*
X102067Y393762*
X101624Y394084*
X101403Y394567*
Y395050*
X101624Y395533*
X101845Y395694*
X102288Y395855*
X150295Y285845D02*
G01X145645D01*
X150295D02*
G01Y284395D01*
X150074Y283912*
X149852Y283751*
X149409Y283590*
X148967*
X148524Y283751*
X148302Y283912*
X148081Y284395*
Y285845*
Y284717D02*
G01X145645Y283590D01*
X149409Y282140D02*
G01X149631Y281818D01*
X150295Y281335*
X145645*
X149631Y277953D02*
G01X150074Y278114D01*
X150295Y278597*
Y278919*
X150074Y279402*
X149409Y279724*
X148302Y279885*
X147195*
X146309Y279724*
X145866Y279402*
X145645Y278919*
Y278758*
X145866Y278275*
X146309Y277953*
X146973Y277792*
X147195*
X147859Y277953*
X148302Y278275*
X148524Y278758*
Y278919*
X148302Y279402*
X147859Y279724*
X147195Y279885*
X63681Y419059D02*
G01X59031D01*
X63681D02*
G01Y417609D01*
X63460Y417126*
X63238Y416965*
X62795Y416804*
X62352*
X61909Y416965*
X61688Y417126*
X61467Y417609*
Y419059*
Y417931D02*
G01X59031Y416804D01*
X62795Y415354D02*
G01X63017Y415032D01*
X63681Y414549*
X59031*
X62795Y413099D02*
G01X63017Y412777D01*
X63681Y412294*
X59031*
X77461Y245311D02*
G01X72810D01*
X77461D02*
G01Y243862D01*
X77239Y243379*
X77018Y243218*
X76575Y243057*
X76132*
X75689Y243218*
X75468Y243379*
X75246Y243862*
Y245311*
Y244184D02*
G01X72810Y243057D01*
X76353Y241446D02*
G01X76575D01*
X77018Y241285*
X77239Y241124*
X77461Y240802*
Y240157*
X77239Y239835*
X77018Y239674*
X76575Y239513*
X76132*
X75689Y239674*
X75025Y239996*
X72810Y241607*
Y239352*
X76353Y237742D02*
G01X76575D01*
X77018Y237581*
X77239Y237419*
X77461Y237097*
Y236453*
X77239Y236131*
X77018Y235970*
X76575Y235809*
X76132*
X75689Y235970*
X75025Y236292*
X72810Y237903*
Y235648*
X160187Y284941D02*
G01X155536D01*
X160187D02*
G01Y283491D01*
X159966Y283008*
X159744Y282847*
X159301Y282686*
X158858*
X158415Y282847*
X158194Y283008*
X157972Y283491*
Y284941*
Y283814D02*
G01X155536Y282686D01*
X159301Y281237D02*
G01X159523Y280914D01*
X160187Y280431*
X155536*
X160187Y276727D02*
G01X155536Y278338D01*
X160187Y278982D02*
G01Y276727D01*
X65650Y245311D02*
G01X60999D01*
X65650D02*
G01Y243862D01*
X65428Y243379*
X65207Y243218*
X64764Y243057*
X64321*
X63878Y243218*
X63656Y243379*
Y243379D02*
G01X63435Y243862D01*
Y245311*
Y244184D02*
G01X60999Y243057D01*
X64542Y241446D02*
G01X64764D01*
X65207Y241285*
X65428Y241124*
X65650Y240802*
Y240157*
X65428Y239835*
X65207Y239674*
X64764Y239513*
X64321*
X63878Y239674*
X63214Y239996*
X60999Y241607*
Y239352*
X64764Y237903D02*
G01X64985Y237581D01*
X65650Y237097*
X60999*
X168012Y283957D02*
G01X163361D01*
X168012D02*
G01Y282507D01*
X167790Y282024*
X167569Y281863*
X167126Y281702*
X166683*
X166240Y281863*
X166019Y282024*
X165797Y282507*
Y283957*
Y282829D02*
G01X163361Y281702D01*
X167126Y280252D02*
G01X167347Y279930D01*
X168012Y279447*
X163361*
X168012Y277192D02*
G01X167790Y277675D01*
X167347Y277836*
X166905*
X166462Y277675*
X166240Y277353*
X166019Y276709*
X165797Y276226*
X165354Y275904*
X164911Y275743*
X164247*
X163804Y275904*
X163583Y276065*
X163361Y276548*
Y277192*
X163583Y277675*
X163804Y277836*
X164247Y277997*
X164911*
X165354Y277836*
X165797Y277514*
X166019Y277031*
X166240Y276387*
X166462Y276065*
X166905Y275904*
X167347*
X167790Y276065*
X168012Y276548*
Y277192*
X87303Y245392D02*
G01X82653D01*
X87303D02*
G01Y243942D01*
X87082Y243459*
X86860Y243298*
X86417Y243137*
X85974*
X85531Y243298*
Y243298D02*
G01X85310Y243459D01*
X85089Y243942*
Y245392*
Y244264D02*
G01X82653Y243137D01*
X86196Y241526D02*
G01X86417D01*
X86860Y241365*
X87082Y241204*
X87303Y240882*
Y240238*
X87082Y239916*
X86860Y239755*
X86417Y239594*
X85974*
X85531Y239755*
Y239755D02*
G01X84867Y240077D01*
X82653Y241688*
Y239433*
X87303Y237661D02*
G01Y235889D01*
X85531Y236856*
Y236856D02*
G01Y236373D01*
Y236373D02*
G01X85310Y236050D01*
X85089Y235889*
X84424Y235728*
X83981*
X83317Y235889*
X82874Y236212*
X82653Y236695*
Y237178*
X82874Y237661*
X83095Y237822*
X83538Y237983*
X63627Y195571D02*
G01Y192249D01*
X63788Y191585*
X64111Y191142*
X64594Y190920*
X64916*
X65399Y191142*
X65721Y191585*
X65882Y192249*
Y195571*
X69587D02*
G01X67976Y190920D01*
X67332Y195571D02*
G01X69587D01*
Y175644D02*
G01X64936D01*
Y173712*
X68922Y170329D02*
G01X69365Y170490D01*
X69587Y170974*
Y171296*
X69365Y171779*
X68701Y172101*
X67594Y172262*
X66486*
X65600Y172101*
X65157Y171779*
X64936Y171296*
Y171135*
X65157Y170651*
X65600Y170329*
X66265Y170168*
X66486*
X67151Y170329*
X67594Y170651*
X67815Y171135*
Y171296*
X67594Y171779*
X67151Y172101*
X66486Y172262*
X57776Y176369D02*
G01X53125D01*
Y174436*
X57776Y170893D02*
G01Y172504D01*
X55782Y172665*
X56004Y172504*
X56225Y172020*
Y171537*
X56004Y171054*
X55561Y170732*
X54897Y170571*
X54454Y170732*
X53789Y170893*
X53346Y171215*
X53125Y171698*
Y172181*
X53346Y172665*
X53568Y172826*
X54011Y172987*
X46014Y185675D02*
G01X41363D01*
X46014D02*
G01Y184547D01*
X45792Y184064*
X45349Y183742*
X44906Y183581*
X44242Y183420*
X43135*
X42470Y183581*
X42028Y183742*
X41585Y184064*
X41363Y184547*
Y185675*
X45349Y180038D02*
G01X45792Y180199D01*
X46014Y180682*
Y181004*
X45792Y181487*
X45128Y181809*
X44021Y181970*
X42913*
X42028Y181809*
X41585Y181487*
X41363Y181004*
Y180843*
X41585Y180360*
X42028Y180038*
X42692Y179877*
X42913*
X43578Y180038*
X44021Y180360*
X44242Y180843*
Y181004*
X44021Y181487*
X43578Y181809*
X42913Y181970*
X93209Y127317D02*
G01X88558D01*
X93209D02*
G01Y126190D01*
X92987Y125707*
X92544Y125385*
X92101Y125224*
X91437Y125063*
X90330*
X89665Y125224*
X89222Y125385*
X88780Y125707*
X88558Y126190*
Y127317*
X93209Y122808D02*
G01X92987Y123291D01*
X92544Y123452*
X92101*
X91658Y123291*
X91437Y122969*
X91216Y122325*
X90994Y121841*
X90551Y121519*
X90108Y121358*
X89444*
X89001Y121519*
X88780Y121680*
X88558Y122164*
Y122808*
X88780Y123291*
X89001Y123452*
X89444Y123613*
X90108*
X90551Y123452*
X90994Y123130*
X91216Y122647*
X91437Y122003*
X91658Y121680*
X92101Y121519*
X92544*
X92987Y121680*
X93209Y122164*
Y122808*
X24311Y174642D02*
G01X19660D01*
X24311D02*
G01Y173515D01*
X24090Y173031*
X23647Y172709*
X23204Y172548*
X22539Y172387*
X21432*
X20768Y172548*
X20325Y172709*
X19882Y173031*
X19660Y173515*
Y174642*
X24311Y168844D02*
G01Y170455D01*
X22318Y170616*
X22539Y170455*
X22761Y169971*
Y169488*
X22539Y169005*
X22096Y168683*
X21432Y168522*
X20989Y168683*
X20325Y168844*
X19882Y169166*
X19660Y169649*
Y170132*
X19882Y170616*
X20103Y170777*
X20546Y170938*
X81398Y127398D02*
G01X76747D01*
X81398D02*
G01Y126271D01*
X81176Y125787*
X80733Y125465*
X80290Y125304*
X79626Y125143*
X78519*
X77854Y125304*
X77411Y125465*
X76969Y125787*
X76747Y126271*
Y127398*
X81398Y121439D02*
G01X76747Y123049D01*
X81398Y123694D02*
G01Y121439D01*
X34297Y234753D02*
G01Y230431D01*
Y234753D02*
G01X35746D01*
X36229Y234548*
X36390Y234342*
X36552Y233930*
Y233518*
X36390Y233107*
X36229Y232901*
X35746Y232695*
X34297*
X35424D02*
G01X36552Y230431D01*
X38162Y233724D02*
G01Y233930D01*
X38323Y234342*
X38484Y234548*
X38806Y234753*
X39451*
X39773Y234548*
X39934Y234342*
X40095Y233930*
Y233518*
X39934Y233107*
X39612Y232489*
X38001Y230431*
X40256*
X43638Y234136D02*
G01X43477Y234548D01*
X42994Y234753*
X42672*
X42189Y234548*
X41866Y233930*
Y233930D02*
G01X41705Y232901D01*
Y231872*
X41866Y231048*
Y231048D02*
G01X42189Y230637D01*
X42672Y230431*
X42833*
X43316Y230637*
X43638Y231048*
X43799Y231666*
Y231872*
X43638Y232489*
X43316Y232901*
X42833Y233107*
X42672*
X42189Y232901*
X41866Y232489*
Y232489D02*
G01X41705Y231872D01*
X81398Y402872D02*
G01X76747D01*
X81398D02*
G01Y401423D01*
X81176Y400940*
X80955Y400778*
X80512Y400617*
X80069*
X79626Y400778*
X79405Y400940*
X79183Y401423*
Y402872*
Y401745D02*
G01X76747Y400617D01*
X80512Y399168D02*
G01X80733Y398846D01*
X81398Y398363*
X76747*
X81398Y395302D02*
G01X78297Y396913D01*
Y394497*
X81398Y395302D02*
G01X76747D01*
X28275Y375305D02*
G01Y370982D01*
Y375305D02*
G01X29724D01*
X30208Y375099*
X30369Y374893*
X30530Y374481*
Y374070*
X30369Y373658*
X30208Y373452*
X29724Y373246*
X28275*
X29402D02*
G01X30530Y370982D01*
X34073Y373864D02*
G01X33912Y373246D01*
X33590Y372835*
X33107Y372629*
X32946*
X32462Y372835*
X32140Y373246*
X31979Y373864*
Y374070*
X32140Y374687*
X32462Y375099*
X32946Y375305*
X33107*
X33590Y375099*
X33912Y374687*
X34073Y373864*
Y372835*
X33912Y371805*
X33590Y371188*
X33107Y370982*
X32785*
X32301Y371188*
X32140Y371600*
X115723Y388645D02*
G01X116166Y388806D01*
X116609Y389128*
X116831Y389451*
Y390095*
X116609Y390417*
X116166Y390739*
X115723Y390900*
X115059Y391061*
X113952*
X113287Y390900*
X112844Y390739*
X112402Y390417*
X112180Y390095*
Y389451*
X112402Y389128*
X112844Y388806*
X113287Y388645*
X115945Y387196D02*
G01X116166Y386874D01*
X116831Y386390*
X112180*
X116831Y384619D02*
G01Y382847D01*
X115059Y383814*
Y383330*
X114838Y383008*
X114616Y382847*
X113952Y382686*
X113509*
X112844Y382847*
X112402Y383169*
X112180Y383652*
Y384136*
X112402Y384619*
X112623Y384780*
X113066Y384941*
X73524Y402792D02*
G01X68873D01*
X73524D02*
G01Y401342D01*
X73302Y400859*
X73081Y400698*
X72638Y400537*
X72195*
X71752Y400698*
X71531Y400859*
X71309Y401342*
Y402792*
Y401664D02*
G01X68873Y400537D01*
X72638Y399087D02*
G01X72859Y398765D01*
X73524Y398282*
X68873*
X73524Y396510D02*
G01Y394739D01*
X71752Y395705*
Y395222*
X71531Y394900*
X71309Y394739*
X70645Y394578*
X70202*
X69537Y394739*
X69094Y395061*
X68873Y395544*
Y396027*
X69094Y396510*
X69316Y396671*
X69759Y396832*
X65650Y402792D02*
G01X60999D01*
X65650D02*
G01Y401342D01*
X65428Y400859*
X65207Y400698*
X64764Y400537*
X64321*
X63878Y400698*
X63656Y400859*
X63435Y401342*
Y402792*
Y401664D02*
G01X60999Y400537D01*
X64764Y399087D02*
G01X64985Y398765D01*
X65650Y398282*
X60999*
X64542Y396671D02*
G01X64764D01*
X65207Y396510*
X65428Y396349*
X65650Y396027*
Y395383*
X65428Y395061*
X65207Y394900*
X64764Y394739*
X64321*
X63878Y394900*
X63214Y395222*
X60999Y396832*
Y394578*
X186590Y323040D02*
G01X187032Y323202D01*
Y323202D02*
G01X187475Y323524D01*
X187697Y323846*
Y324490*
X187475Y324812*
X187032Y325134*
X186590Y325295*
X185925Y325456*
X184818*
X184154Y325295*
X183711Y325134*
X183268Y324812*
X183046Y324490*
Y323846*
X183268Y323524*
X183711Y323202*
Y323202D02*
G01X184154Y323040D01*
X186811Y321591D02*
G01X187032Y321269D01*
X187697Y320786*
X183046*
X187697Y317725D02*
G01X184596Y319336D01*
Y316920*
X187697Y317725D02*
G01X183046D01*
X172978Y282185D02*
G01Y277534D01*
X174911*
X176682Y282185D02*
G01X178454D01*
X177487Y280413*
X177971*
X178293Y280192*
X178454Y279970*
X178615Y279306*
Y278863*
X178454Y278199*
X178132Y277756*
X177649Y277534*
X177165*
X176682Y277756*
X176521Y277977*
X176360Y278420*
X321385Y557776D02*
G01Y554232D01*
X321224Y553568*
X321063Y553346*
X320741Y553125*
X320419*
X320097Y553346*
X319936Y553568*
X319775Y554232*
Y554675*
X324445Y557776D02*
G01X322835Y554675D01*
X325251*
X324445Y557776D02*
G01Y553125D01*
X341553Y548794D02*
G01X341392Y549237D01*
X341070Y549680*
X340748Y549902*
X340104*
X339782Y549680*
X339460Y549237*
X339298Y548794*
X339137Y548130*
Y547023*
X339298Y546358*
X339460Y545915*
X339782Y545472*
X340104Y545251*
X340748*
X341070Y545472*
X341392Y545915*
X341553Y546358*
X343325Y549902D02*
G01X345097D01*
X344130Y548130*
X344613*
X344936Y547908*
X345097Y547687*
X345258Y547023*
Y546580*
X345097Y545915*
X344775Y545472*
X344291Y545251*
X343808*
X343325Y545472*
X343164Y545694*
X343003Y546137*
X239549Y447539D02*
G01Y442889D01*
Y447539D02*
G01X240676D01*
X241160Y447318*
X241482Y446875*
X241643Y446432*
X241804Y445768*
Y444660*
X241643Y443996*
X241482Y443553*
X241160Y443110*
X240676Y442889*
X239549*
X243253Y446654D02*
G01X243576Y446875D01*
X244059Y447539*
Y442889*
X238824Y384547D02*
G01Y379897D01*
Y384547D02*
G01X239952D01*
X240435Y384326*
X240757Y383883*
X240918Y383440*
X241079Y382776*
Y381668*
X240918Y381004*
X240757Y380561*
X240435Y380118*
X239952Y379897*
X238824*
X242690Y383440D02*
G01Y383661D01*
X242851Y384104*
X243012Y384326*
X243334Y384547*
X243978*
X244300Y384326*
X244461Y384104*
X244622Y383661*
Y383219*
X244461Y382776*
X244139Y382111*
X242529Y379897*
X244783*
X150078Y511972D02*
G01X149917Y512415D01*
X149595Y512858*
X149273Y513079*
X148629*
X148307Y512858*
X147985Y512415*
X147823Y511972*
X147662Y511308*
Y510200*
X147823Y509536*
X147985Y509093*
X148307Y508650*
X148629Y508429*
X149273*
X149595Y508650*
X149917Y509093*
X150078Y509536*
X151689Y511972D02*
G01Y512194D01*
X151850Y512636*
X152011Y512858*
X152333Y513079*
X152977*
X153299Y512858*
X153461Y512636*
X153622Y512194*
Y511751*
X153461Y511308*
X153138Y510643*
X151528Y508429*
X153783*
X172810Y417448D02*
G01X173253Y417609D01*
X173696Y417931*
X173917Y418253*
Y418898*
X173696Y419220*
X173253Y419542*
X172810Y419703*
X172146Y419864*
X171038*
X170374Y419703*
X169931Y419542*
X169488Y419220*
X169267Y418898*
Y418253*
X169488Y417931*
X169931Y417609*
X170374Y417448*
X173031Y415999D02*
G01X173253Y415676D01*
X173917Y415193*
X169267*
X172810Y413583D02*
G01X173031D01*
X173474Y413422*
X173696Y413261*
X173917Y412938*
Y412294*
X173696Y411972*
X173474Y411811*
X173031Y411650*
X172589*
X172146Y411811*
X171481Y412133*
X169267Y413744*
Y411489*
X268629Y551683D02*
G01Y547360D01*
X270562*
X272011Y551683D02*
G01Y547360D01*
Y551683D02*
G01X274105D01*
X272011Y549624D02*
G01X273300D01*
X272011Y547360D02*
G01X274105D01*
X277165Y551683D02*
G01X275555Y548801D01*
X277971*
X277165Y551683D02*
G01Y547360D01*
X203494Y528194D02*
G01X198844D01*
X203494D02*
G01Y526745D01*
X203273Y526262*
X203051Y526101*
X202608Y525940*
X202165*
X201722Y526101*
X201501Y526262*
X201280Y526745*
Y528194*
Y527067D02*
G01X198844Y525940D01*
X203494Y524168D02*
G01Y522396D01*
X201722Y523363*
Y522879*
X201501Y522557*
X201280Y522396*
X200615Y522235*
X200172*
X199508Y522396*
X199065Y522718*
X198844Y523202*
Y523202D02*
G01Y523685D01*
X199065Y524168*
X199286Y524329*
X199729Y524490*
X108957Y457185D02*
G01X104306D01*
X108957D02*
G01Y455736D01*
X108735Y455252*
X108514Y455091*
X108071Y454930*
X107628*
X107185Y455091*
X106964Y455252*
X106742Y455736*
Y457185*
Y456058D02*
G01X104306Y454930D01*
X108071Y453481D02*
G01X108292Y453159D01*
X108957Y452675*
X104306*
X108957Y450259D02*
G01X108735Y450743D01*
X108071Y451065*
X106964Y451226*
X106299*
X105192Y451065*
X104528Y450743*
X104306Y450259*
Y449937*
X104528Y449454*
X105192Y449132*
X106299Y448971*
X106964*
X108071Y449132*
X108735Y449454*
X108957Y449937*
Y450259*
X238878Y530780D02*
G01X234227D01*
X238878D02*
G01Y529331D01*
X238656Y528848*
X238435Y528686*
X237992Y528525*
X237549*
X237106Y528686*
X236885Y528848*
X236663Y529331*
Y530780*
Y529653D02*
G01X234227Y528525D01*
X238214Y525143D02*
G01X238656Y525304D01*
X238878Y525787*
Y526110*
X238656Y526593*
X237992Y526915*
X236885Y527076*
X235778*
X234892Y526915*
X234449Y526593*
X234227Y526110*
Y525948*
X234449Y525465*
X234892Y525143*
X235556Y524982*
X235778*
X236442Y525143*
X236885Y525465*
X237106Y525948*
Y526110*
X236885Y526593*
X236442Y526915*
X235778Y527076*
X282418Y517298D02*
G01X282257Y517741D01*
X281935Y518184*
X281612Y518406*
X280968*
X280646Y518184*
X280324Y517741*
X280163Y517298*
X280002Y516634*
Y515527*
X280163Y514862*
X280324Y514419*
X280646Y513976*
X280968Y513755*
X281612*
X281935Y513976*
X282257Y514419*
X282418Y514862*
X285478Y518406D02*
G01X283867Y515305D01*
X286283*
X285478Y518406D02*
G01Y513755D01*
X176280Y468086D02*
G01X176118Y468529D01*
X175796Y468971*
X175474Y469193*
X174830*
X174508Y468971*
X174186Y468529*
X174025Y468086*
X173864Y467421*
Y466314*
X174025Y465650*
X174186Y465207*
X174508Y464764*
X174830Y464542*
X175474*
X175796Y464764*
X176118Y465207*
X176280Y465650*
X179823Y467643D02*
G01X179662Y466978D01*
X179340Y466535*
X178856Y466314*
X178695*
X178212Y466535*
X177890Y466978*
X177729Y467643*
Y467864*
X177890Y468529*
X178212Y468971*
X178695Y469193*
X178856*
X179340Y468971*
X179662Y468529*
X179823Y467643*
Y466535*
X179662Y465428*
X179340Y464764*
X178856Y464542*
X178534*
X178051Y464764*
X177890Y465207*
X113923Y563494D02*
G01Y559171D01*
X115855*
X117305Y563494D02*
G01Y559171D01*
Y563494D02*
G01X119399D01*
X117305Y561435D02*
G01X118593D01*
X117305Y559171D02*
G01X119399D01*
X120848Y562670D02*
G01X121170Y562876D01*
X121654Y563494*
Y559171*
X119660Y464692D02*
G01X120103Y464853D01*
X120546Y465175*
X120768Y465497*
Y466142*
X120546Y466464*
X120103Y466786*
X119660Y466947*
X118996Y467108*
X117889*
X117224Y466947*
X116781Y466786*
X116339Y466464*
X116117Y466142*
Y465497*
X116339Y465175*
X116781Y464853*
X117224Y464692*
X119882Y463243D02*
G01X120103Y462921D01*
X120768Y462437*
X116117*
X120768Y460021D02*
G01X120546Y460505D01*
X119882Y460827*
X118775Y460988*
X118110*
X117003Y460827*
X116339Y460505*
X116117Y460021*
Y459699*
X116339Y459216*
X117003Y458894*
X118110Y458733*
X118775*
X119882Y458894*
X120546Y459216*
X120768Y459699*
Y460021*
X50763Y557328D02*
G01X51206Y557489D01*
X51649Y557811*
X51870Y558134*
Y558134D02*
G01Y558778D01*
X51649Y559100*
X51206Y559422*
X50763Y559583*
X50098Y559744*
X48991*
X48327Y559583*
X47884Y559422*
X47441Y559100*
X47219Y558778*
Y558134*
Y558134D02*
G01X47441Y557811D01*
X47884Y557489*
X48327Y557328*
X50984Y555879D02*
G01X51206Y555557D01*
X51870Y555073*
X47219*
X7767Y573524D02*
G01Y568873D01*
Y573524D02*
G01X9055Y568873D01*
X10344Y573524D02*
G01X9055Y568873D01*
X10344Y573524D02*
G01Y568873D01*
X12921Y573524D02*
G01Y568873D01*
X11793Y573524D02*
G01X14048D01*
X15497D02*
G01Y568873D01*
X17752Y573524D02*
G01Y568873D01*
X15497Y571309D02*
G01X17752D01*
X20168Y573524D02*
G01X19846Y573302D01*
X19524Y572859*
X19363Y572416*
X19202Y571752*
Y570645*
X19363Y569980*
X19524Y569537*
X19846Y569094*
X20168Y568873*
X20812*
X21135Y569094*
X21457Y569537*
X21618Y569980*
X21779Y570645*
Y571752*
X21618Y572416*
X21457Y572859*
X21135Y573302*
X20812Y573524*
X20168*
X23228D02*
G01Y568873D01*
X25161*
X26611Y573524D02*
G01Y568873D01*
Y573524D02*
G01X28704D01*
X26611Y571309D02*
G01X27899D01*
X26611Y568873D02*
G01X28704D01*
X30154Y572638D02*
G01X30476Y572859D01*
X30959Y573524*
Y568873*
X322003Y573524D02*
G01Y568873D01*
Y573524D02*
G01X323291Y568873D01*
X324579Y573524D02*
G01X323291Y568873D01*
X324579Y573524D02*
G01Y568873D01*
X327156Y573524D02*
G01Y568873D01*
X326029Y573524D02*
G01X328284D01*
X329733D02*
G01Y568873D01*
X331988Y573524D02*
G01Y568873D01*
X329733Y571309D02*
G01X331988D01*
X334404Y573524D02*
G01X334082Y573302D01*
X333760Y572859*
X333599Y572416*
X333438Y571752*
Y570645*
X333599Y569980*
X333760Y569537*
X334082Y569094*
X334404Y568873*
X335048*
X335370Y569094*
X335693Y569537*
X335854Y569980*
X336015Y570645*
Y571752*
X335854Y572416*
X335693Y572859*
X335370Y573302*
X335048Y573524*
X334404*
X337464D02*
G01Y568873D01*
X339397*
X340846Y573524D02*
G01Y568873D01*
Y573524D02*
G01X342940D01*
X340846Y571309D02*
G01X342135D01*
X340846Y568873D02*
G01X342940D01*
X344551Y572416D02*
G01Y572638D01*
X344712Y573081*
X344873Y573302*
X345195Y573524*
X345839*
X346161Y573302*
X346322Y573081*
X346484Y572638*
Y572195*
X346322Y571752*
X346000Y571088*
X344390Y568873*
X346645*
X9010Y22343D02*
G01Y17692D01*
Y22343D02*
G01X10299Y17692D01*
X11587Y22343D02*
G01X10299Y17692D01*
X11587Y22343D02*
G01Y17692D01*
X14164Y22343D02*
G01Y17692D01*
X13037Y22343D02*
G01X15292D01*
X16741D02*
G01Y17692D01*
X18996Y22343D02*
G01Y17692D01*
X16741Y20128D02*
G01X18996D01*
X21412Y22343D02*
G01X21090Y22121D01*
X20768Y21678*
X20607Y21235*
X20446Y20571*
Y19464*
X20607Y18799*
X20768Y18356*
X21090Y17913*
X21412Y17692*
X22056*
X22378Y17913*
X22700Y18356*
X22861Y18799*
X23023Y19464*
Y20571*
X22861Y21235*
X22700Y21678*
X22378Y22121*
X22056Y22343*
X21412*
X24472D02*
G01Y17692D01*
X26405*
X27854Y22343D02*
G01Y17692D01*
Y22343D02*
G01X29948D01*
X27854Y20128D02*
G01X29143D01*
X27854Y17692D02*
G01X29948D01*
X33491Y22343D02*
G01X31881D01*
X31720Y20349*
X31881Y20571*
X32364Y20792*
X32847*
X33330Y20571*
X33652Y20128*
X33814Y19464*
X33652Y19021*
X33491Y18356*
X33169Y17913*
X32686Y17692*
X32203*
X31720Y17913*
X31559Y18135*
X31398Y18578*
X324052Y22343D02*
G01Y17692D01*
Y22343D02*
G01X325340Y17692D01*
X326628Y22343D02*
G01X325340Y17692D01*
X326628Y22343D02*
G01Y17692D01*
X329205Y22343D02*
G01Y17692D01*
X328078Y22343D02*
G01X330333D01*
X331782D02*
G01Y17692D01*
X334037Y22343D02*
G01Y17692D01*
X331782Y20128D02*
G01X334037D01*
X336453Y22343D02*
G01X336131Y22121D01*
X335809Y21678*
X335648Y21235*
X335487Y20571*
Y19464*
X335648Y18799*
X335809Y18356*
X336131Y17913*
X336453Y17692*
X337097*
X337419Y17913*
X337742Y18356*
X337903Y18799*
X338064Y19464*
Y20571*
X337903Y21235*
X337742Y21678*
X337419Y22121*
X337097Y22343*
X336453*
X339513D02*
G01Y17692D01*
X341446*
X342895Y22343D02*
G01Y17692D01*
Y22343D02*
G01X344989D01*
X342895Y20128D02*
G01X344184D01*
X342895Y17692D02*
G01X344989D01*
X348372Y21678D02*
G01X348210Y22121D01*
X347727Y22343*
X347405*
X346922Y22121*
X346600Y21457*
X346439Y20349*
Y19242*
X346600Y18356*
X346922Y17913*
X347405Y17692*
X347566*
X348049Y17913*
X348372Y18356*
X348533Y19021*
Y19242*
X348372Y19906*
X348049Y20349*
X347566Y20571*
X347405*
X346922Y20349*
X346600Y19906*
X346439Y19242*
X9010Y299902D02*
G01Y295251D01*
Y299902D02*
G01X10299Y295251D01*
X11587Y299902D02*
G01X10299Y295251D01*
X11587Y299902D02*
G01Y295251D01*
X14164Y299902D02*
G01Y295251D01*
X13037Y299902D02*
G01X15292D01*
X16741D02*
G01Y295251D01*
X18996Y299902D02*
G01Y295251D01*
X16741Y297687D02*
G01X18996D01*
X21412Y299902D02*
G01X21090Y299680D01*
X20768Y299237*
X20607Y298794*
X20446Y298130*
Y297023*
X20607Y296358*
X20768Y295915*
X21090Y295472*
X21412Y295251*
X22056*
X22378Y295472*
X22700Y295915*
X22861Y296358*
X23023Y297023*
Y298130*
X22861Y298794*
X22700Y299237*
X22378Y299680*
X22056Y299902*
X21412*
X24472D02*
G01Y295251D01*
X26405*
X27854Y299902D02*
G01Y295251D01*
Y299902D02*
G01X29948D01*
X27854Y297687D02*
G01X29143D01*
X27854Y295251D02*
G01X29948D01*
X31720Y299902D02*
G01X33491D01*
X32525Y298130*
X33008*
X33330Y297908*
X33491Y297687*
X33652Y297023*
Y296580*
X33491Y295915*
X33169Y295472*
X32686Y295251*
X32203*
X31720Y295472*
X31559Y295694*
X31398Y296137*
X323890Y297933D02*
G01Y293282D01*
Y297933D02*
G01X325179Y293282D01*
X326467Y297933D02*
G01X325179Y293282D01*
X326467Y297933D02*
G01Y293282D01*
X329044Y297933D02*
G01Y293282D01*
X327917Y297933D02*
G01X330172D01*
X331621D02*
G01Y293282D01*
X333876Y297933D02*
G01Y293282D01*
X331621Y295719D02*
G01X333876D01*
X336292Y297933D02*
G01X335970Y297712D01*
X335648Y297269*
X335487Y296826*
X335326Y296161*
Y295054*
X335487Y294390*
X335648Y293947*
X335970Y293504*
X336292Y293282*
X336936*
X337258Y293504*
X337581Y293947*
X337742Y294390*
X337903Y295054*
Y296161*
X337742Y296826*
X337581Y297269*
X337258Y297712*
X336936Y297933*
X336292*
X339352D02*
G01Y293282D01*
X341285*
X342734Y297933D02*
G01Y293282D01*
Y297933D02*
G01X344828D01*
X342734Y295719D02*
G01X344023D01*
X342734Y293282D02*
G01X344828D01*
X347888Y297933D02*
G01X346278Y294833D01*
X348694*
X347888Y297933D02*
G01Y293282D01*
X17741Y507979D02*
G01Y504657D01*
X17902Y503993*
X18224Y503550*
X18707Y503329*
Y503329D02*
G01X19030D01*
X19513Y503550*
X19835Y503993*
X19996Y504657*
Y507979*
X21446Y507093D02*
G01X21768Y507315D01*
X22251Y507979*
Y503329*
X92151Y490990D02*
G01X92594Y491151D01*
X93036Y491473*
X93258Y491795*
Y492439*
X93036Y492761*
X92594Y493083*
X92151Y493244*
X91486Y493406*
X90379*
X89715Y493244*
X89272Y493083*
X88829Y492761*
X88607Y492439*
Y491795*
X88829Y491473*
X89272Y491151*
X89715Y490990*
X93258Y487285D02*
G01X88607Y488896D01*
X93258Y489540D02*
G01Y487285D01*
X328765Y114359D02*
G01Y109708D01*
Y114359D02*
G01X330859D01*
X328765Y112144D02*
G01X330053D01*
X332308Y113473D02*
G01X332630Y113695D01*
X333113Y114359*
Y109708*
X105069Y140480D02*
G01X100418D01*
X105069D02*
G01Y139352D01*
X104847Y138869*
X104405Y138547*
X103962Y138386*
X103297Y138225*
X102190*
X101526Y138386*
X101083Y138547*
X100640Y138869*
X100418Y139352*
Y140480*
X103519Y134681D02*
G01X102854Y134843D01*
X102411Y135165*
X102190Y135648*
Y135809*
X102411Y136292*
X102854Y136614*
X103519Y136775*
X103740*
X104405Y136614*
X104847Y136292*
X105069Y135809*
Y135648*
X104847Y135165*
X104405Y134843*
X103519Y134681*
X102411*
X101304Y134843*
X100640Y135165*
X100418Y135648*
Y135970*
X100640Y136453*
X101083Y136614*
X126722Y151083D02*
G01X122072D01*
X126722D02*
G01Y149955D01*
X126501Y149472*
X126058Y149150*
X125615Y148989*
X124951Y148828*
X123844*
Y148828D02*
G01X123179Y148989D01*
X122736Y149150*
X122293Y149472*
X122072Y149955*
Y151083*
X125837Y147378D02*
G01X126058Y147056D01*
X126722Y146573*
X122072*
X126722Y144157D02*
G01X126501Y144640D01*
X125837Y144962*
X124729Y145123*
X124065*
X122958Y144962*
X122293Y144640*
X122072Y144157*
Y143835*
X122293Y143352*
X122958Y143030*
X124065Y142869*
X124729*
X125837Y143030*
X126501Y143352*
X126722Y143835*
Y144157*
X314578Y280411D02*
G01Y276868D01*
X314417Y276203*
X314256Y275982*
X313934Y275761*
X313612*
X313290Y275982*
X313129Y276203*
X312968Y276868*
Y277311*
X318121Y280411D02*
G01X316511D01*
X316350Y278418*
X316511Y278639*
X316994Y278861*
X317477*
X317960Y278639*
X318282Y278197*
X318444Y277532*
X318282Y277089*
X318121Y276425*
X317799Y275982*
X317316Y275761*
X316833*
X316350Y275982*
X316189Y276203*
X316028Y276646*
X339055Y101315D02*
G01X338894Y101758D01*
X338571Y102201*
X338249Y102423*
X337605*
X337283Y102201*
X336961Y101758*
X336800Y101315*
X336639Y100651*
Y99544*
X336800Y98879*
X336961Y98436*
X337283Y97993*
X337605Y97772*
X338249*
X338571Y97993*
X338894Y98436*
X339055Y98879*
X340504Y101537D02*
G01X340826Y101758D01*
X341309Y102423*
Y102423D02*
G01Y97772D01*
X344853Y102423D02*
G01X343242D01*
X343081Y100429*
X343242Y100651*
X343725Y100872*
X344209*
X344692Y100651*
X345014Y100208*
X345175Y99544*
X345014Y99101*
X344853Y98436*
X344531Y97993*
X344048Y97772*
X343564*
X343081Y97993*
X342920Y98215*
X342759Y98658*
X57776Y196260D02*
G01X53125D01*
X57776D02*
G01Y194810D01*
X57554Y194327*
X57333Y194166*
X56890Y194005*
X56447*
X56004Y194166*
X55782Y194327*
X55561Y194810*
Y196260D02*
G01Y194810D01*
X55340Y194327*
X55118Y194166*
X54675Y194005*
X54011*
X53568Y194166*
X53346Y194327*
X53125Y194810*
Y196260*
X56668Y190140D02*
G01X57111Y190301D01*
X57554Y190623*
X57776Y190945*
Y191589*
X57554Y191911*
X57111Y192233*
X56668Y192394*
X56004Y192555*
X54897*
X54232Y192394*
X53789Y192233*
X53346Y191911*
X53125Y191589*
Y190945*
X53346Y190623*
X53789Y190301*
X54232Y190140*
X57776Y186596D02*
G01Y188207D01*
X55782Y188368*
X56004Y188207*
X56225Y187724*
Y187241*
X56004Y186757*
X55561Y186435*
X54897Y186274*
X54454Y186435*
X53789Y186596*
X53346Y186918*
X53125Y187402*
Y187885*
X53346Y188368*
X53568Y188529*
X54011Y188690*
X103051Y274919D02*
G01X98401D01*
X103051D02*
G01Y273470D01*
X102830Y272987*
X102608Y272826*
X102165Y272665*
X101722*
X101280Y272826*
X101058Y272987*
X100837Y273470*
Y274919D02*
G01Y273470D01*
X100615Y272987*
X100394Y272826*
X99951Y272665*
X99286*
X98844Y272826*
X98622Y272987*
X98401Y273470*
Y274919*
X101944Y268799D02*
G01X102387Y268960D01*
X102830Y269282*
X103051Y269605*
Y270249*
X102830Y270571*
X102387Y270893*
X101944Y271054*
X101280Y271215*
X100172*
X99508Y271054*
X99065Y270893*
X98622Y270571*
X98401Y270249*
Y269605*
X98622Y269282*
X99065Y268960*
X99508Y268799*
X103051Y267028D02*
G01Y265256D01*
X101280Y266222*
Y265739*
X101058Y265417*
X100837Y265256*
X100172Y265095*
X99729*
X99065Y265256*
X98622Y265578*
X98401Y266061*
Y266544*
X98622Y267028*
X98844Y267189*
X99286Y267350*
X38091Y268173D02*
G01X33440D01*
X38091D02*
G01Y266723D01*
X37869Y266240*
X37648Y266079*
X37205Y265918*
X36762*
X36319Y266079*
X36097Y266240*
X35876Y266723*
Y268173D02*
G01Y266723D01*
X35655Y266240*
X35433Y266079*
X34990Y265918*
X34326*
X33883Y266079*
X33661Y266240*
X33440Y266723*
Y268173*
X36983Y262053D02*
G01X37426Y262214D01*
X37869Y262536*
X38091Y262858*
Y263502*
X37869Y263824*
X37426Y264146*
X36983Y264307*
X36319Y264469*
Y264469D02*
G01X35212D01*
Y264469D02*
G01X34547Y264307D01*
X34104Y264146*
X33661Y263824*
X33440Y263502*
Y262858*
X33661Y262536*
X34104Y262214*
X34547Y262053*
X38091Y258992D02*
G01X34990Y260603D01*
Y258187*
X38091Y258992D02*
G01X33440D01*
X173944Y270374D02*
G01Y265723D01*
X175877*
X178937Y270374D02*
G01X177326Y267274D01*
X179742*
X178937Y270374D02*
G01Y265723D01*
X98780Y418490D02*
G01X99222Y418651D01*
X99665Y418973*
X99887Y419295*
Y419939*
X99665Y420261*
X99222Y420583*
X98780Y420744*
X98115Y420906*
X97008*
X96344Y420744*
X95901Y420583*
X95458Y420261*
X95236Y419939*
Y419295*
X95458Y418973*
X95901Y418651*
X96344Y418490*
X99001Y417040D02*
G01X99222Y416718D01*
X99887Y416235*
X95236*
X99001Y414785D02*
G01X99222Y414463D01*
X99887Y413980*
X95236*
X96476Y381478D02*
G01X91826D01*
X96476D02*
G01Y380029D01*
X96255Y379545*
X96033Y379384*
X95591Y379223*
X95148*
X94705Y379384*
X94483Y379545*
X94262Y380029*
Y381478D02*
G01Y380029D01*
X94040Y379545*
X93819Y379384*
X93376Y379223*
X92712*
X92269Y379384*
X92047Y379545*
X91826Y380029*
Y381478*
X95369Y375358D02*
G01X95812Y375519D01*
X96255Y375841*
X96476Y376163*
Y376807*
X96255Y377130*
X95812Y377452*
X95369Y377613*
X94705Y377774*
X93597*
X92933Y377613*
X92490Y377452*
X92047Y377130*
X91826Y376807*
Y376163*
X92047Y375841*
X92490Y375519*
X92933Y375358*
X95369Y373747D02*
G01X95591D01*
X96033Y373586*
X96255Y373425*
X96476Y373103*
Y372459*
X96255Y372137*
X96033Y371976*
X95591Y371815*
X95148*
X94705Y371976*
X94040Y372298*
X91826Y373908*
Y371654*
X89272Y424526D02*
G01X84621D01*
X89272D02*
G01Y423076D01*
X89050Y422593*
X88829Y422432*
X88386Y422271*
X87943*
X87500Y422432*
X87279Y422593*
X87057Y423076*
Y424526D02*
G01Y423076D01*
X86836Y422593*
X86614Y422432*
X86171Y422271*
X85507*
X85064Y422432*
X84843Y422593*
X84621Y423076*
Y424526*
X88164Y418406D02*
G01X88607Y418567D01*
X89050Y418889*
X89272Y419211*
Y419855*
X89050Y420177*
X88607Y420499*
X88164Y420660*
X87500Y420821*
X86393*
X85728Y420660*
X85285Y420499*
X84843Y420177*
X84621Y419855*
Y419211*
X84843Y418889*
X85285Y418567*
X85728Y418406*
X88386Y416956D02*
G01X88607Y416634D01*
X89272Y416151*
X84621*
X116880Y160200D02*
G01X112229D01*
X116880D02*
G01Y158751D01*
X116658Y158268*
X116437Y158107*
X115994Y157946*
X115551*
X115108Y158107*
X114887Y158268*
X114665Y158751*
Y160200D02*
G01Y158751D01*
X114444Y158268*
X114222Y158107*
X113780Y157946*
X113115*
X112672Y158107*
X112451Y158268*
X112229Y158751*
Y160200*
X115773Y154080D02*
G01X116216Y154241D01*
X116658Y154563*
X116880Y154885*
Y155530*
X116658Y155852*
X116216Y156174*
X115773Y156335*
X115108Y156496*
X114001*
X113337Y156335*
X112894Y156174*
X112451Y155852*
X112229Y155530*
Y154885*
X112451Y154563*
X112894Y154241*
X113337Y154080*
X116216Y150698D02*
G01X116658Y150859D01*
X116880Y151342*
Y151664*
X116658Y152147*
X115994Y152470*
X114887Y152631*
X113780*
X112894Y152470*
X112451Y152147*
X112229Y151664*
Y151503*
X112451Y151020*
X112894Y150698*
X113558Y150537*
X113780*
X114444Y150698*
X114887Y151020*
X115108Y151503*
Y151664*
X114887Y152147*
X114444Y152470*
X113780Y152631*
X31078Y493092D02*
G01X31521Y493253D01*
X31964Y493576*
X32185Y493898*
Y494542*
X31964Y494864*
X31521Y495186*
X31078Y495347*
X30413Y495508*
X29306*
X28642Y495347*
X28199Y495186*
X27756Y494864*
X27534Y494542*
Y493898*
X27756Y493576*
X28199Y493253*
X28642Y493092*
X32185Y490838D02*
G01X31964Y491321D01*
X31521Y491482*
X31078*
X30635Y491321*
X30413Y490999*
X30192Y490354*
X29970Y489871*
X29528Y489549*
X29085Y489388*
X28420*
X27977Y489549*
X27756Y489710*
X27534Y490193*
Y490838*
X27756Y491321*
X27977Y491482*
X28420Y491643*
X29085*
X29528Y491482*
X29970Y491160*
X30192Y490676*
X30413Y490032*
X30635Y489710*
X31078Y489549*
X31521*
X31964Y489710*
X32185Y490193*
Y490838*
X70448Y491043D02*
G01X70891Y491204D01*
X71334Y491526*
X71555Y491849*
Y492493*
X71334Y492815*
X70891Y493137*
X70448Y493298*
X69783Y493459*
X68676*
X68012Y493298*
X67569Y493137*
X67126Y492815*
X66905Y492493*
Y491849*
X67126Y491526*
X67569Y491204*
X68012Y491043*
X70891Y487661D02*
G01X71334Y487822D01*
X71555Y488305*
Y488627*
X71334Y489111*
X70669Y489433*
X69562Y489594*
X68455*
X67569Y489433*
X67126Y489111*
X66905Y488627*
Y488466*
X67126Y487983*
X67569Y487661*
X68233Y487500*
X68455*
X69119Y487661*
X69562Y487983*
X69783Y488466*
Y488627*
X69562Y489111*
X69119Y489433*
X68455Y489594*
X221971Y187315D02*
G01Y182664D01*
X224226Y187315D02*
G01X221971Y184215D01*
X222776Y185322D02*
G01X224226Y182664D01*
X225675Y186429D02*
G01X225998Y186651D01*
X226481Y187315*
Y182664*
X121072Y555620D02*
G01Y551297D01*
X123005*
X124454Y555620D02*
G01Y551297D01*
Y555620D02*
G01X126548D01*
X124454Y553561D02*
G01X125743D01*
X124454Y551297D02*
G01X126548D01*
X128159Y554590D02*
G01Y554796D01*
X128320Y555208*
X128481Y555414*
X128803Y555620*
X129447*
X129769Y555414*
X129930Y555208*
X130091Y554796*
Y554385*
X129930Y553973*
X129608Y553355*
X127997Y551297*
X130252*
X191683Y524257D02*
G01X187032D01*
X191683D02*
G01Y522808D01*
X191462Y522325*
X191240Y522164*
X190797Y522003*
X190354*
X189911Y522164*
X189690Y522325*
X189469Y522808*
Y524257*
Y523130D02*
G01X187032Y522003D01*
X190576Y520392D02*
G01X190797D01*
X191240Y520231*
X191462Y520070*
X191683Y519748*
Y519103*
X191462Y518781*
X191240Y518620*
X190797Y518459*
X190354*
X189911Y518620*
X189247Y518942*
X187032Y520553*
Y518298*
X236856Y225098D02*
G01Y220448D01*
Y225098D02*
G01X237983D01*
X238466Y224877*
X238788Y224434*
X238950Y223991*
X239111Y223327*
Y222219*
X238950Y221555*
X238788Y221112*
X238466Y220669*
X237983Y220448*
X236856*
X240882Y225098D02*
G01X242654D01*
X241688Y223327*
X242171*
X242493Y223105*
X242654Y222884*
X242815Y222219*
Y221777*
X242654Y221112*
X242332Y220669*
X241849Y220448*
X241365*
X240882Y220669*
X240721Y220891*
X240560Y221334*
X204196Y234941D02*
G01X203874Y234719D01*
X203552Y234277*
X203391Y233834*
X203230Y233169*
Y232062*
X203391Y231398*
X203552Y230955*
X203874Y230512*
X204196Y230290*
X204841*
X205163Y230512*
X205485Y230955*
X205646Y231398*
X205807Y232062*
Y233169*
X205646Y233834*
X205485Y234277*
X205163Y234719*
X204841Y234941*
X204196*
X204680Y231176D02*
G01X205646Y229847D01*
X209350Y234941D02*
G01X207740D01*
X207579Y232948*
X207740Y233169*
X208223Y233391*
X208706*
X209189Y233169*
X209511Y232726*
X209673Y232062*
X209511Y231619*
X209350Y230955*
X209028Y230512*
X208545Y230290*
X208062*
X207579Y230512*
X207418Y230733*
X207257Y231176*
X204921Y252657D02*
G01X204599Y252436D01*
X204277Y251993*
X204116Y251550*
X203955Y250886*
Y249779*
X204116Y249114*
X204277Y248671*
X204599Y248228*
X204921Y248007*
X205565*
X205888Y248228*
X206210Y248671*
X206371Y249114*
X206532Y249779*
Y250886*
X206371Y251550*
X206210Y251993*
X205888Y252436*
X205565Y252657*
X204921*
X205404Y248893D02*
G01X206371Y247564D01*
X208304Y252657D02*
G01X210075D01*
X209109Y250886*
X209592*
X209914Y250664*
X210075Y250443*
X210236Y249779*
Y249336*
X210075Y248671*
X209753Y248228*
X209270Y248007*
X208787*
X208304Y248228*
X208142Y248450*
X207981Y248893*
X147835Y549902D02*
G01X147513Y549680D01*
X147190Y549237*
X147029Y548794*
X146868Y548130*
Y547023*
X147029Y546358*
X147190Y545915*
X147513Y545472*
X147835Y545251*
X148479*
X148801Y545472*
X149123Y545915*
X149284Y546358*
X149445Y547023*
Y548130*
X149284Y548794*
X149123Y549237*
X148801Y549680*
X148479Y549902*
X147835*
X148318Y546137D02*
G01X149284Y544808D01*
X150895Y549016D02*
G01X151217Y549237D01*
X151700Y549902*
Y545251*
X215305Y528114D02*
G01X210655D01*
X215305D02*
G01Y526664D01*
X215084Y526181*
X214862Y526020*
X214419Y525859*
X213976*
X213533Y526020*
X213312Y526181*
X213091Y526664*
Y528114*
Y526986D02*
G01X210655Y525859D01*
X215305Y522799D02*
G01X212205Y524409D01*
Y521994*
X215305Y522799D02*
G01X210655D01*
X174553Y571555D02*
G01Y568012D01*
X174392Y567347*
X174230Y567126*
X173908Y566905*
X173586*
X173264Y567126*
X173103Y567347*
X172942Y568012*
Y568455*
X176002Y570669D02*
G01X176324Y570891D01*
X176807Y571555*
Y566905*
X179823Y526199D02*
G01X175172D01*
X179823D02*
G01Y524749D01*
X179601Y524266*
X179380Y524105*
X178937Y523944*
X178494*
X178051Y524105*
X177830Y524266*
X177608Y524749*
Y526199*
Y525072D02*
G01X175172Y523944D01*
X178937Y522495D02*
G01X179158Y522173D01*
X179823Y521689*
X175172*
X275115Y185346D02*
G01Y180696D01*
X277370Y185346D02*
G01X275115Y182246D01*
X275920Y183353D02*
G01X277370Y180696D01*
X278980Y184239D02*
G01Y184461D01*
X279141Y184904*
X279302Y185125*
X279624Y185346*
X280269*
X280591Y185125*
X280752Y184904*
X280913Y184461*
Y184018*
X280752Y183575*
X280430Y182910*
X278819Y180696*
X281074*
X175581Y558465D02*
G01Y554143D01*
X177514*
X178963Y558465D02*
G01Y554143D01*
Y558465D02*
G01X181057D01*
X178963Y556407D02*
G01X180252D01*
X178963Y554143D02*
G01X181057D01*
X182829Y558465D02*
G01X184600D01*
X183634Y556819*
X184117*
X184439Y556613*
X184600Y556407*
X184761Y555789*
Y555378*
X184600Y554760*
X184278Y554349*
X183795Y554143*
X183312*
X182829Y554349*
X182667Y554554*
X182506Y554966*
X262549Y528194D02*
G01X257899D01*
X262549D02*
G01Y526745D01*
X262328Y526262*
X262106Y526101*
X261663Y525940*
X261220*
X260778Y526101*
X260556Y526262*
X260335Y526745*
Y528194*
Y527067D02*
G01X257899Y525940D01*
X262549Y523685D02*
G01X262328Y524168D01*
X261885Y524329*
X261442*
X260999Y524168*
X260778Y523846*
X260556Y523202*
Y523202D02*
G01X260335Y522718D01*
X259892Y522396*
X259449Y522235*
X258784*
X258342Y522396*
X258120Y522557*
X257899Y523040*
Y523685*
X258120Y524168*
X258342Y524329*
X258784Y524490*
X259449*
X259892Y524329*
X260335Y524007*
X260556Y523524*
X260778Y522879*
X260999Y522557*
X261442Y522396*
X261885*
X262328Y522557*
X262549Y523040*
Y523685*
X289925Y225098D02*
G01Y220448D01*
Y225098D02*
G01X291052D01*
X291535Y224877*
X291858Y224434*
X292019Y223991*
X292180Y223327*
Y222219*
X292019Y221555*
X291858Y221112*
X291535Y220669*
X291052Y220448*
X289925*
X295240Y225098D02*
G01X293629Y221998D01*
X296045*
X295240Y225098D02*
G01Y220448D01*
X253490Y229035D02*
G01X253168Y228814D01*
Y228814D02*
G01X252845Y228371D01*
X252684Y227928*
X252523Y227264*
Y226156*
X252684Y225492*
X252845Y225049*
X253168Y224606*
Y224606D02*
G01X253490Y224385D01*
X254134*
X254456Y224606*
X254778Y225049*
X254939Y225492*
X255100Y226156*
Y227264*
X254939Y227928*
X254778Y228371*
X254456Y228814*
X254134Y229035*
X253490*
X253973Y225271D02*
G01X254939Y223942D01*
X258482Y228371D02*
G01X258321Y228814D01*
X257838Y229035*
X257516*
X257033Y228814*
X256711Y228150*
X256550Y227042*
Y225935*
X256711Y225049*
X257033Y224606*
X257516Y224385*
X257677*
X258160Y224606*
X258482Y225049*
X258644Y225714*
Y225935*
X258482Y226599*
X258160Y227042*
X257677Y227264*
X257516*
X257033Y227042*
X256711Y226599*
X256550Y225935*
X257266Y252657D02*
G01X256943Y252436D01*
X256621Y251993*
X256460Y251550*
X256299Y250886*
Y249779*
X256460Y249114*
X256621Y248671*
X256943Y248228*
X257266Y248007*
X257910*
X258232Y248228*
X258554Y248671*
X258715Y249114*
X258876Y249779*
Y250886*
X258715Y251550*
X258554Y251993*
X258232Y252436*
X257910Y252657*
X257266*
X257749Y248893D02*
G01X258715Y247564D01*
X261936Y252657D02*
G01X260326Y249557D01*
X262742*
X261936Y252657D02*
G01Y248007D01*
X286874Y530217D02*
G01X286552Y529995D01*
X286229Y529552*
X286068Y529109*
X285907Y528445*
Y527338*
X286068Y526673*
X286229Y526230*
X286552Y525787*
X286874Y525566*
X287518*
X287840Y525787*
X288162Y526230*
X288323Y526673*
X288484Y527338*
Y528445*
X288323Y529109*
X288162Y529552*
X287840Y529995*
X287518Y530217*
X286874*
X287357Y526452D02*
G01X288323Y525123D01*
X290095Y529109D02*
G01Y529331D01*
X290256Y529774*
X290417Y529995*
X290739Y530217*
X291383*
X291705Y529995*
X291867Y529774*
Y529774D02*
G01X292028Y529331D01*
Y528888*
X291867Y528445*
Y528445D02*
G01X291544Y527781D01*
X289934Y525566*
X292189*
X225678D02*
G01X221027D01*
X225678D02*
G01Y524116D01*
X225456Y523633*
X225235Y523472*
X224792Y523311*
X224349*
X223906Y523472*
X223685Y523633*
X223463Y524116*
Y525566*
Y524439D02*
G01X221027Y523311D01*
X225678Y519768D02*
G01Y521378D01*
X223685Y521539*
X223906Y521378*
X224128Y520895*
Y520412*
X223906Y519929*
X223463Y519607*
X222799Y519446*
X222356Y519607*
X221692Y519768*
X221249Y520090*
X221027Y520573*
Y521056*
X221249Y521539*
X221470Y521701*
X221913Y521862*
X221072Y583366D02*
G01Y579823D01*
X220911Y579158*
X220750Y578937*
X220428Y578716*
X220106*
X219783Y578937*
X219622Y579158*
X219461Y579823*
Y580266*
X222683Y582259D02*
G01Y582480D01*
X222844Y582923*
X223005Y583145*
X223327Y583366*
X223971*
X224293Y583145*
X224454Y582923*
X224615Y582480*
Y582037*
X224454Y581594*
X224132Y580930*
X222521Y578716*
X224776*
X250738Y532131D02*
G01X246088D01*
X250738D02*
G01Y530682D01*
X250517Y530199*
X250295Y530038*
X249852Y529877*
X249409*
X248967Y530038*
X248745Y530199*
X248524Y530682*
Y532131*
Y531004D02*
G01X246088Y529877D01*
X250738Y526172D02*
G01X246088Y527783D01*
X250738Y528427D02*
G01Y526172D01*
X252657Y264191D02*
G01X248007D01*
X252657D02*
G01Y262742D01*
X252436Y262258*
X252215Y262097*
X251772Y261936*
X251329*
X250886Y262097*
X250664Y262258*
X250443Y262742*
Y264191*
Y263064D02*
G01X248007Y261936D01*
X251772Y260487D02*
G01X251993Y260165D01*
X252657Y259681*
X248007*
X251107Y256138D02*
G01X250443Y256299D01*
X250000Y256621*
X249779Y257105*
Y257266*
X250000Y257749*
X250443Y258071*
X251107Y258232*
X251329*
X251993Y258071*
X252436Y257749*
X252657Y257266*
Y257105*
X252436Y256621*
X251993Y256299*
X251107Y256138*
X250000*
X248893Y256299*
X248228Y256621*
X248007Y257105*
Y257427*
X248228Y257910*
X248671Y258071*
X282185Y264996D02*
G01X277534D01*
X282185D02*
G01Y263547D01*
X281964Y263064*
X281742Y262903*
X281299Y262742*
X280856*
X280413Y262903*
X280192Y263064*
X279970Y263547*
Y264996*
Y263869D02*
G01X277534Y262742D01*
X281078Y261131D02*
G01X281299D01*
X281742Y260970*
X281964Y260809*
X282185Y260487*
Y259843*
X281964Y259520*
X281742Y259359*
X281299Y259198*
X280856*
X280413Y259359*
X279749Y259681*
X277534Y261292*
Y259037*
X282185Y256621D02*
G01X281964Y257105D01*
X281299Y257427*
X280192Y257588*
X279528*
X278420Y257427*
X277756Y257105*
X277534Y256621*
Y256299*
X277756Y255816*
X278420Y255494*
X279528Y255333*
X280192*
X281299Y255494*
X281964Y255816*
X282185Y256299*
Y256621*
X254590Y575541D02*
G01Y571998D01*
X254429Y571334*
X254268Y571112*
X253946Y570891*
X253624*
X253302Y571112*
X253141Y571334*
X252980Y571998*
Y572441*
X256362Y575541D02*
G01X258133D01*
X257167Y573770*
X257650*
X257972Y573548*
X258133Y573327*
X258295Y572662*
Y572219*
X258133Y571555*
X257811Y571112*
X257328Y570891*
X256845*
X256362Y571112*
X256201Y571334*
X256040Y571777*
X48794Y491204D02*
G01X49237Y491365D01*
X49680Y491688*
X49902Y492010*
Y492654*
X49680Y492976*
X49237Y493298*
X48794Y493459*
X48130Y493620*
X47023*
X46358Y493459*
X45915Y493298*
X45472Y492976*
X45251Y492654*
Y492010*
X45472Y491688*
X45915Y491365*
X46358Y491204*
X49902Y487661D02*
G01Y489272D01*
X47908Y489433*
X48130Y489272*
X48351Y488788*
Y488305*
X48130Y487822*
X47687Y487500*
X47023Y487339*
X46580Y487500*
X45915Y487661*
X45472Y487983*
X45251Y488466*
Y488950*
X45472Y489433*
X45694Y489594*
X46137Y489755*
X57722Y435728D02*
G01Y432406D01*
X57883Y431742*
X58205Y431299*
X58688Y431078*
X59010*
X59494Y431299*
X59816Y431742*
X59977Y432406*
Y435728*
X61748D02*
G01X63520D01*
X62554Y433957*
X63037*
X63359Y433735*
X63520Y433514*
X63681Y432849*
Y432406*
X63520Y431742*
X63198Y431299*
X62715Y431078*
X62232*
X61748Y431299*
X61587Y431521*
X61426Y431964*
X135493Y152002D02*
G01Y148459D01*
X135332Y147794*
X135171Y147573*
X134849Y147351*
X134527*
X134205Y147573*
X134044Y147794*
X133883Y148459*
Y148902*
X139198Y152002D02*
G01X137587Y147351D01*
X136943Y152002D02*
G01X139198D01*
X158169Y240730D02*
G01X153519D01*
X158169D02*
G01Y238636D01*
X155955Y240730D02*
G01Y239442D01*
X153519Y240730D02*
G01Y238636D01*
X158169Y237187D02*
G01X153519D01*
X158169D02*
G01X153519Y235898D01*
X158169Y234610D02*
G01X153519Y235898D01*
X158169Y234610D02*
G01X153519D01*
X157283Y233160D02*
G01X157505Y232838D01*
X158169Y232355*
X153519*
X164075Y241455D02*
G01X159424D01*
X164075D02*
G01Y239361D01*
X161860Y241455D02*
G01Y240166D01*
X159424Y241455D02*
G01Y239361D01*
X164075Y237912D02*
G01X159424D01*
X164075D02*
G01X159424Y236623D01*
X164075Y235335D02*
G01X159424Y236623D01*
X164075Y235335D02*
G01X159424D01*
X162968Y233724D02*
G01X163189D01*
X163632Y233563*
X163853Y233402*
X164075Y233080*
Y232436*
X163853Y232113*
X163632Y231952*
X163189Y231791*
X162746*
X162303Y231952*
X161639Y232275*
X159424Y233885*
Y231630*
X126584Y105020D02*
G01Y101476D01*
X126423Y100812*
X126262Y100591*
X125940Y100369*
X125617*
X125295Y100591*
X125134Y100812*
X124973Y101476*
Y101919*
X128839Y105020D02*
G01X128355Y104798D01*
X128194Y104355*
Y103912*
X128355Y103469*
X128678Y103248*
X129322Y103027*
X129805Y102805*
X130127Y102362*
X130288Y101919*
Y101255*
X130127Y100812*
X129966Y100591*
X129483Y100369*
X128839*
X128355Y100591*
X128194Y100812*
X128033Y101255*
Y101919*
X128194Y102362*
X128516Y102805*
X129000Y103027*
X129644Y103248*
X129966Y103469*
X130127Y103912*
Y104355*
X129966Y104798*
X129483Y105020*
X128839*
X160138Y202085D02*
G01X155487D01*
X160138D02*
G01Y199991D01*
X157923Y202085D02*
G01Y200796D01*
X155487Y202085D02*
G01Y199991D01*
X160138Y198542D02*
G01X155487D01*
X160138D02*
G01X155487Y197253D01*
X160138Y195965D02*
G01X155487Y197253D01*
X160138Y195965D02*
G01X155487D01*
X160138Y194193D02*
G01Y192421D01*
X158366Y193388*
Y192904*
X158145Y192582*
X157923Y192421*
X157259Y192260*
X156816*
X156152Y192421*
X155709Y192743*
X155487Y193227*
Y193710*
X155709Y194193*
X155930Y194354*
X156373Y194515*
X166043Y202165D02*
G01X161393D01*
X166043D02*
G01Y200072D01*
X163829Y202165D02*
G01Y200877D01*
X161393Y202165D02*
G01Y200072D01*
X166043Y198622D02*
G01X161393D01*
X166043D02*
G01X161393Y197334D01*
X166043Y196045D02*
G01X161393Y197334D01*
X166043Y196045D02*
G01X161393D01*
X166043Y192985D02*
G01X162943Y194596D01*
Y192180*
X166043Y192985D02*
G01X161393D01*
X163053Y178836D02*
G01Y175293D01*
X162891Y174629*
X162730Y174407*
X162408Y174186*
X162086*
X161764Y174407*
X161603Y174629*
X161442Y175293*
Y175736*
X166435Y178172D02*
G01X166274Y178615D01*
X165791Y178836*
X165468*
X164985Y178615*
X164663Y177951*
X164502Y176843*
Y175736*
X164663Y174850*
X164985Y174407*
X165468Y174186*
X165629*
X166113Y174407*
X166435Y174850*
X166596Y175514*
Y175736*
X166435Y176400*
X166113Y176843*
X165629Y177065*
X165468*
X164985Y176843*
X164663Y176400*
X164502Y175736*
X59550Y119798D02*
G01Y115861D01*
Y119798D02*
G01X60777D01*
X61186Y119611*
X61323Y119423*
X61459Y119048*
Y118673*
X61323Y118298*
X61186Y118111*
X60777Y117923*
X59550D02*
G01X60777D01*
X61186Y117736*
X61323Y117548*
X61459Y117173*
Y116611*
X61323Y116236*
X61186Y116048*
X60777Y115861*
X59550*
X64732Y118861D02*
G01X64595Y119236D01*
X64323Y119611*
X64050Y119798*
X63504*
X63232Y119611*
X62959Y119236*
X62823Y118861*
X62686Y118298*
Y117361*
X62823Y116798*
X62959Y116423*
X63232Y116048*
X63504Y115861*
X64050*
X64323Y116048*
X64595Y116423*
X64732Y116798*
X67868Y119798D02*
G01X66504Y115861D01*
X65959Y119798D02*
G01X67868D01*
X58560Y108549D02*
G01Y104612D01*
Y108549D02*
G01X59788D01*
X60197Y108362*
X60333Y108174*
X60469Y107799*
Y107424*
X60333Y107049*
X60197Y106862*
X59788Y106674*
X58560D02*
G01X59788D01*
X60197Y106487*
X60333Y106299*
X60469Y105924*
Y105362*
X60333Y104987*
X60197Y104799*
X59788Y104612*
X58560*
X63742Y107612D02*
G01X63606Y107987D01*
X63333Y108362*
X63060Y108549*
X62515*
X62242Y108362*
X61969Y107987*
X61833Y107612*
X61697Y107049*
Y106112*
X61833Y105549*
X61969Y105174*
X62242Y104799*
X62515Y104612*
X63060*
X63333Y104799*
X63606Y105174*
X63742Y105549*
X65651Y108549D02*
G01X65242Y108362D01*
X65106Y107987*
Y107612*
X65242Y107237*
X65515Y107049*
X66060Y106862*
X66469Y106674*
X66742Y106299*
X66878Y105924*
Y105362*
X66742Y104987*
X66606Y104799*
X66197Y104612*
X65651*
X65242Y104799*
X65106Y104987*
X64969Y105362*
Y105924*
X65106Y106299*
X65378Y106674*
X65788Y106862*
X66333Y107049*
X66606Y107237*
X66742Y107612*
Y107987*
X66606Y108362*
X66197Y108549*
X65651*
X43970Y335849D02*
G01X43697Y336193D01*
X43288Y336365*
X42742*
X42333Y336193*
X42061Y335849*
Y335506*
X42197Y335162*
X42333Y334990*
X42606Y334818*
X43424Y334474*
X43697Y334302*
X43833Y334131*
X43970Y333787*
Y333271*
X43697Y332927*
X43288Y332756*
X42742*
X42333Y332927*
X42061Y333271*
X45197Y336365D02*
G01X45879Y332756D01*
X46561Y336365D02*
G01X45879Y332756D01*
X46561Y336365D02*
G01X47242Y332756D01*
X47924Y336365D02*
G01X47242Y332756D01*
X49152Y335677D02*
G01X49424Y335849D01*
X49833Y336365*
Y332756*
G54D12*
X34145Y97146D02*
G01Y93602D01*
X33984Y92938*
X33822Y92717*
X33500Y92495*
X33178*
X32856Y92717*
X32695Y92938*
X32534Y93602*
Y94045*
X37688Y95595D02*
G01X37527Y94931D01*
X37205Y94488*
X36722Y94267*
X36560*
X36077Y94488*
X35755Y94931*
X35594Y95595*
Y95817*
X35755Y96481*
X36077Y96924*
X36560Y97146*
X36722*
X37205Y96924*
X37527Y96481*
X37688Y95595*
Y94488*
X37527Y93381*
X37205Y92717*
X36722Y92495*
X36399*
X35916Y92717*
X35755Y93159*
X340084Y316072D02*
G01Y312751D01*
X340245Y312086*
X340568Y311643*
Y311643D02*
G01X341051Y311422D01*
X341373*
X341856Y311643*
X342178Y312086*
X342339Y312751*
Y316072*
X345882D02*
G01X344272D01*
X344111Y314079*
X344272Y314301*
X344755Y314522*
X345238*
X345721Y314301*
X346044Y313858*
X346205Y313194*
X346044Y312751*
X345882Y312086*
X345560Y311643*
X345077Y311422*
X344594*
X344111Y311643*
X343950Y311865*
X343789Y312308*
X157284Y479921D02*
G01X156299D01*
Y479512*
X157096Y479205D02*
G01X157143Y479137D01*
X157284Y479035*
X156299*
X130905Y436220D02*
G01X131890D01*
Y436630*
X131140Y436970D02*
G01X131093D01*
X130999Y437005*
X130952Y437039*
X130905Y437107*
Y437243*
X130952Y437311*
X130999Y437345*
X131093Y437380*
X131187*
X131280Y437345*
X131421Y437277*
X131890Y436936*
Y437414*
G54D49*
X265748Y672362D02*
G01Y669862D01*
Y687362D02*
G01Y689862D01*
X260748Y687362D02*
G01X270748D01*
Y672362*
X260748*
Y687362*
X67992Y841594D02*
G01Y801594D01*
X87992*
Y841594*
X67992*
X253937Y672362D02*
G01Y669862D01*
Y687362D02*
G01Y689862D01*
X248937Y687362D02*
G01X258937D01*
Y672362*
X248937*
Y687362*
X216724Y620453D02*
G01Y627539D01*
X212724D02*
G01Y620453D01*
X209724Y623996D02*
G01X212724D01*
X216724D02*
G01X219724D01*
X66142Y951760D02*
G01X73228D01*
Y955760D02*
G01X66142D01*
X69685Y958760D02*
G01Y955760D01*
Y951760D02*
G01Y948760D01*
X276653Y841594D02*
G01Y771594D01*
X296653*
Y841594*
X276653*
X289559Y667697D02*
G01Y674783D01*
X285559D02*
G01Y667697D01*
X282559Y671240D02*
G01X285559D01*
X289559D02*
G01X292559D01*
X245276Y635209D02*
G01X238189D01*
Y631209D02*
G01X245276D01*
X241732Y628209D02*
G01Y631209D01*
Y635209D02*
G01Y638209D01*
X180709Y724579D02*
G01X173622D01*
Y720579D02*
G01X180709D01*
X177165Y717579D02*
G01Y720579D01*
Y724579D02*
G01Y727579D01*
X81496Y773020D02*
G01X88583D01*
Y777020D02*
G01X81496D01*
X85039Y780020D02*
G01Y777020D01*
Y773020D02*
G01Y770020D01*
X216724Y610610D02*
G01Y617697D01*
X212724D02*
G01Y610610D01*
X209724Y614154D02*
G01X212724D01*
X216724D02*
G01X219724D01*
X306898Y934626D02*
G01Y927539D01*
X310898D02*
G01Y934626D01*
X313898Y931083D02*
G01X310898D01*
X306898D02*
G01X303898D01*
X315354Y824594D02*
G01X322441D01*
Y828594D02*
G01X315354D01*
X318898Y831594D02*
G01Y828594D01*
Y824594D02*
G01Y821594D01*
X102756Y824594D02*
G01X109843D01*
Y828594D02*
G01X102756D01*
X106299Y831594D02*
G01Y828594D01*
Y824594D02*
G01Y821594D01*
G54D44*
X48307Y841594D02*
G01Y791594D01*
X38307*
Y841594*
X48307*
X256969D02*
G01Y791594D01*
X246969*
Y841594*
X256969*
X172669Y611681D02*
G01X175669D01*
X177669Y613681*
Y616681*
Y670681D02*
G01Y675681D01*
X172669*
X118669D02*
G01X113669D01*
Y670681*
X118669Y611681D02*
G01X113669D01*
Y616681*
X87677Y703799D02*
G01Y613799D01*
X77677*
Y703799*
X87677*
X180197Y693799D02*
G01X90197D01*
Y703799*
X180197*
Y693799*
X0Y592500D02*
G01X354331D01*
Y1013760*
X0*
Y592500*
G54D50*
X140669Y792539D02*
G01X210669D01*
Y772539*
X143669*
X140669Y775539*
Y792539*
G54D52*
X7767Y721142D02*
G01Y716491D01*
Y721142D02*
G01X9055Y716491D01*
X10344Y721142D02*
G01X9055Y716491D01*
X10344Y721142D02*
G01Y716491D01*
X12921Y721142D02*
G01Y716491D01*
X11793Y721142D02*
G01X14048D01*
X15497D02*
G01Y716491D01*
X17752Y721142D02*
G01Y716491D01*
X15497Y718927D02*
G01X17752D01*
X20168Y721142D02*
G01X19846Y720920D01*
X19524Y720477*
X19363Y720034*
X19202Y719370*
Y718263*
X19363Y717598*
X19524Y717156*
X19846Y716713*
X20168Y716491*
X20812*
X21135Y716713*
X21457Y717156*
X21618Y717598*
X21779Y718263*
Y719370*
X21618Y720034*
X21457Y720477*
X21135Y720920*
X20812Y721142*
X20168*
X23228D02*
G01Y716491D01*
X25161*
X26611Y721142D02*
G01Y716491D01*
Y721142D02*
G01X28704D01*
X26611Y718927D02*
G01X27899D01*
X26611Y716491D02*
G01X28704D01*
X30476Y721142D02*
G01X32248D01*
X31281Y719370*
X31764*
X32087Y719149*
X32248Y718927*
X32409Y718263*
Y717820*
X32248Y717156*
X31926Y716713*
X31442Y716491*
X30959*
X30476Y716713*
X30315Y716934*
X30154Y717377*
X322003Y721142D02*
G01Y716491D01*
Y721142D02*
G01X323291Y716491D01*
X324579Y721142D02*
G01X323291Y716491D01*
X324579Y721142D02*
G01Y716491D01*
X327156Y721142D02*
G01Y716491D01*
X326029Y721142D02*
G01X328284D01*
X329733D02*
G01Y716491D01*
X331988Y721142D02*
G01Y716491D01*
X329733Y718927D02*
G01X331988D01*
X334404Y721142D02*
G01X334082Y720920D01*
X333760Y720477*
X333599Y720034*
X333438Y719370*
Y718263*
X333599Y717598*
X333760Y717156*
X334082Y716713*
X334404Y716491*
X335048*
X335370Y716713*
X335693Y717156*
X335854Y717598*
X336015Y718263*
Y719370*
X335854Y720034*
X335693Y720477*
X335370Y720920*
X335048Y721142*
X334404*
X337464D02*
G01Y716491D01*
X339397*
X340846Y721142D02*
G01Y716491D01*
Y721142D02*
G01X342940D01*
X340846Y718927D02*
G01X342135D01*
X340846Y716491D02*
G01X342940D01*
X346000Y721142D02*
G01X344390Y718041D01*
X346806*
X346000Y721142D02*
G01Y716491D01*
X142350Y765594D02*
G01X142189Y766006D01*
X141866Y766418*
Y766418D02*
G01X141544Y766624D01*
X140900*
X140578Y766418*
X140256Y766006*
X140095Y765594*
X139934Y764977*
Y763948*
X140095Y763330*
X140256Y762919*
X140578Y762507*
X140900Y762301*
X141544*
X141866Y762507*
Y762507D02*
G01X142189Y762919D01*
X142350Y763330*
X144766Y766624D02*
G01X144443Y766418D01*
X144121Y766006*
X143960Y765594*
X143799Y764977*
Y763948*
X143960Y763330*
X144121Y762919*
X144443Y762507*
X144766Y762301*
X145410*
X145732Y762507*
X146054Y762919*
X146215Y763330*
X146376Y763948*
Y764977*
X146215Y765594*
X146054Y766006*
X145732Y766418*
X145410Y766624*
X144766*
X147826D02*
G01Y762301D01*
Y766624D02*
G01X150081Y762301D01*
Y766624D02*
G01Y762301D01*
X151530Y765800D02*
G01X151852Y766006D01*
X152335Y766624*
Y762301*
X266462Y683051D02*
G01X261811D01*
Y681118*
X265354Y679508D02*
G01X265576D01*
X266019Y679347*
X266240Y679186*
X266462Y678864*
Y678219*
X266240Y677897*
X266019Y677736*
X265576Y677575*
X265133*
X264690Y677736*
X264026Y678058*
X261811Y679669*
Y677414*
X38952Y849772D02*
G01Y845122D01*
Y849772D02*
G01X40401D01*
X40884Y849551*
X41046Y849329*
X41207Y848886*
Y848444*
X41046Y848001*
X40884Y847779*
X40401Y847558*
X38952*
X40079D02*
G01X41207Y845122D01*
X43945Y849772D02*
G01X42656Y845122D01*
X43945Y849772D02*
G01X45233Y845122D01*
X43139Y846672D02*
G01X44750D01*
X46683Y848886D02*
G01X47005Y849108D01*
X47488Y849772*
Y845122*
X64639Y734257D02*
G01X64316Y734700D01*
X63833Y734921*
X63189*
X62706Y734700*
X62384Y734257*
Y733814*
X62545Y733371*
X62706Y733150*
X63028Y732928*
X63994Y732485*
X64316Y732264*
X64477Y732042*
X64639Y731599*
Y730935*
X64316Y730492*
X63833Y730271*
X63189*
X62706Y730492*
X62384Y730935*
X66088Y734035D02*
G01X66410Y734257D01*
X66893Y734921*
Y730271*
X68873Y849728D02*
G01Y846406D01*
X69034Y845741*
X69356Y845298*
X69839Y845077*
X70162*
X70645Y845298*
X70967Y845741*
X71128Y846406*
Y849728*
X72577Y848842D02*
G01X72900Y849063D01*
X73383Y849728*
Y845077*
X138717Y734257D02*
G01X138395Y734700D01*
X137912Y734921*
X137267*
X136784Y734700*
X136462Y734257*
Y733814*
X136623Y733371*
X136784Y733150*
X137106Y732928*
X138073Y732485*
X138395Y732264*
X138556Y732042*
X138717Y731599*
Y730935*
X138395Y730492*
X137912Y730271*
X137267*
X136784Y730492*
X136462Y730935*
X140327Y733814D02*
G01Y734035D01*
X140489Y734478*
X140650Y734700*
X140972Y734921*
X141616*
X141938Y734700*
X142099Y734478*
X142260Y734035*
Y733593*
X142099Y733150*
X141777Y732485*
X140166Y730271*
X142421*
X241314Y849316D02*
G01Y844665D01*
Y849316D02*
G01X242764D01*
X243247Y849094*
X243408Y848873*
X243569Y848430*
Y847987*
X243408Y847544*
X243247Y847323*
X242764Y847101*
X241314*
X242441D02*
G01X243569Y844665D01*
X246307Y849316D02*
G01X245018Y844665D01*
X246307Y849316D02*
G01X247595Y844665D01*
X245502Y846216D02*
G01X247112D01*
X249206Y848209D02*
G01Y848430D01*
X249367Y848873*
X249528Y849094*
X249850Y849316*
X250494*
X250816Y849094*
X250978Y848873*
X251139Y848430*
Y847987*
X250978Y847544*
X250655Y846880*
X249045Y844665*
X251300*
X313592Y925285D02*
G01Y920962D01*
X315524*
X316974Y925285D02*
G01Y920962D01*
Y925285D02*
G01X319068D01*
X316974Y923227D02*
G01X318262D01*
X316974Y920962D02*
G01X319068D01*
X320678Y924256D02*
G01Y924462D01*
X320839Y924873*
X321000Y925079*
X321322Y925285*
X321967*
X322289Y925079*
X322450Y924873*
X322611Y924462*
Y924050*
X322450Y923638*
X322128Y923021*
X320517Y920962*
X322772*
X313985Y878435D02*
G01Y874112D01*
X315918*
X317368Y878435D02*
G01Y874112D01*
Y878435D02*
G01X319461D01*
X317368Y876376D02*
G01X318656D01*
X317368Y874112D02*
G01X319461D01*
X321233Y878435D02*
G01X323005D01*
X322038Y876788*
X322521*
X322844Y876582*
X323005Y876376*
X323166Y875759*
Y875347*
X323005Y874730*
X322683Y874318*
X322199Y874112*
X321716*
X321233Y874318*
X321072Y874524*
X320911Y874935*
X213520Y734257D02*
G01X213198Y734700D01*
X212715Y734921*
X212071*
X211587Y734700*
X211265Y734257*
Y733814*
X211426Y733371*
X211587Y733150*
X211909Y732928*
X212876Y732485*
X213198Y732264*
X213359Y732042*
X213520Y731599*
Y730935*
X213198Y730492*
X212715Y730271*
X212071*
X211587Y730492*
X211265Y730935*
X215292Y734921D02*
G01X217063D01*
X216097Y733150*
X216580*
X216902Y732928*
X217063Y732707*
X217224Y732042*
Y731599*
X217063Y730935*
X216741Y730492*
X216258Y730271*
X215775*
X215292Y730492*
X215131Y730714*
X214970Y731156*
X288243Y734257D02*
G01X287921Y734700D01*
X287437Y734921*
X286793*
X286310Y734700*
X285988Y734257*
Y733814*
X286149Y733371*
X286310Y733150*
X286632Y732928*
X287598Y732485*
X287921Y732264*
X288082Y732042*
X288243Y731599*
Y730935*
X287921Y730492*
X287437Y730271*
X286793*
X286310Y730492*
X285988Y730935*
X291303Y734921D02*
G01X289692Y731821D01*
X292108*
X291303Y734921D02*
G01Y730271D01*
X284670Y909991D02*
G01Y905340D01*
Y909991D02*
G01X286120D01*
X286603Y909769*
X286764Y909548*
X286925Y909105*
Y908662*
X286764Y908219*
X286603Y907997*
X286120Y907776*
X284670*
X285798D02*
G01X286925Y905340D01*
X290468Y908440D02*
G01X290307Y907776D01*
X289985Y907333*
X289502Y907112*
X289341*
X288858Y907333*
X288536Y907776*
X288375Y908440*
Y908662*
X288536Y909326*
X288858Y909769*
X289341Y909991*
X289502*
X289985Y909769*
X290307Y909326*
X290468Y908440*
Y907333*
X290307Y906226*
X289985Y905561*
X289502Y905340*
X289180*
X288697Y905561*
X288536Y906004*
X296088Y910859D02*
G01Y906208D01*
Y910859D02*
G01X297537D01*
X298020Y910637*
X298181Y910416*
X298342Y909973*
Y909530*
X298181Y909087*
X298020Y908865*
X297537Y908644*
X296088*
X297215D02*
G01X298342Y906208D01*
X299792Y909973D02*
G01X300114Y910194D01*
X300597Y910859*
Y906208*
X303013Y910859D02*
G01X302530Y910637D01*
X302208Y909973*
X302047Y908865*
Y908201*
X302208Y907094*
X302530Y906429*
X303013Y906208*
X303335*
X303818Y906429*
X304141Y907094*
X304302Y908201*
Y908865*
X304141Y909973*
X303818Y910637*
X303335Y910859*
X303013*
X256594Y682335D02*
G01X251944D01*
Y680403*
X255709Y678953D02*
G01X255930Y678631D01*
X256594Y678148*
X251944*
X215014Y630492D02*
G01X214853Y630935D01*
X214531Y631378*
X214209Y631599*
X213565*
X213243Y631378*
X212921Y630935*
X212759Y630492*
X212598Y629828*
Y628720*
X212759Y628056*
X212921Y627613*
X213243Y627170*
X213565Y626949*
X214209*
X214531Y627170*
X214853Y627613*
X215014Y628056*
X218074Y631599D02*
G01X216464Y628499D01*
X218880*
X218074Y631599D02*
G01Y626949D01*
X57509Y973916D02*
G01X57348Y974358D01*
X57026Y974801*
X56704Y975023*
X56060*
X55738Y974801*
X55416Y974358*
X55255Y973916*
X55094Y973251*
Y973251D02*
G01Y972144D01*
Y972144D02*
G01X55255Y971480D01*
X55416Y971037*
X55738Y970594*
X56060Y970372*
X56704*
X57026Y970594*
X57348Y971037*
X57509Y971480*
X58959Y974137D02*
G01X59281Y974358D01*
X59764Y975023*
Y970372*
X191061Y633789D02*
G01Y629139D01*
Y633789D02*
G01X192511D01*
X192994Y633568*
X193155Y633346*
X193316Y632904*
Y632461*
X193155Y632018*
X192994Y631796*
X192511Y631575*
X191061D02*
G01X192511D01*
X192994Y631353*
X193155Y631132*
X193316Y630689*
Y630025*
X193155Y629582*
X192994Y629360*
X192511Y629139*
X191061*
X197181Y632682D02*
G01X197020Y633125D01*
X196698Y633568*
X196376Y633789*
X195732*
X195410Y633568*
X195088Y633125*
X194927Y632682*
X194766Y632018*
Y630910*
X194927Y630246*
X195088Y629803*
X195410Y629360*
X195732Y629139*
X196376*
X196698Y629360*
X197020Y629803*
X197181Y630246*
X200886Y633789D02*
G01X199275Y629139D01*
X198631Y633789D02*
G01X200886D01*
X173380Y607805D02*
G01Y604483D01*
X173542Y603819*
X173864Y603376*
X174347Y603155*
X174669*
X175152Y603376*
X175474Y603819*
X175635Y604483*
Y607805*
X177407D02*
G01X179179D01*
X178212Y606033*
X178695*
X179018Y605812*
X179179Y605591*
X179340Y604926*
Y604483*
X179179Y603819*
X178856Y603376*
X178373Y603155*
X177890*
X177407Y603376*
X177246Y603597*
X177085Y604040*
X79823Y959152D02*
G01X75172D01*
X79823D02*
G01Y957702D01*
X79601Y957219*
X79380Y957058*
X78937Y956897*
X78494*
X78051Y957058*
X77830Y957219*
X77608Y957702*
Y959152D02*
G01Y957702D01*
X77387Y957219*
X77165Y957058*
X76722Y956897*
X76058*
X75615Y957058*
X75394Y957219*
X75172Y957702*
Y959152*
X78716Y953031D02*
G01X79158Y953193D01*
X79601Y953515*
X79823Y953837*
Y954481*
X79601Y954803*
X79158Y955125*
X78716Y955286*
X78051Y955447*
X76944*
X76280Y955286*
X75837Y955125*
X75394Y954803*
X75172Y954481*
Y953837*
X75394Y953515*
X75837Y953193*
X76280Y953031*
X78937Y951582D02*
G01X79158Y951260D01*
X79823Y950777*
X75172*
X323720Y663711D02*
G01Y659060D01*
Y663711D02*
G01X325170D01*
X325653Y663489*
X325814Y663268*
X325975Y662825*
Y662382*
X325814Y661939*
X325653Y661718*
X325170Y661496*
X323720*
X324848D02*
G01X325975Y659060D01*
X327425Y662825D02*
G01X327747Y663046D01*
X328230Y663711*
Y659060*
X330485Y663711D02*
G01X330002Y663489D01*
X329841Y663046*
Y662603*
X330002Y662160*
X330324Y661939*
X330968Y661718*
X331451Y661496*
X331773Y661053*
X331935Y660610*
Y660610D02*
G01Y659946D01*
Y659946D02*
G01X331773Y659503D01*
X331612Y659281*
Y659281D02*
G01X331129Y659060D01*
X330485*
X330002Y659281*
Y659281D02*
G01X329841Y659503D01*
X329680Y659946*
Y660610*
X329841Y661053*
X330163Y661496*
X330646Y661718*
X331290Y661939*
X331612Y662160*
X331773Y662603*
Y663046*
X331612Y663489*
X331129Y663711*
X330485*
X325394Y652244D02*
G01Y647594D01*
Y652244D02*
G01X326843D01*
X327326Y652023*
X327487Y651801*
X327649Y651358*
Y650915*
X327487Y650472*
X327326Y650251*
X326843Y650030*
X325394*
X326521D02*
G01X327649Y647594D01*
X329098Y651358D02*
G01X329420Y651580D01*
X329903Y652244*
Y647594*
X333447Y650694D02*
G01X333286Y650030D01*
X332963Y649587*
X332480Y649365*
X332319*
X331836Y649587*
X331514Y650030*
X331353Y650694*
Y650915*
X331514Y651580*
X331836Y652023*
X332319Y652244*
X332480*
X332963Y652023*
X333286Y651580*
X333447Y650694*
Y649587*
X333286Y648479*
X332963Y647815*
X332480Y647594*
X332158*
X331675Y647815*
X331514Y648258*
X277534Y850059D02*
G01Y846737D01*
X277696Y846072*
X278018Y845629*
X278501Y845408*
X278823*
X279306Y845629*
X279628Y846072*
X279789Y846737*
Y850059*
X281400Y848951D02*
G01Y849173D01*
X281561Y849616*
X281722Y849837*
X282044Y850059*
X282688*
X283010Y849837*
X283172Y849616*
X283333Y849173*
Y848730*
X283172Y848287*
X282849Y847623*
X281239Y845408*
X283494*
X306961Y672790D02*
G01X306800Y673233D01*
X306478Y673676*
X306156Y673898*
X305512*
X305190Y673676*
X304868Y673233*
X304707Y672790*
X304545Y672126*
Y671019*
X304707Y670354*
X304868Y669911*
X305190Y669469*
X305512Y669247*
X306156*
X306478Y669469*
X306800Y669911*
X306961Y670354*
X308572Y672790D02*
G01Y673012D01*
X308733Y673455*
X308894Y673676*
X309216Y673898*
X309860*
X310183Y673676*
X310344Y673455*
X310505Y673012*
Y672569*
X310344Y672126*
X310021Y671462*
X308411Y669247*
X310666*
X288809Y612691D02*
G01X288537Y613066D01*
X288127Y613254*
X287582*
X287173Y613066*
X286900Y612691*
Y612316*
X287037Y611941*
X287173Y611754*
X287446Y611566*
X288264Y611191*
X288537Y611004*
X288673Y610816*
X288809Y610441*
Y609879*
X288537Y609504*
X288127Y609316*
X287582*
X287173Y609504*
X286900Y609879*
X291809Y613254D02*
G01X290446D01*
X290309Y611566*
X290446Y611754*
X290855Y611941*
X291264*
X291673Y611754*
X291946Y611379*
X292082Y610816*
X291946Y610441*
X291809Y609879*
X291537Y609504*
X291127Y609316*
X290718*
X290309Y609504*
X290173Y609691*
X290037Y610066*
X31639Y926072D02*
G01Y921750D01*
X33572*
X35021Y926072D02*
G01Y921750D01*
Y926072D02*
G01X37115D01*
X35021Y924014D02*
G01X36310D01*
X35021Y921750D02*
G01X37115D01*
X38565Y925249D02*
G01X38887Y925455D01*
X39370Y926072*
Y921750*
X56324Y910778D02*
G01Y906127D01*
Y910778D02*
G01X57773D01*
X58257Y910557*
X58418Y910335*
X58579Y909892*
Y909449*
X58418Y909006*
X58257Y908785*
X57773Y908563*
X56324*
X57451D02*
G01X58579Y906127D01*
X60833Y910778D02*
G01X60350Y910557D01*
X60189Y910114*
Y909671*
X60350Y909228*
X60672Y909006*
X61317Y908785*
X61800Y908563*
X62122Y908121*
X62283Y907678*
Y907013*
X62122Y906570*
X61961Y906349*
X61478Y906127*
X60833*
X60350Y906349*
X60189Y906570*
X60028Y907013*
Y907678*
X60189Y908121*
X60511Y908563*
X60995Y908785*
X61639Y909006*
X61961Y909228*
X62122Y909671*
Y910114*
X61961Y910557*
X61478Y910778*
X60833*
X238214Y607235D02*
G01Y602584D01*
Y607235D02*
G01X239663D01*
X240146Y607013*
X240307Y606792*
X240468Y606349*
Y605906*
X240307Y605463*
X240146Y605242*
X239663Y605020*
X238214*
X239341D02*
G01X240468Y602584D01*
X242079Y606127D02*
G01Y606349D01*
X242240Y606792*
X242401Y607013*
X242723Y607235*
X243367*
X243690Y607013*
X243851Y606792*
X244012Y606349*
Y605906*
X243851Y605463*
X243529Y604799*
X241918Y602584*
X244173*
X245622Y606349D02*
G01X245944Y606570D01*
X246428Y607235*
Y602584*
X238267Y617071D02*
G01X238106Y617513D01*
X237784Y617956*
X237462Y618178*
X236818*
X236496Y617956*
X236173Y617513*
X236012Y617071*
X235851Y616406*
Y615299*
X236012Y614634*
X236173Y614192*
X236496Y613749*
X236818Y613527*
X237462*
X237784Y613749*
X238106Y614192*
X238267Y614634*
X241811Y618178D02*
G01X240200D01*
X240039Y616185*
X240200Y616406*
X240683Y616628*
X241166*
X241650Y616406*
X241972Y615963*
X242133Y615299*
X241972Y614856*
X241811Y614192*
X241488Y613749*
X241005Y613527*
X240522*
X240039Y613749*
X239878Y613970*
X239717Y614413*
X81201Y940827D02*
G01Y936176D01*
Y940827D02*
G01X83295D01*
X81201Y938612D02*
G01X82489D01*
X84744Y940827D02*
G01Y936176D01*
Y940827D02*
G01X86999Y936176D01*
Y940827D02*
G01Y936176D01*
X88448Y940827D02*
G01Y936176D01*
Y940827D02*
G01X89576D01*
X90059Y940605*
X90381Y940162*
X90542Y939719*
X90703Y939055*
Y937948*
X90542Y937283*
X90381Y936841*
X90059Y936398*
X89576Y936176*
X88448*
X92153Y939941D02*
G01X92475Y940162D01*
X92958Y940827*
Y936176*
X66560Y697526D02*
G01Y692876D01*
Y697526D02*
G01X68010D01*
X68493Y697305*
X68654Y697083*
X68815Y696641*
Y696198*
X68654Y695755*
X68493Y695533*
X68010Y695312*
X66560*
X67687D02*
G01X68815Y692876D01*
X70264Y696641D02*
G01X70587Y696862D01*
X71070Y697526*
Y692876*
X74452Y696862D02*
G01X74291Y697305D01*
X73808Y697526*
X73486*
X73002Y697305*
X72680Y696641*
X72519Y695533*
Y694426*
X72680Y693540*
X73002Y693097*
X73486Y692876*
X73647*
X74130Y693097*
X74452Y693540*
X74613Y694205*
Y694426*
X74452Y695090*
X74130Y695533*
X73647Y695755*
X73486*
X73002Y695533*
X72680Y695090*
X72519Y694426*
X79035Y974685D02*
G01Y970034D01*
Y974685D02*
G01X80485D01*
X80968Y974464*
X81129Y974242*
X81290Y973799*
Y973356*
X81129Y972913*
X80968Y972692*
X80485Y972470*
X79035*
X80163D02*
G01X81290Y970034D01*
X84834Y974685D02*
G01X83223D01*
X83062Y972692*
X83223Y972913*
X83706Y973135*
X84189*
X84673Y972913*
X84995Y972470*
X85156Y971806*
X84995Y971363*
X84834Y970699*
X84511Y970256*
X84028Y970034*
X83545*
X83062Y970256*
X82901Y970477*
X82740Y970920*
X143289Y967598D02*
G01Y962948D01*
Y967598D02*
G01X144739D01*
X145222Y967377*
X145383Y967156*
X145544Y966713*
Y966270*
X145383Y965827*
X145222Y965605*
X144739Y965384*
X143289*
X144417D02*
G01X145544Y962948D01*
X148926Y966934D02*
G01X148765Y967377D01*
X148282Y967598*
X147960*
X147477Y967377*
X147155Y966713*
X146994Y965605*
Y964498*
X147155Y963612*
X147477Y963169*
X147960Y962948*
X148121*
X148604Y963169*
X148926Y963612*
X149087Y964277*
Y964498*
X148926Y965162*
X148604Y965605*
X148121Y965827*
X147960*
X147477Y965605*
X147155Y965162*
X146994Y964498*
X221188Y831378D02*
G01Y826727D01*
Y831378D02*
G01X222638D01*
X223121Y831156*
X223282Y830935*
X223443Y830492*
Y830049*
X223282Y829606*
X223121Y829385*
X222638Y829163*
X221188*
X222316D02*
G01X223443Y826727D01*
X224893Y830492D02*
G01X225215Y830714D01*
X225698Y831378*
Y826727*
X228758Y831378D02*
G01X227147Y828278D01*
X229563*
X228758Y831378D02*
G01Y826727D01*
X118406Y853031D02*
G01Y848381D01*
Y853031D02*
G01X119855D01*
X120338Y852810*
X120499Y852589*
X120660Y852146*
Y851703*
X120499Y851260*
X120338Y851038*
X119855Y850817*
X118406*
X119533D02*
G01X120660Y848381D01*
X122110Y852146D02*
G01X122432Y852367D01*
X122915Y853031*
Y848381*
X124365Y852146D02*
G01X124687Y852367D01*
X125170Y853031*
Y848381*
X130923Y821535D02*
G01Y816885D01*
Y821535D02*
G01X132373D01*
X132856Y821314*
X133017Y821093*
X133178Y820650*
Y820207*
X133017Y819764*
X132856Y819542*
X132373Y819321*
X130923*
X132051D02*
G01X133178Y816885D01*
X134628Y820650D02*
G01X134950Y820871D01*
X135433Y821535*
Y816885*
X137205Y821535D02*
G01X138976D01*
X138010Y819764*
X138493*
X138815Y819542*
X138976Y819321*
X139137Y818656*
Y818214*
X138976Y817549*
X138654Y817106*
X138171Y816885*
X137688*
X137205Y817106*
X137044Y817328*
X136883Y817771*
X247029Y974734D02*
G01Y970084D01*
Y974734D02*
G01X248479D01*
X248962Y974513*
X249123Y974291*
X249284Y973848*
Y973406*
X249123Y972963*
X248962Y972741*
X248479Y972520*
X247029*
X248157D02*
G01X249284Y970084D01*
X252989Y974734D02*
G01X251378Y970084D01*
X250734Y974734D02*
G01X252989D01*
X170768Y853031D02*
G01Y848381D01*
Y853031D02*
G01X172217D01*
X172700Y852810*
X172861Y852589*
X173023Y852146*
Y851703*
X172861Y851260*
X172700Y851038*
X172217Y850817*
X170768*
X171895D02*
G01X173023Y848381D01*
X174472Y852146D02*
G01X174794Y852367D01*
X175277Y853031*
Y848381*
X176888Y851924D02*
G01Y852146D01*
X177049Y852589*
X177210Y852810*
X177532Y853031*
X178176*
X178499Y852810*
X178660Y852589*
X178821Y852146*
Y851703*
X178660Y851260*
X178338Y850595*
X176727Y848381*
X178982*
X162831Y818386D02*
G01Y813735D01*
Y818386D02*
G01X164281D01*
X164764Y818164*
X164925Y817943*
X165086Y817500*
Y817057*
X164925Y816614*
X164764Y816393*
X164281Y816171*
X162831*
X163958D02*
G01X165086Y813735D01*
X166535Y817500D02*
G01X166858Y817721D01*
X167341Y818386*
Y813735*
X170884Y818386D02*
G01X169273D01*
X169112Y816393*
X169273Y816614*
X169757Y816836*
X170240*
X170723Y816614*
X171045Y816171*
X171206Y815507*
X171045Y815064*
X170884Y814400*
X170562Y813957*
X170079Y813735*
X169596*
X169112Y813957*
X168951Y814178*
X168790Y814621*
X127505Y957362D02*
G01X127183Y957141D01*
X126861Y956698*
X126700Y956255*
X126539Y955591*
Y954483*
X126700Y953819*
X126861Y953376*
X127183Y952933*
X127505Y952712*
X128150*
X128472Y952933*
X128794Y953376*
X128955Y953819*
X129116Y954483*
Y955591*
X128955Y956255*
X128794Y956698*
X128472Y957141*
X128150Y957362*
X127505*
X127989Y953597D02*
G01X128955Y952269D01*
X130565Y956476D02*
G01X130888Y956698D01*
X131371Y957362*
Y952712*
X160889Y957362D02*
G01X160567Y957141D01*
X160245Y956698*
X160084Y956255*
X159923Y955591*
Y954483*
X160084Y953819*
X160245Y953376*
X160567Y952933*
X160889Y952712*
X161534*
X161856Y952933*
X162178Y953376*
X162339Y953819*
X162500Y954483*
Y955591*
X162339Y956255*
X162178Y956698*
X161856Y957141*
X161534Y957362*
X160889*
X161373Y953597D02*
G01X162339Y952269D01*
X164111Y956255D02*
G01Y956476D01*
X164272Y956919*
X164433Y957141*
X164755Y957362*
X165399*
X165721Y957141*
X165882Y956919*
X166043Y956476*
Y956033*
X165882Y955591*
X165560Y954926*
X163950Y952712*
X166204*
X190497Y955394D02*
G01X190175Y955172D01*
X189853Y954729*
X189692Y954286*
X189531Y953622*
Y952515*
X189692Y951850*
X189853Y951407*
X190175Y950965*
X190497Y950743*
X191142*
X191464Y950965*
X191786Y951407*
X191947Y951850*
X192108Y952515*
Y953622*
X191947Y954286*
X191786Y954729*
X191464Y955172*
X191142Y955394*
X190497*
X190981Y951629D02*
G01X191947Y950300D01*
X193880Y955394D02*
G01X195651D01*
X194685Y953622*
X195168*
X195490Y953401*
X195651Y953179*
X195812Y952515*
Y952072*
X195651Y951407*
X195329Y950965*
X194846Y950743*
X194363*
X193880Y950965*
X193719Y951186*
X193558Y951629*
X218817Y957362D02*
G01X218495Y957141D01*
X218173Y956698*
X218012Y956255*
X217851Y955591*
Y954483*
X218012Y953819*
X218173Y953376*
X218495Y952933*
X218817Y952712*
X219461*
X219783Y952933*
X220106Y953376*
X220267Y953819*
X220428Y954483*
Y955591*
X220267Y956255*
X220106Y956698*
X219783Y957141*
X219461Y957362*
X218817*
X219300Y953597D02*
G01X220267Y952269D01*
X223488Y957362D02*
G01X221877Y954262D01*
X224293*
X223488Y957362D02*
G01Y952712D01*
X91518Y996732D02*
G01Y992082D01*
Y996732D02*
G01X92967D01*
X93450Y996511*
X93611Y996289*
X93772Y995846*
Y995404*
X93611Y994961*
X93450Y994739*
X92967Y994518*
X91518*
X92645D02*
G01X93772Y992082D01*
X95222Y995846D02*
G01X95544Y996068D01*
X96027Y996732*
Y992082*
X144649Y996339D02*
G01Y991688D01*
Y996339D02*
G01X146099D01*
X146582Y996117*
X146743Y995896*
X146904Y995453*
Y995010*
X146743Y994567*
X146582Y994345*
X146099Y994124*
X144649*
X145777D02*
G01X146904Y991688D01*
X148515Y995231D02*
G01Y995453D01*
X148676Y995896*
X148837Y996117*
X149159Y996339*
X149803*
X150125Y996117*
X150286Y995896*
X150447Y995453*
Y995010*
X150286Y994567*
X149964Y993903*
X148354Y991688*
X150608*
X249445Y996781D02*
G01Y992131D01*
Y996781D02*
G01X250895D01*
X251378Y996560*
X251539Y996339*
X251700Y995896*
Y995453*
X251539Y995010*
X251378Y994788*
X250895Y994567*
X249445*
X250573D02*
G01X251700Y992131D01*
X254760Y996781D02*
G01X253150Y993681D01*
X255565*
X254760Y996781D02*
G01Y992131D01*
X197092Y996732D02*
G01Y992082D01*
Y996732D02*
G01X198542D01*
X199025Y996511*
X199186Y996289*
X199347Y995846*
Y995404*
X199186Y994961*
X199025Y994739*
X198542Y994518*
X197092*
X198219D02*
G01X199347Y992082D01*
X201118Y996732D02*
G01X202890D01*
X201924Y994961*
X202407*
X202729Y994739*
X202890Y994518*
X203051Y993853*
Y993410*
X202890Y992746*
X202568Y992303*
X202085Y992082*
X201602*
X201118Y992303*
X200957Y992525*
X200796Y992968*
X322835Y996757D02*
G01Y992106D01*
Y996757D02*
G01X324123Y992106D01*
X325412Y996757D02*
G01X324123Y992106D01*
X325412Y996757D02*
G01Y992106D01*
X327989Y996757D02*
G01Y992106D01*
X326861Y996757D02*
G01X329116D01*
X330565D02*
G01Y992106D01*
X332820Y996757D02*
G01Y992106D01*
X330565Y994542D02*
G01X332820D01*
X335236Y996757D02*
G01X334914Y996535D01*
X334592Y996093*
X334431Y995650*
X334270Y994985*
Y993878*
X334431Y993214*
X334592Y992771*
X334914Y992328*
X335236Y992106*
X335880*
X336203Y992328*
X336525Y992771*
X336686Y993214*
X336847Y993878*
Y994985*
X336686Y995650*
X336525Y996093*
X336203Y996535*
X335880Y996757*
X335236*
X338296D02*
G01Y992106D01*
X340229*
X341679Y996757D02*
G01Y992106D01*
Y996757D02*
G01X343772D01*
X341679Y994542D02*
G01X342967D01*
X341679Y992106D02*
G01X343772D01*
X345383Y995650D02*
G01Y995871D01*
X345544Y996314*
X345705Y996535*
X346027Y996757*
X346671*
X346994Y996535*
X347155Y996314*
X347316Y995871*
Y995428*
X347155Y994985*
X346832Y994321*
Y994321D02*
G01X345222Y992106D01*
X347477*
X8930Y996732D02*
G01Y992082D01*
Y996732D02*
G01X10218Y992082D01*
X11507Y996732D02*
G01X10218Y992082D01*
X11507Y996732D02*
G01Y992082D01*
X14084Y996732D02*
G01Y992082D01*
X12956Y996732D02*
G01X15211D01*
X16661D02*
G01Y992082D01*
X18916Y996732D02*
G01Y992082D01*
X16661Y994518D02*
G01X18916D01*
X21331Y996732D02*
G01X21009Y996511D01*
X20687Y996068*
X20526Y995625*
X20365Y994961*
Y993853*
X20526Y993189*
X20687Y992746*
X21009Y992303*
X21331Y992082*
X21976*
X22298Y992303*
X22620Y992746*
X22781Y993189*
X22942Y993853*
Y994961*
X22781Y995625*
X22620Y996068*
X22298Y996511*
X21976Y996732*
X21331*
X24392D02*
G01Y992082D01*
X26324*
X27774Y996732D02*
G01Y992082D01*
Y996732D02*
G01X29868D01*
X27774Y994518D02*
G01X29062D01*
X27774Y992082D02*
G01X29868D01*
X31317Y995846D02*
G01X31639Y996068D01*
X32122Y996732*
Y992082*
X179035Y748835D02*
G01X174385D01*
X179035D02*
G01Y747385D01*
X178814Y746902*
X178593Y746741*
X178150Y746580*
X177707*
X177264Y746741*
X177042Y746902*
X176821Y747385*
Y748835D02*
G01Y747385D01*
X176599Y746902*
X176378Y746741*
X175935Y746580*
X175271*
X174828Y746741*
X174606Y746902*
X174385Y747385*
Y748835*
X177928Y742715D02*
G01X178371Y742876D01*
X178814Y743198*
X179035Y743520*
Y744164*
X178814Y744486*
X178371Y744809*
X177928Y744970*
X177264Y745131*
X176156*
X175492Y744970*
X175049Y744809*
X174606Y744486*
X174385Y744164*
Y743520*
X174606Y743198*
X175049Y742876*
X175492Y742715*
X178371Y739332D02*
G01X178814Y739494D01*
X179035Y739977*
Y740299*
X178814Y740782*
X178150Y741104*
X177042Y741265*
X175935*
X175049Y741104*
X174606Y740782*
X174385Y740299*
Y740138*
X174606Y739655*
X175049Y739332*
X175714Y739171*
X175935*
X176599Y739332*
X177042Y739655*
X177264Y740138*
Y740299*
X177042Y740782*
X176599Y741104*
X175935Y741265*
X52785Y673916D02*
G01X52624Y674358D01*
X52302Y674801*
X51980Y675023*
X51335*
X51013Y674801*
X50691Y674358*
X50530Y673916*
X50369Y673251*
Y672144*
X50530Y671480*
X50691Y671037*
X51013Y670594*
X51335Y670372*
X51980*
X52302Y670594*
X52624Y671037*
X52785Y671480*
X54557Y675023D02*
G01X56328D01*
X55362Y673251*
X55845*
X56167Y673030*
X56328Y672808*
X56489Y672144*
Y671701*
X56328Y671037*
X56006Y670594*
X55523Y670372*
X55040*
X54557Y670594*
X54396Y670815*
X54235Y671258*
X58637Y673206D02*
G01Y668556D01*
Y673206D02*
G01X60086D01*
X60570Y672985*
X60731Y672764*
X60892Y672321*
Y671878*
X60731Y671435*
X60570Y671213*
X60086Y670992*
X58637*
X59764D02*
G01X60892Y668556D01*
X62502Y672099D02*
G01Y672321D01*
X62663Y672764*
X62824Y672985*
X63146Y673206*
X63791*
X64113Y672985*
X64274Y672764*
X64435Y672321*
Y671878*
X64274Y671435*
X63952Y670770*
X62341Y668556*
X64596*
X67012Y673206D02*
G01X66529Y672985D01*
X66207Y672321*
X66046Y671213*
Y670549*
X66207Y669442*
X66529Y668777*
X67012Y668556*
X67334*
X67817Y668777*
X68139Y669442*
X68300Y670549*
Y671213*
X68139Y672321*
X67817Y672985*
X67334Y673206*
X67012*
X96801Y779311D02*
G01X92151D01*
X96801D02*
G01Y777861D01*
X96580Y777378*
X96358Y777217*
X95915Y777056*
X95472*
X95030Y777217*
X94808Y777378*
X94587Y777861*
Y779311D02*
G01Y777861D01*
X94365Y777378*
X94144Y777217*
X93701Y777056*
X93036*
X92594Y777217*
X92372Y777378*
X92151Y777861*
Y779311*
X95694Y773191D02*
G01X96137Y773352D01*
X96580Y773674*
X96801Y773996*
Y774640*
X96580Y774962*
X96137Y775285*
X95694Y775446*
X95030Y775607*
X93922*
X93258Y775446*
X92815Y775285*
X92372Y774962*
X92151Y774640*
Y773996*
X92372Y773674*
X92815Y773352*
X93258Y773191*
X96801Y769647D02*
G01Y771258D01*
X94808Y771419*
X95030Y771258*
X95251Y770775*
Y770292*
X95030Y769809*
X94587Y769486*
X93922Y769325*
X93479Y769486*
X92815Y769647*
X92372Y769970*
X92151Y770453*
Y770936*
X92372Y771419*
X92594Y771580*
X93036Y771741*
X189173Y616467D02*
G01Y611816D01*
Y616467D02*
G01X190623D01*
X191106Y616245*
X191267Y616024*
X191428Y615581*
Y615138*
X191267Y614695*
X191106Y614473*
X190623Y614252*
X189173D02*
G01X190623D01*
X191106Y614031*
X191267Y613809*
X191428Y613366*
Y612702*
X191267Y612259*
X191106Y612037*
X190623Y611816*
X189173*
X195293Y615359D02*
G01X195132Y615802D01*
X194810Y616245*
X194488Y616467*
X193844*
X193522Y616245*
X193200Y615802*
X193039Y615359*
X192878Y614695*
Y613588*
X193039Y612923*
X193200Y612480*
X193522Y612037*
X193844Y611816*
X194488*
X194810Y612037*
X195132Y612480*
X195293Y612923*
X197548Y616467D02*
G01X197065Y616245D01*
X196904Y615802*
Y615359*
X197065Y614916*
X197387Y614695*
X198031Y614473*
X198515Y614252*
X198837Y613809*
X198998Y613366*
Y612702*
X198837Y612259*
X198676Y612037*
X198193Y611816*
X197548*
X197065Y612037*
X196904Y612259*
X196743Y612702*
Y613366*
X196904Y613809*
X197226Y614252*
X197709Y614473*
X198354Y614695*
X198676Y614916*
X198837Y615359*
Y615802*
X198676Y616245*
X198193Y616467*
X197548*
X304053Y942844D02*
G01Y938194D01*
Y942844D02*
G01X305503D01*
X305986Y942623*
X306147Y942402*
X306308Y941959*
Y941516*
X306147Y941073*
X305986Y940851*
X305503Y940630*
X304053D02*
G01X305503D01*
X305986Y940408*
X306147Y940187*
X306308Y939744*
Y939080*
X306147Y938637*
X305986Y938415*
X305503Y938194*
X304053*
X310174Y941737D02*
G01X310013Y942180D01*
X309690Y942623*
X309368Y942844*
X308724*
X308402Y942623*
X308080Y942180*
X307919Y941737*
X307758Y941073*
Y939966*
X307919Y939301*
X308080Y938858*
X308402Y938415*
X308724Y938194*
X309368*
X309690Y938415*
X310013Y938858*
X310174Y939301*
X311784Y941737D02*
G01Y941959D01*
X311945Y942402*
X312106Y942623*
X312428Y942844*
X313073*
X313395Y942623*
X313556Y942402*
X313717Y941959*
Y941516*
X313556Y941073*
X313234Y940408*
X311623Y938194*
X313878*
X328642Y832836D02*
G01X323991D01*
X328642D02*
G01Y831387D01*
X328420Y830904*
X328199Y830743*
X327756Y830582*
X327313*
X326870Y830743*
X326649Y830904*
X326427Y831387*
Y832836D02*
G01Y831387D01*
X326206Y830904*
X325984Y830743*
X325541Y830582*
X324877*
X324434Y830743*
X324213Y830904*
X323991Y831387*
Y832836*
X327534Y826716D02*
G01X327977Y826877D01*
X328420Y827199*
X328642Y827521*
Y828166*
X328420Y828488*
X327977Y828810*
X327534Y828971*
X326870Y829132*
X325763*
X325098Y828971*
X324656Y828810*
X324213Y828488*
X323991Y828166*
Y827521*
X324213Y827199*
X324656Y826877*
X325098Y826716*
X328642Y823656D02*
G01X325541Y825267D01*
Y822851*
X328642Y823656D02*
G01X323991D01*
X117667Y832541D02*
G01X113017D01*
X117667D02*
G01Y831092D01*
X117446Y830608*
X117224Y830447*
X116781Y830286*
X116339*
X115896Y830447*
X115674Y830608*
X115453Y831092*
Y832541D02*
G01Y831092D01*
X115231Y830608*
X115010Y830447*
X114567Y830286*
X113903*
X113460Y830447*
X113238Y830608*
X113017Y831092*
Y832541*
X116560Y826421D02*
G01X117003Y826582D01*
X117446Y826904*
X117667Y827226*
Y827870*
X117446Y828193*
X117003Y828515*
X116560Y828676*
X115896Y828837*
X114788*
X114124Y828676*
X113681Y828515*
X113238Y828193*
X113017Y827870*
Y827226*
X113238Y826904*
X113681Y826582*
X114124Y826421*
X117667Y824649D02*
G01Y822878D01*
X115896Y823844*
Y823361*
X115674Y823039*
X115453Y822878*
X114788Y822717*
X114345*
X113681Y822878*
X113238Y823200*
X113017Y823683*
Y824166*
X113238Y824649*
X113460Y824810*
X113903Y824971*
X35493Y704345D02*
G01Y700801D01*
X35332Y700137*
X35171Y699915*
X34849Y699694*
X34527*
X34205Y699915*
X34044Y700137*
X33883Y700801*
Y701244*
X36943Y703459D02*
G01X37265Y703680D01*
X37748Y704345*
Y699694*
G54D12*
X11871Y612675D02*
G01Y609132D01*
X11710Y608467*
X11549Y608246*
X11227Y608024*
X10905*
X10583Y608246*
X10422Y608467*
X10261Y609132*
Y609575*
X13482Y611568D02*
G01Y611789D01*
X13643Y612232*
X13804Y612453*
X14126Y612675*
X14770*
X15093Y612453*
X15254Y612232*
X15415Y611789*
Y611346*
X15254Y610903*
X14932Y610239*
X13321Y608024*
X15576*
X210655Y676812D02*
G01X212909Y672162D01*
Y676812D02*
G01X210655Y672162D01*
X215486Y676812D02*
G01Y672162D01*
X214359Y676812D02*
G01X216614D01*
X219352D02*
G01X218063Y672162D01*
X219352Y676812D02*
G01X220640Y672162D01*
X218546Y673712D02*
G01X220157D01*
X222090Y676812D02*
G01Y672162D01*
X224022*
X225472Y675927D02*
G01X225794Y676148D01*
X226277Y676812*
Y672162*
G54D118*
X182185Y700669D02*
G01Y696019D01*
Y700669D02*
G01X183635D01*
X184118Y700448*
X184279Y700226*
X184440Y699783*
Y699341*
X184279Y698898*
X184118Y698676*
X183635Y698455*
X182185*
X183312D02*
G01X184440Y696019D01*
X185889Y699783D02*
G01X186212Y700005D01*
X186695Y700669*
Y696019*
X190399Y700669D02*
G01X188788Y696019D01*
X188144Y700669D02*
G01X190399D01*
M02*
