G04 CAM350 V8.0.1 (Build 31) Date:  Thu Jun 11 14:51:13 2020 *
G04 Database: c:\users\administrator\desktop\work\2020_05\loadcell\cammerge\cam_merge.cam *
G04 Layer 10: drl_pt001.drl *
%FSLAX35Y35*%
%MOIN*%
%SFA1.000B1.000*%

%MIA0B0*%
%IPPOS*%
%LNdrl_pt001.drl*%
%LPD*%
G54D134*
X47240Y222440D03*
X241730Y257870D03*
X243310Y250000D03*
X106300Y501570D03*
X77560Y457870D03*
X92130Y525590D03*
X268900Y553540D03*
X23620Y612190D03*
X28620D03*
X33620D03*
X38620D03*
X43620D03*
X33620Y617190D03*
X28620D03*
X38620D03*
X43620D03*
X23620D03*
X60630Y640930D03*
X67320Y801160D03*
X18110Y879510D03*
X69690Y811400D03*
X78740Y806670D03*
X113390Y801950D03*
X114960Y795260D03*
X107090Y792890D03*
X98430Y711790D03*
X90550Y674000D03*
X92130Y654310D03*
X109450Y632660D03*
X100000Y624000D03*
X106300Y623600D03*
X69290Y620450D03*
X72440Y615730D03*
X149210Y606280D03*
X143700Y606670D03*
X137800Y620450D03*
X144090D03*
X159840Y667300D03*
X166540Y682260D03*
X140160Y709820D03*
X134250Y751160D03*
X165750Y764940D03*
X160630Y798800D03*
X129920Y811400D03*
X122830Y819270D03*
X184650Y801950D03*
X216540Y764940D03*
X201180Y752740D03*
X182680Y750370D03*
X188580Y711400D03*
X216540Y709430D03*
X175980Y673600D03*
X169290Y664150D03*
X183860Y663370D03*
X189370Y660220D03*
X198820Y644860D03*
X188580Y626750D03*
X183860Y623210D03*
X229130Y750770D03*
X233070Y770450D03*
X284650Y801950D03*
X240160Y802740D03*
X233070Y804700D03*
X285830Y811400D03*
X239760Y811790D03*
X245670Y821240D03*
X271260Y864150D03*
X279530D03*
G54D63*
X31180Y118110D03*
X31500Y106300D03*
X51180Y118110D03*
X51500Y106300D03*
X59060Y96460D03*
X137800Y106300D03*
X147800D03*
X148820Y97640D03*
X157800Y106300D03*
X167800D03*
X177800D03*
X177950Y97640D03*
X187800Y106300D03*
X194490Y143700D03*
X187800Y133860D03*
X177800D03*
X167800D03*
X157800D03*
X147800D03*
X137800D03*
X122050Y137800D03*
X110240D03*
X90550Y133860D03*
X78740D03*
X66930Y135350D03*
X55120D03*
X43310Y133860D03*
X31500D03*
X25590Y192910D03*
X31890Y188580D03*
X55120Y165350D03*
X66930D03*
X78740Y157090D03*
X90550Y153940D03*
Y188580D03*
X106300Y173540D03*
Y153540D03*
X121260Y165350D03*
Y180710D03*
X129920Y160630D03*
X137800Y161420D03*
X165350D03*
X173230Y185040D03*
Y195040D03*
X175200Y174800D03*
X175350Y161420D03*
X185040Y185040D03*
Y195040D03*
X185350Y161420D03*
X246460Y174800D03*
X292700Y213800D03*
X280350Y243700D03*
X279960Y227560D03*
X272850Y243700D03*
X272460Y227560D03*
X265350Y243700D03*
X264960Y227560D03*
X260240Y234250D03*
X240500Y213800D03*
X227600Y228350D03*
Y244090D03*
X226380Y204330D03*
X220100Y228350D03*
Y244090D03*
X217720Y209060D03*
X212600Y244090D03*
Y228350D03*
X196850Y221650D03*
X191340Y244490D03*
X185040Y220470D03*
Y230470D03*
Y240470D03*
Y205040D03*
X173230Y220470D03*
Y230470D03*
Y240470D03*
Y205040D03*
X158270Y220470D03*
X139760Y240160D03*
X95000Y200000D03*
Y230000D03*
X85000D03*
Y200000D03*
X75000Y230000D03*
Y200000D03*
X65000D03*
Y230000D03*
X55120Y240160D03*
Y202440D03*
Y222440D03*
X29530Y238190D03*
X45280Y251970D03*
Y271970D03*
X64960Y280310D03*
X84650Y271650D03*
X94880Y250000D03*
X95000Y280000D03*
Y260000D03*
X124410Y259840D03*
X139760Y279920D03*
X165350Y259840D03*
X186540Y279530D03*
Y267720D03*
X207090Y267320D03*
X216540Y267720D03*
Y279530D03*
Y259840D03*
X277950Y279920D03*
X276770Y333070D03*
X267720Y344880D03*
X208270Y339370D03*
X186220Y304330D03*
X176700Y304500D03*
Y324500D03*
X157480Y306690D03*
Y322440D03*
X150390Y339760D03*
X146850Y314960D03*
X125000Y335000D03*
Y305000D03*
X115000D03*
Y335000D03*
X114960Y314960D03*
X105000Y335000D03*
Y305000D03*
X95000Y335000D03*
Y305000D03*
X85040Y322440D03*
X85000Y335000D03*
Y305000D03*
X75000Y335000D03*
Y305000D03*
X65000Y335000D03*
Y305000D03*
X56300Y329920D03*
X45280Y322440D03*
X24720Y355280D03*
Y345280D03*
X54720D03*
Y355280D03*
X94490Y366140D03*
Y346140D03*
X112200Y348430D03*
X115000Y355000D03*
X138190Y347640D03*
X155510D03*
X222830Y354720D03*
X253150Y359840D03*
X259840Y347640D03*
X266140Y354720D03*
X314960Y364960D03*
X232280Y381890D03*
X216540Y375590D03*
X209840Y414170D03*
X181100Y396060D03*
X180310Y414170D03*
X173230Y375980D03*
Y405510D03*
X155910Y375590D03*
X153540Y405510D03*
Y385510D03*
X131890Y411810D03*
X115000Y375000D03*
X110000Y420000D03*
Y410000D03*
X95000Y395000D03*
Y415000D03*
X45280Y375980D03*
X39370Y452760D03*
X46850Y461810D03*
X57090Y440940D03*
X67090D03*
X77090D03*
X87090D03*
X90940Y452760D03*
X118110D03*
Y432760D03*
X176380Y429130D03*
Y455790D03*
Y445790D03*
X185430Y431500D03*
X192910Y434250D03*
X203150Y451970D03*
X203540Y436610D03*
X209450Y444880D03*
X232280D03*
X233070Y426570D03*
X236610Y469690D03*
X249210Y460630D03*
X314960Y451570D03*
X268110Y474410D03*
X264960Y491730D03*
X247240Y477170D03*
X229530Y484250D03*
X192130Y479920D03*
X177170Y487400D03*
X166930Y479920D03*
X119290Y480710D03*
X87090Y470940D03*
X80710Y487130D03*
X77090Y470940D03*
X67090D03*
X59060Y495160D03*
Y485160D03*
X57090Y470940D03*
X39370Y495160D03*
Y485160D03*
X29530Y481380D03*
Y471380D03*
X31500Y505910D03*
X41500D03*
X51500D03*
X61500D03*
X71500D03*
X76380Y518900D03*
X80710Y497130D03*
X81500Y505910D03*
X91500D03*
X101180Y518900D03*
X101500Y505910D03*
X118110Y508270D03*
X129920Y515750D03*
X168900Y501570D03*
X188980Y495670D03*
X254330Y519690D03*
X271650Y507560D03*
X330710Y515430D03*
Y535430D03*
X282720D03*
X275220D03*
X271650Y527560D03*
X267720Y535430D03*
X259840Y536610D03*
X246060Y525980D03*
X224410Y531100D03*
X206300Y536610D03*
X194880Y531100D03*
X188980Y528350D03*
X168540Y539370D03*
X161040D03*
X153540D03*
X146850Y528350D03*
X129920Y535750D03*
X118110Y535830D03*
X101500Y535910D03*
X91500D03*
X81500D03*
X71500D03*
X61500D03*
X51500D03*
X41500D03*
X31500D03*
X41340Y568430D03*
Y548430D03*
X61420Y568500D03*
X139370Y548430D03*
X155350Y562990D03*
X165350D03*
X210470D03*
X220470D03*
X234090D03*
X244090D03*
X279130Y557480D03*
X282680Y547240D03*
X33070Y629900D03*
X19690Y644860D03*
X42910D03*
X19690Y654860D03*
Y664860D03*
X41340Y674780D03*
X19690Y674860D03*
X27170Y681080D03*
X19690Y684860D03*
Y694860D03*
X33070Y695260D03*
X41340Y711790D03*
X23620Y748010D03*
X35830Y763370D03*
X35430Y820850D03*
X38190Y869670D03*
X35430Y963640D03*
X39760Y972030D03*
X64960Y994470D03*
X51570Y986990D03*
X47640Y972420D03*
X51180Y963640D03*
Y953640D03*
X46060Y855100D03*
X62990Y836590D03*
X43310D03*
X62990Y826590D03*
X43310D03*
X62990Y816590D03*
X43310D03*
X62990Y806590D03*
X43310D03*
Y796590D03*
X59840Y792890D03*
X48820Y681080D03*
X43310Y664430D03*
Y654430D03*
X55910Y649980D03*
X82680Y618800D03*
Y628800D03*
Y638800D03*
Y648800D03*
Y658800D03*
Y668800D03*
Y678800D03*
Y688800D03*
Y698800D03*
X85040Y765020D03*
Y785020D03*
X92910Y787380D03*
X92990Y806590D03*
Y816590D03*
X77560Y823600D03*
X92990Y826590D03*
Y836590D03*
X75200Y853920D03*
X75980Y866120D03*
X68500Y886990D03*
X82280Y897220D03*
X69690Y943760D03*
Y963760D03*
X106300Y970450D03*
X133860Y946830D03*
X141360D03*
X118110Y938560D03*
X96060Y892110D03*
X136220Y866120D03*
X106300Y836590D03*
X133860D03*
X106300Y816590D03*
X125590Y793290D03*
X131890Y787380D03*
Y759430D03*
X135200Y698800D03*
X125200D03*
X115200D03*
X95200D03*
X105200D03*
X151970Y649190D03*
X176770Y685810D03*
X145200Y698800D03*
X165200D03*
X175200D03*
X155200D03*
X177170Y712580D03*
Y732580D03*
X145670Y742110D03*
X177170Y759040D03*
X158660Y810610D03*
X192910Y814550D03*
X150000Y827150D03*
X143700Y847620D03*
Y870450D03*
X172440Y917300D03*
X148820Y938560D03*
X165350Y946830D03*
X172850D03*
X180350D03*
X148860D03*
X218500Y972420D03*
X204350Y946830D03*
X211850D03*
X228350D03*
X235850D03*
X196850D03*
X218500Y917300D03*
X220870Y897220D03*
X238980Y892110D03*
X231890Y879510D03*
X238980Y825180D03*
X231890Y816520D03*
X206690Y815730D03*
X195670Y803130D03*
X222440Y794070D03*
X212990Y770850D03*
X198820Y731870D03*
X234250Y706280D03*
X202280Y693370D03*
X232280D03*
X202360Y685410D03*
X194490Y666520D03*
X202280Y663370D03*
X232280D03*
X207870Y657850D03*
X241730Y643210D03*
X223500Y641710D03*
X213500D03*
X204720Y624000D03*
X224720D03*
X241730Y623210D03*
X204720Y614150D03*
X224720D03*
X251970Y622030D03*
X265750Y640930D03*
X253940Y664860D03*
X265750D03*
X253940Y694860D03*
X265750D03*
X251180Y702340D03*
X245670Y711400D03*
X250790Y758250D03*
X251970Y796590D03*
Y806590D03*
Y816590D03*
Y826590D03*
Y836590D03*
X267720Y844470D03*
X258660Y850770D03*
X264570Y931080D03*
X243350Y946830D03*
X267720Y953520D03*
X258660Y960610D03*
X298900Y931080D03*
X292130Y886990D03*
X299210Y869270D03*
X306690Y850770D03*
X271650Y836590D03*
X301650D03*
X271650Y826590D03*
X301650D03*
X271650Y816590D03*
X301650D03*
Y806590D03*
X271650D03*
X301650Y796590D03*
X271650D03*
Y786590D03*
X301650D03*
X271650Y776590D03*
X301650D03*
X271650Y763760D03*
X273620Y732660D03*
X297640Y694860D03*
X305510Y686590D03*
X297560Y671240D03*
X277560D03*
X297640Y649190D03*
X278350Y635020D03*
X284250Y622030D03*
X292130Y617700D03*
X322830Y785810D03*
X318900Y816590D03*
Y836590D03*
X324800Y844470D03*
X333070Y895650D03*
X318900Y931080D03*
G54D61*
X31500Y173860D03*
X43310D03*
X78740D03*
X90550D03*
X106300Y188980D03*
X110240Y97800D03*
X118110Y188350D03*
X122050Y97800D03*
X129920Y188350D03*
X141730D03*
X252700Y213800D03*
X200500D03*
X141730Y228350D03*
X129920D03*
X118110D03*
X106300Y228980D03*
X31500Y212600D03*
Y202600D03*
Y222600D03*
X65000Y250000D03*
Y290000D03*
X75000Y250000D03*
Y290000D03*
X85000Y250000D03*
Y290000D03*
X115000Y250000D03*
Y290000D03*
X125000Y250000D03*
Y290000D03*
X146900Y292500D03*
X157200D03*
X167600Y292100D03*
X259840Y263150D03*
X271650D03*
Y303150D03*
X259840D03*
X167600Y332100D03*
X157200Y332500D03*
X146900D03*
X85000Y345000D03*
X75000D03*
X65000D03*
X104330Y346460D03*
X145670Y354330D03*
Y364330D03*
X155670Y354330D03*
Y364330D03*
X165670Y354330D03*
Y364330D03*
X175670Y354330D03*
Y364330D03*
X185670Y354330D03*
Y364330D03*
X195670D03*
Y354330D03*
X205670D03*
Y364330D03*
X192280Y381890D03*
X104330Y386460D03*
X85000Y385000D03*
X75000D03*
X65000D03*
X52760Y386610D03*
X27950Y394880D03*
Y384880D03*
Y404880D03*
X52760Y426610D03*
X106300Y432440D03*
Y472440D03*
X177170Y507870D03*
X188980Y507240D03*
X192280Y444880D03*
X200790Y507870D03*
X212600Y507240D03*
X224410D03*
X236220Y507870D03*
X248030D03*
X259840Y507240D03*
X273780Y562990D03*
X263780D03*
X259840Y547240D03*
X248030Y547870D03*
X236220D03*
X224410Y547240D03*
X212600D03*
X200790Y547870D03*
X198980Y562990D03*
X188980D03*
Y547240D03*
X177170Y547870D03*
X143860Y562990D03*
X133860D03*
X108430D03*
X98430D03*
X59060Y623370D03*
Y663370D03*
Y860220D03*
Y900220D03*
X35430Y903370D03*
Y913370D03*
X94490Y986200D03*
X134490D03*
X147640D03*
X94490Y972420D03*
X147640D03*
X134490D03*
X162170Y925650D03*
X152170D03*
Y865650D03*
X162170D03*
X162050Y842500D03*
X122050D03*
Y828720D03*
X162050D03*
X145670Y787540D03*
X155670D03*
X165670D03*
X155670Y777540D03*
X165670D03*
X145670D03*
X175670D03*
X185670D03*
X205670D03*
X195670D03*
X185670Y787540D03*
X175670D03*
X205670D03*
X195670D03*
X175200Y814940D03*
X215200D03*
Y828720D03*
X175200D03*
X215200Y842500D03*
X175200D03*
X192170Y865650D03*
X172170D03*
X202170D03*
X182170D03*
X192170Y925650D03*
X202170D03*
X172170D03*
X182170D03*
X201730Y972420D03*
X187640D03*
Y986200D03*
X200790D03*
X240790D03*
X253310D03*
X241730Y972420D03*
X287400Y900220D03*
Y860220D03*
X276930Y661400D03*
X277560Y649590D03*
X251970Y645650D03*
Y605650D03*
X317560Y649590D03*
X316930Y661400D03*
X318900Y856120D03*
X299210Y860220D03*
X318900Y866120D03*
X299210Y900220D03*
X318900Y903370D03*
Y913370D03*
X293310Y986200D03*
G54D135*
X208800Y101980D03*
X238720Y115760D03*
X260700Y101980D03*
X290620Y115760D03*
X330710Y47240D03*
X338210Y87240D03*
X290620Y194500D03*
X260700Y129540D03*
Y194500D03*
X238720D03*
X208800Y129540D03*
Y194500D03*
X295080Y333100D03*
X337400D03*
X229920Y396850D03*
X223230D03*
X216540D03*
X209840D03*
X203150D03*
Y459840D03*
X209840D03*
X216540D03*
X223230D03*
X229920D03*
X305900Y484670D03*
X337400D03*
G54D27*
X39370Y62990D03*
X59060D03*
X78740D03*
X98430D03*
X118110D03*
X137800D03*
X157480D03*
X177170D03*
X196850D03*
X216540D03*
X236220D03*
X255910D03*
X275590D03*
X295280D03*
X314960D03*
X330710Y129920D03*
Y217800D03*
X216540Y422050D03*
Y485040D03*
X40350Y722420D03*
X89570D03*
X115160D03*
X89570Y742110D03*
X115160D03*
X40350D03*
X164370D03*
X189960D03*
X164370Y722420D03*
X189960D03*
X264760Y608250D03*
Y627930D03*
Y722420D03*
X239170D03*
Y742110D03*
X264760D03*
X313980D03*
Y722420D03*
Y627930D03*
Y608250D03*
G54D136*
X330710Y248030D03*
Y263940D03*
X307090Y559060D03*
X291180D03*
G54D137*
X20240Y20240D03*
X335200D03*
Y295830D03*
X20240D03*
Y571420D03*
X335200D03*
X20240Y719030D03*
Y994620D03*
X335200D03*
Y719030D03*
M02*
