M48
METRIC,LZ
VER,1
FMAT,2
T01C0.599948F083B423S55H2000
T02C0.899922F083B423S55H2000
T03C0.999998F083B423S55H2000
T04C1.199896F058B423S55H2000
T05C1.500124F045B423S55H2000
T06C1.800098F034B423S55H2000
T07C3.50012F014B423S794H2000
DETECT,ON
ATC,ON
%
G93X0254Y0254
T01
X011999Y0565
X061399Y065499
X061801Y0635
X027Y127399
X0197Y116299
X023401Y1335
X068301Y140599
X005999Y155496
X007269
X008539
X009809
X011079
X008539Y156766
X007269
X009809
X011079
X005999
X0154Y162796
X017099Y203495
X0046Y223396
X017701Y206096
X02Y204894
X028801Y203695
X0292Y201996
X027201Y201394
X025001Y180795
X023Y171196
X023401Y166195
X0278Y160696
X0254Y158496
X027Y158394
X0176Y157594
X0184Y156395
X037899Y153995
X0365Y154094
X035001Y157594
X036599
X040599Y169494
X042301Y173294
X035601Y180294
X0341Y190795
X0421Y194295
X0408Y202895
X033Y206096
X031199Y208095
X046901Y203695
X055001Y194295
X0511Y191196
X046401Y190594
X047899Y180696
X055001Y180195
X044699Y171094
X043Y168694
X0467Y168496
X0481Y167696
X0505Y163794
X047899Y159194
X0467Y158295
X058199Y190696
X0592Y195694
X072301Y203695
X061001Y203896
X0592Y204394
X072601Y206096
X060899Y206195
X0624Y208595
X0689Y219494
X071001
T02
X00792Y03
X008001Y027
X013Y03
X013081Y027
X015001Y024501
X035001Y027
X037541
X0378Y024801
X040081Y027
X042621
X045161
X045199Y024801
X047701Y027
X0494Y0365
X047701Y034
X045161
X042621
X040081
X037541
X035001
X031001Y035001
X028001
X023Y034
X02
X017Y034379
X014
X011001Y034
X008001
X0065Y048999
X0081Y047899
X014Y041999
X017
X02Y039901
X023Y039101
Y047899
X027Y044079
Y038999
X0308Y041999
Y0459
X033Y0408
X035001Y041001
X041999
X044Y047
Y04954
X044501Y044399
X044539Y041001
X047Y047
Y04954
X047079Y041001
X062601Y044399
X074346Y054305
X071209Y0619
X07111Y0578
X069304Y0619
X069205Y0578
X067399Y0619
X0673Y0578
X066101Y0595
X061087Y054305
X05781Y058001
Y061999
X057501Y0519
X055905Y058001
Y061999
X055301Y053101
X054Y061999
Y058001
X05Y056299
X0486Y0621
X047Y055999
Y058539
Y061079
Y05208
X044Y055999
Y058539
Y061079
Y05208
X040201Y055999
X035499Y061001
X02413Y0508
Y05842
X02159
Y0508
X01905Y05842
Y0508
X01651
Y05842
X014Y061001
Y05142
Y0565
X007501Y0605
X011501Y064
Y06908
X0165Y071199
X021501Y068999
X0241Y0635
X02413Y07112
Y06604
X0316Y065999
X035499Y0711
X041999Y065999
X047381Y071001
Y068001
X052601Y067899
X055001Y068001
Y071001
Y065999
X070599Y0711
X0703Y0846
X068001Y0876
X052901Y0862
X0473Y0773
X044882Y077343
Y082423
X04Y077899
Y0819
X038199Y086299
X0373Y08
X03175Y08509
Y07747
X02921
Y08509
X0292Y08
X02667Y08509
Y07747
X02413Y08509
Y07747
X0216Y0819
X02159Y08509
Y07747
X01905Y08509
Y07747
X01651Y08509
Y07747
X0143Y0838
X011501Y0819
X006279Y090241
Y087701
X013899
Y090241
X024Y093
Y08792
X028499Y088501
X02921Y09017
X0351Y088301
X0395
X056599Y090099
X0643Y091399
X065999Y088301
X0676Y090099
X08Y0927
X058999Y097
X055001Y0954
X053299Y105199
X045999Y100599
X045799Y105199
X044Y095499
Y103
X039601Y0954
X038999Y103
Y09792
X0335Y1046
X02921Y09525
X02794Y10668
Y10414
X02413Y10033
Y10541
X011501Y095499
X01Y115001
X0119Y1173
X014501Y111999
X017041
X019581
X022121
X023099Y115001
X03
Y109921
X044801Y108999
Y115771
Y113231
X047099Y109601
X048999Y1103
X0516Y1148
X051699Y110899
X0532Y113
X058999
X0592Y108349
X060099Y119301
X063299Y117
X08Y114699
X0681Y1205
X0673Y124899
X062799Y121201
X058301Y123
X048801Y1219
X045001Y1238
X0424Y1219
X0303Y1221
X022121Y119619
X0205Y123731
X019581Y119619
X017041
X015001Y125771
Y123231
X014501Y119619
X01Y125771
Y123231
X007501Y122271
Y119731
X008001Y128501
X010541
X013081
X015621
X018161
X019401Y131801
X0205Y126271
X020701Y128501
X023241
X0257Y131801
X025781Y128501
X03Y129101
X033Y131
X042901Y127399
X048001Y1259
X0646Y132001
X068999Y12892
X084Y130919
Y135999
X071811
X069906
X068999Y134
X068001Y135999
X065999Y136299
X062499Y133599
X057Y134899
X0524Y136299
X0495Y134899
X048001Y134201
X042809Y137
X040904
X038999
X0373Y134201
X033Y13608
X03Y136101
X025781Y136121
X023241
X020701
X018161
X015621
X013081
X010541
X008001
X0105Y144381
Y139301
X015601Y144399
X0354Y139301
X039459Y142999
X041999
X053459
X055999
X059459
X061999
X070899Y1416
X071801Y138999
X0084Y159995
X005001Y163794
X010899
X005001Y166334
Y168874
X0105Y171394
X005001Y171414
X006901Y172994
X005001Y173954
Y176494
X0084Y176596
X0105Y180795
X005999Y189995
X009101Y193896
X008999Y208496
X0097Y220896
X008999Y244765
X010099Y246896
X0165Y252595
X013099Y250695
X012101Y246995
X013Y244765
Y242225
X011699Y217195
X015999Y212494
X011001
X015999Y209954
X011001
X015999Y207414
X011001
X015999Y204874
X011001
Y202334
X015199Y201394
X0124Y172994
X011001Y168765
Y166225
X014201Y165095
X021001Y157175
Y159715
Y162255
Y164795
Y167335
Y169875
Y172415
Y174955
Y177495
X0216Y194315
Y199395
X023599Y199995
X023619Y204874
Y207414
X0197Y209194
X023619Y209954
Y212494
X019101Y216896
X019299Y219994
X017399Y225295
X020899Y227894
X017701Y239715
Y244795
X027Y246494
X034Y240495
X035905
X03Y238394
X024399Y226596
X0346Y219994
X027Y212494
X034
X027Y207414
X0319Y201496
X0335Y199995
Y192895
X034341Y177495
X031801
X029261
X024181
X026721
X0386Y164894
X0449Y174196
X036881Y177495
X041961
X044501
X039421
X045001Y180995
Y186075
X037Y188496
X045001Y192796
X0403Y205895
X048999Y206896
X0381Y210096
X0365Y215295
Y221094
X0438Y232994
X0378Y238394
X041999Y240495
X043904
X045809
X03781
X055499Y246995
X051905Y240495
X05381
X058001
X059906
X05
X055499Y232994
X056101Y227894
X060701Y226596
X0589Y223396
X060701Y209596
X0589Y207396
X052499Y207195
X0497Y203995
X0565Y201694
X054099Y195796
X0505Y185895
X0595Y179395
X051379Y176116
X058999
X051399Y174094
X0494Y169296
X051379Y168496
X058999
X052799Y167094
X061399Y163375
X056769Y162994
X054229
X051999Y158496
X057079
X061399Y158295
X051999Y155994
X057079
X064Y157996
X0675Y162796
X064501Y168874
X0675
X064501Y176494
X0675
X0638Y178394
X0624Y180696
X063701Y192596
X064Y202334
Y204874
Y207414
Y209954
Y212494
X068001Y214495
X0657Y216096
X067201Y236494
X061811Y240495
X068001Y242194
X0657Y243995
X075921Y236494
X074201Y225295
X075999Y220795
X077899Y216096
X068999Y212494
X076619
X068999Y209954
X076619
X068999Y207414
X076619
Y204874
X068999
X076619Y202334
X068999
Y199794
X076619
X068999Y197254
X076619
X068999Y193995
X069499Y186096
X075601Y176494
X0776Y174394
X07558Y170495
X0705
X075601Y164894
X070701Y161295
X0722Y157996
X074201Y156896
X081999Y199596
X081001Y207414
Y212494
X082499Y214495
X0846Y227495
X081001Y236494
T03
X008001Y04416
X011001
X02
X023
X027Y048001
X028001Y024841
X03Y047841
X031001Y024841
X033Y047841
X035999
X064186Y054305
X050927
X035999Y058001
X033
X03
X027Y058161
X008001Y054
Y05146
Y05654
X01651Y0635
Y07366
X01905Y0635
Y07366
X02159Y0635
Y07366
X02921Y0635
Y07366
X03175Y0635
Y07366
X037313Y074295
X039929
X04257Y074193
X065999Y06684
X068999
Y077
X065999
X04257Y084353
X039929Y084455
X037313
X02159Y08763
X01905
X01651
X0265Y088001
X037Y09
Y09254
X03954Y09
Y09254
X04208Y09
Y09254
X04462Y09
Y09254
X04716Y09
Y09254
X0497
Y09
X05224
Y09254
X048839Y097
X0265Y098161
X02159Y09779
X01905
X01651
X013401Y098199
X007099Y1003
Y09776
Y10284
X013401Y108359
X027Y10984
Y12
X045001Y128999
X048001Y128839
X048839Y113
X051001Y128999
X054Y128839
X057
X06Y128999
X063
X065999Y128839
X06954Y142999
X067
X065999Y138999
X063Y139159
X06
X057Y138999
X054
X051001Y139159
X050541Y142999
X048001
Y138999
X045001Y139159
X03654Y142999
X034
X027541
X025001
X015001Y158336
Y168496
Y218496
Y228656
X008999Y229456
Y231996
X024Y250495
X03416
X037501
X024Y246995
X037501
X03416
X041191Y235115
X038651
Y219875
X041191
X041161Y213995
X031001
Y210495
X041161
X037Y200035
X03954
X04208
X03954Y197495
X04208
X037
X04462
X04716
X05224
X0497
X04716Y200035
X04462
X05224
X0497
X044501Y206995
X054661
Y210495
X044501
X054661Y213995
X044501
X048811Y219875
X043731
X051351
X046271
X048811Y235115
X051351
X043731
X046271
X051239Y246995
X047661
Y250495
X051001
X061161
X064341
X061399Y246995
X073Y228656
Y218496
X07034Y167996
X0705Y164996
X064Y163995
Y153835
X08066Y164996
X0805Y167996
X081001Y217454
X075999Y218496
X081001Y219994
X075999Y228656
X081001Y229456
Y231996
X074501Y250495
T04
X053035Y025903
X060635Y029403
X066218Y025903
X073817Y029403
X084Y011999
X085905Y022159
X073817Y049403
X066218Y032903
Y049403
X060635
X053035Y032903
Y049403
X07495Y084607
X0857
X0584Y1008
X0567
X055001
X053299
X0516
Y116799
X053299
X055001
X0567
X0584
X077699Y123106
X0857
T05
X01Y015999
X015001
X02
X025001
X03
X035001
X04
X045001
X05
X055001
X06
X065001
X07
X075001
X08
X084Y033
Y055321
X055001Y107201
Y1232
X010249Y183495
X022751
X029251
X022751Y188496
X029251
X010249
X04175
X04825
X04175Y183495
X04825
X067249Y154496
Y159494
Y183495
X060749
Y188496
X067249
X079751
Y183495
Y159494
Y154496
T06
X084Y063
Y067041
X078001Y142001
X07396
T07
X005141Y005141
X085141
Y075141
X005141
Y145141
X085141
X005141Y182634
Y252633
X085141
Y182634
M30
