*
*
G04 PADS VX.2.4 Build Number: 11282995 generated Gerber (RS-274-X) file*
G04 PC Version=2.1*
*
%IN "gs100Terminal.pcb"*%
*
%MOIN*%
*
%FSLAX35Y35*%
*
*
*
*
G04 PC Standard Apertures*
*
*
G04 Thermal Relief Aperture macro.*
%AMTER*
1,1,$1,0,0*
1,0,$1-$2,0,0*
21,0,$3,$4,0,0,45*
21,0,$3,$4,0,0,135*
%
*
*
G04 Annular Aperture macro.*
%AMANN*
1,1,$1,0,0*
1,0,$2,0,0*
%
*
*
G04 Odd Aperture macro.*
%AMODD*
1,1,$1,0,0*
1,0,$1-0.005,0,0*
%
*
*
G04 PC Custom Aperture Macros*
*
*
*
*
*
*
G04 PC Aperture Table*
*
%ADD010C,0.001*%
%ADD011R,0.05906X0.05906*%
%ADD012C,0.05906*%
%ADD013C,0.06*%
%ADD014R,0.06102X0.06102*%
%ADD015C,0.06102*%
%ADD016R,0.11024X0.11024*%
%ADD017C,0.11024*%
%ADD018R,0.05512X0.05512*%
%ADD019C,0.05512*%
%ADD020C,0.27559*%
%ADD021R,0.06X0.06*%
%ADD022C,0.07874*%
%ADD023C,0.1*%
%ADD024C,0.08858*%
%ADD025C,0.07283*%
%ADD026C,0.05118*%
%ADD028C,0.09843*%
%ADD029C,0.03937*%
%ADD030C,0.00984*%
%ADD031C,0.01575*%
%ADD032C,0.03543*%
%ADD034C,0.015*%
%ADD035C,0.01*%
%ADD036R,0.07087X0.07087*%
*
*
*
*
G04 PC Circuitry*
G04 Layer Name gs100Terminal.pcb - circuitry*
%LPD*%
*
*
G04 PC Custom Flashes*
G04 Layer Name gs100Terminal.pcb - flashes*
%LPD*%
*
*
G04 PC Circuitry*
G04 Layer Name gs100Terminal.pcb - circuitry*
%LPD*%
*
G54D10*
G54D11*
G01X245669Y454331D03*
X165000Y405000D03*
Y300000D03*
X430709Y635433D03*
X229921Y615748D03*
X253543Y505512D03*
X276378Y555787D03*
X210000Y520000D03*
X129528Y581378D03*
X265354Y662992D03*
X320472D03*
X344094D03*
X157087Y540945D03*
X237795Y233858D03*
X273228Y320472D03*
X285039D03*
X237795Y206299D03*
X273228Y285039D03*
X285039D03*
X265354Y261417D03*
G54D12*
X245669Y464331D03*
X255669Y454331D03*
Y464331D03*
X265669Y454331D03*
Y464331D03*
X275669Y454331D03*
Y464331D03*
X285669Y454331D03*
Y464331D03*
X295669Y454331D03*
Y464331D03*
X305669Y454331D03*
Y464331D03*
X175000Y405000D03*
X185000D03*
X195000D03*
X205000D03*
X215000D03*
X225000D03*
Y435000D03*
X215000D03*
X205000D03*
X195000D03*
X185000D03*
X175000D03*
X165000D03*
X175000Y300000D03*
X185000D03*
X195000D03*
Y330000D03*
X185000D03*
X175000D03*
X165000D03*
X166929Y265354D03*
Y235354D03*
X155118Y265354D03*
Y235354D03*
X215000Y475000D03*
Y455000D03*
X276700Y424500D03*
Y404500D03*
X316535Y379528D03*
X286535D03*
X430709Y615433D03*
X229921Y635748D03*
X253543Y485512D03*
X371654Y627559D03*
Y607559D03*
X276378Y545787D03*
X218110Y552756D03*
Y532756D03*
X141339Y648425D03*
Y668425D03*
X141496Y605906D03*
X151496D03*
X161496D03*
X171496D03*
X181496D03*
X191496D03*
X201496D03*
Y635906D03*
X191496D03*
X181496D03*
X171496D03*
X161496D03*
X151496D03*
X141496D03*
X131496D03*
X155118Y322441D03*
Y302441D03*
X195000Y380000D03*
Y360000D03*
X145276Y351969D03*
Y371969D03*
X316535Y367717D03*
X286535D03*
X210000Y510000D03*
X194488Y466142D03*
Y446142D03*
X195000Y495000D03*
Y515000D03*
X206299Y253543D03*
Y273543D03*
X129528Y571378D03*
X255354Y662992D03*
X310472D03*
X334094D03*
X167087Y540945D03*
X177087D03*
X187087D03*
Y570945D03*
X177087D03*
X167087D03*
X157087D03*
X247795Y233858D03*
X257795D03*
X267795D03*
X277795D03*
X287795D03*
X273228Y330472D03*
Y340472D03*
X285039Y330472D03*
Y340472D03*
X247795Y206299D03*
X257795D03*
X267795D03*
X277795D03*
X287795D03*
X273228Y295039D03*
Y305039D03*
X285039Y295039D03*
Y305039D03*
X275354Y261417D03*
X285354D03*
X151181Y218110D03*
X131181D03*
X131496Y206299D03*
X151496D03*
G54D13*
X241732Y328346D03*
Y288346D03*
X218110Y328346D03*
Y288346D03*
X229921Y328346D03*
Y288346D03*
X206299Y288976D03*
Y328976D03*
X215000Y350000D03*
Y390000D03*
X225000Y350000D03*
Y390000D03*
X204331Y446457D03*
Y486457D03*
X246900Y432500D03*
Y392500D03*
X152756Y486614D03*
Y526614D03*
X175000Y390000D03*
Y350000D03*
X257200Y392500D03*
Y432500D03*
X165000Y390000D03*
Y350000D03*
X267600Y432100D03*
Y392100D03*
X185000Y350000D03*
Y390000D03*
X131496Y322598D03*
Y312598D03*
Y302598D03*
X185000Y485000D03*
Y445000D03*
X127953Y504882D03*
Y494882D03*
Y484882D03*
X175000Y485000D03*
Y445000D03*
X165000Y485000D03*
Y445000D03*
X300787Y607874D03*
Y647874D03*
X206299Y572441D03*
Y532441D03*
X336220Y607874D03*
Y647874D03*
X180709Y597126D03*
X159055Y585157D03*
X288976Y647244D03*
Y607244D03*
X312598Y647244D03*
Y607244D03*
X277165Y607874D03*
Y647874D03*
X359843Y647244D03*
Y607244D03*
X324409Y647244D03*
Y607244D03*
X348031Y607874D03*
Y647874D03*
X359843Y403150D03*
Y363150D03*
X371654Y403150D03*
Y363150D03*
X139370Y585157D03*
X154724Y455276D03*
X124724D03*
Y445276D03*
G54D14*
X143307Y233858D03*
X190551D03*
X131496D03*
X178740D03*
X332283Y544882D03*
Y481890D03*
X210236Y237795D03*
X222047D03*
X340500Y313800D03*
X392700D03*
G54D15*
X143307Y273858D03*
X190551D03*
X131496D03*
X178740D03*
X292283Y544882D03*
Y481890D03*
X210236Y197795D03*
X222047D03*
X300500Y313800D03*
X352700D03*
G54D16*
X407087Y659055D03*
X430709Y348031D03*
G54D17*
X391181Y659055D03*
X430709Y363937D03*
G54D18*
X363780Y662992D03*
X198425D03*
X233858D03*
X288976D03*
G54D19*
X373780D03*
X208425D03*
X243858D03*
X298976D03*
X303150Y559843D03*
X309843D03*
X316535D03*
X323228D03*
X329921D03*
X303150Y496850D03*
X309843D03*
X316535D03*
X323228D03*
X329921D03*
G54D20*
X120235Y671416D03*
X435196D03*
X120235Y120235D03*
X435196D03*
X120235Y395826D03*
X435196D03*
G54D21*
X180709Y587126D03*
X159055Y595157D03*
X139370D03*
X154724Y445276D03*
G54D22*
X139370Y162992D03*
X159055D03*
X178740D03*
X198425D03*
X218110D03*
X237795D03*
X257480D03*
X277165D03*
X296850D03*
X316535D03*
X336220D03*
X355906D03*
X375591D03*
X395276D03*
X414961D03*
X437400Y433100D03*
X395077D03*
X437400Y584675D03*
X405904D03*
X430709Y609480D01*
Y615433*
G54D23*
Y229921D03*
Y317795D03*
G54D24*
Y147244D03*
X438209Y187244D03*
G54D25*
X308800Y294500D03*
X338721D03*
Y215760D03*
X308800Y201980D03*
Y229539D03*
X360700Y294500D03*
X390621D03*
Y215760D03*
X360700Y201980D03*
Y229539D03*
G54D26*
X312598Y328346D03*
X320098D03*
X327598D03*
X312598Y344094D03*
X320098D03*
X327598D03*
X253543Y639370D03*
X261043D03*
X268543D03*
X364961Y327559D03*
X372461D03*
X379961D03*
X365354Y343701D03*
X372854D03*
X380354D03*
X367717Y635433D03*
X375217D03*
X382717D03*
X159055Y196457D03*
X248819Y197638D03*
X277953D03*
X294488Y243701D03*
X190551Y253937D03*
X178740Y257087D03*
X229921Y260630D03*
X221260Y265354D03*
X237795Y261417D03*
X221260Y280709D03*
X275197Y274803D03*
X346457D03*
X125591Y292913D03*
X131890Y288583D03*
X190551D03*
X326378Y304331D03*
X258268Y320472D03*
X296850Y321654D03*
X317717Y309055D03*
X129528Y338189D03*
X155118Y340157D03*
X239764D03*
X291339Y344488D03*
X360236Y334252D03*
X194882Y350000D03*
X224409Y359843D03*
X265354D03*
X307087Y367323D03*
X316535Y359843D03*
X164961Y380315D03*
X184646Y371654D03*
X239764Y379921D03*
X377953D03*
X257480Y406693D03*
X286220Y404331D03*
X145276Y422441D03*
X185039D03*
X214961Y414961D03*
X246850D03*
X257480Y422441D03*
X156299Y429921D03*
X238189Y447638D03*
X250394Y439764D03*
X255512Y447638D03*
X308268Y439370D03*
X359843Y447638D03*
X367717Y444882D03*
X376772Y433071D03*
X212205Y448425D03*
X322835Y454724D03*
X353150Y459843D03*
X366142Y454724D03*
X414961Y464961D03*
X145276Y475984D03*
X273228D03*
X255906Y475591D03*
X316535D03*
X273228Y505512D03*
X281102Y496063D03*
X231890Y511811D03*
X280315Y514173D03*
X309843D03*
X333071Y526575D03*
X292913Y534252D03*
X285433Y531496D03*
X276378Y529134D03*
X309449Y544882D03*
X303543Y536614D03*
X146850Y561811D03*
X139370Y552756D03*
X190945D03*
X303150Y551969D03*
X349213Y560630D03*
X414961Y551575D03*
X219291Y580709D03*
X266929Y579921D03*
X292126D03*
X277165Y587402D03*
X329528Y584252D03*
X336614Y569685D03*
X347244Y577165D03*
X368110Y574409D03*
X268898Y601575D03*
X288976Y595669D03*
X364961Y591732D03*
X176378Y618898D03*
X201181D03*
X218110Y608268D03*
X346063Y625984D03*
X354331Y619685D03*
X218110Y635827D03*
X246850Y628346D03*
X288976D03*
X294882Y631102D03*
X306299Y636614D03*
X324409Y631102D03*
X359843Y636614D03*
X382677Y647244D03*
X239370Y648425D03*
X379134Y657480D03*
X161417Y668504D03*
G54D28*
X316535Y585039D03*
Y522047D03*
G54D29*
X421850Y147244D02*
X428969Y145504D01*
Y148984*
X421850Y147244*
X428969*
X422835Y147004D02*
Y147485D01*
X426772Y146041D02*
Y148447D01*
X395276Y155118D02*
X396668Y161600D01*
X393884*
X395276Y155118*
X395276*
X394430Y159055D02*
X396121D01*
X395276Y155118D02*
Y161600D01*
X133392Y168116D02*
X137407Y162841D01*
X139219Y164955*
X133392Y168116*
X137292Y162992D02*
X137537D01*
X134296Y166929D02*
X135580D01*
X135433Y165435D02*
Y167009D01*
X139370Y351969D02*
X144580Y351273D01*
Y352664*
X139370Y351969*
X144580*
X139370D02*
X139370D01*
X143307Y351443D02*
Y352494D01*
X159055Y170866D02*
X157663Y164384D01*
X160447*
X159055Y170866*
X158210Y166929D02*
X159901D01*
X159055Y170866D02*
X159055D01*
Y164384D02*
Y170866D01*
X296850D02*
X295458Y164384D01*
X298242*
X296850Y170866*
X296005Y166929D02*
X297696D01*
X296850Y170866D02*
X296850D01*
Y164384D02*
Y170866D01*
X303650Y196830D02*
X308800Y200307D01*
X307127Y201980*
X303650Y196830*
X304727Y198425D02*
X306012D01*
X304724Y197556D02*
Y198422D01*
X308661Y200214D02*
Y200446D01*
X316535Y170866D02*
X315143Y164384D01*
X317927*
X316535Y170866*
X315690Y166929D02*
X317381D01*
X316535Y170866D02*
X316535D01*
Y164384D02*
Y170866D01*
X355906D02*
X354514Y164384D01*
X357297*
X355906Y170866*
X355060Y166929D02*
X356751D01*
X355906Y170866D02*
X355906D01*
Y164384D02*
Y170866D01*
X375591D02*
X374199Y164384D01*
X376982*
X375591Y170866*
X374745Y166929D02*
X376436D01*
X375591Y170866D02*
X375591D01*
Y164384D02*
Y170866D01*
X365850Y224389D02*
X362373Y229539D01*
X360700Y227866*
X365850Y224389*
X363488Y225984D02*
X364773D01*
X363780Y225787D02*
Y227456D01*
X395276Y170866D02*
X393884Y164384D01*
X396668*
X395276Y170866*
X394430Y166929D02*
X396121D01*
X395276Y170866D02*
X395276D01*
Y164384D02*
Y170866D01*
X395077Y425226D02*
X396469Y431708D01*
X393685*
X395077Y425226*
X394745Y426772D02*
X395409D01*
X393900Y430709D02*
X396255D01*
X395276Y426150D02*
Y431708D01*
X414961Y170866D02*
X413569Y164384D01*
X416353*
X414961Y170866*
X414115Y166929D02*
X415806D01*
X414961Y170866D02*
X414961D01*
Y164384D02*
Y170866D01*
X202522Y277320D02*
X205315Y273543D01*
X206299Y274528*
X202522Y277320*
X202637Y277165D02*
X202732D01*
X206299Y274528D02*
X206299D01*
X355550Y289350D02*
X360700Y292827D01*
X359027Y294500*
X355550Y289350*
X357956Y292913D02*
X360613D01*
X355906Y289590D02*
Y289877D01*
X359843Y292248D02*
Y293684D01*
X313950Y289350D02*
X310473Y294500D01*
X308800Y292827*
X313950Y289350*
X308887Y292913D02*
X311544D01*
X312598Y290262D02*
Y291352D01*
X137496Y312598D02*
X132225Y313328D01*
Y311869*
X137496Y312598*
X132225D02*
X137496D01*
X135433Y312313D02*
Y312884D01*
X161024Y322441D02*
X155814Y323137D01*
Y321745*
X161024Y322441*
X159055Y322178D02*
Y322704D01*
X430709Y327795D02*
X428565Y319939D01*
X432852*
X430709Y327795*
X428711Y320472D02*
X432707D01*
X429785Y324409D02*
X431632D01*
X430709Y319939D02*
Y327795D01*
X145276Y346063D02*
X145972Y351273D01*
X144580*
X145276Y346063*
X145013Y348031D02*
X145539D01*
X200906Y360000D02*
X195696Y360696D01*
Y359304*
X200906Y360000*
X195696Y359843D02*
X199727D01*
X198425Y359669D02*
Y360331D01*
X151181Y371969D02*
X145972Y372664D01*
Y371273*
X151181Y371969*
X145972Y371654D02*
X148824D01*
X147244Y371443D02*
Y372494D01*
X151181Y371969D02*
X151181D01*
X200906Y380000D02*
X195696Y380696D01*
Y379304*
X200906Y380000*
X195696Y379528D02*
X197369D01*
X198425Y379669D02*
Y380331D01*
X209094Y475000D02*
X214304Y474304D01*
Y475696*
X209094Y475000*
X210236Y474847D02*
Y475153D01*
X214173Y474322D02*
Y475679D01*
X251493Y468507D02*
X254685Y464331D01*
X255669Y465315*
X251493Y468507*
X253301Y466142D02*
X254588D01*
X253543Y465825D02*
Y466940D01*
X220906Y475000D02*
X215696Y475696D01*
Y474304*
X220906Y475000*
X218110Y474627D02*
Y475373D01*
X209094Y475000D02*
X214304Y474304D01*
Y475696*
X209094Y475000*
X210236Y474847D02*
Y475153D01*
X214173Y474322D02*
Y475679D01*
X215000Y480906D02*
X214304Y475696D01*
X215696*
X215000Y480906*
X214606Y477953D02*
X215394D01*
X209094Y475000D02*
X214304Y474304D01*
Y475696*
X209094Y475000*
X210236Y474847D02*
Y475153D01*
X214173Y474322D02*
Y475679D01*
X259449Y485512D02*
X254239Y486208D01*
Y484816*
X259449Y485512*
X254239Y485827D02*
X257091D01*
X257480Y485249D02*
Y485775D01*
X133953Y504882D02*
X128682Y505611D01*
Y504153*
X133953Y504882*
X128682Y505512D02*
X129401D01*
X131496Y504542D02*
Y505222D01*
X212520Y532756D02*
X217414Y532060D01*
Y533452*
X212520Y532756*
X214735Y533071D02*
X217414D01*
X214173Y532521D02*
Y532991D01*
X298386Y544882D02*
X293049Y545647D01*
Y544116*
X298386Y544882*
X293049D02*
X298386D01*
X296850Y544662D02*
Y545102D01*
X212205Y552756D02*
X217414Y552060D01*
Y553452*
X212205Y552756*
X217414*
X214173Y552493D02*
Y553019D01*
X431832Y579107D02*
X437400Y582706D01*
X435431Y584675*
X435431D02*
X431832Y579107D01*
X432613Y580315D02*
X433701D01*
X435158Y584252D02*
X435854D01*
X434646Y580926D02*
Y583459D01*
X306063Y607874D02*
X301517Y608603D01*
Y607145*
X306063Y607874*
X301517D02*
X306063D01*
X304724Y607659D02*
Y608089D01*
X318504Y607244D02*
X313328Y607973D01*
Y606515*
X318504Y607244*
X313328Y607874D02*
X314034D01*
X316535Y606967D02*
Y607521D01*
X318504Y607244D02*
X323680Y606515D01*
Y607973*
X318504Y607244*
X322974Y607874D02*
X323680D01*
X320472Y606967D02*
Y607521D01*
X377559Y627559D02*
X372350Y628255D01*
Y626863*
X377559Y627559*
X372350D02*
X377559D01*
X375591Y627296D02*
Y627822D01*
X131496Y641811D02*
X130800Y636601D01*
X132192*
X131496Y641811*
X131170Y639370D02*
X131822D01*
X131496Y636601D02*
Y641811D01*
X147244Y648425D02*
X142035Y649121D01*
Y647729*
X147244Y648425*
X143307Y647899D02*
Y648951D01*
X147244Y648425D02*
X147244D01*
X218504Y107874D02*
Y162598D01*
X218110Y162992*
X218504Y107874D02*
X435196D01*
Y120235*
X218504Y107874D02*
X119685D01*
Y120235*
X120235*
X107874*
Y671416*
X120235*
X430709Y147244D02*
X395276D01*
Y162992*
X139370D02*
X116026Y183001D01*
Y342404*
X125591Y351969*
X145276*
X159055Y162992D02*
Y196457D01*
X296850Y162992D02*
Y190031D01*
X308800Y201980*
X316535Y162992D02*
Y182677D01*
X328346Y194488*
Y202362*
X320472Y210236*
Y222047*
X312980Y229539*
X308800*
X355906Y162992D02*
Y197186D01*
X360700Y201980*
X375591Y162992D02*
Y210236D01*
X371654Y214173*
Y218586*
X360700Y229539*
X395276Y162992D02*
Y186614D01*
X407087Y198425*
Y332283*
X391339Y348031*
Y405512*
X395077Y409250*
Y433100*
X414961Y162992D02*
Y186614D01*
X422835Y194488*
X438209Y187244D02*
Y194488D01*
X422835*
Y210236*
X430709Y218110*
Y229921*
X206299Y253543D02*
X205906Y253937D01*
X190551*
X237795Y261417D02*
X265354D01*
X206299Y273543D02*
X198346Y281496D01*
X125591*
Y292913*
X320472Y282828D02*
X349028D01*
X360700Y294500*
X320472Y282828D02*
X308800Y294500D01*
X190551Y288583D02*
X131890D01*
X154724*
Y295669*
X155118Y296063*
Y302441*
X131496Y312598D02*
X150000D01*
X155118Y317717*
Y322441*
X175000*
Y330000*
X430709Y317795D02*
Y348031D01*
X155118Y340157D02*
X160236D01*
X145276*
Y351969*
X239764Y340157D02*
X160236D01*
X185000Y350000D02*
X194882D01*
X224409Y359843D02*
X224252Y360000D01*
X195000*
X286535Y367717D02*
X283071D01*
X270866Y379921*
X239764*
X316535Y359843D02*
X265354D01*
X430709Y363937D02*
X418898D01*
X411024Y371811*
Y411024*
X433100Y433100*
X437400*
X184646Y371654D02*
X184331Y371969D01*
X145276*
X239764Y379921D02*
X239685Y380000D01*
X195000*
X120235Y395826D02*
X107874D01*
Y671416*
X120235*
X286220Y404331D02*
X286051Y404500D01*
X276700*
X271878*
X269685Y406693*
X257480*
X435196Y395826D02*
X446457D01*
Y419291*
X448819Y421654*
Y451575*
X447244Y453150*
X446457*
Y671416*
X435196*
X145276Y422441D02*
X185039D01*
X257480*
X238189Y447638D02*
X237402Y448425D01*
X212205*
X255512Y447638D02*
X241732D01*
X308268Y439370D02*
X250394D01*
Y439764*
X376772Y433071D02*
X320866D01*
X314567Y439370*
X308268*
X194488Y466142D02*
Y475000D01*
X215000*
X255669Y464331D02*
X245000Y475000D01*
X215000*
X353150Y459843D02*
X357087D01*
X362205Y464961*
X414961*
X127953Y484882D02*
X136220D01*
X148819Y497480*
X181496*
X195000Y510984*
Y515000*
X145276Y475984D02*
X165000D01*
X175000*
X215000Y475000D02*
X194488D01*
Y475984*
X175000*
X215000Y475000D02*
Y501575D01*
X211063Y505512*
Y508937*
X210000Y510000*
X215000Y475000D02*
X194488D01*
Y495669*
X253071Y484646D02*
X245669D01*
X219685Y510630*
Y529134*
X218110*
Y532756*
X253071Y484646D02*
X253504Y485079D01*
X264528*
X264961Y485512*
X278346*
X282598Y489764*
X316535*
X253071Y484646D02*
X253937Y485512D01*
X253543*
X278346*
X282598Y489764*
X316535*
Y496850*
X332283Y481890D02*
X323228D01*
Y483071*
X316535Y489764*
X127953Y504882D02*
X172835D01*
X191732Y523780*
X202756*
X195000Y495000D02*
X194488Y495512D01*
Y495669*
X281102Y496063D02*
X247638D01*
X231890Y511811*
X202756Y523780D02*
X207244Y519291D01*
X209291*
X210000Y520000*
X309843Y514173D02*
X280315D01*
X309843*
X206299Y532441D02*
X206614Y532756D01*
X218110*
X292283Y544882D02*
X309449D01*
X139370Y552756D02*
X194488D01*
X190945*
X218110D02*
X194488D01*
X303150Y551969D02*
X296457D01*
X292638Y555787*
X276378*
X303150Y551969D02*
Y559843D01*
X414961Y551575D02*
Y560661D01*
X414173Y561448*
X437400Y584675*
X414961Y551575D02*
X307087D01*
X306693Y551969*
X303150*
X157087Y570945D02*
X164488Y578346D01*
X198425*
X200787Y580709*
X219291*
X266929Y579921D02*
X292126D01*
X312598Y607244D02*
X311969Y607874D01*
X300787*
X312598Y607244D02*
X324409D01*
X300787Y607874D02*
Y615748D01*
X229921*
X364961Y591732D02*
X363780Y592913D01*
X339370*
X325906Y606378*
X325276*
X324409Y607244*
X371654Y627559D02*
X422835D01*
X430709Y635433*
X131496Y635906D02*
Y648425D01*
X141339*
X239370*
X363780Y662992D02*
Y671260D01*
X407087*
Y659055D02*
Y671260D01*
X120235Y671416D02*
Y682677D01*
X435196*
Y671416D02*
Y682677D01*
X150984Y371969D02*
G75*
G03X150984I-5708J0D01*
G01X200197Y466142D02*
G03X200197I-5709J0D01*
G01X274998Y369108D02*
X269486Y374620D01*
G03X268094Y375197I-1392J-1392*
G01X242637*
G03X241860Y375037I-0J-1969*
G01X237538Y375095D02*
G03X241860Y375037I2226J4826D01*
G01X237538Y375095D02*
G03X236714Y375276I-824J-1788D01*
G01X201351*
G03X201090Y375258I-0J-1969*
G01X197464Y374774*
G03X197026Y374663I261J-1951*
G01X192620Y374811D02*
G03X197026Y374663I2380J5189D01*
G01X192620Y374811D02*
G03X189866Y372652I-821J-1789D01*
G01X179963Y374167D02*
G03X189866Y372652I4683J-2513D01*
G01X179963Y374167D02*
G03X178228Y377067I-1735J931D01*
G01X171083*
G03X170352Y376926I-0J-1969*
G01X168313Y376111*
G03X167940Y375913I730J-1828*
G01X160795Y383616D02*
G03X167940Y375913I4166J-3301D01*
G01X160795Y383616D02*
G03X161221Y384839I-1542J1223D01*
X160717Y386154I-1968J0*
G01X163168Y395457D02*
G03X160717Y386154I1832J-5457D01*
G01X163168Y395457D02*
G03X162542Y399291I-626J1866D01*
G01X162047*
X159291Y402047D02*
G03X162047Y399291I2756J0D01*
G01X159291Y402047D02*
Y407953D01*
X159349Y408516D02*
G03X159291Y407953I2698J-563D01*
G01X159349Y408516D02*
G03X157422Y410886I-1927J402D01*
G01X140157*
X139344Y410990D02*
G03X140157Y410886I813J3144D01*
G01X139344Y410990D02*
G03X136882Y409084I-493J-1906D01*
X137254Y407933I1969J-0*
G01X123294Y373925D02*
G03X137254Y407933I-3609J21351D01*
G01X123294Y373925D02*
G03X121654Y371984I328J-1941D01*
G01Y358365*
G03X124201Y356484I1968J0*
G01X125591Y356693D02*
G03X124201Y356484I-0J-4724D01*
G01X125591Y356693D02*
X138925D01*
G03X139186Y356710I-0J1968*
G01X142811Y357195*
G03X143249Y357305I-260J1951*
G01X150613Y349942D02*
G03X143249Y357305I-5337J2027D01*
G01X150613Y349942D02*
G03X150502Y349504I1840J-698D01*
G01X150182Y347111*
G03X152133Y344882I1951J-261*
G01X152245*
G03X153022Y345042I0J1968*
G01X157175Y345058D02*
G03X153022Y345042I-2057J-4901D01*
G01X157175Y345058D02*
G03X159737Y347670I762J1816D01*
G01X168726Y354387D02*
G03X159737Y347670I-3726J-4387D01*
G01X168726Y354387D02*
G03X171274I1274J1501D01*
G01X178726D02*
G03X171274I-3726J-4387D01*
G01X178726D02*
G03X181274I1274J1501D01*
G01X187132Y355346D02*
G03X181274Y354387I-2132J-5346D01*
G01X187132Y355346D02*
G03X189692Y357899I730J1829D01*
G01X189291Y360000D02*
G03X189692Y357899I5709J-0D01*
G01X199087Y356014D02*
G03X189291Y360000I-4087J3986D01*
G01X199087Y356014D02*
G03X198979Y353386I1409J-1374D01*
G01X200197Y350000D02*
G03X198979Y353386I-5315J0D01*
G01X199674Y347702D02*
G03X200197Y350000I-4792J2298D01*
G01X199674Y347702D02*
G03X201449Y344882I1775J-852D01*
G01X207947*
G03X209744Y347653I-0J1968*
G01X216932Y355422D02*
G03X209744Y347653I-1932J-5422D01*
G01X216932Y355422D02*
G03X219435Y357970I661J1854D01*
G01X228727Y356743D02*
G03X219435Y357970I-4318J3100D01*
G01X228727Y356743D02*
G03X228357Y355595I1599J-1148D01*
X228969Y354169I1969J-0*
G01X230256Y347653D02*
G03X228969Y354169I-5256J2347D01*
G01X230256Y347653D02*
G03X232053Y344882I1797J-803D01*
G01X236891*
G03X237667Y345042I-0J1968*
G01X243703Y336589D02*
G03X237667Y345042I-3939J3568D01*
G01X243703Y336589D02*
G03X244288Y333504I1459J-1321D01*
G01X247488Y328346D02*
G03X244288Y333504I-5756J0D01*
G01X246425Y325014D02*
G03X247488Y328346I-4693J3332D01*
G01X246425Y325014D02*
G03X246215Y324636I1605J-1140D01*
G01X245134Y322058*
G03X244980Y321296I1815J-762*
G01Y317323*
X244029Y315026D02*
G03X244980Y317323I-2297J2297D01*
G01X244029Y315026D02*
X226061Y297058D01*
G03X228082Y293801I1392J-1392*
G01X234322Y292057D02*
G03X228082Y293800I-4401J-3711D01*
G01X234322Y292057D02*
G03X237332I1505J1269D01*
G01X244771Y283458D02*
G03X237332Y292057I-3039J4888D01*
G01X244771Y283458D02*
G03X244271Y283014I1039J-1672D01*
G01X244029Y282743D02*
G03X244271Y283014I-2297J2296D01*
G01X244029Y282743D02*
X243781Y282494D01*
G03X245173Y279134I1392J-1392*
G01X249606*
G03X251575Y281102I0J1968*
G01Y365748*
X273606*
G03X274998Y369108I-0J1969*
G01X290945Y432677D02*
G03X288976Y434646I-1969J0D01*
G01X276512*
G03X275764Y430856I0J-1969*
G01X277251Y430246*
G03X277666Y430126I748J1820*
G01X271074Y423534D02*
G03X277666Y430126I5626J966D01*
G01X271074Y423534D02*
G03X270954Y423949I-1940J-333D01*
G01X270444Y425192*
G03X268362Y426395I-1821J-748*
G01X265099Y426916D02*
G03X268362Y426395I2501J5184D01*
G01X265099Y426916D02*
G03X262416Y424412I-855J-1773D01*
G01X262795Y422441D02*
G03X262416Y424412I-5315J-0D01*
G01X254983Y417749D02*
G03X262795Y422441I2497J4692D01*
G01X254983Y417749D02*
G03X252089Y416012I-925J-1737D01*
G01X252089*
G03X252110Y415728I1969J-0*
G01X252165Y414961D02*
G03X252110Y415728I-5315J-0D01*
G01X251973Y413544D02*
G03X252165Y414961I-5123J1417D01*
G01X251973Y413544D02*
G03X254846Y411309I1897J-525D01*
G01X262367Y404604D02*
G03X254846Y411309I-4887J2089D01*
G01X262367Y404604D02*
G03X262786Y402438I1810J-774D01*
G01X266815Y398409*
G03X268052Y397838I1392J1392*
G01X270761Y396911D02*
G03X268052Y397838I-3161J-4811D01*
G01X270761Y396911D02*
G03X271024Y396765I1081J1645D01*
X271241Y396558I1462J1317*
G01X271438Y387810D02*
G03X271241Y396558I-3838J4290D01*
G01X271438Y387810D02*
G03X272196Y384455I1313J-1467D01*
G01X274207Y383262D02*
G03X272196Y384455I-3341J-3341D01*
G01X274207Y383262D02*
X277653Y379816D01*
G03X280965Y380777I1391J1392*
G01X288350Y384940D02*
G03X280965Y380777I-1815J-5412D01*
G01X288350Y384940D02*
G03X290945Y386806I626J1866D01*
G01Y397589*
G03X288232Y399411I-1969J-0*
G01X282898Y400182D02*
G03X288232Y399411I3322J4149D01*
G01X282898Y400182D02*
G03X280393Y400147I-1231J-1536D01*
G01X273567Y399728D02*
G03X280393Y400147I3133J4772D01*
G01X273567Y399728D02*
G03X273304Y399873I-1081J-1646D01*
X273087Y400080I-1462J-1317*
G01X280546Y408719D02*
G03X273087Y400080I-3846J-4219D01*
G01X280546Y408719D02*
G03X283047Y408594I1326J1455D01*
G01X288232Y409251D02*
G03X283047Y408594I-2012J-4920D01*
G01X288232Y409251D02*
G03X290945Y411073I744J1822D01*
G01Y432677*
X200394Y255413D02*
G03X198425Y257382I-1969J0D01*
G01X197683*
G03X195756Y255014I0J-1969*
G01X185497Y252293D02*
G03X195756Y255014I5054J1644D01*
G01X185497Y252293D02*
G03X182305Y253144I-1872J-609D01*
G01X175761Y252685D02*
G03X182305Y253144I2979J4402D01*
G01X175761Y252685D02*
G03X175388Y252883I-1103J-1630D01*
G01X173349Y253698*
G03X172618Y253839I-731J-1828*
G01X163386*
X161089Y254790D02*
G03X163386Y253839I2297J2297D01*
G01X161089Y254790D02*
X157737Y258142D01*
G03X157093Y258571I-1392J-1392*
G01X154567Y259609*
G03X154152Y259728I-748J-1821*
G01X149409Y265354D02*
G03X154152Y259728I5709J0D01*
G01X149630Y266926D02*
G03X149409Y265354I5488J-1572D01*
G01X149630Y266926D02*
G03X146616Y269086I-1892J542D01*
G01X138897Y270081D02*
G03X146616Y269086I4410J3777D01*
G01X138897Y270081D02*
G03X135907I-1495J-1281D01*
G01X125757Y274744D02*
G03X135907Y270081I5739J-886D01*
G01X125757Y274744D02*
G03X124335Y276942I-1946J300D01*
G01X124201Y276981D02*
G03X124335Y276942I1390J4515D01*
G01X124201Y276981D02*
G03X121654Y275099I-579J-1882D01*
G01Y219452*
G03X122182Y218110I1968J-0*
X121654Y216769I1440J-1341*
G01Y194488*
G03X123622Y192520I1968J0*
G01X152043*
G03X153938Y195020I-0J1968*
G01X153986Y198055D02*
G03X153938Y195020I5069J-1598D01*
G01X153986Y198055D02*
G03X151952Y200609I-1877J592D01*
G01X147734Y210593D02*
G03X151952Y200609I3762J-4294D01*
G01X147734Y210593D02*
G03X148406Y212074I-1297J1481D01*
X147654Y213622I-1969J0*
G01X150230Y223739D02*
G03X147654Y213622I951J-5629D01*
G01X150230Y223739D02*
G03X151870Y225680I-328J1941D01*
G01Y227682*
G03X148425Y228984I-1968J0*
G01X146358Y228051D02*
G03X148425Y228984I0J2756D01*
G01X146358Y228051D02*
X140256D01*
X138591Y228611D02*
G03X140256Y228051I1665J2196D01*
G01X138591Y228611D02*
G03X136212I-1189J-1569D01*
G01X134547Y228051D02*
G03X136212Y228611I0J2756D01*
G01X134547Y228051D02*
X128445D01*
X125689Y230807D02*
G03X128445Y228051I2756J0D01*
G01X125689Y230807D02*
Y236909D01*
X128445Y239665D02*
G03X125689Y236909I-0J-2756D01*
G01X128445Y239665D02*
X134547D01*
X136212Y239106D02*
G03X134547Y239665I-1665J-2197D01*
G01X136212Y239106D02*
G03X138591I1190J1568D01*
G01X140256Y239665D02*
G03X138591Y239106I-0J-2756D01*
G01X140256Y239665D02*
X146358D01*
X148147Y239006D02*
G03X146358Y239665I-1789J-2097D01*
G01X148147Y239006D02*
G03X150884Y239184I1277J1498D01*
G01X159509Y239002D02*
G03X150884Y239184I-4391J-3648D01*
G01X159509Y239002D02*
G03X162538I1515J1258D01*
G01X171163Y239184D02*
G03X162538Y239002I-4234J-3830D01*
G01X171163Y239184D02*
G03X173901Y239006I1460J1320D01*
G01X175689Y239665D02*
G03X173901Y239006I-0J-2756D01*
G01X175689Y239665D02*
X181791D01*
X183456Y239106D02*
G03X181791Y239665I-1665J-2197D01*
G01X183456Y239106D02*
G03X185835I1190J1568D01*
G01X187500Y239665D02*
G03X185835Y239106I0J-2756D01*
G01X187500Y239665D02*
X193602D01*
X196358Y236909D02*
G03X193602Y239665I-2756J0D01*
G01X196358Y236909D02*
Y230807D01*
X193602Y228051D02*
G03X196358Y230807I0J2756D01*
G01X193602Y228051D02*
X187500D01*
X185835Y228611D02*
G03X187500Y228051I1665J2196D01*
G01X185835Y228611D02*
G03X183456I-1189J-1569D01*
G01X181791Y228051D02*
G03X183456Y228611I0J2756D01*
G01X181791Y228051D02*
X175689D01*
X175249Y228086D02*
G03X175689Y228051I440J2721D01*
G01X175249Y228086D02*
G03X173543Y224751I-314J-1943D01*
G01X180249Y218045*
X181201Y215748D02*
G03X180249Y218045I-3248J0D01*
G01X181201Y215748D02*
Y194488D01*
G03X183169Y192520I1968J0*
G01X198425*
G03X200394Y194488I0J1968*
G01Y255413*
X185247Y288189D02*
G03X185244Y288295I-1969J0D01*
G01X185236Y288583D02*
G03X185244Y288295I5315J-0D01*
G01X185241Y288798D02*
G03X185236Y288583I5310J-215D01*
G01X185241Y288798D02*
G03X185242Y288878I-1967J80D01*
G01X185242*
G03X183274Y290846I-1968J-0*
G01X180906*
X178609Y291798D02*
G03X180906Y290846I2297J2296D01*
G01X178609Y291798D02*
X177619Y292788D01*
G03X176974Y293217I-1392J-1392*
G01X174449Y294254*
G03X174034Y294374I-748J-1820*
G01X172031Y295124D02*
G03X174034Y294374I2969J4876D01*
G01X172031Y295124D02*
G03X169734Y294945I-1024J-1681D01*
G01X167953Y294291D02*
G03X169734Y294945I-0J2756D01*
G01X167953Y294291D02*
X162047D01*
X159508Y295975D02*
G03X162047Y294291I2539J1072D01*
G01X159508Y295975D02*
G03X157034Y297063I-1813J-766D01*
G01X150024Y305017D02*
G03X157034Y297063I5094J-2576D01*
G01X150024Y305017D02*
G03X150236Y305905I-1757J888D01*
X148267Y307874I-1969J0*
G01X138477*
G03X136698Y305063I-0J-1969*
G01X133640Y297257D02*
G03X136698Y305063I-2144J5341D01*
G01X133640Y297257D02*
G03X132405Y295430I733J-1827D01*
X133702Y293579I1968J-0*
G01X137205Y288583D02*
G03X133702Y293579I-5315J-0D01*
G01X137197Y288295D02*
G03X137205Y288583I-5307J288D01*
G01X137197Y288295D02*
G03X137194Y288189I1966J-106D01*
G01X137194*
G03X139163Y286220I1969J-0*
G01X183278*
G03X185247Y288189I0J1969*
G01X185247*
X243871Y410559D02*
G03X249485Y410344I2979J4402D01*
G01X243871Y410559D02*
G03X243498Y410757I-1103J-1630D01*
G01X241459Y411572*
G03X240728Y411713I-731J-1828*
G01X231036*
G03X229489Y408528I0J-1969*
G01X230436Y406743D02*
G03X229488Y408528I-5436J-1743D01*
G01X230436Y406743D02*
G03X232895Y405464I1875J601D01*
G01X233858Y405610D02*
G03X232895Y405464I0J-3248D01*
G01X233858Y405610D02*
X250251D01*
G03X252205Y407339I-0J1969*
G01X252358Y408110D02*
G03X252205Y407339I5122J-1417D01*
G01X252358Y408110D02*
G03X249485Y410344I-1898J525D01*
G01X189399Y378896D02*
G03X189424Y378776I5601J1104D01*
G01X189399Y378896D02*
G03X186076Y379908I-1931J-380D01*
G01X185971Y379803*
G03X186629Y376585I1392J-1392*
G01X186730Y376543D02*
G03X186629Y376585I-2084J-4889D01*
G01X186730Y376543D02*
G03X189424Y378776I771J1811D01*
G01X243567Y427807D02*
G03X250071Y427697I3333J4693D01*
G01X243567Y427807D02*
G03X243189Y428017I-1139J-1605D01*
G01X240612Y429099*
G03X239850Y429252I-762J-1816*
G01X234783*
X232486Y430203D02*
G03X234783Y429252I2297J2297D01*
G01X232486Y430203D02*
X232040Y430650D01*
G03X229874Y431068I-1392J-1392*
G01X228682Y430557*
G03X228313Y430351I774J-1809*
G01X221282Y430668D02*
G03X228313Y430351I3718J4332D01*
G01X221282Y430668D02*
G03X218718I-1282J-1494D01*
G01X211282D02*
G03X218718I3718J4332D01*
G01X211282D02*
G03X208718I-1282J-1494D01*
G01X201282D02*
G03X208718I3718J4332D01*
G01X201282D02*
G03X198718I-1282J-1494D01*
G01X191282D02*
G03X198718I3718J4332D01*
G01X191282D02*
G03X188718I-1282J-1494D01*
G01X188037Y430165D02*
G03X188718Y430668I-3037J4835D01*
G01X188037Y430165D02*
G03X187991Y426861I1047J-1667D01*
G01X190354Y422441D02*
G03X187991Y426861I-5315J-0D01*
G01X187002Y417502D02*
G03X190354Y422441I-1963J4939D01*
G01X187002Y417502D02*
G03X186337Y414280I727J-1830D01*
G01X187297Y413320*
X188248Y411024D02*
G03X187297Y413320I-3248J-0D01*
G01X188248Y411024D02*
Y411005D01*
G03X191443Y409465I1969J-0*
G01X198718Y409332D02*
G03X191443Y409465I-3718J-4332D01*
G01X198718Y409332D02*
G03X201282I1282J1493D01*
G01X207489Y410137D02*
G03X201282Y409332I-2489J-5137D01*
G01X207489Y410137D02*
G03X210316Y411909I858J1772D01*
X210135Y412734I-1969J-0*
G01X217940Y419362D02*
G03X210135Y412734I-2979J-4401D01*
G01X217940Y419362D02*
G03X218313Y419164I1103J1630D01*
G01X220352Y418349*
G03X221083Y418209I731J1828*
G01X240728*
G03X241459Y418349I0J1968*
G01X243498Y419164*
G03X243871Y419362I-730J1828*
G01X249348Y419652D02*
G03X243871Y419362I-2498J-4691D01*
G01X249348Y419652D02*
G03X252242Y421390I925J1738D01*
G01X252242*
G03X252221Y421674I-1969J-0*
G01X252165Y422441D02*
G03X252221Y421674I5315J-0D01*
G01X252865Y425077D02*
G03X252165Y422441I4615J-2636D01*
G01X252865Y425077D02*
G03X250071Y427697I-1709J977D01*
G01X181282Y430668D02*
G03X181994Y430147I3718J4332D01*
G01X181282Y430668D02*
G03X178718I-1282J-1494D01*
G01X175922Y429366D02*
G03X178718Y430668I-922J5634D01*
G01X175922Y429366D02*
G03X175525Y429257I318J-1943D01*
G01X173166Y428337*
G03X172489Y427895I715J-1834*
G01X172219Y427625*
X169922Y426673D02*
G03X172219Y427625I-0J3248D01*
G01X169922Y426673D02*
X162421D01*
G03X161691Y426533I0J-1968*
G01X159651Y425717*
G03X159278Y425520I731J-1827*
G01X153484Y425413D02*
G03X159278Y425520I2815J4508D01*
G01X153484Y425413D02*
G03X150505Y423391I-1042J-1670D01*
G01X150591Y422441D02*
G03X150505Y423391I-5315J-0D01*
G01X150591Y422441D02*
X150591D01*
X150089Y420186D02*
G03X150591Y422441I-4813J2255D01*
G01X150089Y420186D02*
G03X151871Y417382I1782J-835D01*
G01X178444*
G03X180226Y420186I-0J1969*
G01X182061Y426843D02*
G03X180226Y420186I2978J-4402D01*
G01X182061Y426843D02*
G03X181994Y430147I-1103J1630D01*
G01X220079Y501575D02*
G03X218110Y503543I-1969J-0D01*
G01X198964*
G03X197947Y499889I-0J-1968*
G01X200709Y495000D02*
G03X197947Y499889I-5709J0D01*
G01X200659Y494247D02*
G03X200709Y495000I-5659J753D01*
G01X200659Y494247D02*
G03X203049Y492068I1951J-260D01*
G01X210087Y486457D02*
G03X203049Y492068I-5756J-0D01*
G01X198575Y486457D02*
G03X210087I5756J-0D01*
G01X198628Y487240D02*
G03X198575Y486457I5703J-783D01*
G01X198628Y487240D02*
G03X198647Y487508I-1950J268D01*
G01X198647*
G03X196248Y489429I-1969J0*
G01X192899Y489692D02*
G03X196248Y489429I2101J5308D01*
G01X192899Y489692D02*
G03X190346Y487132I-724J-1830D01*
G01X181274Y480613D02*
G03X190346Y487132I3726J4387D01*
G01X181274Y480613D02*
G03X178726I-1274J-1501D01*
G01X171274D02*
G03X178726I3726J4387D01*
G01X171274D02*
G03X168726I-1274J-1501D01*
G01X159986Y482173D02*
G03X168726Y480613I5014J2827D01*
G01X159986Y482173D02*
G03X156866Y482584I-1715J-967D01*
G01X152144Y480891D02*
G03X156866Y482584I612J5723D01*
G01X152144Y480891D02*
G03X150135Y478136I-209J-1958D01*
G01X139961Y475984D02*
G03X150135Y478136I5315J0D01*
G01X140309Y477877D02*
G03X139961Y475984I4967J-1893D01*
G01X140309Y477877D02*
G03X137808Y480432I-1839J701D01*
G01X136220Y480157D02*
G03X137808Y480432I0J4725D01*
G01X136220Y480157D02*
X131809D01*
G03X130826Y479895I0J-1968*
G01X124726Y480116D02*
G03X130826Y479895I3227J4766D01*
G01X124726Y480116D02*
G03X121654Y478486I-1104J-1630D01*
G01Y462921*
G03X123903Y460973I1968J-0*
G01X129417Y451943D02*
G03X123903Y460973I-4693J3333D01*
G01X129417Y451943D02*
G03X129207Y451565I1605J-1140D01*
G01X128986Y451037*
G03X128833Y450276I1815J-761*
X128986Y449514I1968J-0*
G01X129207Y448986*
G03X129417Y448608I1815J762*
G01Y441943D02*
G03Y448608I-4693J3333D01*
G01Y441943D02*
G03X129207Y441565I1605J-1140D01*
G01X128126Y438987*
G03X127972Y438226I1815J-761*
G01Y431728*
G03X128549Y430336I1969J0*
G01X136691Y422194*
G03X140027Y423277I1392J1392*
G01X148091Y426949D02*
G03X140027Y423277I-2815J-4508D01*
G01X148091Y426949D02*
G03X151070Y428971I1042J1670D01*
G01X150984Y429921D02*
G03X151070Y428971I5315J0D01*
G01X150984Y429921D02*
X150984D01*
X157257Y435149D02*
G03X150984Y429921I-958J-5228D01*
G01X157257Y435149D02*
G03X159506Y436551I355J1936D01*
G01X159616Y436897D02*
G03X159506Y436551I5384J-1897D01*
G01X159616Y436897D02*
G03X157745Y439520I-1856J654D01*
G01X157724D02*
G03X157745I0J2756D01*
G01X157724D02*
X151724D01*
X148968Y442276D02*
G03X151724Y439520I2756J-0D01*
G01X148968Y442276D02*
Y448276D01*
X149609Y450043D02*
G03X148968Y448276I2115J-1767D01*
G01X149609Y450043D02*
G03X149787Y452317I-1510J1262D01*
G01X148968Y455276D02*
G03X149787Y452317I5756J-0D01*
G01X158057Y459969D02*
G03X148968Y455276I-3333J-4693D01*
G01X158057Y459969D02*
G03X158435Y459758I1140J1605D01*
G01X161013Y458677*
G03X161774Y458524I761J1815*
G01X169291*
X171588Y457572D02*
G03X169291Y458524I-2297J-2296D01*
G01X171588Y457572D02*
X177297Y451864D01*
X178137Y450409D02*
G03X177297Y451864I-3137J-842D01*
G01X178137Y450409D02*
G03X181303Y449411I1901J511D01*
G01X188026Y449897D02*
G03X181303Y449411I-3026J-4897D01*
G01X188026Y449897D02*
G03X190452Y450179I1034J1674D01*
G01X197979Y450658D02*
G03X190452Y450179I-3491J-4516D01*
G01X197979Y450658D02*
G03X200495Y450748I1204J1558D01*
G01X206420Y451820D02*
G03X200495Y450748I-2089J-5363D01*
G01X206420Y451820D02*
G03X208505Y452241I715J1834D01*
G01X208700Y452421D02*
G03X208505Y452241I3505J-3996D01*
G01X208700Y452421D02*
G03X209370Y453901I-1298J1480D01*
G01X209370*
G03X209350Y454183I-1968J-0*
G01X209291Y455000D02*
G03X209350Y454183I5709J0D01*
G01X217313Y460219D02*
G03X209291Y455000I-2313J-5219D01*
G01X217313Y460219D02*
G03X220079Y462019I797J1800D01*
G01Y467981*
G03X217313Y469781I-1969J0*
G01Y480219D02*
G03Y469781I-2313J-5219D01*
G01Y480219D02*
G03X220079Y482019I797J1800D01*
G01Y501575*
X189348Y494196D02*
G03X189692Y492899I5652J804D01*
G01X189348Y494196D02*
G03X186007Y495310I-1949J-278D01*
G01X184837Y494140*
X184761Y494065D02*
G03X184837Y494140I-3265J3415D01*
G01X184761Y494065D02*
G03X185835Y490695I1360J-1422D01*
G01X187132Y490346D02*
G03X185835Y490695I-2132J-5346D01*
G01X187132Y490346D02*
G03X189692Y492899I730J1829D01*
G01X147216Y485052D02*
G03X147575Y484106I5540J1562D01*
G01X147216Y485052D02*
G03X143930Y485910I-1895J-534D01*
G01X143929D02*
X142558Y484538D01*
G03X144308Y481210I1392J-1392*
G01X145661Y481285D02*
G03X144308Y481210I-385J-5301D01*
G01X145661Y481285D02*
G03X147575Y484106I142J1964D01*
G01X432677Y625968D02*
G03X429317Y627360I-1968J-0D01*
G01X426175Y624218*
X422835Y622835D02*
G03X426175Y624218I-0J4724D01*
G01X422835Y622835D02*
X378004D01*
G03X377743Y622817I0J-1969*
G01X374118Y622333*
G03X373680Y622222I261J-1951*
G01X365945Y627559D02*
G03X373680Y622222I5709J0D01*
G01X365945Y627559D02*
X365945D01*
X366060Y628700D02*
G03X365945Y627559I5594J-1141D01*
G01X366060Y628700D02*
G03X366100Y629093I-1929J393D01*
G01X366100*
G03X365100Y630807I-1969J0*
G01X364183Y631462D02*
G03X365100Y630807I3534J3971D01*
G01X364183Y631462D02*
G03X362055Y631782I-1308J-1470D01*
G01X356863Y632213D02*
G03X362055Y631782I2980J4401D01*
G01X356863Y632213D02*
G03X356491Y632410I-1103J-1631D01*
G01X354451Y633226*
G03X353720Y633366I-731J-1828*
G01X350936*
G03X349619Y629935I-0J-1968*
G01X351336Y626648D02*
G03X349619Y629935I-5273J-664D01*
G01X351336Y626648D02*
G03X353571Y624945I1953J246D01*
G01X358381Y616243D02*
G03X353571Y624945I-4050J3442D01*
G01X358381Y616243D02*
G03X357912Y614968I1500J-1275D01*
X359871Y613000I1969J0*
G01X364168Y611042D02*
G03X359871Y613000I-4325J-3798D01*
G01X364168Y611042D02*
G03X367187Y611114I1479J1298D01*
G01X377357Y607793D02*
G03X367187Y611114I-5703J-234D01*
G01X377357Y607793D02*
G03X379324Y605906I1967J81D01*
G01X429367*
G03X429711Y609812I0J1968*
G01X425000Y615433D02*
G03X429711Y609812I5709J0D01*
G01X430709Y621142D02*
G03X425000Y615433I-0J-5709D01*
G01X430709Y621142D02*
G03X432677Y623110I-0J1968D01*
G01Y625968*
X342126Y426378D02*
G03X340157Y428346I-1969J-0D01*
G01X320866*
X317525Y429730D02*
G03X320866Y428346I3341J3341D01*
G01X317525Y429730D02*
X313187Y434069D01*
G03X311795Y434646I-1392J-1392*
G01X311141*
G03X310364Y434486I-0J-1969*
G01X306171D02*
G03X310364I2097J4884D01*
G01X306171D02*
G03X305395Y434646I-776J-1809D01*
G01X304724*
G03X302756Y432677I0J-1969*
G01Y374213*
G03X305363Y372351I1968J-0*
G01X310131Y371679D02*
G03X305363Y372351I-3044J-4356D01*
G01X310131Y371679D02*
G03X312612Y371863I1128J1614D01*
G01X312888Y372108D02*
G03X312612Y371863I3647J-4391D01*
G01X312888Y372108D02*
G03Y375136I-1258J1514D01*
G01X320183D02*
G03X312888I-3648J4392D01*
G01X320183D02*
G03Y372108I1258J-1514D01*
G01X321259Y364511D02*
G03X320183Y372108I-4724J3206D01*
G01X321259Y364511D02*
G03X320919Y363406I1629J-1105D01*
X321171Y362443I1969J-0*
G01X321850Y359843D02*
G03X321171Y362443I-5315J-0D01*
G01X321837Y359467D02*
G03X321850Y359843I-5302J376D01*
G01X321837Y359467D02*
G03X321832Y359328I1964J-139D01*
G01X321832*
G03X325193Y357936I1969J-0*
G01X327428Y360171*
X329724Y361122D02*
G03X327428Y360171I0J-3248D01*
G01X329724Y361122D02*
X337319D01*
G03X337958Y361229I0J1969*
G01X337958D02*
X339082Y361614D01*
G03X339440Y361778I-639J1862*
G01X340635Y362267D02*
G03X339440Y361778I1097J-4393D01*
G01X340635Y362267D02*
G03X342126Y364176I-478J1909D01*
G01Y426378*
X317236Y316535D02*
G03X317091Y317278I-1968J0D01*
G01X316850Y318504D02*
G03X317091Y317278I3248J-0D01*
G01X316850Y318504D02*
Y321430D01*
G03X314265Y323299I-1968J0*
G01X311593Y333565D02*
G03X314265Y323299I1005J-5219D01*
G01X311593Y333565D02*
G03X311996Y333689I-373J1933D01*
G01X314015Y334555*
G03X314631Y334972I-776J1809*
G01X315174Y335516*
G03X313463Y338850I-1391J1392*
G01X307307Y344597D02*
G03X313463Y338850I5291J-503D01*
G01X307307Y344597D02*
G03X305348Y346752I-1959J186D01*
G01X304724*
G03X302756Y344783I0J-1969*
G01Y320328*
G03X303655Y318675I1968J-0*
G01X305936Y315843D02*
G03X303655Y318675I-5436J-2043D01*
G01X305936Y315843D02*
G03X307779Y314567I1843J692D01*
G01X315268*
G03X317236Y316535I-0J1968*
G01X342126Y544882D02*
G03X340157Y546850I-1969J-0D01*
G01X340059*
G03X338091Y544882I0J-1968*
G01Y541831*
X335335Y539075D02*
G03X338091Y541831I-0J2756D01*
G01X335335Y539075D02*
X329232D01*
X326476Y541831D02*
G03X329232Y539075I2756J-0D01*
G01X326476Y541831D02*
Y544882D01*
G03X324508Y546850I-1968J-0*
G01X316732*
G03X314764Y544882I0J-1968*
G01X310393Y539652D02*
G03X314764Y544882I-944J5230D01*
G01X310393Y539652D02*
G03X308775Y537714I350J-1938D01*
G01X308775*
G03X308797Y537417I1968J0*
G01X308858Y536614D02*
G03X308797Y537417I-5315J0D01*
G01X308858Y536614D02*
X308858D01*
X308748Y535537D02*
G03X308858Y536614I-5205J1077D01*
G01X308748Y535537D02*
G03X310676Y533169I1928J-399D01*
G01X329724*
X331856Y532372D02*
G03X329724Y533169I-2132J-2451D01*
G01X331856Y532372D02*
G03X333127Y531889I1291J1486D01*
G01X338242Y527802D02*
G03X333127Y531889I-5171J-1227D01*
G01X338242Y527802D02*
G03X339135Y526575I1915J455D01*
X338242Y525347I1022J-1682*
G01X327934Y525210D02*
G03X338242Y525347I5137J1365D01*
G01X327934Y525210D02*
G03X326032Y526673I-1902J-505D01*
G01X325808*
G03X323916Y524162I-0J-1968*
G01X316833Y514376D02*
G03X323916Y524162I-298J7671D01*
G01X316833Y514376D02*
G03X314999Y512886I76J-1967D01*
G01X307746Y509289D02*
G03X314999Y512886I2097J4884D01*
G01X307746Y509289D02*
G03X306970Y509449I-776J-1809D01*
G01X283188*
G03X282411Y509289I-0J-1969*
G01X280363Y508858D02*
G03X282411Y509289I-48J5315D01*
G01X280363Y508858D02*
G03X278447Y506518I17J-1968D01*
G01X278543Y505512D02*
G03X278447Y506518I-5315J-0D01*
G01X278543Y505512D02*
X278543D01*
X278289Y503887D02*
G03X278543Y505512I-5061J1625D01*
G01X278289Y503887D02*
G03X280417Y501334I1874J-601D01*
G01X286410Y496350D02*
G03X280417Y501334I-5308J-287D01*
G01X286410Y496350D02*
G03X288375Y494488I1965J107D01*
G01X295680*
G03X297648Y496457I-0J1969*
G01X297648*
G03X297645Y496560I-1968J-0*
G01X297638Y496850D02*
G03X297645Y496560I5512J0D01*
G01X305615Y501780D02*
G03X297638Y496850I-2465J-4930D01*
G01X305615Y501780D02*
G03X307377I881J1760D01*
G01X312308D02*
G03X307377I-2465J-4930D01*
G01X312308D02*
G03X314070I881J1760D01*
G01X319001D02*
G03X314070I-2466J-4930D01*
G01X319001D02*
G03X320763I881J1760D01*
G01X325694D02*
G03X320763I-2466J-4930D01*
G01X325694D02*
G03X327455I881J1760D01*
G01X331455Y491556D02*
G03X327455Y501780I-1534J5294D01*
G01X331455Y491556D02*
G03X330107Y490196I547J-1891D01*
X328685Y491479I-1864J-635*
G01X327455Y491921D02*
G03X328685Y491479I2466J4929D01*
G01X327455Y491921D02*
G03X325694I-880J-1761D01*
G01X325197Y491702D02*
G03X325694Y491921I-1969J5148D01*
G01X325197Y491702D02*
G03X324509Y488472I704J-1838D01*
G01X325391Y487589*
G03X327804Y487298I1392J1392*
G01X328655Y487636D02*
G03X327804Y487298I577J-2695D01*
G01X328655Y487636D02*
G03X330139Y489031I-412J1925D01*
X332002Y487697I1863J634*
G01X335335*
X338091Y484941D02*
G03X335335Y487697I-2756J-0D01*
G01X338091Y484941D02*
Y478839D01*
X335335Y476083D02*
G03X338091Y478839I-0J2756D01*
G01X335335Y476083D02*
X329232D01*
X327477Y476714D02*
G03X329232Y476083I1755J2125D01*
G01X327477Y476714D02*
G03X326223Y477165I-1254J-1517D01*
G01X323808*
G03X321843Y475303I0J-1968*
G01X314911Y480651D02*
G03X321843Y475303I1624J-5060D01*
G01X314910Y480651D02*
G03X316277Y482525I-601J1874D01*
X315701Y483917I-1968J0*
G01X315155Y484463*
G03X313763Y485039I-1392J-1392*
G01X299969*
G03X298023Y482772I-0J-1968*
G01X298091Y481890D02*
G03X298023Y482772I-5808J-0D01*
G01X298091Y481890D02*
X298091D01*
X286476D02*
G03X298091I5807J-0D01*
G01X286481Y482132D02*
G03X286476Y481890I5802J-242D01*
G01X286481Y482132D02*
G03X286483Y482215I-1966J83D01*
G01X286483*
G03X283123Y483607I-1968J-0*
G01X281687Y482171*
X279416Y480910D02*
G03X281687Y482171I-1070J4602D01*
G01X279416Y480910D02*
G03X278069Y478180I446J-1917D01*
G01X278543Y475984D02*
G03X278069Y478180I-5315J0D01*
G01X277315Y472586D02*
G03X278543Y475984I-4087J3398D01*
G01X277315Y472586D02*
G03X278019Y469534I1514J-1258D01*
G01X279387Y468663D02*
G03X278019Y469534I-3718J-4332D01*
G01X279387Y468663D02*
G03X281951I1282J1493D01*
G01X289387D02*
G03X281951I-3718J-4332D01*
G01X289387D02*
G03X291951I1282J1493D01*
G01X299387D02*
G03X291951I-3718J-4332D01*
G01X299387D02*
G03X301951I1282J1493D01*
G01X310001Y460613D02*
G03X301951Y468663I-4332J3718D01*
G01X310001Y460613D02*
G03Y458049I1494J-1282D01*
G01X311378Y454331D02*
G03X310001Y458049I-5709J-0D01*
G01X311378Y454331D02*
X311378D01*
X311271Y453233D02*
G03X311378Y454331I-5602J1098D01*
G01X311271Y453233D02*
G03X311235Y452854I1932J-379D01*
G01X311235*
G03X313203Y450886I1968J0*
G01X315795*
G03X317698Y453360I0J1968*
G01X325814Y459126D02*
G03X317698Y453360I-2979J-4402D01*
G01X325814Y459126D02*
G03X326187Y458928I1103J1630D01*
G01X328226Y458113*
G03X328957Y457972I731J1828*
G01X340157*
G03X342126Y459941I0J1969*
G01Y524893*
G03X341180Y526575I-1969J-0*
X342126Y528257I-1023J1682*
G01Y544882*
X327025Y591799D02*
X322649Y596175D01*
G03X321257Y596752I-1392J-1392*
G01X303932*
G03X302540Y596175I0J-1969*
G01X299738Y593373*
X297441Y592421D02*
G03X299738Y593373I-0J3248D01*
G01X297441Y592421D02*
X295098D01*
G03X294368Y592281I0J-1968*
G01X292328Y591465*
G03X291956Y591268I731J-1827*
G01X285103Y592030D02*
G03X291956Y591268I3873J3639D01*
G01X285103Y592030D02*
G03X284439Y592493I-1435J-1348D01*
X284231Y593275I-1966J-104*
G01X285493Y599684D02*
G03X284231Y593275I3483J-4015D01*
G01X285493Y599684D02*
G03X286172Y601171I-1290J1487D01*
X285420Y602719I-1969J-0*
G01X284379Y603781D02*
G03X285420Y602719I4597J3463D01*
G01X284379Y603781D02*
G03X281369Y603942I-1573J-1184D01*
G01X276339Y602178D02*
G03X281369Y603942I826J5696D01*
G01X276339Y602178D02*
G03X274121Y600593I-283J-1948D01*
G01X265918Y597173D02*
G03X274121Y600593I2980J4402D01*
G01X265918Y597173D02*
G03X265546Y597371I-1103J-1630D01*
G01X263506Y598186*
G03X262776Y598327I-730J-1828*
G01X210712*
G03X210074Y598220I0J-1969*
G01X208950Y597835*
G03X208592Y597670I638J-1862*
G01X202402Y599271D02*
G03X208592Y597670I3897J2304D01*
G01X202402Y599271D02*
G03X200909Y600227I-1695J-1002D01*
G01X197778Y601574D02*
G03X200909Y600227I3718J4332D01*
G01X197778Y601574D02*
G03X195214I-1282J-1494D01*
G01X189053Y600746D02*
G03X195214Y601574I2443J5160D01*
G01X189053Y600746D02*
G03X186299Y598498I-842J-1779D01*
G01X186465Y597126D02*
G03X186299Y598498I-5756J-0D01*
G01X186465Y597126D02*
X186465D01*
X185646Y594167D02*
G03X186465Y597126I-4937J2959D01*
G01X185646Y594167D02*
G03X185824Y591893I1688J-1012D01*
G01X186465Y590126D02*
G03X185824Y591893I-2756J-0D01*
G01X186465Y590126D02*
Y585039D01*
G03X188433Y583071I1968J0*
G01X195653*
G03X197045Y583647I-0J1968*
G01X197447Y584049*
X200787Y585433D02*
G03X197447Y584049I0J-4724D01*
G01X200787Y585433D02*
X216418D01*
G03X217195Y585593I0J1969*
G01Y575825D02*
G03Y585593I2096J4884D01*
G01Y575825D02*
G03X216418Y575984I-777J-1809D01*
G01X213861*
G03X211893Y574016I0J-1968*
G01X211893*
G03X211934Y573614I1968J-0*
G01X212055Y572441D02*
G03X211934Y573614I-5756J-0D01*
G01X212055Y572441D02*
X212055D01*
X211949Y571341D02*
G03X212055Y572441I-5650J1100D01*
G01X211949Y571341D02*
G03X213881Y568996I1932J-376D01*
G01X236028*
G03X237420Y569573I0J1969*
G01X243766Y575919*
X246063Y576870D02*
G03X243766Y575919I-0J-3248D01*
G01X246063Y576870D02*
X259727D01*
G03X261695Y578839I-0J1969*
X261673Y579131I-1968J-0*
G01X269026Y584805D02*
G03X261673Y579131I-2097J-4884D01*
G01X269026Y584805D02*
G03X269802Y584646I776J1809D01*
G01X269925*
G03X271893Y586614I-0J1968*
G01X271893*
G03X271882Y586827I-1968J0*
G01X271850Y587402D02*
G03X271882Y586827I5315J-0D01*
G01X281039Y591041D02*
G03X271850Y587402I-3874J-3639D01*
G01X281039Y591041D02*
G03X281703Y590578I1434J1348D01*
X281911Y589795I1965J104*
G01X282480Y587402D02*
G03X281911Y589795I-5315J-0D01*
G01X282449Y586827D02*
G03X282480Y587402I-5284J575D01*
G01X282449Y586827D02*
G03X282438Y586614I1957J-213D01*
G01X282438*
G03X284406Y584646I1968J0*
G01X289253*
G03X290030Y584805I0J1968*
G01X297382Y579131D02*
G03X290030Y584805I-5256J790D01*
G01X297382Y579131D02*
G03X297360Y578839I1947J-292D01*
X299329Y576870I1969J-0*
G01X309147*
G03X310655Y580104I-0J1969*
G01X323182Y588881D02*
G03X310655Y580104I-6647J-3842D01*
G01X323183Y588881D02*
G03X326141Y588348I1704J985D01*
G01X326686Y588743D02*
G03X326141Y588348I2842J-4491D01*
G01X326686Y588743D02*
G03X327025Y591799I-1053J1664D01*
G01X267913Y475984D02*
G03X268854Y472965I5315J0D01*
G01X268288Y477944D02*
G03X267913Y475984I4940J-1960D01*
G01X268288Y477944D02*
G03X265890Y480555I-1830J726D01*
G01X264528Y480354D02*
G03X265890Y480555I-0J4725D01*
G01X264528Y480354D02*
X262631D01*
G03X260663Y478386I0J-1968*
X260813Y477630I1968J-0*
G01X259733Y471903D02*
G03X260813Y477630I-3827J3688D01*
G01X259733Y471903D02*
G03X262310Y468946I1418J-1365D01*
G01X266833Y469920D02*
G03X262310Y468946I-1164J-5589D01*
G01X266833Y469920D02*
G03X268854Y472965I401J1927D01*
G01X277625Y521719D02*
G03X277671Y521674I2296J2297D01*
G01X277625Y521719D02*
X275841Y523502D01*
G03X274971Y524009I-1392J-1392*
G01X271153Y530106D02*
G03X274971Y524009I5225J-972D01*
G01X271153Y530106D02*
G03X271186Y530466I-1936J360D01*
X270106Y532222I-1969J-0*
G01X269276Y532823D02*
G03X270106Y532222I2297J2297D01*
G01X269276Y532823D02*
X260648Y541451D01*
G03X259257Y542028I-1391J-1392*
G01X220477*
G03X218509Y540059I0J-1969*
X219870Y538186I1968J0*
G01X223819Y532756D02*
G03X219870Y538186I-5709J-0D01*
G01X223819Y532756D02*
X223819D01*
X223789Y532172D02*
G03X223819Y532756I-5679J584D01*
G01X223789Y532172D02*
G03X223779Y531970I1958J-202D01*
G01X223779*
G03X223964Y531136I1968J0*
G01X224409Y529134D02*
G03X223964Y531136I-4724J-0D01*
G01X224409Y529134D02*
Y521260D01*
G03X226378Y519291I1969J-0*
G01X235827*
Y516074*
G03X236199Y514922I1968J0*
G01X236826Y513782D02*
G03X236199Y514922I-4936J-1971D01*
G01X236826Y513782D02*
G03X237262Y513120I1828J730D01*
G01X244474Y505908*
G03X247835Y507300I1392J1392*
G01Y508465*
X250591Y511220D02*
G03X247835Y508465I-0J-2755D01*
G01X250591Y511220D02*
X256496D01*
X259252Y508465D02*
G03X256496Y511220I-2756J-0D01*
G01X259252Y508465D02*
Y502756D01*
G03X261220Y500787I1968J-0*
G01X266486*
G03X268309Y503501I0J1969*
G01X273181Y510827D02*
G03X268309Y503501I47J-5315D01*
G01X273181Y510827D02*
G03X275096Y513167I-18J1968D01*
G01X275000Y514173D02*
G03X275096Y513167I5315J0D01*
G01X275000Y514173D02*
X275000D01*
X277390Y518611D02*
G03X275000Y514173I2925J-4438D01*
G01X277390Y518611D02*
G03X277671Y521674I-1083J1644D01*
G01X215743Y542028D02*
X207577D01*
G03X206299Y541557I-0J-1969*
X205022Y542028I-1277J-1498*
G01X196255*
G03X194863Y541451I0J-1969*
G01X192770Y539358*
G03X192348Y538730I1392J-1392*
G01X183369Y536613D02*
G03X192348Y538730I3718J4332D01*
G01X183369Y536613D02*
G03X180805I-1282J-1494D01*
G01X173791Y536283D02*
G03X180805Y536613I3296J4662D01*
G01X173791Y536283D02*
G03X173414Y536492I-1136J-1607D01*
G01X172845Y536730*
G03X171328I-758J-1817*
G01X170760Y536492*
G03X170382Y536283I758J-1816*
G01X164118Y536069D02*
G03X170382Y536283I2969J4876D01*
G01X164118Y536069D02*
G03X161821Y535890I-1024J-1681D01*
G01X160039Y535236D02*
G03X161821Y535890I0J2756D01*
G01X160039Y535236D02*
X156680D01*
G03X155680Y531572I-0J-1968*
G01X158512Y526614D02*
G03X155680Y531572I-5756J0D01*
G01X156905Y522624D02*
G03X158512Y526614I-4149J3990D01*
G01X156905Y522624D02*
G03X158323Y519291I1418J-1364D01*
G01X179747*
G03X181139Y519868I0J1969*
G01X188392Y527120*
X191732Y528504D02*
G03X188392Y527120I0J-4724D01*
G01X191732Y528504D02*
X198830D01*
G03X200798Y530472I-0J1968*
X200733Y530974I-1968J0*
G01X205347Y538118D02*
G03X200733Y530974I952J-5677D01*
G01X205347Y538118D02*
G03X206299Y538561I-325J1941D01*
X207251Y538118I1278J1498*
G01X208720Y537663D02*
G03X207251Y538118I-2421J-5222D01*
G01X208720Y537663D02*
G03X209548Y537480I828J1786D01*
G01X212046*
G03X212323Y537500I0J1969*
G01X215623Y537969*
G03X216054Y538082I-278J1949*
G01X216350Y538186D02*
G03X216054Y538082I1760J-5430D01*
G01X216350Y538186D02*
G03X215743Y542028I-607J1873D01*
G01X212453Y553642D02*
G03X210484Y555610I-1969J-0D01*
G01X198174*
G03X196206Y553642I0J-1968*
G01X196206*
G03X196220Y553402I1968J-0*
G01X196248Y553115D02*
G03X196220Y553402I-5303J-359D01*
G01X196248Y553115D02*
G03X198212Y551280I1964J133D01*
G01X210449*
G03X212413Y553122I-0J1968*
G01X212440Y553415D02*
G03X212413Y553122I5670J-659D01*
G01X212440Y553415D02*
G03X212453Y553642I-1956J227D01*
G01X269532Y611024D02*
X235760D01*
G03X234558Y610613I0J-1969*
G01X232874Y610039D02*
G03X234558Y610614I0J2756D01*
G01X232874Y610039D02*
X226969D01*
X226050Y610197D02*
G03X226969Y610039I919J2598D01*
G01X226050Y610197D02*
G03X223425Y608341I-657J-1856D01*
G01X223425*
G03Y608321I1968J0*
G01Y608268D02*
G03Y608321I-5315J-0D01*
G01Y608268D02*
X223425D01*
X223315Y607190D02*
G03X223425Y608268I-5205J1078D01*
G01X223315Y607190D02*
G03X225243Y604823I1928J-399D01*
G01X262776*
G03X263506Y604963I-0J1968*
G01X265546Y605779*
G03X265918Y605976I-731J1828*
G01X269338Y606872D02*
G03X265918Y605976I-440J-5297D01*
G01X269338Y606872D02*
G03X271454Y608589I163J1961D01*
G01X271477Y608754D02*
G03X271454Y608589I5688J-880D01*
G01X271477Y608754D02*
G03X269532Y611024I-1945J301D01*
G01X271518Y646584D02*
G03X271490Y646913I-1969J-0D01*
G01X271466Y648681D02*
G03X271490Y646913I5699J-807D01*
G01X271466Y648681D02*
G03X271486Y648957I-1949J276D01*
G01X271486*
G03X269517Y650925I-1969J-0*
G01X246634*
G03X244666Y648957I0J-1968*
G01X244666*
G03X244671Y648813I1968J-0*
G01X244685Y648425D02*
G03X244671Y648813I-5315J0D01*
G01X237274Y643541D02*
G03X244685Y648425I2096J4884D01*
G01X237274Y643541D02*
G03X236497Y643701I-777J-1809D01*
G01X234730*
G03X233497Y640198I0J-1969*
G01X234291Y632074D02*
G03X233497Y640198I-4370J3674D01*
G01X234291Y632074D02*
G03X233829Y630807I1506J-1267D01*
X235797Y628839I1968J0*
G01X239995*
G03X241848Y630142I0J1968*
G01X247180Y633651D02*
G03X241848Y630142I-330J-5305D01*
G01X247180Y633651D02*
G03X249270Y635616I122J1965D01*
X248989Y636631I-1968J-0*
G01X256280Y643926D02*
G03X248989Y636631I-2737J-4556D01*
G01X256280Y643926D02*
G03X258307I1013J1688D01*
G01X263780D02*
G03X258307I-2737J-4556D01*
G01X263780D02*
G03X265807I1013J1688D01*
G01X269278Y644634D02*
G03X265807Y643926I-735J-5264D01*
G01X269278Y644634D02*
G03X271518Y646584I271J1950D01*
G01X359055Y670866D02*
G03X357087Y672835I-1968J0D01*
G01X265645*
G03X264253Y669474I0J-1969*
G01X264450Y669277*
G03X265842Y668701I1392J1392*
G01X268307*
X271063Y665945D02*
G03X268307Y668701I-2756J-0D01*
G01X271063Y665945D02*
Y663091D01*
G03X273032Y661122I1969J-0*
G01X281496*
G03X283465Y663091I0J1969*
G01Y665748*
X286220Y668504D02*
G03X283465Y665748I0J-2756D01*
G01X286220Y668504D02*
X291732D01*
X293576Y667796D02*
G03X291732Y668504I-1844J-2048D01*
G01X293576Y667796D02*
G03X295967Y667610I1317J1464D01*
G01X303116Y666631D02*
G03X295967Y667610I-4140J-3639D01*
G01X303116Y666631D02*
G03X306102Y666664I1479J1300D01*
G01X313442Y667868D02*
G03X306102Y666664I-2970J-4876D01*
G01X313442Y667868D02*
G03X315738Y668047I1023J1681D01*
G01X317520Y668701D02*
G03X315738Y668047I-0J-2756D01*
G01X317520Y668701D02*
X323425D01*
X326026Y666855D02*
G03X323425Y668701I-2601J-910D01*
G01X326026Y666855D02*
G03X329477Y666348I1858J651D01*
G01X337064Y667868D02*
G03X329477Y666348I-2970J-4876D01*
G01X337064Y667868D02*
G03X339360Y668047I1023J1681D01*
G01X341142Y668701D02*
G03X339360Y668047I-0J-2756D01*
G01X341142Y668701D02*
X347047D01*
X349466Y667265D02*
G03X347047Y668701I-2419J-1320D01*
G01X349466Y667265D02*
G03X351194Y666240I1728J944D01*
G01X356991*
G03X358671Y667183I-0J1969*
G01X358727Y667271D02*
G03X358671Y667183I2297J-1523D01*
G01X358727Y667271D02*
G03X359055Y668360I-1640J1089D01*
G01Y670866*
X224213Y616909D02*
G03X222244Y618878I-1969J0D01*
G01X219877*
G03X218485Y618301I0J-1969*
G01X217116Y616932*
G03X218401Y613575I1392J-1392*
G01X221127Y612644D02*
G03X218401Y613575I-3017J-4376D01*
G01X221127Y612644D02*
G03X224213Y614264I1117J1620D01*
G01Y616909*
X225322Y632367D02*
G03X225552Y632074I4599J3381D01*
G01X225322Y632367D02*
G03X222215Y632451I-1586J-1166D01*
G01X221961Y632164D02*
G03X222215Y632451I-3851J3663D01*
G01X221961Y632164D02*
G03X221419Y630807I1427J-1357D01*
X223388Y628839I1969J0*
G01X224045*
G03X225552Y632074I0J1968*
G01X225112Y643701D02*
X222373D01*
G03X221221Y640136I0J-1969*
G01X222260Y639148D02*
G03X221221Y640136I-4150J-3321D01*
G01X222260Y639148D02*
G03X225367Y639191I1537J1230D01*
G01X226345Y640198D02*
G03X225367Y639191I3576J-4450D01*
G01X226345Y640198D02*
G03X225112Y643701I-1233J1534D01*
G01X213847D02*
X206495D01*
G03X205213Y640238I-0J-1969*
G01X205764Y632114D02*
G03X205213Y640238I-4268J3792D01*
G01X205764Y632114D02*
G03X205267Y630807I1472J-1307D01*
X207236Y628839I1969J0*
G01X212833*
G03X214801Y630807I-0J1968*
X214259Y632164I-1968J0*
G01X214999Y640136D02*
G03X214259Y632164I3111J-4309D01*
G01X214999Y640136D02*
G03X213847Y643701I-1152J1596D01*
G01X243748Y672835D02*
X168307D01*
G03X166339Y670866I0J-1969*
X166445Y670228I1968J0*
G01X156390D02*
G03X166445I5027J-1724D01*
G01X156390D02*
G03X156496Y670866I-1862J638D01*
X154528Y672835I-1968J0*
G01X148617*
G03X146751Y670240I0J-1969*
G01X147047Y668425D02*
G03X146751Y670240I-5708J0D01*
G01X141112Y662721D02*
G03X147047Y668425I227J5704D01*
G01X141112Y662721D02*
G03X139254Y661597I-79J-1967D01*
G01X135825Y656430D02*
G03X139254Y661597I-16140J14436D01*
G01X135825Y656430D02*
G03X137292Y653150I1467J-1312D01*
G01X137578*
G03X138542Y653402I-0J1968*
G01X143365Y653762D02*
G03X138542Y653402I-2026J-5337D01*
G01X143365Y653762D02*
G03X143803Y653651I699J1841D01*
G01X147429Y653167*
G03X147689Y653150I260J1951*
G01X196008*
G03X197400Y656510I0J1968*
G01X197006Y656904*
G03X195637Y657480I-1391J-1392*
G01X192913Y660236D02*
G03X195637Y657480I2756J0D01*
G01X192913Y660236D02*
Y665748D01*
X195669Y668504D02*
G03X192913Y665748I0J-2756D01*
G01X195669Y668504D02*
X201181D01*
X203025Y667796D02*
G03X201181Y668504I-1844J-2048D01*
G01X203025Y667796D02*
G03X205416Y667610I1317J1464D01*
G01X213256Y660338D02*
G03X205416Y667610I-4831J2654D01*
G01X213256Y660338D02*
G03X213012Y659390I1725J-948D01*
X214981Y657421I1969J-0*
G01X226454*
G03X228423Y659390I0J1969*
G01X228423*
G03X228391Y659742I-1969J-0*
G01X228346Y660236D02*
G03X228391Y659742I2756J0D01*
G01X228346Y660236D02*
Y665748D01*
X231102Y668504D02*
G03X228346Y665748I0J-2756D01*
G01X231102Y668504D02*
X236614D01*
X238458Y667796D02*
G03X236614Y668504I-1844J-2048D01*
G01X238458Y667796D02*
G03X240849Y667610I1317J1464D01*
G01X242874Y668415D02*
G03X240849Y667610I984J-5423D01*
G01X242874Y668415D02*
G03X243283Y668537I-352J1937D01*
G01X244509Y669051*
G03X243748Y672835I-761J1815*
G01X173074Y557257D02*
G03X174380Y554650I4485J617D01*
G01X173074Y557257D02*
G03X171124Y558957I-1950J-269D01*
G01X170236*
X167938Y559910D02*
G03X170236Y558957I2298J2295D01*
G01X167938Y559910D02*
X164790Y563058D01*
X163848Y565104D02*
G03X164790Y563058I3239J250D01*
G01X163848Y565104D02*
G03X160655Y566489I-1962J-152D01*
G01X154638Y565788D02*
G03X160655Y566489I2449J5157D01*
G01X154638Y565788D02*
G03X151917Y563415I-844J-1778D01*
G01X152165Y561811D02*
G03X151917Y563415I-5315J0D01*
G01X146545Y556505D02*
G03X152165Y561811I305J5306D01*
G01X146545Y556505D02*
G03X144523Y554058I-113J-1965D01*
G01X144685Y552756D02*
G03X144523Y554058I-5315J-0D01*
G01X144685Y552756D02*
X144685D01*
X135017Y555806D02*
G03X144685Y552756I4353J-3050D01*
G01X135017Y555806D02*
G03X134022Y558805I-1612J1130D01*
G01X132231Y560258D02*
G03X134022Y558805I2808J1632D01*
G01X132231Y560258D02*
X130211Y563736D01*
G03X129698Y564315I-1702J-989*
G01X127522Y565965*
G03X127152Y566187I-1189J-1568*
G01X125136Y567730D02*
G03X127152Y566187I4392J3648D01*
G01X125136Y567730D02*
G03X121654Y566472I-1514J-1258D01*
G01Y521260*
G03X123622Y519291I1968J-0*
G01X147188*
G03X148607Y522624I0J1969*
G01X147000Y526614D02*
G03X148607Y522624I5756J0D01*
G01X151680Y532269D02*
G03X147000Y526614I1076J-5655D01*
G01X151680Y532269D02*
G03X153281Y534203I-367J1934D01*
X152488Y535782I-1968J-0*
G01X151378Y537992D02*
G03X152488Y535782I2756J0D01*
G01X151378Y537992D02*
Y543898D01*
X154134Y546654D02*
G03X151378Y543898I-0J-2756D01*
G01X154134Y546654D02*
X157386D01*
G03X158778Y547230I0J1968*
G01X161875Y550327*
X164173Y551280D02*
G03X161875Y550327I0J-3249D01*
G01X164173Y551280D02*
X172998D01*
G03X174380Y554650I0J1968*
G01X153299Y585157D02*
G03X156154Y580186I5756J0D01*
G01X154118Y588116D02*
G03X153299Y585157I4937J-2959D01*
G01X154118Y588116D02*
G03X153940Y590391I-1688J1012D01*
G01X153299Y592157D02*
G03X153940Y590391I2756J0D01*
G01X153299Y592157D02*
Y598157D01*
X153300Y598200D02*
G03X153299Y598157I2755J-43D01*
G01X153300Y598200D02*
G03Y598230I-1969J30D01*
X151374Y600198I-1969J0*
G01X147991Y601399D02*
G03X151374Y600198I3505J4507D01*
G01X147991Y601399D02*
G03X144944Y599142I-1208J-1553D01*
G01X145126Y598157D02*
G03X144944Y599142I-2756J0D01*
G01X145126Y598157D02*
Y592157D01*
X144485Y590391D02*
G03X145126Y592157I-2115J1766D01*
G01X144485Y590391D02*
G03X144307Y588116I1511J-1263D01*
G01X145126Y585157D02*
G03X144307Y588116I-5756J0D01*
G01X137721Y579643D02*
G03X145126Y585157I1649J5514D01*
G01X137721Y579643D02*
G03X135209Y578035I-564J-1886D01*
G01X134583Y576644D02*
G03X135209Y578035I-2103J1781D01*
G01X134583Y576644D02*
G03X134116Y575371I1502J-1273D01*
X134403Y574347I1969J-0*
G01X135214Y570870D02*
G03X134403Y574347I-5686J508D01*
G01X135214Y570870D02*
G03X135206Y570695I1960J-175D01*
G01X135206*
G03X135223Y570439I1968J-0*
G01X135578Y567731*
G03X135828Y566999I1952J257*
G01X136340Y566118*
G03X138042Y565138I1702J988*
G01X141849*
G03X143201Y565675I0J1968*
G01X149019Y566663D02*
G03X143201Y565675I-2169J-4852D01*
G01X149019Y566663D02*
G03X151685Y569098I804J1798D01*
G01X151378Y570945D02*
G03X151685Y569098I5709J-0D01*
G01X155545Y576441D02*
G03X151378Y570945I1542J-5496D01*
G01X155545Y576441D02*
G03X156405Y576945I-532J1896D01*
G01X156554Y577094*
G03X156154Y580186I-1392J1392*
G01X187778Y631574D02*
G03X188191Y631251I3718J4332D01*
G01X187778Y631574D02*
G03X185214I-1282J-1494D01*
G01X177778D02*
G03X185214I3718J4332D01*
G01X177778D02*
G03X175214I-1282J-1494D01*
G01X167778D02*
G03X175214I3718J4332D01*
G01X167778D02*
G03X165214I-1282J-1494D01*
G01X157778D02*
G03X165214I3718J4332D01*
G01X157778D02*
G03X155214I-1282J-1494D01*
G01X147778D02*
G03X155214I3718J4332D01*
G01X147778D02*
G03X145214I-1282J-1494D01*
G01X137778D02*
G03X145214I3718J4332D01*
G01X137778D02*
G03X135214I-1282J-1494D01*
G01X126159Y637932D02*
G03X135214Y631574I5337J-2026D01*
G01X126159Y637932D02*
G03X126270Y638370I-1840J698D01*
G01X126754Y641995*
G03X126772Y642256I-1951J261*
G01Y647805*
G03X124377Y649727I-1969J0*
G01X123294Y649515D02*
G03X124377Y649727I-3609J21351D01*
G01X123294Y649515D02*
G03X121654Y647574I328J-1941D01*
G01Y611337*
G03X125426Y610550I1968J-0*
G01X127953Y612205D02*
G03X125427Y610550I-0J-2756D01*
G01X127953Y612205D02*
X135039D01*
X136934Y611450D02*
G03X135039Y612205I-1895J-2001D01*
G01X136934Y611450D02*
G03X139110Y611092I1353J1430D01*
G01X145214Y610237D02*
G03X139110Y611092I-3718J-4331D01*
G01X145214Y610237D02*
G03X147778I1282J1494D01*
G01X155214D02*
G03X147778I-3718J-4331D01*
G01X155214D02*
G03X157778I1282J1494D01*
G01X165214D02*
G03X157778I-3718J-4331D01*
G01X165214D02*
G03X167778I1282J1494D01*
G01X171424Y611614D02*
G03X167778Y610237I72J-5708D01*
G01X171424Y611614D02*
G03X172744Y615019I-25J1968D01*
G01X179357Y623299D02*
G03X172744Y615019I-2979J-4401D01*
G01X179357Y623299D02*
G03X179730Y623101I1104J1630D01*
G01X181769Y622286*
G03X182500Y622146I731J1828*
G01X185800*
G03X187768Y624114I-0J1968*
X187717Y624562I-1968J0*
G01X187598Y625591D02*
G03X187717Y624562I4528J-0D01*
G01X188589Y628417D02*
G03X187598Y625591I3537J-2826D01*
G01X188589Y628417D02*
G03X188191Y631251I-1538J1229D01*
G01X432677Y625968D02*
G03X429317Y627360I-1968J-0D01*
G01X426175Y624218*
X422835Y622835D02*
G03X426175Y624218I-0J4724D01*
G01X422835Y622835D02*
X378004D01*
G03X377743Y622817I0J-1969*
G01X374118Y622333*
G03X373680Y622222I261J-1951*
G01X365945Y627559D02*
G03X373680Y622222I5709J0D01*
G01X365945Y627559D02*
X365945D01*
X366060Y628700D02*
G03X365945Y627559I5594J-1141D01*
G01X366060Y628700D02*
G03X366100Y629093I-1929J393D01*
G01X366100*
G03X365100Y630807I-1969J0*
G01X364183Y631462D02*
G03X365100Y630807I3534J3971D01*
G01X364183Y631462D02*
G03X362055Y631782I-1308J-1470D01*
G01X356863Y632213D02*
G03X362055Y631782I2980J4401D01*
G01X356863Y632213D02*
G03X356491Y632410I-1103J-1631D01*
G01X354451Y633226*
G03X353720Y633366I-731J-1828*
G01X350936*
G03X349619Y629935I-0J-1968*
G01X351336Y626648D02*
G03X349619Y629935I-5273J-664D01*
G01X351336Y626648D02*
G03X353571Y624945I1953J246D01*
G01X358381Y616243D02*
G03X353571Y624945I-4050J3442D01*
G01X358381Y616243D02*
G03X357912Y614968I1500J-1275D01*
X359871Y613000I1969J0*
G01X364168Y611042D02*
G03X359871Y613000I-4325J-3798D01*
G01X364168Y611042D02*
G03X367187Y611114I1479J1298D01*
G01X376407Y610721D02*
G03X367187Y611114I-4753J-3162D01*
G01X376407Y610721D02*
G03X378046Y609843I1639J1090D01*
G01X423940*
G03X425908Y611811I-0J1968*
X425675Y612740I-1968J0*
G01X430709Y621142D02*
G03X425675Y612740I-0J-5709D01*
G01X430709Y621142D02*
G03X432677Y623110I-0J1968D01*
G01Y625968*
X342126Y426378D02*
G03X340157Y428346I-1969J-0D01*
G01X320866*
X317525Y429730D02*
G03X320866Y428346I3341J3341D01*
G01X317525Y429730D02*
X313187Y434069D01*
G03X311795Y434646I-1392J-1392*
G01X311141*
G03X310364Y434486I-0J-1969*
G01X306171D02*
G03X310364I2097J4884D01*
G01X306171D02*
G03X305395Y434646I-776J-1809D01*
G01X304724*
G03X302756Y432677I0J-1969*
G01Y374213*
G03X305363Y372351I1968J-0*
G01X310131Y371679D02*
G03X305363Y372351I-3044J-4356D01*
G01X310131Y371679D02*
G03X312612Y371863I1128J1614D01*
G01X312888Y372108D02*
G03X312612Y371863I3647J-4391D01*
G01X312888Y372108D02*
G03Y375136I-1258J1514D01*
G01X320183D02*
G03X312888I-3648J4392D01*
G01X320183D02*
G03Y372108I1258J-1514D01*
G01X321259Y364511D02*
G03X320183Y372108I-4724J3206D01*
G01X321259Y364511D02*
G03X320919Y363406I1629J-1105D01*
X321171Y362443I1969J-0*
G01X321850Y359843D02*
G03X321171Y362443I-5315J-0D01*
G01X321837Y359467D02*
G03X321850Y359843I-5302J376D01*
G01X321837Y359467D02*
G03X321832Y359328I1964J-139D01*
G01X321832*
G03X325193Y357936I1969J-0*
G01X327428Y360171*
X329724Y361122D02*
G03X327428Y360171I0J-3248D01*
G01X329724Y361122D02*
X337319D01*
G03X337958Y361229I0J1969*
G01X337958D02*
X339082Y361614D01*
G03X339440Y361778I-639J1862*
G01X340635Y362267D02*
G03X339440Y361778I1097J-4393D01*
G01X340635Y362267D02*
G03X342126Y364176I-478J1909D01*
G01Y426378*
X316850Y321430D02*
G03X314265Y323299I-1968J0D01*
G01X311593Y333565D02*
G03X314265Y323299I1005J-5219D01*
G01X311593Y333565D02*
G03X311996Y333689I-373J1933D01*
G01X314015Y334555*
G03X314631Y334972I-776J1809*
G01X315174Y335516*
G03X313463Y338850I-1391J1392*
G01X307307Y344597D02*
G03X313463Y338850I5291J-503D01*
G01X307307Y344597D02*
G03X305348Y346752I-1959J186D01*
G01X304724*
G03X302756Y344783I0J-1969*
G01Y320472*
G03X304724Y318504I1968J0*
G01X314882*
G03X316850Y320472I-0J1968*
G01Y321430*
X342126Y544882D02*
G03X340157Y546850I-1969J-0D01*
G01X340059*
G03X338091Y544882I0J-1968*
G01Y541831*
X335335Y539075D02*
G03X338091Y541831I-0J2756D01*
G01X335335Y539075D02*
X329232D01*
X326476Y541831D02*
G03X329232Y539075I2756J-0D01*
G01X326476Y541831D02*
Y544882D01*
G03X324508Y546850I-1968J-0*
G01X316732*
G03X314764Y544882I0J-1968*
G01X310393Y539652D02*
G03X314764Y544882I-944J5230D01*
G01X310393Y539652D02*
G03X308775Y537714I350J-1938D01*
G01X308775*
G03X308797Y537417I1968J0*
G01X308858Y536614D02*
G03X308797Y537417I-5315J0D01*
G01X308858Y536614D02*
X308858D01*
X308748Y535537D02*
G03X308858Y536614I-5205J1077D01*
G01X308748Y535537D02*
G03X310676Y533169I1928J-399D01*
G01X329724*
X331856Y532372D02*
G03X329724Y533169I-2132J-2451D01*
G01X331856Y532372D02*
G03X333127Y531889I1291J1486D01*
G01X338242Y527802D02*
G03X333127Y531889I-5171J-1227D01*
G01X338242Y527802D02*
G03X339135Y526575I1915J455D01*
X338242Y525347I1022J-1682*
G01X327934Y525210D02*
G03X338242Y525347I5137J1365D01*
G01X327934Y525210D02*
G03X326032Y526673I-1902J-505D01*
G01X325808*
G03X323916Y524162I-0J-1968*
G01X316833Y514376D02*
G03X323916Y524162I-298J7671D01*
G01X316833Y514376D02*
G03X314999Y512886I76J-1967D01*
G01X307746Y509289D02*
G03X314999Y512886I2097J4884D01*
G01X307746Y509289D02*
G03X306970Y509449I-776J-1809D01*
G01X283188*
G03X282411Y509289I-0J-1969*
G01X280363Y508858D02*
G03X282411Y509289I-48J5315D01*
G01X280363Y508858D02*
G03X278447Y506518I17J-1968D01*
G01X278543Y505512D02*
G03X278447Y506518I-5315J-0D01*
G01X278543Y505512D02*
X278543D01*
X278289Y503887D02*
G03X278543Y505512I-5061J1625D01*
G01X278289Y503887D02*
G03X280417Y501334I1874J-601D01*
G01X286410Y496350D02*
G03X280417Y501334I-5308J-287D01*
G01X286410Y496350D02*
G03X288375Y494488I1965J107D01*
G01X295680*
G03X297648Y496457I-0J1969*
G01X297648*
G03X297645Y496560I-1968J-0*
G01X297638Y496850D02*
G03X297645Y496560I5512J0D01*
G01X305615Y501780D02*
G03X297638Y496850I-2465J-4930D01*
G01X305615Y501780D02*
G03X307377I881J1760D01*
G01X312308D02*
G03X307377I-2465J-4930D01*
G01X312308D02*
G03X314070I881J1760D01*
G01X319001D02*
G03X314070I-2466J-4930D01*
G01X319001D02*
G03X320763I881J1760D01*
G01X325694D02*
G03X320763I-2466J-4930D01*
G01X325694D02*
G03X327455I881J1760D01*
G01X331455Y491556D02*
G03X327455Y501780I-1534J5294D01*
G01X331455Y491556D02*
G03X330107Y490196I547J-1891D01*
X328685Y491479I-1864J-635*
G01X327455Y491921D02*
G03X328685Y491479I2466J4929D01*
G01X327455Y491921D02*
G03X325694I-880J-1761D01*
G01X325197Y491702D02*
G03X325694Y491921I-1969J5148D01*
G01X325197Y491702D02*
G03X324509Y488472I704J-1838D01*
G01X325391Y487589*
G03X327804Y487298I1392J1392*
G01X328655Y487636D02*
G03X327804Y487298I577J-2695D01*
G01X328655Y487636D02*
G03X330139Y489031I-412J1925D01*
X332002Y487697I1863J634*
G01X335335*
X338091Y484941D02*
G03X335335Y487697I-2756J-0D01*
G01X338091Y484941D02*
Y478839D01*
X335335Y476083D02*
G03X338091Y478839I-0J2756D01*
G01X335335Y476083D02*
X329232D01*
X327477Y476714D02*
G03X329232Y476083I1755J2125D01*
G01X327477Y476714D02*
G03X326223Y477165I-1254J-1517D01*
G01X323808*
G03X321843Y475303I0J-1968*
G01X314911Y480651D02*
G03X321843Y475303I1624J-5060D01*
G01X314910Y480651D02*
G03X316277Y482525I-601J1874D01*
X315701Y483917I-1968J0*
G01X315155Y484463*
G03X313763Y485039I-1392J-1392*
G01X299969*
G03X298023Y482772I-0J-1968*
G01X298091Y481890D02*
G03X298023Y482772I-5808J-0D01*
G01X298091Y481890D02*
X298091D01*
X286476D02*
G03X298091I5807J-0D01*
G01X286481Y482132D02*
G03X286476Y481890I5802J-242D01*
G01X286481Y482132D02*
G03X286483Y482215I-1966J83D01*
G01X286483*
G03X283123Y483607I-1968J-0*
G01X281687Y482171*
X279416Y480910D02*
G03X281687Y482171I-1070J4602D01*
G01X279416Y480910D02*
G03X278069Y478180I446J-1917D01*
G01X278543Y475984D02*
G03X278069Y478180I-5315J0D01*
G01X277315Y472586D02*
G03X278543Y475984I-4087J3398D01*
G01X277315Y472586D02*
G03X278019Y469534I1514J-1258D01*
G01X279387Y468663D02*
G03X278019Y469534I-3718J-4332D01*
G01X279387Y468663D02*
G03X281951I1282J1493D01*
G01X289387D02*
G03X281951I-3718J-4332D01*
G01X289387D02*
G03X291951I1282J1493D01*
G01X299387D02*
G03X291951I-3718J-4332D01*
G01X299387D02*
G03X301951I1282J1493D01*
G01X310001Y460613D02*
G03X301951Y468663I-4332J3718D01*
G01X310001Y460613D02*
G03Y458049I1494J-1282D01*
G01X311378Y454331D02*
G03X310001Y458049I-5709J-0D01*
G01X311378Y454331D02*
X311378D01*
X311271Y453233D02*
G03X311378Y454331I-5602J1098D01*
G01X311271Y453233D02*
G03X311235Y452854I1932J-379D01*
G01X311235*
G03X313203Y450886I1968J0*
G01X315795*
G03X317698Y453360I0J1968*
G01X325814Y459126D02*
G03X317698Y453360I-2979J-4402D01*
G01X325814Y459126D02*
G03X326187Y458928I1103J1630D01*
G01X328226Y458113*
G03X328957Y457972I731J1828*
G01X340157*
G03X342126Y459941I0J1969*
G01Y524893*
G03X341180Y526575I-1969J-0*
X342126Y528257I-1023J1682*
G01Y544882*
X327025Y591799D02*
X322649Y596175D01*
G03X321257Y596752I-1392J-1392*
G01X303932*
G03X302540Y596175I0J-1969*
G01X299738Y593373*
X297441Y592421D02*
G03X299738Y593373I-0J3248D01*
G01X297441Y592421D02*
X295098D01*
G03X294368Y592281I0J-1968*
G01X292328Y591465*
G03X291956Y591268I731J-1827*
G01X285103Y592030D02*
G03X291956Y591268I3873J3639D01*
G01X285103Y592030D02*
G03X284439Y592493I-1435J-1348D01*
X284231Y593275I-1966J-104*
G01X285493Y599684D02*
G03X284231Y593275I3483J-4015D01*
G01X285493Y599684D02*
G03X286172Y601171I-1290J1487D01*
X285420Y602719I-1969J-0*
G01X284379Y603781D02*
G03X285420Y602719I4597J3463D01*
G01X284379Y603781D02*
G03X281369Y603942I-1573J-1184D01*
G01X276339Y602178D02*
G03X281369Y603942I826J5696D01*
G01X276339Y602178D02*
G03X274121Y600593I-283J-1948D01*
G01X265918Y597173D02*
G03X274121Y600593I2980J4402D01*
G01X265918Y597173D02*
G03X265546Y597371I-1103J-1630D01*
G01X263506Y598186*
G03X262776Y598327I-730J-1828*
G01X210712*
G03X210074Y598220I0J-1969*
G01X208950Y597835*
G03X208592Y597670I638J-1862*
G01X202402Y599271D02*
G03X208592Y597670I3897J2304D01*
G01X202402Y599271D02*
G03X200909Y600227I-1695J-1002D01*
G01X197778Y601574D02*
G03X200909Y600227I3718J4332D01*
G01X197778Y601574D02*
G03X195214I-1282J-1494D01*
G01X189053Y600746D02*
G03X195214Y601574I2443J5160D01*
G01X189053Y600746D02*
G03X186299Y598498I-842J-1779D01*
G01X186465Y597126D02*
G03X186299Y598498I-5756J-0D01*
G01X186465Y597126D02*
X186465D01*
X185646Y594167D02*
G03X186465Y597126I-4937J2959D01*
G01X185646Y594167D02*
G03X185824Y591893I1688J-1012D01*
G01X186465Y590126D02*
G03X185824Y591893I-2756J-0D01*
G01X186465Y590126D02*
Y585039D01*
G03X188433Y583071I1968J0*
G01X195653*
G03X197045Y583647I-0J1968*
G01X197447Y584049*
X200787Y585433D02*
G03X197447Y584049I0J-4724D01*
G01X200787Y585433D02*
X216418D01*
G03X217195Y585593I0J1969*
G01Y575825D02*
G03Y585593I2096J4884D01*
G01Y575825D02*
G03X216418Y575984I-777J-1809D01*
G01X213861*
G03X211893Y574016I0J-1968*
G01X211893*
G03X211934Y573614I1968J-0*
G01X212055Y572441D02*
G03X211934Y573614I-5756J-0D01*
G01X212055Y572441D02*
X212055D01*
X211949Y571341D02*
G03X212055Y572441I-5650J1100D01*
G01X211949Y571341D02*
G03X213881Y568996I1932J-376D01*
G01X236028*
G03X237420Y569573I0J1969*
G01X243766Y575919*
X246063Y576870D02*
G03X243766Y575919I-0J-3248D01*
G01X246063Y576870D02*
X259727D01*
G03X261695Y578839I-0J1969*
X261673Y579131I-1968J-0*
G01X269026Y584805D02*
G03X261673Y579131I-2097J-4884D01*
G01X269026Y584805D02*
G03X269802Y584646I776J1809D01*
G01X269925*
G03X271893Y586614I-0J1968*
G01X271893*
G03X271882Y586827I-1968J0*
G01X271850Y587402D02*
G03X271882Y586827I5315J-0D01*
G01X281039Y591041D02*
G03X271850Y587402I-3874J-3639D01*
G01X281039Y591041D02*
G03X281703Y590578I1434J1348D01*
X281911Y589795I1965J104*
G01X282480Y587402D02*
G03X281911Y589795I-5315J-0D01*
G01X282449Y586827D02*
G03X282480Y587402I-5284J575D01*
G01X282449Y586827D02*
G03X282438Y586614I1957J-213D01*
G01X282438*
G03X284406Y584646I1968J0*
G01X289253*
G03X290030Y584805I0J1968*
G01X297382Y579131D02*
G03X290030Y584805I-5256J790D01*
G01X297382Y579131D02*
G03X297360Y578839I1947J-292D01*
X299329Y576870I1969J-0*
G01X309147*
G03X310655Y580104I-0J1969*
G01X323182Y588881D02*
G03X310655Y580104I-6647J-3842D01*
G01X323183Y588881D02*
G03X326141Y588348I1704J985D01*
G01X326686Y588743D02*
G03X326141Y588348I2842J-4491D01*
G01X326686Y588743D02*
G03X327025Y591799I-1053J1664D01*
G01X267913Y475984D02*
G03X268854Y472965I5315J0D01*
G01X268288Y477944D02*
G03X267913Y475984I4940J-1960D01*
G01X268288Y477944D02*
G03X265890Y480555I-1830J726D01*
G01X264528Y480354D02*
G03X265890Y480555I-0J4725D01*
G01X264528Y480354D02*
X262631D01*
G03X260663Y478386I0J-1968*
X260813Y477630I1968J-0*
G01X259733Y471903D02*
G03X260813Y477630I-3827J3688D01*
G01X259733Y471903D02*
G03X262310Y468946I1418J-1365D01*
G01X266833Y469920D02*
G03X262310Y468946I-1164J-5589D01*
G01X266833Y469920D02*
G03X268854Y472965I401J1927D01*
G01X277625Y521719D02*
G03X277671Y521674I2296J2297D01*
G01X277625Y521719D02*
X275841Y523502D01*
G03X274971Y524009I-1392J-1392*
G01X271153Y530106D02*
G03X274971Y524009I5225J-972D01*
G01X271153Y530106D02*
G03X271186Y530466I-1936J360D01*
X270106Y532222I-1969J-0*
G01X269276Y532823D02*
G03X270106Y532222I2297J2297D01*
G01X269276Y532823D02*
X260648Y541451D01*
G03X259257Y542028I-1391J-1392*
G01X220477*
G03X218509Y540059I0J-1969*
X219870Y538186I1968J0*
G01X223819Y532756D02*
G03X219870Y538186I-5709J-0D01*
G01X223819Y532756D02*
X223819D01*
X223789Y532172D02*
G03X223819Y532756I-5679J584D01*
G01X223789Y532172D02*
G03X223779Y531970I1958J-202D01*
G01X223779*
G03X223964Y531136I1968J0*
G01X224409Y529134D02*
G03X223964Y531136I-4724J-0D01*
G01X224409Y529134D02*
Y525197D01*
G03X226378Y523228I1969J-0*
G01X235827*
Y516074*
G03X236199Y514922I1968J0*
G01X236826Y513782D02*
G03X236199Y514922I-4936J-1971D01*
G01X236826Y513782D02*
G03X237262Y513120I1828J730D01*
G01X244474Y505908*
G03X247835Y507300I1392J1392*
G01Y508465*
X250591Y511220D02*
G03X247835Y508465I-0J-2755D01*
G01X250591Y511220D02*
X256496D01*
X259252Y508465D02*
G03X256496Y511220I-2756J-0D01*
G01X259252Y508465D02*
Y502756D01*
G03X261220Y500787I1968J-0*
G01X266486*
G03X268309Y503501I0J1969*
G01X273181Y510827D02*
G03X268309Y503501I47J-5315D01*
G01X273181Y510827D02*
G03X275096Y513167I-18J1968D01*
G01X275000Y514173D02*
G03X275096Y513167I5315J0D01*
G01X275000Y514173D02*
X275000D01*
X277390Y518611D02*
G03X275000Y514173I2925J-4438D01*
G01X277390Y518611D02*
G03X277671Y521674I-1083J1644D01*
G01X215743Y542028D02*
X207577D01*
G03X206299Y541557I-0J-1969*
X205022Y542028I-1277J-1498*
G01X196255*
G03X194863Y541451I0J-1969*
G01X192770Y539358*
G03X192348Y538730I1392J-1392*
G01X183369Y536613D02*
G03X192348Y538730I3718J4332D01*
G01X183369Y536613D02*
G03X180805I-1282J-1494D01*
G01X173791Y536283D02*
G03X180805Y536613I3296J4662D01*
G01X173791Y536283D02*
G03X173414Y536492I-1136J-1607D01*
G01X172845Y536730*
G03X171328I-758J-1817*
G01X170760Y536492*
G03X170382Y536283I758J-1816*
G01X164118Y536069D02*
G03X170382Y536283I2969J4876D01*
G01X164118Y536069D02*
G03X161821Y535890I-1024J-1681D01*
G01X160039Y535236D02*
G03X161821Y535890I0J2756D01*
G01X160039Y535236D02*
X156680D01*
G03X155680Y531572I-0J-1968*
G01X158512Y526614D02*
G03X155680Y531572I-5756J0D01*
G01X158512Y526614D02*
X158512D01*
X158414Y525558D02*
G03X158512Y526614I-5658J1056D01*
G01X158414Y525558D02*
G03X160349Y523228I1935J-361D01*
G01X183684*
G03X185076Y523805I0J1969*
G01X188392Y527120*
X191732Y528504D02*
G03X188392Y527120I0J-4724D01*
G01X191732Y528504D02*
X198830D01*
G03X200798Y530472I-0J1968*
X200733Y530974I-1968J0*
G01X205347Y538118D02*
G03X200733Y530974I952J-5677D01*
G01X205347Y538118D02*
G03X206299Y538561I-325J1941D01*
X207251Y538118I1278J1498*
G01X208720Y537663D02*
G03X207251Y538118I-2421J-5222D01*
G01X208720Y537663D02*
G03X209548Y537480I828J1786D01*
G01X212046*
G03X212323Y537500I0J1969*
G01X215623Y537969*
G03X216054Y538082I-278J1949*
G01X216350Y538186D02*
G03X216054Y538082I1760J-5430D01*
G01X216350Y538186D02*
G03X215743Y542028I-607J1873D01*
G01X212453Y553642D02*
G03X210484Y555610I-1969J-0D01*
G01X198174*
G03X196206Y553642I0J-1968*
G01X196206*
G03X196220Y553402I1968J-0*
G01X196248Y553115D02*
G03X196220Y553402I-5303J-359D01*
G01X196248Y553115D02*
G03X198212Y551280I1964J133D01*
G01X210449*
G03X212413Y553122I-0J1968*
G01X212440Y553415D02*
G03X212413Y553122I5670J-659D01*
G01X212440Y553415D02*
G03X212453Y553642I-1956J227D01*
G01X269532Y611024D02*
X235760D01*
G03X234558Y610613I0J-1969*
G01X232874Y610039D02*
G03X234558Y610614I0J2756D01*
G01X232874Y610039D02*
X226969D01*
X226050Y610197D02*
G03X226969Y610039I919J2598D01*
G01X226050Y610197D02*
G03X223425Y608341I-657J-1856D01*
G01X223425*
G03Y608321I1968J0*
G01Y608268D02*
G03Y608321I-5315J-0D01*
G01Y608268D02*
X223425D01*
X223315Y607190D02*
G03X223425Y608268I-5205J1078D01*
G01X223315Y607190D02*
G03X225243Y604823I1928J-399D01*
G01X262776*
G03X263506Y604963I-0J1968*
G01X265546Y605779*
G03X265918Y605976I-731J1828*
G01X269338Y606872D02*
G03X265918Y605976I-440J-5297D01*
G01X269338Y606872D02*
G03X271454Y608589I163J1961D01*
G01X271477Y608754D02*
G03X271454Y608589I5688J-880D01*
G01X271477Y608754D02*
G03X269532Y611024I-1945J301D01*
G01X271518Y646584D02*
G03X271490Y646913I-1969J-0D01*
G01X271466Y648681D02*
G03X271490Y646913I5699J-807D01*
G01X271466Y648681D02*
G03X271486Y648957I-1949J276D01*
G01X271486*
G03X269517Y650925I-1969J-0*
G01X246634*
G03X244666Y648957I0J-1968*
G01X244666*
G03X244671Y648813I1968J-0*
G01X244685Y648425D02*
G03X244671Y648813I-5315J0D01*
G01X237274Y643541D02*
G03X244685Y648425I2096J4884D01*
G01X237274Y643541D02*
G03X236497Y643701I-777J-1809D01*
G01X234730*
G03X233497Y640198I0J-1969*
G01X234291Y632074D02*
G03X233497Y640198I-4370J3674D01*
G01X234291Y632074D02*
G03X233829Y630807I1506J-1267D01*
X235797Y628839I1968J0*
G01X239995*
G03X241848Y630142I0J1968*
G01X247180Y633651D02*
G03X241848Y630142I-330J-5305D01*
G01X247180Y633651D02*
G03X249270Y635616I122J1965D01*
X248989Y636631I-1968J-0*
G01X256280Y643926D02*
G03X248989Y636631I-2737J-4556D01*
G01X256280Y643926D02*
G03X258307I1013J1688D01*
G01X263780D02*
G03X258307I-2737J-4556D01*
G01X263780D02*
G03X265807I1013J1688D01*
G01X269278Y644634D02*
G03X265807Y643926I-735J-5264D01*
G01X269278Y644634D02*
G03X271518Y646584I271J1950D01*
G01X358101Y676772D02*
X165074D01*
G03X163105Y674803I-0J-1969*
X164085Y673101I1969J0*
G01X158749D02*
G03X164085I2668J-4597D01*
G01X158749D02*
G03X159729Y674803I-988J1702D01*
X157761Y676772I-1968J0*
G01X145612*
G03X144516Y673168I-0J-1969*
G01X147047Y668425D02*
G03X144516Y673168I-5708J0D01*
G01X141112Y662721D02*
G03X147047Y668425I227J5704D01*
G01X141112Y662721D02*
G03X139254Y661597I-79J-1967D01*
G01X135825Y656430D02*
G03X139254Y661597I-16140J14436D01*
G01X135825Y656430D02*
G03X137292Y653150I1467J-1312D01*
G01X137578*
G03X138542Y653402I-0J1968*
G01X143365Y653762D02*
G03X138542Y653402I-2026J-5337D01*
G01X143365Y653762D02*
G03X143803Y653651I699J1841D01*
G01X147429Y653167*
G03X147689Y653150I260J1951*
G01X196008*
G03X197400Y656510I0J1968*
G01X197006Y656904*
G03X195637Y657480I-1391J-1392*
G01X192913Y660236D02*
G03X195637Y657480I2756J0D01*
G01X192913Y660236D02*
Y665748D01*
X195669Y668504D02*
G03X192913Y665748I0J-2756D01*
G01X195669Y668504D02*
X201181D01*
X203025Y667796D02*
G03X201181Y668504I-1844J-2048D01*
G01X203025Y667796D02*
G03X205416Y667610I1317J1464D01*
G01X213256Y660338D02*
G03X205416Y667610I-4831J2654D01*
G01X213256Y660338D02*
G03X213012Y659390I1725J-948D01*
X214981Y657421I1969J-0*
G01X226454*
G03X228423Y659390I0J1969*
G01X228423*
G03X228391Y659742I-1969J-0*
G01X228346Y660236D02*
G03X228391Y659742I2756J0D01*
G01X228346Y660236D02*
Y665748D01*
X231102Y668504D02*
G03X228346Y665748I0J-2756D01*
G01X231102Y668504D02*
X236614D01*
X238458Y667796D02*
G03X236614Y668504I-1844J-2048D01*
G01X238458Y667796D02*
G03X240849Y667610I1317J1464D01*
G01X242874Y668415D02*
G03X240849Y667610I984J-5423D01*
G01X242874Y668415D02*
G03X243283Y668537I-352J1937D01*
G01X245554Y669488*
G03X246185Y669912I-761J1816*
G01X247072Y670799*
X249370Y671752D02*
G03X247072Y670799I0J-3248D01*
G01X249370Y671752D02*
X260630D01*
X262927Y670801D02*
G03X260630Y671752I-2297J-2297D01*
G01X262927Y670801D02*
X264450Y669277D01*
G03X265842Y668701I1392J1392*
G01X268307*
X271063Y665945D02*
G03X268307Y668701I-2756J-0D01*
G01X271063Y665945D02*
Y663091D01*
G03X273032Y661122I1969J-0*
G01X281496*
G03X283465Y663091I0J1969*
G01Y665748*
X286220Y668504D02*
G03X283465Y665748I0J-2756D01*
G01X286220Y668504D02*
X291732D01*
X293576Y667796D02*
G03X291732Y668504I-1844J-2048D01*
G01X293576Y667796D02*
G03X295967Y667610I1317J1464D01*
G01X303116Y666631D02*
G03X295967Y667610I-4140J-3639D01*
G01X303116Y666631D02*
G03X306102Y666664I1479J1300D01*
G01X313442Y667868D02*
G03X306102Y666664I-2970J-4876D01*
G01X313442Y667868D02*
G03X315738Y668047I1023J1681D01*
G01X317520Y668701D02*
G03X315738Y668047I-0J-2756D01*
G01X317520Y668701D02*
X323425D01*
X326026Y666855D02*
G03X323425Y668701I-2601J-910D01*
G01X326026Y666855D02*
G03X329477Y666348I1858J651D01*
G01X337064Y667868D02*
G03X329477Y666348I-2970J-4876D01*
G01X337064Y667868D02*
G03X339360Y668047I1023J1681D01*
G01X341142Y668701D02*
G03X339360Y668047I-0J-2756D01*
G01X341142Y668701D02*
X347047D01*
X349466Y667265D02*
G03X347047Y668701I-2419J-1320D01*
G01X349466Y667265D02*
G03X351194Y666240I1728J944D01*
G01X356991*
G03X358671Y667183I-0J1969*
G01X358727Y667271D02*
G03X358671Y667183I2297J-1523D01*
G01X358727Y667271D02*
G03X359055Y668360I-1640J1089D01*
G01Y671260*
X359771Y673761D02*
G03X359055Y671260I4009J-2501D01*
G01X359771Y673761D02*
G03X358101Y676772I-1670J1042D01*
G01X224213Y616909D02*
G03X222244Y618878I-1969J0D01*
G01X219877*
G03X218485Y618301I0J-1969*
G01X217116Y616932*
G03X218401Y613575I1392J-1392*
G01X221127Y612644D02*
G03X218401Y613575I-3017J-4376D01*
G01X221127Y612644D02*
G03X224213Y614264I1117J1620D01*
G01Y616909*
X225322Y632367D02*
G03X225552Y632074I4599J3381D01*
G01X225322Y632367D02*
G03X222215Y632451I-1586J-1166D01*
G01X221961Y632164D02*
G03X222215Y632451I-3851J3663D01*
G01X221961Y632164D02*
G03X221419Y630807I1427J-1357D01*
X223388Y628839I1969J0*
G01X224045*
G03X225552Y632074I0J1968*
G01X225112Y643701D02*
X222373D01*
G03X221221Y640136I0J-1969*
G01X222260Y639148D02*
G03X221221Y640136I-4150J-3321D01*
G01X222260Y639148D02*
G03X225367Y639191I1537J1230D01*
G01X226345Y640198D02*
G03X225367Y639191I3576J-4450D01*
G01X226345Y640198D02*
G03X225112Y643701I-1233J1534D01*
G01X213847D02*
X206495D01*
G03X205213Y640238I-0J-1969*
G01X205764Y632114D02*
G03X205213Y640238I-4268J3792D01*
G01X205764Y632114D02*
G03X205267Y630807I1472J-1307D01*
X207236Y628839I1969J0*
G01X212833*
G03X214801Y630807I-0J1968*
X214259Y632164I-1968J0*
G01X214999Y640136D02*
G03X214259Y632164I3111J-4309D01*
G01X214999Y640136D02*
G03X213847Y643701I-1152J1596D01*
G01X173074Y557257D02*
G03X174380Y554650I4485J617D01*
G01X173074Y557257D02*
G03X171124Y558957I-1950J-269D01*
G01X170236*
X167938Y559910D02*
G03X170236Y558957I2298J2295D01*
G01X167938Y559910D02*
X164790Y563058D01*
X163848Y565104D02*
G03X164790Y563058I3239J250D01*
G01X163848Y565104D02*
G03X160655Y566489I-1962J-152D01*
G01X154638Y565788D02*
G03X160655Y566489I2449J5157D01*
G01X154638Y565788D02*
G03X151917Y563415I-844J-1778D01*
G01X152165Y561811D02*
G03X151917Y563415I-5315J0D01*
G01X146545Y556505D02*
G03X152165Y561811I305J5306D01*
G01X146545Y556505D02*
G03X144523Y554058I-113J-1965D01*
G01X144685Y552756D02*
G03X144523Y554058I-5315J-0D01*
G01X144685Y552756D02*
X144685D01*
X135017Y555806D02*
G03X144685Y552756I4353J-3050D01*
G01X135017Y555806D02*
G03X134022Y558805I-1612J1130D01*
G01X132231Y560258D02*
G03X134022Y558805I2808J1632D01*
G01X132231Y560258D02*
X130211Y563736D01*
G03X129698Y564315I-1702J-989*
G01X127522Y565965*
G03X127152Y566187I-1189J-1568*
G01X125136Y567730D02*
G03X127152Y566187I4392J3648D01*
G01X125136Y567730D02*
G03X121654Y566472I-1514J-1258D01*
G01Y525197*
G03X123622Y523228I1968J-0*
G01X145163*
G03X147098Y525558I-0J1969*
G01X147000Y526614D02*
G03X147098Y525558I5756J0D01*
G01X147000Y526614D02*
X147000D01*
X151680Y532269D02*
G03X147000Y526614I1076J-5655D01*
G01X151680Y532269D02*
G03X153281Y534203I-367J1934D01*
X152488Y535782I-1968J-0*
G01X151378Y537992D02*
G03X152488Y535782I2756J0D01*
G01X151378Y537992D02*
Y543898D01*
X154134Y546654D02*
G03X151378Y543898I-0J-2756D01*
G01X154134Y546654D02*
X157386D01*
G03X158778Y547230I0J1968*
G01X161875Y550327*
X164173Y551280D02*
G03X161875Y550327I0J-3249D01*
G01X164173Y551280D02*
X172998D01*
G03X174380Y554650I0J1968*
G01X153299Y585157D02*
G03X156154Y580186I5756J0D01*
G01X154118Y588116D02*
G03X153299Y585157I4937J-2959D01*
G01X154118Y588116D02*
G03X153940Y590391I-1688J1012D01*
G01X153299Y592157D02*
G03X153940Y590391I2756J0D01*
G01X153299Y592157D02*
Y598157D01*
X153300Y598200D02*
G03X153299Y598157I2755J-43D01*
G01X153300Y598200D02*
G03Y598230I-1969J30D01*
X151374Y600198I-1969J0*
G01X147991Y601399D02*
G03X151374Y600198I3505J4507D01*
G01X147991Y601399D02*
G03X144944Y599142I-1208J-1553D01*
G01X145126Y598157D02*
G03X144944Y599142I-2756J0D01*
G01X145126Y598157D02*
Y592157D01*
X144485Y590391D02*
G03X145126Y592157I-2115J1766D01*
G01X144485Y590391D02*
G03X144307Y588116I1511J-1263D01*
G01X145126Y585157D02*
G03X144307Y588116I-5756J0D01*
G01X137721Y579643D02*
G03X145126Y585157I1649J5514D01*
G01X137721Y579643D02*
G03X135209Y578035I-564J-1886D01*
G01X134583Y576644D02*
G03X135209Y578035I-2103J1781D01*
G01X134583Y576644D02*
G03X134116Y575371I1502J-1273D01*
X134403Y574347I1969J-0*
G01X135214Y570870D02*
G03X134403Y574347I-5686J508D01*
G01X135214Y570870D02*
G03X135206Y570695I1960J-175D01*
G01X135206*
G03X135223Y570439I1968J-0*
G01X135578Y567731*
G03X135828Y566999I1952J257*
G01X136340Y566118*
G03X138042Y565138I1702J988*
G01X141849*
G03X143201Y565675I0J1968*
G01X149019Y566663D02*
G03X143201Y565675I-2169J-4852D01*
G01X149019Y566663D02*
G03X151685Y569098I804J1798D01*
G01X151378Y570945D02*
G03X151685Y569098I5709J-0D01*
G01X155545Y576441D02*
G03X151378Y570945I1542J-5496D01*
G01X155545Y576441D02*
G03X156405Y576945I-532J1896D01*
G01X156554Y577094*
G03X156154Y580186I-1392J1392*
G01X187778Y631574D02*
G03X188191Y631251I3718J4332D01*
G01X187778Y631574D02*
G03X185214I-1282J-1494D01*
G01X177778D02*
G03X185214I3718J4332D01*
G01X177778D02*
G03X175214I-1282J-1494D01*
G01X167778D02*
G03X175214I3718J4332D01*
G01X167778D02*
G03X165214I-1282J-1494D01*
G01X157778D02*
G03X165214I3718J4332D01*
G01X157778D02*
G03X155214I-1282J-1494D01*
G01X147778D02*
G03X155214I3718J4332D01*
G01X147778D02*
G03X145214I-1282J-1494D01*
G01X137778D02*
G03X145214I3718J4332D01*
G01X137778D02*
G03X135214I-1282J-1494D01*
G01X126159Y637932D02*
G03X135214Y631574I5337J-2026D01*
G01X126159Y637932D02*
G03X126270Y638370I-1840J698D01*
G01X126754Y641995*
G03X126772Y642256I-1951J261*
G01Y647805*
G03X124377Y649727I-1969J0*
G01X123294Y649515D02*
G03X124377Y649727I-3609J21351D01*
G01X123294Y649515D02*
G03X121654Y647574I328J-1941D01*
G01Y611337*
G03X125426Y610550I1968J-0*
G01X127953Y612205D02*
G03X125427Y610550I-0J-2756D01*
G01X127953Y612205D02*
X135039D01*
X136934Y611450D02*
G03X135039Y612205I-1895J-2001D01*
G01X136934Y611450D02*
G03X139110Y611092I1353J1430D01*
G01X145214Y610237D02*
G03X139110Y611092I-3718J-4331D01*
G01X145214Y610237D02*
G03X147778I1282J1494D01*
G01X155214D02*
G03X147778I-3718J-4331D01*
G01X155214D02*
G03X157778I1282J1494D01*
G01X165214D02*
G03X157778I-3718J-4331D01*
G01X165214D02*
G03X167778I1282J1494D01*
G01X171424Y611614D02*
G03X167778Y610237I72J-5708D01*
G01X171424Y611614D02*
G03X172744Y615019I-25J1968D01*
G01X179357Y623299D02*
G03X172744Y615019I-2979J-4401D01*
G01X179357Y623299D02*
G03X179730Y623101I1104J1630D01*
G01X181769Y622286*
G03X182500Y622146I731J1828*
G01X185800*
G03X187768Y624114I-0J1968*
X187717Y624562I-1968J0*
G01X187598Y625591D02*
G03X187717Y624562I4528J-0D01*
G01X188589Y628417D02*
G03X187598Y625591I3537J-2826D01*
G01X188589Y628417D02*
G03X188191Y631251I-1538J1229D01*
G01X432677Y625968D02*
G03X429317Y627360I-1968J-0D01*
G01X426175Y624218*
X422835Y622835D02*
G03X426175Y624218I-0J4724D01*
G01X422835Y622835D02*
X378004D01*
G03X377743Y622817I0J-1969*
G01X374118Y622333*
G03X373680Y622222I261J-1951*
G01X365945Y627559D02*
G03X373680Y622222I5709J0D01*
G01X365945Y627559D02*
X365945D01*
X366060Y628700D02*
G03X365945Y627559I5594J-1141D01*
G01X366060Y628700D02*
G03X366100Y629093I-1929J393D01*
G01X366100*
G03X365100Y630807I-1969J0*
G01X364183Y631462D02*
G03X365100Y630807I3534J3971D01*
G01X364183Y631462D02*
G03X362055Y631782I-1308J-1470D01*
G01X356863Y632213D02*
G03X362055Y631782I2980J4401D01*
G01X356863Y632213D02*
G03X356491Y632410I-1103J-1631D01*
G01X354451Y633226*
G03X353720Y633366I-731J-1828*
G01X350936*
G03X349619Y629935I-0J-1968*
G01X351336Y626648D02*
G03X349619Y629935I-5273J-664D01*
G01X351336Y626648D02*
G03X353571Y624945I1953J246D01*
G01X358381Y616243D02*
G03X353571Y624945I-4050J3442D01*
G01X358381Y616243D02*
G03X357912Y614968I1500J-1275D01*
X359871Y613000I1969J0*
G01X364168Y611042D02*
G03X359871Y613000I-4325J-3798D01*
G01X364168Y611042D02*
G03X367187Y611114I1479J1298D01*
G01X376687Y604866D02*
G03X367187Y611114I-5033J2693D01*
G01X376687Y604866D02*
G03X376454Y603937I1736J-929D01*
X378423Y601969I1969J0*
G01X430709*
G03X432677Y603937I-0J1968*
G01Y607756*
G03X430709Y609724I-1968J-0*
G01Y621142D02*
G03Y609724I-0J-5709D01*
G01Y621142D02*
G03X432677Y623110I-0J1968D01*
G01Y625968*
X346063Y426378D02*
G03X344094Y428346I-1969J-0D01*
G01X320866*
X317525Y429730D02*
G03X320866Y428346I3341J3341D01*
G01X317525Y429730D02*
X313187Y434069D01*
G03X311795Y434646I-1392J-1392*
G01X311141*
G03X310364Y434486I-0J-1969*
G01X306171D02*
G03X310364I2097J4884D01*
G01X306171D02*
G03X305395Y434646I-776J-1809D01*
G01X304724*
G03X302756Y432677I0J-1969*
G01Y374213*
G03X305363Y372351I1968J-0*
G01X310131Y371679D02*
G03X305363Y372351I-3044J-4356D01*
G01X310131Y371679D02*
G03X312612Y371863I1128J1614D01*
G01X312888Y372108D02*
G03X312612Y371863I3647J-4391D01*
G01X312888Y372108D02*
G03Y375136I-1258J1514D01*
G01X320183D02*
G03X312888I-3648J4392D01*
G01X320183D02*
G03Y372108I1258J-1514D01*
G01X321259Y364511D02*
G03X320183Y372108I-4724J3206D01*
G01X321259Y364511D02*
G03X320919Y363406I1629J-1105D01*
X321171Y362443I1969J-0*
G01X321850Y359843D02*
G03X321171Y362443I-5315J-0D01*
G01X321837Y359467D02*
G03X321850Y359843I-5302J376D01*
G01X321837Y359467D02*
G03X321832Y359328I1964J-139D01*
G01X321832*
G03X325193Y357936I1969J-0*
G01X327428Y360171*
X329724Y361122D02*
G03X327428Y360171I0J-3248D01*
G01X329724Y361122D02*
X337319D01*
G03X337958Y361229I0J1969*
G01X337958D02*
X339082Y361614D01*
G03X339440Y361778I-639J1862*
G01X343379Y362092D02*
G03X339440Y361778I-1647J-4218D01*
G01X343379Y362092D02*
G03X346063Y363925I715J1833D01*
G01Y426378*
X316850Y318504D02*
G03X317249Y316945I3248J-0D01*
G01X316850Y318504D02*
Y321430D01*
G03X314265Y323299I-1968J0*
G01X311593Y333565D02*
G03X314265Y323299I1005J-5219D01*
G01X311593Y333565D02*
G03X311996Y333689I-373J1933D01*
G01X314015Y334555*
G03X314631Y334972I-776J1809*
G01X315174Y335516*
G03X313463Y338850I-1391J1392*
G01X307307Y344597D02*
G03X313463Y338850I5291J-503D01*
G01X307307Y344597D02*
G03X305348Y346752I-1959J186D01*
G01X304724*
G03X302756Y344783I0J-1969*
G01Y320328*
G03X303655Y318675I1968J-0*
G01X306307Y313800D02*
G03X303655Y318675I-5807J0D01*
G01X306301Y313527D02*
G03X306307Y313800I-5801J273D01*
G01X306301Y313527D02*
G03X306298Y313434I1966J-93D01*
G01X306298*
G03X309337Y311781I1969J-0*
G01X311102Y312303D02*
G03X309337Y311781I0J-3248D01*
G01X311102Y312303D02*
X311594D01*
X311594D02*
G03X312325Y312444I1J1969D01*
G01X314365Y313259*
G03X314737Y313457I-731J1828*
G01X316115Y314123D02*
G03X314737Y313457I1602J-5068D01*
G01X316115Y314123D02*
G03X317249Y316945I-593J1877D01*
G01X346063Y544882D02*
G03X344094Y546850I-1969J-0D01*
G01X340059*
G03X338091Y544882I0J-1968*
G01Y541831*
X335335Y539075D02*
G03X338091Y541831I-0J2756D01*
G01X335335Y539075D02*
X329232D01*
X326476Y541831D02*
G03X329232Y539075I2756J-0D01*
G01X326476Y541831D02*
Y544882D01*
G03X324508Y546850I-1968J-0*
G01X316732*
G03X314764Y544882I0J-1968*
G01X310393Y539652D02*
G03X314764Y544882I-944J5230D01*
G01X310393Y539652D02*
G03X308775Y537714I350J-1938D01*
G01X308775*
G03X308797Y537417I1968J0*
G01X308858Y536614D02*
G03X308797Y537417I-5315J0D01*
G01X308858Y536614D02*
X308858D01*
X308748Y535537D02*
G03X308858Y536614I-5205J1077D01*
G01X308748Y535537D02*
G03X310676Y533169I1928J-399D01*
G01X329724*
X331856Y532372D02*
G03X329724Y533169I-2132J-2451D01*
G01X331856Y532372D02*
G03X333127Y531889I1291J1486D01*
G01X327934Y525210D02*
G03X333127Y531889I5137J1365D01*
G01X327934Y525210D02*
G03X326032Y526673I-1902J-505D01*
G01X325808*
G03X323916Y524162I-0J-1968*
G01X316833Y514376D02*
G03X323916Y524162I-298J7671D01*
G01X316833Y514376D02*
G03X314999Y512886I76J-1967D01*
G01X307746Y509289D02*
G03X314999Y512886I2097J4884D01*
G01X307746Y509289D02*
G03X306970Y509449I-776J-1809D01*
G01X283188*
G03X282411Y509289I-0J-1969*
G01X280363Y508858D02*
G03X282411Y509289I-48J5315D01*
G01X280363Y508858D02*
G03X278447Y506518I17J-1968D01*
G01X278543Y505512D02*
G03X278447Y506518I-5315J-0D01*
G01X278543Y505512D02*
X278543D01*
X278289Y503887D02*
G03X278543Y505512I-5061J1625D01*
G01X278289Y503887D02*
G03X280417Y501334I1874J-601D01*
G01X286410Y496350D02*
G03X280417Y501334I-5308J-287D01*
G01X286410Y496350D02*
G03X288375Y494488I1965J107D01*
G01X295680*
G03X297648Y496457I-0J1969*
G01X297648*
G03X297645Y496560I-1968J-0*
G01X297638Y496850D02*
G03X297645Y496560I5512J0D01*
G01X305615Y501780D02*
G03X297638Y496850I-2465J-4930D01*
G01X305615Y501780D02*
G03X307377I881J1760D01*
G01X312308D02*
G03X307377I-2465J-4930D01*
G01X312308D02*
G03X314070I881J1760D01*
G01X319001D02*
G03X314070I-2466J-4930D01*
G01X319001D02*
G03X320763I881J1760D01*
G01X325694D02*
G03X320763I-2466J-4930D01*
G01X325694D02*
G03X327455I881J1760D01*
G01X331455Y491556D02*
G03X327455Y501780I-1534J5294D01*
G01X331455Y491556D02*
G03X330107Y490196I547J-1891D01*
X328685Y491479I-1864J-635*
G01X327455Y491921D02*
G03X328685Y491479I2466J4929D01*
G01X327455Y491921D02*
G03X325694I-880J-1761D01*
G01X325197Y491702D02*
G03X325694Y491921I-1969J5148D01*
G01X325197Y491702D02*
G03X324509Y488472I704J-1838D01*
G01X325391Y487589*
G03X327804Y487298I1392J1392*
G01X328655Y487636D02*
G03X327804Y487298I577J-2695D01*
G01X328655Y487636D02*
G03X330139Y489031I-412J1925D01*
X332002Y487697I1863J634*
G01X335335*
X338091Y484941D02*
G03X335335Y487697I-2756J-0D01*
G01X338091Y484941D02*
Y478839D01*
X335335Y476083D02*
G03X338091Y478839I-0J2756D01*
G01X335335Y476083D02*
X329232D01*
X327477Y476714D02*
G03X329232Y476083I1755J2125D01*
G01X327477Y476714D02*
G03X326223Y477165I-1254J-1517D01*
G01X323808*
G03X321843Y475303I0J-1968*
G01X314911Y480651D02*
G03X321843Y475303I1624J-5060D01*
G01X314910Y480651D02*
G03X316277Y482525I-601J1874D01*
X315701Y483917I-1968J0*
G01X315155Y484463*
G03X313763Y485039I-1392J-1392*
G01X299969*
G03X298023Y482772I-0J-1968*
G01X298091Y481890D02*
G03X298023Y482772I-5808J-0D01*
G01X298091Y481890D02*
X298091D01*
X286476D02*
G03X298091I5807J-0D01*
G01X286481Y482132D02*
G03X286476Y481890I5802J-242D01*
G01X286481Y482132D02*
G03X286483Y482215I-1966J83D01*
G01X286483*
G03X283123Y483607I-1968J-0*
G01X281687Y482171*
X279416Y480910D02*
G03X281687Y482171I-1070J4602D01*
G01X279416Y480910D02*
G03X278069Y478180I446J-1917D01*
G01X278543Y475984D02*
G03X278069Y478180I-5315J0D01*
G01X277315Y472586D02*
G03X278543Y475984I-4087J3398D01*
G01X277315Y472586D02*
G03X278019Y469534I1514J-1258D01*
G01X279387Y468663D02*
G03X278019Y469534I-3718J-4332D01*
G01X279387Y468663D02*
G03X281951I1282J1493D01*
G01X289387D02*
G03X281951I-3718J-4332D01*
G01X289387D02*
G03X291951I1282J1493D01*
G01X299387D02*
G03X291951I-3718J-4332D01*
G01X299387D02*
G03X301951I1282J1493D01*
G01X310001Y460613D02*
G03X301951Y468663I-4332J3718D01*
G01X310001Y460613D02*
G03Y458049I1494J-1282D01*
G01X311378Y454331D02*
G03X310001Y458049I-5709J-0D01*
G01X311378Y454331D02*
X311378D01*
X311271Y453233D02*
G03X311378Y454331I-5602J1098D01*
G01X311271Y453233D02*
G03X311235Y452854I1932J-379D01*
G01X311235*
G03X313203Y450886I1968J0*
G01X315795*
G03X317698Y453360I0J1968*
G01X325814Y459126D02*
G03X317698Y453360I-2979J-4402D01*
G01X325814Y459126D02*
G03X326187Y458928I1103J1630D01*
G01X328226Y458113*
G03X328957Y457972I731J1828*
G01X344094*
G03X346063Y459941I0J1969*
G01Y544882*
X327025Y591799D02*
X322649Y596175D01*
G03X321257Y596752I-1392J-1392*
G01X303932*
G03X302540Y596175I0J-1969*
G01X299738Y593373*
X297441Y592421D02*
G03X299738Y593373I-0J3248D01*
G01X297441Y592421D02*
X295098D01*
G03X294368Y592281I0J-1968*
G01X292328Y591465*
G03X291956Y591268I731J-1827*
G01X285103Y592030D02*
G03X291956Y591268I3873J3639D01*
G01X285103Y592030D02*
G03X284439Y592493I-1435J-1348D01*
X284231Y593275I-1966J-104*
G01X285493Y599684D02*
G03X284231Y593275I3483J-4015D01*
G01X285493Y599684D02*
G03X286172Y601171I-1290J1487D01*
X285420Y602719I-1969J-0*
G01X284379Y603781D02*
G03X285420Y602719I4597J3463D01*
G01X284379Y603781D02*
G03X281369Y603942I-1573J-1184D01*
G01X276339Y602178D02*
G03X281369Y603942I826J5696D01*
G01X276339Y602178D02*
G03X274121Y600593I-283J-1948D01*
G01X265918Y597173D02*
G03X274121Y600593I2980J4402D01*
G01X265918Y597173D02*
G03X265546Y597371I-1103J-1630D01*
G01X263506Y598186*
G03X262776Y598327I-730J-1828*
G01X210712*
G03X210074Y598220I0J-1969*
G01X208950Y597835*
G03X208592Y597670I638J-1862*
G01X202402Y599271D02*
G03X208592Y597670I3897J2304D01*
G01X202402Y599271D02*
G03X200909Y600227I-1695J-1002D01*
G01X197778Y601574D02*
G03X200909Y600227I3718J4332D01*
G01X197778Y601574D02*
G03X195214I-1282J-1494D01*
G01X189053Y600746D02*
G03X195214Y601574I2443J5160D01*
G01X189053Y600746D02*
G03X186299Y598498I-842J-1779D01*
G01X186465Y597126D02*
G03X186299Y598498I-5756J-0D01*
G01X186465Y597126D02*
X186465D01*
X185646Y594167D02*
G03X186465Y597126I-4937J2959D01*
G01X185646Y594167D02*
G03X185824Y591893I1688J-1012D01*
G01X186465Y590126D02*
G03X185824Y591893I-2756J-0D01*
G01X186465Y590126D02*
Y585039D01*
G03X188433Y583071I1968J0*
G01X195653*
G03X197045Y583647I-0J1968*
G01X197447Y584049*
X200787Y585433D02*
G03X197447Y584049I0J-4724D01*
G01X200787Y585433D02*
X216418D01*
G03X217195Y585593I0J1969*
G01Y575825D02*
G03Y585593I2096J4884D01*
G01Y575825D02*
G03X216418Y575984I-777J-1809D01*
G01X213861*
G03X211893Y574016I0J-1968*
G01X211893*
G03X211934Y573614I1968J-0*
G01X212055Y572441D02*
G03X211934Y573614I-5756J-0D01*
G01X212055Y572441D02*
X212055D01*
X211949Y571341D02*
G03X212055Y572441I-5650J1100D01*
G01X211949Y571341D02*
G03X213881Y568996I1932J-376D01*
G01X236028*
G03X237420Y569573I0J1969*
G01X243766Y575919*
X246063Y576870D02*
G03X243766Y575919I-0J-3248D01*
G01X246063Y576870D02*
X259727D01*
G03X261695Y578839I-0J1969*
X261673Y579131I-1968J-0*
G01X269026Y584805D02*
G03X261673Y579131I-2097J-4884D01*
G01X269026Y584805D02*
G03X269802Y584646I776J1809D01*
G01X269925*
G03X271893Y586614I-0J1968*
G01X271893*
G03X271882Y586827I-1968J0*
G01X271850Y587402D02*
G03X271882Y586827I5315J-0D01*
G01X281039Y591041D02*
G03X271850Y587402I-3874J-3639D01*
G01X281039Y591041D02*
G03X281703Y590578I1434J1348D01*
X281911Y589795I1965J104*
G01X282480Y587402D02*
G03X281911Y589795I-5315J-0D01*
G01X282449Y586827D02*
G03X282480Y587402I-5284J575D01*
G01X282449Y586827D02*
G03X282438Y586614I1957J-213D01*
G01X282438*
G03X284406Y584646I1968J0*
G01X289253*
G03X290030Y584805I0J1968*
G01X297382Y579131D02*
G03X290030Y584805I-5256J790D01*
G01X297382Y579131D02*
G03X297360Y578839I1947J-292D01*
X299329Y576870I1969J-0*
G01X309147*
G03X310655Y580104I-0J1969*
G01X323182Y588881D02*
G03X310655Y580104I-6647J-3842D01*
G01X323183Y588881D02*
G03X326141Y588348I1704J985D01*
G01X326686Y588743D02*
G03X326141Y588348I2842J-4491D01*
G01X326686Y588743D02*
G03X327025Y591799I-1053J1664D01*
G01X267913Y475984D02*
G03X268854Y472965I5315J0D01*
G01X268288Y477944D02*
G03X267913Y475984I4940J-1960D01*
G01X268288Y477944D02*
G03X265890Y480555I-1830J726D01*
G01X264528Y480354D02*
G03X265890Y480555I-0J4725D01*
G01X264528Y480354D02*
X262631D01*
G03X260663Y478386I0J-1968*
X260813Y477630I1968J-0*
G01X259733Y471903D02*
G03X260813Y477630I-3827J3688D01*
G01X259733Y471903D02*
G03X262310Y468946I1418J-1365D01*
G01X266833Y469920D02*
G03X262310Y468946I-1164J-5589D01*
G01X266833Y469920D02*
G03X268854Y472965I401J1927D01*
G01X277625Y521719D02*
G03X277671Y521674I2296J2297D01*
G01X277625Y521719D02*
X275841Y523502D01*
G03X274971Y524009I-1392J-1392*
G01X271153Y530106D02*
G03X274971Y524009I5225J-972D01*
G01X271153Y530106D02*
G03X271186Y530466I-1936J360D01*
X270106Y532222I-1969J-0*
G01X269276Y532823D02*
G03X270106Y532222I2297J2297D01*
G01X269276Y532823D02*
X260648Y541451D01*
G03X259257Y542028I-1391J-1392*
G01X220477*
G03X218509Y540059I0J-1969*
X219870Y538186I1968J0*
G01X223819Y532756D02*
G03X219870Y538186I-5709J-0D01*
G01X223819Y532756D02*
X223819D01*
X223789Y532172D02*
G03X223819Y532756I-5679J584D01*
G01X223789Y532172D02*
G03X223779Y531970I1958J-202D01*
G01X223779*
G03X223964Y531136I1968J0*
G01X224409Y529134D02*
G03X223964Y531136I-4724J-0D01*
G01X224409Y529134D02*
Y521260D01*
G03X226378Y519291I1969J-0*
G01X235827*
Y516074*
G03X236199Y514922I1968J0*
G01X236826Y513782D02*
G03X236199Y514922I-4936J-1971D01*
G01X236826Y513782D02*
G03X237262Y513120I1828J730D01*
G01X244474Y505908*
G03X247835Y507300I1392J1392*
G01Y508465*
X250591Y511220D02*
G03X247835Y508465I-0J-2755D01*
G01X250591Y511220D02*
X256496D01*
X259252Y508465D02*
G03X256496Y511220I-2756J-0D01*
G01X259252Y508465D02*
Y502756D01*
G03X261220Y500787I1968J-0*
G01X266486*
G03X268309Y503501I0J1969*
G01X273181Y510827D02*
G03X268309Y503501I47J-5315D01*
G01X273181Y510827D02*
G03X275096Y513167I-18J1968D01*
G01X275000Y514173D02*
G03X275096Y513167I5315J0D01*
G01X275000Y514173D02*
X275000D01*
X277390Y518611D02*
G03X275000Y514173I2925J-4438D01*
G01X277390Y518611D02*
G03X277671Y521674I-1083J1644D01*
G01X215743Y542028D02*
X207577D01*
G03X206299Y541557I-0J-1969*
X205022Y542028I-1277J-1498*
G01X196255*
G03X194863Y541451I0J-1969*
G01X192770Y539358*
G03X192348Y538730I1392J-1392*
G01X183369Y536613D02*
G03X192348Y538730I3718J4332D01*
G01X183369Y536613D02*
G03X180805I-1282J-1494D01*
G01X173791Y536283D02*
G03X180805Y536613I3296J4662D01*
G01X173791Y536283D02*
G03X173414Y536492I-1136J-1607D01*
G01X172845Y536730*
G03X171328I-758J-1817*
G01X170760Y536492*
G03X170382Y536283I758J-1816*
G01X164118Y536069D02*
G03X170382Y536283I2969J4876D01*
G01X164118Y536069D02*
G03X161821Y535890I-1024J-1681D01*
G01X160039Y535236D02*
G03X161821Y535890I0J2756D01*
G01X160039Y535236D02*
X156680D01*
G03X155680Y531572I-0J-1968*
G01X158512Y526614D02*
G03X155680Y531572I-5756J0D01*
G01X156905Y522624D02*
G03X158512Y526614I-4149J3990D01*
G01X156905Y522624D02*
G03X158323Y519291I1418J-1364D01*
G01X179747*
G03X181139Y519868I0J1969*
G01X188392Y527120*
X191732Y528504D02*
G03X188392Y527120I0J-4724D01*
G01X191732Y528504D02*
X198830D01*
G03X200798Y530472I-0J1968*
X200733Y530974I-1968J0*
G01X205347Y538118D02*
G03X200733Y530974I952J-5677D01*
G01X205347Y538118D02*
G03X206299Y538561I-325J1941D01*
X207251Y538118I1278J1498*
G01X208720Y537663D02*
G03X207251Y538118I-2421J-5222D01*
G01X208720Y537663D02*
G03X209548Y537480I828J1786D01*
G01X212046*
G03X212323Y537500I0J1969*
G01X215623Y537969*
G03X216054Y538082I-278J1949*
G01X216350Y538186D02*
G03X216054Y538082I1760J-5430D01*
G01X216350Y538186D02*
G03X215743Y542028I-607J1873D01*
G01X212453Y553642D02*
G03X210484Y555610I-1969J-0D01*
G01X198174*
G03X196206Y553642I0J-1968*
G01X196206*
G03X196220Y553402I1968J-0*
G01X196248Y553115D02*
G03X196220Y553402I-5303J-359D01*
G01X196248Y553115D02*
G03X198212Y551280I1964J133D01*
G01X210449*
G03X212413Y553122I-0J1968*
G01X212440Y553415D02*
G03X212413Y553122I5670J-659D01*
G01X212440Y553415D02*
G03X212453Y553642I-1956J227D01*
G01X269532Y611024D02*
X235760D01*
G03X234558Y610613I0J-1969*
G01X232874Y610039D02*
G03X234558Y610614I0J2756D01*
G01X232874Y610039D02*
X226969D01*
X226050Y610197D02*
G03X226969Y610039I919J2598D01*
G01X226050Y610197D02*
G03X223425Y608341I-657J-1856D01*
G01X223425*
G03Y608321I1968J0*
G01Y608268D02*
G03Y608321I-5315J-0D01*
G01Y608268D02*
X223425D01*
X223315Y607190D02*
G03X223425Y608268I-5205J1078D01*
G01X223315Y607190D02*
G03X225243Y604823I1928J-399D01*
G01X262776*
G03X263506Y604963I-0J1968*
G01X265546Y605779*
G03X265918Y605976I-731J1828*
G01X269338Y606872D02*
G03X265918Y605976I-440J-5297D01*
G01X269338Y606872D02*
G03X271454Y608589I163J1961D01*
G01X271477Y608754D02*
G03X271454Y608589I5688J-880D01*
G01X271477Y608754D02*
G03X269532Y611024I-1945J301D01*
G01X271518Y646584D02*
G03X271490Y646913I-1969J-0D01*
G01X271466Y648681D02*
G03X271490Y646913I5699J-807D01*
G01X271466Y648681D02*
G03X271486Y648957I-1949J276D01*
G01X271486*
G03X269517Y650925I-1969J-0*
G01X246634*
G03X244666Y648957I0J-1968*
G01X244666*
G03X244671Y648813I1968J-0*
G01X244685Y648425D02*
G03X244671Y648813I-5315J0D01*
G01X237274Y643541D02*
G03X244685Y648425I2096J4884D01*
G01X237274Y643541D02*
G03X236497Y643701I-777J-1809D01*
G01X234730*
G03X233497Y640198I0J-1969*
G01X234291Y632074D02*
G03X233497Y640198I-4370J3674D01*
G01X234291Y632074D02*
G03X233829Y630807I1506J-1267D01*
X235797Y628839I1968J0*
G01X239995*
G03X241848Y630142I0J1968*
G01X247180Y633651D02*
G03X241848Y630142I-330J-5305D01*
G01X247180Y633651D02*
G03X249270Y635616I122J1965D01*
X248989Y636631I-1968J-0*
G01X256280Y643926D02*
G03X248989Y636631I-2737J-4556D01*
G01X256280Y643926D02*
G03X258307I1013J1688D01*
G01X263780D02*
G03X258307I-2737J-4556D01*
G01X263780D02*
G03X265807I1013J1688D01*
G01X269278Y644634D02*
G03X265807Y643926I-735J-5264D01*
G01X269278Y644634D02*
G03X271518Y646584I271J1950D01*
G01X359055Y670866D02*
G03X357087Y672835I-1968J0D01*
G01X265645*
G03X264253Y669474I0J-1969*
G01X264450Y669277*
G03X265842Y668701I1392J1392*
G01X268307*
X271063Y665945D02*
G03X268307Y668701I-2756J-0D01*
G01X271063Y665945D02*
Y663091D01*
G03X273032Y661122I1969J-0*
G01X281496*
G03X283465Y663091I0J1969*
G01Y665748*
X286220Y668504D02*
G03X283465Y665748I0J-2756D01*
G01X286220Y668504D02*
X291732D01*
X293576Y667796D02*
G03X291732Y668504I-1844J-2048D01*
G01X293576Y667796D02*
G03X295967Y667610I1317J1464D01*
G01X303116Y666631D02*
G03X295967Y667610I-4140J-3639D01*
G01X303116Y666631D02*
G03X306102Y666664I1479J1300D01*
G01X313442Y667868D02*
G03X306102Y666664I-2970J-4876D01*
G01X313442Y667868D02*
G03X315738Y668047I1023J1681D01*
G01X317520Y668701D02*
G03X315738Y668047I-0J-2756D01*
G01X317520Y668701D02*
X323425D01*
X326026Y666855D02*
G03X323425Y668701I-2601J-910D01*
G01X326026Y666855D02*
G03X329477Y666348I1858J651D01*
G01X337064Y667868D02*
G03X329477Y666348I-2970J-4876D01*
G01X337064Y667868D02*
G03X339360Y668047I1023J1681D01*
G01X341142Y668701D02*
G03X339360Y668047I-0J-2756D01*
G01X341142Y668701D02*
X347047D01*
X349466Y667265D02*
G03X347047Y668701I-2419J-1320D01*
G01X349466Y667265D02*
G03X351194Y666240I1728J944D01*
G01X356991*
G03X358671Y667183I-0J1969*
G01X358727Y667271D02*
G03X358671Y667183I2297J-1523D01*
G01X358727Y667271D02*
G03X359055Y668360I-1640J1089D01*
G01Y670866*
X224213Y616909D02*
G03X222244Y618878I-1969J0D01*
G01X219877*
G03X218485Y618301I0J-1969*
G01X217116Y616932*
G03X218401Y613575I1392J-1392*
G01X221127Y612644D02*
G03X218401Y613575I-3017J-4376D01*
G01X221127Y612644D02*
G03X224213Y614264I1117J1620D01*
G01Y616909*
X225322Y632367D02*
G03X225552Y632074I4599J3381D01*
G01X225322Y632367D02*
G03X222215Y632451I-1586J-1166D01*
G01X221961Y632164D02*
G03X222215Y632451I-3851J3663D01*
G01X221961Y632164D02*
G03X221419Y630807I1427J-1357D01*
X223388Y628839I1969J0*
G01X224045*
G03X225552Y632074I0J1968*
G01X225112Y643701D02*
X222373D01*
G03X221221Y640136I0J-1969*
G01X222260Y639148D02*
G03X221221Y640136I-4150J-3321D01*
G01X222260Y639148D02*
G03X225367Y639191I1537J1230D01*
G01X226345Y640198D02*
G03X225367Y639191I3576J-4450D01*
G01X226345Y640198D02*
G03X225112Y643701I-1233J1534D01*
G01X213847D02*
X206495D01*
G03X205213Y640238I-0J-1969*
G01X205764Y632114D02*
G03X205213Y640238I-4268J3792D01*
G01X205764Y632114D02*
G03X205267Y630807I1472J-1307D01*
X207236Y628839I1969J0*
G01X212833*
G03X214801Y630807I-0J1968*
X214259Y632164I-1968J0*
G01X214999Y640136D02*
G03X214259Y632164I3111J-4309D01*
G01X214999Y640136D02*
G03X213847Y643701I-1152J1596D01*
G01X243748Y672835D02*
X168307D01*
G03X166339Y670866I0J-1969*
X166445Y670228I1968J0*
G01X156390D02*
G03X166445I5027J-1724D01*
G01X156390D02*
G03X156496Y670866I-1862J638D01*
X154528Y672835I-1968J0*
G01X148617*
G03X146751Y670240I0J-1969*
G01X147047Y668425D02*
G03X146751Y670240I-5708J0D01*
G01X141112Y662721D02*
G03X147047Y668425I227J5704D01*
G01X141112Y662721D02*
G03X139254Y661597I-79J-1967D01*
G01X135825Y656430D02*
G03X139254Y661597I-16140J14436D01*
G01X135825Y656430D02*
G03X137292Y653150I1467J-1312D01*
G01X137578*
G03X138542Y653402I-0J1968*
G01X143365Y653762D02*
G03X138542Y653402I-2026J-5337D01*
G01X143365Y653762D02*
G03X143803Y653651I699J1841D01*
G01X147429Y653167*
G03X147689Y653150I260J1951*
G01X196008*
G03X197400Y656510I0J1968*
G01X197006Y656904*
G03X195637Y657480I-1391J-1392*
G01X192913Y660236D02*
G03X195637Y657480I2756J0D01*
G01X192913Y660236D02*
Y665748D01*
X195669Y668504D02*
G03X192913Y665748I0J-2756D01*
G01X195669Y668504D02*
X201181D01*
X203025Y667796D02*
G03X201181Y668504I-1844J-2048D01*
G01X203025Y667796D02*
G03X205416Y667610I1317J1464D01*
G01X213256Y660338D02*
G03X205416Y667610I-4831J2654D01*
G01X213256Y660338D02*
G03X213012Y659390I1725J-948D01*
X214981Y657421I1969J-0*
G01X226454*
G03X228423Y659390I0J1969*
G01X228423*
G03X228391Y659742I-1969J-0*
G01X228346Y660236D02*
G03X228391Y659742I2756J0D01*
G01X228346Y660236D02*
Y665748D01*
X231102Y668504D02*
G03X228346Y665748I0J-2756D01*
G01X231102Y668504D02*
X236614D01*
X238458Y667796D02*
G03X236614Y668504I-1844J-2048D01*
G01X238458Y667796D02*
G03X240849Y667610I1317J1464D01*
G01X242874Y668415D02*
G03X240849Y667610I984J-5423D01*
G01X242874Y668415D02*
G03X243283Y668537I-352J1937D01*
G01X244509Y669051*
G03X243748Y672835I-761J1815*
G01X173074Y557257D02*
G03X174380Y554650I4485J617D01*
G01X173074Y557257D02*
G03X171124Y558957I-1950J-269D01*
G01X170236*
X167938Y559910D02*
G03X170236Y558957I2298J2295D01*
G01X167938Y559910D02*
X164790Y563058D01*
X163848Y565104D02*
G03X164790Y563058I3239J250D01*
G01X163848Y565104D02*
G03X160655Y566489I-1962J-152D01*
G01X154638Y565788D02*
G03X160655Y566489I2449J5157D01*
G01X154638Y565788D02*
G03X151917Y563415I-844J-1778D01*
G01X152165Y561811D02*
G03X151917Y563415I-5315J0D01*
G01X146545Y556505D02*
G03X152165Y561811I305J5306D01*
G01X146545Y556505D02*
G03X144523Y554058I-113J-1965D01*
G01X144685Y552756D02*
G03X144523Y554058I-5315J-0D01*
G01X144685Y552756D02*
X144685D01*
X135017Y555806D02*
G03X144685Y552756I4353J-3050D01*
G01X135017Y555806D02*
G03X134022Y558805I-1612J1130D01*
G01X132231Y560258D02*
G03X134022Y558805I2808J1632D01*
G01X132231Y560258D02*
X130211Y563736D01*
G03X129698Y564315I-1702J-989*
G01X128749Y565036*
G03X125591Y563467I-1190J-1569*
G01Y521260*
G03X127559Y519291I1968J-0*
G01X147188*
G03X148607Y522624I0J1969*
G01X147000Y526614D02*
G03X148607Y522624I5756J0D01*
G01X151680Y532269D02*
G03X147000Y526614I1076J-5655D01*
G01X151680Y532269D02*
G03X153281Y534203I-367J1934D01*
X152488Y535782I-1968J-0*
G01X151378Y537992D02*
G03X152488Y535782I2756J0D01*
G01X151378Y537992D02*
Y543898D01*
X154134Y546654D02*
G03X151378Y543898I-0J-2756D01*
G01X154134Y546654D02*
X157386D01*
G03X158778Y547230I0J1968*
G01X161875Y550327*
X164173Y551280D02*
G03X161875Y550327I0J-3249D01*
G01X164173Y551280D02*
X172998D01*
G03X174380Y554650I0J1968*
G01X153299Y585157D02*
G03X156154Y580186I5756J0D01*
G01X154118Y588116D02*
G03X153299Y585157I4937J-2959D01*
G01X154118Y588116D02*
G03X153940Y590391I-1688J1012D01*
G01X153299Y592157D02*
G03X153940Y590391I2756J0D01*
G01X153299Y592157D02*
Y598157D01*
X153300Y598200D02*
G03X153299Y598157I2755J-43D01*
G01X153300Y598200D02*
G03Y598230I-1969J30D01*
X151374Y600198I-1969J0*
G01X147991Y601399D02*
G03X151374Y600198I3505J4507D01*
G01X147991Y601399D02*
G03X144944Y599142I-1208J-1553D01*
G01X145126Y598157D02*
G03X144944Y599142I-2756J0D01*
G01X145126Y598157D02*
Y592157D01*
X144485Y590391D02*
G03X145126Y592157I-2115J1766D01*
G01X144485Y590391D02*
G03X144307Y588116I1511J-1263D01*
G01X145126Y585157D02*
G03X144307Y588116I-5756J0D01*
G01X137721Y579643D02*
G03X145126Y585157I1649J5514D01*
G01X137721Y579643D02*
G03X135209Y578035I-564J-1886D01*
G01X134583Y576644D02*
G03X135209Y578035I-2103J1781D01*
G01X134583Y576644D02*
G03X134116Y575371I1502J-1273D01*
X134403Y574347I1969J-0*
G01X135214Y570870D02*
G03X134403Y574347I-5686J508D01*
G01X135214Y570870D02*
G03X135206Y570695I1960J-175D01*
G01X135206*
G03X135223Y570439I1968J-0*
G01X135578Y567731*
G03X135828Y566999I1952J257*
G01X136340Y566118*
G03X138042Y565138I1702J988*
G01X141849*
G03X143201Y565675I0J1968*
G01X149019Y566663D02*
G03X143201Y565675I-2169J-4852D01*
G01X149019Y566663D02*
G03X151685Y569098I804J1798D01*
G01X151378Y570945D02*
G03X151685Y569098I5709J-0D01*
G01X155545Y576441D02*
G03X151378Y570945I1542J-5496D01*
G01X155545Y576441D02*
G03X156405Y576945I-532J1896D01*
G01X156554Y577094*
G03X156154Y580186I-1392J1392*
G01X187778Y631574D02*
G03X188191Y631251I3718J4332D01*
G01X187778Y631574D02*
G03X185214I-1282J-1494D01*
G01X177778D02*
G03X185214I3718J4332D01*
G01X177778D02*
G03X175214I-1282J-1494D01*
G01X167778D02*
G03X175214I3718J4332D01*
G01X167778D02*
G03X165214I-1282J-1494D01*
G01X157778D02*
G03X165214I3718J4332D01*
G01X157778D02*
G03X155214I-1282J-1494D01*
G01X147778D02*
G03X155214I3718J4332D01*
G01X147778D02*
G03X145214I-1282J-1494D01*
G01X137778D02*
G03X145214I3718J4332D01*
G01X137778D02*
G03X135214I-1282J-1494D01*
G01X128569Y631005D02*
G03X135214Y631574I2927J4901D01*
G01X128569Y631005D02*
G03X125591Y629315I-1010J-1690D01*
G01Y614157*
G03X127723Y612195I1968J-0*
G01X127953Y612205D02*
G03X127723Y612195I-0J-2756D01*
G01X127953Y612205D02*
X135039D01*
X136934Y611450D02*
G03X135039Y612205I-1895J-2001D01*
G01X136934Y611450D02*
G03X139110Y611092I1353J1430D01*
G01X145214Y610237D02*
G03X139110Y611092I-3718J-4331D01*
G01X145214Y610237D02*
G03X147778I1282J1494D01*
G01X155214D02*
G03X147778I-3718J-4331D01*
G01X155214D02*
G03X157778I1282J1494D01*
G01X165214D02*
G03X157778I-3718J-4331D01*
G01X165214D02*
G03X167778I1282J1494D01*
G01X171424Y611614D02*
G03X167778Y610237I72J-5708D01*
G01X171424Y611614D02*
G03X172744Y615019I-25J1968D01*
G01X179357Y623299D02*
G03X172744Y615019I-2979J-4401D01*
G01X179357Y623299D02*
G03X179730Y623101I1104J1630D01*
G01X181769Y622286*
G03X182500Y622146I731J1828*
G01X185800*
G03X187768Y624114I-0J1968*
X187717Y624562I-1968J0*
G01X187598Y625591D02*
G03X187717Y624562I4528J-0D01*
G01X188589Y628417D02*
G03X187598Y625591I3537J-2826D01*
G01X188589Y628417D02*
G03X188191Y631251I-1538J1229D01*
G01X150984Y371969D02*
G03X150984I-5708J0D01*
G01X137205Y206299D02*
X137205D01*
X127734Y210593D02*
G03X137205Y206299I3762J-4294D01*
G01X127734Y210593D02*
G03X128406Y212074I-1297J1481D01*
X127654Y213622I-1969J0*
G01X125560Y217113D02*
G03X127654Y213622I5621J997D01*
G01X125560Y217113D02*
G03X125063Y218110I-1938J-344D01*
X125560Y219108I-1441J1342*
G01X134943Y213816D02*
G03X125560Y219108I-3762J4294D01*
G01X134943Y213816D02*
G03X134271Y212335I1297J-1481D01*
X135023Y210788I1969J0*
G01X137205Y206299D02*
G03X135023Y210788I-5709J0D01*
G01X200197Y466142D02*
G03X200197I-5709J0D01*
G01X188215Y367715D02*
X275574D01*
X189946Y371259D02*
X272848D01*
X241192Y374802D02*
X269277D01*
X227493Y364172D02*
X251575D01*
X229666Y360629D02*
X251575D01*
X228953Y357085D02*
X251575D01*
X229537Y353542D02*
X251575D01*
X230756Y349999D02*
X251575D01*
X230125Y346455D02*
X251575D01*
X244309Y342912D02*
X251575D01*
X245020Y339369D02*
X251575D01*
X243274Y335825D02*
X251575D01*
X245932Y332282D02*
X251575D01*
X247475Y328739D02*
X251575D01*
X246549Y325196D02*
X251575D01*
X245013Y321652D02*
X251575D01*
X244980Y318109D02*
X251575D01*
X243569Y314566D02*
X251575D01*
X240025Y311022D02*
X251575D01*
X236482Y307479D02*
X251575D01*
X232939Y303936D02*
X251575D01*
X229395Y300392D02*
X251575D01*
X225879Y296849D02*
X251575D01*
X244654Y293306D02*
X251575D01*
X247311Y289762D02*
X251575D01*
X247081Y286219D02*
X251575D01*
X243962Y282676D02*
X251575D01*
X232843Y293306D02*
X238811D01*
X197674Y374802D02*
X238335D01*
X198897Y364172D02*
X221326D01*
X199909Y357085D02*
X219552D01*
X200674Y360629D02*
X219153D01*
X198862Y353542D02*
X210463D01*
X199521Y346455D02*
X209875D01*
X200197Y349999D02*
X209244D01*
X190959Y374802D02*
X192640D01*
X121654Y364172D02*
X191103D01*
X147807Y357085D02*
X189828D01*
X121654Y360629D02*
X189326D01*
X149083Y367715D02*
X181077D01*
X150232Y374802D02*
X180174D01*
X150940Y371259D02*
X179345D01*
X141324Y396062D02*
X164053D01*
X138972Y385432D02*
X161130D01*
X140901Y399605D02*
X160770D01*
X150763Y353542D02*
X160463D01*
X133185Y378345D02*
X160024D01*
X136704Y381888D02*
X159884D01*
X150205Y346455D02*
X159860D01*
X141162Y392518D02*
X159824D01*
X140402Y388975D02*
X159336D01*
X138085Y406692D02*
X159291D01*
X139857Y403148D02*
X159291D01*
X150634Y349999D02*
X159244D01*
X137254Y410235D02*
X158885D01*
X122127Y357085D02*
X141993D01*
X121654Y367715D02*
X141468D01*
X126735Y374802D02*
X140320D01*
X121654Y371259D02*
X139611D01*
X274939Y431495D02*
X290945D01*
X281247Y427951D02*
X290945D01*
X282408Y424408D02*
X290945D01*
X281102Y420865D02*
X290945D01*
X258909Y417322D02*
X290945D01*
X252032Y413778D02*
X290945D01*
X271776Y396062D02*
X290945D01*
X273341Y392518D02*
X290945D01*
X272434Y388975D02*
X290945D01*
X261443Y410235D02*
X290758D01*
X271006Y385432D02*
X290385D01*
X279637Y399605D02*
X283788D01*
X275580Y381888D02*
X281338D01*
X265618Y399605D02*
X273763D01*
X262556Y420865D02*
X272298D01*
X262795Y406692D02*
X271429D01*
X262331Y403148D02*
X271154D01*
X262418Y424408D02*
X270766D01*
X252588Y417322D02*
X256052D01*
X195852Y254329D02*
X200394D01*
X194831Y250786D02*
X200394D01*
X121654Y247243D02*
X200394D01*
X121654Y243699D02*
X200394D01*
X170016Y240156D02*
X200394D01*
X196358Y236613D02*
X200394D01*
X196358Y233070D02*
X200394D01*
X196043Y229526D02*
X200394D01*
X172973Y225983D02*
X200394D01*
X175855Y222440D02*
X200394D01*
X179398Y218896D02*
X200394D01*
X181201Y215353D02*
X200394D01*
X181201Y211810D02*
X200394D01*
X181201Y208266D02*
X200394D01*
X181201Y204723D02*
X200394D01*
X181201Y201180D02*
X200394D01*
X181201Y197636D02*
X200394D01*
X181241Y194093D02*
X200354D01*
X121654Y250786D02*
X186271D01*
X158205Y240156D02*
X163842D01*
X121654Y254329D02*
X161669D01*
X121654Y257873D02*
X158006D01*
X121694Y194093D02*
X153971D01*
X121654Y197636D02*
X153873D01*
X121654Y240156D02*
X152031D01*
X121654Y225983D02*
X151870D01*
X121654Y261416D02*
X150985D01*
X149213Y229526D02*
X150590D01*
X121654Y264959D02*
X149423D01*
X145552Y268503D02*
X149413D01*
X134022Y201180D02*
X148970D01*
X134343Y211810D02*
X148388D01*
X134902Y222440D02*
X147460D01*
X136180Y215353D02*
X146182D01*
X136855Y208266D02*
X146137D01*
X136983Y204723D02*
X146009D01*
X136835Y218896D02*
X145527D01*
X133741Y268503D02*
X141062D01*
X121654D02*
X129251D01*
X121654Y201180D02*
X128970D01*
X121654Y211810D02*
X128388D01*
X121654Y222440D02*
X127460D01*
X121654Y215353D02*
X126182D01*
X121654Y208266D02*
X126137D01*
X121654Y204723D02*
X126009D01*
X121654Y229526D02*
X126005D01*
X121654Y272046D02*
X125979D01*
X121716Y275589D02*
X125703D01*
X121654Y236613D02*
X125689D01*
X121654Y233070D02*
X125689D01*
X121734Y218896D02*
X125511D01*
X137072Y289762D02*
X185032D01*
X134327Y293306D02*
X176758D01*
X156267Y296849D02*
X158784D01*
X133009D02*
X153969D01*
X136812Y300392D02*
X149790D01*
X137094Y303936D02*
X149609D01*
X137294Y307479D02*
X149450D01*
X230454Y406692D02*
X252008D01*
X249283Y410235D02*
X251607D01*
X229130D02*
X244418D01*
X185396Y378345D02*
X189470D01*
X189977Y424408D02*
X252543D01*
X190115Y420865D02*
X252170D01*
X250632Y427951D02*
X251680D01*
X187193D02*
X243330D01*
X186654Y417322D02*
X210199D01*
X186839Y413778D02*
X209779D01*
X207277Y410235D02*
X209383D01*
X197277D02*
X202724D01*
X188405D02*
X192724D01*
X172548Y427951D02*
X182856D01*
X150589Y424408D02*
X180102D01*
X150352Y420865D02*
X179963D01*
X199244Y498818D02*
X220079D01*
X200702Y495274D02*
X220079D01*
X206636Y491731D02*
X220079D01*
X209820Y488188D02*
X220079D01*
X209794Y484644D02*
X220079D01*
X200142Y466928D02*
X220079D01*
X199487Y463385D02*
X220079D01*
X197159Y502361D02*
X219915D01*
X206440Y481101D02*
X219852D01*
X158262Y459841D02*
X211975D01*
X198209Y470471D02*
X211525D01*
X150352Y477558D02*
X209896D01*
X172862Y456298D02*
X209441D01*
X150212Y474014D02*
X209377D01*
X176406Y452755D02*
X209002D01*
X189234Y481101D02*
X202222D01*
X190745Y484644D02*
X198868D01*
X190234Y488188D02*
X198526D01*
X121654Y470471D02*
X190767D01*
X121654Y463385D02*
X189490D01*
X121654Y466928D02*
X188834D01*
X179061Y449211D02*
X181016D01*
X154410Y481101D02*
X160766D01*
X128005Y438581D02*
X159437D01*
X127972Y435038D02*
X154861D01*
X127986Y431495D02*
X151222D01*
X128230Y459841D02*
X151219D01*
X130934Y427951D02*
X150985D01*
X129899Y452755D02*
X149550D01*
X129113Y449211D02*
X149132D01*
X130389Y456298D02*
X149060D01*
X129541Y442125D02*
X148973D01*
X130467Y445668D02*
X148968D01*
X121654Y474014D02*
X140339D01*
X134477Y424408D02*
X140338D01*
X121654Y477558D02*
X140199D01*
X184377Y491731D02*
X189779D01*
X185971Y495274D02*
X188826D01*
X142664Y484644D02*
X147348D01*
X425444Y623621D02*
X432677D01*
X429121Y627164D02*
X432272D01*
X377041Y609448D02*
X430550D01*
X359631Y620077D02*
X427389D01*
X373410Y612991D02*
X425549D01*
X358611Y616534D02*
X425107D01*
X360168Y612991D02*
X369897D01*
X357903Y623621D02*
X367521D01*
X351245Y627164D02*
X365959D01*
X349092Y630707D02*
X365258D01*
X302756Y425196D02*
X342126D01*
X302756Y421652D02*
X342126D01*
X302756Y418109D02*
X342126D01*
X302756Y414566D02*
X342126D01*
X302756Y411022D02*
X342126D01*
X302756Y407479D02*
X342126D01*
X302756Y403936D02*
X342126D01*
X302756Y400392D02*
X342126D01*
X302756Y396849D02*
X342126D01*
X302756Y393306D02*
X342126D01*
X302756Y389762D02*
X342126D01*
X302756Y386219D02*
X342126D01*
X321298Y382676D02*
X342126D01*
X322230Y379133D02*
X342126D01*
X320668Y375589D02*
X342126D01*
X320256Y372046D02*
X342126D01*
X322190Y368503D02*
X342126D01*
X321534Y364959D02*
X342126D01*
X321612Y361416D02*
X338505D01*
X322475Y357873D02*
X325127D01*
X302756Y428739D02*
X318981D01*
X302756Y432282D02*
X314974D01*
X309524Y372046D02*
X312814D01*
X302756Y375589D02*
X312403D01*
X302756Y382676D02*
X311773D01*
X302756Y379133D02*
X310840D01*
X303373Y318896D02*
X316850D01*
X306205Y315353D02*
X316841D01*
X302756Y322440D02*
X316572D01*
X302756Y336613D02*
X315729D01*
X302756Y333070D02*
X310161D01*
X302756Y340156D02*
X309029D01*
X302756Y325983D02*
X307838D01*
X302756Y329526D02*
X307416D01*
X302756Y343699D02*
X307298D01*
X338091Y542125D02*
X342126D01*
X308976Y538581D02*
X342126D01*
X308710Y535038D02*
X342126D01*
X335082Y531495D02*
X342126D01*
X337924Y524408D02*
X342126D01*
X324121Y520865D02*
X342126D01*
X322586Y517322D02*
X342126D01*
X315495Y513778D02*
X342126D01*
X313412Y510235D02*
X342126D01*
X278422Y506692D02*
X342126D01*
X278200Y503148D02*
X342126D01*
X334695Y499605D02*
X342126D01*
X335376Y496062D02*
X342126D01*
X333329Y492518D02*
X342126D01*
X330159Y488975D02*
X342126D01*
X338047Y485432D02*
X342126D01*
X338091Y481888D02*
X342126D01*
X338046Y478345D02*
X342126D01*
X321792Y474802D02*
X342126D01*
X319615Y471259D02*
X342126D01*
X310266Y467715D02*
X342126D01*
X311376Y464172D02*
X342126D01*
X310015Y460629D02*
X342126D01*
X338204Y527951D02*
X342102D01*
X338254Y545668D02*
X341962D01*
X324144Y488975D02*
X330123D01*
X323862Y524408D02*
X328218D01*
X313993Y542125D02*
X326476D01*
X314928Y545668D02*
X326313D01*
X310669Y457085D02*
X318073D01*
X311323Y453542D02*
X317653D01*
X298091Y481888D02*
X316171D01*
X276861Y471259D02*
X313456D01*
X296883Y478345D02*
X311990D01*
X278410Y474802D02*
X311279D01*
X285065Y499605D02*
X298375D01*
X286447Y496062D02*
X297608D01*
X278003Y478345D02*
X287684D01*
X281378Y481888D02*
X286476D01*
X320299Y591731D02*
X327090D01*
X323858Y588188D02*
X325916D01*
X301639Y595274D02*
X323550D01*
X292993Y591731D02*
X312772D01*
X297834Y577558D02*
X310642D01*
X297308Y581101D02*
X309945D01*
X282422Y588188D02*
X309533D01*
X294563Y584644D02*
X308868D01*
X278819Y602361D02*
X285771D01*
X280248Y591731D02*
X285407D01*
X273442Y598818D02*
X284694D01*
X186159Y595274D02*
X283676D01*
X185949Y591731D02*
X274082D01*
X186465Y588188D02*
X271909D01*
X222863Y584644D02*
X264492D01*
X224592Y581101D02*
X261747D01*
X223572Y577558D02*
X261221D01*
X211893Y574014D02*
X241862D01*
X211976Y570471D02*
X238319D01*
X186248Y598818D02*
X202708D01*
X186505Y584644D02*
X198174D01*
X259319Y471259D02*
X269113D01*
X260663Y478345D02*
X268400D01*
X261162Y474802D02*
X268047D01*
X224450Y520865D02*
X278178D01*
X235827Y517322D02*
X276033D01*
X236827Y513778D02*
X275015D01*
X224409Y524408D02*
X273946D01*
X224409Y527951D02*
X271196D01*
X223837Y531495D02*
X270895D01*
X258608Y510235D02*
X270791D01*
X259252Y503148D02*
X268415D01*
X259252Y506692D02*
X268046D01*
X223343Y535038D02*
X267061D01*
X219177Y538581D02*
X263518D01*
X240147Y510235D02*
X248478D01*
X243691Y506692D02*
X247738D01*
X192283Y538581D02*
X217044D01*
X155819Y535038D02*
X201163D01*
X155807Y531495D02*
X200622D01*
X158354Y527951D02*
X189515D01*
X158072Y524408D02*
X185680D01*
X156395Y520865D02*
X182136D01*
X196306Y552755D02*
X212354D01*
X223765Y609448D02*
X271461D01*
X223485Y605904D02*
X265804D01*
X244685Y648424D02*
X271436D01*
X243330Y644881D02*
X270536D01*
X235430Y634251D02*
X248720D01*
X232802Y641337D02*
X248606D01*
X235251Y637794D02*
X248467D01*
X233831Y630707D02*
X242089D01*
X264071Y669684D02*
X359055D01*
X326466Y666140D02*
X329302D01*
X303776D02*
X305413D01*
X271056D02*
X283493D01*
X271126Y662597D02*
X283402D01*
X216809Y616534D02*
X224213D01*
X220548Y612991D02*
X223745D01*
X221422Y630707D02*
X226011D01*
X220445Y641337D02*
X227041D01*
X204566D02*
X215776D01*
X205270Y630707D02*
X214799D01*
X206883Y637794D02*
X213173D01*
X206960Y634251D02*
X213034D01*
X166600Y669684D02*
X245322D01*
X213041Y659054D02*
X228394D01*
X212949Y666140D02*
X228375D01*
X213923Y662597D02*
X228346D01*
X135363Y655510D02*
X197937D01*
X137833Y659054D02*
X193180D01*
X166178Y666140D02*
X192941D01*
X140342Y662597D02*
X192913D01*
X146570Y666140D02*
X156657D01*
X146907Y669684D02*
X156235D01*
X144685Y552755D02*
X174904D01*
X145547Y556298D02*
X173315D01*
X151787Y559841D02*
X168008D01*
X151927Y563385D02*
X164504D01*
X143330Y549211D02*
X160760D01*
X121654Y535038D02*
X153095D01*
X121654Y545668D02*
X152022D01*
X121654Y542125D02*
X151378D01*
X121654Y538581D02*
X151378D01*
X121654Y531495D02*
X149705D01*
X121694Y520865D02*
X149117D01*
X121654Y524408D02*
X147440D01*
X121654Y527951D02*
X147157D01*
X121654Y549211D02*
X135410D01*
X121654Y556298D02*
X135268D01*
X121654Y552755D02*
X134055D01*
X121654Y559841D02*
X132519D01*
X121654Y563385D02*
X130415D01*
X121707Y566928D02*
X125952D01*
X135096Y577558D02*
X156898D01*
X143454Y581101D02*
X154971D01*
X144267Y588188D02*
X154159D01*
X145093Y591731D02*
X153332D01*
X145103Y584644D02*
X153322D01*
X145126Y595274D02*
X153299D01*
X145046Y598818D02*
X153210D01*
X134591Y574014D02*
X152273D01*
X135219Y570471D02*
X151398D01*
X148288Y566928D02*
X151058D01*
X135869D02*
X145413D01*
X183856Y630707D02*
X188709D01*
X121654Y627164D02*
X187881D01*
X178815Y623621D02*
X187706D01*
X173856Y630707D02*
X179136D01*
X121654Y623621D02*
X173940D01*
X121654Y612991D02*
X173276D01*
X121654Y616534D02*
X171617D01*
X121654Y620077D02*
X171196D01*
X163856Y630707D02*
X169136D01*
X153856D02*
X159136D01*
X143856D02*
X149136D01*
X133856D02*
X139136D01*
X121654D02*
X129136D01*
X121654Y644881D02*
X126772D01*
X121846Y648424D02*
X126672D01*
X121654Y641337D02*
X126666D01*
X121654Y637794D02*
X126109D01*
X121654Y634251D02*
X126033D01*
X123070Y609448D02*
X124174D01*
X425958Y624014D02*
X432677D01*
X429548Y627558D02*
X431869D01*
X359587Y620471D02*
X428024D01*
X358712Y613385D02*
X425380D01*
X358875Y616928D02*
X425199D01*
X357414Y624014D02*
X367179D01*
X351140Y627558D02*
X365945D01*
X348990Y631101D02*
X364637D01*
X302756Y425589D02*
X342126D01*
X302756Y422046D02*
X342126D01*
X302756Y418503D02*
X342126D01*
X302756Y414959D02*
X342126D01*
X302756Y411416D02*
X342126D01*
X302756Y407873D02*
X342126D01*
X302756Y404329D02*
X342126D01*
X302756Y400786D02*
X342126D01*
X302756Y397243D02*
X342126D01*
X302756Y393699D02*
X342126D01*
X302756Y390156D02*
X342126D01*
X302756Y386613D02*
X342126D01*
X321012Y383070D02*
X342126D01*
X322244Y379526D02*
X342126D01*
X321010Y375983D02*
X342126D01*
X319867Y372440D02*
X342126D01*
X322121Y368896D02*
X342126D01*
X321732Y365353D02*
X342126D01*
X321473Y361810D02*
X339494D01*
X322143Y358266D02*
X325523D01*
X302756Y429133D02*
X318257D01*
X302756Y432676D02*
X314580D01*
X308524Y372440D02*
X313204D01*
X302756Y375983D02*
X312061D01*
X302756Y383070D02*
X312058D01*
X302756Y379526D02*
X310827D01*
X303869Y372440D02*
X305649D01*
X303151Y319290D02*
X316456D01*
X302756Y322833D02*
X316262D01*
X302756Y337007D02*
X315749D01*
X302756Y333463D02*
X311161D01*
X302756Y340550D02*
X308638D01*
X302756Y326377D02*
X307662D01*
X302756Y329920D02*
X307522D01*
X302756Y344093D02*
X307283D01*
X338091Y542518D02*
X342126D01*
X309231Y538975D02*
X342126D01*
X308729Y535432D02*
X342126D01*
X333190Y531888D02*
X342126D01*
X338082Y528345D02*
X342126D01*
X338081Y524802D02*
X342126D01*
X324172Y521259D02*
X342126D01*
X322874Y517715D02*
X342126D01*
X316034Y514172D02*
X342126D01*
X313803Y510629D02*
X342126D01*
X278421Y507085D02*
X342126D01*
X278212Y503542D02*
X342126D01*
X334445Y499999D02*
X342126D01*
X335419Y496455D02*
X342126D01*
X333777Y492912D02*
X342126D01*
X323995Y489369D02*
X342126D01*
X337945Y485825D02*
X342126D01*
X338091Y482282D02*
X342126D01*
X338089Y478739D02*
X342126D01*
X321836Y475196D02*
X342126D01*
X320105Y471652D02*
X342126D01*
X309949Y468109D02*
X342126D01*
X311373Y464566D02*
X342126D01*
X310322Y461022D02*
X342126D01*
X338483Y546062D02*
X341733D01*
X323842Y524802D02*
X328060D01*
X314209Y542518D02*
X326476D01*
X315157Y546062D02*
X326084D01*
X310431Y457479D02*
X318289D01*
X311364Y453936D02*
X317579D01*
X298077Y482282D02*
X316262D01*
X276887Y471652D02*
X312966D01*
X297161Y478739D02*
X312253D01*
X278484Y475196D02*
X311235D01*
X284674Y499999D02*
X298625D01*
X286403Y496455D02*
X297648D01*
X277909Y478739D02*
X287406D01*
X281798Y482282D02*
X286482D01*
X319491Y592125D02*
X326699D01*
X323395Y588581D02*
X326444D01*
X302033Y595668D02*
X323156D01*
X293978Y592125D02*
X313579D01*
X297571Y577951D02*
X310904D01*
X297203Y581495D02*
X309726D01*
X282348Y588581D02*
X309724D01*
X293564Y585038D02*
X308858D01*
X283227D02*
X290688D01*
X279796Y602755D02*
X285374D01*
X273658Y599211D02*
X285014D01*
X279603Y592125D02*
X285008D01*
X186277Y595668D02*
X283661D01*
X185657Y592125D02*
X274728D01*
X186465Y588581D02*
X271983D01*
X268367Y585038D02*
X271104D01*
X222374D02*
X265491D01*
X224548Y581495D02*
X261852D01*
X223835Y577951D02*
X261484D01*
X211932Y574408D02*
X242256D01*
X211915Y570865D02*
X238712D01*
X186257Y599211D02*
X202438D01*
X186465Y585038D02*
X198896D01*
X259529Y471652D02*
X269193D01*
X260695Y478739D02*
X268426D01*
X261206Y475196D02*
X267972D01*
X235827Y521259D02*
X278000D01*
X235827Y517715D02*
X276352D01*
X236652Y514172D02*
X275000D01*
X224450Y524802D02*
X273299D01*
X258203Y510629D02*
X271790D01*
X224409Y528345D02*
X271122D01*
X223780Y531888D02*
X270577D01*
X259252Y503542D02*
X268292D01*
X259252Y507085D02*
X268152D01*
X223153Y535432D02*
X266668D01*
X218834Y538975D02*
X263124D01*
X239754Y510629D02*
X248884D01*
X243297Y507085D02*
X247823D01*
X192472Y538975D02*
X217386D01*
X188568Y535432D02*
X201381D01*
X155275Y531888D02*
X200570D01*
X158245Y528345D02*
X190518D01*
X158421Y524802D02*
X186073D01*
X178568Y535432D02*
X185605D01*
X168568D02*
X175605D01*
X161059D02*
X165605D01*
X196245Y553148D02*
X212415D01*
X224119Y609841D02*
X271336D01*
X223337Y606298D02*
X266460D01*
X244671Y648818D02*
X271481D01*
X243650Y645274D02*
X271019D01*
X235522Y634644D02*
X249014D01*
X232762Y641731D02*
X248781D01*
X235082Y638188D02*
X248362D01*
X233851Y631101D02*
X242305D01*
X163500Y673621D02*
X359687D01*
X263650Y670077D02*
X359055D01*
X350159Y666534D02*
X358025D01*
X326172D02*
X329618D01*
X303207D02*
X305982D01*
X270999D02*
X283579D01*
X271066Y662991D02*
X283462D01*
X166494Y670077D02*
X246350D01*
X212648Y666534D02*
X228461D01*
X213013Y659448D02*
X228422D01*
X213937Y662991D02*
X228346D01*
X135487Y655904D02*
X197813D01*
X138083Y659448D02*
X193029D01*
X166354Y666534D02*
X193028D01*
X143087Y662991D02*
X192913D01*
X144038Y673621D02*
X159335D01*
X146725Y666534D02*
X156481D01*
X146803Y670077D02*
X156341D01*
X217112Y616928D02*
X224212D01*
X219548Y613385D02*
X224005D01*
X221441Y631101D02*
X225992D01*
X220405Y641731D02*
X227081D01*
X204526D02*
X215816D01*
X205289Y631101D02*
X214779D01*
X206729Y638188D02*
X213348D01*
X207064Y634644D02*
X212928D01*
X144671Y553148D02*
X174964D01*
X148279Y556692D02*
X173189D01*
X151926Y560235D02*
X167613D01*
X151839Y563778D02*
X164247D01*
X143650Y549605D02*
X161153D01*
X121654Y535432D02*
X152850D01*
X121654Y546062D02*
X152427D01*
X121654Y542518D02*
X151378D01*
X121654Y538975D02*
X151378D01*
X121654Y531888D02*
X150451D01*
X121654Y528345D02*
X147266D01*
X121694Y524802D02*
X147091D01*
X121654Y556692D02*
X135359D01*
X121654Y549605D02*
X135090D01*
X121654Y553148D02*
X134070D01*
X121654Y560235D02*
X132245D01*
X121654Y563778D02*
X130185D01*
X121846Y567322D02*
X125511D01*
X135195Y577951D02*
X157057D01*
X143810Y581495D02*
X154615D01*
X144105Y588581D02*
X154320D01*
X145125Y585038D02*
X153300D01*
X145126Y592125D02*
X153299D01*
X145126Y595668D02*
X153299D01*
X144919Y599211D02*
X153038D01*
X134368Y574408D02*
X152548D01*
X135678Y567322D02*
X151428D01*
X135213Y570865D02*
X151378D01*
X184579Y631101D02*
X188377D01*
X121654Y627558D02*
X188048D01*
X177816Y624014D02*
X187766D01*
X174579Y631101D02*
X178413D01*
X121654Y624014D02*
X174940D01*
X121654Y613385D02*
X173357D01*
X121654Y616928D02*
X171441D01*
X121654Y620471D02*
X171301D01*
X164579Y631101D02*
X168413D01*
X165946Y609841D02*
X167046D01*
X154579Y631101D02*
X158413D01*
X155946Y609841D02*
X157046D01*
X144579Y631101D02*
X148413D01*
X145946Y609841D02*
X147046D01*
X134579Y631101D02*
X138413D01*
X121654D02*
X128413D01*
X121654Y645274D02*
X126772D01*
X121654Y641731D02*
X126719D01*
X122096Y648818D02*
X126491D01*
X121654Y638188D02*
X126237D01*
X121654Y634644D02*
X125928D01*
X122342Y609841D02*
X124902D01*
X424720Y623227D02*
X432677D01*
X376982Y605510D02*
X432677D01*
X428727Y626770D02*
X432506D01*
X377163Y609054D02*
X432189D01*
X359646Y619684D02*
X426898D01*
X374338Y612597D02*
X425754D01*
X358299Y616140D02*
X425044D01*
X361958Y612597D02*
X368969D01*
X358293Y623227D02*
X367936D01*
X351320Y626770D02*
X366000D01*
X349293Y630314D02*
X365676D01*
X302756Y424802D02*
X346063D01*
X302756Y421259D02*
X346063D01*
X302756Y417715D02*
X346063D01*
X302756Y414172D02*
X346063D01*
X302756Y410629D02*
X346063D01*
X302756Y407085D02*
X346063D01*
X302756Y403542D02*
X346063D01*
X302756Y399999D02*
X346063D01*
X302756Y396455D02*
X346063D01*
X302756Y392912D02*
X346063D01*
X302756Y389369D02*
X346063D01*
X302756Y385825D02*
X346063D01*
X321536Y382282D02*
X346063D01*
X322189Y378739D02*
X346063D01*
X320253Y375196D02*
X346063D01*
X320671Y371652D02*
X346063D01*
X322231Y368109D02*
X346063D01*
X321296Y364566D02*
X346063D01*
X302756Y428345D02*
X344166D01*
X321718Y361022D02*
X328926D01*
X323124Y357479D02*
X324477D01*
X302756Y431888D02*
X315367D01*
X302756Y375196D02*
X312818D01*
X310171Y371652D02*
X312346D01*
X302756Y382282D02*
X311535D01*
X302756Y378739D02*
X310881D01*
X306190Y314959D02*
X317193D01*
X303907Y318503D02*
X316850D01*
X302756Y322046D02*
X316752D01*
X302756Y336219D02*
X315627D01*
X302756Y339762D02*
X309519D01*
X302756Y332676D02*
X309515D01*
X302756Y325589D02*
X308055D01*
X302756Y343306D02*
X307342D01*
X302756Y329133D02*
X307342D01*
X338089Y541731D02*
X346063D01*
X308832Y538188D02*
X346063D01*
X308770Y534644D02*
X346063D01*
X335857Y531101D02*
X346063D01*
X338294Y527558D02*
X346063D01*
X337728Y524014D02*
X346063D01*
X324049Y520471D02*
X346063D01*
X322257Y516928D02*
X346063D01*
X315199Y513385D02*
X346063D01*
X312922Y509841D02*
X346063D01*
X278485Y506298D02*
X346063D01*
X278268Y502755D02*
X346063D01*
X334902Y499211D02*
X346063D01*
X335305Y495668D02*
X346063D01*
X332758Y492125D02*
X346063D01*
X330359Y488581D02*
X346063D01*
X338089Y485038D02*
X346063D01*
X338091Y481495D02*
X346063D01*
X337944Y477951D02*
X346063D01*
X321717Y474408D02*
X346063D01*
X318968Y470865D02*
X346063D01*
X310532Y467322D02*
X346063D01*
X311351Y463778D02*
X346063D01*
X309746Y460235D02*
X346063D01*
X338130Y545274D02*
X346023D01*
X324407Y488581D02*
X329951D01*
X323956Y524014D02*
X328413D01*
X326447Y492125D02*
X326703D01*
X313729Y541731D02*
X326478D01*
X314803Y545274D02*
X326437D01*
X310867Y456692D02*
X317897D01*
X311257Y453148D02*
X317742D01*
X298077Y481495D02*
X315986D01*
X276915Y470865D02*
X314103D01*
X299898Y485038D02*
X313834D01*
X296551Y477951D02*
X311774D01*
X278304Y474408D02*
X311354D01*
X285385Y499211D02*
X298169D01*
X286572Y495668D02*
X297483D01*
X278166Y477951D02*
X288016D01*
X280833Y481495D02*
X286490D01*
X320926Y591337D02*
X327368D01*
X301246Y594881D02*
X323944D01*
X292066Y591337D02*
X312145D01*
X297383Y580707D02*
X310197D01*
X298294Y577164D02*
X310182D01*
X282466Y587794D02*
X309369D01*
X295209Y584251D02*
X308899D01*
X275131Y601967D02*
X286004D01*
X280737Y591337D02*
X285897D01*
X273178Y598424D02*
X284431D01*
X186009Y594881D02*
X283720D01*
X186184Y591337D02*
X273593D01*
X186465Y587794D02*
X271865D01*
X223254Y584251D02*
X263846D01*
X224606Y580707D02*
X261673D01*
X223252Y577164D02*
X260761D01*
X211933Y573621D02*
X241468D01*
X212124Y570077D02*
X237925D01*
X186316Y598424D02*
X203048D01*
X186630Y584251D02*
X197661D01*
X195937Y601967D02*
X197055D01*
X259210Y470865D02*
X268940D01*
X260711Y477951D02*
X268291D01*
X261087Y474408D02*
X268152D01*
X224574Y520471D02*
X278263D01*
X235827Y516928D02*
X275769D01*
X237040Y513385D02*
X275059D01*
X224409Y524014D02*
X274949D01*
X224409Y527558D02*
X271302D01*
X223980Y531101D02*
X271080D01*
X258884Y509841D02*
X270145D01*
X259252Y502755D02*
X268455D01*
X259252Y506298D02*
X267972D01*
X223498Y534644D02*
X267455D01*
X219867Y538188D02*
X263912D01*
X219438Y541731D02*
X260296D01*
X240541Y509841D02*
X248203D01*
X244084Y506298D02*
X247561D01*
X206537Y541731D02*
X216782D01*
X206966Y538188D02*
X216354D01*
X195216Y541731D02*
X206061D01*
X192085Y538188D02*
X205633D01*
X155273Y534644D02*
X200982D01*
X156361Y531101D02*
X200701D01*
X158434Y527558D02*
X188896D01*
X157891Y524014D02*
X185286D01*
X156520Y520471D02*
X181743D01*
X196454Y552361D02*
X212206D01*
X223558Y609054D02*
X271500D01*
X223748Y605510D02*
X264875D01*
X244670Y648030D02*
X271412D01*
X262481Y644487D02*
X267105D01*
X254981D02*
X259605D01*
X242939D02*
X252105D01*
X235386Y637400D02*
X248607D01*
X232927Y640944D02*
X248467D01*
X235308Y633857D02*
X248186D01*
X233892Y630314D02*
X241913D01*
X264437Y669290D02*
X359055D01*
X265573Y672833D02*
X357158D01*
X327001Y665747D02*
X328768D01*
X271063D02*
X283465D01*
X271274Y662203D02*
X283253D01*
X216633Y616140D02*
X224213D01*
X221198Y612597D02*
X223291D01*
X221482Y630314D02*
X225951D01*
X220570Y640944D02*
X226916D01*
X204691D02*
X215651D01*
X205330Y630314D02*
X214738D01*
X206825Y633857D02*
X213174D01*
X207006Y637400D02*
X213034D01*
X166674Y669290D02*
X244928D01*
X168235Y672833D02*
X243820D01*
X213199Y665747D02*
X228346D01*
X213880Y662203D02*
X228346D01*
X213153Y658660D02*
X228283D01*
X135323Y655117D02*
X197977D01*
X137570Y658660D02*
X193409D01*
X165961Y665747D02*
X192913D01*
X139701Y662203D02*
X192913D01*
X146380Y665747D02*
X156873D01*
X146981Y669290D02*
X156161D01*
X148546Y672833D02*
X154599D01*
X144670Y552361D02*
X174756D01*
X145013Y555904D02*
X173482D01*
X151611Y559448D02*
X168519D01*
X152033Y562991D02*
X164857D01*
X160714Y566534D02*
X163057D01*
X142939Y548818D02*
X160366D01*
X125591Y534644D02*
X153231D01*
X125591Y545274D02*
X151746D01*
X125591Y541731D02*
X151378D01*
X125591Y538188D02*
X151378D01*
X125591Y531101D02*
X149151D01*
X125755Y520471D02*
X148992D01*
X125591Y524014D02*
X147621D01*
X125591Y527558D02*
X147078D01*
X125591Y548818D02*
X135801D01*
X125591Y555904D02*
X135082D01*
X125591Y552361D02*
X134070D01*
X125591Y559448D02*
X132898D01*
X125591Y562991D02*
X130643D01*
X134931Y577164D02*
X156621D01*
X143021Y580707D02*
X155404D01*
X144487Y587794D02*
X153939D01*
X145001Y591337D02*
X153424D01*
X145054Y584251D02*
X153371D01*
X145126Y594881D02*
X153299D01*
X145113Y598424D02*
X153290D01*
X134777Y573621D02*
X152044D01*
X135270Y570077D02*
X151444D01*
X149417Y566534D02*
X150228D01*
X136098D02*
X144413D01*
X182645Y630314D02*
X188903D01*
X125591Y626770D02*
X187755D01*
X179472Y623227D02*
X187557D01*
X172645Y630314D02*
X180347D01*
X125591Y623227D02*
X173295D01*
X126358Y612597D02*
X173103D01*
X125591Y616140D02*
X171834D01*
X125591Y619684D02*
X171121D01*
X162645Y630314D02*
X170347D01*
X152645D02*
X160347D01*
X142645D02*
X150347D01*
X132645D02*
X140347D01*
X125863D02*
X130347D01*
G54D30*
X155118Y229449D02*
X156858Y233614D01*
X153378*
X155118Y229449*
X154921Y229921D02*
X155315D01*
X154510Y230906D02*
X155727D01*
X154099Y231890D02*
X156138D01*
X153687Y232874D02*
X156549D01*
X154134Y231805D02*
Y233614D01*
X155118Y229449D02*
Y233614D01*
X156102Y231805D02*
Y233614D01*
X192857Y168560D02*
X194980Y162992D01*
X198425Y166437*
X192857Y168560*
X194605Y163976D02*
X195965D01*
X194230Y164961D02*
X196949D01*
X193854Y165945D02*
X197933D01*
X193479Y166929D02*
X197134D01*
X193104Y167913D02*
X194553D01*
X193504Y166864D02*
Y168313D01*
X194488Y164283D02*
Y167938D01*
X195472Y163484D02*
Y167563D01*
X196457Y164469D02*
Y167188D01*
X197441Y165453D02*
Y166812D01*
X198425Y166437D02*
X198425D01*
X166929Y229449D02*
X168669Y233614D01*
X165189*
X166929Y229449*
X166732Y229921D02*
X167126D01*
X166321Y230906D02*
X167538D01*
X165910Y231890D02*
X167949D01*
X165498Y232874D02*
X168360D01*
X165945Y231805D02*
Y233614D01*
X166929Y229449D02*
Y233614D01*
X167913Y231805D02*
Y233614D01*
X237795Y170866D02*
X235359Y165428D01*
X240231*
X237795Y170866*
X235591Y165945D02*
X240000D01*
X236032Y166929D02*
X239559D01*
X236473Y167913D02*
X239118D01*
X236914Y168898D02*
X238677D01*
X237354Y169882D02*
X238236D01*
X237795Y170866D02*
X237795D01*
X235827Y165428D02*
Y166471D01*
X236811Y165428D02*
Y168669D01*
X237795Y165428D02*
Y170866D01*
X238780Y165428D02*
Y168669D01*
X239764Y165428D02*
Y166471D01*
X257795Y200394D02*
X259535Y204559D01*
X256055*
X257795Y200394*
X257795*
X257384Y201378D02*
X258206D01*
X256973Y202362D02*
X258618D01*
X256562Y203346D02*
X259029D01*
X256151Y204331D02*
X259440D01*
X256496Y203504D02*
Y204559D01*
X257480Y201148D02*
Y204559D01*
X258465Y201996D02*
Y204559D01*
X259449Y204352D02*
Y204559D01*
X257480Y170866D02*
X255044Y165428D01*
X259916*
X257480Y170866*
X255276Y165945D02*
X259685D01*
X255717Y166929D02*
X259244D01*
X256158Y167913D02*
X258803D01*
X256599Y168898D02*
X258362D01*
X257039Y169882D02*
X257921D01*
X257480Y170866D02*
X257480D01*
X255512Y165428D02*
Y166471D01*
X256496Y165428D02*
Y168669D01*
X257480Y165428D02*
Y170866D01*
X258465Y165428D02*
Y168669D01*
X259449Y165428D02*
Y166471D01*
X267795Y200394D02*
X269535Y204559D01*
X266055*
X267795Y200394*
X267795*
X267384Y201378D02*
X268206D01*
X266973Y202362D02*
X268618D01*
X266562Y203346D02*
X269029D01*
X266151Y204331D02*
X269440D01*
X266339Y203881D02*
Y204559D01*
X267323Y201525D02*
Y204559D01*
X268307Y201619D02*
Y204559D01*
X269291Y203975D02*
Y204559D01*
X263619Y210475D02*
X265335Y206299D01*
X267795Y208760*
X263619Y210475*
X264930Y207283D02*
X266319D01*
X264526Y208268D02*
X267303D01*
X264122Y209252D02*
X266597D01*
X263718Y210236D02*
X264201D01*
X264370Y208648D02*
Y210167D01*
X265354Y206319D02*
Y209762D01*
X266339Y207303D02*
Y209358D01*
X267323Y208287D02*
Y208954D01*
X253619Y210475D02*
X255335Y206299D01*
X257795Y208760*
X253619Y210475*
X254930Y207283D02*
X256319D01*
X254526Y208268D02*
X257303D01*
X254122Y209252D02*
X256597D01*
X253718Y210236D02*
X254201D01*
X254528Y208264D02*
Y210102D01*
X255512Y206476D02*
Y209698D01*
X256496Y207461D02*
Y209293D01*
X257480Y208445D02*
Y208889D01*
X267795Y237500D02*
X266736Y236079D01*
X268855*
X267795Y237500*
X267282Y236811D02*
X268309D01*
X267323Y236079D02*
Y236866D01*
X268307Y236079D02*
Y236814D01*
X181240Y259586D02*
X179200Y259102D01*
X180755Y257546*
X181240Y259586*
X179837Y258465D02*
X180973D01*
X180662Y259449D02*
X181207D01*
X179724Y258577D02*
Y259226D01*
X180709Y257593D02*
Y259460D01*
X224803Y260630D02*
X228460Y259168D01*
Y262091*
X224803Y260630*
X227758Y259449D02*
X228460D01*
X225296Y260433D02*
X228460D01*
X226773Y261417D02*
X228460D01*
X225000Y260551D02*
Y260709D01*
X225984Y260158D02*
Y261102D01*
X226969Y259764D02*
Y261495D01*
X227953Y259371D02*
Y261889D01*
X173622Y257087D02*
X177279Y255625D01*
Y258548*
X173622Y257087*
X175100Y256496D02*
X177279D01*
X174607Y257480D02*
X177279D01*
X177069Y258465D02*
X177279D01*
X173819Y257008D02*
Y257165D01*
X174803Y256615D02*
Y257559D01*
X175787Y256221D02*
Y257952D01*
X176772Y255828D02*
Y258346D01*
X159294Y261179D02*
X157579Y265354D01*
X155118Y262894*
X159294Y261179*
X158713Y261417D02*
X159196D01*
X156316Y262402D02*
X158792D01*
X155610Y263386D02*
X158387D01*
X156594Y264370D02*
X157983D01*
X157579Y265354D02*
X157579D01*
X156102Y262489D02*
Y263878D01*
X157087Y262085D02*
Y264862D01*
X158071Y261681D02*
Y264156D01*
X159055Y261277D02*
Y261760D01*
X216142Y265354D02*
X219798Y263893D01*
Y266816*
X216142Y265354*
X218604Y264370D02*
X219798D01*
X216142Y265354D02*
X219798D01*
X218604Y266339D02*
X219798D01*
X216142Y265354D02*
X216142D01*
X217126Y264961D02*
Y265748D01*
X218110Y264568D02*
Y266141D01*
X219094Y264174D02*
Y266535D01*
X172835Y265354D02*
X168669Y267094D01*
Y263614*
X172835Y265354*
X168669Y264370D02*
X170478D01*
X168669Y265354D02*
X172835D01*
X168669Y266339D02*
X170478D01*
X168898Y263710D02*
Y266999D01*
X169882Y264121D02*
Y266588D01*
X170866Y264532D02*
Y266177D01*
X171850Y264943D02*
Y265765D01*
X172835Y265354D02*
X172835D01*
X149409Y273858D02*
X145117Y275668D01*
Y272049*
X149409Y273858*
X145117Y272244D02*
X145580D01*
X145117Y273228D02*
X147915D01*
X145117Y274213D02*
X148569D01*
X145117Y275197D02*
X146234D01*
X145276Y272116D02*
Y275601D01*
X146260Y272531D02*
Y275186D01*
X147244Y272946D02*
Y274771D01*
X148228Y273360D02*
Y274356D01*
X149213Y273775D02*
Y273941D01*
X226378Y280709D02*
X222721Y282170D01*
Y279247*
X226378Y280709*
X222721Y280118D02*
X224900D01*
X222721Y281102D02*
X225393D01*
X222721Y282087D02*
X222931D01*
X223031Y279371D02*
Y282046D01*
X224016Y279764D02*
Y281653D01*
X225000Y280158D02*
Y281259D01*
X225984Y280551D02*
Y280866D01*
X341339Y274803D02*
X344995Y273342D01*
Y276265*
X341339Y274803*
X342816Y274213D02*
X344995D01*
X342324Y275197D02*
X344995D01*
X344786Y276181D02*
X344995D01*
X342126Y274488D02*
Y275118D01*
X343110Y274095D02*
Y275511D01*
X344094Y273702D02*
Y275905D01*
X280315Y274803D02*
X276658Y276265D01*
Y273342*
X280315Y274803*
X276658Y274213D02*
X278837D01*
X276658Y275197D02*
X279330D01*
X276658Y276181D02*
X276868D01*
X277165Y273544D02*
Y276062D01*
X278150Y273938D02*
Y275669D01*
X279134Y274331D02*
Y275275D01*
X280118Y274724D02*
Y274882D01*
X189176Y304176D02*
X185000Y302461D01*
X187461Y300000*
X189176Y304176*
X186673Y300787D02*
X187784D01*
X185689Y301772D02*
X188188D01*
X185719Y302756D02*
X188593D01*
X188115Y303740D02*
X188997D01*
X185630Y301831D02*
Y302719D01*
X186614Y300846D02*
Y303124D01*
X187598Y300335D02*
Y303528D01*
X188583Y302732D02*
Y303932D01*
X229921Y322346D02*
X231695Y326573D01*
X228148*
X229921Y322346*
X229882Y322441D02*
X229961D01*
X229469Y323425D02*
X230374D01*
X229056Y324409D02*
X230787D01*
X228643Y325394D02*
X231200D01*
X228230Y326378D02*
X231613D01*
X228937Y324692D02*
Y326573D01*
X229921Y322346D02*
Y326573D01*
X230906Y324692D02*
Y326573D01*
X218110Y292224D02*
X216926Y290557D01*
X219294*
X218110Y292224*
X217202Y290945D02*
X219019D01*
X217901Y291929D02*
X218320D01*
X217126Y290557D02*
Y290838D01*
X218110Y290557D02*
Y292224D01*
X219094Y290557D02*
Y290838D01*
X241732Y322346D02*
X243506Y326573D01*
X239959*
X241732Y322346*
X241693Y322441D02*
X241772D01*
X241280Y323425D02*
X242185D01*
X240867Y324409D02*
X242598D01*
X240454Y325394D02*
X243011D01*
X240041Y326378D02*
X243424D01*
X240748Y324692D02*
Y326573D01*
X241732Y322346D02*
Y326573D01*
X242717Y324692D02*
Y326573D01*
X213868Y292589D02*
X215602Y288346D01*
X218110Y290854*
X213868Y292589*
X215345Y288976D02*
X216232D01*
X214942Y289961D02*
X217217D01*
X214540Y290945D02*
X217889D01*
X214137Y291929D02*
X215482D01*
X214173Y291842D02*
Y292464D01*
X215157Y289434D02*
Y292062D01*
X216142Y288886D02*
Y291659D01*
X217126Y289870D02*
Y291257D01*
X218110Y290854D02*
X218110D01*
X179176Y295824D02*
X177461Y300000D01*
X175000Y297539*
X179176Y295824*
X179074Y295866D02*
X179159D01*
X176677Y296850D02*
X178754D01*
X175295Y297835D02*
X178350D01*
X176280Y298819D02*
X177946D01*
X177264Y299803D02*
X177541D01*
X175787Y297216D02*
Y298327D01*
X176772Y296812D02*
Y299311D01*
X177756Y296407D02*
Y299281D01*
X178740Y296003D02*
Y296885D01*
X290945Y305039D02*
X286779Y306779D01*
Y303299*
X290945Y305039*
X286779Y303740D02*
X287834D01*
X286779Y304724D02*
X290191D01*
X286779Y305709D02*
X289343D01*
X286779Y306693D02*
X286986D01*
X287008Y303395D02*
Y306684D01*
X287992Y303806D02*
Y306273D01*
X288976Y304217D02*
Y305862D01*
X289961Y304628D02*
Y305450D01*
X290945Y305039D02*
X290945D01*
X312598Y309055D02*
X316255Y307594D01*
Y310517*
X312598Y309055*
X316046Y307677D02*
X316255D01*
X313583Y308661D02*
X316255D01*
X314076Y309646D02*
X316255D01*
X312598Y309055D02*
X312598D01*
X313583Y308662D02*
Y309449D01*
X314567Y308268D02*
Y309842D01*
X315551Y307875D02*
Y310235D01*
X277224Y301044D02*
X275689Y305039D01*
X273228Y302579*
X277224Y301044*
X275329Y301772D02*
X276944D01*
X273406Y302756D02*
X276566D01*
X274390Y303740D02*
X276188D01*
X275374Y304724D02*
X275810D01*
X274213Y302201D02*
Y303563D01*
X275197Y301823D02*
Y304547D01*
X276181Y301444D02*
Y303758D01*
X277165Y301066D02*
Y301196D01*
X323091Y301044D02*
X326378Y302264D01*
X324311Y304331*
X323091Y301044*
X323361Y301772D02*
X325052D01*
X323727Y302756D02*
X325886D01*
X324092Y303740D02*
X324902D01*
X323425Y301168D02*
Y301944D01*
X324409Y301533D02*
Y304232D01*
X325394Y301898D02*
Y303248D01*
X326378Y302264D02*
X326378D01*
X390621Y301783D02*
X388394Y296727D01*
X392848*
X390621Y301783*
X388448Y296850D02*
X392794D01*
X388882Y297835D02*
X392361D01*
X389315Y298819D02*
X391927D01*
X389749Y299803D02*
X391494D01*
X390183Y300787D02*
X391060D01*
X390616Y301772D02*
X390626D01*
X389370Y296727D02*
Y298943D01*
X390354Y296727D02*
Y301177D01*
X391339Y296727D02*
Y300155D01*
X392323Y296727D02*
Y297920D01*
X137496Y322598D02*
X133269Y324372D01*
Y320825*
X137496Y322598*
X133269Y321457D02*
X134775D01*
X133269Y322441D02*
X137121D01*
X133269Y323425D02*
X135525D01*
X133465Y320907D02*
Y324290D01*
X134449Y321320D02*
Y323877D01*
X135433Y321733D02*
Y323464D01*
X136417Y322146D02*
Y323051D01*
X137402Y322559D02*
Y322638D01*
X263386Y320472D02*
X259729Y321934D01*
Y319011*
X263386Y320472*
X259729Y319488D02*
X260923D01*
X259729Y320472D02*
X263386D01*
X259729Y321457D02*
X260923D01*
X260433Y319292D02*
Y321653D01*
X261417Y319686D02*
Y321259D01*
X262402Y320079D02*
Y320866D01*
X263386Y320472D02*
X263386D01*
X291732Y321654D02*
X295389Y320192D01*
Y323115*
X291732Y321654*
X294687Y320472D02*
X295389D01*
X292225Y321457D02*
X295389D01*
X293702Y322441D02*
X295389D01*
X291929Y321575D02*
Y321732D01*
X292913Y321181D02*
Y322126D01*
X293898Y320788D02*
Y322519D01*
X294882Y320395D02*
Y322912D01*
X320098Y323228D02*
X321560Y326885D01*
X318637*
X320098Y323228*
X320020Y323425D02*
X320177D01*
X319626Y324409D02*
X320571D01*
X319233Y325394D02*
X320964D01*
X318840Y326378D02*
X321357D01*
X319488Y324755D02*
Y326885D01*
X320472Y324164D02*
Y326885D01*
X321457Y326627D02*
Y326885D01*
X383580Y331178D02*
X379961Y329626D01*
X382028Y327559*
X383580Y331178*
X381240Y328346D02*
X382365D01*
X380256Y329331D02*
X382787D01*
X381567Y330315D02*
X383210D01*
X380512Y329075D02*
Y329862D01*
X381496Y328091D02*
Y330284D01*
X382480Y328615D02*
Y330707D01*
X383465Y330910D02*
Y331129D01*
X375896Y358907D02*
X374161Y363150D01*
X371654Y360642*
X375896Y358907*
X373608Y359843D02*
X375514D01*
X371839Y360827D02*
X375111D01*
X372823Y361811D02*
X374709D01*
X373807Y362795D02*
X374306D01*
X372638Y360239D02*
Y361626D01*
X373622Y359837D02*
Y362610D01*
X374606Y359434D02*
Y362062D01*
X375591Y359032D02*
Y359654D01*
X376080Y323940D02*
X374528Y327559D01*
X372461Y325492*
X376080Y323940*
X374985Y324409D02*
X375878D01*
X372690Y325394D02*
X375456D01*
X373346Y326378D02*
X375034D01*
X374331Y327362D02*
X374612D01*
X372638Y325416D02*
Y325669D01*
X373622Y324994D02*
Y326654D01*
X374606Y324572D02*
Y327375D01*
X375591Y324150D02*
Y325081D01*
X159094Y330000D02*
X163260Y328260D01*
Y331740*
X159094Y330000*
X163053Y328346D02*
X163260D01*
X160697Y329331D02*
X163260D01*
X159849Y330315D02*
X163260D01*
X162205Y331299D02*
X163260D01*
X160039Y329605D02*
Y330395D01*
X161024Y329194D02*
Y330806D01*
X162008Y328783D02*
Y331217D01*
X162992Y328372D02*
Y331628D01*
X134646Y338189D02*
X130989Y339651D01*
Y336727*
X134646Y338189*
X130989Y337205D02*
X132183D01*
X130989Y338189D02*
X134646D01*
X130989Y339173D02*
X132183D01*
X131496Y336930D02*
Y339448D01*
X132480Y337323D02*
Y339054D01*
X133465Y337717D02*
Y338661D01*
X134449Y338110D02*
Y338268D01*
X189176Y334176D02*
X185000Y332461D01*
X187461Y330000*
X189176Y334176*
X187146Y330315D02*
X187590D01*
X186161Y331299D02*
X187994D01*
X185177Y332283D02*
X188399D01*
X186965Y333268D02*
X188803D01*
X185630Y331831D02*
Y332719D01*
X186614Y330846D02*
Y333124D01*
X187598Y330335D02*
Y333528D01*
X188583Y332732D02*
Y333932D01*
X212299Y328976D02*
X208073Y330750D01*
Y327203*
X212299Y328976*
X208073Y327362D02*
X208452D01*
X208073Y328346D02*
X210798D01*
X208073Y329331D02*
X211455D01*
X208073Y330315D02*
X209109D01*
X208268Y327285D02*
Y330668D01*
X209252Y327698D02*
Y330255D01*
X210236Y328111D02*
Y329842D01*
X211220Y328524D02*
Y329429D01*
X212205Y328937D02*
Y329016D01*
X273228Y346378D02*
X271488Y342212D01*
X274968*
X273228Y346378*
X271863Y343110D02*
X274593D01*
X272275Y344094D02*
X274182D01*
X272686Y345079D02*
X273771D01*
X273097Y346063D02*
X273360D01*
X272244Y342212D02*
Y344022D01*
X273228Y342212D02*
Y346378D01*
X274213Y342212D02*
Y344022D01*
X338189Y357874D02*
X340828Y356969D01*
Y358779*
X338189Y357874*
X340828*
X338189D02*
X338189D01*
X339173Y357537D02*
Y358212D01*
X340157Y357199D02*
Y358549D01*
X339764Y350000D02*
X342402Y349095D01*
Y350905*
X339764Y350000*
X342402*
X340157Y349865D02*
Y350135D01*
X341142Y349527D02*
Y350473D01*
X342126Y349190D02*
Y350810D01*
X316217Y331966D02*
X312598Y330413D01*
X314665Y328346*
X316217Y331966*
X313681Y329331D02*
X315087D01*
X312697Y330315D02*
X315510D01*
X314664Y331299D02*
X315932D01*
X313583Y329429D02*
Y330836D01*
X314567Y328445D02*
Y331258D01*
X315551Y330412D02*
Y331680D01*
X332717Y328346D02*
X329060Y329808D01*
Y326885*
X332717Y328346*
X329060Y327362D02*
X330254D01*
X329060Y328346D02*
X332717D01*
X329060Y329331D02*
X330254D01*
X329331Y326993D02*
Y329700D01*
X330315Y327387D02*
Y329306D01*
X331299Y327780D02*
Y328913D01*
X332283Y328173D02*
Y328520D01*
X355118Y334252D02*
X358775Y332790D01*
Y335714*
X355118Y334252*
X357581Y333268D02*
X358775D01*
X355118Y334252D02*
X358775D01*
X357581Y335236D02*
X358775D01*
X355906Y333937D02*
Y334567D01*
X356890Y333544D02*
Y334960D01*
X357874Y333150D02*
Y335354D01*
X170079Y380315D02*
X166422Y381777D01*
Y378853*
X170079Y380315*
X166422Y379528D02*
X168109D01*
X166422Y380512D02*
X169586D01*
X166422Y381496D02*
X167124D01*
X166929Y379056D02*
Y381574D01*
X167913Y379449D02*
Y381180D01*
X168898Y379843D02*
Y380787D01*
X169882Y380236D02*
Y380394D01*
X185000Y384902D02*
X186773Y388227D01*
X183227*
X185000Y384902*
X184717Y385433D02*
X185283D01*
X184192Y386417D02*
X185808D01*
X183667Y387402D02*
X186333D01*
X183661Y387411D02*
Y388227D01*
X184646Y385566D02*
Y388227D01*
X185630Y386083D02*
Y388227D01*
X186614Y387928D02*
Y388227D01*
X169243Y394243D02*
X165000Y392508D01*
X167508Y390000*
X169243Y394243*
X167154Y390354D02*
X167653D01*
X166169Y391339D02*
X168055D01*
X165185Y392323D02*
X168458D01*
X166955Y393307D02*
X168860D01*
X165945Y391563D02*
Y392894D01*
X166929Y390579D02*
Y393297D01*
X167913Y390992D02*
Y393699D01*
X168898Y393399D02*
Y394102D01*
X179243Y394243D02*
X175000Y392508D01*
X177508Y390000*
X179243Y394243*
X177154Y390354D02*
X177653D01*
X176169Y391339D02*
X178055D01*
X175185Y392323D02*
X178458D01*
X176955Y393307D02*
X178860D01*
X175787Y391720D02*
Y392830D01*
X176772Y390736D02*
Y393232D01*
X177756Y390607D02*
Y393635D01*
X178740Y393014D02*
Y394037D01*
X185000Y409547D02*
X183442Y406904D01*
X186559*
X185000Y409547*
X183550Y407087D02*
X186451D01*
X184130Y408071D02*
X185871D01*
X184710Y409055D02*
X185291D01*
X183661Y406904D02*
Y407276D01*
X184646Y406904D02*
Y408946D01*
X185630Y406904D02*
Y408480D01*
X124724Y439276D02*
X126498Y443502D01*
X122951*
X124724Y439276*
X124602Y439567D02*
X124847D01*
X124189Y440551D02*
X125260D01*
X123776Y441535D02*
X125673D01*
X123363Y442520D02*
X126086D01*
X123622Y441903D02*
Y443502D01*
X124606Y439557D02*
Y443502D01*
X125591Y441340D02*
Y443502D01*
X219000Y390000D02*
X223227Y388227D01*
Y391773*
X219000Y390000*
X222847Y388386D02*
X223227D01*
X220501Y389370D02*
X223227D01*
X219845Y390354D02*
X223227D01*
X222190Y391339D02*
X223227D01*
X219094Y389960D02*
Y390040D01*
X220079Y389547D02*
Y390453D01*
X221063Y389134D02*
Y390866D01*
X222047Y388722D02*
Y391279D01*
X223031Y388309D02*
Y391691D01*
X221000Y390000D02*
X216773Y391773D01*
Y388227*
X221000Y390000*
X216773Y388386D02*
X217153D01*
X216773Y389370D02*
X219499D01*
X216773Y390354D02*
X220155D01*
X216773Y391339D02*
X217810D01*
X217126Y388375D02*
Y391625D01*
X218110Y388788D02*
Y391212D01*
X219094Y389201D02*
Y390799D01*
X220079Y389613D02*
Y390387D01*
Y414961D02*
X216422Y416422D01*
Y413499*
X220079Y414961*
X216422Y413976D02*
X217616D01*
X216422Y414961D02*
X220079D01*
X216422Y415945D02*
X217616D01*
X217126Y413780D02*
Y416141D01*
X218110Y414174D02*
Y415747D01*
X219094Y414567D02*
Y415354D01*
X220079Y414961D02*
X220079D01*
X241732D02*
X245389Y413499D01*
Y416422*
X241732Y414961*
X244195Y413976D02*
X245389D01*
X241732Y414961D02*
X245389D01*
X244195Y415945D02*
X245389D01*
X241732Y414961D02*
X241732D01*
X242717Y414567D02*
Y415354D01*
X243701Y414174D02*
Y415747D01*
X244685Y413780D02*
Y416141D01*
X272524Y428676D02*
X274239Y424500D01*
X276700Y426961*
X272524Y428676*
X274115Y424803D02*
X274543D01*
X273711Y425787D02*
X275527D01*
X273306Y426772D02*
X276511D01*
X272902Y427756D02*
X274764D01*
X273228Y426961D02*
Y428387D01*
X274213Y424565D02*
Y427982D01*
X275197Y425457D02*
Y427578D01*
X276181Y426442D02*
Y427174D01*
X124724Y451276D02*
X122951Y447049D01*
X126498*
X124724Y451276*
X123116Y447441D02*
X126333D01*
X123529Y448425D02*
X125920D01*
X123941Y449409D02*
X125507D01*
X124354Y450394D02*
X125094D01*
X123622Y447049D02*
Y448648D01*
X124606Y447049D02*
Y450994D01*
X125591Y447049D02*
Y449211D01*
X124724Y449276D02*
X126498Y453502D01*
X122951*
X124724Y449276*
X124668Y449409D02*
X124781D01*
X124255Y450394D02*
X125194D01*
X123842Y451378D02*
X125606D01*
X123429Y452362D02*
X126019D01*
X123016Y453346D02*
X126432D01*
X123622Y451903D02*
Y453502D01*
X124606Y449557D02*
Y453502D01*
X125591Y451340D02*
Y453502D01*
X161417Y429921D02*
X157761Y431383D01*
Y428460*
X161417Y429921*
X157761Y428740D02*
X158462D01*
X157761Y429724D02*
X160925D01*
X157761Y430709D02*
X159447D01*
X158071Y428584D02*
Y431259D01*
X159055Y428977D02*
Y430865D01*
X160039Y429370D02*
Y430472D01*
X161024Y429764D02*
Y430079D01*
X170966Y430965D02*
X175000Y432539D01*
X172540Y435000*
X170966Y430965*
X171250Y431693D02*
X172831D01*
X171634Y432677D02*
X174862D01*
X172018Y433661D02*
X173878D01*
X172402Y434646D02*
X172894D01*
X171850Y431310D02*
Y433233D01*
X172835Y431694D02*
Y434705D01*
X173819Y432078D02*
Y433721D01*
X174803Y432462D02*
Y432736D01*
X160724Y455276D02*
X156498Y457049D01*
Y453502*
X160724Y455276*
X156498Y454331D02*
X158472D01*
X156498Y455315D02*
X160631D01*
X156498Y456299D02*
X158285D01*
X157087Y453749D02*
Y456802D01*
X158071Y454162D02*
Y456389D01*
X159055Y454575D02*
Y455976D01*
X160039Y454988D02*
Y455563D01*
X180757Y440757D02*
X185000Y442492D01*
X182492Y445000*
X180757Y440757*
X181076Y441535D02*
X182660D01*
X181478Y442520D02*
X184972D01*
X181880Y443504D02*
X183988D01*
X182283Y444488D02*
X183004D01*
X181693Y441140D02*
Y443045D01*
X182677Y441542D02*
Y444815D01*
X183661Y441945D02*
Y443831D01*
X184646Y442347D02*
Y442846D01*
X195000Y440905D02*
X193260Y436740D01*
X196740*
X195000Y440905*
X193619Y437598D02*
X196382D01*
X194030Y438583D02*
X195970D01*
X194441Y439567D02*
X195559D01*
X194853Y440551D02*
X195148D01*
X193504Y436740D02*
Y437323D01*
X194488Y436740D02*
Y439679D01*
X195472Y436740D02*
Y439775D01*
X196457Y436740D02*
Y437419D01*
X240900Y432500D02*
X245127Y430727D01*
Y434273*
X240900Y432500*
X242824Y431693D02*
X245127D01*
X241322Y432677D02*
X245127D01*
X243668Y433661D02*
X245127D01*
X241732Y432151D02*
Y432849D01*
X242717Y431738D02*
Y433262D01*
X243701Y431325D02*
Y433675D01*
X244685Y430912D02*
Y434088D01*
X230807Y435000D02*
X226740Y436740D01*
Y433260*
X230807Y435000*
X226740Y433661D02*
X227679D01*
X226740Y434646D02*
X229980D01*
X226740Y435630D02*
X229334D01*
X226740Y436614D02*
X227034D01*
X226969Y433357D02*
Y436642D01*
X227953Y433778D02*
Y436221D01*
X228937Y434200D02*
Y435800D01*
X229921Y434621D02*
Y435379D01*
X252900Y432500D02*
X248673Y434273D01*
Y430727*
X252900Y432500*
X248673Y431693D02*
X250976D01*
X248673Y432677D02*
X252478D01*
X248673Y433661D02*
X250132D01*
X249606Y431118D02*
Y433882D01*
X250591Y431531D02*
Y433469D01*
X251575Y431944D02*
Y433056D01*
X252559Y432357D02*
Y432643D01*
X251200Y432500D02*
X255427Y430727D01*
Y434273*
X251200Y432500*
X253124Y431693D02*
X255427D01*
X251622Y432677D02*
X255427D01*
X253968Y433661D02*
X255427D01*
X251575Y432343D02*
Y432657D01*
X252559Y431930D02*
Y433070D01*
X253543Y431517D02*
Y433483D01*
X254528Y431104D02*
Y433896D01*
X364097Y441263D02*
X367717Y442815D01*
X365650Y444882*
X364097Y441263*
X364214Y441535D02*
X364733D01*
X364637Y442520D02*
X367028D01*
X365059Y443504D02*
X367028D01*
X365481Y444488D02*
X366043D01*
X364764Y441549D02*
Y442816D01*
X365748Y441971D02*
Y444783D01*
X366732Y442393D02*
Y443799D01*
X367717Y442815D02*
X367717D01*
X354724Y447638D02*
X358381Y446176D01*
Y449099*
X354724Y447638*
X357679Y446457D02*
X358381D01*
X355217Y447441D02*
X358381D01*
X356694Y448425D02*
X358381D01*
X354921Y447559D02*
Y447716D01*
X355906Y447166D02*
Y448110D01*
X356890Y446772D02*
Y448503D01*
X357874Y446379D02*
Y448897D01*
X299743Y460257D02*
X298130Y464331D01*
X295669Y461870*
X299743Y460257*
X297310Y461220D02*
X299362D01*
X296004Y462205D02*
X298972D01*
X296988Y463189D02*
X298582D01*
X297972Y464173D02*
X298192D01*
X295866Y461792D02*
Y462067D01*
X296850Y461402D02*
Y463051D01*
X297835Y461013D02*
Y464035D01*
X298819Y460623D02*
Y462591D01*
X361024Y454724D02*
X364680Y453263D01*
Y456186*
X361024Y454724*
X364471Y453346D02*
X364680D01*
X362009Y454331D02*
X364680D01*
X362501Y455315D02*
X364680D01*
X361811Y454410D02*
Y455039D01*
X362795Y454016D02*
Y455433D01*
X363780Y453623D02*
Y455826D01*
X327953Y454724D02*
X324296Y456186D01*
Y453263*
X327953Y454724*
X324296Y453346D02*
X324505D01*
X324296Y454331D02*
X326968D01*
X324296Y455315D02*
X326475D01*
X324409Y453308D02*
Y456141D01*
X325394Y453702D02*
Y455747D01*
X326378Y454095D02*
Y455354D01*
X327362Y454488D02*
Y454960D01*
X165000Y479000D02*
X166773Y483227D01*
X163227*
X165000Y479000*
X164613Y479921D02*
X165387D01*
X164201Y480906D02*
X165799D01*
X163788Y481890D02*
X166212D01*
X163375Y482874D02*
X166625D01*
X163976Y481440D02*
Y483227D01*
X164961Y479094D02*
Y483227D01*
X165945Y481252D02*
Y483227D01*
X175000Y479000D02*
X176773Y483227D01*
X173227*
X175000Y479000*
X174613Y479921D02*
X175387D01*
X174201Y480906D02*
X175799D01*
X173788Y481890D02*
X176212D01*
X173375Y482874D02*
X176625D01*
X173819Y481815D02*
Y483227D01*
X174803Y479469D02*
Y483227D01*
X175787Y480877D02*
Y483227D01*
X176772Y483223D02*
Y483227D01*
X330768Y528877D02*
X331102Y527205D01*
X332441Y528543*
X330768Y528877*
X330914Y528150D02*
X332047D01*
X331299Y527402D02*
Y528771D01*
X332283Y528386D02*
Y528575D01*
X171181Y540945D02*
X175347Y539205D01*
Y542685*
X171181Y540945*
X173538Y539961D02*
X175347D01*
X171181Y540945D02*
X175347D01*
X173538Y541929D02*
X175347D01*
X171850Y540665D02*
Y541224D01*
X172835Y540254D02*
Y541636D01*
X173819Y539843D02*
Y542047D01*
X174803Y539432D02*
Y542458D01*
X172992Y540945D02*
X168827Y542685D01*
Y539205*
X172992Y540945*
X168827Y539961D02*
X170636D01*
X168827Y540945D02*
X172992D01*
X168827Y541929D02*
X170636D01*
X168898Y539235D02*
Y542655D01*
X169882Y539646D02*
Y542244D01*
X170866Y540057D02*
Y541833D01*
X171850Y540468D02*
Y541422D01*
X172835Y540879D02*
Y541011D01*
X289294Y537871D02*
X290846Y534252D01*
X292913Y536319*
X289294Y537871*
X290509Y535039D02*
X291634D01*
X290087Y536024D02*
X292618D01*
X289665Y537008D02*
X291307D01*
X289961Y536317D02*
Y537585D01*
X290945Y534350D02*
Y537163D01*
X291929Y535335D02*
Y536741D01*
X292913Y536319D02*
X292913D01*
X132494Y566272D02*
X131906Y570747D01*
X128897Y568999*
X132494Y566272*
X132146Y566535D02*
X132459D01*
X130848Y567520D02*
X132330D01*
X129550Y568504D02*
X132201D01*
X129738Y569488D02*
X132071D01*
X131433Y570472D02*
X131942D01*
X129528Y568521D02*
Y569366D01*
X130512Y567775D02*
Y569938D01*
X131496Y567028D02*
Y570509D01*
X132480Y566282D02*
Y566375D01*
X331496Y569685D02*
X335153Y568224D01*
X335153D02*
Y571147D01*
X331496Y569685*
X334451Y568504D02*
X335153D01*
X331989Y569488D02*
X335153D01*
X333466Y570472D02*
X335153D01*
X332283Y569370D02*
Y570000D01*
X333268Y568977D02*
Y570393D01*
X334252Y568583D02*
Y570787D01*
X167087Y566831D02*
X168416Y568874D01*
X165757*
X167087Y566831*
X166638Y567520D02*
X167535D01*
X165998Y568504D02*
X168175D01*
X165945Y568586D02*
Y568874D01*
X166929Y567073D02*
Y568874D01*
X167913Y568102D02*
Y568874D01*
X180846Y567186D02*
X179547Y570945D01*
X177087Y568484*
X180846Y567186*
X179879Y567520D02*
X180730D01*
X177106Y568504D02*
X180390D01*
X178091Y569488D02*
X180050D01*
X179075Y570472D02*
X179710D01*
X177756Y568253D02*
Y569154D01*
X178740Y567913D02*
Y570138D01*
X179724Y567573D02*
Y570432D01*
X180709Y567233D02*
Y567583D01*
X181102Y557874D02*
X178464Y558779D01*
Y556969*
X181102Y557874*
X178464Y557677D02*
X180528D01*
X178464Y558661D02*
X178806D01*
X178740Y557064D02*
Y558684D01*
X179724Y557402D02*
Y558347D01*
X180709Y557739D02*
Y558009D01*
X344094Y560630D02*
X347751Y559168D01*
Y562091*
X344094Y560630*
X346557Y559646D02*
X347751D01*
X344094Y560630D02*
X347751D01*
X346557Y561614D02*
X347751D01*
X344094Y560630D02*
X344094D01*
X345079Y560237D02*
Y561023D01*
X346063Y559843D02*
Y561417D01*
X347047Y559450D02*
Y561810D01*
X364491Y578029D02*
X366043Y574409D01*
X368110Y576476*
X364491Y578029*
X365621Y575394D02*
X367028D01*
X365199Y576378D02*
X368012D01*
X364777Y577362D02*
X366045D01*
X364764Y577393D02*
Y577912D01*
X365748Y575098D02*
Y577489D01*
X366732Y575098D02*
Y577067D01*
X367717Y576083D02*
Y576645D01*
X209843Y601575D02*
X207204Y602480D01*
Y600670*
X209843Y601575*
X207204Y600984D02*
X208120D01*
X207204Y601969D02*
X208694D01*
X207283Y600697D02*
Y602452D01*
X208268Y601035D02*
Y602115D01*
X209252Y601372D02*
Y601777D01*
X263780Y601575D02*
X267436Y600113D01*
Y603036*
X263780Y601575*
X265257Y600984D02*
X267436D01*
X264765Y601969D02*
X267436D01*
X267227Y602953D02*
X267436D01*
X264370Y601339D02*
Y601811D01*
X265354Y600945D02*
Y602204D01*
X266339Y600552D02*
Y602598D01*
X267323Y600159D02*
Y602991D01*
X205672Y610081D02*
X201496Y608366D01*
X203957Y605906*
X205672Y610081*
X202972Y606890D02*
X204361D01*
X201988Y607874D02*
X204765D01*
X202694Y608858D02*
X205170D01*
X205090Y609843D02*
X205574D01*
X202362Y607500D02*
Y608722D01*
X203346Y606516D02*
Y609126D01*
X204331Y606816D02*
Y609530D01*
X205315Y609212D02*
Y609935D01*
X294094Y595669D02*
X290438Y597131D01*
Y594208*
X294094Y595669*
X290438Y595079D02*
X292617D01*
X290438Y596063D02*
X293110D01*
X290438Y597047D02*
X290647D01*
X290945Y594410D02*
Y596928D01*
X291929Y594804D02*
Y596535D01*
X292913Y595197D02*
Y596141D01*
X293898Y595591D02*
Y595748D01*
X181496Y618898D02*
X177839Y620359D01*
Y617436*
X181496Y618898*
X177839Y617717D02*
X178541D01*
X177839Y618701D02*
X181004D01*
X177839Y619685D02*
X179526D01*
X178740Y617796D02*
Y619999D01*
X179724Y618190D02*
Y619606D01*
X180709Y618583D02*
Y619212D01*
X196063Y618898D02*
X199720Y617436D01*
Y620359*
X196063Y618898*
X199018Y617717D02*
X199720D01*
X196555Y618701D02*
X199720D01*
X198033Y619685D02*
X199720D01*
X196457Y618740D02*
Y619055D01*
X197441Y618347D02*
Y619448D01*
X198425Y617953D02*
Y619842D01*
X199409Y617560D02*
Y620235D01*
X341634Y625984D02*
X344601Y624523D01*
Y627446*
X341634Y625984*
X344432Y624606D02*
X344601D01*
X342433Y625591D02*
X344601D01*
X342833Y626575D02*
X344601D01*
X342126Y625742D02*
Y626227D01*
X343110Y625257D02*
Y626711D01*
X344094Y624772D02*
Y627196D01*
X195669Y625591D02*
X193031Y626495D01*
Y624686*
X195669Y625591*
X193031D02*
X195669D01*
X193504Y624848D02*
Y626333D01*
X194488Y625186D02*
Y625996D01*
X195472Y625523D02*
Y625658D01*
X349213Y619685D02*
X352869Y618224D01*
X352869D02*
Y621147D01*
X349213Y619685*
X351675Y618701D02*
X352869D01*
X349213Y619685D02*
X352869D01*
X351675Y620669D02*
X352869D01*
X350000Y619370D02*
Y620000D01*
X350984Y618977D02*
Y620393D01*
X351969Y618583D02*
Y620787D01*
X283858Y628346D02*
X287515Y626885D01*
Y629808*
X283858Y628346*
X285828Y627559D02*
X287515D01*
X284351Y628543D02*
X287515D01*
X286813Y629528D02*
X287515D01*
X284055Y628268D02*
Y628425D01*
X285039Y627874D02*
Y628819D01*
X286024Y627481D02*
Y629212D01*
X287008Y627088D02*
Y629605D01*
X251969Y628346D02*
X248312Y629808D01*
Y626885*
X251969Y628346*
X248312Y627559D02*
X249999D01*
X248312Y628543D02*
X251476D01*
X248312Y629528D02*
X249014D01*
X248622Y627009D02*
Y629684D01*
X249606Y627402D02*
Y629291D01*
X250591Y627796D02*
Y628897D01*
X251575Y628189D02*
Y628504D01*
X283165Y647874D02*
X278939Y649647D01*
Y646101*
X283165Y647874*
X278939Y646260D02*
X279318D01*
X278939Y647244D02*
X281664D01*
X278939Y648228D02*
X282321D01*
X278939Y649213D02*
X279975D01*
X279134Y646183D02*
Y649565D01*
X280118Y646596D02*
Y649153D01*
X281102Y647008D02*
Y648740D01*
X282087Y647421D02*
Y648327D01*
X283071Y647834D02*
Y647914D01*
X300000Y631102D02*
X296343Y632564D01*
Y629641*
X300000Y631102*
X296343Y630512D02*
X298523D01*
X296343Y631496D02*
X299015D01*
X296343Y632480D02*
X296553D01*
X296850Y629843D02*
Y632361D01*
X297835Y630237D02*
Y631968D01*
X298819Y630630D02*
Y631574D01*
X299803Y631024D02*
Y631181D01*
X319291Y631102D02*
X322948Y629641D01*
Y632564*
X319291Y631102*
X320769Y630512D02*
X322948D01*
X320276Y631496D02*
X322948D01*
X322739Y632480D02*
X322948D01*
X319488Y631024D02*
Y631181D01*
X320472Y630630D02*
Y631574D01*
X321457Y630237D02*
Y631968D01*
X322441Y629843D02*
Y632361D01*
X296545Y652117D02*
X298280Y647874D01*
X300787Y650382*
X296545Y652117*
X298135Y648228D02*
X298634D01*
X297732Y649213D02*
X299618D01*
X297330Y650197D02*
X300602D01*
X296927Y651181D02*
X298833D01*
X296850Y651369D02*
Y651992D01*
X297835Y648962D02*
Y651589D01*
X298819Y648413D02*
Y651187D01*
X299803Y649398D02*
Y650784D01*
X300787Y650382D02*
X300787D01*
X340463Y652117D02*
X336220Y650382D01*
X338728Y647874*
X340463Y652117*
X338374Y648228D02*
X338873D01*
X337390Y649213D02*
X339276D01*
X336406Y650197D02*
X339678D01*
X338175Y651181D02*
X340081D01*
X337205Y649398D02*
Y650784D01*
X338189Y648413D02*
Y651187D01*
X339173Y648962D02*
Y651589D01*
X340157Y651369D02*
Y651992D01*
X354724Y636614D02*
X358381Y635153D01*
Y638076*
X354724Y636614*
X357679Y635433D02*
X358381D01*
X355217Y636417D02*
X358381D01*
X356694Y637402D02*
X358381D01*
X354921Y636535D02*
Y636693D01*
X355906Y636142D02*
Y637086D01*
X356890Y635749D02*
Y637480D01*
X357874Y635355D02*
Y637873D01*
X311417Y636614D02*
X307761Y638076D01*
Y635153*
X311417Y636614*
X307761Y635433D02*
X308462D01*
X307761Y636417D02*
X310925D01*
X307761Y637402D02*
X309447D01*
X308661Y635513D02*
Y637716D01*
X309646Y635906D02*
Y637322D01*
X310630Y636299D02*
Y636929D01*
X354031Y647874D02*
X349805Y649647D01*
Y646101*
X354031Y647874*
X349805Y646260D02*
X350184D01*
X349805Y647244D02*
X352530D01*
X349805Y648228D02*
X353187D01*
X349805Y649213D02*
X350841D01*
X350000Y646183D02*
Y649565D01*
X350984Y646596D02*
Y649153D01*
X351969Y647008D02*
Y648740D01*
X352953Y647421D02*
Y648327D01*
X353937Y647834D02*
Y647914D01*
X377559Y647244D02*
X381216Y645783D01*
Y648706*
X377559Y647244*
X380022Y646260D02*
X381216D01*
X377559Y647244D02*
X381216D01*
X380022Y648228D02*
X381216D01*
X377559Y647244D02*
X377559D01*
X378543Y646851D02*
Y647638D01*
X379528Y646457D02*
Y648031D01*
X380512Y646064D02*
Y648424D01*
X365843Y647244D02*
X361616Y649017D01*
Y645471*
X365843Y647244*
X361616Y646260D02*
X363497D01*
X361616Y647244D02*
X365843D01*
X361616Y648228D02*
X363497D01*
X361811Y645553D02*
Y648936D01*
X362795Y645966D02*
Y648523D01*
X363780Y646379D02*
Y648110D01*
X364764Y646792D02*
Y647697D01*
X365748Y647204D02*
Y647284D01*
X247756Y666890D02*
X243858Y665256D01*
X246122Y662992*
X247756Y666890*
X245138Y663976D02*
X246535D01*
X244154Y664961D02*
X246947D01*
X245502Y665945D02*
X247360D01*
X244685Y664429D02*
Y665602D01*
X245669Y663445D02*
Y666015D01*
X246654Y664260D02*
Y666428D01*
X247638Y666608D02*
Y666840D01*
X338270Y658816D02*
X336555Y662992D01*
X334094Y660531*
X334094D02*
X338270Y658816D01*
X337689Y659055D02*
X338172D01*
X335293Y660039D02*
X337768D01*
X334587Y661024D02*
X337364D01*
X335571Y662008D02*
X336959D01*
X336555Y662992D02*
X336555D01*
X334252Y660467D02*
Y660689D01*
X335236Y660063D02*
Y661673D01*
X336220Y659658D02*
Y662657D01*
X337205Y659254D02*
Y661411D01*
X338189Y658850D02*
Y659014D01*
X178740Y162992D02*
Y166535D01*
X168110Y177165*
Y212205*
X155118Y225197*
Y235354*
X198425Y162992D02*
X177953Y183465D01*
Y215748*
X166929Y226772*
Y235354*
X237795Y162992D02*
Y175669D01*
X257795Y195669*
Y206299*
X257480Y162992D02*
Y183386D01*
X267795Y193701*
Y206299*
X252362Y221732*
X234252*
X222913Y233071*
Y236929*
X222047Y237795*
X257795Y206299D02*
X247165Y216929D01*
X220079*
X210236Y226772*
Y237795*
X131496Y233858D02*
X143307D01*
X178740D02*
X190551D01*
X267795D02*
Y238976D01*
X272441Y243622*
X294803*
X294488Y243701*
X166929Y265354D02*
Y270079D01*
X162598Y274409*
X178740Y257087D02*
X182283Y260630D01*
X229921*
X178740Y257087D02*
X163386D01*
X155118Y265354*
X221260D02*
X166929D01*
X143307Y273858D02*
X162047D01*
X162598Y274409*
X221260Y280709D02*
X237402D01*
X241732Y285039*
Y288346*
X346457Y274803D02*
X275197D01*
X185000Y300000D02*
X191339Y306339D01*
X216535*
X229921Y319724*
Y328346*
X218110Y288346D02*
Y293701D01*
X241732Y317323*
Y328346*
X218110Y288346D02*
X212362Y294094D01*
X180906*
X175000Y300000*
X285039Y305039D02*
X307087D01*
X311102Y309055*
X317717*
X322047Y300000D02*
X278268D01*
X273228Y305039*
X322047Y300000D02*
X326378Y304331D01*
X390621Y294500D02*
Y311721D01*
X392700Y313800*
X147244Y322441D02*
X147087Y322598D01*
X131496*
X258268Y320472D02*
X273228D01*
X285039D02*
X285433Y320866D01*
Y321654*
X296850*
X340500Y313800D02*
X324802D01*
X320098Y318504*
Y328346*
X364961Y327559D02*
Y331890D01*
X368898Y335827*
X376378*
X380354Y339803*
Y343701*
X379961Y327559D02*
X386220Y333819D01*
Y348583*
X371654Y363150*
X392700Y313800D02*
X386240D01*
X379548Y320492*
X379528*
X372461Y327559*
X165000Y330000D02*
X147559D01*
X140945Y338189*
X129528*
X185000Y330000D02*
X190551Y335551D01*
X202362*
X206299Y328976D02*
Y331614D01*
X202362Y335551*
X218110Y328346D02*
X217480Y328976D01*
X206299*
X273228Y340472D02*
Y348425D01*
X277756Y352953*
X324803*
X329724Y357874*
X341732*
X285039Y340472D02*
X285827Y341260D01*
Y345669*
X290157Y350000*
X343307*
X312598Y328346D02*
X319685Y335433D01*
X321654*
X327598Y341378*
Y344094*
Y328346D02*
X335433D01*
X341339Y334252*
X360236*
X164961Y380315D02*
X181890D01*
X185000Y383425*
Y390000*
X165000D02*
X173031Y398031D01*
X229528*
X233858Y402362*
X258268*
X175000Y390000D02*
X180709Y395709D01*
X232677*
X236575Y399606*
X185000Y405000D02*
Y411024D01*
X181890Y414134*
X140157*
X124724Y429567*
Y445276*
X225000Y390000D02*
X215000D01*
X267600Y392100D02*
Y393030D01*
X258268Y402362*
X257200Y392500D02*
Y393194D01*
X250787Y399606*
X236575*
X214961Y414961D02*
X246850D01*
X276700Y424500D02*
X269100Y432100D01*
X267600*
X124724Y445276D02*
Y455276D01*
X156299Y429921D02*
X169922D01*
X175000Y435000*
X165000Y445000D02*
X164724Y445276D01*
X154724*
X175000Y445000D02*
Y449567D01*
X169291Y455276*
X154724*
X175000Y435000D02*
X175000D01*
X185000Y445000*
X195000Y435000D02*
Y445630D01*
X194488Y446142*
X241732Y447638D02*
X238189D01*
X246900Y432500D02*
X234783D01*
X232283Y435000*
X225000*
X246900Y432500D02*
X257200D01*
X362992Y440157D02*
X330315D01*
X326772Y443701*
X300787*
X300591Y443898*
X300197*
X296457Y447638*
X296063*
Y453937*
X295669Y454331*
X362992Y440157D02*
X367717Y444882D01*
X359843Y447638D02*
X304724D01*
X300787Y451575*
Y459213*
X295669Y464331*
X366142Y454724D02*
X322835D01*
X165000Y475984D02*
Y485000D01*
X175000Y475984D02*
Y485000D01*
X296457Y524016D02*
X279921D01*
X275591Y528346*
X276378Y529134*
X296457Y524016D02*
X302362Y529921D01*
X329724*
X333071Y526575D02*
X329724Y529921D01*
X157087Y540945D02*
X164173Y548031D01*
X187087Y540945D02*
X189764D01*
X194094Y545276*
X177087Y540945D02*
X167087D01*
X285433Y531496D02*
Y530315D01*
X281194Y535120*
X271573*
X261417Y545276*
X194094*
X292913Y534252D02*
X287992Y539173D01*
X274606*
X265748Y548031*
X164173*
X146850Y561811D02*
X146772Y561890D01*
X135039*
X129528Y571378*
X170236Y562205D02*
X243701D01*
X250347Y568851*
Y569685*
X336614*
X170236Y562205D02*
X167087Y565354D01*
Y570945*
X181890Y565748D02*
X238189D01*
X246063Y573622*
X317323*
X321260Y577559*
X181890Y565748D02*
Y566142D01*
X177087Y570945*
X177559Y557874D02*
X185433D01*
X189567Y558858*
X245669*
Y559055*
X253150Y566535*
X330315*
X349213Y560630D02*
X336220D01*
X330315Y566535*
X347244Y577165D02*
X346850Y577559D01*
X321260*
X368110Y574409D02*
X357283Y585236D01*
X338189*
X337778Y585639*
X323418Y600000*
X321260*
X206299Y601575D02*
X268898D01*
X201496Y605906D02*
X217717Y622126D01*
X236614*
X288976Y595669D02*
X297441D01*
X301772Y600000*
X321260*
X176378Y618898D02*
X201181D01*
X242913Y623228D02*
X337402D01*
X340157Y625984*
X346063*
X242913Y623228D02*
X240551Y625591D01*
X192126*
X354331Y619685D02*
X239055D01*
X236614Y622126*
X288976Y628346D02*
X246850D01*
X288976Y647244D02*
X288346Y647874D01*
X277165*
X294882Y631102D02*
X324409D01*
X312598Y647244D02*
Y650000D01*
X304724Y657874*
X238976*
X233858Y662992*
X300787Y647874D02*
X294488Y654173D01*
X204331*
X198661Y659843*
Y662756*
X198425Y662992*
X336220Y647874D02*
X341732Y653386D01*
X368740*
X368898Y653543*
X359843Y636614D02*
X306299D01*
X359843Y647244D02*
X359213Y647874D01*
X348031*
X382677Y647244D02*
X359843D01*
X243858Y662992D02*
X249370Y668504D01*
X265354Y662992D02*
Y663780D01*
X260630Y668504*
X249370*
X363780Y662992D02*
X344094D01*
X378976Y657323D02*
X339764D01*
X334094Y662992*
X378976Y657323D02*
X379134Y657480D01*
G54D31*
X215945Y197795D02*
X220447Y196195D01*
Y199396*
X215945Y197795*
X216388Y197638D02*
X220447D01*
X219931Y199213D02*
X220447D01*
X216535Y197585D02*
Y198005D01*
X218110Y197025D02*
Y198565D01*
X219685Y196465D02*
Y199125D01*
X216339Y197795D02*
X211837Y199396D01*
Y196195*
X216339Y197795*
X211837Y197638D02*
X215896D01*
X211837Y199213D02*
X212353D01*
X213386Y196745D02*
Y198845D01*
X214961Y197305D02*
Y198285D01*
X228150Y197795D02*
X223648Y199396D01*
Y196195*
X228150Y197795*
X223648Y197638D02*
X227707D01*
X223648Y199213D02*
X224164D01*
X224409Y196465D02*
Y199125D01*
X225984Y197025D02*
Y198565D01*
X227559Y197585D02*
Y198005D01*
X277953Y202756D02*
X276700Y198891D01*
X279206*
X277953Y202756*
X276804Y199213D02*
X279101D01*
X277315Y200787D02*
X278591D01*
X277825Y202362D02*
X278080D01*
X277953Y198891D02*
Y202756D01*
X241890Y233858D02*
X246264Y232327D01*
Y235389*
X241890Y233858*
X246264*
X243307Y233362D02*
Y234354D01*
X244882Y232811D02*
Y234906D01*
X222047Y197795D02*
X210236D01*
X248819Y197638D02*
X248661Y197795D01*
X222047*
X247795Y206299D02*
Y209055D01*
X237795*
Y206299D02*
Y209055D01*
X277953Y197638D02*
Y206142D01*
X277795Y206299*
X247795Y233858D02*
X237795D01*
G54D32*
X312360Y375352D02*
X316535Y378346D01*
X315354Y379528*
X312360Y375352*
X313096Y376378D02*
X313791D01*
X312598Y375523D02*
Y375685D01*
X316142Y378064D02*
Y378740D01*
X322441Y379528D02*
X317371Y380363D01*
Y378692*
X322441Y379528*
X317371Y379921D02*
X320051D01*
X319685Y379074D02*
Y379982D01*
X375871Y603426D02*
X372835Y607571D01*
X371665Y606378*
X375871Y603426*
X371974Y606693D02*
X373478D01*
X372835Y605557D02*
Y607571D01*
X342220Y607874D02*
X337089Y608743D01*
Y607005*
X342220Y607874*
X337402Y607058D02*
Y608690D01*
X340945Y607658D02*
Y608090D01*
X342031Y607874D02*
X347163Y607005D01*
Y608743*
X342031Y607874*
X344488Y607458D02*
Y608290D01*
X352147Y603758D02*
X349260Y607874D01*
X348031Y606646*
X348031D02*
X352147Y603758D01*
X348079Y606693D02*
X350088D01*
X351575Y604160D02*
Y604574D01*
X235827Y635748D02*
X230756Y636583D01*
Y634913*
X235827Y635748*
X230756Y635039D02*
X231524D01*
X231102Y634970D02*
Y636526D01*
X234646Y635553D02*
Y635943D01*
X277795Y206299D02*
X287795D01*
X277795Y233858D02*
X287795D01*
X312598Y344094D02*
X312205Y344488D01*
X291339*
X307087Y367323D02*
Y371260D01*
X308268*
X316535Y379528*
X377559*
X377953Y379921*
X316535Y475591D02*
X255906D01*
X273118*
X273228Y475701*
Y475984*
Y505512D02*
X253543D01*
X277165Y587402D02*
X300394D01*
X308268Y595276*
X329528Y584252D02*
Y586417D01*
X320669Y595276*
X308268*
X405904Y584675D02*
X395276D01*
X387824Y592126*
X387402*
X371654Y607559*
X277165Y607874D02*
X276772Y608268D01*
X218110*
X336220Y607874D02*
X348031D01*
X371654Y600000D02*
X355906D01*
X348031Y607874*
X371654Y600000D02*
Y607559D01*
X161496Y627953D02*
X141496D01*
Y635906*
X161496Y627953D02*
Y635906D01*
X229921Y635748D02*
X229843Y635827D01*
X218110*
X229921Y635748D02*
X253543D01*
Y639370*
X208425Y662992D02*
Y671260D01*
X191339*
X208425Y662992D02*
Y671260D01*
X141339Y668425D02*
X141417Y668504D01*
X161417*
X188583*
X191339Y671260*
X161417Y668504D02*
X188583D01*
X191339Y671260*
X208425*
X147244Y322441D03*
X343307Y350000D03*
X341732Y357874D03*
X177559Y557874D03*
X206299Y601575D03*
X192126Y625591D03*
X368898Y653543D03*
G54D34*
X149034Y426199D02*
X147085Y424250D01*
X141517Y426199D02*
X143466Y424250D01*
X149034Y418683D02*
X147085Y420631D01*
X135648Y292341D02*
X133699Y290392D01*
X149034Y479742D02*
X147085Y477794D01*
X141517Y479742D02*
X143466Y477794D01*
X141517Y472226D02*
X143466Y474175D01*
X149034Y472226D02*
X147085Y474175D01*
X186793Y250179D02*
X188742Y252127D01*
X194309Y250179D02*
X192361Y252127D01*
X198640Y353758D02*
X196691Y351810D01*
X198640Y346242D02*
X196691Y348190D01*
X289979Y408089D02*
X288030Y406140D01*
X282462Y408089D02*
X284411Y406140D01*
X282462Y400572D02*
X284411Y402521D01*
X289979Y400572D02*
X288030Y402521D01*
X261239Y410451D02*
X259290Y408502D01*
X253722Y410451D02*
X255671Y408502D01*
X261239Y402935D02*
X259290Y404883D01*
X261239Y426199D02*
X259290Y424250D01*
X253722Y418683D02*
X255671Y420631D01*
X261239Y418683D02*
X259290Y420631D01*
X253722Y426199D02*
X255671Y424250D01*
X188798Y426199D02*
X186849Y424250D01*
X188798Y418683D02*
X186849Y420631D01*
X181281Y426199D02*
X183230Y424250D01*
X181281Y418683D02*
X183230Y420631D01*
X188404Y375412D02*
X186455Y373463D01*
X180887Y375412D02*
X182836Y373463D01*
X180887Y367895D02*
X182836Y369844D01*
X188404Y367895D02*
X186455Y369844D01*
X228168Y363601D02*
X226219Y361652D01*
X220651Y363601D02*
X222600Y361652D01*
X220651Y356084D02*
X222600Y358033D01*
X228168Y356084D02*
X226219Y358033D01*
X312777Y479349D02*
X314726Y477400D01*
X312777Y471832D02*
X314726Y473781D01*
X320294Y471832D02*
X318345Y473781D01*
X143128Y556514D02*
X141180Y554565D01*
X135612Y556514D02*
X137561Y554565D01*
X135612Y548998D02*
X137561Y550946D01*
X143128Y548998D02*
X141180Y550946D01*
X280924Y591160D02*
X278975Y589211D01*
X273407Y591160D02*
X275356Y589211D01*
X325769Y588010D02*
X327718Y586061D01*
X310845Y371081D02*
X308896Y369132D01*
X303328Y371081D02*
X305277Y369132D01*
X165176Y672262D02*
X163227Y670313D01*
X157659Y672262D02*
X159608Y670313D01*
X157659Y664746D02*
X159608Y666694D01*
X165176Y664746D02*
X163227Y666694D01*
X221868Y612026D02*
X219920Y610077D01*
X269470Y509270D02*
X271419Y507321D01*
X269470Y501754D02*
X271419Y503702D01*
X276987Y501754D02*
X275038Y503702D01*
X276987Y479742D02*
X275038Y477794D01*
X276987Y472226D02*
X275038Y474175D01*
X269470Y479742D02*
X271419Y477794D01*
X269470Y472226D02*
X271419Y474175D01*
X259664Y479349D02*
X257715Y477400D01*
X259664Y471832D02*
X257715Y473781D01*
X221868Y639585D02*
X219920Y637636D01*
X214352Y639585D02*
X216301Y637636D01*
X214352Y632069D02*
X216301Y634017D01*
X221868Y632069D02*
X219920Y634017D01*
G54D35*
X100000Y100000D02*
X454331D01*
Y690551*
X100000*
Y100000*
G54D36*
X131496Y605906D03*
G74*
X0Y0D02*
M02*
