*
*
G04 PADS VX.2.4 Build Number: 11282995 generated Gerber (RS-274-X) file*
G04 PC Version=2.1*
*
%IN "gs100Terminal.pcb"*%
*
%MOIN*%
*
%FSLAX35Y35*%
*
*
*
*
G04 PC Standard Apertures*
*
*
G04 Thermal Relief Aperture macro.*
%AMTER*
1,1,$1,0,0*
1,0,$1-$2,0,0*
21,0,$3,$4,0,0,45*
21,0,$3,$4,0,0,135*
%
*
*
G04 Annular Aperture macro.*
%AMANN*
1,1,$1,0,0*
1,0,$2,0,0*
%
*
*
G04 Odd Aperture macro.*
%AMODD*
1,1,$1,0,0*
1,0,$1-0.005,0,0*
%
*
*
G04 PC Custom Aperture Macros*
*
*
*
*
*
*
G04 PC Aperture Table*
*
%ADD010C,0.001*%
%ADD011R,0.05906X0.05906*%
%ADD012C,0.05906*%
%ADD013C,0.06*%
%ADD014R,0.06102X0.06102*%
%ADD015C,0.06102*%
%ADD016R,0.11024X0.11024*%
%ADD017C,0.11024*%
%ADD018R,0.05512X0.05512*%
%ADD019C,0.05512*%
%ADD020C,0.27559*%
%ADD021R,0.06X0.06*%
%ADD022C,0.07874*%
%ADD023C,0.1*%
%ADD024C,0.08858*%
%ADD025C,0.07283*%
%ADD026C,0.05118*%
%ADD027R,0.17323X0.3937*%
%ADD028C,0.09843*%
%ADD029C,0.03937*%
%ADD030C,0.00984*%
%ADD031C,0.01575*%
%ADD032C,0.03543*%
%ADD033C,0.01969*%
%ADD034C,0.015*%
%ADD035C,0.01*%
*
*
*
*
G04 PC Circuitry*
G04 Layer Name gs100Terminal.pcb - circuitry*
%LPD*%
*
*
G04 PC Custom Flashes*
G04 Layer Name gs100Terminal.pcb - flashes*
%LPD*%
*
*
G04 PC Circuitry*
G04 Layer Name gs100Terminal.pcb - circuitry*
%LPD*%
*
G54D10*
G54D11*
G01X245669Y454331D03*
X165000Y405000D03*
Y300000D03*
X430709Y635433D03*
X229921Y615748D03*
X253543Y505512D03*
X276378Y555787D03*
X131496Y605906D03*
X210000Y520000D03*
X129528Y581378D03*
X265354Y662992D03*
X320472D03*
X344094D03*
X157087Y540945D03*
X237795Y233858D03*
X273228Y320472D03*
X285039D03*
X237795Y206299D03*
X273228Y285039D03*
X285039D03*
X265354Y261417D03*
G54D12*
X245669Y464331D03*
X255669Y454331D03*
Y464331D03*
X265669Y454331D03*
Y464331D03*
X275669Y454331D03*
Y464331D03*
X285669Y454331D03*
Y464331D03*
X295669Y454331D03*
Y464331D03*
X305669Y454331D03*
Y464331D03*
X175000Y405000D03*
X185000D03*
X195000D03*
X205000D03*
X215000D03*
X225000D03*
Y435000D03*
X215000D03*
X205000D03*
X195000D03*
X185000D03*
X175000D03*
X165000D03*
X175000Y300000D03*
X185000D03*
X195000D03*
Y330000D03*
X185000D03*
X175000D03*
X165000D03*
X166929Y265354D03*
Y235354D03*
X155118Y265354D03*
Y235354D03*
X215000Y475000D03*
Y455000D03*
X276700Y424500D03*
Y404500D03*
X316535Y379528D03*
X286535D03*
X430709Y615433D03*
X229921Y635748D03*
X253543Y485512D03*
X371654Y627559D03*
Y607559D03*
X276378Y545787D03*
X218110Y552756D03*
Y532756D03*
X141339Y648425D03*
Y668425D03*
X141496Y605906D03*
X151496D03*
X161496D03*
X171496D03*
X181496D03*
X191496D03*
X201496D03*
Y635906D03*
X191496D03*
X181496D03*
X171496D03*
X161496D03*
X151496D03*
X141496D03*
X131496D03*
X155118Y322441D03*
Y302441D03*
X195000Y380000D03*
Y360000D03*
X145276Y351969D03*
Y371969D03*
X316535Y367717D03*
X286535D03*
X210000Y510000D03*
X194488Y466142D03*
Y446142D03*
X195000Y495000D03*
Y515000D03*
X206299Y253543D03*
Y273543D03*
X129528Y571378D03*
X255354Y662992D03*
X310472D03*
X334094D03*
X167087Y540945D03*
X177087D03*
X187087D03*
Y570945D03*
X177087D03*
X167087D03*
X157087D03*
X247795Y233858D03*
X257795D03*
X267795D03*
X277795D03*
X287795D03*
X273228Y330472D03*
Y340472D03*
X285039Y330472D03*
Y340472D03*
X247795Y206299D03*
X257795D03*
X267795D03*
X277795D03*
X287795D03*
X273228Y295039D03*
Y305039D03*
X285039Y295039D03*
Y305039D03*
X275354Y261417D03*
X285354D03*
X151181Y218110D03*
X131181D03*
X131496Y206299D03*
X151496D03*
G54D13*
X241732Y328346D03*
Y288346D03*
X218110Y328346D03*
Y288346D03*
X229921Y328346D03*
Y288346D03*
X206299Y288976D03*
Y328976D03*
X215000Y350000D03*
Y390000D03*
X225000Y350000D03*
Y390000D03*
X204331Y446457D03*
Y486457D03*
X246900Y432500D03*
Y392500D03*
X152756Y486614D03*
Y526614D03*
X175000Y390000D03*
Y350000D03*
X257200Y392500D03*
Y432500D03*
X165000Y390000D03*
Y350000D03*
X267600Y432100D03*
Y392100D03*
X185000Y350000D03*
Y390000D03*
X131496Y322598D03*
Y312598D03*
Y302598D03*
X185000Y485000D03*
Y445000D03*
X127953Y504882D03*
Y494882D03*
Y484882D03*
X175000Y485000D03*
Y445000D03*
X165000Y485000D03*
Y445000D03*
X300787Y607874D03*
Y647874D03*
X206299Y572441D03*
Y532441D03*
X336220Y607874D03*
Y647874D03*
X180709Y597126D03*
X159055Y585157D03*
X288976Y647244D03*
Y607244D03*
X312598Y647244D03*
Y607244D03*
X277165Y607874D03*
Y647874D03*
X359843Y647244D03*
Y607244D03*
X324409Y647244D03*
Y607244D03*
X348031Y607874D03*
Y647874D03*
X359843Y403150D03*
Y363150D03*
X371654Y403150D03*
Y363150D03*
X139370Y585157D03*
X154724Y455276D03*
X124724D03*
Y445276D03*
G54D14*
X143307Y233858D03*
X190551D03*
X131496D03*
X178740D03*
X332283Y544882D03*
Y481890D03*
X210236Y237795D03*
X222047D03*
X340500Y313800D03*
X392700D03*
G54D15*
X143307Y273858D03*
X190551D03*
X131496D03*
X178740D03*
X292283Y544882D03*
Y481890D03*
X210236Y197795D03*
X222047D03*
X300500Y313800D03*
X352700D03*
G54D16*
X407087Y659055D03*
X430709Y348031D03*
G54D17*
X391181Y659055D03*
X430709Y363937D03*
G54D18*
X363780Y662992D03*
X198425D03*
X233858D03*
X288976D03*
G54D19*
X373780D03*
X208425D03*
X243858D03*
X298976D03*
X303150Y559843D03*
X309843D03*
X316535D03*
X323228D03*
X329921D03*
X303150Y496850D03*
X309843D03*
X316535D03*
X323228D03*
X329921D03*
G54D20*
X120235Y671416D03*
X435196D03*
X120235Y120235D03*
X435196D03*
X120235Y395826D03*
X435196D03*
G54D21*
X180709Y587126D03*
X159055Y595157D03*
X139370D03*
X154724Y445276D03*
G54D22*
X139370Y162992D03*
X159055D03*
X178740D03*
X198425D03*
X218110D03*
X237795D03*
X257480D03*
X277165D03*
X296850D03*
X316535D03*
X336220D03*
X355906D03*
X375591D03*
X395276D03*
X414961D03*
X437400Y433100D03*
X395077D03*
X437400Y584675D03*
X405904D03*
X414961Y623622D02*
Y607114D01*
X437400Y584675*
X414961Y623622D02*
X426772Y635433D01*
X430709*
X407087Y659055D02*
X414567D01*
X414961Y658661*
Y607114*
X437400Y584675*
G54D23*
X430709Y229921D03*
Y317795D03*
G54D24*
Y147244D03*
X438209Y187244D03*
G54D25*
X308800Y294500D03*
X338721D03*
Y215760D03*
X308800Y201980D03*
Y229539D03*
X360700Y294500D03*
X390621D03*
Y215760D03*
X360700Y201980D03*
Y229539D03*
G54D26*
X312598Y328346D03*
X320098D03*
X327598D03*
X312598Y344094D03*
X320098D03*
X327598D03*
X253543Y639370D03*
X261043D03*
X268543D03*
X364961Y327559D03*
X372461D03*
X379961D03*
X365354Y343701D03*
X372854D03*
X380354D03*
X367717Y635433D03*
X375217D03*
X382717D03*
X159055Y196457D03*
X248819Y197638D03*
X277953D03*
X294488Y243701D03*
X190551Y253937D03*
X178740Y257087D03*
X229921Y260630D03*
X221260Y265354D03*
X237795Y261417D03*
X221260Y280709D03*
X275197Y274803D03*
X346457D03*
X125591Y292913D03*
X131890Y288583D03*
X190551D03*
X326378Y304331D03*
X258268Y320472D03*
X296850Y321654D03*
X317717Y309055D03*
X129528Y338189D03*
X155118Y340157D03*
X239764D03*
X291339Y344488D03*
X360236Y334252D03*
X194882Y350000D03*
X224409Y359843D03*
X265354D03*
X307087Y367323D03*
X316535Y359843D03*
X164961Y380315D03*
X184646Y371654D03*
X239764Y379921D03*
X377953D03*
X257480Y406693D03*
X286220Y404331D03*
X145276Y422441D03*
X185039D03*
X214961Y414961D03*
X246850D03*
X257480Y422441D03*
X156299Y429921D03*
X238189Y447638D03*
X250394Y439764D03*
X255512Y447638D03*
X308268Y439370D03*
X359843Y447638D03*
X367717Y444882D03*
X376772Y433071D03*
X212205Y448425D03*
X322835Y454724D03*
X353150Y459843D03*
X366142Y454724D03*
X414961Y464961D03*
X145276Y475984D03*
X273228D03*
X255906Y475591D03*
X316535D03*
X273228Y505512D03*
X281102Y496063D03*
X231890Y511811D03*
X280315Y514173D03*
X309843D03*
X333071Y526575D03*
X292913Y534252D03*
X285433Y531496D03*
X276378Y529134D03*
X309449Y544882D03*
X303543Y536614D03*
X146850Y561811D03*
X139370Y552756D03*
X190945D03*
X303150Y551969D03*
X349213Y560630D03*
X414961Y551575D03*
X219291Y580709D03*
X266929Y579921D03*
X292126D03*
X277165Y587402D03*
X329528Y584252D03*
X336614Y569685D03*
X347244Y577165D03*
X368110Y574409D03*
X268898Y601575D03*
X288976Y595669D03*
X364961Y591732D03*
X176378Y618898D03*
X201181D03*
X218110Y608268D03*
X346063Y625984D03*
X354331Y619685D03*
X218110Y635827D03*
X246850Y628346D03*
X288976D03*
X294882Y631102D03*
X306299Y636614D03*
X324409Y631102D03*
X359843Y636614D03*
X382677Y647244D03*
X239370Y648425D03*
X379134Y657480D03*
X161417Y668504D03*
G54D27*
X256299Y579921D03*
X231890D03*
Y536220D03*
X256299D03*
G54D28*
X316535Y585039D03*
Y522047D03*
G54D29*
X277165Y170866D02*
X275773Y164384D01*
X278557*
X277165Y170866*
X276320Y166929D02*
X278011D01*
X277165Y170866D02*
X277165D01*
Y164384D02*
Y170866D01*
X336220Y168898D02*
X335022Y164554D01*
X337419*
X336220Y168898*
X335677Y166929D02*
X336764D01*
X336220Y164554D02*
Y168898D01*
X385471Y210610D02*
X390621Y214087D01*
X388948Y215760*
X385471Y210610*
X387877Y214173D02*
X390535D01*
X387402Y211913D02*
Y213469D01*
X202601Y269845D02*
X206299Y272559D01*
X205315Y273543*
X202601Y269845*
X205084Y273228D02*
X205630D01*
X206299Y272559D02*
X206299D01*
X131496Y211890D02*
X130800Y206995D01*
X132192*
X131496Y211890*
X131261Y210236D02*
X131731D01*
X131496Y206995D02*
Y211890D01*
Y279961D02*
X130730Y274624D01*
X132262*
X131496Y279961*
X131095Y277165D02*
X131897D01*
X131496Y274624D02*
Y279961D01*
X190551Y267756D02*
X191317Y273093D01*
X189786*
X190551Y267756*
X190331Y269291D02*
X190771D01*
X190551Y267756D02*
Y273093D01*
Y279961D02*
X189786Y274624D01*
X191317*
X190551Y279961*
X190150Y277165D02*
X190952D01*
X190551Y274624D02*
Y279961D01*
X352700Y308406D02*
X353466Y313034D01*
X351934*
X352700Y308406*
X352658Y308661D02*
X352742D01*
X352007Y312598D02*
X353393D01*
X351969Y312828D02*
Y313034D01*
X352700Y319902D02*
X351934Y314566D01*
X353466*
X352700Y319902*
X352217Y316535D02*
X353183D01*
X351969Y314566D02*
Y314803D01*
X141100Y367793D02*
X145276Y370984D01*
X144291Y371969*
X141100Y367793*
X144051Y371654D02*
X144606D01*
X143307Y369480D02*
Y370681D01*
X155118Y328346D02*
X154422Y323137D01*
X155814*
X155118Y328346*
X154592Y324409D02*
X155644D01*
X155118Y328346D02*
X155118D01*
Y323137D02*
Y328346D01*
X185000Y356000D02*
X184271Y350729D01*
X185729*
X185000Y356000*
X184442Y351969D02*
X185558D01*
X184987Y355906D02*
X185013D01*
X195000Y385906D02*
X194304Y380696D01*
X195696*
X195000Y385906*
X194674Y383465D02*
X195326D01*
X194488Y380696D02*
Y382074D01*
X185000Y429094D02*
X185696Y434304D01*
X184304*
X185000Y429094*
X184785Y430709D02*
X185216D01*
X312444Y371808D02*
X315551Y367717D01*
X316535Y368701*
X312444Y371808*
X312561Y371654D02*
X312647D01*
X312598Y371604D02*
Y371691D01*
X316535Y368701D02*
X316535D01*
X190312Y450318D02*
X193504Y446142D01*
X194488Y447126*
X190312Y450318*
X193263Y446457D02*
X193819D01*
X190551Y450005D02*
Y450135D01*
X194488Y447126D02*
X194488D01*
X287968Y486205D02*
X291201Y481890D01*
X292283Y482972*
X287968Y486205*
X288252Y485827D02*
X288473D01*
X288976Y484859D02*
Y485450D01*
X195000Y520906D02*
X194304Y515696D01*
X195696*
X195000Y520906*
X194521Y517323D02*
X195479D01*
X194488Y515696D02*
Y517074D01*
X139370Y579157D02*
X140099Y584428D01*
X138641*
X139370Y579157*
X139210Y580315D02*
X139530D01*
X138665Y584252D02*
X140075D01*
X139370Y579157D02*
Y584428D01*
X187087Y565039D02*
X187783Y570249D01*
X186391*
X187087Y565039*
X186624Y568504D02*
X187549D01*
X186614Y568576D02*
Y570249D01*
X292283Y550984D02*
X291518Y545647D01*
X293049*
X292283Y550984*
X291973Y548819D02*
X292594D01*
X292913Y545647D02*
Y546593D01*
X277165Y162992D02*
Y176772D01*
X288976Y188583*
X316535*
X336220Y208268*
Y213259*
X338721Y215760*
X336220Y162992D02*
Y174803D01*
X348031Y186614*
X371654*
X379528Y194488*
Y204666*
X390621Y215760*
X159055Y196457D02*
X190551D01*
X198425Y204331*
Y265669*
X206299Y273543*
X131181Y218110D02*
X131496Y217795D01*
Y206299*
X123622Y229921D02*
Y273622D01*
X131260*
X131496Y273858*
X123622Y229921D02*
Y218110D01*
X131181*
X237795Y261417D02*
Y233858D01*
Y206299*
X131496Y273858D02*
Y286358D01*
X131890Y288583*
X190551Y273858D02*
Y253937D01*
X131890Y288583D02*
X141339Y298031D01*
Y340157*
X190551Y288583D02*
Y273858D01*
X352700Y313800D02*
Y302500D01*
X360700Y294500*
X352700Y313800D02*
Y460180D01*
X352756Y460236*
X353150Y459843*
X141339Y340157D02*
X135433Y346063D01*
Y362126*
X145276Y371969*
X155118Y340157D02*
Y322441D01*
X118110Y361811D02*
Y296850D01*
X122047Y292913*
X125591*
X118110Y361811D02*
X133485Y377500D01*
X143307Y387322*
Y407087*
X194882Y350000D02*
Y359882D01*
X195000Y360000*
X224409Y359843D02*
X225000Y359252D01*
Y350000*
X265354Y359843D02*
Y261417D01*
X316535Y367717D02*
Y359843D01*
X145276Y371969D02*
Y375591D01*
X151181Y381496*
Y413904*
X184646Y371654D02*
X185000Y371299D01*
Y350000*
X195000Y380000D02*
Y404999D01*
Y405000*
X239764Y379921D02*
Y340157D01*
X286220Y404331D02*
Y379843D01*
X286535Y379528*
X145276Y422441D02*
Y419810D01*
X151181Y413904*
X145276Y422441D02*
Y475984D01*
X257480Y422441D02*
Y406693D01*
X185000Y435000D02*
Y422480D01*
X185039Y422441*
X237008Y440157D02*
Y447638D01*
X238189*
X237008Y440157D02*
X239764Y437402D01*
Y379921*
X255512Y447638D02*
Y452520D01*
X255669Y454331*
X308268Y439370D02*
Y375984D01*
X316535Y367717*
X376772Y433071D02*
Y438976D01*
X377165Y439370*
X185433Y455197D02*
Y466535D01*
X193701Y474803*
X185433Y455197D02*
X194488Y446142D01*
X244882Y453543D02*
Y444882D01*
X245276*
X250394Y439764*
X244882Y453543D02*
X245669Y454331D01*
X115748Y475984D02*
Y434646D01*
X143307Y407087*
X115748Y475984D02*
X124646Y484882D01*
X127953*
X206299Y476220D02*
Y454331D01*
X212205Y448425*
X206299Y476220D02*
X217874Y487795D01*
X188189Y492126D02*
Y501181D01*
X195000Y507992*
Y515000*
X188189Y492126D02*
X193701Y486614D01*
Y474803*
X292283Y481890D02*
X281102Y493071D01*
Y496063*
X309843Y496850D02*
Y514173D01*
X303150Y496850D02*
Y536614D01*
X303543*
X202362Y517323D02*
Y503307D01*
X217874Y487795*
X202362Y517323D02*
X205039Y520000D01*
X210000*
X195000Y515000D02*
Y530315D01*
X197126Y532441*
X206299*
X231890Y511811D02*
Y536220D01*
X280315Y514173D02*
X280709Y513780D01*
Y493465*
X281102Y493071*
X280315Y514173D02*
X280709Y513780D01*
Y493465*
X281102Y493071*
Y496063*
X309843Y514173D02*
Y496850D01*
X309449Y544882D02*
Y559449D01*
X309843Y559843*
X139370Y552756D02*
Y585157D01*
X303150Y551969D02*
X303543D01*
Y536614*
X414961Y551575D02*
Y465748D01*
X187087Y570945D02*
Y556614D01*
X190945Y552756*
X219291Y580709D02*
X231102D01*
X231890Y579921*
X256299D02*
X266929D01*
X292126D02*
X292283Y579764D01*
Y544882*
X364961Y591732D02*
X377165Y579528D01*
Y439370*
X229921Y615748D02*
X239370Y629921D01*
Y648425*
X229921Y615748D02*
X231890Y613780D01*
Y579921*
X150984Y351969D02*
G75*
G03X150984I-5708J0D01*
G01X290945Y434646D02*
G03X288976Y436614I-1969J-0D01*
G01X274893*
G03X273034Y433997I-0J-1968*
G01X273356Y432100D02*
G03X273034Y433997I-5756J-0D01*
G01X273356Y432065D02*
G03Y432100I-5756J35D01*
G01Y432065D02*
G03Y432053I1969J-12D01*
G01X273356*
G03X275677Y430116I1968J-0*
G01X282409Y424500D02*
G03X275677Y430116I-5709J0D01*
G01X270991Y424500D02*
G03X282409I5709J0D01*
G01X270991D02*
Y424508D01*
G03X268660Y426443I-1968J-0*
G01X265099Y426916D02*
G03X268660Y426443I2501J5184D01*
G01X265099Y426916D02*
G03X262416Y424412I-855J-1773D01*
G01X262795Y422441D02*
G03X262416Y424412I-5315J-0D01*
G01X254983Y417749D02*
G03X262795Y422441I2497J4692D01*
G01X254983Y417749D02*
G03X252089Y416012I-925J-1737D01*
G01X252089*
G03X252110Y415728I1969J-0*
G01X252165Y414961D02*
G03X252110Y415728I-5315J-0D01*
G01X251973Y413544D02*
G03X252165Y414961I-5123J1417D01*
G01X251973Y413544D02*
G03X254846Y411309I1897J-525D01*
G01X262795Y406693D02*
G03X254846Y411309I-5315J-0D01*
G01X259157Y401649D02*
G03X262795Y406693I-1677J5044D01*
G01X259157Y401649D02*
G03X257810Y399781I621J-1868D01*
X259121Y397926I1968J0*
G01X261238Y396602D02*
G03X259121Y397926I-4038J-4102D01*
G01X261238Y396602D02*
G03X263889Y396500I1381J1402D01*
G01X270761Y396911D02*
G03X263889Y396500I-3161J-4811D01*
G01X270761Y396911D02*
G03X271024Y396765I1081J1645D01*
X271241Y396558I1462J1317*
G01X263562Y387998D02*
G03X271241Y396558I4038J4102D01*
G01X263562Y387998D02*
G03X260911Y388100I-1381J-1402D01*
G01X253362Y388210D02*
G03X260911Y388100I3838J4290D01*
G01X253362Y388210D02*
G03X250738I-1312J-1467D01*
G01X246570Y386754D02*
G03X250738Y388210I330J5746D01*
G01X246570Y386754D02*
G03X244488Y384788I-113J-1966D01*
G01Y382794*
G03X244648Y382018I1969J0*
G01X245079Y379921D02*
G03X244648Y382018I-5315J0D01*
G01X245079Y379921D02*
X245079D01*
X244648Y377825D02*
G03X245079Y379921I-4884J2096D01*
G01X244648Y377825D02*
G03X244488Y377048I1809J-777D01*
G01Y343030*
G03X244648Y342254I1969J0*
G01X243703Y336589D02*
G03X244648Y342254I-3939J3568D01*
G01X243703Y336589D02*
G03X244288Y333504I1459J-1321D01*
G01X247488Y328346D02*
G03X244288Y333504I-5756J0D01*
G01X237332Y324636D02*
G03X247488Y328346I4400J3710D01*
G01X237332Y324636D02*
G03X234322I-1505J-1269D01*
G01X225521D02*
G03X234322I4400J3710D01*
G01X225521D02*
G03X222511I-1505J-1269D01*
G01X213512Y324884D02*
G03X222511Y324636I4598J3462D01*
G01X213512Y324884D02*
G03X210503Y325044I-1572J-1185D01*
G01X208856Y323820D02*
G03X210503Y325044I-2557J5156D01*
G01X208856Y323820D02*
G03X208339Y320664I875J-1764D01*
G01X208596Y320407*
X209547Y318110D02*
G03X208596Y320407I-3248J0D01*
G01X209547Y318110D02*
Y296026D01*
G03X209701Y295265I1969J0*
G01X210692Y292902*
G03X213935Y292309I1815J762*
G01X222511Y292057D02*
G03X213935Y292309I-4401J-3711D01*
G01X222511Y292057D02*
G03X225521I1505J1269D01*
G01X234322D02*
G03X225521I-4401J-3711D01*
G01X234322D02*
G03X237332I1505J1269D01*
G01X243730Y282948D02*
G03X237332Y292057I-1998J5398D01*
G01X243730Y282948D02*
G03X244414Y279134I684J-1846D01*
G01X249606*
G03X251575Y281102I0J1968*
G01Y365748*
X278858*
G03X280827Y367717I0J1969*
G01X282888Y372108D02*
G03X280827Y367717I3647J-4391D01*
G01X282888Y372108D02*
G03Y375136I-1258J1514D01*
G01X288350Y384940D02*
G03X282888Y375136I-1815J-5412D01*
G01X288350Y384940D02*
G03X290945Y386806I626J1866D01*
G01Y397589*
G03X288232Y399411I-1969J-0*
G01X282898Y400182D02*
G03X288232Y399411I3322J4149D01*
G01X282898Y400182D02*
G03X280393Y400147I-1231J-1536D01*
G01X273567Y399728D02*
G03X280393Y400147I3133J4772D01*
G01X273567Y399728D02*
G03X273304Y399873I-1081J-1646D01*
X273087Y400080I-1462J-1317*
G01X280546Y408719D02*
G03X273087Y400080I-3846J-4219D01*
G01X280546Y408719D02*
G03X283047Y408594I1326J1455D01*
G01X288232Y409251D02*
G03X283047Y408594I-2012J-4920D01*
G01X288232Y409251D02*
G03X290945Y411073I744J1822D01*
G01Y434646*
X253530Y403137D02*
G03X255606Y401720I3950J3556D01*
G01X253530Y403137D02*
G03X250098Y401820I-1463J-1317D01*
G01Y398272*
G03X253375Y396801I1969J0*
G01X255495Y397997D02*
G03X253375Y396801I1705J-5497D01*
G01X255495Y397997D02*
G03X255606Y401720I-584J1881D01*
G01X237422Y284532D02*
G03X239734Y282948I4310J3814D01*
G01X237422Y284532D02*
G03X234133Y283989I-1474J-1305D01*
G01X233323Y282058*
G03X233169Y281296I1815J-762*
G01Y281102*
G03X235138Y279134I1969J0*
G01X239051*
G03X239734Y282948I-0J1968*
G01X246570Y426754D02*
G03X250071Y427697I330J5746D01*
G01X246570Y426754D02*
G03X244488Y424788I-113J-1966D01*
G01Y422233*
G03X246563Y420268I1969J0*
G01X249348Y419652D02*
G03X246563Y420268I-2498J-4691D01*
G01X249348Y419652D02*
G03X252242Y421390I925J1738D01*
G01X252242*
G03X252221Y421674I-1969J-0*
G01X252165Y422441D02*
G03X252221Y421674I5315J-0D01*
G01X252865Y425077D02*
G03X252165Y422441I4615J-2636D01*
G01X252865Y425077D02*
G03X250071Y427697I-1709J977D01*
G01X234880Y342254D02*
G03X237195Y335505I4884J-2097D01*
G01X234880Y342254D02*
G03X235039Y343030I-1809J776D01*
G01Y377048*
G03X234880Y377825I-1968J0*
G01X234449Y379921D02*
G03X234880Y377825I5315J0D01*
G01X234449Y379921D02*
X234449D01*
X234880Y382018D02*
G03X234449Y379921I4884J-2097D01*
G01X234880Y382018D02*
G03X235039Y382794I-1809J776D01*
G01Y434629*
G03X234463Y436021I-1968J0*
G01X234446Y436038*
G03X233054Y436614I-1392J-1392*
G01X232669*
G03X230703Y434736I0J-1968*
G01X221414Y430558D02*
G03X230703Y434736I3586J4442D01*
G01X221414Y430558D02*
G03X218209Y429027I-1237J-1531D01*
G01Y421083*
G03X218349Y420352I1968J-0*
G01X219164Y418313*
G03X219362Y417940I1828J730*
G01X220267Y415268D02*
G03X219362Y417940I-5306J-307D01*
G01X220267Y415268D02*
G03X221419Y413588I1965J113D01*
G01X222375Y412927D02*
G03X221419Y413588I-2296J-2297D01*
G01X222375Y412927D02*
X224029Y411273D01*
G03X225313Y410700I1392J1392*
G01X228004Y400145D02*
G03X225313Y410700I-3004J4855D01*
G01X228004Y400145D02*
G03X227515Y399717I1036J-1674D01*
G01X227297Y399475D02*
G03X227515Y399717I-2297J2297D01*
G01X227297Y399475D02*
X226411Y398590D01*
G03X227089Y395363I1392J-1392*
G01X230756Y390000D02*
G03X227089Y395363I-5756J0D01*
G01X225220Y384248D02*
G03X230756Y390000I-220J5752D01*
G01X225220Y384248D02*
G03X223327Y382281I75J-1967D01*
G01Y379094*
X222375Y376798D02*
G03X223327Y379094I-2296J2296D01*
G01X222375Y376798D02*
X218825Y373247D01*
G03X218248Y371855I1392J-1392*
G01Y365798*
G03X221350Y364188I1969J0*
G01X228727Y356743D02*
G03X221350Y364188I-4318J3100D01*
G01X228727Y356743D02*
G03X228357Y355595I1599J-1148D01*
X228969Y354169I1969J-0*
G01X221274Y345613D02*
G03X228969Y354169I3726J4387D01*
G01X221274Y345613D02*
G03X218726I-1274J-1501D01*
G01X210307Y353333D02*
G03X218726Y345613I4693J-3333D01*
G01X210307Y353333D02*
G03X210517Y353711I-1605J1139D01*
G01X211599Y356288*
G03X211752Y357050I-1816J762*
G01Y374016*
X212703Y376312D02*
G03X211752Y374016I2297J-2296D01*
G01X212703Y376312D02*
X216254Y379863D01*
G03X216831Y381255I-1392J1392*
G01Y382277*
G03X214897Y384245I-1969J-0*
G01X209244Y390000D02*
G03X214897Y384245I5756J0D01*
G01X209999Y392851D02*
G03X209244Y390000I5001J-2851D01*
G01X209999Y392851D02*
G03X206897Y395217I-1710J974D01*
G01X205006Y393326*
G03X204429Y391934I1392J-1392*
G01Y336700*
G03X206373Y334732I1969J0*
G01X210897Y332439D02*
G03X206373Y334732I-4598J-3463D01*
G01X210897Y332439D02*
G03X213907Y332279I1572J1185D01*
G01X222511Y332057D02*
G03X213907Y332279I-4401J-3711D01*
G01X222511Y332057D02*
G03X225521I1505J1269D01*
G01X234322D02*
G03X225521I-4401J-3711D01*
G01X234322D02*
G03X237332I1505J1269D01*
G01X237642Y332396D02*
G03X237332Y332057I4090J-4050D01*
G01X237642Y332396D02*
G03X237195Y335505I-1399J1385D01*
G01X193701Y246750D02*
G03X191413Y248692I-1969J-0D01*
G01X185497Y252293D02*
G03X191413Y248692I5054J1644D01*
G01X185497Y252293D02*
G03X182305Y253144I-1872J-609D01*
G01X173893Y254906D02*
G03X182305Y253144I4847J2181D01*
G01X173893Y254906D02*
G03X170147Y254364I-1795J-808D01*
G01X169226Y252506D02*
G03X170147Y254364I-2297J2297D01*
G01X169226Y252506D02*
X164769Y248050D01*
X164769D02*
G03X164193Y246658I1392J-1392D01*
G01Y242993*
G03X166358Y241034I1968J0*
G01X171163Y239184D02*
G03X166358Y241034I-4234J-3830D01*
G01X171163Y239184D02*
G03X173901Y239006I1460J1320D01*
G01X175689Y239665D02*
G03X173901Y239006I-0J-2756D01*
G01X175689Y239665D02*
X181791D01*
X183456Y239106D02*
G03X181791Y239665I-1665J-2197D01*
G01X183456Y239106D02*
G03X185835I1190J1568D01*
G01X187500Y239665D02*
G03X185835Y239106I0J-2756D01*
G01X187500Y239665D02*
X191732D01*
G03X193701Y241634I0J1969*
G01Y246750*
X193720Y266176D02*
G03X191448Y268121I-1969J-0D01*
G01X186240Y269968D02*
G03X191448Y268121I4311J3890D01*
G01X186240Y269968D02*
G03X182964Y269414I-1462J-1318D01*
G01X182143Y267466*
G03X181988Y266701I1814J-765*
G01Y263209*
G03X182129Y262478I1969J-0*
G01X182944Y260439*
G03X183142Y260066I1828J730*
G01X183794Y258731D02*
G03X183142Y260066I-5054J-1644D01*
G01X183794Y258731D02*
G03X186987Y257879I1872J609D01*
G01X191413Y259182D02*
G03X186987Y257879I-862J-5245D01*
G01X191413Y259182D02*
G03X193701Y261124I319J1942D01*
G01Y265669*
X193714Y266027D02*
G03X193701Y265669I4711J-358D01*
G01X193714Y266027D02*
G03X193720Y266176I-1963J149D01*
G01X193720*
X195079Y281764D02*
G03X192419Y283607I-1969J-0D01*
G01X191703Y283394D02*
G03X192419Y283607I-1152J5189D01*
G01X191703Y283394D02*
G03X190551Y282649I426J-1922D01*
X189400Y283394I-1578J-1177*
G01X186004Y291334D02*
G03X189400Y283394I4547J-2751D01*
G01X186004Y291334D02*
G03X184494Y294314I-1684J1019D01*
G01X181282Y295668D02*
G03X184494Y294314I3718J4332D01*
G01X181282Y295668D02*
G03X178718I-1282J-1494D01*
G01X172031Y295124D02*
G03X178718Y295668I2969J4876D01*
G01X172031Y295124D02*
G03X169734Y294945I-1024J-1681D01*
G01X167953Y294291D02*
G03X169734Y294945I-0J2756D01*
G01X167953Y294291D02*
X162047D01*
X159508Y295975D02*
G03X162047Y294291I2539J1072D01*
G01X159508Y295975D02*
G03X157034Y297063I-1813J-766D01*
G01X150141Y305237D02*
G03X157034Y297063I4977J-2796D01*
G01X150141Y305237D02*
G03X150393Y306201I-1716J964D01*
X149465Y307872I-1968J0*
G01X148884Y308333D02*
G03X149465Y307872I2297J2297D01*
G01X148884Y308333D02*
X144947Y312270D01*
X143996Y314567D02*
G03X144947Y312270I3248J-0D01*
G01X143996Y314567D02*
Y318028D01*
G03X143890Y318667I-1968J0*
G01X143504Y319790*
G03X143340Y320149I-1862J-638*
G01X148067Y326893D02*
G03X143340Y320149I-823J-4452D01*
G01X148067Y326893D02*
G03X150394Y328829I358J1936D01*
G01Y337285*
G03X150234Y338061I-1969J-0*
G01X157175Y345058D02*
G03X150234Y338061I-2057J-4901D01*
G01X157175Y345058D02*
G03X159737Y347670I762J1816D01*
G01X159244Y350000D02*
G03X159737Y347670I5756J0D01*
G01X159244Y350000D02*
X159244D01*
X160307Y353333D02*
G03X159244Y350000I4693J-3333D01*
G01X160307Y353333D02*
G03X160517Y353711I-1605J1139D01*
G01X161599Y356288*
G03X161752Y357050I-1816J762*
G01Y375192*
G03X161183Y376576I-1969J-0*
G01X160795Y383616D02*
G03X161183Y376576I4166J-3301D01*
G01X160795Y383616D02*
G03X161221Y384839I-1542J1223D01*
X160717Y386154I-1968J0*
G01X160307Y393333D02*
G03X160717Y386154I4693J-3333D01*
G01X160307Y393333D02*
G03X160517Y393711I-1605J1139D01*
G01X161599Y396288*
G03X161752Y397050I-1816J762*
G01Y397901*
G03X160727Y399628I-1969J-0*
G01X159291Y402047D02*
G03X160727Y399628I2756J0D01*
G01X159291Y402047D02*
Y407953D01*
X162047Y410709D02*
G03X159291Y407953I0J-2756D01*
G01X162047Y410709D02*
X164468D01*
G03X166437Y412677I0J1968*
G01Y416343*
G03X165860Y417735I-1969J0*
G01X162704Y420892*
X161752Y423189D02*
G03X162704Y420892I3248J-0D01*
G01X161752Y423189D02*
Y423525D01*
G03X158842Y425254I-1968J0*
G01X153484Y425413D02*
G03X158842Y425254I2815J4508D01*
G01X153484Y425413D02*
G03X150505Y423391I-1042J-1670D01*
G01X150591Y422441D02*
G03X150505Y423391I-5315J-0D01*
G01X150591Y422441D02*
X150591D01*
X144839Y417144D02*
G03X150591Y422441I437J5297D01*
G01X144839Y417144D02*
G03X143285Y413790I-162J-1962D01*
G01X146648Y410427*
X148032Y407087D02*
G03X146648Y410427I-4725J-0D01*
G01X148032Y407087D02*
Y387322D01*
X146648Y383981D02*
G03X148032Y387322I-3341J3341D01*
G01X146648Y383981D02*
X143702Y381035D01*
G03X145141Y377676I1392J-1391*
G01X139567Y371969D02*
G03X145141Y377676I5709J-0D01*
G01X139567Y371969D02*
X139567D01*
X139568Y372093D02*
G03X139567Y371969I5708J-125D01*
G01X139568Y372093D02*
G03X139569Y372136I-1968J43D01*
G01X139569*
G03X136194Y373514I-1969J0*
G01X123397Y360456*
G03X122835Y359078I1406J-1378*
G01Y343732*
G03X126080Y342234I1968J0*
G01X133309Y341924D02*
G03X126080Y342234I-3781J-3735D01*
G01X133309Y341924D02*
G03X134329Y341376I1401J1383D01*
G01X136949Y338189D02*
G03X134329Y341376I-3248J-0D01*
G01X136949Y338189D02*
X136949D01*
X136155Y336062D02*
G03X136949Y338189I-2454J2127D01*
G01X136155Y336062D02*
X132059Y331335D01*
G03X131578Y330046I1487J-1289*
X133024Y328148I1968J-0*
G01X135883Y318873D02*
G03X133024Y328148I-4387J3725D01*
G01X135883Y318873D02*
G03Y316324I1501J-1275D01*
G01Y308873D02*
G03Y316324I-4387J3725D01*
G01Y308873D02*
G03Y306324I1501J-1275D01*
G01X133640Y297257D02*
G03X135883Y306324I-2144J5341D01*
G01X133640Y297257D02*
G03X132405Y295430I733J-1827D01*
X133702Y293579I1968J-0*
G01X132893Y283363D02*
G03X133702Y293579I-1003J5220D01*
G01X132893Y283363D02*
G03X131732Y282665I372J-1933D01*
X130609Y283424I-1597J-1151*
G01X127028Y286435D02*
G03X130609Y283424I4862J2148D01*
G01X127028Y286435D02*
G03X125326Y287605I-1800J-796D01*
G01X124154Y287796D02*
G03X125326Y287605I1437J5117D01*
G01X124154Y287796D02*
G03X121654Y285901I-532J-1895D01*
G01Y219452*
G03X122182Y218110I1968J-0*
X121654Y216769I1440J-1341*
G01Y194488*
G03X123622Y192520I1968J0*
G01X152043*
G03X153938Y195020I-0J1968*
G01X153986Y198055D02*
G03X153938Y195020I5069J-1598D01*
G01X153986Y198055D02*
G03X151952Y200609I-1877J592D01*
G01X147734Y210593D02*
G03X151952Y200609I3762J-4294D01*
G01X147734Y210593D02*
G03X148406Y212074I-1297J1481D01*
X147654Y213622I-1969J0*
G01X146437Y221285D02*
G03X147654Y213622I4744J-3175D01*
G01X146437Y221285D02*
G03X146614Y223146I-1636J1095D01*
G01X146358Y224409D02*
G03X146614Y223146I3248J0D01*
G01X146358Y224409D02*
Y226083D01*
G03X144390Y228051I-1968J-0*
G01X140256*
X138591Y228611D02*
G03X140256Y228051I1665J2196D01*
G01X138591Y228611D02*
G03X136212I-1189J-1569D01*
G01X134547Y228051D02*
G03X136212Y228611I0J2756D01*
G01X134547Y228051D02*
X128445D01*
X125689Y230807D02*
G03X128445Y228051I2756J0D01*
G01X125689Y230807D02*
Y236909D01*
X128445Y239665D02*
G03X125689Y236909I-0J-2756D01*
G01X128445Y239665D02*
X134547D01*
X136212Y239106D02*
G03X134547Y239665I-1665J-2197D01*
G01X136212Y239106D02*
G03X138591I1190J1568D01*
G01X140256Y239665D02*
G03X138591Y239106I-0J-2756D01*
G01X140256Y239665D02*
X144390D01*
G03X146358Y241634I-0J1969*
G01Y250394*
X147310Y252690D02*
G03X146358Y250394I2296J-2296D01*
G01X147310Y252690D02*
X151293Y256674D01*
G03X151870Y258066I-1391J1392*
G01Y258403*
G03X151718Y259162I-1968J0*
G01X150666Y261681*
G03X150457Y262059I-1817J-758*
G01X149630Y266926D02*
G03X150457Y262059I5488J-1572D01*
G01X149630Y266926D02*
G03X146616Y269086I-1892J542D01*
G01X138897Y270081D02*
G03X146616Y269086I4410J3777D01*
G01X138897Y270081D02*
G03X135907I-1495J-1281D01*
G01X130479Y279576D02*
G03X135907Y270081I1017J-5718D01*
G01X130479Y279576D02*
G03X131668Y280279I-344J1938D01*
X132817Y279513I1597J1151*
G01X135907Y277636D02*
G03X132817Y279513I-4411J-3778D01*
G01X135907Y277636D02*
G03X138897I1495J1280D01*
G01X148882Y272234D02*
G03X138897Y277636I-5575J1624D01*
G01X148882Y272234D02*
G03X151887Y270060I1890J-551D01*
G01X159509Y269002D02*
G03X151887Y270060I-4391J-3648D01*
G01X159509Y269002D02*
G03X162538I1515J1258D01*
G01X170161Y270060D02*
G03X162538Y269002I-3232J-4706D01*
G01X170161Y270060D02*
G03X173165Y272234I1114J1623D01*
G01X183151Y277636D02*
G03X173165Y272234I-4411J-3778D01*
G01X183151Y277636D02*
G03X186141I1495J1280D01*
G01X189373Y279545D02*
G03X186141Y277636I1178J-5687D01*
G01X189373Y279545D02*
G03X190551Y280295I-400J1927D01*
X191729Y279545I1578J1177*
G01X192462Y279342D02*
G03X191729Y279545I-1911J-5484D01*
G01X192462Y279342D02*
G03X195079Y281201I648J1859D01*
G01Y281764*
X197933Y342797D02*
G03X195672Y344744I-1968J0D01*
G01X191521Y345883D02*
G03X195672Y344744I3361J4117D01*
G01X191521Y345883D02*
G03X188931Y345796I-1245J-1525D01*
G01X181274Y345613D02*
G03X188931Y345796I3726J4387D01*
G01X181274Y345613D02*
G03X178726I-1274J-1501D01*
G01X171274D02*
G03X178726I3726J4387D01*
G01X171274D02*
G03X168726I-1274J-1501D01*
G01X162649Y344746D02*
G03X168726Y345613I2351J5254D01*
G01X162649Y344746D02*
G03X160027Y342195I-804J-1797D01*
G01X160002Y338061D02*
G03X160027Y342195I-4884J2096D01*
G01X160002Y338061D02*
G03X159843Y337285I1809J-776D01*
G01Y336984*
G03X162629Y335193I1968J-0*
G01X168718Y334332D02*
G03X162629Y335193I-3718J-4332D01*
G01X168718Y334332D02*
G03X171282I1282J1494D01*
G01X178718D02*
G03X171282I-3718J-4332D01*
G01X178718D02*
G03X181282I1282J1494D01*
G01X188718D02*
G03X181282I-3718J-4332D01*
G01X188718D02*
G03X191282I1282J1494D01*
G01X195717Y335663D02*
G03X191282Y334332I-717J-5663D01*
G01X195717Y335663D02*
G03X197933Y337616I248J1953D01*
G01Y342797*
Y372384D02*
G03X195717Y374337I-1968J-0D01*
G01X192620Y374811D02*
G03X195717Y374337I2380J5189D01*
G01X192620Y374811D02*
G03X189866Y372652I-821J-1789D01*
G01X181414Y367434D02*
G03X189866Y372652I3232J4220D01*
G01X181414Y367434D02*
G03X178248Y365871I-1197J-1563D01*
G01Y357050*
G03X178401Y356288I1969J-0*
G01X178716Y355539*
G03X181670Y354695I1815J761*
G01X187132Y355346D02*
G03X181670Y354695I-2132J-5346D01*
G01X187132Y355346D02*
G03X189692Y357899I730J1829D01*
G01X189291Y360000D02*
G03X189692Y357899I5709J-0D01*
G01X195717Y365663D02*
G03X189291Y360000I-717J-5663D01*
G01X195717Y365663D02*
G03X197933Y367616I248J1953D01*
G01Y372384*
X181274Y385613D02*
G03X187112Y384646I3726J4387D01*
G01X181274Y385613D02*
G03X178726I-1274J-1501D01*
G01X174927Y384245D02*
G03X178726Y385613I73J5755D01*
G01X174927Y384245D02*
G03X172933Y382276I-25J-1969D01*
G01Y380704*
G03X173510Y379312I1969J0*
G01X177297Y375525*
X177573Y375211D02*
G03X177297Y375525I-2573J-1983D01*
G01X177573Y375211D02*
G03X180622Y375126I1559J1202D01*
G01X186730Y376543D02*
G03X180622Y375126I-2084J-4889D01*
G01X186730Y376543D02*
G03X189470Y378354I771J1811D01*
X189424Y378776I-1969J-0*
G01X189663Y382026D02*
G03X189424Y378776I5337J-2026D01*
G01X189663Y382026D02*
G03X189774Y382464I-1840J699D01*
G01X189786Y382554*
G03X187112Y384646I-1951J260*
G01X202006Y412692D02*
X197311Y417387D01*
X196358Y419685D02*
G03X197311Y417387I3248J0D01*
G01X196358Y419685D02*
Y427347D01*
G03X194546Y429309I-1968J-0*
G01X191282Y430668D02*
G03X194546Y429309I3718J4332D01*
G01X191282Y430668D02*
G03X188718I-1282J-1494D01*
G01X188037Y430165D02*
G03X188718Y430668I-3037J4835D01*
G01X188037Y430165D02*
G03X187991Y426861I1047J-1667D01*
G01X179724Y422441D02*
G03X187991Y426861I5315J-0D01*
G01X182061Y426843D02*
G03X179724Y422441I2978J-4402D01*
G01X182061Y426843D02*
G03X181994Y430147I-1103J1630D01*
G01X181282Y430668D02*
G03X181994Y430147I3718J4332D01*
G01X181282Y430668D02*
G03X178718I-1282J-1494D01*
G01X171667Y430365D02*
G03X178718Y430668I3333J4635D01*
G01X171667Y430365D02*
G03X168701Y429526I-1150J-1598D01*
G01X168401Y428807*
G03X168248Y428048I1816J-759*
G01Y425349*
G03X168825Y423957I1969J0*
G01X171982Y420801*
X172933Y418504D02*
G03X171982Y420801I-3248J-0D01*
G01X172933Y418504D02*
Y412676D01*
G03X174927Y410708I1969J0*
G01X178718Y409332D02*
G03X174927Y410708I-3718J-4332D01*
G01X178718Y409332D02*
G03X181282I1282J1493D01*
G01X188718D02*
G03X181282I-3718J-4332D01*
G01X188718D02*
G03X191282I1282J1493D01*
G01X198718D02*
G03X191282I-3718J-4332D01*
G01X198718D02*
G03X201282I1282J1493D01*
G01X201739Y409685D02*
G03X201282Y409332I3261J-4685D01*
G01X201739Y409685D02*
G03X202006Y412692I-1125J1615D01*
G01X181508Y503543D02*
X141043D01*
G03X139075Y501575I0J-1968*
G01Y494882*
X135827Y491634D02*
G03X139075Y494882I-0J3248D01*
G01X135827Y491634D02*
X135003D01*
G03X134241Y491481I-0J-1969*
G01X133492Y491166*
G03X132285Y489351I761J-1815*
X132648Y488212I1968J-0*
G01X126885Y479226D02*
G03X132648Y488212I1068J5656D01*
G01X126885Y479226D02*
G03X125128Y478683I-365J-1935D01*
G01X122230Y475785*
G03X121654Y474393I1392J-1392*
G01Y462921*
G03X123903Y460973I1968J-0*
G01X129112Y451550D02*
G03X123903Y460973I-4388J3726D01*
G01X129112Y451550D02*
G03Y449001I1500J-1274D01*
G01X123903Y439579D02*
G03X129112Y449001I821J5697D01*
G01X123903Y439579D02*
G03X121654Y437630I-281J-1949D01*
G01Y436237*
G03X122230Y434845I1968J-0*
G01X136625Y420450*
G03X139979Y422004I1392J1392*
G01X139961Y422441D02*
G03X139979Y422004I5315J-0D01*
G01X139961Y422441D02*
X139961D01*
X148091Y426949D02*
G03X139961Y422441I-2815J-4508D01*
G01X148091Y426949D02*
G03X151070Y428971I1042J1670D01*
G01X150984Y429921D02*
G03X151070Y428971I5315J0D01*
G01X150984Y429921D02*
X150984D01*
X154791Y435018D02*
G03X150984Y429921I1508J-5097D01*
G01X154791Y435018D02*
G03X156201Y436905I-559J1887D01*
G01Y437551*
G03X154232Y439520I-1969J0*
G01X151724*
X148968Y442276D02*
G03X151724Y439520I2756J-0D01*
G01X148968Y442276D02*
Y448276D01*
X149609Y450043D02*
G03X148968Y448276I2115J-1767D01*
G01X149609Y450043D02*
G03X149787Y452317I-1510J1262D01*
G01X148968Y455276D02*
G03X149787Y452317I5756J-0D01*
G01X154358Y461020D02*
G03X148968Y455276I366J-5744D01*
G01X154358Y461020D02*
G03X156201Y462984I-126J1964D01*
G01Y477760*
G03X155624Y479152I-1969J0*
G01X155444Y479332*
G03X154797Y479762I-1392J-1392*
G01X152747Y480601*
G03X150184Y478024I-745J-1822*
G01X150591Y475984D02*
G03X150184Y478024I-5315J0D01*
G01X150591Y475984D02*
X150591D01*
X139961D02*
G03X150591I5315J0D01*
G01X145661Y481285D02*
G03X139961Y475984I-385J-5301D01*
G01X145661Y481285D02*
G03X147575Y484106I142J1964D01*
G01X147000Y486614D02*
G03X147575Y484106I5756J0D01*
G01X157770Y489441D02*
G03X147000Y486614I-5014J-2827D01*
G01X157770Y489441D02*
G03X160890Y489030I1714J967D01*
G01X168726Y489387D02*
G03X160890Y489030I-3726J-4387D01*
G01X168726Y489387D02*
G03X171274I1274J1501D01*
G01X178726D02*
G03X171274I-3726J-4387D01*
G01X178726D02*
G03X181274I1274J1501D01*
G01X182392Y490131D02*
G03X181274Y489387I2608J-5131D01*
G01X182392Y490131D02*
G03X183469Y491886I-892J1755D01*
X183468Y491957I-1969J0*
G01X183465Y492126D02*
G03X183468Y491957I4724J-0D01*
G01X183465Y492126D02*
Y501181D01*
X183473Y501459D02*
G03X183465Y501181I4716J-278D01*
G01X183473Y501459D02*
G03X181508Y503543I-1965J116D01*
G01X408268Y648819D02*
G03X406299Y650787I-1969J-0D01*
G01X401575*
X399234Y652089D02*
G03X401575Y650787I2341J1454D01*
G01X399234Y652089D02*
G03X396334Y652590I-1673J-1038D01*
G01X390038Y650867D02*
G03X396334Y652590I1143J8188D01*
G01X390038Y650867D02*
G03X387797Y648917I-272J-1950D01*
X387850Y648465I1969J0*
G01X387992Y647244D02*
G03X387850Y648465I-5315J0D01*
G01X387079Y644265D02*
G03X387992Y647244I-4402J2979D01*
G01X387079Y644265D02*
G03X386881Y643892I1630J-1103D01*
G01X386066Y641853*
G03X385925Y641122I1828J-731*
G01Y640556*
G03X386494Y639172I1969J0*
G01X380137Y630786D02*
G03X386494Y639172I2580J4647D01*
G01X380137Y630786D02*
G03X377213Y629065I-955J-1721D01*
X377251Y628679I1969J-0*
G01X366750Y624636D02*
G03X377251Y628679I4904J2923D01*
G01X366750Y624636D02*
G03X363091Y623628I-1691J-1008D01*
G01Y614294*
G03X363244Y613533I1968J0*
G01X363985Y611765*
G03X367301Y611253I1815J762*
G01X377357Y607793D02*
G03X367301Y611253I-5703J-234D01*
G01X377357Y607793D02*
G03X379324Y605906I1967J81D01*
G01X406299*
G03X408268Y607874I0J1968*
G01Y648819*
X317362Y323790D02*
G03X322152Y323444I2736J4556D01*
G01X317362Y323790D02*
G03X315335I-1014J-1687D01*
G01X314265Y333393D02*
G03X315335Y323790I-1667J-5047D01*
G01X314265Y333393D02*
G03X316850Y335263I617J1870D01*
G01Y337178*
G03X314265Y339047I-1968J0*
G01Y349142D02*
G03Y339047I-1667J-5048D01*
G01Y349142D02*
G03X316850Y351011I617J1869D01*
G01Y352749*
G03X315329Y354666I-1968J0*
G01X311235Y360231D02*
G03X315329Y354666I5300J-388D01*
G01X311235Y360231D02*
G03X311240Y360375I-1964J144D01*
G01X311240*
G03X308681Y362253I-1969J-0*
G01X305363Y362295D02*
G03X308681Y362253I1724J5028D01*
G01X305363Y362295D02*
G03X302756Y360433I-639J-1862D01*
G01Y320328*
G03X303655Y318675I1968J-0*
G01X306228Y314758D02*
G03X303655Y318675I-5728J-958D01*
G01X306228Y314758D02*
G03X306346Y314340I1941J324D01*
G01X307357Y311856*
G03X309180Y310630I1823J742*
G01X311353*
G03X313073Y311641I0J1968*
G01X316711Y314274D02*
G03X313073Y311641I1006J-5219D01*
G01X316711Y314274D02*
G03X317114Y314398I-373J1933D01*
G01X319133Y315264*
G03X319749Y315681I-776J1809*
G01X324305Y320237*
G03X322152Y323444I-1392J1392*
G01X321949Y469173D02*
G03X319049Y470908I-1969J0D01*
G01X312584Y472036D02*
G03X319049Y470908I3951J3555D01*
G01X312584Y472036D02*
G03X309305Y469960I-1463J-1317D01*
G01X310122Y468004*
G03X310331Y467626I1816J758*
G01X310001Y460613D02*
G03X310331Y467626I-4332J3718D01*
G01X310001Y460613D02*
G03Y458049I1494J-1282D01*
G01X304967Y448665D02*
G03X310001Y458049I702J5666D01*
G01X304967Y448665D02*
G03X302756Y446712I-243J-1953D01*
G01Y445734*
G03X305682Y444014I1968J-0*
G01X313152Y437274D02*
G03X305682Y444014I-4884J2096D01*
G01X313152Y437274D02*
G03X312992Y436497I1809J-777D01*
G01Y387041*
G03X315364Y385115I1969J0*
G01X317633Y385130D02*
G03X315364Y385115I-1098J-5602D01*
G01X317633Y385130D02*
G03X319980Y387061I379J1931D01*
G01Y449266*
G03X319315Y450742I-1968J0*
G01X317520Y454724D02*
G03X319315Y450742I5315J0D01*
G01X320752Y459614D02*
G03X317520Y454724I2083J-4890D01*
G01X320752Y459614D02*
G03X321949Y461425I-772J1811D01*
G01Y469173*
X320763Y491921D02*
G03X321585Y491589I2465J4929D01*
G01X320763Y491921D02*
G03X319001I-881J-1761D01*
G01X314070D02*
G03X319001I2465J4929D01*
G01X314070D02*
G03X312308I-881J-1761D01*
G01X307377D02*
G03X312308I2466J4929D01*
G01X307377D02*
G03X305615I-881J-1761D01*
G01X305104Y491697D02*
G03X305615Y491921I-1954J5153D01*
G01X305104Y491697D02*
G03X304423Y488451I698J-1841D01*
G01X307944Y484995*
X308917Y482677D02*
G03X307944Y484995I-3248J0D01*
G01X308917Y482677D02*
Y480187D01*
G03X312413Y478945I1969J0*
G01X319049Y480273D02*
G03X312413Y478945I-2514J-4682D01*
G01X319049Y480273D02*
G03X321949Y482008I931J1735D01*
G01Y486614*
X322583Y488542D02*
G03X321949Y486614I2614J-1928D01*
G01X322583Y488542D02*
G03X321585Y491589I-1585J1168D01*
G01X334941Y553013D02*
G03X332169Y554810I-1969J-0D01*
G01X331455Y554548D02*
G03X332169Y554810I-1534J5295D01*
G01X331455Y554548D02*
G03X330107Y553188I547J-1890D01*
X328685Y554471I-1864J-635*
G01X327455Y554913D02*
G03X328685Y554471I2466J4930D01*
G01X327455Y554913D02*
G03X325694I-880J-1761D01*
G01X320763D02*
G03X325694I2465J4930D01*
G01X320763D02*
G03X319001I-881J-1761D01*
G01X316245Y554338D02*
G03X319001Y554913I290J5505D01*
G01X316245Y554338D02*
G03X314173Y552373I-103J-1965D01*
G01Y547755*
G03X314333Y546978I1969J-0*
G01X310393Y539652D02*
G03X314333Y546978I-944J5230D01*
G01X310393Y539652D02*
G03X308775Y537714I350J-1938D01*
G01X308775*
G03X308797Y537417I1968J0*
G01X308858Y536614D02*
G03X308797Y537417I-5315J0D01*
G01X308858Y536614D02*
X308858D01*
X308140Y533946D02*
G03X308858Y536614I-4597J2668D01*
G01X308140Y533946D02*
G03X307874Y532958I1703J-988D01*
G01Y528993*
G03X311208Y527576I1969J0*
G01X316833Y514376D02*
G03X311208Y527576I-298J7671D01*
G01X316833Y514376D02*
G03X314999Y512886I76J-1967D01*
G01X314727Y512077D02*
G03X314999Y512886I-4884J2096D01*
G01X314727Y512077D02*
G03X314567Y511300I1808J-777D01*
G01Y504331*
G03X316535Y502362I1968J-0*
G01X319001Y501780D02*
G03X316535Y502362I-2466J-4930D01*
G01X319001Y501780D02*
G03X320763I881J1760D01*
G01X325694D02*
G03X320763I-2466J-4930D01*
G01X325694D02*
G03X327455I881J1760D01*
G01X328398Y502148D02*
G03X327455Y501780I1523J-5298D01*
G01X328398Y502148D02*
G03X329823Y504039I-544J1891D01*
G01Y520453*
G03X329682Y521183I-1969J-0*
G01X328867Y523223*
G03X328669Y523596I-1828J-731*
G01X332999Y531889D02*
G03X328669Y523596I72J-5314D01*
G01X332999Y531889D02*
G03X334941Y533858I-27J1969D01*
G01Y537106*
G03X332972Y539075I-1969J0*
G01X329232*
X326476Y541831D02*
G03X329232Y539075I2756J-0D01*
G01X326476Y541831D02*
Y547933D01*
X328655Y550628D02*
G03X326476Y547933I577J-2695D01*
G01X328655Y550628D02*
G03X330139Y552023I-412J1925D01*
X332002Y550689I1863J635*
G01X332972*
G03X334941Y552658I0J1969*
G01X334941D02*
Y553013D01*
X350000Y586323D02*
G03X349423Y587715I-1969J0D01*
G01X340223Y596916*
X339272Y599213D02*
G03X340223Y596916I3248J-0D01*
G01X339272Y599213D02*
Y600226D01*
G03X337027Y602175I-1969J-0*
G01X332017Y603942D02*
G03X337027Y602175I4203J3932D01*
G01X332017Y603942D02*
G03X329007Y603781I-1437J-1345D01*
G01X327416Y602336D02*
G03X329007Y603781I-3007J4908D01*
G01X327417Y602336D02*
G03X326476Y600658I1028J-1678D01*
G01Y591455*
G03X328738Y589508I1969J-0*
G01Y578996D02*
G03Y589508I790J5256D01*
G01Y578996D02*
G03X326476Y577049I-293J-1947D01*
G01Y567176*
G03X328833Y565246I1969J-0*
G01X329777Y565352D02*
G03X328833Y565246I144J-5509D01*
G01X329777Y565352D02*
G03X331694Y567320I-52J1968D01*
X331587Y567959I-1969J0*
G01X339112Y574377D02*
G03X331587Y567959I-2498J-4692D01*
G01X339112Y574377D02*
G03X342005Y576114I925J1737D01*
G01X342005*
G03X341985Y576398I-1968J0*
G01X347819Y582449D02*
G03X341985Y576398I-575J-5284D01*
G01X347819Y582449D02*
G03X350000Y584406I212J1957D01*
G01Y586323*
X319980Y601734D02*
G03X316632Y603138I-1968J-0D01*
G01X308001Y603781D02*
G03X316632Y603138I4597J3463D01*
G01X308001Y603781D02*
G03X304991Y603942I-1573J-1184D01*
G01X296612Y603912D02*
G03X304991Y603942I4175J3962D01*
G01X296612Y603912D02*
G03X293369Y603318I-1428J-1355D01*
G01X292705Y601735*
G03X292692Y600243I1815J-762*
G01X293180Y599021*
G03X293378Y598648I1828J731*
G01X285103Y592030D02*
G03X293378Y598648I3873J3639D01*
G01X285103Y592030D02*
G03X284439Y592493I-1435J-1348D01*
X284231Y593275I-1966J-104*
G01X283661Y595669D02*
G03X284231Y593275I5315J0D01*
G01X283661Y595669D02*
X283661D01*
X284575Y598648D02*
G03X283661Y595669I4401J-2979D01*
G01X284575Y598648D02*
G03X284773Y599021I-1630J1104D01*
G01X285261Y600243*
G03X285248Y601735I-1828J730*
G01X284584Y603318*
G03X281341Y603912I-1816J-761*
G01X276339Y602178D02*
G03X281341Y603912I826J5696D01*
G01X276339Y602178D02*
G03X274121Y600593I-283J-1948D01*
G01X272762Y597925D02*
G03X274121Y600593I-3864J3650D01*
G01X272762Y597925D02*
G03X272224Y596574I1431J-1351D01*
G01Y594051*
G03X274996Y592254I1969J-0*
G01X281039Y591041D02*
G03X274996Y592254I-3874J-3639D01*
G01X281039Y591041D02*
G03X281703Y590578I1434J1348D01*
X281911Y589795I1965J104*
G01X278961Y582399D02*
G03X281911Y589795I-1796J5003D01*
G01X278961Y582399D02*
G03X277658Y580546I665J-1853D01*
G01X277658D02*
Y568031D01*
X276704Y565733D02*
G03X277658Y568031I-2295J2298D01*
G01X276704Y565733D02*
X275828Y564857D01*
G03X277220Y561496I1392J-1392*
G01X279331*
X282087Y558740D02*
G03X279331Y561496I-2756J0D01*
G01X282087Y558740D02*
Y552835D01*
X281433Y551053D02*
G03X282087Y552835I-2102J1782D01*
G01X281433Y551053D02*
G03X280967Y549780I1502J-1273D01*
X281254Y548757I1968J0*
G01X281039Y542492D02*
G03X281254Y548757I-4661J3295D01*
G01X281039Y542492D02*
G03X280830Y542114I1608J-1136D01*
G01X279778Y539595*
G03X279626Y538836I1817J-759*
G01Y537686*
G03X282632Y536013I1969J-0*
G01X286625Y536676D02*
G03X282632Y536013I-1192J-5180D01*
G01X286625Y536676D02*
G03X288646Y537421I441J1918D01*
G01X288824Y537647D02*
G03X288646Y537421I4089J-3395D01*
G01X288824Y537647D02*
G03X289278Y538905I-1514J1258D01*
X288569Y540418I-1968J-0*
G01X286476Y544882D02*
G03X288569Y540418I5807J-0D01*
G01X286476Y544882D02*
X286476D01*
X286888Y547030D02*
G03X286476Y544882I5395J-2148D01*
G01X286888Y547030D02*
G03X287008Y547478I-1829J728D01*
G01X287539Y551182*
G03X287559Y551462I-1948J280*
G01Y576706*
G03X287357Y577575I-1968J0*
G01X297125Y578116D02*
G03X287357Y577575I-4999J1805D01*
G01X297125Y578116D02*
G03X297008Y577447I1851J-669D01*
G01Y566051*
G03X300075Y564417I1968J-0*
G01X305615Y564772D02*
G03X300075Y564417I-2465J-4929D01*
G01X305615Y564772D02*
G03X307377I881J1761D01*
G01X312308D02*
G03X307377I-2465J-4929D01*
G01X312308D02*
G03X314070I881J1761D01*
G01X317623Y565246D02*
G03X314070Y564772I-1088J-5403D01*
G01X317623Y565246D02*
G03X319980Y567176I389J1930D01*
G01Y575507*
G03X317710Y577453I-1968J0*
G01Y592626D02*
G03Y577453I-1175J-7587D01*
G01Y592626D02*
G03X319980Y594571I302J1945D01*
G01Y601734*
X227165Y606586D02*
G03X223282Y607040I-1968J-0D01*
G01X222582Y605395D02*
G03X223282Y607040I-4472J2873D01*
G01X222582Y605395D02*
G03X222269Y604331I1656J-1064D01*
X224238Y602362I1969J-0*
G01X225197*
G03X227165Y604331I-0J1969*
G01Y606586*
X251636Y657562D02*
X251170Y658676D01*
G03X247908Y659253I-1816J-759*
G01X240849Y658374D02*
G03X247908Y659253I3009J4618D01*
G01X240849Y658374D02*
G03X238458Y658188I-1074J-1649D01*
G01X236614Y657480D02*
G03X238458Y658188I0J2756D01*
G01X236614Y657480D02*
X231102D01*
X228346Y660236D02*
G03X231102Y657480I2756J0D01*
G01X228346Y660236D02*
Y665748D01*
X228434Y666437D02*
G03X228346Y665748I2668J-689D01*
G01X228434Y666437D02*
G03X228496Y666929I-1906J492D01*
X226528Y668898I-1968J0*
G01X214786*
G03X213112Y665893I-0J-1969*
G01X205416Y658374D02*
G03X213112Y665893I3009J4618D01*
G01X205416Y658374D02*
G03X203025Y658188I-1074J-1649D01*
G01X201181Y657480D02*
G03X203025Y658188I0J2756D01*
G01X201181Y657480D02*
X195669D01*
X192913Y660236D02*
G03X195669Y657480I2756J0D01*
G01X192913Y660236D02*
Y665748D01*
X193001Y666437D02*
G03X192913Y665748I2668J-689D01*
G01X193001Y666437D02*
G03X193063Y666929I-1906J492D01*
X191095Y668898I-1968J0*
G01X168529*
G03X166607Y667355I-0J-1969*
G01X156228D02*
G03X166607I5189J1149D01*
G01X156228D02*
G03X154306Y668898I-1922J-426D01*
G01X148869*
G03X146938Y667313I-0J-1969*
G01X141112Y662721D02*
G03X146938Y667313I227J5704D01*
G01X141112Y662721D02*
G03X139254Y661597I-79J-1967D01*
G01X135462Y656035D02*
G03X139254Y661597I-15777J14831D01*
G01X135462Y656035D02*
G03X134959Y655037I1434J-1349D01*
X133944Y654570I281J-1949*
G01X123294Y649515D02*
G03X133944Y654570I-3609J21351D01*
G01X123294Y649515D02*
G03X121654Y647574I328J-1941D01*
G01Y588019*
G03X124852Y586482I1968J-0*
G01X125254Y586750D02*
G03X124852Y586482I1321J-2419D01*
G01X125254Y586750D02*
G03X126280Y588477I-943J1727D01*
G01Y600853*
G03X126074Y601728I-1969J0*
G01X125787Y602953D02*
G03X126074Y601728I2756J-0D01*
G01X125787Y602953D02*
Y608858D01*
X128543Y611614D02*
G03X125787Y608858I0J-2756D01*
G01X128543Y611614D02*
X134449D01*
X136231Y610961D02*
G03X134449Y611614I-1782J-2103D01*
G01X136231Y610961D02*
G03X138527Y610781I1272J1502D01*
G01X145214Y610237D02*
G03X138527Y610781I-3718J-4331D01*
G01X145214Y610237D02*
G03X147778I1282J1494D01*
G01X155214D02*
G03X147778I-3718J-4331D01*
G01X155214D02*
G03X157778I1282J1494D01*
G01X165214D02*
G03X157778I-3718J-4331D01*
G01X165214D02*
G03X167778I1282J1494D01*
G01X171015Y611594D02*
G03X167778Y610237I481J-5688D01*
G01X171015Y611594D02*
G03X172678Y614286I-165J1961D01*
G01X172174Y615546*
G03X171976Y615918I-1828J-731*
G01X180780D02*
G03X171976I-4402J2980D01*
G01X180780D02*
G03X180582Y615546I1630J-1103D01*
G01X180085Y614302*
G03X181806Y611606I1828J-731*
G01X184830Y610540D02*
G03X181806Y611606I-3334J-4634D01*
G01X184830Y610540D02*
G03X187796Y611379I1149J1598D01*
G01X188096Y612098*
G03X188248Y612857I-1816J759*
G01Y622759*
G03X188051Y623617I-1968J-0*
G01X187598Y625591D02*
G03X188051Y623617I4528J-0D01*
G01X188589Y628417D02*
G03X187598Y625591I3537J-2826D01*
G01X188589Y628417D02*
G03X188191Y631251I-1538J1229D01*
G01X187778Y631574D02*
G03X188191Y631251I3718J4332D01*
G01X187778Y631574D02*
G03X185214I-1282J-1494D01*
G01X177778D02*
G03X185214I3718J4332D01*
G01X177778D02*
G03X175214I-1282J-1494D01*
G01X167778D02*
G03X175214I3718J4332D01*
G01X167778D02*
G03X165214I-1282J-1494D01*
G01X157778D02*
G03X165214I3718J4332D01*
G01X157778D02*
G03X155214I-1282J-1494D01*
G01X147778D02*
G03X155214I3718J4332D01*
G01X147778D02*
G03X145214I-1282J-1494D01*
G01X137778D02*
G03X145214I3718J4332D01*
G01X137778D02*
G03X135214I-1282J-1494D01*
G01Y640237D02*
G03Y631574I-3718J-4331D01*
G01Y640237D02*
G03X137778I1282J1494D01*
G01X138133Y640519D02*
G03X137778Y640237I3363J-4613D01*
G01X138133Y640519D02*
G03X138093Y643729I-1159J1590D01*
G01X136804Y651893D02*
G03X138093Y643729I4535J-3468D01*
G01X136804Y651893D02*
G03X137177Y652738I-1564J1195D01*
X138035Y653081I-281J1948*
G01X144701Y643812D02*
G03X138035Y653081I-3362J4613D01*
G01X144701Y643812D02*
G03X143892Y642221I1160J-1591D01*
X144742Y640602I1969J0*
G01X145214Y640237D02*
G03X144742Y640602I-3718J-4331D01*
G01X145214Y640237D02*
G03X147778I1282J1494D01*
G01X155214D02*
G03X147778I-3718J-4331D01*
G01X155214D02*
G03X157778I1282J1494D01*
G01X165214D02*
G03X157778I-3718J-4331D01*
G01X165214D02*
G03X167778I1282J1494D01*
G01X175214D02*
G03X167778I-3718J-4331D01*
G01X175214D02*
G03X177778I1282J1494D01*
G01X185214D02*
G03X177778I-3718J-4331D01*
G01X185214D02*
G03X187778I1282J1494D01*
G01X195214D02*
G03X187778I-3718J-4331D01*
G01X195214D02*
G03X197778I1282J1494D01*
G01X205141Y631512D02*
G03X197778Y640237I-3645J4394D01*
G01X205141Y631512D02*
G03X204429Y629997I1257J-1515D01*
G01Y625020*
G03X204570Y624289I1969J-0*
G01X205385Y622250*
G03X205583Y621877I1828J730*
G01X203994Y614388D02*
G03X205583Y621877I-2813J4510D01*
G01X203994Y614388D02*
G03X204128Y610971I1042J-1670D01*
G01X207084Y607075D02*
G03X204128Y610971I-5588J-1169D01*
G01X207084Y607075D02*
G03X208189Y605689I1926J403D01*
G01X209768Y604485D02*
G03X208189Y605689I-3469J-2910D01*
G01X209768Y604485D02*
G03X210486Y603947I1508J1265D01*
X210578Y603055I1952J-249*
G01X210827Y601575D02*
G03X210578Y603055I-4528J-0D01*
G01X210827Y601575D02*
X210827D01*
X210204Y599282D02*
G03X210827Y601575I-3905J2293D01*
G01X210204Y599282D02*
G03X210039Y598924I1697J-996D01*
G01X209654Y597800*
G03X209547Y597162I1862J-638*
G01Y579491*
G03X209701Y578729I1969J-0*
G01X210782Y576152*
G03X210992Y575773I1815J761*
G01X202559Y568066D02*
G03X210992Y575773I3740J4375D01*
G01X202559Y568066D02*
G03X199311Y566570I-1279J-1496D01*
G01Y549921*
X198360Y547625D02*
G03X199311Y549921I-2297J2296D01*
G01X198360Y547625D02*
X194299Y543563D01*
G03X193870Y542919I1392J-1392*
G01X192832Y540394*
G03X192713Y539979I1821J-748*
G01X192509Y539160D02*
G03X192713Y539979I-5422J1785D01*
G01X192509Y539160D02*
G03X195187Y536749I1870J-616D01*
G01X197126Y537165D02*
G03X195187Y536749I-0J-4724D01*
G01X197126Y537165D02*
X202443D01*
G03X203426Y537428I-0J1969*
G01X210625Y536239D02*
G03X203426Y537428I-4326J-3798D01*
G01X210625Y536239D02*
G03X213644Y536311I1479J1298D01*
G01X218403Y538457D02*
G03X213644Y536311I-293J-5701D01*
G01X218403Y538457D02*
G03X220472Y540423I101J1966D01*
G01Y545089*
G03X218403Y547055I-1968J-0*
G01Y558457D02*
G03Y547055I-293J-5701D01*
G01Y558457D02*
G03X220472Y560423I101J1966D01*
G01Y573468*
G03X218717Y575425I-1968J-0*
G01Y585992D02*
G03Y575425I574J-5283D01*
G01Y585992D02*
G03X220472Y587949I-213J1957D01*
G01Y599606*
X220597Y600425D02*
G03X220472Y599606I2631J-819D01*
G01X220597Y600425D02*
G03X218553Y602971I-1880J585D01*
G01X213971Y604933D02*
G03X218553Y602971I4139J3335D01*
G01X213971Y604933D02*
G03X213228Y605501I-1533J-1235D01*
X213244Y605750I-1952J249*
X213123Y606431I-1968J0*
G01X221127Y612644D02*
G03X213123Y606431I-3017J-4376D01*
G01X221127Y612644D02*
G03X224213Y614264I1117J1620D01*
G01Y618701*
X226969Y621457D02*
G03X224213Y618701I-0J-2756D01*
G01X226969Y621457D02*
X226995D01*
G03X228633Y622333I0J1968*
G01X231732Y626981*
G03X232062Y628073I-1638J1092*
X230050Y630041I-1968J-0*
G01X225322Y632367D02*
G03X230050Y630041I4599J3381D01*
G01X225322Y632367D02*
G03X222215Y632451I-1586J-1166D01*
G01X222260Y639148D02*
G03X222215Y632451I-4150J-3321D01*
G01X222260Y639148D02*
G03X225367Y639191I1537J1230D01*
G01X231971Y641076D02*
G03X225367Y639191I-2050J-5328D01*
G01X231971Y641076D02*
G03X234646Y642914I706J1838D01*
G01Y645552*
G03X234486Y646329I-1969J0*
G01X243807Y651351D02*
G03X234486Y646329I-4437J-2926D01*
G01X243807Y651351D02*
G03X246843Y651042I1644J1083D01*
G01X251211Y655411*
G03X251636Y657562I-1392J1392*
G01X183369Y536613D02*
G03X188613Y535444I3718J4332D01*
G01X183369Y536613D02*
G03X180805I-1282J-1494D01*
G01X173369D02*
G03X180805I3718J4332D01*
G01X173369D02*
G03X170805I-1282J-1494D01*
G01X164118Y536069D02*
G03X170805Y536613I2969J4876D01*
G01X164118Y536069D02*
G03X161821Y535890I-1024J-1681D01*
G01X160039Y535236D02*
G03X161821Y535890I0J2756D01*
G01X160039Y535236D02*
X156680D01*
G03X155680Y531572I-0J-1968*
G01X158512Y526614D02*
G03X155680Y531572I-5756J0D01*
G01X156905Y522624D02*
G03X158512Y526614I-4149J3990D01*
G01X156905Y522624D02*
G03X158323Y519291I1418J-1364D01*
G01X188295*
G03X190246Y520999I-0J1969*
G01X190258Y521090*
G03X190276Y521351I-1951J261*
G01Y530315*
X190863Y532597D02*
G03X190276Y530315I4137J-2282D01*
G01X190863Y532597D02*
G03X188613Y535444I-1724J950D01*
G01X192815Y564251D02*
G03X189882Y565968I-1969J0D01*
G01X183369Y566613D02*
G03X189882Y565968I3718J4332D01*
G01X183369Y566613D02*
G03X180805I-1282J-1494D01*
G01X179300Y565683D02*
G03X180805Y566613I-2213J5262D01*
G01X179300Y565683D02*
G03X179304Y562052I763J-1815D01*
G01X182087Y557874D02*
G03X179304Y562052I-4528J0D01*
G01X182087Y557874D02*
X182087D01*
X181463Y555582D02*
G03X182087Y557874I-3904J2292D01*
G01X181463Y555582D02*
G03X181299Y555224I1698J-997D01*
G01X180914Y554100*
G03X180807Y553461I1862J-639*
G01Y547297*
G03X183881Y545669I1969J0*
G01X185632Y546465D02*
G03X183881Y545669I1455J-5520D01*
G01X185632Y546465D02*
G03X186702Y549554I-501J1904D01*
G01X190873Y558070D02*
G03X186702Y549554I72J-5314D01*
G01X190873Y558070D02*
G03X192815Y560039I-27J1969D01*
G01Y564251*
Y598256D02*
G03X191013Y600217I-1969J-0D01*
G01X189053Y600746D02*
G03X191013Y600217I2443J5160D01*
G01X189053Y600746D02*
G03X186299Y598498I-842J-1779D01*
G01X186465Y597126D02*
G03X186299Y598498I-5756J-0D01*
G01X186465Y597126D02*
X186465D01*
X185646Y594167D02*
G03X186465Y597126I-4937J2959D01*
G01X185646Y594167D02*
G03X185824Y591893I1688J-1012D01*
G01X186465Y590126D02*
G03X185824Y591893I-2756J-0D01*
G01X186465Y590126D02*
Y584126D01*
X183709Y581370D02*
G03X186465Y584126I-0J2756D01*
G01X183709Y581370D02*
X177709D01*
X177679D02*
G03X177709I30J2756D01*
G01X177679D02*
G03X175689Y579402I-21J-1968D01*
G01Y578601*
G03X177511Y576638I1969J-0*
G01X180805Y575277D02*
G03X177511Y576638I-3718J-4332D01*
G01X180805Y575277D02*
G03X183369I1282J1494D01*
G01X189882Y575922D02*
G03X183369Y575277I-2795J-4977D01*
G01X189882Y575922D02*
G03X192815Y577638I964J1716D01*
G01Y598256*
X169193Y563269D02*
G03X167189Y565237I-1969J-0D01*
G01X163369Y566613D02*
G03X167189Y565237I3718J4332D01*
G01X163369Y566613D02*
G03X160805I-1282J-1494D01*
G01X154638Y565788D02*
G03X160805Y566613I2449J5157D01*
G01X154638Y565788D02*
G03X151917Y563415I-844J-1778D01*
G01X152165Y561811D02*
G03X151917Y563415I-5315J0D01*
G01X146545Y556505D02*
G03X152165Y561811I305J5306D01*
G01X146545Y556505D02*
G03X144523Y554058I-113J-1965D01*
G01X144685Y552756D02*
G03X144523Y554058I-5315J-0D01*
G01X144685Y552756D02*
X144685D01*
X139676Y558062D02*
G03X144685Y552756I-306J-5306D01*
G01X139676Y558062D02*
G03X141697Y560509I113J1965D01*
G01X141535Y561811D02*
G03X141697Y560509I5315J0D01*
G01X141535Y561811D02*
X141535D01*
X142449Y564790D02*
G03X141535Y561811I4401J-2979D01*
G01X142449Y564790D02*
G03X142647Y565163I-1630J1104D01*
G01X143462Y567202*
G03X143602Y567933I-1828J731*
G01Y573701*
X144554Y575998D02*
G03X143602Y573701I2296J-2297D01*
G01X144554Y575998D02*
X147671Y579115D01*
G03X148248Y580507I-1391J1392*
G01Y581704*
G03X144519Y582584I-1968J-0*
G01X137721Y579643D02*
G03X144519Y582584I1649J5514D01*
G01X137721Y579643D02*
G03X135209Y578035I-564J-1886D01*
G01X134583Y576644D02*
G03X135209Y578035I-2103J1781D01*
G01X134583Y576644D02*
G03X134116Y575371I1502J-1273D01*
X134403Y574347I1969J-0*
G01X125136Y567730D02*
G03X134403Y574347I4392J3648D01*
G01X125136Y567730D02*
G03X121654Y566472I-1514J-1258D01*
G01Y521260*
G03X123622Y519291I1968J-0*
G01X136323*
G03X137715Y519868I0J1969*
G01X146758Y528911*
X147477Y529453D02*
G03X146758Y528911I1578J-2839D01*
G01X147477Y529453D02*
G03X148110Y530012I-956J1721D01*
G01X151680Y532269D02*
G03X148110Y530012I1076J-5655D01*
G01X151680Y532269D02*
G03X153281Y534203I-367J1934D01*
X152488Y535782I-1968J-0*
G01X151378Y537992D02*
G03X152488Y535782I2756J0D01*
G01X151378Y537992D02*
Y543898D01*
X154134Y546654D02*
G03X151378Y543898I-0J-2756D01*
G01X154134Y546654D02*
X157386D01*
G03X158778Y547230I0J1968*
G01X168616Y557068*
G03X169193Y558460I-1392J1392*
G01Y563269*
X148248Y589505D02*
G03X144651Y590610I-1968J-0D01*
G01X144485Y590391D02*
G03X144651Y590610I-2115J1766D01*
G01X144485Y590391D02*
G03X144027Y589128I1511J-1263D01*
X144307Y588116I1969J0*
G01X144519Y587731D02*
G03X144307Y588116I-5149J-2574D01*
G01X144519Y587731D02*
G03X148248Y588611I1761J880D01*
G01Y589505*
X137205Y206299D02*
X137205D01*
X127734Y210593D02*
G03X137205Y206299I3762J-4294D01*
G01X127734Y210593D02*
G03X128406Y212074I-1297J1481D01*
X127654Y213622I-1969J0*
G01X125560Y217113D02*
G03X127654Y213622I5621J997D01*
G01X125560Y217113D02*
G03X125063Y218110I-1938J-344D01*
X125560Y219108I-1441J1342*
G01X134943Y213816D02*
G03X125560Y219108I-3762J4294D01*
G01X134943Y213816D02*
G03X134271Y212335I1297J-1481D01*
X135023Y210788I1969J0*
G01X137205Y206299D02*
G03X135023Y210788I-5709J0D01*
G01X150984Y351969D02*
G03X150984I-5708J0D01*
G01X273437Y431495D02*
X290945D01*
X281247Y427951D02*
X290945D01*
X282408Y424408D02*
X290945D01*
X281102Y420865D02*
X290945D01*
X258909Y417322D02*
X290945D01*
X252032Y413778D02*
X290945D01*
X271776Y396062D02*
X290945D01*
X273341Y392518D02*
X290945D01*
X272434Y388975D02*
X290945D01*
X272964Y435038D02*
X290905D01*
X261443Y410235D02*
X290758D01*
X244596Y385432D02*
X290385D01*
X279637Y399605D02*
X283788D01*
X244488Y374802D02*
X283206D01*
X244488Y371259D02*
X282058D01*
X244701Y381888D02*
X281338D01*
X244840Y378345D02*
X280951D01*
X244488Y367715D02*
X280827D01*
X257818Y399605D02*
X273763D01*
X262556Y420865D02*
X272298D01*
X262795Y406692D02*
X271429D01*
X261441Y403148D02*
X271154D01*
X262418Y424408D02*
X270992D01*
X262301Y396062D02*
X262938D01*
X252588Y417322D02*
X256052D01*
X244488Y364172D02*
X251575D01*
X244488Y360629D02*
X251575D01*
X244488Y357085D02*
X251575D01*
X244488Y353542D02*
X251575D01*
X244488Y349999D02*
X251575D01*
X244488Y346455D02*
X251575D01*
X244492Y342912D02*
X251575D01*
X245020Y339369D02*
X251575D01*
X243274Y335825D02*
X251575D01*
X245932Y332282D02*
X251575D01*
X247475Y328739D02*
X251575D01*
X246549Y325196D02*
X251575D01*
X207804Y321652D02*
X251575D01*
X209547Y318109D02*
X251575D01*
X209547Y314566D02*
X251575D01*
X209547Y311022D02*
X251575D01*
X209547Y307479D02*
X251575D01*
X209547Y303936D02*
X251575D01*
X209547Y300392D02*
X251575D01*
X209547Y296849D02*
X251575D01*
X244654Y293306D02*
X251575D01*
X247311Y289762D02*
X251575D01*
X247081Y286219D02*
X251575D01*
X243231Y282676D02*
X251575D01*
X232843Y293306D02*
X238811D01*
X235097Y325196D02*
X236557D01*
X221032Y293306D02*
X227000D01*
X223286Y325196D02*
X224746D01*
X210522Y293306D02*
X215189D01*
X210661Y325196D02*
X213219D01*
X250098Y399605D02*
X256861D01*
X250614Y403148D02*
X253520D01*
X233582Y282676D02*
X240234D01*
X244488Y424408D02*
X252543D01*
X245042Y420865D02*
X252170D01*
X250632Y427951D02*
X251680D01*
X234121Y332282D02*
X237532D01*
X204634Y335825D02*
X236684D01*
X229506Y431495D02*
X235039D01*
X218209Y427951D02*
X235039D01*
X218209Y424408D02*
X235039D01*
X218221Y420865D02*
X235039D01*
X219722Y417322D02*
X235039D01*
X221090Y413778D02*
X235039D01*
X227277Y410235D02*
X235039D01*
X230453Y406692D02*
X235039D01*
X230401Y403148D02*
X235039D01*
X227420Y399605D02*
X235039D01*
X226196Y396062D02*
X235039D01*
X230176Y392518D02*
X235039D01*
X230664Y388975D02*
X235039D01*
X228502Y385432D02*
X235039D01*
X220380Y374802D02*
X235039D01*
X218248Y371259D02*
X235039D01*
X218248Y367715D02*
X235039D01*
X227493Y364172D02*
X235039D01*
X229666Y360629D02*
X235039D01*
X228953Y357085D02*
X235039D01*
X229537Y353542D02*
X235039D01*
X230756Y349999D02*
X235039D01*
X229535Y346455D02*
X235039D01*
X204429Y342912D02*
X235036D01*
X230740Y435038D02*
X234996D01*
X223327Y381888D02*
X234826D01*
X223239Y378345D02*
X234688D01*
X204429Y339369D02*
X234508D01*
X222310Y332282D02*
X225721D01*
X219107Y364172D02*
X221326D01*
X204429Y381888D02*
X216831D01*
X204429Y378345D02*
X214736D01*
X211029Y332282D02*
X213910D01*
X204429Y374802D02*
X211849D01*
X204429Y371259D02*
X211752D01*
X204429Y367715D02*
X211752D01*
X204429Y364172D02*
X211752D01*
X204429Y360629D02*
X211752D01*
X204429Y357085D02*
X211752D01*
X204429Y385432D02*
X211498D01*
X204429Y346455D02*
X210465D01*
X204429Y353542D02*
X210437D01*
X204518Y392518D02*
X209824D01*
X204429Y388975D02*
X209336D01*
X204429Y349999D02*
X209244D01*
X164193Y243699D02*
X193701D01*
X164282Y247243D02*
X193638D01*
X170016Y240156D02*
X193033D01*
X167506Y250786D02*
X186271D01*
X170142Y254329D02*
X174196D01*
X181988Y264959D02*
X193701D01*
X182553Y261416D02*
X193701D01*
X182580Y268503D02*
X188306D01*
X184354Y257873D02*
X186979D01*
X190571Y282676D02*
X194855D01*
X131740D02*
X190531D01*
X181170Y279133D02*
X188121D01*
X134327Y293306D02*
X186042D01*
X136650Y286219D02*
X185791D01*
X137072Y289762D02*
X185369D01*
X145737Y279133D02*
X176310D01*
X148837Y272046D02*
X173210D01*
X148850Y275589D02*
X173197D01*
X143297Y413778D02*
X166437D01*
X146704Y417322D02*
X166177D01*
X150352Y420865D02*
X162731D01*
X160136Y268503D02*
X161911D01*
X150232Y374802D02*
X161752D01*
X150940Y371259D02*
X161752D01*
X149083Y367715D02*
X161752D01*
X127039Y364172D02*
X161752D01*
X123566Y360629D02*
X161752D01*
X147807Y357085D02*
X161752D01*
X150589Y424408D02*
X161543D01*
X148032Y396062D02*
X161504D01*
X147637Y385432D02*
X161130D01*
X148032Y399605D02*
X160768D01*
X146830Y410235D02*
X160502D01*
X150763Y353542D02*
X160437D01*
X143615Y378345D02*
X160024D01*
X144555Y381888D02*
X159884D01*
X146757Y346455D02*
X159860D01*
X148032Y392518D02*
X159824D01*
X148032Y388975D02*
X159336D01*
X148032Y406692D02*
X159291D01*
X148032Y403148D02*
X159291D01*
X150634Y349999D02*
X159244D01*
X156267Y296849D02*
X158784D01*
X121694Y194093D02*
X153971D01*
X133009Y296849D02*
X153969D01*
X121654Y197636D02*
X153873D01*
X121654Y257873D02*
X151861D01*
X121654Y261416D02*
X150776D01*
X131965Y342912D02*
X150573D01*
X135951Y335825D02*
X150394D01*
X132880Y332282D02*
X150394D01*
X132074Y328739D02*
X150392D01*
X135419Y307479D02*
X149922D01*
X136727Y339369D02*
X149862D01*
X136812Y300392D02*
X149790D01*
X137094Y303936D02*
X149609D01*
X121654Y264959D02*
X149423D01*
X145552Y268503D02*
X149413D01*
X134022Y201180D02*
X148970D01*
X121654Y254329D02*
X148949D01*
X134343Y211810D02*
X148388D01*
X134902Y222440D02*
X146768D01*
X121654Y250786D02*
X146382D01*
X121654Y247243D02*
X146358D01*
X121654Y243699D02*
X146358D01*
X121654Y225983D02*
X146358D01*
X137032Y311022D02*
X146195D01*
X136180Y215353D02*
X146182D01*
X136855Y208266D02*
X146137D01*
X136983Y204723D02*
X146009D01*
X121654Y240156D02*
X145690D01*
X136835Y218896D02*
X145527D01*
X136905Y314566D02*
X143996D01*
X135483Y318109D02*
X143994D01*
X122835Y346455D02*
X143794D01*
X136633Y325196D02*
X143651D01*
X137174Y321652D02*
X142786D01*
X122835Y357085D02*
X142744D01*
X130511Y367715D02*
X141468D01*
X133741Y268503D02*
X141062D01*
X133926Y279133D02*
X140877D01*
X122835Y349999D02*
X139918D01*
X122835Y353542D02*
X139788D01*
X133984Y371259D02*
X139611D01*
X121654Y282676D02*
X131724D01*
X121654Y268503D02*
X129251D01*
X121654Y279133D02*
X129066D01*
X121654Y201180D02*
X128970D01*
X121654Y211810D02*
X128388D01*
X121654Y222440D02*
X127460D01*
X121679Y286219D02*
X127129D01*
X123014Y342912D02*
X127090D01*
X121654Y215353D02*
X126182D01*
X121654Y208266D02*
X126137D01*
X121654Y204723D02*
X126009D01*
X121654Y229526D02*
X126005D01*
X121654Y272046D02*
X125979D01*
X121654Y275589D02*
X125953D01*
X121654Y236613D02*
X125689D01*
X121654Y233070D02*
X125689D01*
X121734Y218896D02*
X125511D01*
X160374Y339369D02*
X197933D01*
X159877Y342912D02*
X197930D01*
X160219Y335825D02*
X196782D01*
X189946Y371259D02*
X197933D01*
X188215Y367715D02*
X197933D01*
X190959Y374802D02*
X192640D01*
X178248Y364172D02*
X191103D01*
X178248Y357085D02*
X189828D01*
X178248Y360629D02*
X189326D01*
X179527Y367715D02*
X180906D01*
X172933Y381888D02*
X189613D01*
X174477Y378345D02*
X189470D01*
X178502Y385432D02*
X181498D01*
X178000Y374802D02*
X180264D01*
X197277Y410235D02*
X202269D01*
X172933Y413778D02*
X200920D01*
X186468Y417322D02*
X197376D01*
X189977Y424408D02*
X196358D01*
X190115Y420865D02*
X196358D01*
X187193Y427951D02*
X196263D01*
X187277Y410235D02*
X192724D01*
X172933Y417322D02*
X183611D01*
X168248Y427951D02*
X182856D01*
X177277Y410235D02*
X182724D01*
X168488Y424408D02*
X180102D01*
X171918Y420865D02*
X179963D01*
X139075Y498818D02*
X183465D01*
X139075Y495274D02*
X183465D01*
X155392Y491731D02*
X183463D01*
X139239Y502361D02*
X183312D01*
X150352Y477558D02*
X156201D01*
X150212Y474014D02*
X156201D01*
X121654Y470471D02*
X156201D01*
X121654Y466928D02*
X156201D01*
X121654Y463385D02*
X156201D01*
X121899Y438581D02*
X155910D01*
X122061Y435038D02*
X154855D01*
X125580Y431495D02*
X151222D01*
X128230Y459841D02*
X151219D01*
X129124Y427951D02*
X150985D01*
X136615Y491731D02*
X150120D01*
X129899Y452755D02*
X149550D01*
X128956Y449211D02*
X149132D01*
X130389Y456298D02*
X149060D01*
X129541Y442125D02*
X148973D01*
X130467Y445668D02*
X148968D01*
X133704Y484644D02*
X147348D01*
X132665Y488188D02*
X147219D01*
X132293Y481101D02*
X143838D01*
X121654Y474014D02*
X140339D01*
X132667Y424408D02*
X140338D01*
X124003Y477558D02*
X140199D01*
X136210Y420865D02*
X139725D01*
X387860Y648424D02*
X408268D01*
X387438Y644881D02*
X408268D01*
X385937Y641337D02*
X408268D01*
X387478Y637794D02*
X408268D01*
X387898Y634251D02*
X408268D01*
X385149Y630707D02*
X408268D01*
X377349Y627164D02*
X408268D01*
X375786Y623621D02*
X408268D01*
X363091Y620077D02*
X408268D01*
X363091Y616534D02*
X408268D01*
X373410Y612991D02*
X408268D01*
X377041Y609448D02*
X408268D01*
X395437Y651967D02*
X399314D01*
X378097Y630707D02*
X380284D01*
X363471Y612991D02*
X369897D01*
X363091Y623621D02*
X367521D01*
X302756Y322440D02*
X324706D01*
X303373Y318896D02*
X322964D01*
X306096Y315353D02*
X319315D01*
X302756Y336613D02*
X316850D01*
X302756Y350786D02*
X316838D01*
X302756Y354329D02*
X316056D01*
X307376Y311810D02*
X313171D01*
X302756Y357873D02*
X311599D01*
X303019Y361416D02*
X310942D01*
X302756Y333070D02*
X310161D01*
X302756Y340156D02*
X309029D01*
X302756Y347243D02*
X308316D01*
X302756Y325983D02*
X307838D01*
X302756Y329526D02*
X307416D01*
X302756Y343699D02*
X307298D01*
X310271Y467715D02*
X321949D01*
X311376Y464172D02*
X321949D01*
X310015Y460629D02*
X321780D01*
X302756Y446455D02*
X319980D01*
X312230Y442912D02*
X319980D01*
X313583Y439369D02*
X319980D01*
X312992Y435825D02*
X319980D01*
X312992Y432282D02*
X319980D01*
X312992Y428739D02*
X319980D01*
X312992Y425196D02*
X319980D01*
X312992Y421652D02*
X319980D01*
X312992Y418109D02*
X319980D01*
X312992Y414566D02*
X319980D01*
X312992Y411022D02*
X319980D01*
X312992Y407479D02*
X319980D01*
X312992Y403936D02*
X319980D01*
X312992Y400392D02*
X319980D01*
X312992Y396849D02*
X319980D01*
X312992Y393306D02*
X319980D01*
X312992Y389762D02*
X319980D01*
X309387Y449999D02*
X319839D01*
X313172Y386219D02*
X319791D01*
X310669Y457085D02*
X318073D01*
X311323Y453542D02*
X317653D01*
X309228Y471259D02*
X313456D01*
X304041Y488975D02*
X322824D01*
X307500Y485432D02*
X321949D01*
X308917Y481888D02*
X321945D01*
X310192Y478345D02*
X311579D01*
X314211Y552755D02*
X334941D01*
X308619Y535038D02*
X334941D01*
X308976Y538581D02*
X334276D01*
X307874Y531495D02*
X331060D01*
X322586Y517322D02*
X329823D01*
X315495Y513778D02*
X329823D01*
X314567Y510235D02*
X329823D01*
X314567Y506692D02*
X329823D01*
X324121Y520865D02*
X329779D01*
X314962Y503148D02*
X329610D01*
X323841Y524408D02*
X328218D01*
X321443Y527951D02*
X327937D01*
X314173Y549211D02*
X326791D01*
X314705Y545668D02*
X326476D01*
X313993Y542125D02*
X326476D01*
X308172Y527951D02*
X311628D01*
X334828Y584644D02*
X350000D01*
X333100Y588188D02*
X348951D01*
X326476Y591731D02*
X345408D01*
X333808Y581101D02*
X343672D01*
X326543Y577558D02*
X341944D01*
X326476Y595274D02*
X341865D01*
X326476Y598818D02*
X339296D01*
X327457Y602361D02*
X334566D01*
X326476Y574014D02*
X333531D01*
X326492Y566928D02*
X331654D01*
X326476Y570471D02*
X331358D01*
X293275Y598818D02*
X319980D01*
X294277Y595274D02*
X319980D01*
X297008Y574014D02*
X319980D01*
X297008Y570471D02*
X319980D01*
X297008Y566928D02*
X319965D01*
X315646Y602361D02*
X319878D01*
X297011Y577558D02*
X314814D01*
X292546Y591731D02*
X312772D01*
X297308Y581101D02*
X309945D01*
X302442Y602361D02*
X309551D01*
X282422Y588188D02*
X309533D01*
X294563Y584644D02*
X308868D01*
X292967Y602361D02*
X299133D01*
X281709Y584644D02*
X289688D01*
X279626Y538581D02*
X289252D01*
X277658Y574014D02*
X287559D01*
X277658Y570471D02*
X287559D01*
X277464Y566928D02*
X287559D01*
X275253Y563385D02*
X287559D01*
X281857Y559841D02*
X287559D01*
X282087Y556298D02*
X287559D01*
X282085Y552755D02*
X287559D01*
X277658Y577558D02*
X287365D01*
X281051Y549211D02*
X287256D01*
X280835Y542125D02*
X287173D01*
X277737Y581101D02*
X286944D01*
X282085Y545668D02*
X286530D01*
X280248Y591731D02*
X285407D01*
X278819Y602361D02*
X284985D01*
X273442Y598818D02*
X284677D01*
X272224Y595274D02*
X283676D01*
X222871Y605904D02*
X227165D01*
X135108Y655510D02*
X251304D01*
X247714Y659054D02*
X250961D01*
X243333Y651967D02*
X247767D01*
X145816D02*
X235407D01*
X145813Y644881D02*
X234646D01*
X147047Y648424D02*
X234055D01*
X231083Y641337D02*
X233856D01*
X204429Y627164D02*
X231840D01*
X204837Y623621D02*
X229492D01*
X203252Y641337D02*
X228760D01*
X212281Y659054D02*
X228613D01*
X212982Y666140D02*
X228375D01*
X213923Y662597D02*
X228346D01*
X219539Y630707D02*
X227242D01*
X206363Y620077D02*
X224581D01*
X205942Y616534D02*
X224213D01*
X220548Y612991D02*
X223745D01*
X210002Y598818D02*
X220472D01*
X209547Y595274D02*
X220472D01*
X209547Y591731D02*
X220472D01*
X209547Y588188D02*
X220472D01*
X211708Y570471D02*
X220472D01*
X207953Y566928D02*
X220472D01*
X199311Y563385D02*
X220472D01*
X193543Y542125D02*
X220472D01*
X211836Y574014D02*
X220395D01*
X196403Y545668D02*
X220385D01*
X199311Y559841D02*
X220384D01*
X210758Y602361D02*
X220149D01*
X192411Y538581D02*
X219199D01*
X204562Y630707D02*
X216682D01*
X209547Y584644D02*
X215719D01*
X203086Y612991D02*
X215673D01*
X210192Y577558D02*
X215011D01*
X209547Y581101D02*
X213991D01*
X199232Y549211D02*
X213635D01*
X199311Y556298D02*
X213633D01*
X207828Y605904D02*
X213238D01*
X206883Y637794D02*
X213173D01*
X206960Y634251D02*
X213034D01*
X205973Y609448D02*
X212928D01*
X199311Y552755D02*
X212402D01*
X199344Y566928D02*
X204645D01*
X193252Y641337D02*
X199740D01*
X137833Y659054D02*
X193180D01*
X166178Y666140D02*
X192941D01*
X140342Y662597D02*
X192913D01*
X183252Y641337D02*
X189740D01*
X183856Y630707D02*
X188709D01*
X181560Y620077D02*
X188248D01*
X181139Y616534D02*
X188248D01*
X180032Y612991D02*
X188248D01*
X178815Y623621D02*
X188049D01*
X121654Y627164D02*
X187881D01*
X173252Y641337D02*
X179740D01*
X173856Y630707D02*
X179136D01*
X121654Y623621D02*
X173940D01*
X121654Y612991D02*
X172735D01*
X121654Y616534D02*
X171617D01*
X121654Y620077D02*
X171196D01*
X163252Y641337D02*
X169740D01*
X163856Y630707D02*
X169136D01*
X153252Y641337D02*
X159740D01*
X153856Y630707D02*
X159136D01*
X146570Y666140D02*
X156657D01*
X144102Y641337D02*
X149740D01*
X143856Y630707D02*
X149136D01*
X133856D02*
X139136D01*
X133252Y641337D02*
X138785D01*
X121654Y644881D02*
X136864D01*
X130254Y651967D02*
X136858D01*
X121846Y648424D02*
X135630D01*
X121654Y641337D02*
X129740D01*
X121654Y630707D02*
X129136D01*
X121654Y598818D02*
X126280D01*
X121654Y595274D02*
X126280D01*
X121654Y591731D02*
X126280D01*
X121654Y588188D02*
X126258D01*
X121654Y637794D02*
X126109D01*
X121654Y634251D02*
X126033D01*
X121654Y602361D02*
X125852D01*
X121654Y609448D02*
X125851D01*
X121654Y605904D02*
X125787D01*
X155807Y531495D02*
X190425D01*
X155819Y535038D02*
X190425D01*
X158354Y527951D02*
X190276D01*
X158072Y524408D02*
X190276D01*
X156395Y520865D02*
X190223D01*
X178155Y563385D02*
X192815D01*
X181637Y559841D02*
X192805D01*
X181803Y556298D02*
X186982D01*
X180807Y549211D02*
X186910D01*
X180807Y552755D02*
X185630D01*
X181671Y545668D02*
X183880D01*
X181310Y566928D02*
X182864D01*
X186159Y595274D02*
X192815D01*
X185949Y591731D02*
X192815D01*
X186465Y588188D02*
X192815D01*
X186465Y584644D02*
X192815D01*
X176664Y581101D02*
X192815D01*
X175988Y577558D02*
X192813D01*
X186248Y598818D02*
X192733D01*
X151787Y559841D02*
X169193D01*
X151927Y563385D02*
X169189D01*
X145547Y556298D02*
X167846D01*
X144685Y552755D02*
X164303D01*
X161310Y566928D02*
X162864D01*
X143330Y549211D02*
X160760D01*
X121654Y535038D02*
X153095D01*
X121654Y545668D02*
X152022D01*
X121654Y542125D02*
X151378D01*
X121654Y538581D02*
X151378D01*
X121654Y531495D02*
X149705D01*
X143454Y581101D02*
X148248D01*
X135096Y577558D02*
X146114D01*
X121654Y527951D02*
X145799D01*
X134591Y574014D02*
X143618D01*
X135164Y570471D02*
X143602D01*
X133103Y566928D02*
X143352D01*
X121654Y524408D02*
X142256D01*
X121654Y563385D02*
X141774D01*
X121654Y559841D02*
X141748D01*
X121694Y520865D02*
X138712D01*
X121654Y549211D02*
X135410D01*
X121654Y556298D02*
X135407D01*
X121654Y552755D02*
X134055D01*
X121707Y566928D02*
X125952D01*
X144267Y588188D02*
X148202D01*
G54D30*
X155672Y210475D02*
X151496Y208760D01*
X153957Y206299*
X155672Y210475*
X152972Y207283D02*
X154361D01*
X151988Y208268D02*
X154765D01*
X152694Y209252D02*
X155170D01*
X155090Y210236D02*
X155574D01*
X152165Y208091D02*
Y209035D01*
X153150Y207106D02*
Y209439D01*
X154134Y206731D02*
Y209843D01*
X155118Y209127D02*
Y210248D01*
X166929Y259449D02*
X168669Y263614D01*
X165189*
X166929Y259449*
X166929*
X166518Y260433D02*
X167340D01*
X166107Y261417D02*
X167751D01*
X165696Y262402D02*
X168162D01*
X165285Y263386D02*
X168574D01*
X165945Y261805D02*
Y263614D01*
X166929Y259449D02*
Y263614D01*
X167913Y261805D02*
Y263614D01*
X271082Y209586D02*
X267974Y208753D01*
X270249Y206478*
X271082Y209586*
X269444Y207283D02*
X270465D01*
X268459Y208268D02*
X270729D01*
X269835Y209252D02*
X270993D01*
X268307Y208420D02*
Y208843D01*
X269291Y207436D02*
Y209106D01*
X270276Y206575D02*
Y209370D01*
X261554Y210058D02*
X257795Y208760D01*
X260256Y206299*
X261554Y210058*
X259272Y207283D02*
X260596D01*
X258287Y208268D02*
X260936D01*
X259220Y209252D02*
X261276D01*
X258465Y208091D02*
Y208991D01*
X259449Y207106D02*
Y209331D01*
X260433Y206812D02*
Y209671D01*
X261417Y209661D02*
Y210011D01*
X155118Y259449D02*
X156858Y263614D01*
X153378*
X155118Y259449*
X155118*
X154707Y260433D02*
X155529D01*
X154296Y261417D02*
X155940D01*
X153885Y262402D02*
X156351D01*
X153474Y263386D02*
X156763D01*
X154134Y261805D02*
Y263614D01*
X155118Y259449D02*
Y263614D01*
X156102Y261805D02*
Y263614D01*
X257801Y239764D02*
X256057Y235600D01*
X259537Y235597*
X257801Y239764*
X256152Y235827D02*
X259441D01*
X256564Y236811D02*
X259031D01*
X256976Y237795D02*
X258621D01*
X257388Y238780D02*
X258211D01*
X257801Y239764D02*
X257801D01*
X256496Y235599D02*
Y236648D01*
X257480Y235598D02*
Y238999D01*
X258465Y235598D02*
Y238170D01*
X259449Y235597D02*
Y235808D01*
X294488Y248819D02*
X293027Y245162D01*
X295950*
X294488Y248819*
X293229Y245669D02*
X295747D01*
X293623Y246654D02*
X295354D01*
X294016Y247638D02*
X294960D01*
X294410Y248622D02*
X294567D01*
X293898Y245162D02*
Y247341D01*
X294882Y245162D02*
Y247834D01*
X295866Y245162D02*
Y245371D01*
X229921Y265748D02*
X228460Y262091D01*
X231383*
X229921Y265748*
X228584Y262402D02*
X231259D01*
X228977Y263386D02*
X230865D01*
X229370Y264370D02*
X230472D01*
X229764Y265354D02*
X230079D01*
X228937Y262091D02*
Y263286D01*
X229921Y262091D02*
Y265748D01*
X230906Y262091D02*
Y263286D01*
X229921Y282346D02*
X231695Y286573D01*
X228148*
X229921Y282346*
X229617Y283071D02*
X230225D01*
X229204Y284055D02*
X230638D01*
X228791Y285039D02*
X231051D01*
X228378Y286024D02*
X231464D01*
X228937Y284692D02*
Y286573D01*
X229921Y282346D02*
Y286573D01*
X230906Y284692D02*
Y286573D01*
X178740Y267756D02*
X180550Y272049D01*
X176931*
X178740Y267756*
X178508Y268307D02*
X178972D01*
X178093Y269291D02*
X179387D01*
X177678Y270276D02*
X179802D01*
X177263Y271260D02*
X180217D01*
X177756Y270091D02*
Y272049D01*
X178740Y267756D02*
Y272049D01*
X179724Y270091D02*
Y272049D01*
X178740Y262205D02*
X177279Y258548D01*
X180202*
X178740Y262205*
X177639Y259449D02*
X179842D01*
X178032Y260433D02*
X179448D01*
X178425Y261417D02*
X179055D01*
X177756Y258548D02*
Y259742D01*
X178740Y258548D02*
Y262205D01*
X179724Y258548D02*
Y259742D01*
X221260Y275591D02*
X222721Y279247D01*
X219798*
X221260Y275591*
X221024Y276181D02*
X221496D01*
X220630Y277165D02*
X221889D01*
X220237Y278150D02*
X222283D01*
X219844Y279134D02*
X222676D01*
X220079Y278546D02*
Y279247D01*
X221063Y276083D02*
Y279247D01*
X222047Y277561D02*
Y279247D01*
X221260Y270472D02*
X219798Y266816D01*
X222721*
X221260Y270472*
X220001Y267323D02*
X222519D01*
X220394Y268307D02*
X222125D01*
X220788Y269291D02*
X221732D01*
X221181Y270276D02*
X221339D01*
X220079Y266816D02*
Y267517D01*
X221063Y266816D02*
Y269980D01*
X222047Y266816D02*
Y268502D01*
X275354Y267323D02*
X273614Y263157D01*
X277094*
X275354Y267323*
X273710Y263386D02*
X276999D01*
X274121Y264370D02*
X276588D01*
X274532Y265354D02*
X276177D01*
X274943Y266339D02*
X275765D01*
X275354Y267323D02*
X275354D01*
X274213Y263157D02*
Y264589D01*
X275197Y263157D02*
Y266946D01*
X276181Y263157D02*
Y265343D01*
X229921Y282346D02*
X231695Y286573D01*
X228148*
X229921Y282346*
X229617Y283071D02*
X230225D01*
X229204Y284055D02*
X230638D01*
X228791Y285039D02*
X231051D01*
X228378Y286024D02*
X231464D01*
X228937Y284692D02*
Y286573D01*
X229921Y282346D02*
Y286573D01*
X230906Y284692D02*
Y286573D01*
X229921Y265748D02*
X228460Y262091D01*
X231383*
X229921Y265748*
X228584Y262402D02*
X231259D01*
X228977Y263386D02*
X230865D01*
X229370Y264370D02*
X230472D01*
X229764Y265354D02*
X230079D01*
X228937Y262091D02*
Y263286D01*
X229921Y262091D02*
Y265748D01*
X230906Y262091D02*
Y263286D01*
X329997Y307950D02*
X326378Y306398D01*
X328445Y304331*
X329997Y307950*
X328051Y304724D02*
X328614D01*
X327067Y305709D02*
X329036D01*
X327066Y306693D02*
X329458D01*
X329361Y307677D02*
X329880D01*
X327362Y305413D02*
Y306820D01*
X328346Y304429D02*
Y307242D01*
X329331Y306396D02*
Y307664D01*
X127253Y306841D02*
X128988Y302598D01*
X131496Y305106*
X127253Y306841*
X128924Y302756D02*
X129146D01*
X128521Y303740D02*
X130130D01*
X128119Y304724D02*
X131114D01*
X127716Y305709D02*
X130023D01*
X127314Y306693D02*
X127616D01*
X127559Y306094D02*
Y306716D01*
X128543Y303686D02*
Y306314D01*
X129528Y303138D02*
Y305911D01*
X130512Y304122D02*
Y305509D01*
X131496Y305106D02*
X131496D01*
X147244Y318898D02*
X148149Y321536D01*
X146339*
X147244Y318898*
X147042Y319488D02*
X147447D01*
X146704Y320472D02*
X147784D01*
X146367Y321457D02*
X148122D01*
X147244Y318898D02*
Y321536D01*
X205000Y399390D02*
X206740Y403260D01*
X203260*
X205000Y399390*
X204638Y400197D02*
X205363D01*
X204195Y401181D02*
X205806D01*
X203753Y402165D02*
X206248D01*
X203310Y403150D02*
X206691D01*
X203346Y403069D02*
Y403260D01*
X204331Y400880D02*
Y403260D01*
X205315Y400090D02*
Y403260D01*
X206299Y402279D02*
Y403260D01*
Y294976D02*
X204526Y290750D01*
X208073*
X206299Y294976*
X204608Y290945D02*
X207991D01*
X205021Y291929D02*
X207578D01*
X205434Y292913D02*
X207165D01*
X205847Y293898D02*
X206752D01*
X206260Y294882D02*
X206339D01*
X205315Y290750D02*
Y292630D01*
X206299Y290750D02*
Y294976D01*
X207283Y290750D02*
Y292630D01*
X304815Y309485D02*
X303059Y313800D01*
X300500Y311241*
X304815Y309485*
X304420Y309646D02*
X304750D01*
X302002Y310630D02*
X304349D01*
X300873Y311614D02*
X303949D01*
X301857Y312598D02*
X303548D01*
X302842Y313583D02*
X303147D01*
X300787Y311124D02*
Y311528D01*
X301772Y310723D02*
Y312513D01*
X302756Y310323D02*
Y313497D01*
X303740Y309922D02*
Y312126D01*
X304724Y309522D02*
Y309708D01*
X308800Y301783D02*
X306573Y296727D01*
X311027*
X308800Y301783*
X306627Y296850D02*
X310973D01*
X307061Y297835D02*
X310539D01*
X307494Y298819D02*
X310106D01*
X307928Y299803D02*
X309672D01*
X308361Y300787D02*
X309239D01*
X308795Y301772D02*
X308805D01*
X306693Y296727D02*
Y297000D01*
X307677Y296727D02*
Y299234D01*
X308661Y296727D02*
Y301469D01*
X309646Y296727D02*
Y299863D01*
X310630Y296727D02*
Y297629D01*
X321336Y312674D02*
X317717Y311122D01*
X319783Y309055*
X321336Y312674*
X319193Y309646D02*
X320037D01*
X318209Y310630D02*
X320459D01*
X318864Y311614D02*
X320881D01*
X321159Y312598D02*
X321303D01*
X318504Y310335D02*
Y311460D01*
X319488Y309350D02*
Y311882D01*
X320472Y310662D02*
Y312304D01*
X372461Y332677D02*
X370999Y329021D01*
X373922*
X372461Y332677*
X371123Y329331D02*
X373798D01*
X371516Y330315D02*
X373405D01*
X371910Y331299D02*
X373011D01*
X372303Y332283D02*
X372618D01*
X371654Y329021D02*
Y330658D01*
X372638Y329021D02*
Y332234D01*
X373622Y329021D02*
Y329771D01*
X320098Y349213D02*
X318637Y345556D01*
X321560*
X320098Y349213*
X318840Y346063D02*
X321357D01*
X319233Y347047D02*
X320964D01*
X319626Y348031D02*
X320571D01*
X320020Y349016D02*
X320177D01*
X319488Y345556D02*
Y347686D01*
X320472Y345556D02*
Y348277D01*
X321457Y345556D02*
Y345814D01*
X320098Y338976D02*
X321560Y342633D01*
X318637*
X320098Y338976*
X320020Y339173D02*
X320177D01*
X319626Y340157D02*
X320571D01*
X319233Y341142D02*
X320964D01*
X318840Y342126D02*
X321357D01*
X319488Y340503D02*
Y342633D01*
X320472Y339912D02*
Y342633D01*
X321457Y342375D02*
Y342633D01*
X320098Y333465D02*
X318637Y329808D01*
X321560*
X320098Y333465*
X318840Y330315D02*
X321357D01*
X319233Y331299D02*
X320964D01*
X319626Y332283D02*
X320571D01*
X320020Y333268D02*
X320177D01*
X319488Y329808D02*
Y331938D01*
X320472Y329808D02*
Y332529D01*
X321457Y329808D02*
Y330066D01*
X215000Y356000D02*
X213227Y351773D01*
X216773*
X215000Y356000*
X213309Y351969D02*
X216691D01*
X213722Y352953D02*
X216279D01*
X214134Y353937D02*
X215866D01*
X214547Y354921D02*
X215453D01*
X214960Y355906D02*
X215040D01*
X214173Y351773D02*
Y354029D01*
X215157Y351773D02*
Y355625D01*
X216142Y351773D02*
Y353279D01*
X349213Y555512D02*
X350674Y559168D01*
X347751*
X349213Y555512*
X349134Y555709D02*
X349291D01*
X348741Y556693D02*
X349685D01*
X348347Y557677D02*
X350078D01*
X347954Y558661D02*
X350472D01*
X348031Y558467D02*
Y559168D01*
X349016Y556004D02*
Y559168D01*
X350000Y557482D02*
Y559168D01*
X346457Y279921D02*
X344995Y276265D01*
X347918*
X346457Y279921*
X345355Y277165D02*
X347558D01*
X345749Y278150D02*
X347165D01*
X346142Y279134D02*
X346771D01*
X345079Y276265D02*
Y276474D01*
X346063Y276265D02*
Y278936D01*
X347047Y276265D02*
Y278444D01*
X345413Y352106D02*
X343307Y351280D01*
X344587Y350000*
X345413Y352106*
X343602Y350984D02*
X344973D01*
X345063Y351969D02*
X345359D01*
X344094Y350492D02*
Y351588D01*
X345079Y351254D02*
Y351975D01*
X360236Y339370D02*
X358775Y335714D01*
X361698*
X360236Y339370*
X358977Y336220D02*
X361495D01*
X359371Y337205D02*
X361102D01*
X359764Y338189D02*
X360708D01*
X360158Y339173D02*
X360315D01*
X358858Y335714D02*
Y335923D01*
X359843Y335714D02*
Y338385D01*
X360827Y335714D02*
Y337893D01*
X165000Y356000D02*
X163227Y351773D01*
X166773*
X165000Y356000*
X163309Y351969D02*
X166691D01*
X163722Y352953D02*
X166279D01*
X164134Y353937D02*
X165866D01*
X164547Y354921D02*
X165453D01*
X164960Y355906D02*
X165040D01*
X163976Y351773D02*
Y353560D01*
X164961Y351773D02*
Y355906D01*
X165945Y351773D02*
Y353748D01*
X165000Y396000D02*
X163227Y391773D01*
X166773*
X165000Y396000*
X163457Y392323D02*
X166543D01*
X163870Y393307D02*
X166130D01*
X164283Y394291D02*
X165717D01*
X164696Y395276D02*
X165304D01*
X163976Y391773D02*
Y393560D01*
X164961Y391773D02*
Y395906D01*
X165945Y391773D02*
Y393748D01*
X185000Y396000D02*
X183227Y391773D01*
X186773*
X185000Y396000*
X183457Y392323D02*
X186543D01*
X183870Y393307D02*
X186130D01*
X184283Y394291D02*
X185717D01*
X184696Y395276D02*
X185304D01*
X183661Y391773D02*
Y392810D01*
X184646Y391773D02*
Y395155D01*
X185630Y391773D02*
Y394499D01*
X186614Y391773D02*
Y392153D01*
X175000Y396000D02*
X173227Y391773D01*
X176773*
X175000Y396000*
X173457Y392323D02*
X176543D01*
X173870Y393307D02*
X176130D01*
X174283Y394291D02*
X175717D01*
X174696Y395276D02*
X175304D01*
X173819Y391773D02*
Y393185D01*
X174803Y391773D02*
Y395531D01*
X175787Y391773D02*
Y394123D01*
X176772Y391773D02*
Y391777D01*
X215000Y396000D02*
X213227Y391773D01*
X216773*
X215000Y396000*
X213457Y392323D02*
X216543D01*
X213870Y393307D02*
X216130D01*
X214283Y394291D02*
X215717D01*
X214696Y395276D02*
X215304D01*
X214173Y391773D02*
Y394029D01*
X215157Y391773D02*
Y395625D01*
X216142Y391773D02*
Y393279D01*
X200650Y482776D02*
X204331Y483949D01*
X201823Y486457*
X200650Y482776*
X200681Y482874D02*
X200957D01*
X200995Y483858D02*
X204046D01*
X201309Y484843D02*
X203437D01*
X201622Y485827D02*
X202453D01*
X201378Y483008D02*
Y485060D01*
X202362Y483322D02*
Y485917D01*
X203346Y483635D02*
Y484933D01*
X204331Y483949D02*
X204331D01*
X214961Y420079D02*
X213499Y416422D01*
X216422*
X214961Y420079*
X213702Y416929D02*
X216220D01*
X214095Y417913D02*
X215826D01*
X214489Y418898D02*
X215433D01*
X214882Y419882D02*
X215039D01*
X214173Y416422D02*
Y418109D01*
X215157Y416422D02*
Y419586D01*
X216142Y416422D02*
Y417124D01*
X246850Y409843D02*
X248312Y413499D01*
X245389*
X246850Y409843*
X246772Y410039D02*
X246929D01*
X246378Y411024D02*
X247322D01*
X245985Y412008D02*
X247716D01*
X245591Y412992D02*
X248109D01*
X245669Y412797D02*
Y413499D01*
X246654Y410335D02*
Y413499D01*
X247638Y411812D02*
Y413499D01*
X165000Y429094D02*
X166740Y433260D01*
X163260*
X165000Y429094*
X164737Y429724D02*
X165264D01*
X164326Y430709D02*
X165675D01*
X163915Y431693D02*
X166086D01*
X163504Y432677D02*
X166497D01*
X163976Y431546D02*
Y433260D01*
X164961Y429189D02*
Y433260D01*
X165945Y431355D02*
Y433260D01*
X175000Y356000D02*
X173227Y351773D01*
X176773*
X175000Y356000*
X173309Y351969D02*
X176691D01*
X173722Y352953D02*
X176279D01*
X174134Y353937D02*
X175866D01*
X174547Y354921D02*
X175453D01*
X174960Y355906D02*
X175040D01*
X173819Y351773D02*
Y353185D01*
X174803Y351773D02*
Y355531D01*
X175787Y351773D02*
Y354123D01*
X176772Y351773D02*
Y351777D01*
X168721Y438720D02*
X165000Y437460D01*
X167461Y435000*
X168721Y438720*
X166831Y435630D02*
X167674D01*
X165847Y436614D02*
X168008D01*
X165408Y437598D02*
X168341D01*
X168315Y438583D02*
X168674D01*
X165945Y436516D02*
Y437780D01*
X166929Y435532D02*
Y438113D01*
X167913Y436336D02*
Y438447D01*
X185000Y479000D02*
X186773Y483227D01*
X183227*
X185000Y479000*
X184613Y479921D02*
X185387D01*
X184201Y480906D02*
X185799D01*
X183788Y481890D02*
X186212D01*
X183375Y482874D02*
X186625D01*
X183661Y482190D02*
Y483227D01*
X184646Y479845D02*
Y483227D01*
X185630Y480501D02*
Y483227D01*
X186614Y482847D02*
Y483227D01*
X205000Y439862D02*
X203288Y436767D01*
X206713*
X205000Y439862*
X203748Y437598D02*
X206253D01*
X204293Y438583D02*
X205708D01*
X204837Y439567D02*
X205164D01*
X203346Y436767D02*
Y436873D01*
X204331Y436767D02*
Y438652D01*
X205315Y436767D02*
Y439294D01*
X206299Y436767D02*
Y437514D01*
X205000Y439862D02*
X203288Y436767D01*
X206713*
X205000Y439862*
X203748Y437598D02*
X206253D01*
X204293Y438583D02*
X205708D01*
X204837Y439567D02*
X205164D01*
X203346Y436767D02*
Y436873D01*
X204331Y436767D02*
Y438652D01*
X205315Y436767D02*
Y439294D01*
X206299Y436767D02*
Y437514D01*
X359843Y442520D02*
X361304Y446176D01*
X358381*
X359843Y442520*
X359843*
X359449Y443504D02*
X360236D01*
X359056Y444488D02*
X360629D01*
X358662Y445472D02*
X361023D01*
X358858Y444982D02*
Y446176D01*
X359843Y442520D02*
Y446176D01*
X360827Y444982D02*
Y446176D01*
X359843Y409150D02*
X358069Y404923D01*
X361616*
X359843Y409150*
X358151Y405118D02*
X361534D01*
X358564Y406102D02*
X361121D01*
X358977Y407087D02*
X360708D01*
X359390Y408071D02*
X360295D01*
X359803Y409055D02*
X359882D01*
X358858Y404923D02*
Y406804D01*
X359843Y404923D02*
Y409150D01*
X360827Y404923D02*
Y406804D01*
X370610Y441989D02*
X369781Y444772D01*
X367827Y442818*
X370610Y441989*
X368828Y442520D02*
X370451D01*
X368513Y443504D02*
X370158D01*
X369497Y444488D02*
X369865D01*
X368701Y442557D02*
Y443692D01*
X369685Y442264D02*
Y444676D01*
X371654Y409150D02*
X369880Y404923D01*
X373427*
X371654Y409150*
X369962Y405118D02*
X373345D01*
X370375Y406102D02*
X372932D01*
X370788Y407087D02*
X372519D01*
X371201Y408071D02*
X372106D01*
X371614Y409055D02*
X371693D01*
X370669Y404923D02*
Y406804D01*
X371654Y404923D02*
Y409150D01*
X372638Y404923D02*
Y406804D01*
X219176Y450824D02*
X217461Y455000D01*
X215000Y452539*
X219176Y450824*
X217828Y451378D02*
X218948D01*
X215431Y452362D02*
X218544D01*
X215807Y453346D02*
X218140D01*
X216791Y454331D02*
X217736D01*
X215157Y452475D02*
Y452697D01*
X216142Y452070D02*
Y453681D01*
X217126Y451666D02*
Y454665D01*
X218110Y451262D02*
Y453418D01*
X219094Y450858D02*
Y451022D01*
X265669Y448425D02*
X267409Y452591D01*
X263929*
X265669Y448425*
X265669*
X265258Y449409D02*
X266080D01*
X264847Y450394D02*
X266492D01*
X264436Y451378D02*
X266903D01*
X264025Y452362D02*
X267314D01*
X264370Y451536D02*
Y452591D01*
X265354Y449179D02*
Y452591D01*
X266339Y450028D02*
Y452591D01*
X267323Y452384D02*
Y452591D01*
X267600Y438100D02*
X265827Y433873D01*
X269373*
X267600Y438100*
X266151Y434646D02*
X269049D01*
X266564Y435630D02*
X268636D01*
X266977Y436614D02*
X268223D01*
X267390Y437598D02*
X267810D01*
X266339Y433873D02*
Y435093D01*
X267323Y433873D02*
Y437439D01*
X268307Y433873D02*
Y436415D01*
X269291Y433873D02*
Y434069D01*
X341485Y360342D02*
X340932Y358872D01*
X342319Y359011*
X341485Y360342*
X341297Y359843D02*
X341798D01*
X341142Y358893D02*
Y359429D01*
X342126Y358992D02*
Y359319D01*
X366142Y459843D02*
X364680Y456186D01*
X367603*
X366142Y459843*
X364725Y456299D02*
X367558D01*
X365119Y457283D02*
X367165D01*
X365512Y458268D02*
X366771D01*
X365906Y459252D02*
X366378D01*
X364764Y456186D02*
Y456395D01*
X365748Y456186D02*
Y458858D01*
X366732Y456186D02*
Y458365D01*
X368110Y569291D02*
X369572Y572948D01*
X366649*
X368110Y569291*
X368032Y569488D02*
X368189D01*
X367638Y570472D02*
X368582D01*
X367245Y571457D02*
X368976D01*
X366851Y572441D02*
X369369D01*
X366732Y572739D02*
Y572948D01*
X367717Y570276D02*
Y572948D01*
X368701Y570769D02*
Y572948D01*
X156999Y482372D02*
X155264Y486614D01*
X152756Y484106*
X156999Y482372*
X155770Y482874D02*
X156793D01*
X153363Y483858D02*
X156391D01*
X153492Y484843D02*
X155988D01*
X154476Y485827D02*
X155586D01*
X153150Y483945D02*
Y484500D01*
X154134Y483543D02*
Y485484D01*
X155118Y483140D02*
Y486469D01*
X156102Y482738D02*
Y484563D01*
X133953Y494882D02*
X129726Y496655D01*
Y493109*
X133953Y494882*
X129726Y493701D02*
X131138D01*
X129726Y494685D02*
X133484D01*
X129726Y495669D02*
X132076D01*
X129726Y496654D02*
X129730D01*
X130512Y493438D02*
Y496326D01*
X131496Y493851D02*
Y495913D01*
X132480Y494264D02*
Y495500D01*
X133465Y494677D02*
Y495087D01*
X333071Y521457D02*
X334532Y525113D01*
X331609*
X333071Y521457*
X332756Y522244D02*
X333386D01*
X332363Y523228D02*
X333779D01*
X331969Y524213D02*
X334172D01*
X332283Y523427D02*
Y525113D01*
X333268Y521949D02*
Y525113D01*
X334252Y524412D02*
Y525113D01*
X176378Y613780D02*
X177839Y617436D01*
X174916*
X176378Y613780*
X176378*
X175985Y614764D02*
X176771D01*
X175591Y615748D02*
X177165D01*
X175198Y616732D02*
X177558D01*
X175787Y615257D02*
Y617436D01*
X176772Y614765D02*
Y617436D01*
X177756Y617227D02*
Y617436D01*
X191262Y545121D02*
X187087Y543406D01*
X189547Y540945*
X191262Y545121*
X188563Y541929D02*
X189952D01*
X187579Y542913D02*
X190356D01*
X188285Y543898D02*
X190760D01*
X190681Y544882D02*
X191164D01*
X187598Y542894D02*
Y543616D01*
X188583Y541909D02*
Y544020D01*
X189567Y540993D02*
Y544424D01*
X190551Y543389D02*
Y544829D01*
X177559Y554331D02*
X178464Y556969D01*
X176654*
X177559Y554331*
X177424Y554724D02*
X177694D01*
X177087Y555709D02*
X178032D01*
X176749Y556693D02*
X178369D01*
X176772Y556627D02*
Y556969D01*
X177756Y554905D02*
Y556969D01*
X292913Y529134D02*
X294375Y532790D01*
X291452*
X292913Y529134*
X292913*
X292520Y530118D02*
X293307D01*
X292127Y531102D02*
X293700D01*
X291733Y532087D02*
X294094D01*
X291929Y531596D02*
Y532790D01*
X292913Y529134D02*
Y532790D01*
X293898Y531596D02*
Y532790D01*
X305669Y470236D02*
X303929Y466071D01*
X307409*
X305669Y470236*
X303959Y466142D02*
X307380D01*
X304370Y467126D02*
X306968D01*
X304781Y468110D02*
X306557D01*
X305192Y469094D02*
X306146D01*
X305604Y470079D02*
X305735D01*
X304724Y466071D02*
Y467974D01*
X305709Y466071D02*
Y470142D01*
X306693Y466071D02*
Y467786D01*
X285433Y526378D02*
X286895Y530035D01*
X283972*
X285433Y526378*
X285118Y527165D02*
X285748D01*
X284725Y528150D02*
X286141D01*
X284332Y529134D02*
X286535D01*
X284055Y529825D02*
Y530035D01*
X285039Y527363D02*
Y530035D01*
X286024Y527855D02*
Y530035D01*
X276378Y539882D02*
X278118Y544047D01*
X274638*
X276378Y539882*
X276345Y539961D02*
X276411D01*
X275934Y540945D02*
X276822D01*
X275523Y541929D02*
X277233D01*
X275112Y542913D02*
X277644D01*
X274701Y543898D02*
X278055D01*
X275197Y542710D02*
Y544047D01*
X276181Y540353D02*
Y544047D01*
X277165Y541767D02*
Y544047D01*
X276378Y534252D02*
X274916Y530595D01*
X277839*
X276378Y534252*
X275119Y531102D02*
X277637D01*
X275512Y532087D02*
X277243D01*
X275906Y533071D02*
X276850D01*
X276299Y534055D02*
X276457D01*
X275197Y530595D02*
Y531297D01*
X276181Y530595D02*
Y533759D01*
X277165Y530595D02*
Y532282D01*
X146850Y566929D02*
X145389Y563273D01*
X148312*
X146850Y566929*
X145513Y563583D02*
X148188D01*
X145906Y564567D02*
X147795D01*
X146300Y565551D02*
X147401D01*
X146693Y566535D02*
X147008D01*
X146260Y563273D02*
Y565452D01*
X147244Y563273D02*
Y565944D01*
X148228Y563273D02*
Y563482D01*
X151496Y600000D02*
X153236Y604166D01*
X149756*
X151496Y600000*
X151496*
X151085Y600984D02*
X151907D01*
X150674Y601969D02*
X152318D01*
X150263Y602953D02*
X152729D01*
X149852Y603937D02*
X153141D01*
X150197Y603110D02*
Y604166D01*
X151181Y600754D02*
Y604166D01*
X152165Y601602D02*
Y604166D01*
X153150Y603959D02*
Y604166D01*
X323228Y565354D02*
X321628Y561443D01*
X324829*
X323228Y565354*
X321698Y561614D02*
X324759D01*
X322100Y562598D02*
X324356D01*
X322503Y563583D02*
X323953D01*
X322906Y564567D02*
X323551D01*
X322441Y561443D02*
Y563430D01*
X323425Y561443D02*
Y564873D01*
X324409Y561443D02*
Y562469D01*
X167320Y601730D02*
X171496Y603445D01*
X169035Y605906*
X167320Y601730*
X167418Y601969D02*
X167902D01*
X167823Y602953D02*
X170298D01*
X168227Y603937D02*
X171004D01*
X168631Y604921D02*
X170020D01*
X169035Y605906D02*
X169035D01*
X167913Y601973D02*
Y603174D01*
X168898Y602378D02*
Y605570D01*
X169882Y602782D02*
Y605059D01*
X170866Y603186D02*
Y604075D01*
X206299Y578441D02*
X204526Y574214D01*
X208073*
X206299Y578441*
X204608Y574409D02*
X207991D01*
X205021Y575394D02*
X207578D01*
X205434Y576378D02*
X207165D01*
X205847Y577362D02*
X206752D01*
X206260Y578346D02*
X206339D01*
X205315Y574214D02*
Y576095D01*
X206299Y574214D02*
Y578441D01*
X207283Y574214D02*
Y576095D01*
X206299Y598031D02*
X207204Y600670D01*
X205394*
X206299Y598031*
X206299*
X205962Y599016D02*
X206637D01*
X205624Y600000D02*
X206974D01*
X206299Y598031D02*
Y600670D01*
X180709Y603126D02*
X178935Y598899D01*
X182482*
X180709Y603126*
X178984Y599016D02*
X182433D01*
X179397Y600000D02*
X182020D01*
X179810Y600984D02*
X181607D01*
X180223Y601969D02*
X181194D01*
X180636Y602953D02*
X180781D01*
X179724Y598899D02*
Y600780D01*
X180709Y598899D02*
Y603126D01*
X181693Y598899D02*
Y600780D01*
X191496Y611811D02*
X189756Y607645D01*
X193236*
X191496Y611811*
X189852Y607874D02*
X193141D01*
X190263Y608858D02*
X192729D01*
X190674Y609843D02*
X192318D01*
X191085Y610827D02*
X191907D01*
X191496Y611811D02*
X191496D01*
X190551Y607645D02*
Y609549D01*
X191535Y607645D02*
Y611717D01*
X192520Y607645D02*
Y609360D01*
X288976Y601244D02*
X290750Y605471D01*
X287203*
X288976Y601244*
X288672Y601969D02*
X289280D01*
X288259Y602953D02*
X289693D01*
X287847Y603937D02*
X290106D01*
X287434Y604921D02*
X290519D01*
X287992Y603590D02*
Y605471D01*
X288976Y601244D02*
Y605471D01*
X289961Y603590D02*
Y605471D01*
X288976Y600787D02*
X287515Y597131D01*
X290438*
X288976Y600787*
X287875Y598031D02*
X290078D01*
X288268Y599016D02*
X289685D01*
X288662Y600000D02*
X289291D01*
X287992Y597131D02*
Y598325D01*
X288976Y597131D02*
Y600787D01*
X289961Y597131D02*
Y598325D01*
X288976Y613244D02*
X287203Y609017D01*
X290750*
X288976Y613244*
X287549Y609843D02*
X290404D01*
X287962Y610827D02*
X289991D01*
X288375Y611811D02*
X289578D01*
X288788Y612795D02*
X289165D01*
X287992Y609017D02*
Y610898D01*
X288976Y609017D02*
Y613244D01*
X289961Y609017D02*
Y610898D01*
X288976Y623228D02*
X290438Y626885D01*
X287515*
X288976Y623228*
X288819Y623622D02*
X289134D01*
X288426Y624606D02*
X289527D01*
X288032Y625591D02*
X289921D01*
X287639Y626575D02*
X290314D01*
X287992Y625691D02*
Y626885D01*
X288976Y623228D02*
Y626885D01*
X289961Y625691D02*
Y626885D01*
X359843Y613244D02*
X358069Y609017D01*
X361616*
X359843Y613244*
X358415Y609843D02*
X361270D01*
X358828Y610827D02*
X360857D01*
X359241Y611811D02*
X360444D01*
X359654Y612795D02*
X360031D01*
X358858Y609017D02*
Y610898D01*
X359843Y609017D02*
Y613244D01*
X360827Y609017D02*
Y610898D01*
X359843Y631496D02*
X361304Y635153D01*
X358381*
X359843Y631496*
X359843*
X359449Y632480D02*
X360236D01*
X359056Y633465D02*
X360629D01*
X358662Y634449D02*
X361023D01*
X358858Y633959D02*
Y635153D01*
X359843Y631496D02*
Y635153D01*
X360827Y633959D02*
Y635153D01*
X201181Y624016D02*
X199720Y620359D01*
X202643*
X201181Y624016*
X199844Y620669D02*
X202519D01*
X200237Y621654D02*
X202125D01*
X200630Y622638D02*
X201732D01*
X201024Y623622D02*
X201338D01*
X200394Y620359D02*
Y622046D01*
X201378Y620359D02*
Y623523D01*
X202362Y620359D02*
Y621061D01*
X343564Y623485D02*
X345603Y623969D01*
X344048Y625525*
X343564Y623485*
X343596Y623622D02*
X344141D01*
X343830Y624606D02*
X344966D01*
X344094Y623611D02*
Y625478D01*
X345079Y623845D02*
Y624494D01*
X195019Y632383D02*
X193957Y635906D01*
X191496Y633445*
X195019Y632383*
X194695Y632480D02*
X194990D01*
X191516Y633465D02*
X194693D01*
X192500Y634449D02*
X194396D01*
X193484Y635433D02*
X194099D01*
X191535Y633433D02*
Y633484D01*
X192520Y633136D02*
Y634469D01*
X193504Y632839D02*
Y635453D01*
X194488Y632543D02*
Y634143D01*
X246850Y633465D02*
X245389Y629808D01*
X248312*
X246850Y633465*
X245670Y630512D02*
X248031D01*
X246064Y631496D02*
X247637D01*
X246457Y632480D02*
X247244D01*
X246850Y633465D02*
X246850D01*
X245669Y629808D02*
Y630510D01*
X246654Y629808D02*
Y632972D01*
X247638Y629808D02*
Y631495D01*
X255354Y657087D02*
X257094Y661252D01*
X253614*
X255354Y657087*
X255354*
X254943Y658071D02*
X255765D01*
X254532Y659055D02*
X256177D01*
X254121Y660039D02*
X256588D01*
X253710Y661024D02*
X256999D01*
X254528Y659066D02*
Y661252D01*
X255512Y657464D02*
Y661252D01*
X256496Y659820D02*
Y661252D01*
X272923Y643631D02*
X277165Y645366D01*
X274657Y647874*
X272923Y643631*
X273193Y644291D02*
X274537D01*
X273595Y645276D02*
X276944D01*
X273997Y646260D02*
X276272D01*
X274400Y647244D02*
X275287D01*
X273228Y643756D02*
Y644379D01*
X274213Y644159D02*
Y646786D01*
X275197Y644561D02*
Y647335D01*
X276181Y644964D02*
Y646350D01*
X277165Y645366D02*
X277165D01*
X261043Y644488D02*
X259582Y640832D01*
X262505*
X261043Y644488*
X259784Y641339D02*
X262302D01*
X260178Y642323D02*
X261909D01*
X260571Y643307D02*
X261515D01*
X260965Y644291D02*
X261122D01*
X260433Y640832D02*
Y642961D01*
X261417Y640832D02*
Y643552D01*
X262402Y640832D02*
Y641090D01*
X306299Y641732D02*
X304838Y638076D01*
X307761*
X306299Y641732*
X304962Y638386D02*
X307637D01*
X305355Y639370D02*
X307243D01*
X305748Y640354D02*
X306850D01*
X306142Y641339D02*
X306457D01*
X305709Y638076D02*
Y640255D01*
X306693Y638076D02*
Y640747D01*
X307677Y638076D02*
Y638285D01*
X324409Y636220D02*
X322948Y632564D01*
X325871*
X324409Y636220*
X323308Y633465D02*
X325511D01*
X323701Y634449D02*
X325118D01*
X324095Y635433D02*
X324724D01*
X323425Y632564D02*
Y633758D01*
X324409Y632564D02*
Y636220D01*
X325394Y632564D02*
Y633758D01*
X324409Y641244D02*
X326183Y645471D01*
X322636*
X324409Y641244*
X324370Y641339D02*
X324449D01*
X323957Y642323D02*
X324862D01*
X323544Y643307D02*
X325275D01*
X323131Y644291D02*
X325688D01*
X322718Y645276D02*
X326101D01*
X323425Y643590D02*
Y645471D01*
X324409Y641244D02*
Y645471D01*
X325394Y643590D02*
Y645471D01*
X382677Y642126D02*
X384139Y645783D01*
X381216*
X382677Y642126*
X382598Y642323D02*
X382756D01*
X382205Y643307D02*
X383149D01*
X381812Y644291D02*
X383543D01*
X381418Y645276D02*
X383936D01*
X381496Y645081D02*
Y645783D01*
X382480Y642618D02*
Y645783D01*
X383465Y644096D02*
Y645783D01*
X375217Y640551D02*
X373755Y636895D01*
X376678*
X375217Y640551*
X373958Y637402D02*
X376475D01*
X374351Y638386D02*
X376082D01*
X374744Y639370D02*
X375689D01*
X375138Y640354D02*
X375295D01*
X374606Y636895D02*
Y639024D01*
X375591Y636895D02*
Y639615D01*
X376575Y636895D02*
Y637153D01*
X376260Y654607D02*
X379006Y655417D01*
X377071Y657353*
X376260Y654607*
X376411Y655118D02*
X377992D01*
X376702Y656102D02*
X378321D01*
X376992Y657087D02*
X377337D01*
X376575Y654700D02*
Y655672D01*
X377559Y654990D02*
Y656864D01*
X378543Y655281D02*
Y655880D01*
X294882Y636220D02*
X293420Y632564D01*
X296343*
X294882Y636220*
X293780Y633465D02*
X295983D01*
X294174Y634449D02*
X295590D01*
X294567Y635433D02*
X295197D01*
X293898Y632564D02*
Y633758D01*
X294882Y632564D02*
Y636220D01*
X295866Y632564D02*
Y633758D01*
X368898Y656634D02*
X367993Y654448D01*
X369802*
X368898Y656634*
X368270Y655118D02*
X369525D01*
X368678Y656102D02*
X369118D01*
X368701Y654448D02*
Y656158D01*
X369685Y654448D02*
Y654732D01*
X369942Y659154D02*
X373780Y660728D01*
X371516Y662992*
X369942Y659154*
X370305Y660039D02*
X372100D01*
X370708Y661024D02*
X373484D01*
X371112Y662008D02*
X372500D01*
X371516Y662992D02*
X371516D01*
X370669Y659453D02*
Y660928D01*
X371654Y659856D02*
Y662854D01*
X372638Y660260D02*
Y661870D01*
X373622Y660664D02*
Y660886D01*
X151496Y206299D02*
X160945Y215748D01*
Y248819*
X166929Y254803*
Y265354*
X267795Y206299D02*
X272126Y210630D01*
Y243307*
X279921Y251102*
Y267717*
X285039Y272835*
Y285039*
X257795Y206299D02*
X262598Y211102D01*
Y242913*
X270472Y250787*
Y284646*
X270866Y285039*
X273228*
X149606Y224409D02*
Y250394D01*
X155118Y255906*
Y265354*
X149606Y224409D02*
X151181Y222835D01*
Y218110*
X257795Y233858D02*
X257874Y320866D01*
X258268Y320472*
X294488Y243701D02*
Y315354D01*
X296850Y317717*
Y321654*
X229921Y260630D02*
Y288346D01*
X178740Y273858D02*
Y257087D01*
X221260Y280709D02*
Y265354D01*
X275197Y274803D02*
X275354Y273465D01*
Y261417*
X229921Y288346D02*
Y260630D01*
X326378Y304331D02*
X331496Y309449D01*
Y315354*
X334646Y318504*
Y352362*
X338721Y294500D02*
X340500Y296279D01*
Y313800*
X123465Y326378D02*
Y310630D01*
X131496Y302598*
X123465Y326378D02*
X133701Y338189D01*
X147244Y322441D02*
Y314567D01*
X151181Y310630*
X161024*
X165000Y306654*
Y300000*
X201181Y323228D02*
Y394094D01*
X205000Y397914*
Y405000*
X201181Y323228D02*
X206299Y318110D01*
Y288976*
X300500Y313800D02*
X308800Y305500D01*
Y294500*
X317717Y309055D02*
X330315Y321654D01*
Y323228*
X332283Y325197*
Y348425*
X372461Y327559D02*
Y343307D01*
X372854Y343701*
X129528Y338189D02*
X133701D01*
X320098Y344094D02*
Y355925D01*
X323228Y359055*
X320098Y344094D02*
Y328346D01*
X372854Y343701D02*
Y346063D01*
X382677Y355906*
Y581102*
X215000Y350000D02*
Y374016D01*
X220079Y379094*
Y396850*
X225000Y401772*
Y405000*
X337402Y355512D02*
Y468898D01*
X342520Y474016*
Y505906*
X349213Y512598*
Y560630*
X337402Y355512D02*
X338386Y354528D01*
Y326181*
X340551Y324016*
X346457Y317323*
Y274803*
X343307Y350000D02*
X346457Y353150D01*
Y462598*
X360236Y476378*
X359843Y363150D02*
X360236Y362756D01*
Y334252*
X164961Y380315D02*
X165000Y380276D01*
Y350000*
Y390000D02*
Y405000D01*
X185000Y390000D02*
Y404999D01*
Y405000*
X175000Y390000D02*
Y404999D01*
Y405000*
X215000Y390000D02*
Y404999D01*
Y405000*
X199606Y419685D02*
Y481732D01*
X204331Y486457*
X199606Y419685D02*
X208661Y410630D01*
X220079*
X225000Y405708*
Y405000*
X214961Y414961D02*
Y434960D01*
X215000Y435000*
X246850Y414961D02*
Y392550D01*
X246900Y392500*
X156299Y429921D02*
X159449Y433071D01*
X165000Y435000D02*
Y423189D01*
X169685Y418504*
Y378543*
X175000Y373228*
Y350000*
X165000Y435000D02*
X169764Y439764D01*
Y458268*
X185000Y474016*
Y485000*
X205000Y441339D02*
Y435000D01*
X204331Y446457D02*
X205000Y445787D01*
Y441339*
Y435000D02*
Y441339D01*
X214961*
X220472Y446850*
Y449528*
X359843Y447638D02*
Y403150D01*
X367717Y444882D02*
X371654Y440945D01*
Y403150*
X215000Y455000D02*
X220472Y449528D01*
X265669Y454331D02*
Y445238D01*
X267600Y443307*
Y432100*
X322835Y454724D02*
X323228D01*
Y359055*
X341339Y465354D02*
Y361811D01*
X341732Y357874*
X341339Y465354D02*
X355118Y479134D01*
Y586614*
X366142Y454724D02*
Y565354D01*
X368110Y567323*
Y574409*
X414961Y465748D02*
Y464961D01*
X152756Y486614D02*
X159449Y479921D01*
Y433071*
X325197Y486614D02*
Y461417D01*
X328937Y457677*
Y351575*
X332283Y348425*
X325197Y486614D02*
X329724Y491142D01*
X332874*
X335827Y494094*
Y509843*
X338189Y512205*
Y565354*
X331890Y470866D02*
Y353937D01*
X334646Y352362*
X331890Y470866D02*
X338189Y475984D01*
Y489370*
X338976Y490157*
Y506693*
X343701Y511417*
Y570079*
X346457Y572835*
Y577165*
X347244*
X127953Y494882D02*
X135827D01*
Y513386*
X149055Y526614*
X152756*
X329921Y496850D02*
X333071D01*
Y526575*
X157087Y540945D02*
X172441Y556299D01*
Y597638*
X176378Y601575*
Y618898*
X187087Y540945D02*
X196063Y549921D01*
Y630709*
X177087Y540945D02*
X177559Y541260D01*
Y557874*
X292913Y534252D02*
Y495309D01*
X299034Y489188*
X305669Y482677*
Y464331*
X285433Y531496D02*
Y496063D01*
X300394Y481890*
Y460000*
X305669Y454724*
Y454331*
X276378Y545787D02*
Y529134D01*
X146850Y561811D02*
Y573701D01*
X151496Y578346*
Y605906*
X268976Y562205D02*
Y562598D01*
X274409Y568031*
X268976Y562205D02*
Y548819D01*
X272629Y545166*
X275766*
X276024Y545424*
X276378Y545787*
X323228Y559843D02*
Y606063D01*
X324409Y607244*
X129528Y581378D02*
Y603937D01*
X131496Y605906*
X159055Y585157D02*
X162992D01*
X164567Y586732*
Y598976*
X171496Y605906*
X206299Y572441D02*
Y601575D01*
X335827Y569685D02*
Y567323D01*
X336220*
X338189Y565354*
X335827Y569685D02*
X336614D01*
X139370Y595157D02*
Y603780D01*
X141496Y605906*
X159055Y595157D02*
Y603465D01*
X161496Y605906*
X180709Y597126D02*
Y605118D01*
X181496Y605906*
X191496D02*
Y624961D01*
X192126Y625591*
X268898Y601575D02*
X268976Y601496D01*
Y587795*
X274409Y582362*
Y568031*
X288976Y595669D02*
Y607244D01*
Y628346*
X359843Y607244D02*
X360236Y606850D01*
Y603543*
X382677Y581102*
X359843Y607244D02*
Y636614D01*
X201181Y618898D02*
Y635591D01*
X201496Y635906*
X342520Y622441D02*
Y599213D01*
X355118Y586614*
X342520Y622441D02*
X346063Y625984D01*
X354331Y619685D02*
X355085Y618930D01*
Y594915*
X360236Y589764*
Y476378*
X191496Y635906D02*
X196063Y631339D01*
Y630709*
X246850Y628346D02*
Y646457D01*
X255354Y654961*
Y662992*
X268543Y639370D02*
X268661D01*
X277165Y647874*
X261043Y639370D02*
Y648425D01*
X265354Y652736*
Y662992*
X306299Y636614D02*
Y655118D01*
X310236Y659055*
Y662756*
X310472Y662992*
X324409Y631102D02*
Y647244D01*
X382677D02*
Y635472D01*
X382717Y635433*
X375217D02*
Y653563D01*
X379134Y657480*
X288976Y662992D02*
X294882Y657087D01*
Y631102*
X368898Y653543D02*
Y658110D01*
X373780Y662992*
G54D31*
X253937Y197638D02*
X250072Y198891D01*
Y196385*
X253937Y197638*
X250072D02*
X253937D01*
X251181Y196745D02*
Y198531D01*
X252756Y197255D02*
Y198021D01*
X272835Y197638D02*
X276700Y196385D01*
Y198891*
X272835Y197638*
X276700*
X273228Y197510D02*
Y197765D01*
X274803Y197000D02*
Y198276D01*
X276378Y196489D02*
Y198786D01*
X248819Y197638D02*
X277953D01*
G54D32*
X287795Y227953D02*
X288630Y233023D01*
X286960*
X287795Y227953*
X287276Y231102D02*
X288314D01*
X287795Y227953D02*
Y233023D01*
Y212205D02*
X286960Y207134D01*
X288630*
X287795Y212205*
X287406Y209843D02*
X288184D01*
X287795Y207134D02*
Y212205D01*
X285354Y255512D02*
X286189Y260582D01*
X286189D02*
X284519D01*
X285354Y255512*
X285289Y255906D02*
X285419D01*
X284706Y259449D02*
X286003D01*
X279134Y295039D02*
X274064Y295875D01*
Y294204*
X279134Y295039*
X274064Y294882D02*
X278178D01*
X277165Y294715D02*
Y295364D01*
X279134Y295039D02*
X284204Y294204D01*
Y295875*
X279134Y295039*
X280090Y294882D02*
X284204D01*
X280709Y294780D02*
Y295299D01*
X279134Y330472D02*
X274064Y331308D01*
Y329637*
X279134Y330472*
X274064Y330315D02*
X278178D01*
X277165Y330148D02*
Y330797D01*
X279134Y330472D02*
X284204Y329637D01*
Y331308*
X279134Y330472*
X280090Y330315D02*
X284204D01*
X280709Y330213D02*
Y330732D01*
X249845Y468507D02*
X245669Y465512D01*
X246850Y464331*
X249845Y468507*
X246220Y464961D02*
X247302D01*
X249841Y468504D02*
X249843D01*
X248819Y467076D02*
Y467771D01*
X316535Y385433D02*
X315700Y380363D01*
X317371*
X316535Y385433*
X316211Y383465D02*
X316860D01*
X316142Y380363D02*
Y383043D01*
X187087Y576850D02*
X186251Y571780D01*
X187922*
X187087Y576850*
X186749Y574803D02*
X187424D01*
X218110Y558661D02*
X217275Y553591D01*
X218945*
X218110Y558661*
X217851Y557087D02*
X218370D01*
X277165Y601874D02*
X278034Y607005D01*
X276297*
X277165Y601874*
X276949Y603150D02*
X277381D01*
X276350Y606693D02*
X277981D01*
X277165Y601874D02*
Y607005D01*
X375774Y611789D02*
X371638Y608740D01*
X372835Y607575*
X375774Y611789*
X373667Y610236D02*
X374691D01*
X372835Y607575D02*
Y609622D01*
X391181Y648031D02*
X393826Y656410D01*
X388536*
X391181Y648031*
X390808Y649213D02*
X391554D01*
X389690Y652756D02*
X392672D01*
X388572Y656299D02*
X393791D01*
X390551Y650027D02*
Y656410D01*
X229921Y641654D02*
X229086Y636583D01*
X230756*
X229921Y641654*
X229415Y638583D02*
X230427D01*
X161496Y641811D02*
X160661Y636741D01*
X162331*
X161496Y641811*
X160964Y638583D02*
X162028D01*
X287795Y233858D02*
Y238504D01*
X288189Y238898*
X287795Y233858D02*
Y206299D01*
X285354Y261417D02*
Y241732D01*
X288189Y238898*
X285354Y261417D02*
Y265669D01*
X291339Y271654*
X273228Y295039D02*
X285039D01*
X291339*
X273228Y330472D02*
X285039D01*
X291260D02*
Y344409D01*
X291339Y344488*
Y295039D02*
X291260Y330472D01*
X291339Y295039*
Y271654*
X285039Y330472D02*
X291260D01*
Y344409*
X291339Y344488*
X365354Y343701D02*
Y347244D01*
X377559Y359449*
Y379528*
X377953Y379921*
X307087Y367323D02*
Y344094D01*
X312598*
X245669Y464331D02*
X255748Y474409D01*
X255906Y475591*
X273228Y475984D02*
Y505512D01*
X316535Y379528D02*
Y475591D01*
Y484646*
X323228Y491339*
Y496850*
X253543Y505512D02*
Y536220D01*
X256299*
X323228Y496850D02*
Y503248D01*
X325886Y505906*
Y532185*
X332283Y538583*
Y544882*
X329921Y551575D02*
Y544882D01*
X332283*
X329921Y551575D02*
Y559843D01*
Y584252D02*
Y566929D01*
Y559843*
X316535D02*
Y551575D01*
X329921*
Y544882*
X332283*
X180709Y587126D02*
X180984Y587402D01*
X187087*
Y570945*
X213386Y573622D02*
Y594094D01*
X217717Y598425*
X218110*
Y608268*
X213386Y573622D02*
X218110Y568898D01*
Y552756*
X277165Y587402D02*
Y607874D01*
X329921Y584252D02*
Y598425D01*
X336220Y604724*
Y607874*
X329528Y584252D02*
X329921D01*
Y566929*
X371654Y607559D02*
X383465Y619685D01*
Y623622*
X391181Y631496*
Y659055*
X218110Y608268D02*
Y635827D01*
X365354Y633071D02*
Y613858D01*
X371654Y607559*
X365354Y633071D02*
X367717Y635433D01*
X208425Y662992D02*
X214961D01*
X229921Y648031*
Y635748*
X161417Y668504D02*
X161496Y668425D01*
Y635906*
X147244Y322441D03*
X343307Y350000D03*
X341732Y357874D03*
X177559Y557874D03*
X206299Y601575D03*
X192126Y625591D03*
X368898Y653543D03*
G54D33*
X195000Y300000D02*
Y293307D01*
X198819Y289488*
Y279921*
X204331Y274409*
X205433*
X206299Y273543*
G54D34*
X149034Y426199D02*
X147085Y424250D01*
X141517Y426199D02*
X143466Y424250D01*
X149034Y418683D02*
X147085Y420631D01*
X135648Y292341D02*
X133699Y290392D01*
X128132Y284824D02*
X130080Y286773D01*
X135648Y284824D02*
X133699Y286773D01*
X149034Y479742D02*
X147085Y477794D01*
X141517Y479742D02*
X143466Y477794D01*
X141517Y472226D02*
X143466Y474175D01*
X149034Y472226D02*
X147085Y474175D01*
X186793Y292341D02*
X188742Y290392D01*
X186793Y284824D02*
X188742Y286773D01*
X194309Y284824D02*
X192361Y286773D01*
X186793Y257695D02*
X188742Y255747D01*
X186793Y250179D02*
X188742Y252127D01*
X191124Y346242D02*
X193072Y348190D01*
X289979Y408089D02*
X288030Y406140D01*
X282462Y408089D02*
X284411Y406140D01*
X282462Y400572D02*
X284411Y402521D01*
X289979Y400572D02*
X288030Y402521D01*
X261239Y410451D02*
X259290Y408502D01*
X253722Y410451D02*
X255671Y408502D01*
X261239Y402935D02*
X259290Y404883D01*
X253722Y402935D02*
X255671Y404883D01*
X261239Y426199D02*
X259290Y424250D01*
X253722Y418683D02*
X255671Y420631D01*
X261239Y418683D02*
X259290Y420631D01*
X253722Y426199D02*
X255671Y424250D01*
X188798Y426199D02*
X186849Y424250D01*
X181281Y426199D02*
X183230Y424250D01*
X181281Y418683D02*
X183230Y420631D01*
X188798Y418683D02*
X186849Y420631D01*
X188404Y375412D02*
X186455Y373463D01*
X180887Y375412D02*
X182836Y373463D01*
X180887Y367895D02*
X182836Y369844D01*
X188404Y367895D02*
X186455Y369844D01*
X228168Y363601D02*
X226219Y361652D01*
X220651Y363601D02*
X222600Y361652D01*
X228168Y356084D02*
X226219Y358033D01*
X320294Y479349D02*
X318345Y477400D01*
X312777Y479349D02*
X314726Y477400D01*
X312777Y471832D02*
X314726Y473781D01*
X320294Y471832D02*
X318345Y473781D01*
X187187Y556514D02*
X189135Y554565D01*
X187187Y548998D02*
X189135Y550946D01*
X143128Y556514D02*
X141180Y554565D01*
X135612Y556514D02*
X137561Y554565D01*
X135612Y548998D02*
X137561Y550946D01*
X143128Y548998D02*
X141180Y550946D01*
X280924Y591160D02*
X278975Y589211D01*
X273407Y591160D02*
X275356Y589211D01*
X280924Y583643D02*
X278975Y585592D01*
X333286Y588010D02*
X331337Y586061D01*
X333286Y580494D02*
X331337Y582442D01*
X303328Y363565D02*
X305277Y365513D01*
X310845Y363565D02*
X308896Y365513D01*
X157659Y664746D02*
X159608Y666694D01*
X165176Y664746D02*
X163227Y666694D01*
X221868Y612026D02*
X219920Y610077D01*
X214352Y612026D02*
X216301Y610077D01*
X214352Y604509D02*
X216301Y606458D01*
X221868Y604509D02*
X219920Y606458D01*
X221868Y639585D02*
X219920Y637636D01*
X214352Y639585D02*
X216301Y637636D01*
X214352Y632069D02*
X216301Y634017D01*
X221868Y632069D02*
X219920Y634017D01*
G54D35*
X100000Y100000D02*
X454331D01*
Y690551*
X100000*
Y100000*
G74*
X0Y0D02*
M02*
