M48
;FILE_FORMAT=2:4
INCH,LZ
FMAT,2
ICI,OFF
;TYPE=PLATED
T1C.02362
T2C.03543
T3C.03937
T4C.04724
T5C.05906
T6C.07087
T7C.1378
%
M72
G90
G93X0Y0
T1C.02362F197S55
X014724Y032244
X034173Y035787
X034331Y035
X02063Y060157
X017756Y055787
X019213Y062559
X03689Y065354
T2C.03543F197S55
X013118Y021811
X01315Y02063
X015118Y021811
X01515Y02063
X015906Y019646
X02378Y02063
X02478Y02063
X024882Y019764
X02578Y02063
X02678Y02063
X02778Y02063
X027795Y019764
X02878Y02063
X029449Y02437
X02878Y023386
X02778Y023386
X02678Y023386
X02578Y023386
X02478Y023386
X02378Y023386
X022205Y02378
X021024Y02378
X019055Y023386
X017874Y023386
X016693Y023535
X015512Y023535
X014331Y023386
X01315Y023386
X012559Y029291
X013189Y028858
X015512Y026535
X016693Y026535
X017874Y025709
X019055Y025394
X019055Y028858
X02063Y027354
X02063Y025354
X022126Y026535
X022126Y028071
X022992Y026063
X02378Y026142
X026535Y026142
X027323Y028504
X027323Y029504
X02752Y02748
X027535Y026142
X028504Y028504
X028504Y029504
X028535Y026142
X034646Y02748
X03927Y03138
X038035Y03437
X037996Y032756
X037285Y03437
X037246Y032756
X036535Y03437
X036496Y032756
X036024Y033425
X03405Y03138
X03276Y032835
X03276Y034409
X032638Y030433
X03201Y032835
X03201Y034409
X031772Y030906
X03126Y034409
X03126Y032835
X029685Y032165
X029134Y034449
X028504Y032047
X028504Y033047
X028504Y034047
X028504Y030504
X027323Y032047
X027323Y033047
X027323Y034047
X027323Y030504
X025827Y032047
X023976Y034016
X0195Y03
X0195Y033
X0185Y033
X0185Y03
X0175Y033
X0175Y03
X0165Y03
X0165Y033
X015512Y034016
X015512Y030244
X015512Y032244
X012953Y033819
X014528Y035197
X014528Y037197
X016496Y038031
X018465Y037165
X019488Y035
X0195Y038
X0195Y036
X022441Y035984
X023976Y037992
X026535Y035984
X028654Y037953
X028654Y036772
X030709Y036732
X031654Y036772
X031654Y037953
X031654Y035984
X037795Y037992
X037677Y043307
X036772Y044488
X030827Y043937
X028622Y040433
X02767Y04045
X02767Y04245
X025748Y040669
X025748Y042244
X025039Y043976
X024685Y041496
X0225Y0435
X0225Y0405
X0215Y0405
X0215Y0435
X021496Y041496
X0205Y0435
X0205Y0405
X0195Y0435
X0195Y0405
X018504Y042244
X0185Y0435
X0185Y0405
X0175Y0435
X0175Y0405
X0165Y0435
X0165Y0405
X01563Y042992
X014528Y042244
X012472Y045528
X012472Y044528
X015472Y044528
X015472Y045528
X019449Y046614
X019449Y044614
X02122Y044843
X0215Y0455
X023819Y044764
X025551Y044764
X032283Y045472
X035315Y045984
X035984Y044764
X036614Y045472
X041496Y046496
X033228Y048189
X031654Y047559
X030984Y051417
X02811Y049606
X028031Y051417
X027323Y047598
X027323Y050551
X025591Y047559
X025354Y050551
X025354Y048551
X023189Y051181
X0215Y0475
X021Y052
X021Y051
X0195Y0495
X0195Y0515
X014528Y047598
X013937Y055276
X014685Y056181
X015709Y054094
X016709Y054094
X017709Y054094
X018709Y054094
X019094Y055276
X021811Y055276
X021811Y053276
X027638Y052913
X027638Y055579
X027638Y054579
X028543Y05315
X029291Y053425
X030315Y055197
X030354Y053661
X030945Y054488
X033228Y054488
X033307Y052657
X033661Y056969
X034921Y056063
X041496Y055157
X036811Y057441
X036496Y059173
X034724Y057717
X032953Y058425
X029213Y057992
X027717Y05874
X026693Y057992
X021929Y058071
X018709Y057094
X018071Y058713
X017709Y057094
X016709Y057094
X015906Y059516
X015906Y058516
X015709Y057094
X013937Y059516
X013937Y058516
X012953Y058138
X012953Y057138
X01315Y060591
X01415Y060591
X01515Y060591
X01615Y060591
X01715Y060591
X017638Y06189
X018071Y059713
X01815Y060591
X01915Y060591
X020118Y06189
X02015Y060591
X021811Y060827
X022992Y061575
X02689Y060157
X028898Y059567
X035433Y061969
X037165Y060756
X043071Y061543
X043071Y063543
X038272Y063543
X037522Y063543
X037165Y062756
X036772Y063543
X035984Y063661
X034606Y062598
X032441Y06311
X03063Y063661
X029488Y06311
X028898Y062835
X026854Y063937
X026104Y063937
X025354Y063937
X024685Y062835
X022992Y063575
X021811Y063583
X02015Y063591
X01915Y063591
X01815Y063591
X01715Y063591
X01615Y063591
X01515Y063591
X01415Y063591
X01315Y063591
X014134Y066843
X014134Y064843
X016142Y06685
X023937Y064843
X025535Y066299
X026535Y066299
X031047Y066299
X032047Y066299
X033409Y066299
X034409Y066299
X037913Y065748
X038268Y064724
T3C.03937F197S55
X01315Y027386
X014331Y027386
X017874Y027386
X019055Y027386
X02063Y028898
X021024Y01978
X021811Y028835
X022205Y01978
X022992Y028835
X024173Y028835
X03527Y03138
X03005Y03138
X024173Y032835
X022992Y032835
X021811Y032835
X02063Y032898
X01315Y03126
X01315Y03026
X01315Y03226
X0165Y035
X0165Y039
X0175Y035
X0175Y039
X0185Y035
X0185Y039
X0215Y035
X0215Y039
X0225Y035
X0225Y039
X02469Y03925
X02572Y03925
X02676Y03921
X035984Y036315
X037165Y036315
X037165Y040315
X035984Y040315
X02676Y04321
X02572Y04325
X02469Y04325
X0185Y0445
X0175Y0445
X0165Y0445
X020433Y044646
X024567Y045433
X024567Y046433
X025567Y045433
X025567Y046433
X026567Y045433
X026567Y046433
X027567Y045433
X027567Y046433
X028567Y045433
X028567Y046433
X029567Y046433
X029567Y045433
X030567Y045433
X030567Y046433
X029228Y048189
X020433Y048646
X0185Y0485
X0175Y0485
X0165Y0485
X015276Y048661
X012795Y049488
X012795Y048488
X012795Y050488
X015276Y052661
X02063Y053244
X02063Y057244
X027717Y060787
X028898Y060724
X029228Y054488
X030079Y060787
X03126Y060724
X032441Y060724
X033622Y060787
X034803Y060787
X035984Y060724
X037378Y066299
X036378Y066299
X035984Y064724
X034803Y064787
X033622Y064787
X032441Y064724
X03126Y064724
X030079Y064787
X029898Y066299
X028898Y066299
X028898Y064724
X027717Y064787
X024386Y066299
X023386Y066299
X020843Y066299
X019843Y066299
T4C.04724F139S55
X03088Y020198
X033872Y021576
X03607Y020198
X039062Y021576
X043071Y014724
X043821Y018724
X039062Y02945
X03607Y022954
X03607Y02945
X033872Y02945
X03088Y022954
X03088Y02945
X039508Y04331
X04374Y04331
X032992Y049685
X032323Y049685
X031654Y049685
X030984Y049685
X030315Y049685
X030315Y055984
X030984Y055984
X031654Y055984
X032323Y055984
X032992Y055984
X04059Y058467
X04374Y058467
T5C.05906F107S55
X013937Y016299
X015906Y016299
X017874Y016299
X019843Y016299
X021811Y016299
X02378Y016299
X025748Y016299
X027717Y016299
X029685Y016299
X031654Y016299
X033622Y016299
X035591Y016299
X037559Y016299
X039528Y016299
X041496Y016299
X043071Y022992
X043071Y03178
X031654Y052205
X031654Y058504
T6C.07087F081S55
X043071Y034803
X043071Y036394
X040709Y065906
X039118Y065906
T7C.1378F035S794
X012024Y012024
X04352Y012024
X04352Y039583
X012024Y039583
X012024Y067142
X04352Y067142
M30
