*
*
G04 PADS VX.2.4 Build Number: 11282995 generated Gerber (RS-274-X) file*
G04 PC Version=2.1*
*
%IN "gs100Fnd.pcb"*%
*
%MOIN*%
*
%FSLAX35Y35*%
*
*
*
*
G04 PC Standard Apertures*
*
*
G04 Thermal Relief Aperture macro.*
%AMTER*
1,1,$1,0,0*
1,0,$1-$2,0,0*
21,0,$3,$4,0,0,45*
21,0,$3,$4,0,0,135*
%
*
*
G04 Annular Aperture macro.*
%AMANN*
1,1,$1,0,0*
1,0,$2,0,0*
%
*
*
G04 Odd Aperture macro.*
%AMODD*
1,1,$1,0,0*
1,0,$1-0.005,0,0*
%
*
*
G04 PC Custom Aperture Macros*
*
*
*
*
*
*
G04 PC Aperture Table*
*
%ADD010C,0.001*%
%ADD011C,0.23622*%
%ADD012R,0.05906X0.05906*%
%ADD013C,0.05906*%
%ADD014C,0.09843*%
%ADD015R,0.05512X0.05512*%
%ADD016C,0.05512*%
%ADD017C,0.06*%
%ADD020R,0.06496X0.06496*%
%ADD021C,0.06496*%
%ADD022C,0.05118*%
%ADD023C,0.03543*%
%ADD024C,0.00984*%
%ADD025C,0.01575*%
%ADD026C,0.03937*%
%ADD027C,0.01969*%
%ADD029C,0.01*%
*
*
*
*
G04 PC Circuitry*
G04 Layer Name gs100Fnd.pcb - circuitry*
%LPD*%
*
*
G04 PC Custom Flashes*
G04 Layer Name gs100Fnd.pcb - flashes*
%LPD*%
*
*
G04 PC Circuitry*
G04 Layer Name gs100Fnd.pcb - circuitry*
%LPD*%
*
G54D10*
G54D11*
G01X120235Y226534D03*
X435196D03*
Y502125D03*
X120235D03*
G54D12*
X245669Y285039D03*
X143307Y344094D03*
X162992D03*
X351969D03*
X313504Y149213D03*
X151181Y471142D03*
X371654Y344094D03*
X182677Y206299D03*
X143307Y171929D03*
X119685Y202362D03*
X275197Y206299D03*
G54D13*
X245669Y295039D03*
X255669Y285039D03*
Y295039D03*
X265669Y285039D03*
Y295039D03*
X275669Y285039D03*
Y295039D03*
X285669Y285039D03*
Y295039D03*
X295669Y285039D03*
Y295039D03*
X305669Y285039D03*
Y295039D03*
X365748Y202362D03*
Y172362D03*
X143307Y334094D03*
Y324094D03*
Y314094D03*
Y304094D03*
X162992Y334094D03*
Y324094D03*
Y314094D03*
X192992D03*
Y324094D03*
Y334094D03*
Y344094D03*
X351969Y334094D03*
Y324094D03*
Y314094D03*
Y304094D03*
X353937Y202362D03*
Y172362D03*
X323504Y149213D03*
X151181Y461142D03*
X304724Y131496D03*
X324724D03*
X169685Y471260D03*
Y451260D03*
X371653Y334094D03*
Y324094D03*
Y314094D03*
Y304094D03*
Y294094D03*
Y284094D03*
X401653D03*
Y294094D03*
Y304094D03*
Y314094D03*
Y324094D03*
Y334094D03*
Y344094D03*
X377559Y178740D03*
X397559D03*
X341732Y130709D03*
Y150709D03*
X182677Y196299D03*
Y186299D03*
Y176299D03*
Y166299D03*
Y156299D03*
Y146299D03*
Y136299D03*
Y126299D03*
X332283Y170866D03*
Y200866D03*
X302283Y170866D03*
Y200866D03*
X277165Y220079D03*
Y240079D03*
X143307Y161929D03*
X185039Y292520D03*
Y272520D03*
X304724Y121654D03*
X324724D03*
X418898Y438583D03*
X398898D03*
X418898Y344094D03*
Y324094D03*
X206299Y344094D03*
Y324094D03*
X119685Y192362D03*
Y182362D03*
Y172362D03*
Y162362D03*
Y152362D03*
X265197Y206299D03*
X255197D03*
X245197D03*
X235197D03*
X225197D03*
X215197D03*
X205197D03*
X195197D03*
G54D14*
X140354Y249606D03*
X189567D03*
Y229921D03*
X140354D03*
X215157Y249606D03*
X264370D03*
Y229921D03*
X215157D03*
X289961Y249606D03*
X339173D03*
Y229921D03*
X289961D03*
X364764Y249606D03*
X413976D03*
Y229921D03*
X364764D03*
Y135433D03*
X413976D03*
Y115748D03*
X364764D03*
G54D15*
X418898Y420866D03*
Y373622D03*
X135433Y420866D03*
G54D16*
X418898Y410866D03*
Y363622D03*
X135433Y410866D03*
G54D17*
X387402Y367717D03*
Y407717D03*
X399213Y367717D03*
Y407717D03*
X416929Y168898D03*
X376929D03*
X377559Y157087D03*
X417559D03*
X159055Y367717D03*
Y407717D03*
X351969Y153150D03*
Y113150D03*
X194488Y479921D03*
X234488D03*
X247638D03*
X287638D03*
X275197Y336220D03*
X315197D03*
X222047Y350000D03*
X262047D03*
X222047Y336220D03*
X262047D03*
X341732Y479921D03*
X301732D03*
X275197Y350000D03*
X315197D03*
X275197Y322441D03*
X315197D03*
X194488Y493701D03*
X234488D03*
X247638D03*
X287638D03*
X393307D03*
X353307D03*
X300787D03*
X340787D03*
X159055Y170866D03*
Y130866D03*
G54D20*
X252165Y373150D03*
G54D21*
X262165D03*
X272165D03*
X282165D03*
X292165D03*
X302165D03*
Y433150D03*
X292165D03*
X282165D03*
X272165D03*
X262165D03*
X252165D03*
G54D22*
X233858Y454331D03*
X241358D03*
X248858D03*
X265354D03*
X272854D03*
X280354D03*
X296850D03*
X304350D03*
X311850D03*
X328346D03*
X335846D03*
X343346D03*
X392126Y125197D03*
X133071Y137402D03*
X351969Y129528D03*
X378346Y142520D03*
X384252Y129528D03*
X142913Y152362D03*
X155906Y157480D03*
X251969Y156693D03*
X307874Y165354D03*
X365748Y148425D03*
X397638Y156693D03*
X141339Y182283D03*
X294488Y174016D03*
X133071Y202756D03*
X127165Y188583D03*
X148819D03*
X276772Y193307D03*
X302362Y192913D03*
X405512Y194094D03*
X397638Y202362D03*
X141339Y219291D03*
X345669Y218898D03*
X334252Y213780D03*
X351181Y209843D03*
X298819Y239370D03*
X373622Y240157D03*
X123622Y255512D03*
X231890Y266929D03*
X245669Y249606D03*
X277165Y266535D03*
X350787Y265748D03*
X135827Y270866D03*
X312992Y278346D03*
X371654Y271260D03*
X159843Y300394D03*
X192913Y294882D03*
X225591Y300787D03*
X231890Y294882D03*
X322441Y301575D03*
X422835Y293307D03*
X258661Y318110D03*
X292913Y322047D03*
X295669Y310630D03*
X306693Y323228D03*
X331890Y324016D03*
X135433Y328346D03*
X177559Y331102D03*
X233858Y344094D03*
X250000Y334646D03*
X338976Y332677D03*
X146063Y362598D03*
X175197Y361417D03*
X243701Y355118D03*
X367717Y351969D03*
X358661Y358268D03*
X406693D03*
X424803Y351969D03*
X138189Y377165D03*
X175984Y373622D03*
X243701Y377953D03*
X236220Y373622D03*
X331890Y387008D03*
X399213Y376772D03*
X168504Y394488D03*
X182283Y404724D03*
X196063Y399606D03*
X320866Y404724D03*
X338976Y399606D03*
X392126Y394488D03*
X433071Y403150D03*
X272441Y424803D03*
X318504D03*
X218110Y446063D03*
X248819D03*
X364567Y438583D03*
X367717Y461024D03*
X135433Y471142D03*
X139764Y479528D03*
X147638Y479921D03*
X206299Y477953D03*
X318504Y479921D03*
X358661Y468110D03*
X151575Y494488D03*
X164961Y501969D03*
G54D23*
X123622Y119685D03*
Y124685D03*
X128622Y119685D03*
Y124685D03*
X133622Y119685D03*
Y124685D03*
X138622Y119685D03*
Y124685D03*
X143622Y119685D03*
Y124685D03*
X172441Y123228D03*
X249213Y113780D03*
X243701Y114173D03*
X169291Y127953D03*
X200000Y131496D03*
X209449Y140157D03*
X206299Y131102D03*
X244094Y127953D03*
X237795D03*
X288583Y134252D03*
X283858Y130709D03*
X160630Y148425D03*
X192126Y161811D03*
X298819Y152362D03*
X190551Y181496D03*
X259843Y174803D03*
X269291Y171654D03*
X275984Y181102D03*
X289370Y167717D03*
X283858Y170866D03*
X266535Y189764D03*
X198425Y219291D03*
X240157Y217323D03*
X288583Y218898D03*
X316535Y216929D03*
X234252Y258661D03*
X282677Y257874D03*
X301181Y260236D03*
X329134Y258268D03*
X265748Y272441D03*
X333071Y277953D03*
X316535Y272441D03*
X207087Y300394D03*
X214961Y302756D03*
X260630Y306299D03*
X167323Y308661D03*
X169685Y318898D03*
X178740Y314173D03*
X213386Y309449D03*
X229921Y318898D03*
X222835Y326772D03*
X284646Y309449D03*
X333071Y312205D03*
X340157Y310236D03*
X339764Y319291D03*
X384646Y309449D03*
X385827Y318898D03*
X345669Y328740D03*
X118110Y387008D03*
X371260Y371654D03*
X379528D03*
G54D24*
X283858Y127165D02*
X284763Y129804D01*
X282954*
X283858Y127165*
X283723Y127559D02*
X283993D01*
X283386Y128543D02*
X284331D01*
X283048Y129528D02*
X284668D01*
X283071Y129462D02*
Y129804D01*
X284055Y127739D02*
Y129804D01*
X116005Y158682D02*
X119685Y159902D01*
X117224Y162362*
X116005Y158682*
X116128Y159055D02*
X117131D01*
X116455Y160039D02*
X119547D01*
X116781Y161024D02*
X118563D01*
X117107Y162008D02*
X117579D01*
X116732Y158923D02*
Y160877D01*
X117717Y159249D02*
Y161870D01*
X118701Y159575D02*
Y160886D01*
X119685Y159902D02*
X119685D01*
X133622Y128228D02*
X132717Y125590D01*
X134527*
X133622Y128228*
X132718Y125591D02*
X134527D01*
X133055Y126575D02*
X134189D01*
X133393Y127559D02*
X133852D01*
X133465Y125590D02*
Y127769D01*
X134449Y125590D02*
Y125817D01*
X244094Y124409D02*
X244999Y127048D01*
X243190*
X244094Y124409*
X244027Y124606D02*
X244162D01*
X243689Y125591D02*
X244499D01*
X243352Y126575D02*
X244837D01*
X243701Y125558D02*
Y127048D01*
X244685Y126132D02*
Y127048D01*
X136121Y117186D02*
X134902Y119685D01*
X133622Y118406*
X136121Y117186*
X135034Y117717D02*
X135862D01*
X133917Y118701D02*
X135382D01*
X134902Y119685D02*
X134902D01*
X134449Y118002D02*
Y119232D01*
X135433Y117522D02*
Y118596D01*
X147165Y119685D02*
X144527Y120590D01*
Y118780*
X147165Y119685*
X144527D02*
X147165D01*
X145276Y119037D02*
Y120333D01*
X146260Y119375D02*
Y119996D01*
X168898Y123228D02*
X171536Y122324D01*
Y124133*
X168898Y123228*
X170620Y122638D02*
X171536D01*
X170046Y123622D02*
X171536D01*
X168898Y123228D02*
X168898D01*
X169882Y122891D02*
Y123566D01*
X170866Y122553D02*
Y123903D01*
X146457Y494488D02*
X150113Y493027D01*
Y495950*
X146457Y494488*
X148427Y493701D02*
X150113D01*
X146949Y494685D02*
X150113D01*
X149412Y495669D02*
X150113D01*
X147244Y494173D02*
Y494803D01*
X148228Y493780D02*
Y495196D01*
X149213Y493387D02*
Y495590D01*
X177952Y129134D02*
X180290Y125702D01*
X182080Y128686*
X177952Y129134*
X179696Y126575D02*
X180813D01*
X179025Y127559D02*
X181404D01*
X178355Y128543D02*
X181995D01*
X178740Y127977D02*
Y129049D01*
X179724Y126533D02*
Y128942D01*
X180709Y126400D02*
Y128835D01*
X181693Y128041D02*
Y128728D01*
X135433Y323228D02*
X136895Y326885D01*
X133972*
X135433Y323228*
X135354Y323425D02*
X135512D01*
X134961Y324409D02*
X135905D01*
X134568Y325394D02*
X136299D01*
X134174Y326378D02*
X136692D01*
X134449Y325691D02*
Y326885D01*
X135433Y323228D02*
Y326885D01*
X136417Y325691D02*
Y326885D01*
X193057Y178991D02*
X191831Y181496D01*
X190551Y180217*
X193057Y178991*
X191557Y179724D02*
X192698D01*
X191043Y180709D02*
X192216D01*
X191535Y179735D02*
Y181201D01*
X192520Y179253D02*
Y180088D01*
X192126Y158268D02*
X193031Y160906D01*
X191221*
X192126Y158268*
X191856Y159055D02*
X192396D01*
X191518Y160039D02*
X192733D01*
X191535Y159990D02*
Y160906D01*
X192520Y159416D02*
Y160906D01*
X126128Y117180D02*
X124902Y119685D01*
X123622Y118406*
X126128Y117180*
X125030Y117717D02*
X125865D01*
X123917Y118701D02*
X125383D01*
X124902Y119685D02*
X124902D01*
X124606Y117924D02*
Y119390D01*
X125591Y117442D02*
Y118277D01*
X240157Y114173D02*
X242796Y113268D01*
Y115078*
X240157Y114173*
X241306Y113780D02*
X242796D01*
X241880Y114764D02*
X242796D01*
X240748Y113971D02*
Y114376D01*
X241732Y113633D02*
Y114713D01*
X242717Y113296D02*
Y115051D01*
X131128Y117180D02*
X129902Y119685D01*
X128622Y118406*
X131128Y117180*
X130030Y117717D02*
X130865D01*
X128917Y118701D02*
X130383D01*
X129902Y119685D02*
X129902D01*
X129528Y117962D02*
Y119311D01*
X130512Y117481D02*
Y118438D01*
X351969Y119150D02*
X350195Y114923D01*
X353742*
X351969Y119150*
X350541Y115748D02*
X353396D01*
X350954Y116732D02*
X352983D01*
X351367Y117717D02*
X352570D01*
X351780Y118701D02*
X352157D01*
X350984Y114923D02*
Y116804D01*
X351969Y114923D02*
Y119150D01*
X352953Y114923D02*
Y116804D01*
X351969Y124409D02*
X353430Y128066D01*
X350507*
X351969Y124409*
X351890Y124606D02*
X352047D01*
X351496Y125591D02*
X352441D01*
X351103Y126575D02*
X352834D01*
X350710Y127559D02*
X353227D01*
X350984Y126872D02*
Y128066D01*
X351969Y124409D02*
Y128066D01*
X352953Y126872D02*
Y128066D01*
X392126Y130315D02*
X390664Y126658D01*
X393588*
X392126Y130315*
X391024Y127559D02*
X393228D01*
X391418Y128543D02*
X392834D01*
X391811Y129528D02*
X392441D01*
X391339Y126658D02*
Y128345D01*
X392323Y126658D02*
Y129822D01*
X393307Y126658D02*
Y127360D01*
X387402Y361717D02*
X389175Y365943D01*
X385628*
X387402Y361717*
X387362Y361811D02*
X387441D01*
X386949Y362795D02*
X387854D01*
X386536Y363780D02*
X388267D01*
X386123Y364764D02*
X388680D01*
X385710Y365748D02*
X389093D01*
X386417Y364062D02*
Y365943D01*
X387402Y361717D02*
Y365943D01*
X388386Y364062D02*
Y365943D01*
X420936Y122708D02*
X413976Y120177D01*
X418406Y115748*
X420936Y122708*
X417421Y116732D02*
X418763D01*
X416437Y117717D02*
X419121D01*
X415453Y118701D02*
X419479D01*
X414469Y119685D02*
X419837D01*
X415330Y120669D02*
X420195D01*
X418037Y121654D02*
X420553D01*
X420744Y122638D02*
X420911D01*
X414961Y119193D02*
Y120535D01*
X415945Y118209D02*
Y120893D01*
X416929Y117224D02*
Y121251D01*
X417913Y116240D02*
Y121609D01*
X418898Y117101D02*
Y121967D01*
X419882Y119808D02*
Y122324D01*
X420866Y122515D02*
Y122682D01*
X421802Y152844D02*
X420067Y157087D01*
X417559Y154579*
X421802Y152844*
X421054Y153150D02*
X421677D01*
X418647Y154134D02*
X421274D01*
X418098Y155118D02*
X420872D01*
X419083Y156102D02*
X420469D01*
X420067Y157087D02*
X420067D01*
X417913Y154434D02*
Y154933D01*
X418898Y154031D02*
Y155917D01*
X419882Y153629D02*
Y156902D01*
X420866Y153227D02*
Y155132D01*
X177992Y139895D02*
X180238Y135978D01*
X182356Y138739*
X177992Y139895*
X179986Y136417D02*
X180575D01*
X179422Y137402D02*
X181330D01*
X178857Y138386D02*
X182085D01*
X178293Y139370D02*
X179973D01*
X178740Y138590D02*
Y139697D01*
X179724Y136873D02*
Y139436D01*
X180709Y136592D02*
Y139175D01*
X181693Y137875D02*
Y138914D01*
X177723Y149513D02*
X180271Y145786D01*
X182164Y148706*
X177723Y149513*
X179947Y146260D02*
X180578D01*
X179274Y147244D02*
X181216D01*
X178601Y148228D02*
X181855D01*
X177928Y149213D02*
X179375D01*
X177756Y149464D02*
Y149507D01*
X178740Y148025D02*
Y149328D01*
X179724Y146585D02*
Y149149D01*
X180709Y146462D02*
Y148970D01*
X181693Y147979D02*
Y148791D01*
X144019Y476302D02*
X147638Y477854D01*
X145571Y479921*
X144019Y476302*
X144305Y476969D02*
X145572D01*
X144727Y477953D02*
X147539D01*
X145149Y478937D02*
X146555D01*
X145571Y479921D02*
X145571D01*
X144291Y476419D02*
Y476938D01*
X145276Y476841D02*
Y479233D01*
X146260Y477263D02*
Y479232D01*
X147244Y477685D02*
Y478248D01*
X200000Y135039D02*
X199095Y132401D01*
X200905*
X200000Y135039*
X199122Y132480D02*
X200878D01*
X199460Y133465D02*
X200540D01*
X199798Y134449D02*
X200203D01*
X199409Y132401D02*
Y133317D01*
X200394Y132401D02*
Y133891D01*
X214961Y299213D02*
X215865Y301851D01*
X214056*
X214961Y299213*
X214758Y299803D02*
X215163D01*
X214421Y300787D02*
X215501D01*
X214083Y301772D02*
X215838D01*
X214173Y301509D02*
Y301851D01*
X215157Y299787D02*
Y301851D01*
X209449Y143701D02*
X208544Y141062D01*
X210354*
X209449Y143701*
X208639Y141339D02*
X210259D01*
X208976Y142323D02*
X209921D01*
X209314Y143307D02*
X209584D01*
X209252Y141062D02*
Y143127D01*
X210236Y141062D02*
Y141405D01*
X225591Y295669D02*
X227052Y299326D01*
X224129*
X225591Y295669*
X225512Y295866D02*
X225669D01*
X225118Y296850D02*
X226063D01*
X224725Y297835D02*
X226456D01*
X224332Y298819D02*
X226849D01*
X225000Y297147D02*
Y299326D01*
X225984Y296654D02*
Y299326D01*
X226969Y299117D02*
Y299326D01*
X206299Y134646D02*
X205394Y132007D01*
X207204*
X206299Y134646*
X205557Y132480D02*
X207042D01*
X205894Y133465D02*
X206704D01*
X206232Y134449D02*
X206367D01*
X206299Y132007D02*
Y134646D01*
X220335Y324272D02*
X222835Y325492D01*
X221555Y326772*
X220335Y324272*
X220402Y324409D02*
X220616D01*
X220883Y325394D02*
X222633D01*
X221363Y326378D02*
X221949D01*
X221063Y324627D02*
Y325763D01*
X222047Y325108D02*
Y326280D01*
X381966Y146139D02*
X378346Y144587D01*
X380413Y142520*
X381966Y146139*
X379626Y143307D02*
X380751D01*
X378642Y144291D02*
X381173D01*
X379953Y145276D02*
X381595D01*
X378543Y144390D02*
Y144671D01*
X379528Y143406D02*
Y145093D01*
X380512Y142749D02*
Y145515D01*
X381496Y145044D02*
Y145937D01*
X385827Y315354D02*
X386732Y317993D01*
X384922*
X385827Y315354*
X385759Y315551D02*
X385894D01*
X385422Y316535D02*
X386232D01*
X385084Y317520D02*
X386569D01*
X385433Y316502D02*
Y317993D01*
X386417Y317077D02*
Y317993D01*
X387871Y133147D02*
X384252Y131594D01*
X386319Y129528*
X387871Y133147*
X385335Y130512D02*
X386741D01*
X384350Y131496D02*
X387163D01*
X386317Y132480D02*
X387585D01*
X384449Y131398D02*
Y131679D01*
X385433Y130413D02*
Y132101D01*
X386417Y129757D02*
Y132523D01*
X387402Y132052D02*
Y132945D01*
X379528Y368799D02*
X380392Y370710D01*
X378663*
X379528Y368799*
X379127Y369685D02*
X379928D01*
X378682Y370669D02*
X380374D01*
X379528Y368799D02*
Y370710D01*
X177395Y158940D02*
X180343Y155521D01*
X181899Y158634*
X177395Y158940*
X179842Y156102D02*
X180633D01*
X178993Y157087D02*
X181126D01*
X178145Y158071D02*
X181618D01*
X177756Y158522D02*
Y158916D01*
X178740Y157380D02*
Y158849D01*
X179724Y156238D02*
Y158782D01*
X180709Y156253D02*
Y158715D01*
X181693Y158221D02*
Y158648D01*
X169822Y306162D02*
X168602Y308661D01*
X167323Y307382*
X169822Y306162*
X168735Y306693D02*
X169563D01*
X167618Y307677D02*
X169083D01*
X168602Y308661D02*
X168602D01*
X167913Y307094D02*
Y307972D01*
X168898Y306613D02*
Y308056D01*
X178501Y170475D02*
X180217Y166299D01*
X182677Y168760*
X178501Y170475*
X179958Y166929D02*
X180846D01*
X179554Y167913D02*
X181831D01*
X179149Y168898D02*
X182342D01*
X178745Y169882D02*
X179945D01*
X178740Y169894D02*
Y170377D01*
X179724Y167497D02*
Y169973D01*
X180709Y166791D02*
Y169568D01*
X181693Y167776D02*
Y169164D01*
X182677Y168760D02*
X182677D01*
X320866Y399606D02*
X322328Y403263D01*
X319405*
X320866Y399606*
X320630Y400197D02*
X321102D01*
X320237Y401181D02*
X321496D01*
X319843Y402165D02*
X321889D01*
X319450Y403150D02*
X322282D01*
X319488Y403054D02*
Y403263D01*
X320472Y400591D02*
Y403263D01*
X321457Y401084D02*
Y403263D01*
X351969Y159150D02*
X350195Y154923D01*
X353742*
X351969Y159150*
X350277Y155118D02*
X353660D01*
X350690Y156102D02*
X353247D01*
X351103Y157087D02*
X352834D01*
X351516Y158071D02*
X352421D01*
X351929Y159055D02*
X352008D01*
X350984Y154923D02*
Y156804D01*
X351969Y154923D02*
Y159150D01*
X352953Y154923D02*
Y156804D01*
X417559Y163087D02*
X415786Y158860D01*
X419332*
X417559Y163087*
X415868Y159055D02*
X419251D01*
X416281Y160039D02*
X418838D01*
X416694Y161024D02*
X418425D01*
X417106Y162008D02*
X418012D01*
X417519Y162992D02*
X417599D01*
X415945Y158860D02*
Y159239D01*
X416929Y158860D02*
Y161585D01*
X417913Y158860D02*
Y162242D01*
X418898Y158860D02*
Y159896D01*
X141339Y187402D02*
X139877Y183745D01*
X142800*
X141339Y187402*
X140237Y184646D02*
X142440D01*
X140630Y185630D02*
X142047D01*
X141024Y186614D02*
X141653D01*
X140354Y183745D02*
Y184939D01*
X141339Y183745D02*
Y187402D01*
X142323Y183745D02*
Y184939D01*
X141339Y214173D02*
X142800Y217830D01*
X139877*
X141339Y214173*
X141339*
X140945Y215157D02*
X141732D01*
X140552Y216142D02*
X142125D01*
X140158Y217126D02*
X142519D01*
X140354Y216636D02*
Y217830D01*
X141339Y214173D02*
Y217830D01*
X142323Y216636D02*
Y217830D01*
X186853Y190475D02*
X182677Y188760D01*
X185138Y186299*
X186853Y190475*
X184823Y186614D02*
X185267D01*
X183839Y187598D02*
X185671D01*
X182854Y188583D02*
X186076D01*
X184642Y189567D02*
X186480D01*
X183661Y187776D02*
Y189164D01*
X184646Y186791D02*
Y189568D01*
X185630Y187497D02*
Y189973D01*
X186614Y189894D02*
Y190377D01*
X206299Y472835D02*
X207761Y476491D01*
X204838*
X206299Y472835*
X206221Y473031D02*
X206378D01*
X205827Y474016D02*
X206771D01*
X205434Y475000D02*
X207165D01*
X205040Y475984D02*
X207558D01*
X205315Y475297D02*
Y476491D01*
X206299Y472835D02*
Y476491D01*
X207283Y475297D02*
Y476491D01*
X256299Y174803D02*
X258938Y173898D01*
Y175708*
X256299Y174803*
X258938*
X256496Y174736D02*
Y174871D01*
X257480Y174398D02*
Y175208D01*
X258465Y174061D02*
Y175546D01*
X240157Y213780D02*
X241062Y216418D01*
X239253*
X240157Y213780*
X240022Y214173D02*
X240292D01*
X239685Y215157D02*
X240630D01*
X239347Y216142D02*
X240967D01*
X239764Y214928D02*
Y216418D01*
X240748Y215502D02*
Y216418D01*
X272539Y171654D02*
X270196Y172558D01*
Y170749*
X272539Y171654*
X270196Y170866D02*
X270500D01*
X270196Y171850D02*
X272030D01*
X270276Y170779D02*
Y172528D01*
X271260Y171160D02*
Y172148D01*
X272244Y171540D02*
Y171768D01*
X282677Y254331D02*
X283582Y256969D01*
X281772*
X282677Y254331*
X282610Y254528D02*
X282745D01*
X282272Y255512D02*
X283082D01*
X281935Y256496D02*
X283420D01*
X282087Y256053D02*
Y256969D01*
X283071Y255479D02*
Y256969D01*
X260630Y302756D02*
X261535Y305394D01*
X259725*
X260630Y302756*
X260630*
X260292Y303740D02*
X260967D01*
X259955Y304724D02*
X261305D01*
X260433Y303330D02*
Y305394D01*
X261417Y305052D02*
Y305394D01*
X298819Y234252D02*
X300280Y237909D01*
X297357*
X298819Y234252*
X298583Y234843D02*
X299055D01*
X298189Y235827D02*
X299448D01*
X297796Y236811D02*
X299842D01*
X297403Y237795D02*
X300235D01*
X297835Y236714D02*
Y237909D01*
X298819Y234252D02*
Y237909D01*
X299803Y236714D02*
Y237909D01*
X288583Y215354D02*
X289487Y217993D01*
X287678*
X288583Y215354*
X288313Y216142D02*
X288853D01*
X287975Y217126D02*
X289190D01*
X287992Y217077D02*
Y217993D01*
X288976Y216502D02*
Y217993D01*
X380846Y182027D02*
X377738Y181194D01*
X380013Y178919*
X380846Y182027*
X379208Y179724D02*
X380229D01*
X378223Y180709D02*
X380493D01*
X379599Y181693D02*
X380756D01*
X378543Y180389D02*
Y181410D01*
X379528Y179404D02*
Y181674D01*
X380512Y180780D02*
Y181937D01*
X377559Y172835D02*
X379299Y177000D01*
X375819*
X377559Y172835*
X377559*
X377148Y173819D02*
X377970D01*
X376737Y174803D02*
X378381D01*
X376326Y175787D02*
X378792D01*
X375915Y176772D02*
X379204D01*
X376575Y175191D02*
Y177000D01*
X377559Y172835D02*
Y177000D01*
X378543Y175191D02*
Y177000D01*
X186853Y200475D02*
X182677Y198760D01*
X185138Y196299*
X186853Y200475*
X184980Y196457D02*
X185202D01*
X183996Y197441D02*
X185607D01*
X183012Y198425D02*
X186011D01*
X184259Y199409D02*
X186415D01*
X186655Y200394D02*
X186820D01*
X183661Y197776D02*
Y199164D01*
X184646Y196791D02*
Y199568D01*
X185630Y197497D02*
Y199973D01*
X186614Y199894D02*
Y200377D01*
X235197Y212205D02*
X233457Y208039D01*
X236937*
X235197Y212205*
X233552Y208268D02*
X236841D01*
X233964Y209252D02*
X236430D01*
X234375Y210236D02*
X236019D01*
X234786Y211220D02*
X235608D01*
X235197Y212205D02*
X235197D01*
X233858Y208039D02*
Y209000D01*
X234843Y208039D02*
Y211356D01*
X235827Y208039D02*
Y210697D01*
X236811Y208039D02*
Y208340D01*
X245197Y212205D02*
X243457Y208039D01*
X246937*
X245197Y212205*
X243552Y208268D02*
X246841D01*
X243964Y209252D02*
X246430D01*
X244375Y210236D02*
X246019D01*
X244786Y211220D02*
X245608D01*
X245197Y212205D02*
X245197D01*
X243701Y208039D02*
Y208623D01*
X244685Y208039D02*
Y210979D01*
X245669Y208039D02*
Y211074D01*
X246654Y208039D02*
Y208717D01*
X250000Y330217D02*
X251462Y333184D01*
X248538*
X250000Y330217*
X249952Y330315D02*
X250048D01*
X249467Y331299D02*
X250533D01*
X248982Y332283D02*
X251018D01*
X248622Y333014D02*
Y333184D01*
X249606Y331016D02*
Y333184D01*
X250591Y331416D02*
Y333184D01*
X201291Y221375D02*
X198625Y220555D01*
X199689Y219092*
X201291Y221375*
X199687Y219094D02*
X199691D01*
X198971Y220079D02*
X200381D01*
X200275Y221063D02*
X201072D01*
X199409Y219476D02*
Y220797D01*
X200394Y220096D02*
Y221099D01*
X207087Y296850D02*
X207991Y299489D01*
X206182*
X207087Y296850*
X207087*
X206749Y297835D02*
X207424D01*
X206412Y298819D02*
X207762D01*
X206299Y299147D02*
Y299489D01*
X207283Y297424D02*
Y299489D01*
X316535Y220472D02*
X315631Y217834D01*
X317440*
X316535Y220472*
X315725Y218110D02*
X317345D01*
X316063Y219094D02*
X317008D01*
X316400Y220079D02*
X316670D01*
X316535Y217834D02*
Y220472D01*
Y268898D02*
X317440Y271536D01*
X315631*
X316535Y268898*
X316400Y269291D02*
X316670D01*
X316063Y270276D02*
X317008D01*
X315725Y271260D02*
X317345D01*
X316535Y268898D02*
Y271536D01*
X345669Y224016D02*
X344208Y220359D01*
X347131*
X345669Y224016*
X344489Y221063D02*
X346850D01*
X344882Y222047D02*
X346456D01*
X345276Y223031D02*
X346063D01*
X345669Y224016D02*
X345669D01*
X345079Y220359D02*
Y222538D01*
X346063Y220359D02*
Y223031D01*
X347047Y220359D02*
Y220568D01*
X345669Y325197D02*
X346574Y327835D01*
X344765*
X345669Y325197*
X345602Y325394D02*
X345737D01*
X345264Y326378D02*
X346074D01*
X344927Y327362D02*
X346412D01*
X345079Y326919D02*
Y327835D01*
X346063Y326345D02*
Y327835D01*
X195019Y235373D02*
X189914Y234337D01*
X193982Y230268*
X195019Y235373*
X193345Y230906D02*
X194112D01*
X192361Y231890D02*
X194312D01*
X191377Y232874D02*
X194512D01*
X190393Y233858D02*
X194711D01*
X192405Y234843D02*
X194911D01*
X190551Y233700D02*
Y234466D01*
X191535Y232715D02*
Y234666D01*
X192520Y231731D02*
Y234866D01*
X193504Y230747D02*
Y235066D01*
X194488Y232759D02*
Y235266D01*
X196063Y394488D02*
X197525Y398145D01*
X194601*
X196063Y394488*
X195748Y395276D02*
X196378D01*
X195355Y396260D02*
X196771D01*
X194961Y397244D02*
X197165D01*
X195472Y395966D02*
Y398145D01*
X196457Y395473D02*
Y398145D01*
X197441Y397936D02*
Y398145D01*
X338913Y306919D02*
X340687Y309071D01*
X338993Y309707*
X338913Y306919*
X338935Y307677D02*
X339538D01*
X338963Y308661D02*
X340349D01*
X338991Y309646D02*
X339156D01*
X339173Y307234D02*
Y309639D01*
X340157Y308429D02*
Y309270D01*
X377241Y243777D02*
X373622Y242224D01*
X375689Y240157*
X377241Y243777*
X375098Y240748D02*
X375942D01*
X374114Y241732D02*
X376364D01*
X374770Y242717D02*
X376786D01*
X377064Y243701D02*
X377209D01*
X374606Y241240D02*
Y242647D01*
X375591Y240256D02*
Y243069D01*
X376575Y242223D02*
Y243491D01*
X373765Y369148D02*
X372539Y371654D01*
X371260Y370374*
X373765Y369148*
X372668Y369685D02*
X373503D01*
X371555Y370669D02*
X373021D01*
X372539Y371654D02*
X372539D01*
X371654Y370181D02*
Y370768D01*
X372638Y369700D02*
Y371452D01*
X373622Y369218D02*
Y369441D01*
X420936Y236881D02*
X413976Y234350D01*
X418406Y229921*
X420936Y236881*
X417421Y230906D02*
X418763D01*
X416437Y231890D02*
X419121D01*
X415453Y232874D02*
X419479D01*
X414469Y233858D02*
X419837D01*
X415330Y234843D02*
X420195D01*
X418037Y235827D02*
X420553D01*
X420744Y236811D02*
X420911D01*
X414961Y233366D02*
Y234708D01*
X415945Y232382D02*
Y235066D01*
X416929Y231398D02*
Y235424D01*
X417913Y230413D02*
Y235782D01*
X418898Y231275D02*
Y236140D01*
X419882Y233982D02*
Y236498D01*
X420866Y236689D02*
Y236856D01*
X422835Y288189D02*
X424296Y291846D01*
X421373*
X422835Y288189*
X422520Y288976D02*
X423149D01*
X422127Y289961D02*
X423543D01*
X421733Y290945D02*
X423936D01*
X421850Y290651D02*
Y291846D01*
X422835Y288189D02*
Y291846D01*
X423819Y290651D02*
Y291846D01*
X123622Y260630D02*
X122161Y256973D01*
X125084*
X123622Y260630*
X122363Y257480D02*
X124881D01*
X122757Y258465D02*
X124488D01*
X123150Y259449D02*
X124094D01*
X123543Y260433D02*
X123701D01*
X122638Y256973D02*
Y258167D01*
X123622Y256973D02*
Y260630D01*
X124606Y256973D02*
Y258167D01*
X118110Y383465D02*
X119015Y386103D01*
X117205*
X118110Y383465*
X118110*
X117773Y384449D02*
X118448D01*
X117435Y385433D02*
X118785D01*
X117717Y384613D02*
Y386103D01*
X118701Y385187D02*
Y386103D01*
X301181Y263780D02*
X300276Y261141D01*
X302086*
X301181Y263780*
X300371Y261417D02*
X301991D01*
X300709Y262402D02*
X301654D01*
X301046Y263386D02*
X301316D01*
X300787Y261141D02*
Y262631D01*
X301772Y261141D02*
Y262057D01*
X265669Y279134D02*
X267409Y283299D01*
X263929*
X265669Y279134*
X265669*
X265258Y280118D02*
X266080D01*
X264847Y281102D02*
X266492D01*
X264436Y282087D02*
X266903D01*
X264025Y283071D02*
X267314D01*
X264370Y282244D02*
Y283299D01*
X265354Y279888D02*
Y283299D01*
X266339Y280736D02*
Y283299D01*
X267323Y283093D02*
Y283299D01*
X333071Y281496D02*
X332166Y278858D01*
X333976*
X333071Y281496*
X332261Y279134D02*
X333881D01*
X332598Y280118D02*
X333543D01*
X332936Y281102D02*
X333206D01*
X332283Y278858D02*
Y279200D01*
X333268Y278858D02*
Y280922D01*
X333071Y308661D02*
X333976Y311300D01*
X332166*
X333071Y308661*
X333071*
X332733Y309646D02*
X333408D01*
X332396Y310630D02*
X333746D01*
X332283Y310958D02*
Y311300D01*
X333268Y309235D02*
Y311300D01*
X157787Y304212D02*
X157863Y300988D01*
X160436Y302373*
X157787Y304212*
X157844Y301772D02*
X159319D01*
X157821Y302756D02*
X159885D01*
X157798Y303740D02*
X158467D01*
X158071Y301100D02*
Y304015D01*
X159055Y301630D02*
Y303332D01*
X160039Y302160D02*
Y302649D01*
X158563Y334094D02*
X161040Y332597D01*
Y335592*
X158563Y334094*
X159930Y333268D02*
X161040D01*
X158823Y334252D02*
X161040D01*
X160451Y335236D02*
X161040D01*
X159055Y333797D02*
Y334392D01*
X160039Y333202D02*
Y334987D01*
X161024Y332606D02*
Y335583D01*
X306693Y318110D02*
X308154Y321767D01*
X305231*
X306693Y318110*
X306536Y318504D02*
X306850D01*
X306142Y319488D02*
X307244D01*
X305749Y320472D02*
X307637D01*
X305355Y321457D02*
X308031D01*
X305709Y320573D02*
Y321767D01*
X306693Y318110D02*
Y321767D01*
X307677Y320573D02*
Y321767D01*
X295669Y300945D02*
X293929Y296779D01*
X297409*
X295669Y300945*
X293959Y296850D02*
X297380D01*
X294370Y297835D02*
X296968D01*
X294781Y298819D02*
X296557D01*
X295192Y299803D02*
X296146D01*
X295604Y300787D02*
X295735D01*
X294882Y296779D02*
Y299060D01*
X295866Y296779D02*
Y300474D01*
X296850Y296779D02*
Y298117D01*
X295669Y305512D02*
X297131Y309168D01*
X294208*
X295669Y305512*
X295591Y305709D02*
X295748D01*
X295197Y306693D02*
X296141D01*
X294804Y307677D02*
X296535D01*
X294410Y308661D02*
X296928D01*
X294882Y307482D02*
Y309168D01*
X295866Y306004D02*
Y309168D01*
X296850Y308467D02*
Y309168D01*
X178740Y317717D02*
X177835Y315078D01*
X179645*
X178740Y317717*
X177998Y315551D02*
X179483D01*
X178335Y316535D02*
X179145D01*
X178673Y317520D02*
X178808D01*
X178740Y315078D02*
Y317717D01*
X175197Y357776D02*
X176354Y359705D01*
X174040*
X175197Y357776*
X175138Y357874D02*
X175256D01*
X174547Y358858D02*
X175846D01*
X174803Y358432D02*
Y359705D01*
X175787Y358760D02*
Y359705D01*
X213386Y312992D02*
X212481Y310354D01*
X214291*
X213386Y312992*
X212576Y310630D02*
X214196D01*
X212913Y311614D02*
X213858D01*
X213251Y312598D02*
X213521D01*
X213189Y310354D02*
Y312418D01*
X214173Y310354D02*
Y310696D01*
X217805Y331978D02*
X222047Y333713D01*
X219539Y336220*
X217805Y331978*
X217930Y332283D02*
X218552D01*
X218332Y333268D02*
X220959D01*
X218734Y334252D02*
X221508D01*
X219137Y335236D02*
X220524D01*
X219539Y336220D02*
X219539D01*
X218110Y332103D02*
Y332725D01*
X219094Y332505D02*
Y335132D01*
X220079Y332908D02*
Y335681D01*
X221063Y333310D02*
Y334697D01*
X222047Y333713D02*
X222047D01*
X229921Y322441D02*
X229016Y319802D01*
X229016D02*
X230826D01*
X229921Y322441*
X229246Y320472D02*
X230596D01*
X229584Y321457D02*
X230259D01*
X229921Y322441D02*
X229921D01*
Y319802D02*
Y322441D01*
X331890Y329134D02*
X330428Y325477D01*
X333351*
X331890Y329134*
X330788Y326378D02*
X332991D01*
X331182Y327362D02*
X332598D01*
X331575Y328346D02*
X332204D01*
X331299Y325477D02*
Y327656D01*
X332283Y325477D02*
Y328149D01*
X333268Y325477D02*
Y325686D01*
X331890Y381890D02*
X333351Y385546D01*
X330428*
X331890Y381890*
X331654Y382480D02*
X332126D01*
X331260Y383465D02*
X332519D01*
X330867Y384449D02*
X332913D01*
X330473Y385433D02*
X333306D01*
X331299Y383367D02*
Y385546D01*
X332283Y382875D02*
Y385546D01*
X333268Y385337D02*
Y385546D01*
X310954Y326684D02*
X312689Y322441D01*
X315197Y324949*
X310954Y326684*
X312287Y323425D02*
X313673D01*
X311884Y324409D02*
X314657D01*
X311482Y325394D02*
X314109D01*
X311079Y326378D02*
X311702D01*
X311614Y325070D02*
Y326414D01*
X312598Y322662D02*
Y326011D01*
X313583Y323335D02*
Y325609D01*
X314567Y324319D02*
Y325206D01*
X272165Y367224D02*
X274114Y371201D01*
X270217*
X272165Y367224*
X271924Y367717D02*
X272407D01*
X271442Y368701D02*
X272889D01*
X270959Y369685D02*
X273371D01*
X270477Y370669D02*
X273854D01*
X270276Y371081D02*
Y371201D01*
X271260Y369072D02*
Y371201D01*
X272244Y367385D02*
Y371201D01*
X273228Y369394D02*
Y371201D01*
X397869Y324094D02*
X399474Y322951D01*
Y325237*
X397869Y324094*
X398808Y323425D02*
X399474D01*
X398312Y324409D02*
X399474D01*
X398228Y323838D02*
Y324350D01*
X399213Y323137D02*
Y325051D01*
X392126Y389370D02*
X393588Y393027D01*
X390664*
X392126Y389370*
X392126*
X391733Y390354D02*
X392519D01*
X391339Y391339D02*
X392913D01*
X390946Y392323D02*
X393306D01*
X391339Y391340D02*
Y393027D01*
X392323Y389863D02*
Y393027D01*
X393307Y392325D02*
Y393027D01*
X138189Y372047D02*
X139651Y375704D01*
X136727*
X138189Y372047*
X137953Y372638D02*
X138425D01*
X137560Y373622D02*
X138818D01*
X137166Y374606D02*
X139212D01*
X136773Y375591D02*
X139605D01*
X137402Y374017D02*
Y375704D01*
X138386Y372540D02*
Y375704D01*
X139370Y375002D02*
Y375704D01*
X168504Y389370D02*
X169965Y393027D01*
X167042*
X168504Y389370*
X168504*
X168111Y390354D02*
X168897D01*
X167717Y391339D02*
X169291D01*
X167324Y392323D02*
X169684D01*
X167913Y390848D02*
Y393027D01*
X168898Y390355D02*
Y393027D01*
X169882Y392818D02*
Y393027D01*
X182283Y399606D02*
X183745Y403263D01*
X180822*
X182283Y399606*
X182047Y400197D02*
X182520D01*
X181654Y401181D02*
X182913D01*
X181261Y402165D02*
X183306D01*
X180867Y403150D02*
X183700D01*
X181693Y401084D02*
Y403263D01*
X182677Y400591D02*
Y403263D01*
X183661Y403054D02*
Y403263D01*
X236220Y368504D02*
X237682Y372161D01*
X234759*
X236220Y368504*
X236142Y368701D02*
X236299D01*
X235748Y369685D02*
X236693D01*
X235355Y370669D02*
X237086D01*
X234962Y371654D02*
X237479D01*
X234843Y371951D02*
Y372161D01*
X235827Y369489D02*
Y372161D01*
X236811Y369981D02*
Y372161D01*
X257805Y340463D02*
X259539Y336220D01*
X262047Y338728*
X257805Y340463*
X259137Y337205D02*
X260524D01*
X258734Y338189D02*
X261508D01*
X258332Y339173D02*
X260959D01*
X257930Y340157D02*
X258552D01*
X258465Y338849D02*
Y340193D01*
X259449Y336442D02*
Y339791D01*
X260433Y337114D02*
Y339388D01*
X261417Y338098D02*
Y338986D01*
X310954Y340463D02*
X312689Y336220D01*
X315197Y338728*
X310954Y340463*
X312287Y337205D02*
X313673D01*
X311884Y338189D02*
X314657D01*
X311482Y339173D02*
X314109D01*
X311079Y340157D02*
X311702D01*
X311614Y338849D02*
Y340193D01*
X312598Y336442D02*
Y339791D01*
X313583Y337114D02*
Y339388D01*
X314567Y338098D02*
Y338986D01*
X282165Y366654D02*
X284114Y371201D01*
X280217*
X282165Y366654*
X282132Y366732D02*
X282199D01*
X281710Y367717D02*
X282621D01*
X281288Y368701D02*
X283043D01*
X280866Y369685D02*
X283464D01*
X280444Y370669D02*
X283886D01*
X281102Y369134D02*
Y371201D01*
X282087Y366837D02*
Y371201D01*
X283071Y368767D02*
Y371201D01*
X284055Y371063D02*
Y371201D01*
X338976Y337795D02*
X337515Y334139D01*
X340438*
X338976Y337795*
X337560Y334252D02*
X340393D01*
X337954Y335236D02*
X339999D01*
X338347Y336220D02*
X339606D01*
X338740Y337205D02*
X339212D01*
X338189Y334139D02*
Y335825D01*
X339173Y334139D02*
Y337303D01*
X340157Y334139D02*
Y334840D01*
X338976Y394488D02*
X340438Y398145D01*
X337515*
X338976Y394488*
X338662Y395276D02*
X339291D01*
X338268Y396260D02*
X339685D01*
X337875Y397244D02*
X340078D01*
X338189Y396458D02*
Y398145D01*
X339173Y394981D02*
Y398145D01*
X340157Y397443D02*
Y398145D01*
X397477Y338270D02*
X399193Y334094D01*
X401653Y336555*
X397477Y338270*
X399128Y334252D02*
X399350D01*
X398723Y335236D02*
X400335D01*
X398319Y336220D02*
X401319D01*
X397915Y337205D02*
X400071D01*
X397511Y338189D02*
X397674D01*
X398228Y336442D02*
Y337961D01*
X399213Y334114D02*
Y337557D01*
X400197Y335098D02*
Y337153D01*
X401181Y336083D02*
Y336749D01*
X402832Y373153D02*
X401280Y376772D01*
X399213Y374705*
X402832Y373153*
X401737Y373622D02*
X402630D01*
X399442Y374606D02*
X402208D01*
X400098Y375591D02*
X401786D01*
X401083Y376575D02*
X401364D01*
X400197Y374283D02*
Y375689D01*
X401181Y373860D02*
Y376673D01*
X402165Y373438D02*
Y374706D01*
X243701Y360236D02*
X242239Y356580D01*
X245162*
X243701Y360236*
X242363Y356890D02*
X245038D01*
X242757Y357874D02*
X244645D01*
X243150Y358858D02*
X244252D01*
X243543Y359843D02*
X243858D01*
X242717Y356580D02*
Y357774D01*
X243701Y356580D02*
Y360236D01*
X244685Y356580D02*
Y357774D01*
X243701Y372835D02*
X245162Y376491D01*
X242239*
X243701Y372835*
X243386Y373622D02*
X244016D01*
X242993Y374606D02*
X244409D01*
X242599Y375591D02*
X244802D01*
X242717Y375297D02*
Y376491D01*
X243701Y372835D02*
Y376491D01*
X244685Y375297D02*
Y376491D01*
X262047Y356000D02*
X260274Y351773D01*
X263821*
X262047Y356000*
X260356Y351969D02*
X263739D01*
X260769Y352953D02*
X263326D01*
X261182Y353937D02*
X262913D01*
X261595Y354921D02*
X262500D01*
X262008Y355906D02*
X262087D01*
X260433Y351773D02*
Y352153D01*
X261417Y351773D02*
Y354499D01*
X262402Y351773D02*
Y355155D01*
X263386Y351773D02*
Y352810D01*
X310954Y354243D02*
X312689Y350000D01*
X315197Y352508*
X310954Y354243*
X312287Y350984D02*
X313673D01*
X311884Y351969D02*
X314657D01*
X311482Y352953D02*
X314109D01*
X311079Y353937D02*
X311702D01*
X311614Y352629D02*
Y353973D01*
X312598Y350221D02*
Y353570D01*
X313583Y350894D02*
Y353168D01*
X314567Y351878D02*
Y352765D01*
X433071Y398031D02*
X434532Y401688D01*
X431609*
X433071Y398031*
X432992Y398228D02*
X433150D01*
X432599Y399213D02*
X433543D01*
X432205Y400197D02*
X433936D01*
X431812Y401181D02*
X434330D01*
X431693Y401479D02*
Y401688D01*
X432677Y399016D02*
Y401688D01*
X433661Y399509D02*
Y401688D01*
X302165Y379646D02*
X300217Y375098D01*
X304114*
X302165Y379646*
X300428Y375591D02*
X303903D01*
X300849Y376575D02*
X303481D01*
X301271Y377559D02*
X303060D01*
X301693Y378543D02*
X302638D01*
X302115Y379528D02*
X302216D01*
X300787Y375098D02*
Y376430D01*
X301772Y375098D02*
Y378727D01*
X302756Y375098D02*
Y378268D01*
X303740Y375098D02*
Y375971D01*
X335846Y449213D02*
X337308Y452869D01*
X334385*
X335846Y449213*
X335768Y449409D02*
X335925D01*
X335374Y450394D02*
X336319D01*
X334981Y451378D02*
X336712D01*
X334588Y452362D02*
X337105D01*
X335236Y450739D02*
Y452869D01*
X336220Y450148D02*
Y452869D01*
X337205Y452611D02*
Y452869D01*
X230246Y475679D02*
X234488Y477413D01*
X231980Y479921*
X230246Y475679*
X230371Y475984D02*
X230993D01*
X230773Y476969D02*
X233400D01*
X231175Y477953D02*
X233949D01*
X231578Y478937D02*
X232965D01*
X231980Y479921D02*
X231980D01*
X230906Y475948D02*
Y477293D01*
X231890Y476351D02*
Y479700D01*
X232874Y476753D02*
Y479028D01*
X233858Y477156D02*
Y478043D01*
X272441Y429921D02*
X270979Y426265D01*
X273902*
X272441Y429921*
X271182Y426772D02*
X273700D01*
X271575Y427756D02*
X273306D01*
X271969Y428740D02*
X272913D01*
X272362Y429724D02*
X272520D01*
X271260Y426265D02*
Y426966D01*
X272244Y426265D02*
Y429429D01*
X273228Y426265D02*
Y427951D01*
X318504Y429921D02*
X317042Y426265D01*
X319965*
X318504Y429921*
X317245Y426772D02*
X319763D01*
X317638Y427756D02*
X319369D01*
X318032Y428740D02*
X318976D01*
X318425Y429724D02*
X318583D01*
X317520Y426265D02*
Y427459D01*
X318504Y426265D02*
Y429921D01*
X319488Y426265D02*
Y427459D01*
X318504Y474803D02*
X319965Y478460D01*
X317042*
X318504Y474803*
X318425Y475000D02*
X318583D01*
X318032Y475984D02*
X318976D01*
X317638Y476969D02*
X319369D01*
X317245Y477953D02*
X319763D01*
X317520Y477266D02*
Y478460D01*
X318504Y474803D02*
Y478460D01*
X319488Y477266D02*
Y478460D01*
X218110Y451181D02*
X216649Y447525D01*
X219572*
X218110Y451181*
X217009Y448425D02*
X219212D01*
X217402Y449409D02*
X218818D01*
X217796Y450394D02*
X218425D01*
X217126Y447525D02*
Y448719D01*
X218110Y447525D02*
Y451181D01*
X219094Y447525D02*
Y448719D01*
X230246Y489458D02*
X234488Y491193D01*
X231980Y493701*
X230246Y489458*
X230371Y489764D02*
X230993D01*
X230773Y490748D02*
X233400D01*
X231175Y491732D02*
X233949D01*
X231578Y492717D02*
X232965D01*
X231980Y493701D02*
X231980D01*
X230906Y489728D02*
Y491072D01*
X231890Y490130D02*
Y493479D01*
X232874Y490533D02*
Y492807D01*
X233858Y490935D02*
Y491823D01*
X248819Y451181D02*
X247357Y447525D01*
X250280*
X248819Y451181*
X247717Y448425D02*
X249920D01*
X248111Y449409D02*
X249527D01*
X248504Y450394D02*
X249134D01*
X247638Y447525D02*
Y448226D01*
X248622Y447525D02*
Y450689D01*
X249606Y447525D02*
Y449211D01*
X241358Y449213D02*
X242820Y452869D01*
X239897*
X241358Y449213*
X241280Y449409D02*
X241437D01*
X240886Y450394D02*
X241830D01*
X240493Y451378D02*
X242224D01*
X240099Y452362D02*
X242617D01*
X240748Y450739D02*
Y452869D01*
X241732Y450148D02*
Y452869D01*
X242717Y452611D02*
Y452869D01*
X272854Y449213D02*
X274316Y452869D01*
X271393*
X272854Y449213*
X272776Y449409D02*
X272933D01*
X272382Y450394D02*
X273326D01*
X271989Y451378D02*
X273720D01*
X271595Y452362D02*
X274113D01*
X272244Y450739D02*
Y452869D01*
X273228Y450148D02*
Y452869D01*
X274213Y452611D02*
Y452869D01*
X296759Y437743D02*
X292165Y435906D01*
X294921Y433150*
X296759Y437743*
X294409Y433661D02*
X295126D01*
X293425Y434646D02*
X295520D01*
X292441Y435630D02*
X295913D01*
X293937Y436614D02*
X296307D01*
X296397Y437598D02*
X296701D01*
X292913Y435157D02*
Y436205D01*
X293898Y434173D02*
Y436598D01*
X294882Y433189D02*
Y436992D01*
X295866Y435512D02*
Y437386D01*
X304350Y449213D02*
X305812Y452869D01*
X302889*
X304350Y449213*
X304272Y449409D02*
X304429D01*
X303878Y450394D02*
X304822D01*
X303485Y451378D02*
X305216D01*
X303091Y452362D02*
X305609D01*
X303740Y450739D02*
Y452869D01*
X304724Y450148D02*
Y452869D01*
X305709Y452611D02*
Y452869D01*
X280354Y459449D02*
X278893Y455792D01*
X281816*
X280354Y459449*
X279095Y456299D02*
X281613D01*
X279489Y457283D02*
X281220D01*
X279882Y458268D02*
X280826D01*
X280276Y459252D02*
X280433D01*
X279134Y455792D02*
Y456395D01*
X280118Y455792D02*
Y458858D01*
X281102Y455792D02*
Y457577D01*
X283564Y489627D02*
X287638Y491193D01*
X285130Y493701*
X283564Y489627*
X283616Y489764D02*
X283920D01*
X283995Y490748D02*
X286481D01*
X284373Y491732D02*
X287098D01*
X284752Y492717D02*
X286114D01*
X285130Y493701D02*
X285130D01*
X284055Y489816D02*
Y490905D01*
X285039Y490194D02*
Y493465D01*
X286024Y490572D02*
Y492807D01*
X287008Y490951D02*
Y491823D01*
X311850Y459449D02*
X310389Y455792D01*
X313312*
X311850Y459449*
X310591Y456299D02*
X313109D01*
X310985Y457283D02*
X312716D01*
X311378Y458268D02*
X312322D01*
X311772Y459252D02*
X311929D01*
X310630Y455792D02*
Y456395D01*
X311614Y455792D02*
Y458858D01*
X312598Y455792D02*
Y457577D01*
X346966Y457950D02*
X343346Y456398D01*
X345413Y454331*
X346966Y457950*
X344429Y455315D02*
X345836D01*
X343445Y456299D02*
X346258D01*
X345412Y457283D02*
X346680D01*
X344094Y455650D02*
Y456718D01*
X345079Y454665D02*
Y457141D01*
X346063Y455845D02*
Y457563D01*
X353307Y487701D02*
X355080Y491927D01*
X351534*
X353307Y487701*
X353267Y487795D02*
X353347D01*
X352854Y488780D02*
X353760D01*
X352442Y489764D02*
X354173D01*
X352029Y490748D02*
X354586D01*
X351616Y491732D02*
X354999D01*
X351969Y490891D02*
Y491927D01*
X352953Y488545D02*
Y491927D01*
X353937Y489202D02*
Y491927D01*
X354921Y491548D02*
Y491927D01*
X127165Y108661D02*
X278740D01*
X283858Y113780*
Y130709*
X127165Y108661D02*
X114961Y120866D01*
Y157638*
X119685Y162362*
X133622Y124685D02*
Y129921D01*
X137559Y133858*
Y166929*
X138307*
X143307Y171929*
X138189Y116142D02*
X240157D01*
X244094Y118504*
Y127953*
X138189Y116142D02*
X137165D01*
X133622Y119685*
X143622D02*
X233071D01*
X237795Y124409*
Y127953*
X154921Y123031D02*
X148425Y129528D01*
Y181890*
X153543Y187008*
Y269291*
X121654Y301181*
X122047Y301575*
Y478740*
X122441*
X143110Y499409*
X162402*
X164961Y501969*
X154921Y123031D02*
X155118Y123228D01*
X172441*
X165165Y126063D02*
X155433D01*
X151181Y130315*
Y181102*
X155906Y185827*
Y270472*
X124016Y302362*
Y475984*
X140945Y494488*
X151575*
X165165Y126063D02*
X166142Y127953D01*
X169291*
X182677Y126299D02*
X176686Y129894D01*
X176447Y130132*
Y134970*
X165748Y145669*
Y175984*
X162992Y178740*
Y274016*
X135433Y301575*
Y328346*
X219291Y126575D02*
X198228D01*
X194488Y130315*
Y138189*
X200394Y144094*
Y171654*
X190551Y181496*
X219291Y126575D02*
X227953Y135433D01*
X279134*
X298819Y150000*
Y152362*
X220079Y122441D02*
X198425D01*
X192126Y128740*
Y161811*
X220079Y122441D02*
X229528Y131890D01*
X280315*
X282283Y133858*
X288583*
Y134252*
X239370Y110630D02*
X237795Y112205D01*
X131102*
X123622Y119685*
X239370Y110630D02*
X246457D01*
X249213Y113386*
Y113780*
X243701Y114173D02*
X134134D01*
X128622Y119685*
X351969Y113150D02*
Y129528D01*
X392126Y125197D02*
Y204724D01*
X392520*
X402756Y214961*
Y254724*
X395276Y262205*
Y320866*
X387402Y328740*
Y367717*
X413976Y115748D02*
X424409Y126181D01*
Y150236*
X417559Y157087*
X182677Y136299D02*
X168471Y147201D01*
Y176772*
X165748Y179528*
Y275197*
X151575Y289370*
Y290157*
X151181Y290551*
Y357874*
X146457Y362598*
X146063*
X182677Y146299D02*
X171888Y153298D01*
X171654Y153532*
Y177165*
X168110Y180709*
Y277165*
X155118Y290157*
Y361811*
X142913Y374016*
Y475197*
X147638Y479921*
X200000Y131496D02*
Y137795D01*
X203543Y141339*
Y192126*
X210236Y198819*
Y214961*
X222835Y227559*
Y254724*
X214961Y262598*
Y302756*
X209449Y140157D02*
Y180315D01*
X229528Y200394*
Y257480*
X225591Y261417*
Y300787*
X206299Y131102D02*
Y188189D01*
X220079Y201969*
Y218504*
X224803Y223228*
Y257087*
X219291Y262598*
Y323228*
X222835Y326772*
X378346Y142520D02*
X385827Y150000D01*
Y208661*
X386220Y209055*
Y209843*
X396457Y220079*
Y250787*
X388583Y258661*
Y310630*
X385827Y313386*
Y318898*
X384252Y129528D02*
X388976Y134252D01*
Y207087*
X399606Y217717*
Y253543*
X392126Y261024*
Y317717*
X384252Y325591*
Y362598*
X379528Y367323*
Y371654*
X155906Y157480D02*
X154331Y159055D01*
Y180709*
X158268Y184646*
Y271654*
X125984Y303937*
Y473622*
X141142Y488780*
X183071*
X188386Y494094*
X160630Y148425D02*
Y149213D01*
X163780Y152362*
Y174409*
X160630Y177559*
Y272835*
X128346Y305118*
Y471654*
X136220Y479528*
X139764*
X182677Y156299D02*
X174551Y160362D01*
X174488Y177953*
X170866Y181496*
Y305118*
X167323Y308661*
X182677Y166299D02*
X177441Y171535D01*
Y177953*
X173228Y182283*
Y310630*
X170079Y313780*
Y318504*
X169685Y318898*
X307874Y165354D02*
Y167717D01*
X311024Y170866*
Y200000*
X304724Y206299*
Y276772*
X311024Y283071*
Y306693*
X320866Y316929*
Y404724*
X351969Y153150D02*
Y162205D01*
X344488Y169685*
Y206693*
X337402Y213780*
X334252*
X417559Y157087D02*
Y168268D01*
X416929Y168898*
X141339Y182283D02*
Y219291D01*
X182677Y176299D02*
X177126Y181850D01*
Y218898*
X175984Y220039*
X175591*
Y319685*
X168898Y326378*
Y362598*
X175984Y369685*
Y373622*
X182677Y186299D02*
X200000Y203622D01*
Y214961*
X207874Y222835*
Y253937*
X211811Y257874*
Y300394*
X207874Y304331*
Y317323*
X211220Y320866*
Y362402*
X206299Y367323*
Y477953*
X259843Y174803D02*
X249606D01*
X240157Y184252*
Y217323*
X269291Y171654D02*
X274016D01*
X279331Y176969*
Y188189*
X282677Y191535*
Y257874*
X275984Y181102D02*
Y183071D01*
X272047Y187008*
Y192913*
X270079Y194882*
Y211417*
X266535Y214961*
X262205*
X253543Y223622*
Y238583*
X257480Y242520*
Y250787*
Y276772*
X260630Y279921*
Y285827*
Y306299*
X289370Y167717D02*
X289764Y168110D01*
Y185827*
X295276Y191339*
Y219685*
X298819Y223228*
Y239370*
X283858Y170866D02*
X284252Y171260D01*
Y187008*
X288583Y191339*
Y218898*
X377559Y178740D02*
X381890Y183071D01*
Y211024*
X393307Y222441*
Y250000*
X385039Y258268*
Y307087*
X384646Y309449*
X376929Y168898D02*
X377559Y169528D01*
Y178740*
X182677Y196299D02*
X188740Y202362D01*
Y217717*
X200787Y229764*
Y479134*
X194488*
Y479921*
X235197Y206299D02*
Y258661D01*
X234252*
X245197Y206299D02*
Y223622D01*
X239370Y229449*
Y318110*
X250000Y328740*
Y334646*
X266535Y189764D02*
Y191072D01*
X261545Y198819*
X260630*
Y208661*
X248819Y220472*
Y240157*
X249751Y241732*
X253543Y245669*
Y275197*
X250787Y277953*
Y302362*
X260630Y312205*
Y316535*
X258661Y318110*
X198425Y219291D02*
X204348Y223599D01*
Y256693*
X205118Y257463*
Y257480*
X207087Y259449*
Y300394*
X316535Y216929D02*
Y272441D01*
X345669Y218898D02*
Y328740D01*
X189567Y229921D02*
X196063Y236417D01*
Y238976*
X194882Y240157*
X194488*
Y242126*
X198425Y246063*
Y388583*
X196063Y390945*
Y399606*
X339173Y229921D02*
X339862Y230610D01*
X330315Y240157*
Y251575*
X333858Y255118*
Y258268*
X337795Y262205*
Y303937*
X340157Y310236*
X373622Y240157D02*
X381102Y247638D01*
Y361811*
X371260Y371654*
X413976Y229921D02*
X422835Y238780D01*
Y293307*
X123622Y255512D02*
Y294488D01*
X119291Y298819*
Y372441*
X118110Y373622*
Y387008*
X301181Y260236D02*
Y284803D01*
X305669Y285039*
X329134Y258268D02*
X328857Y258545D01*
Y260186*
X326772Y262271*
Y314173*
X330315Y317717*
X338189*
X339764Y319291*
X265748Y272441D02*
X265669Y272520D01*
Y285039*
X295669D02*
X296063D01*
X301181Y290157*
Y307874*
X300984Y308071*
Y312008*
X292520Y322047*
X292913*
X333071Y277953D02*
Y312205D01*
X159843Y300394D02*
X157087Y305512D01*
Y334094*
X162992*
X285669Y295039D02*
X286220Y295591D01*
Y307874*
X284646Y309449*
X305669Y295039D02*
X306693Y296063D01*
Y323228*
X295669Y295039D02*
Y310630D01*
X178740Y314173D02*
Y320866D01*
X172047Y327559*
Y353150*
X175197Y356299*
Y361417*
X213386Y309449D02*
Y317717D01*
X216142Y320472*
Y330315*
X222047Y336220*
X229921Y318898D02*
Y337402D01*
X222047Y345276*
Y350000*
X331890Y324016D02*
Y387008D01*
X315197Y322441D02*
X281220Y356417D01*
Y356693*
X272165Y365748*
Y373150*
X401653Y324094D02*
X396392D01*
X392126Y328360*
Y394488*
X143307Y334094D02*
Y335669D01*
X138189Y340787*
Y377165*
X162992Y344094D02*
Y363780D01*
X168504Y369291*
Y394488*
X177559Y331102D02*
X177953D01*
X182283Y335433*
Y404724*
X233858Y344094D02*
Y348031D01*
X233465Y348425*
X236220Y351181*
Y373622*
X262047Y336220D02*
X252992Y345276D01*
X252165*
Y373150*
X315197Y336220D02*
X286850Y364567D01*
X282165*
Y373150*
X338976Y332677D02*
Y399606D01*
X401653Y334094D02*
X396063Y339684D01*
Y355118*
X404724Y363780*
Y371260*
X399213Y376772*
X243701Y355118D02*
Y377953D01*
X262047Y350000D02*
Y373031D01*
X262165Y373150*
X315197Y350000D02*
X292165Y373031D01*
Y373150*
X418898Y363622D02*
X421496D01*
X433071Y375197*
Y403150*
X302165Y373150D02*
Y398425D01*
X335846Y432106*
Y454331*
X239606Y425591D02*
X226220Y438976D01*
Y471654*
X234488Y479921*
X239606Y425591D02*
X257480D01*
X262165Y430276*
Y433150*
X272441Y424803D02*
Y432874D01*
X272165Y433150*
X288346Y426614D02*
X298622D01*
X302165Y430157*
Y433150*
X288346Y426614D02*
X287008Y427953D01*
Y479921*
X287638*
X318504Y424803D02*
Y479921D01*
X218110Y446063D02*
Y477008D01*
X217953Y477165*
X234488Y493701*
X248819Y446063D02*
Y454291D01*
X248858Y454331*
X245669Y432697D02*
X241358Y437008D01*
Y454331*
X245669Y432697D02*
X251713D01*
X252165Y433150*
X282165D02*
Y436752D01*
X272854Y446063*
Y454331*
X292165Y433150D02*
X304350Y445335D01*
Y454331*
X280354D02*
Y488583D01*
X282520*
X287638Y493701*
X311850Y454331D02*
Y482283D01*
X317933Y488366*
X325984*
X331713Y494094*
X341732*
X343346Y454331D02*
X353307Y464291D01*
Y493701*
X194488D02*
X194094Y494094D01*
X188386*
X340787Y493701D02*
X341339D01*
X341732Y494094*
G54D25*
X276294Y198403D02*
X275407Y194437D01*
X277902Y194671*
X276294Y198403*
X275419Y194488D02*
X275949D01*
X275771Y196063D02*
X277302D01*
X276123Y197638D02*
X276624D01*
X276378Y194528D02*
Y198208D01*
X276772Y193307D02*
X275591Y205906D01*
X275197Y206299*
X328065Y124994D02*
X326812Y123741D01*
X321384Y124994D02*
X322636Y123741D01*
X326845Y152553D02*
X325592Y151301D01*
X320163Y145872D02*
X321416Y147125D01*
X326845Y145872D02*
X325592Y147125D01*
X338392Y154049D02*
X339644Y152797D01*
X338392Y147368D02*
X339644Y148621D01*
X345073Y147368D02*
X343820Y148621D01*
X345073Y154049D02*
X343820Y152797D01*
X369089Y169022D02*
X367836Y170274D01*
X369089Y175703D02*
X367836Y174450D01*
X362407Y175703D02*
X363660Y174450D01*
X362407Y169022D02*
X363660Y170274D01*
X328065Y134837D02*
X326812Y133584D01*
X321384Y134837D02*
X322636Y133584D01*
X321384Y128155D02*
X322636Y129408D01*
X328065Y128155D02*
X326812Y129408D01*
X273825Y243419D02*
X275077Y242167D01*
X242329Y298380D02*
X243581Y297127D01*
X328943Y204207D02*
X330196Y202954D01*
X328943Y197525D02*
X330196Y198778D01*
X335624Y197525D02*
X334371Y198778D01*
X335624Y204207D02*
X334371Y202954D01*
X188380Y269179D02*
X187127Y270432D01*
X188380Y275860D02*
X187127Y274608D01*
X181699Y275860D02*
X182951Y274608D01*
X181699Y269179D02*
X182951Y270432D01*
X154522Y457801D02*
X153269Y459054D01*
X154522Y464482D02*
X153269Y463230D01*
X147840Y457801D02*
X149093Y459054D01*
X147840Y464482D02*
X149093Y463230D01*
X155681Y371091D02*
X156934Y369838D01*
X162429Y371091D02*
X161176Y369838D01*
X173026Y447919D02*
X171773Y449172D01*
X173026Y454601D02*
X171773Y453348D01*
X166344Y454601D02*
X167597Y453348D01*
X166344Y447919D02*
X167597Y449172D01*
X236921Y457393D02*
X235668Y456140D01*
X230796Y457393D02*
X232049Y456140D01*
X230796Y451268D02*
X232049Y452521D01*
X236921Y451268D02*
X235668Y452521D01*
X268417Y457393D02*
X267164Y456140D01*
X262292Y457393D02*
X263545Y456140D01*
X262292Y451268D02*
X263545Y452521D01*
X268417Y451268D02*
X267164Y452521D01*
X299913Y457393D02*
X298660Y456140D01*
X293788Y457393D02*
X295041Y456140D01*
X293788Y451268D02*
X295041Y452521D01*
X299913Y451268D02*
X298660Y452521D01*
X331409Y457393D02*
X330156Y456140D01*
X325284Y457393D02*
X326537Y456140D01*
X325284Y451268D02*
X326537Y452521D01*
X331409Y451268D02*
X330156Y452521D01*
X347763Y339889D02*
X349881Y342007D01*
X347763Y348300D02*
X349881Y346182D01*
X422238Y320754D02*
X420986Y322007D01*
X422238Y327435D02*
X420986Y326182D01*
X415557Y327435D02*
X416810Y326182D01*
X415557Y320754D02*
X416810Y322007D01*
X369089Y199022D02*
X367836Y200274D01*
X369089Y205703D02*
X367836Y204450D01*
X362407Y205703D02*
X363660Y204450D01*
X362407Y199022D02*
X363660Y200274D01*
X395557Y435242D02*
X396810Y436495D01*
X402238Y435242D02*
X400986Y436495D01*
X402238Y441923D02*
X400986Y440671D01*
X395557Y441923D02*
X396810Y440671D01*
X374994Y287435D02*
X373741Y286182D01*
X368313Y287435D02*
X369565Y286182D01*
X368313Y280753D02*
X369565Y282006D01*
X374994Y280753D02*
X373741Y282006D01*
X141117Y127191D02*
X142369Y125938D01*
X146128Y127191D02*
X144875Y125938D01*
X400900Y182081D02*
X399647Y180828D01*
X400900Y175399D02*
X399647Y176652D01*
X368810Y151487D02*
X367558Y150235D01*
X362686Y151487D02*
X363939Y150235D01*
X362686Y145363D02*
X363939Y146616D01*
X368810Y145363D02*
X367558Y146616D01*
X348119Y212905D02*
X349372Y211652D01*
X348119Y206780D02*
X349372Y208033D01*
X353850Y268810D02*
X352597Y267558D01*
X353850Y262686D02*
X352597Y263939D01*
X374716Y274322D02*
X373463Y273069D01*
X368591Y274322D02*
X369844Y273069D01*
X368591Y268198D02*
X369844Y269450D01*
X374716Y268198D02*
X373463Y269450D01*
X280228Y269598D02*
X278975Y268345D01*
X274103Y269598D02*
X275356Y268345D01*
X274103Y263473D02*
X275356Y264726D01*
X280228Y263473D02*
X278975Y264726D01*
X234952Y269991D02*
X233699Y268739D01*
X228827Y269991D02*
X230080Y268739D01*
X228827Y263867D02*
X230080Y265120D01*
X234952Y263867D02*
X233699Y265120D01*
X234952Y297944D02*
X233699Y296691D01*
X228827Y291820D02*
X230080Y293072D01*
X234952Y291820D02*
X233699Y293072D01*
X195976Y297944D02*
X194723Y296691D01*
X189851Y291820D02*
X191104Y293072D01*
X195976Y291820D02*
X194723Y293072D01*
X297550Y177078D02*
X296298Y175825D01*
X297550Y170953D02*
X296298Y172206D01*
X255031Y159755D02*
X253778Y158502D01*
X248906Y159755D02*
X250159Y158502D01*
X248906Y153631D02*
X250159Y154883D01*
X255031Y153631D02*
X253778Y154883D01*
X138889Y273928D02*
X137636Y272676D01*
X132764Y273928D02*
X134017Y272676D01*
X132764Y267804D02*
X134017Y269057D01*
X138889Y267804D02*
X137636Y269057D01*
X145757Y191645D02*
X147009Y190392D01*
X145976Y149300D02*
X144723Y150553D01*
X370779Y355031D02*
X369526Y353778D01*
X364654Y355031D02*
X365907Y353778D01*
X364654Y348906D02*
X365907Y350159D01*
X427865Y355031D02*
X426613Y353778D01*
X421741Y355031D02*
X422994Y353778D01*
X421741Y348906D02*
X422994Y350159D01*
X427865Y348906D02*
X426613Y350159D01*
X367629Y441645D02*
X366376Y440392D01*
X367629Y435520D02*
X366376Y436773D01*
X370779Y464086D02*
X369526Y462833D01*
X364654Y464086D02*
X365907Y462833D01*
X364654Y457961D02*
X365907Y459214D01*
X370779Y457961D02*
X369526Y459214D01*
X400700Y159755D02*
X399447Y158502D01*
X394576Y159755D02*
X395828Y158502D01*
X394576Y153631D02*
X395828Y154883D01*
X400700Y153631D02*
X399447Y154883D01*
X400700Y205424D02*
X399447Y204172D01*
X394576Y199300D02*
X395828Y200553D01*
X400700Y199300D02*
X399447Y200553D01*
G54D26*
X304724Y137402D02*
X304028Y132192D01*
X305420*
X304724Y137402*
X304461Y135433D02*
X304987D01*
X304724Y132192D02*
Y137402D01*
X324724D02*
X324028Y132192D01*
X325420*
X324724Y137402*
X324461Y135433D02*
X324987D01*
X324409Y132192D02*
Y135044D01*
X365748Y166457D02*
X366444Y171666D01*
X365052*
X365748Y166457*
X365685Y166929D02*
X365811D01*
X365159Y170866D02*
X366337D01*
X277165Y214173D02*
X277861Y219383D01*
X276469*
X277165Y214173*
X277165*
X276639Y218110D02*
X277691D01*
X277165Y214173D02*
Y219383D01*
Y245984D02*
X276469Y240775D01*
X277861*
X277165Y245984*
X276597Y241732D02*
X277733D01*
X277123Y245669D02*
X277207D01*
X277165Y240775D02*
Y245984D01*
X192992Y308189D02*
X193688Y313399D01*
X192296*
X192992Y308189*
X192929Y308661D02*
X193055D01*
X192403Y312598D02*
X193581D01*
X151181Y455236D02*
X151877Y460446D01*
X150485*
X151181Y455236*
X150776Y458268D02*
X151586D01*
X151181Y455236D02*
Y460446D01*
X418898Y432677D02*
X419594Y437887D01*
X418202*
X418898Y432677*
X418635Y434646D02*
X419161D01*
X418898Y432677D02*
Y437887D01*
X304724Y121654D02*
Y131496D01*
X324724Y121654D02*
Y131496D01*
X133071Y137402D02*
Y202756D01*
X304724Y131496D02*
Y149213D01*
X313504*
X324724Y131496D02*
Y147992D01*
X323504Y149213*
X413976Y135433D02*
X405512D01*
Y194094*
X123622Y152362D02*
X127165D01*
Y188583*
X119685Y152362D02*
X123622D01*
X142913D02*
X143307Y152756D01*
Y161929*
X251969Y156693D02*
X293701D01*
X294488Y159449*
Y174016*
X313504Y149213D02*
X316535D01*
Y207480*
X311024Y212992*
Y276378*
X312992Y278346*
X323504Y149213D02*
X322441Y150276D01*
Y301575*
X365748Y148425D02*
Y172362D01*
X397638Y156693D02*
Y178661D01*
X397559Y178740*
X302283Y170866D02*
X302362Y170945D01*
Y192913*
X397559Y178740D02*
X397638Y178819D01*
Y202362*
X148819Y188583D02*
Y253937D01*
X135827Y266929*
Y270866*
X182677Y206299D02*
Y219291D01*
X180315Y221654*
Y245276*
X185236*
X189567Y249606*
X275197Y206299D02*
X277165Y208268D01*
Y220079*
X353937Y202362D02*
X356693D01*
Y237402*
X364567Y245276*
Y249409*
X364764Y249606*
X120235Y226534D02*
X107874D01*
Y502125*
X120235*
X277165Y220079D02*
Y228937D01*
X264370Y241732*
Y249606*
X351181Y209843D02*
X350787Y265748D01*
X435196Y226534D02*
X446457D01*
Y502125*
X435196*
X277165Y240079D02*
Y266535D01*
X231890Y266929D02*
Y294882D01*
X245669Y249606D02*
Y285039D01*
X364764Y249606D02*
X358661D01*
Y358268*
X185039Y272520D02*
X188346D01*
X192992Y277165*
Y294488*
X371654Y271260D02*
Y284094D01*
X371653*
X364567*
Y351969*
X192992Y294488D02*
Y294882D01*
X192913*
X192992Y294488D02*
Y294803D01*
X192913Y294882*
X192992*
Y314094*
X185039Y292520D02*
X186614Y294488D01*
Y344094*
X192992*
Y314094D02*
Y324094D01*
X418898D02*
X424803D01*
Y351969*
X401653Y344094D02*
Y353150D01*
X406732Y358229*
X364567Y438583D02*
Y351969D01*
X367717*
X358661Y358268D02*
Y468110D01*
X406732Y358229D02*
X409527Y361024D01*
Y373622*
X410236*
X406732Y358229D02*
X406693Y358268D01*
X159055Y367717D02*
Y377559D01*
X150787Y385827*
X151181Y386220*
Y461142*
X418898Y373622D02*
X410236D01*
Y420866*
X418898*
X135433D02*
Y471142D01*
X418898Y420866D02*
Y438583D01*
X364567D02*
Y457087D01*
X364173Y457480*
X367717Y461024*
X120235Y502125D02*
Y513386D01*
X435196*
Y502125D02*
Y513386D01*
G54D27*
X128622Y128228D02*
X128065Y125242D01*
X129179*
X128622Y128228*
X128130Y125591D02*
X129114D01*
X128497Y127559D02*
X128747D01*
X123622Y128228D02*
X123065Y125242D01*
X124179*
X123622Y128228*
X123130Y125591D02*
X124114D01*
X123497Y127559D02*
X123747D01*
X123622Y125242D02*
Y128228D01*
X143622D02*
X143065Y125242D01*
X144179*
X143622Y128228*
X143130Y125591D02*
X144114D01*
X143497Y127559D02*
X143747D01*
X143307Y125242D02*
Y126539D01*
X128622Y124685D02*
Y137402D01*
X133071*
X123622Y124685D02*
Y152362D01*
X143622Y124685D02*
Y151654D01*
X142913Y152362*
X423622Y324094D02*
G75*
G03X423622I-4724J0D01*
G01X403984Y407717D02*
G03X403984I-4771J0D01*
G01X403622Y438583D02*
G03X403622I-4724J0D01*
G01X306504Y479921D02*
G03X306504I-4772J0D01*
G01X305559Y493701D02*
G03X305559I-4772J0D01*
G01X252409Y479921D02*
G03X252409I-4771J0D01*
G01Y493701D02*
G03X252409I-4771J0D01*
G01X174409Y451260D02*
G03X174409I-4724J0D01*
G01Y471260D02*
G03X174409I-4724J0D01*
G01X163827Y407717D02*
G03X163827I-4772J0D01*
G01X346504Y479921D02*
G03X346504I-4772J0D01*
G01X375984Y271260D02*
G03X375984I-4330J0D01*
G01X392173Y407717D02*
G03X392173I-4771J0D01*
G01X398079Y493701D02*
G03X398079I-4772J0D01*
G01X256299Y156693D02*
G03X256299I-4330J0D01*
G01X281496Y266535D02*
G03X281496I-4331J0D01*
G01X279969Y322441D02*
G03X279969I-4772J0D01*
G01Y336220D02*
G03X279969I-4772J0D01*
G01X189764Y272520D02*
G03X189764I-4725J0D01*
G01X147047Y249606D02*
G03X147047I-6693J0D01*
G01X140158Y270866D02*
G03X140158I-4331J0D01*
G01X370669Y180709D02*
G03X369685Y181693I-984J-0D01*
G01X347736*
G03X346752Y180709I0J-984*
G01Y171030*
G03X347040Y170334I984J0*
G01X348022Y169352*
G03X349618Y170447I696J696*
G01X352022Y168043D02*
G03X349618Y170447I1915J4319D01*
G01X352022Y168043D02*
G03X350927Y166447I-399J-900D01*
G01X353569Y163805*
X354232Y162205D02*
G03X353569Y163805I-2263J-0D01*
G01X354232Y162205D02*
Y159803D01*
G03X354309Y159423I985J0*
G01X355634Y156264*
G03X355760Y156047I908J381*
G01X356740Y153150D02*
G03X355760Y156047I-4771J-0D01*
G01X348142Y150299D02*
G03X356740Y153150I3827J2851D01*
G01X348142Y150299D02*
G03X346384Y149883I-789J-589D01*
G01X337008Y150709D02*
G03X346384Y149883I4724J-0D01*
G01X338732Y154358D02*
G03X337008Y150709I3000J-3649D01*
G01X338732Y154358D02*
G03X338107Y156102I-625J760D01*
G01X321260*
G03X320276Y155118I-0J-984*
G01Y154462*
G03X321647Y153557I984J-0*
G01X320011Y146032D02*
G03X321647Y153557I3493J3181D01*
G01X320011Y146032D02*
G03X318711Y146170I-728J-663D01*
G01X318479Y146017D02*
G03X318711Y146170I-1944J3196D01*
G01X318479Y146017D02*
G03X318086Y145563I512J-841D01*
G01X316457Y144488D02*
G03X318086Y145563I-0J1772D01*
G01X316457Y144488D02*
X310551D01*
X309843Y144636D02*
G03X310551Y144488I708J1624D01*
G01X309843Y144636D02*
G03X308465Y143734I-394J-902D01*
G01Y137716*
G03X308473Y137585I984J-0*
G01X309007Y133588*
G03X309076Y133335I976J130*
G01X308634Y128844D02*
G03X309076Y133335I-3910J2652D01*
G01X308634Y128844D02*
G03X308465Y128292I815J-552D01*
G01Y124858*
G03X308634Y124306I984J0*
G01X309449Y121654D02*
G03X308634Y124306I-4725J-0D01*
G01X309449Y121654D02*
G03X310433Y120669I984J-0D01*
G01X319016*
G03X320000Y121654I-0J985*
G01X322330Y125726D02*
G03X320000Y121654I2394J-4072D01*
G01X322330Y125726D02*
G03Y127423I-499J849D01*
G01X327119D02*
G03X322330I-2395J4073D01*
G01X327119D02*
G03Y125726I499J-848D01*
G01X329449Y121654D02*
G03X327119Y125726I-4725J-0D01*
G01X329449Y121654D02*
G03X330433Y120669I984J-0D01*
G01X348720*
G03X349705Y121654I0J985*
G01Y123784*
G03X349634Y124150I-985J0*
G01X348594Y126754*
G03X348474Y126970I-914J-366*
G01X347786Y128405D02*
G03X348474Y126970I4183J1123D01*
G01X347786Y128405D02*
G03X345955Y128591I-951J-255D01*
G01X346327Y131809D02*
G03X345955Y128591I-4595J-1100D01*
G01X346327Y131809D02*
G03X348151Y131573I957J229D01*
G01X355463Y126970D02*
G03X348151Y131573I-3494J2558D01*
G01X355463Y126970D02*
G03X355343Y126754I794J-582D01*
G01X354303Y124150*
G03X354232Y123784I914J-366*
G01Y121654*
G03X355217Y120669I985J-0*
G01X359858*
G03X360487Y120896I0J985*
G01X369040D02*
G03X360487I-4276J-5148D01*
G01X369040D02*
G03X369669Y120669I629J758D01*
G01X369685*
G03X370669Y121654I0J985*
G01Y129541*
G03X369054Y130296I-984J-0*
G01Y140570D02*
G03Y130296I-4290J-5137D01*
G01Y140570D02*
G03X370669Y141325I631J755D01*
G01Y144855*
G03X368956Y145516I-984J-0*
G01Y151335D02*
G03Y145516I-3208J-2910D01*
G01Y151335D02*
G03X370669Y151996I729J661D01*
G01Y168228*
G03X369006Y168941I-984J0*
G01Y175783D02*
G03Y168941I-3258J-3421D01*
G01Y175783D02*
G03X370669Y176496I679J713D01*
G01Y180709*
X349705Y160859D02*
G03X349416Y161555I-985J0D01*
G01X346759Y164213*
G03X345079Y163517I-696J-696*
G01Y156102*
G03X344702Y154383I242J-954*
G01X345511Y153545D02*
G03X344702Y154383I-3779J-2836D01*
G01X345511Y153545D02*
G03X347267Y153967I787J591D01*
G01X348177Y156047D02*
G03X347267Y153967I3792J-2897D01*
G01X348177Y156047D02*
G03X348303Y156264I-782J598D01*
G01X349628Y159423*
G03X349705Y159803I-908J380*
G01Y160859*
X429724Y366273D02*
G03X428044Y366969I-984J-0D01*
G01X423301Y362225*
G03X423086Y361903I696J-696*
G01X415071Y361202D02*
G03X423086Y361903I3827J2420D01*
G01X415071Y361202D02*
G03X413257Y360749I-832J-526D01*
G01X412172Y358379D02*
G03X413257Y360749I-2645J2645D01*
G01X412172Y358379D02*
X411020Y357227D01*
G03X410786Y356853I696J-696*
G01X408108Y354175D02*
G03X410786Y356853I-1415J4093D01*
G01X408108Y354175D02*
G03X407733Y353940I321J-931D01*
G01X405682Y351889*
G03X405393Y351193I696J-696*
G01Y347299*
G03X405563Y346746I985J-0*
G01X403933Y339956D02*
G03X405563Y346746I-2280J4138D01*
G01X403933Y339956D02*
G03Y338232I475J-862D01*
G01Y329956D02*
G03Y338232I-2280J4138D01*
G01Y329956D02*
G03Y328232I475J-862D01*
G01Y319956D02*
G03Y328232I-2280J4138D01*
G01Y319956D02*
G03Y318232I475J-862D01*
G01Y309956D02*
G03Y318232I-2280J4138D01*
G01Y309956D02*
G03Y308232I475J-862D01*
G01Y299956D02*
G03Y308232I-2280J4138D01*
G01Y299956D02*
G03Y298232I475J-862D01*
G01Y289956D02*
G03Y298232I-2280J4138D01*
G01Y289956D02*
G03Y288232I475J-862D01*
G01X399063Y280143D02*
G03X403933Y288232I2590J3951D01*
G01X399063Y280143D02*
G03X397539Y279320I-539J-823D01*
G01Y263550*
G03X397828Y262854I985J0*
G01X404357Y256325*
X405020Y254724D02*
G03X404357Y256325I-2264J0D01*
G01X405020Y254724D02*
Y214961D01*
X404357Y213360D02*
G03X405020Y214961I-1601J1601D01*
G01X404357Y213360D02*
X398968Y207972D01*
G03X399289Y206366I696J-696*
G01X401969Y202362D02*
G03X399289Y206366I-4331J0D01*
G01X395793Y198444D02*
G03X401969Y202362I1845J3918D01*
G01X395793Y198444D02*
G03X394390Y197553I-419J-891D01*
G01Y184014*
G03X395751Y183105I984J0*
G01X400231Y182637D02*
G03X395751Y183105I-2672J-3897D01*
G01X400231Y182637D02*
G03X401772Y183448I556J811D01*
G01Y191660*
G03X401662Y192110I-985J-0*
G01X409361D02*
G03X401662I-3849J1984D01*
G01X409361D02*
G03X409252Y191660I875J-450D01*
G01Y142138*
G03X410716Y141278I984J-0*
G01X420240Y137791D02*
G03X410716Y141278I-6264J-2358D01*
G01X420240Y137791D02*
G03X422146Y138138I921J347D01*
G01Y148891*
G03X421857Y149587I-985J-0*
G01X420663Y150781*
G03X420340Y150996I-696J-696*
G01X417169Y152292*
G03X416927Y152357I-372J-911*
G01X413768Y159984D02*
G03X416927Y152357I3791J-2897D01*
G01X413768Y159984D02*
G03X413893Y160201I-782J598D01*
G01X415219Y163360*
G03X415295Y163740I-908J380*
G01Y163772*
G03X414759Y164648I-984J-0*
G01X420144Y165372D02*
G03X414759Y164648I-3215J3526D01*
G01X420144Y165372D02*
G03X419823Y164644I663J-728D01*
G01Y163740*
G03X419900Y163360I984J0*
G01X419900D02*
X421225Y160201D01*
G03X421350Y159984I907J381*
G01X422289Y157719D02*
G03X421350Y159984I-4730J-632D01*
G01X422289Y157719D02*
G03X422353Y157477I975J130D01*
G01X423650Y154306*
G03X423865Y153982I911J372*
G01X426010Y151837*
X426673Y150236D02*
G03X426010Y151837I-2264J0D01*
G01X426673Y150236D02*
Y126181D01*
X426010Y124580D02*
G03X426673Y126181I-1601J1601D01*
G01X426010Y124580D02*
X423779Y122350D01*
G03X424475Y120669I696J-696*
G01X428740*
G03X429724Y121654I0J985*
G01Y205152*
G03X429009Y206098I-984J-0*
G01X414282Y222442D02*
G03X429009Y206098I20364J3542D01*
G01X414282Y222442D02*
G03X413398Y223253I-969J-169D01*
G01X407283Y229921D02*
G03X413398Y223253I6693J0D01*
G01X413412Y236590D02*
G03X407283Y229921I564J-6669D01*
G01X413412Y236590D02*
G03X413665Y236646I-83J981D01*
G01X417708Y238116*
G03X418157Y238447I-337J925*
G01X420271Y240837D02*
G03X418157Y238447I14375J-14853D01*
G01X420271Y240837D02*
G03X420571Y241544I-684J707D01*
G01Y244366*
G03X418867Y245038I-984J-0*
G01Y254175D02*
G03Y245038I-4891J-4569D01*
G01Y254175D02*
G03X420571Y254847I720J672D01*
G01Y287564*
G03X420501Y287929I-984J-0*
G01X419460Y290533*
G03X419340Y290749I-914J-365*
G01X426329D02*
G03X419340I-3494J2558D01*
G01X426329D02*
G03X426210Y290533I795J-581D01*
G01X425169Y287929*
G03X425098Y287564I914J-365*
G01Y245873*
G03X426472Y244969I985J-0*
G01X429009Y245870D02*
G03X426472Y244969I5637J-19886D01*
G01X429009Y245870D02*
G03X429724Y246817I-269J947D01*
G01Y348398*
G03X428011Y349059I-984J-0*
G01X424122Y347692D02*
G03X428011Y349059I681J4277D01*
G01X424122Y347692D02*
G03X423093Y346267I-155J-972D01*
G01X423622Y344094D02*
G03X423093Y346267I-4724J0D01*
G01X419809Y348730D02*
G03X423622Y344094I-911J-4636D01*
G01X419809Y348730D02*
G03X420888Y350117I189J966D01*
G01X428011Y354878D02*
G03X420888Y350117I-3208J-2909D01*
G01X428011Y354878D02*
G03X429724Y355539I729J661D01*
G01Y366273*
X422146Y132729D02*
G03X420240Y133075I-985J-0D01*
G01X408701Y131314D02*
G03X420240Y133075I5275J4119D01*
G01X408701Y131314D02*
G03X407925Y131693I-776J-605D01*
G01X405512*
X401772Y135433D02*
G03X405512Y131693I3740J0D01*
G01X401772Y135433D02*
Y152412D01*
G03X400204Y153204I-985J-0*
G01X395793Y152775D02*
G03X400204Y153204I1845J3918D01*
G01X395793Y152775D02*
G03X394390Y151884I-419J-891D01*
G01Y130940*
G03X394460Y130575I984J0*
G01X395501Y127971*
G03X395621Y127755I914J365*
G01X396457Y125197D02*
G03X395621Y127755I-4331J-0D01*
G01X396457Y125197D02*
X396457D01*
X395354Y122310D02*
G03X396457Y125197I-3228J2887D01*
G01X395354Y122310D02*
G03X396088Y120669I734J-656D01*
G01X409071*
G03X409700Y120896I-0J985*
G01X413412Y122417D02*
G03X409700Y120896I564J-6669D01*
G01X413412Y122417D02*
G03X413665Y122473I-83J981D01*
G01X419485Y124589*
G03X419845Y124818I-336J925*
G01X421857Y126831*
G03X422146Y127526I-696J695*
G01Y132729*
X429724Y480742D02*
G03X429009Y481689I-984J0D01*
G01X414062Y503454D02*
G03X429009Y481689I20584J-1879D01*
G01X414062Y503454D02*
G03X413082Y504528I-980J89D01*
G01X170037*
G03X169097Y503252I-0J-985*
G01X169291Y501969D02*
G03X169097Y503252I-4330J-0D01*
G01X164344Y497682D02*
G03X169291Y501969I617J4287D01*
G01X164344Y497682D02*
G03X163658Y497526I-140J-974D01*
G01X162402Y497146D02*
G03X163658Y497526I-0J2263D01*
G01X162402Y497146D02*
X156620D01*
G03X155635Y496161I-0J-985*
X155685Y495852I985J0*
G01X155413Y492483D02*
G03X155685Y495852I-3838J2005D01*
G01X155413Y492483D02*
G03X156286Y491043I873J-455D01*
G01X181725*
G03X182421Y491332I0J985*
G01X186784Y495694*
X188386Y496358D02*
G03X186784Y495694I-0J-2264D01*
G01X188386Y496358D02*
X190031D01*
G03X190793Y496720I-0J985*
G01X190419Y491209D02*
G03X190793Y496720I4069J2492D01*
G01X190419Y491209D02*
G03X188884Y491391I-839J-514D01*
G01X184672Y487179*
X183071Y486516D02*
G03X184672Y487179I-0J2264D01*
G01X183071Y486516D02*
X142487D01*
G03X141791Y486227I0J-985*
G01X140809Y485245*
G03X141182Y483619I696J-696*
G01X142827Y482589D02*
G03X141182Y483619I-3063J-3061D01*
G01X142827Y482589D02*
G03X144285Y482662I696J696D01*
G01X151173Y477419D02*
G03X144285Y482662I-3535J2502D01*
G01X151173Y477419D02*
G03X150992Y476850I803J-569D01*
X151976Y475866I984J0*
G01X154134*
X155906Y474094D02*
G03X154134Y475866I-1772J0D01*
G01X155906Y474094D02*
Y468189D01*
X154587Y466476D02*
G03X155906Y468189I-453J1713D01*
G01X154587Y466476D02*
G03X154208Y464769I252J-951D01*
G01X147027Y458892D02*
G03X154208Y464769I4154J2250D01*
G01X147027Y458892D02*
G03X145177Y458423I-866J-469D01*
G01Y375361*
G03X145465Y374665I984J0*
G01X152624Y367507*
G03X154300Y368120I696J696*
G01X163503Y369445D02*
G03X154301Y368120I-4448J-1728D01*
G01X163503Y369445D02*
G03X165116Y369105I917J356D01*
G01X165952Y369941*
G03X166240Y370637I-696J696*
G01Y388745*
G03X166170Y389110I-984J-0*
G01X165129Y391714*
G03X165009Y391930I-914J-365*
G01X171999D02*
G03X165009I-3495J2558D01*
G01X171999D02*
G03X171879Y391714I794J-581D01*
G01X170838Y389110*
G03X170768Y388745I914J-365*
G01Y376837*
G03X172536Y376242I984J0*
G01X178470Y377168D02*
G03X172536Y376242I-2486J-3546D01*
G01X178470Y377168D02*
G03X180020Y377974I565J806D01*
G01Y398981*
G03X179949Y399347I-985J0*
G01X178909Y401951*
G03X178789Y402167I-914J-366*
G01X185778D02*
G03X178789I-3495J2557D01*
G01X185778D02*
G03X185658Y401951I794J-582D01*
G01X184618Y399347*
G03X184547Y398981I914J-366*
G01Y348693*
G03X185757Y347735I985J0*
G01X186614Y347835D02*
G03X185757Y347735I0J-3741D01*
G01X186614Y347835D02*
X189788D01*
G03X190340Y348004I-0J984*
G01X194800Y348459D02*
G03X190340Y348004I-1808J-4365D01*
G01X194800Y348459D02*
G03X196161Y349368I377J909D01*
G01Y387237*
G03X195873Y387933I-984J0*
G01X194462Y389344*
X193799Y390945D02*
G03X194462Y389344I2264J-0D01*
G01X193799Y390945D02*
Y393863D01*
G03X193729Y394228I-984J0*
G01X192688Y396832*
G03X192568Y397048I-914J-365*
G01X197266Y403767D02*
G03X192568Y397048I-1203J-4161D01*
G01X197266Y403767D02*
G03X198524Y404712I273J945D01*
G01Y475041*
G03X197018Y475875I-985J-0*
G01X198802Y481961D02*
G03X197018Y475875I-4314J-2040D01*
G01X198802Y481961D02*
G03X199692Y481398I890J421D01*
G01X200787*
X202076Y480995D02*
G03X200787Y481398I-1289J-1861D01*
G01X202076Y480995D02*
G03X203315Y481091I560J809D01*
G01X209794Y475395D02*
G03X203315Y481091I-3495J2558D01*
G01X209794Y475395D02*
G03X209674Y475179I794J-581D01*
G01X208633Y472575*
G03X208563Y472210I914J-365*
G01Y368668*
G03X208851Y367972I984J0*
G01X212821Y364002*
X213484Y362402D02*
G03X212821Y364002I-2264J-0D01*
G01X213484Y362402D02*
Y333235D01*
G03X215164Y332539I985J0*
G01X215742Y333116*
G03X215957Y333440I-696J696*
G01X217253Y336610*
G03X217318Y336853I-911J373*
G01X221075Y340892D02*
G03X217318Y336853I972J-4672D01*
G01X221075Y340892D02*
G03X221570Y342551I-201J964D01*
G01Y342552D02*
X220446Y343675D01*
X219784Y345256D02*
G03X220446Y343675I2263J20D01*
G01X219784Y345256D02*
G03X219355Y346061I-985J-8D01*
G01X226819Y350000D02*
G03X219355Y346061I-4772J0D01*
G01X225367Y346572D02*
G03X226819Y350000I-3320J3428D01*
G01X225367Y346572D02*
G03X225355Y345169I684J-707D01*
G01X227905Y342620*
G03X229574Y343460I696J696*
G01X229528Y344094D02*
G03X229574Y343460I4330J0D01*
G01X229528Y344094D02*
X229528D01*
X230914Y347271D02*
G03X229528Y344094I2944J-3177D01*
G01X230914Y347271D02*
G03X231230Y347993I-669J722D01*
G01X231230*
G03X231221Y348124I-985J-0*
G01X231201Y348425D02*
G03X231221Y348124I2264J0D01*
G01X231864Y350026D02*
G03X231201Y348425I1601J-1601D01*
G01X231864Y350026D02*
X233668Y351831D01*
G03X233957Y352526I-696J695*
G01Y367879*
G03X233886Y368244I-985J-0*
G01X232846Y370848*
G03X232726Y371064I-914J-365*
G01X238005Y377568D02*
G03X232726Y371064I-1785J-3946D01*
G01X238005Y377568D02*
G03X239390Y378370I406J897D01*
G01X247920Y378931D02*
G03X239390Y378370I-4219J-978D01*
G01X247920Y378931D02*
G03X248892Y378169I958J222D01*
G01X248917D02*
G03X248892I0J-1771D01*
G01X248917D02*
X255413D01*
X257054Y377067D02*
G03X255413Y378169I-1641J-669D01*
G01X257054Y377067D02*
G03X258653Y376736I911J372D01*
G01X266346Y375929D02*
G03X258653Y376736I-4181J-2779D01*
G01X266346Y375929D02*
G03X267985I819J544D01*
G01X276346D02*
G03X267985I-4181J-2779D01*
G01X276346D02*
G03X277985I819J544D01*
G01X286346D02*
G03X277985I-4181J-2779D01*
G01X286346D02*
G03X287985I819J544D01*
G01X296346D02*
G03X287985I-4181J-2779D01*
G01X296346D02*
G03X297985I819J544D01*
G01X298205Y376235D02*
G03X297985Y375929I3960J-3085D01*
G01X298205Y376235D02*
G03X298334Y376452I-776J604D01*
G01X299822Y379925*
G03X299902Y380312I-905J387*
G01Y398425*
X300565Y400026D02*
G03X299902Y398425I1600J-1601D01*
G01X300565Y400026D02*
X319333Y418794D01*
G03X318612Y420474I-696J696*
G01X314173Y424803D02*
G03X318612Y420474I4331J0D01*
G01X315009Y427361D02*
G03X314173Y424803I3495J-2558D01*
G01X315009Y427361D02*
G03X315129Y427577I-794J581D01*
G01X316170Y430181*
G03X316240Y430546I-914J365*
G01Y450250*
G03X314625Y451006I-984J0*
G01X308965Y451101D02*
G03X314625Y451006I2885J3230D01*
G01X308965Y451101D02*
G03X307396Y450732I-655J-734D01*
G01X306684Y448953*
X306685D02*
G03X306614Y448588I913J-365D01*
G01Y445335*
X305951Y443734D02*
G03X306614Y445335I-1601J1601D01*
G01X305951Y443734D02*
X302040Y439822D01*
G03X302642Y438147I696J-696*
G01X303742Y428384D02*
G03X302642Y438147I-1577J4766D01*
G01X303742Y428384D02*
G03X303355Y428145I309J-935D01*
G01X300223Y425013*
X298622Y424350D02*
G03X300223Y425013I0J2264D01*
G01X298622Y424350D02*
X288346D01*
X286744Y425015D02*
G03X288346Y424350I1602J1599D01*
G01X286744Y425015D02*
X285407Y426352D01*
X284780Y427551D02*
G03X285407Y426352I2228J402D01*
G01X284780Y427551D02*
G03X283542Y428322I-969J-175D01*
G01X277985Y430371D02*
G03X283542Y428322I4180J2779D01*
G01X277985Y430371D02*
G03X276346I-820J-545D01*
G01X275676Y429561D02*
G03X276346Y430371I-3511J3589D01*
G01X275676Y429561D02*
G03X275450Y428492I688J-703D01*
G01X275816Y427577*
G03X275936Y427361I914J365*
G01X268946D02*
G03X275936I3495J-2558D01*
G01X268946D02*
G03X269066Y427577I-794J581D01*
G01X269287Y428130*
G03X269357Y428495I-914J365*
X268995Y429258I-984J0*
G01X267985Y430371D02*
G03X268995Y429258I4180J2779D01*
G01X267985Y430371D02*
G03X266346I-820J-545D01*
G01X263598Y428339D02*
G03X266346Y430371I-1433J4811D01*
G01X263598Y428339D02*
G03X263182Y428091I280J-944D01*
G01X259081Y423990*
X257480Y423327D02*
G03X259081Y423990I0J2264D01*
G01X257480Y423327D02*
X239606D01*
X238004Y423991D02*
G03X239606Y423327I1602J1600D01*
G01X238004Y423991D02*
X224620Y437376D01*
X223957Y438976D02*
G03X224620Y437376I2263J0D01*
G01X223957Y438976D02*
Y443916D01*
G03X222072Y444314I-985J0*
G01X214616Y448621D02*
G03X222072Y444314I3494J-2558D01*
G01X214616Y448621D02*
G03X214735Y448837I-795J581D01*
G01X215776Y451441*
G03X215846Y451806I-914J365*
G01Y476166*
G03X215799Y476469I-984J0*
G01X216352Y478766D02*
G03X215799Y476469I1601J-1601D01*
G01X216352Y478766D02*
X228183Y490597D01*
G03X228398Y490920I-696J696*
G01X229694Y494091*
G03X229759Y494333I-911J372*
G01X235120Y488971D02*
G03X229759Y494333I-632J4730D01*
G01X235120Y488971D02*
G03X234878Y488907I131J-975D01*
G01X231707Y487610*
G03X231384Y487395I373J-911*
G01X220662Y476673*
G03X220374Y475977I696J-696*
G01Y451806*
G03X220444Y451441I984J0*
G01X221485Y448837*
G03X221605Y448621I914J365*
G01X222072Y447812D02*
G03X221605Y448621I-3962J-1749D01*
G01X222072Y447812D02*
G03X223957Y448210I900J398D01*
G01Y471654*
X224620Y473254D02*
G03X223957Y471654I1600J-1600D01*
G01X224620Y473254D02*
X228183Y476817D01*
G03X228398Y477141I-696J696*
G01X229694Y480311*
G03X229759Y480553I-911J373*
G01X235120Y475192D02*
G03X229759Y480553I-632J4729D01*
G01X235120Y475192D02*
G03X234878Y475127I131J-976D01*
G01X231707Y473831*
G03X231384Y473616I373J-911*
G01X228773Y471004*
G03X228484Y470308I696J-696*
G01Y457327*
G03X230281Y456772I985J0*
G01X236914Y457400D02*
G03X230281Y456772I-3056J-3069D01*
G01X236914Y457400D02*
G03X238303I694J697D01*
G01X244414D02*
G03X238303I-3056J-3069D01*
G01X244414D02*
G03X245803I694J697D01*
G01X251888Y451236D02*
G03X245803Y457400I-3030J3095D01*
G01X251888Y451236D02*
G03X251592Y450532I688J-704D01*
X251662Y450167I984J0*
G01X252194Y448837*
G03X252314Y448621I914J365*
G01X245386Y443422D02*
G03X252314Y448621I3433J2641D01*
G01X245386Y443422D02*
G03X243622Y442822I-780J-600D01*
G01Y438353*
G03X243910Y437657I984J0*
G01X246213Y435355*
G03X247771Y435575I696J696*
G01X256346Y435929D02*
G03X247771Y435575I-4181J-2779D01*
G01X256346Y435929D02*
G03X257985I819J544D01*
G01X266346D02*
G03X257985I-4181J-2779D01*
G01X266346D02*
G03X267985I819J544D01*
G01X276346D02*
G03X267985I-4181J-2779D01*
G01X276346D02*
G03X277985I819J544D01*
G01X278226Y436261D02*
G03X277985Y435929I3939J-3111D01*
G01X278226Y436261D02*
G03X278149Y437566I-773J609D01*
G01X271254Y444462*
X270591Y446063D02*
G03X271254Y444462I2263J-0D01*
G01X270591Y446063D02*
Y448588D01*
G03X270520Y448953I-985J-0*
G01X269809Y450732*
G03X268239Y451101I-914J-365*
G01X268410Y457400D02*
G03X268239Y451101I-3056J-3069D01*
G01X268410Y457400D02*
G03X269799I694J697D01*
G01X275739Y457561D02*
G03X269799Y457400I-2885J-3230D01*
G01X275739Y457561D02*
G03X277309Y457929I656J734D01*
G01X278020Y459709*
G03X278091Y460074I-914J365*
G01Y488583*
X280354Y490846D02*
G03X278091Y488583I0J-2263D01*
G01X280354Y490846D02*
X280931D01*
G03X281850Y491478I0J985*
G01X282846Y494068*
G03X282904Y494298I-919J353*
G01X292409Y493701D02*
G03X282904Y494298I-4771J-0D01*
G01X288235Y488967D02*
G03X292409Y493701I-597J4734D01*
G01X288235Y488967D02*
G03X288005Y488909I123J-977D01*
G01X285020Y487761*
G03X284677Y487538I353J-919*
G01X284120Y486982*
X283274Y486448D02*
G03X284120Y486982I-754J2135D01*
G01X283274Y486448D02*
G03X282618Y485520I328J-928D01*
G01Y484026*
G03X284292Y483324I984J-0*
G01X289808Y475672D02*
G03X284292Y483324I-2170J4249D01*
G01X289808Y475672D02*
G03X289272Y474795I448J-877D01*
G01Y438842*
G03X290569Y437909I984J-0*
G01X291547Y438131D02*
G03X290569Y437909I618J-4981D01*
G01X291547Y438131D02*
G03X291791Y438194I-122J977D01*
G01X295299Y439597*
G03X295629Y439815I-366J914*
G01X301798Y445984*
G03X302087Y446680I-696J696*
G01Y448588*
G03X302016Y448953I-985J-0*
G01X301305Y450732*
G03X299735Y451101I-914J-365*
G01X299906Y457400D02*
G03X299735Y451101I-3056J-3069D01*
G01X299906Y457400D02*
G03X301295I694J697D01*
G01X307235Y457561D02*
G03X301295Y457400I-2885J-3230D01*
G01X307235Y457561D02*
G03X308805Y457929I656J734D01*
G01X309516Y459709*
G03X309587Y460074I-914J365*
G01Y482283*
X310250Y483884D02*
G03X309587Y482283I1600J-1601D01*
G01X310250Y483884D02*
X316332Y489967D01*
X317933Y490630D02*
G03X316332Y489967I0J-2264D01*
G01X317933Y490630D02*
X324639D01*
G03X325335Y490918I-0J984*
G01X330112Y495695*
X331713Y496358D02*
G03X330112Y495695I-0J-2264D01*
G01X331713Y496358D02*
X336330D01*
G03X337092Y496720I0J985*
G01X336644Y491335D02*
G03X337092Y496720I4143J2366D01*
G01X336644Y491335D02*
G03X335789Y491831I-855J-489D01*
G01X333058*
G03X332362Y491542I-0J-985*
G01X327585Y486765*
X325984Y486102D02*
G03X327585Y486765I0J2264D01*
G01X325984Y486102D02*
X319618D01*
G03X319412Y484156I0J-984*
G01X321999Y477363D02*
G03X319412Y484156I-3495J2558D01*
G01X321999Y477363D02*
G03X321879Y477147I794J-581D01*
G01X320838Y474543*
G03X320768Y474178I914J-365*
G01Y430546*
G03X320838Y430181I984J0*
G01X321879Y427577*
G03X321999Y427361I914J365*
G01X322835Y424803D02*
G03X321999Y427361I-4331J0D01*
G01X322835Y424803D02*
X322835D01*
X322833Y424695D02*
G03X322835Y424803I-4329J108D01*
G01X322833Y424695D02*
G03Y424671I984J-24D01*
X324513Y423975I984J-0*
G01X333294Y432756*
G03X333583Y433452I-696J696*
G01Y448588*
G03X333512Y448953I-985J-0*
G01X332801Y450732*
G03X331232Y451101I-914J-365*
G01X331402Y457400D02*
G03X331232Y451101I-3056J-3069D01*
G01X331402Y457400D02*
G03X332791I694J697D01*
G01X338902D02*
G03X332791I-3056J-3069D01*
G01X338902D02*
G03X340291I694J697D01*
G01X342684Y458610D02*
G03X340291Y457400I662J-4279D01*
G01X342684Y458610D02*
G03X342921Y458679I-150J973D01*
G01X345499Y459784*
G03X345807Y459993I-388J904*
G01X350755Y464941*
G03X351043Y465637I-696J696*
G01Y487047*
G03X350967Y487428I-984J0*
G01X349641Y490587*
G03X349516Y490803I-907J-381*
G01X357098D02*
G03X349516I-3791J2898D01*
G01X357098D02*
G03X356973Y490587I782J-597D01*
G01X355648Y487428*
G03X355571Y487047I907J-381*
G01Y472990*
G03X356945Y472086I984J0*
G01X362511Y466126D02*
G03X356945Y472086I-3850J1984D01*
G01X362511Y466126D02*
G03X362402Y465675I875J-451D01*
G01Y464105*
G03X364188Y463534I984J-0*
G01Y458513D02*
G03Y463534I3529J2511D01*
G01Y458513D02*
G03X362402Y457942I-802J-571D01*
G01Y443765*
G03X363605Y442805I984J-0*
G01Y434360D02*
G03Y442805I962J4223D01*
G01Y434360D02*
G03X362402Y433401I-219J-959D01*
G01Y360703*
G03X362511Y360252I984J-0*
G01X362992Y358268D02*
G03X362511Y360252I-4331J-0D01*
G01X362992Y358268D02*
X362992D01*
X362511Y356284D02*
G03X362992Y358268I-3850J1984D01*
G01X362511Y356284D02*
G03X362402Y355833I875J-451D01*
G01Y355050*
G03X364188Y354479I984J-0*
G01X372047Y351969D02*
G03X364188Y354479I-4330J-0D01*
G01X372047Y351969D02*
Y351968D01*
X371672Y350204D02*
G03X372047Y351968I-3955J1764D01*
G01X371672Y350204D02*
G03X372570Y348819I898J-401D01*
G01X374606*
X376378Y347047D02*
G03X374606Y348819I-1772J0D01*
G01X376378Y347047D02*
Y341142D01*
X375059Y339429D02*
G03X376378Y341142I-453J1713D01*
G01X375059Y339429D02*
G03X374326Y338477I252J-952D01*
X374680Y337722I985J0*
G01X373933Y329956D02*
G03X374680Y337722I-2280J4138D01*
G01X373933Y329956D02*
G03Y328232I475J-862D01*
G01Y319956D02*
G03Y328232I-2280J4138D01*
G01Y319956D02*
G03Y318232I475J-862D01*
G01Y309956D02*
G03Y318232I-2280J4138D01*
G01Y309956D02*
G03Y308232I475J-862D01*
G01Y299956D02*
G03Y308232I-2280J4138D01*
G01Y299956D02*
G03Y298232I475J-862D01*
G01Y289956D02*
G03Y298232I-2280J4138D01*
G01Y289956D02*
G03Y288232I475J-862D01*
G01X369373D02*
G03X373933I2280J-4138D01*
G01X369373D02*
G03Y289956I-475J862D01*
G01Y298232D02*
G03Y289956I2280J-4138D01*
G01Y298232D02*
G03Y299956I-475J862D01*
G01Y308232D02*
G03Y299956I2280J-4138D01*
G01Y308232D02*
G03Y309956I-475J862D01*
G01Y318232D02*
G03Y309956I2280J-4138D01*
G01Y318232D02*
G03Y319956I-475J862D01*
G01Y328232D02*
G03Y319956I2280J-4138D01*
G01Y328232D02*
G03Y329956I-475J862D01*
G01X368627Y337722D02*
G03X369373Y329956I3026J-3628D01*
G01X368627Y337722D02*
G03X368980Y338477I-631J755D01*
X368248Y339429I-984J0*
G01X366929Y341142D02*
G03X368248Y339429I1772J-0D01*
G01X366929Y341142D02*
Y346957D01*
G03X366273Y347885I-984J0*
G01X364188Y349458D02*
G03X366273Y347885I3529J2511D01*
G01X364188Y349458D02*
G03X362402Y348887I-802J-571D01*
G01Y257159*
G03X363563Y256191I984J-0*
G01X369651Y245034D02*
G03X363563Y256191I-4887J4572D01*
G01X369652Y245034D02*
G03X369425Y244635I718J-672D01*
X369012Y244434I211J-962*
G01X368215Y243872D02*
G03X369012Y244434I-3451J5734D01*
G01X368215Y243872D02*
G03X367857Y243497I508J-843D01*
G01X367212Y242631D02*
G03X367857Y243497I-2645J2645D01*
G01X367212Y242631D02*
X362764Y238183D01*
G03X363627Y236517I696J-696*
G01X361846Y223898D02*
G03X363627Y236517I2918J6023D01*
G01X361846Y223898D02*
G03X360433Y223012I-429J-886D01*
G01Y206082*
G03X362164Y205440I984J-0*
G01X361532Y200231D02*
G03X362164Y205440I4216J2131D01*
G01X361532Y200231D02*
G03X359828Y200323I-879J-445D01*
G01X357077Y198642D02*
G03X359828Y200323I-384J3720D01*
G01X357077Y198642D02*
G03X356619Y198473I101J-979D01*
G01X349766Y204581D02*
G03X356619Y198473I4171J-2219D01*
G01X349766Y204581D02*
G03X349320Y205932I-869J462D01*
G01X348374Y206545D02*
G03X349320Y205932I2807J3298D01*
G01X348374Y206545D02*
G03X346752Y205795I-638J-750D01*
G01Y190551*
G03X347736Y189567I984J0*
G01X378642*
G03X379626Y190551I-0J984*
G01Y211024*
X380289Y212624D02*
G03X379626Y211024I1601J-1600D01*
G01X380289Y212624D02*
X390755Y223090D01*
G03X391043Y223786I-696J696*
G01Y248655*
G03X390755Y249351I-984J-0*
G01X385046Y255059*
G03X383366Y254363I-696J-696*
G01Y247638*
X382703Y246037D02*
G03X383366Y247638I-1601J1601D01*
G01X382703Y246037D02*
X379284Y242618D01*
G03X379075Y242310I696J-696*
G01X377970Y239732*
G03X377902Y239495I904J-387*
G01X370374Y243022D02*
G03X377902Y239495I3248J-2865D01*
G01X370374Y243022D02*
G03X370582Y243400I-738J651D01*
X370972Y243583I-212J962*
G01X372960Y244437D02*
G03X370972Y243583I662J-4280D01*
G01X372960Y244437D02*
G03X373197Y244505I-151J973D01*
G01X375774Y245611*
G03X376082Y245819I-388J904*
G01X378550Y248287*
G03X378839Y248983I-696J696*
G01Y360466*
G03X378550Y361162I-985J-0*
G01X372547Y367164*
G03X372284Y367353I-696J-695*
G01X370728Y368114*
G03X370505Y368192I-433J-884*
G01X374495Y373099D02*
G03X370505Y368192I-3235J-1445D01*
G01X374495Y373099D02*
G03X376292I899J401D01*
G01X383028Y372206D02*
G03X376292Y373099I-3500J-552D01*
G01X383028Y372206D02*
G03X384581Y371566I972J154D01*
G01X388625Y372329D02*
G03X384581Y371566I-1223J-4612D01*
G01X388625Y372329D02*
G03X389862Y373280I253J951D01*
G01Y388745*
G03X389792Y389110I-984J-0*
G01X388751Y391714*
G03X388631Y391930I-914J-365*
G01X395621D02*
G03X388631I-3495J2558D01*
G01X395621D02*
G03X395501Y391714I794J-581D01*
G01X394460Y389110*
G03X394390Y388745I914J-365*
G01Y380448*
G03X396085Y379767I984J-0*
G01X403492Y377434D02*
G03X396085Y379767I-4279J-662D01*
G01X403492Y377434D02*
G03X403560Y377197I973J151D01*
G01X404374Y375300*
G03X406164Y375258I904J388*
G01X406348Y375593D02*
G03X406164Y375258I3179J-1971D01*
G01X406348Y375593D02*
G03X406496Y376111I-836J518D01*
G01Y420866*
X410236Y424606D02*
G03X406496Y420866I0J-3740D01*
G01X410236Y424606D02*
X414173D01*
G03X415157Y425591I0J985*
G01Y432363*
G03X415149Y432493I-984J-0*
G01X414615Y436491*
G03X414546Y436744I-976J-130*
G01X423250D02*
G03X414546I-4352J1839D01*
G01X423250D02*
G03X423181Y436491I906J-383D01*
G01X422646Y432493*
G03X422638Y432363I976J-130*
G01Y425551*
G03X422919Y424862I984J-0*
G01X423425Y423622D02*
G03X422919Y424862I-1771J0D01*
G01X423425Y423622D02*
Y418110D01*
X421912Y416357D02*
G03X423425Y418110I-258J1753D01*
G01X421912Y416357D02*
G03X421492Y414577I143J-973D01*
G01X415664Y407697D02*
G03X421492Y414577I3234J3169D01*
G01X415664Y407697D02*
G03X413976Y407009I-703J-688D01*
G01Y378868*
G03X415382Y377979I985J-0*
G01X416142Y378150D02*
G03X415382Y377979I-0J-1772D01*
G01X416142Y378150D02*
X421654D01*
X423425Y376378D02*
G03X421654Y378150I-1771J-0D01*
G01X423425Y376378D02*
Y371129D01*
G03X425105Y370433I984J-0*
G01X429436Y374764*
G03X429724Y375460I-696J696*
G01Y400068*
G03X429542Y400639I-984J0*
G01Y405660D02*
G03Y400639I3529J-2510D01*
G01Y405660D02*
G03X429724Y406231I-802J571D01*
G01Y480742*
X401772Y174032D02*
G03X400231Y174844I-985J-0D01*
G01X395751Y174375D02*
G03X400231Y174844I1808J4365D01*
G01X395751Y174375D02*
G03X394390Y173466I-377J-909D01*
G01Y161502*
G03X395793Y160611I984J-0*
G01X400204Y160181D02*
G03X395793Y160611I-2566J-3488D01*
G01X400204Y160181D02*
G03X401772Y160974I583J793D01*
G01Y174032*
X354921Y249606D02*
G03X357829Y245960I3740J0D01*
G01X354921Y249606D02*
Y261467D01*
G03X353354Y262260I-984J-0*
G01X349264Y261694D02*
G03X353354Y262260I1523J4054D01*
G01X349264Y261694D02*
G03X347933Y260773I-347J-921D01*
G01Y224641*
G03X348003Y224276I984J-0*
G01X349044Y221672*
G03X349164Y221455I914J365*
G01X350000Y218898D02*
G03X349164Y221455I-4331J-0D01*
G01X348189Y215375D02*
G03X350000Y218898I-2520J3523D01*
G01X348189Y215375D02*
G03X347956Y215141I573J-800D01*
X347641Y215042I133J-976*
G01X342175Y221456D02*
G03X347641Y215042I3494J-2558D01*
G01X342175Y221456D02*
G03X342294Y221672I-795J581D01*
G01X342538Y222280*
G03X341310Y223578I-914J366*
G01X332480Y229921D02*
G03X341310Y223578I6693J0D01*
G01X333251Y233040D02*
G03X332480Y229921I5922J-3119D01*
G01X333251Y233040D02*
G03X333076Y234195I-871J459D01*
G01X328714Y238557*
X328120Y239604D02*
G03X328714Y238557I2195J553D01*
G01X328120Y239604D02*
G03X326181Y239364I-955J-240D01*
G01Y203395*
G03X328048Y202959I984J-0*
G01Y198773D02*
G03Y202959I4235J2093D01*
G01Y198773D02*
G03X326181Y198337I-883J-436D01*
G01Y188217*
G03X327861Y187521I984J-0*
G01X329907Y189567*
X341240*
G03X342224Y190551I0J984*
G01Y205348*
G03X341936Y206043I-984J-0*
G01X341936D02*
X337914Y210065D01*
G03X336669Y210186I-696J-696*
G01X337825Y216227D02*
G03X336669Y210186I-3573J-2447D01*
G01X337825Y216227D02*
G03X338262Y215873I812J557D01*
G01X339002Y215380D02*
G03X338262Y215873I-1600J-1600D01*
G01X339002Y215380D02*
X345171Y209212D01*
G03X346851Y209896I696J696*
G01X348661Y213365D02*
G03X346851Y209896I2520J-3522D01*
G01X348661Y213365D02*
G03X348894Y213600I-572J800D01*
X349210Y213699I-132J975*
G01X351823Y214125D02*
G03X349210Y213699I-642J-4282D01*
G01X351823Y214125D02*
G03X352953Y215099I145J974D01*
G01Y237402*
X354048Y240046D02*
G03X352953Y237402I2645J-2644D01*
G01X354048Y240046D02*
X358306Y244304D01*
G03X357829Y245960I-696J696*
G01X354921Y298736D02*
G03X353598Y299660I-984J-0D01*
G01X349443Y300101D02*
G03X353598Y299660I2526J3993D01*
G01X349443Y300101D02*
G03X347933Y299270I-526J-831D01*
G01Y270723*
G03X349264Y269802I984J0*
G01X353354Y269236D02*
G03X349264Y269802I-2567J-3488D01*
G01X353354Y269236D02*
G03X354921Y270029I583J793D01*
G01Y298736*
Y460328D02*
G03X353241Y461024I-984J-0D01*
G01X349008Y456791*
G03X348800Y456483I696J-696*
G01X347694Y453906*
G03X347626Y453668I905J-388*
G01X340461Y451101D02*
G03X347626Y453668I2885J3230D01*
G01X340461Y451101D02*
G03X338892Y450732I-655J-734D01*
G01X338181Y448953*
G03X338110Y448588I914J-365*
G01Y432106*
X337447Y430506D02*
G03X338110Y432106I-1601J1600D01*
G01X337447Y430506D02*
X304717Y397776D01*
G03X304429Y397080I696J-696*
G01Y380312*
G03X304509Y379925I984J0*
G01X305997Y376452*
G03X306125Y376235I905J387*
G01X307185Y373150D02*
G03X306125Y376235I-5020J-0D01*
G01X302551Y368145D02*
G03X307185Y373150I-386J5005D01*
G01X302551Y368145D02*
G03X301931Y366467I76J-982D01*
G01X312093Y356306*
G03X312416Y356091I696J696*
G01X315587Y354794*
G03X315829Y354730I372J911*
G01X317204Y354329D02*
G03X315829Y354730I-2007J-4329D01*
G01X317204Y354329D02*
G03X318602Y355222I414J893D01*
G01Y398981*
G03X318532Y399347I-984J0*
G01X317491Y401951*
G03X317371Y402167I-914J-366*
G01X324361D02*
G03X317372I-3495J2557D01*
G01X324361D02*
G03X324241Y401951I794J-582D01*
G01X323200Y399347*
G03X323130Y398981I914J-366*
G01Y316929*
X322498Y315360D02*
G03X323130Y316929I-1632J1569D01*
G01X322498Y315360D02*
X313562Y306067D01*
G03X313287Y305385I710J-682*
G01Y283505*
G03X314035Y282550I985J0*
G01X316842Y280331D02*
G03X314035Y282550I-3850J-1985D01*
G01X316842Y280331D02*
G03X318701Y280781I875J450D01*
G01Y299140*
G03X318591Y299591I-984J-0*
G01X323323Y305815D02*
G03X318591Y299591I-882J-4240D01*
G01X323323Y305815D02*
G03X324508Y306778I201J963D01*
G01Y314173*
X325171Y315774D02*
G03X324508Y314173I1601J-1601D01*
G01X325171Y315774D02*
X328714Y319317D01*
X328844Y319437D02*
G03X328714Y319317I1471J-1720D01*
G01X328844Y319437D02*
G03X328887Y320895I-639J749D01*
G01X328395Y326574D02*
G03X328887Y320895I3495J-2558D01*
G01X328395Y326574D02*
G03X328515Y326790I-794J581D01*
G01X329556Y329394*
G03X329626Y329759I-914J365*
G01Y381265*
G03X329556Y381630I-984J-0*
G01X328515Y384234*
G03X328395Y384450I-914J-365*
G01X335017Y390003D02*
G03X328395Y384450I-3127J-2995D01*
G01X335017Y390003D02*
G03X336713Y390684I711J681D01*
G01Y393863*
G03X336642Y394228I-985J0*
G01X335601Y396832*
G03X335482Y397048I-913J-365*
G01X342471D02*
G03X335482I-3495J2558D01*
G01X342471D02*
G03X342351Y396832I794J-581D01*
G01X341310Y394228*
G03X341240Y393863I914J-365*
G01Y338420*
G03X341310Y338055I984J0*
G01X342351Y335451*
G03X342471Y335235I914J365*
G01X343297Y332980D02*
G03X342471Y335235I-4321J-303D01*
G01X343297Y332980D02*
G03X344581Y332112I981J69D01*
G01X346184Y332246D02*
G03X344581Y332112I-515J-3506D01*
G01X346184Y332246D02*
G03X347311Y333220I143J974D01*
G01X347312D02*
X347312D01*
X347312D02*
G03X347300Y333371I-985J-0D01*
G01X348941Y337722D02*
G03X347300Y333371I3028J-3628D01*
G01X348941Y337722D02*
G03X348563Y339429I-630J755D01*
G01X347244Y341142D02*
G03X348563Y339429I1772J-0D01*
G01X347244Y341142D02*
Y347047D01*
X349016Y348819D02*
G03X347244Y347047I-0J-1772D01*
G01X349016Y348819D02*
X353937D01*
G03X354921Y349803I-0J984*
G01Y355833*
G03X354812Y356284I-984J-0*
G01X354331Y358268D02*
G03X354812Y356284I4330J-0D01*
G01X354331Y358268D02*
X354331D01*
X354812Y360252D02*
G03X354331Y358268I3849J-1984D01*
G01X354812Y360252D02*
G03X354921Y360703I-875J451D01*
G01Y460328*
X303546Y165199D02*
G03X303724Y164115I4328J155D01*
G01X303546Y165199D02*
G03X302514Y166147I-984J-35D01*
G01X297756Y169517D02*
G03X302514Y166147I4527J1349D01*
G01X297756Y169517D02*
G03X296382Y170121I-944J-281D01*
G01X293910Y169724D02*
G03X296382Y170121I578J4292D01*
G01X293910Y169724D02*
G03X292820Y168524I-131J-976D01*
G01X292913Y167717D02*
G03X292820Y168524I-3543J-0D01*
G01X292913Y167717D02*
X292913D01*
X285960Y166755D02*
G03X292913Y167717I3410J962D01*
G01X285960Y166755D02*
G03X284761Y167440I-948J-267D01*
G01X280661Y172393D02*
G03X284761Y167440I3197J-1527D01*
G01X280661Y172393D02*
G03X279076Y173513I-889J424D01*
G01X275616Y170053*
X274016Y169390D02*
G03X275616Y170053I-0J2264D01*
G01X274016Y169390D02*
X273145D01*
G03X272790Y169324I-0J-985*
G01X271452Y168807*
G03X271260Y168707I354J-918*
G01Y174600D02*
G03Y168707I-1969J-2946D01*
G01Y174600D02*
G03X271452Y174500I546J818D01*
G01X272448Y174116*
G03X273498Y174338I354J918*
G01X275266Y176105*
G03X274877Y177736I-696J696*
G01X272441Y181102D02*
G03X274878Y177736I3543J0D01*
G01X272441Y181102D02*
X272441D01*
X272672Y182361D02*
G03X272441Y181102I3312J-1259D01*
G01X272672Y182361D02*
G03X272448Y183406I-920J349D01*
G01X270446Y185407*
X269907Y186271D02*
G03X270446Y185407I2140J737D01*
G01X269907Y186271D02*
G03X268446Y186779I-931J-321D01*
G01X263276Y191153D02*
G03X268446Y186779I3259J-1389D01*
G01X263276Y191153D02*
G03X263355Y191539I-905J386D01*
X263198Y192073I-984J0*
G01X260510Y196245*
G03X259970Y196654I-828J-533*
G01X258366Y198819D02*
G03X259970Y196654I2264J-0D01*
G01X258366Y198819D02*
Y201025D01*
G03X257005Y201935I-984J0*
G01X251059Y204019D02*
G03X257005Y201935I4138J2280D01*
G01X251059Y204019D02*
G03X249335I-862J-475D01*
G01X243714Y201813D02*
G03X249335Y204019I1483J4486D01*
G01X243714Y201813D02*
G03X242421Y200879I-308J-934D01*
G01Y185597*
G03X242710Y184901I985J0*
G01X250256Y177355*
G03X250952Y177067I696J696*
G01X255758*
G03X256077Y177120I-0J984*
G01X257716Y177682*
G03X257928Y177785I-320J931*
G01Y171821D02*
G03Y177785I1915J2982D01*
G01Y171821D02*
G03X257716Y171924I-532J-828D01*
G01X256077Y172486*
G03X255758Y172539I-319J-931*
G01X249606*
X248006Y173202D02*
G03X249606Y172539I1600J1601D01*
G01X248006Y173202D02*
X238557Y182651D01*
X237894Y184252D02*
G03X238557Y182651I2263J-0D01*
G01X237894Y184252D02*
Y200853D01*
G03X236614Y201792I-985J0*
G01X233193Y202021D02*
G03X236614Y201792I2004J4278D01*
G01X233193Y202021D02*
G03X231791Y201129I-417J-892D01*
G01Y200394*
X231128Y198793D02*
G03X231791Y200394I-1600J1601D01*
G01X231128Y198793D02*
X212001Y179666D01*
G03X211713Y178970I696J-696*
G01Y144242*
G03X211766Y143923I984J0*
G01X212328Y142284*
G03X212431Y142072I931J320*
G01X212992Y140157D02*
G03X212431Y142072I-3543J0D01*
G01X209526Y136615D02*
G03X212992Y140157I-77J3542D01*
G01X209526Y136615D02*
G03X208563Y135631I21J-984D01*
G01Y135187*
G03X208616Y134868I984J0*
G01X209178Y133229*
G03X209281Y133017I931J319*
G01X209698Y130101D02*
G03X209281Y133017I-3399J1001D01*
G01X209698Y130101D02*
G03X209658Y129823I944J-278D01*
X210642Y128839I984J-0*
G01X217925*
G03X218628Y129135I-0J984*
G01X226334Y137016*
X227953Y137697D02*
G03X226334Y137016I-0J-2264D01*
G01X227953Y137697D02*
X277630D01*
G03X278325Y137985I-0J984*
G01X303477Y163137*
G03X303724Y164115I-696J696*
G01X298622Y189109D02*
G03X296922Y189785I-984J0D01*
G01X296876Y189738D02*
G03X296922Y189785I-1600J1601D01*
G01X296876Y189738D02*
X292316Y185177D01*
G03X292028Y184481I696J-696*
G01Y179122*
G03X293285Y178176I984J-0*
G01X297055Y177504D02*
G03X293285Y178176I-2567J-3488D01*
G01X297055Y177504D02*
G03X298622Y178297I583J793D01*
G01Y189109*
X302461Y255718D02*
G03X301412Y256700I-985J0D01*
G01X298199Y262151D02*
G03X301412Y256700I2982J-1915D01*
G01X298199Y262151D02*
G03X298302Y262363I-828J531D01*
G01X298864Y264002*
G03X298917Y264321I-931J319*
G01Y279799*
G03X297543Y280702I-984J-0*
G01X291531Y282760D02*
G03X297543Y280702I4138J2279D01*
G01X291531Y282760D02*
G03X289807I-862J-475D01*
G01X281531D02*
G03X289807I4138J2279D01*
G01X281531D02*
G03X279807I-862J-475D01*
G01X271531D02*
G03X279807I4138J2279D01*
G01X271531D02*
G03X269807I-862J-475D01*
G01X269429Y282178D02*
G03X269807Y282760I-3760J2861D01*
G01X269429Y282178D02*
G03X269304Y281961I783J-596D01*
G01X268009Y278862*
G03X267933Y278483I908J-379*
G01Y275674*
G03X268228Y274971I984J0*
G01X263144Y274844D02*
G03X268228Y274971I2604J-2403D01*
G01X263144Y274844D02*
G03X263405Y275512I-723J668D01*
G01Y277119*
G03X261725Y277815I-984J0*
G01X260032Y276122*
G03X259744Y275426I696J-696*
G01Y256365*
G03X261195Y255498I984J-0*
G01X268554Y244382D02*
G03X261195Y255498I-4184J5224D01*
G01X268554Y244382D02*
G03X268185Y243614I615J-768D01*
X268474Y242918I984J0*
G01X270875Y240517*
G03X272535Y241018I696J696*
G01X279039Y244416D02*
G03X272535Y241018I-1874J-4337D01*
G01X279039Y244416D02*
G03X280413Y245319I390J903D01*
G01Y253789*
G03X280360Y254109I-984J0*
G01X279798Y255747*
G03X279695Y255960I-931J-319*
G01X279134Y257874D02*
G03X279695Y255960I3543J0D01*
G01X286220Y257874D02*
G03X279134I-3543J0D01*
G01X286102Y256964D02*
G03X286220Y257874I-3425J910D01*
G01X286102Y256964D02*
G03X287426Y255801I951J-252D01*
G01X286443Y243913D02*
G03X287426Y255801I3518J5693D01*
G01X286443Y243913D02*
G03X284941Y243075I-518J-838D01*
G01Y236452*
G03X286443Y235615I984J0*
G01X294014Y235247D02*
G03X286443Y235615I-4053J-5326D01*
G01X294014Y235247D02*
G03X295524Y236396I596J783D01*
G01X295444Y236596*
G03X295324Y236812I-914J-365*
G01X300984Y243121D02*
G03X295324Y236812I-2165J-3751D01*
G01X300984Y243121D02*
G03X302461Y243973I492J852D01*
G01Y255718*
X305532Y328904D02*
X280898Y353538D01*
G03X279346Y352356I-696J-696*
G01X277871Y353952D02*
G03X279346Y352356I-2674J-3952D01*
G01X277871Y353952D02*
G03X279407Y354767I552J815D01*
X279271Y355267I-984J-0*
G01X279170Y355459D02*
G03X279271Y355267I2050J958D01*
G01X279170Y355459D02*
G03X278974Y355738I-892J-417D01*
G01X270565Y364147*
X269902Y365748D02*
G03X270565Y364147I2263J0D01*
G01X269902Y365748D02*
Y366471D01*
G03X269801Y366904I-985J0*
G01X268375Y369814*
G03X268257Y369999I-884J-433*
G01X267985Y370371D02*
G03X268257Y369999I4180J2779D01*
G01X267985Y370371D02*
G03X266346I-820J-545D01*
G01X264782Y368866D02*
G03X266346Y370371I-2617J4284D01*
G01X264782Y368866D02*
G03X264311Y368026I513J-840D01*
G01Y356654*
G03X264388Y356273I984J-0*
G01X265713Y353114*
G03X265839Y352897I908J381*
G01X266819Y350000D02*
G03X265839Y352897I-4772J0D01*
G01X258256D02*
G03X266819Y350000I3791J-2897D01*
G01X258256Y352897D02*
G03X258382Y353114I-782J598D01*
G01X259707Y356273*
G03X259783Y356654I-908J381*
G01Y368178*
G03X259351Y368993I-984J0*
G01X258653Y369563D02*
G03X259351Y368993I3512J3587D01*
G01X258653Y369563D02*
G03X257054Y369232I-688J-703D01*
G01X255413Y368130D02*
G03X257054Y369232I0J1772D01*
G01X255413Y368130D02*
G03X254429Y367146I0J-984D01*
G01Y347448*
G03X254717Y346752I984J-0*
G01X258943Y342526*
G03X259267Y342311I696J696*
G01X262437Y341015*
G03X262679Y340950I373J911*
G01X257318Y335588D02*
G03X262679Y340950I4729J632D01*
G01X257318Y335588D02*
G03X257253Y335831I-976J-130D01*
G01X255957Y339001*
G03X255742Y339325I-911J-372*
G01X252293Y342774*
G03X251769Y343047I-696J-696*
G01X249902Y345276D02*
G03X251769Y343047I2263J-0D01*
G01X249902Y345276D02*
Y354100D01*
G03X247951Y354288I-985J-0*
G01X240252Y352498D02*
G03X247951Y354288I3449J2620D01*
G01X240252Y352498D02*
G03X238484Y351903I-783J-595D01*
G01Y351181*
X237821Y349580D02*
G03X238484Y351181I-1601J1601D01*
G01X237821Y349580D02*
X236855Y348614D01*
G03X236566Y347918I695J-696*
X236867Y347210I984J-0*
G01X233005Y339849D02*
G03X236867Y347210I853J4245D01*
G01X233005Y339849D02*
G03X231936Y338435I-194J-965D01*
G01X232185Y337402D02*
G03X231936Y338435I-2264J-0D01*
G01X232185Y337402D02*
Y322982D01*
G03X232238Y322663I984J0*
G01X232800Y321024*
G03X232903Y320812I931J320*
G01X233465Y318898D02*
G03X232903Y320812I-3544J-0D01*
G01X226940D02*
G03X233465Y318898I2981J-1914D01*
G01X226940Y320812D02*
G03X227042Y321024I-829J532D01*
G01X227604Y322663*
G03X227657Y322982I-931J319*
G01Y324371*
G03X225839Y324893I-984J-0*
G01X223588Y323309D02*
G03X225839Y324893I-753J3463D01*
G01X223588Y323309D02*
G03X223365Y323232I209J-961D01*
G01X222108Y322618*
G03X221555Y321734I431J-884*
G01Y305139*
G03X223104Y304333I984J0*
G01X229885Y300224D02*
G03X223104Y304333I-4294J563D01*
G01X229885Y300224D02*
G03X229876Y300096I975J-128D01*
G01X229876*
G03X231051Y299131I984J0*
G01X235338Y297502D02*
G03X231051Y299131I-3448J-2620D01*
G01X235338Y297502D02*
G03X237106Y298097I784J595D01*
G01Y318110*
X237769Y319711D02*
G03X237106Y318110I1601J-1601D01*
G01X237769Y319711D02*
X247242Y329183D01*
G03X247429Y330314I-696J696*
G01X246689Y331816*
G03X246583Y331985I-883J-435*
G01X253417D02*
G03X246583I-3417J2661D01*
G01X253417D02*
G03X253311Y331816I777J-604D01*
G01X252365Y329895*
G03X252264Y329460I883J-435*
G01Y328740*
X251601Y327139D02*
G03X252264Y328740I-1601J1601D01*
G01X251601Y327139D02*
X241922Y317461D01*
G03X241634Y316765I696J-696*
G01Y299864*
G03X243144Y299032I984J0*
G01X247217Y299503D02*
G03X243144Y299032I-1548J-4464D01*
G01X247217Y299503D02*
G03X248524Y300433I322J930D01*
G01Y302362*
X249187Y303963D02*
G03X248524Y302362I1600J-1601D01*
G01X249187Y303963D02*
X257616Y312393D01*
G03X257905Y313089I-696J696*
X257243Y314018I-985J-0*
G01X262992Y318110D02*
G03X257243Y314018I-4331J0D01*
G01X262889Y317172D02*
G03X262992Y318110I-4228J938D01*
G01X262889Y317172D02*
G03X262874Y316831I961J-213D01*
G01X262894Y316535D02*
G03X262874Y316831I-2264J0D01*
G01X262894Y316535D02*
Y312205D01*
X262351Y310734D02*
G03X262894Y312205I-1721J1471D01*
G01X262351Y310734D02*
G03X262562Y309269I748J-640D01*
G01X263612Y304385D02*
G03X262562Y309269I-2982J1914D01*
G01X263612Y304385D02*
G03X263509Y304172I828J-532D01*
G01X262947Y302534*
G03X262894Y302214I931J-320*
G01X262894D02*
Y300460D01*
G03X264187Y299525I984J-0*
G01X269807Y297319D02*
G03X264187Y299525I-4138J-2280D01*
G01X269807Y297319D02*
G03X271531I862J475D01*
G01X279807D02*
G03X271531I-4138J-2280D01*
G01X279807D02*
G03X281531I862J475D01*
G01X283437Y299203D02*
G03X281531Y297319I2232J-4164D01*
G01X283437Y299203D02*
G03X283957Y300071I-465J868D01*
G01Y305242*
G03X283336Y306156I-985J-0*
G01X281102Y309449D02*
G03X283336Y306156I3544J-0D01*
G01X288189Y309449D02*
G03X281102I-3543J-0D01*
G01X288189D02*
X288189D01*
X288185Y309284D02*
G03X288189Y309449I-3539J165D01*
G01X288185Y309284D02*
G03X288184Y309238I983J-46D01*
G01X288184*
G03X288275Y308825I984J-0*
G01X288484Y307874D02*
G03X288275Y308825I-2264J0D01*
G01X288484Y307874D02*
Y299300D01*
G03X288813Y298566I985J0*
G01X289807Y297319D02*
G03X288813Y298566I-4138J-2280D01*
G01X289807Y297319D02*
G03X291531I862J475D01*
G01X291910Y297901D02*
G03X291531Y297319I3759J-2862D01*
G01X291910Y297901D02*
G03X292035Y298118I-783J596D01*
G01X293329Y301217*
G03X293405Y301596I-908J379*
G01Y304887*
G03X293335Y305252I-984J-0*
G01X292294Y307856*
G03X292175Y308072I-914J-365*
G01X294086Y314661D02*
G03X292175Y308072I1583J-4031D01*
G01X294086Y314661D02*
G03X294711Y315577I-360J916D01*
X294479Y316212I-985J0*
G01X293503Y317369*
G03X292781Y317719I-753J-634*
G01X297244Y322047D02*
G03X292781Y317719I-4331J0D01*
G01X297072Y320840D02*
G03X297244Y322047I-4159J1207D01*
G01X297072Y320840D02*
G03X297033Y320565I946J-275D01*
X297265Y319931I985J0*
G01X302692Y313494*
G03X304429Y314128I753J634*
G01Y317485*
G03X304359Y317850I-984J0*
G01X303318Y320454*
G03X303198Y320670I-914J-365*
G01X305180Y327286D02*
G03X303198Y320670I1513J-4058D01*
G01X305180Y327286D02*
G03X305532Y328904I-344J922D01*
G01X237106Y263714D02*
G03X235338Y264309I-984J0D01*
G01X234821Y263742D02*
G03X235338Y264309I-2931J3187D01*
G01X234821Y263742D02*
G03X235219Y262070I667J-725D01*
G01X235715Y261888D02*
G03X235219Y262070I-1463J-3227D01*
G01X235715Y261888D02*
G03X237106Y262785I407J897D01*
G01Y263714*
X229804Y263134D02*
G03X231085Y262674I2086J3795D01*
G01X229804Y263134D02*
G03X228634Y261575I-474J-863D01*
G01X229766Y260443*
G03X231286Y260600I696J696*
G01X231630Y261045D02*
G03X231286Y260600I2622J-2384D01*
G01X231630Y261045D02*
G03X231085Y262674I-728J662D01*
G01X237106Y291667D02*
G03X235338Y292262I-984J-0D01*
G01X229404Y291336D02*
G03X235338Y292262I2486J3546D01*
G01X229404Y291336D02*
G03X227854Y290530I-565J-806D01*
G01Y271281*
G03X229404Y270475I985J0*
G01X235338Y269549D02*
G03X229404Y270475I-3448J-2620D01*
G01X235338Y269549D02*
G03X237106Y270144I784J595D01*
G01Y291667*
X249902Y367146D02*
G03X248917Y368130I-985J-0D01*
G01X247652Y368662D02*
G03X248917Y368130I1265J1240D01*
G01X247652Y368662D02*
G03X245965Y367973I-703J-689D01*
G01Y360861*
G03X246035Y360496I984J0*
G01X247076Y357892*
G03X247195Y357676I914J365*
G01X247951Y355948D02*
G03X247195Y357676I-4250J-830D01*
G01X247951Y355948D02*
G03X249902Y356136I966J188D01*
G01Y367146*
X248213Y430055D02*
G03X248672Y429545I3952J3095D01*
G01X248213Y430055D02*
G03X247438Y430433I-775J-606D01*
G01X245669*
X244067Y431097D02*
G03X245669Y430433I1602J1600D01*
G01X244067Y431097D02*
X239758Y435407D01*
X239094Y437008D02*
G03X239758Y435407I2264J-0D01*
G01X239094Y437008D02*
Y448588D01*
G03X239024Y448953I-984J-0*
G01X238313Y450732*
G03X236743Y451101I-914J-365*
G01X230281Y451889D02*
G03X236743Y451101I3577J2442D01*
G01X230281Y451889D02*
G03X228484Y451334I-812J-555D01*
G01Y440322*
G03X228773Y439626I985J-0*
G01X240256Y428143*
G03X240952Y427854I696J696*
G01X247987*
G03X248672Y429545I-0J985*
G01X196161Y290073D02*
G03X194758Y290964I-984J0D01*
G01X190770Y291119D02*
G03X194758Y290964I2143J3763D01*
G01X190770Y291119D02*
G03X189379Y290652I-487J-856D01*
G01X182433Y296460D02*
G03X189379Y290652I2606J-3940D01*
G01X182433Y296460D02*
G03X182874Y297281I-543J821D01*
G01Y310921*
G03X181205Y311628I-984J-0*
G01X178817Y310631D02*
G03X181205Y311628I-77J3542D01*
G01X178817Y310631D02*
G03X177854Y309647I22J-984D01*
G01Y249763*
G03X179146Y248828I985J0*
G01X180315Y249016D02*
G03X179146Y248828I-0J-3740D01*
G01X180315Y249016D02*
X181900D01*
G03X182883Y249950I-0J984*
G01X194458Y254175D02*
G03X182883Y249950I-4891J-4569D01*
G01X194458Y254175D02*
G03X196161Y254847I719J672D01*
G01Y290073*
Y308821D02*
G03X194800Y309730I-984J-0D01*
G01X191624Y309573D02*
G03X194800Y309730I1368J4521D01*
G01X191624Y309573D02*
G03X190354Y308631I-285J-942D01*
G01Y299958*
G03X191630Y299018I985J0*
G01X194758Y298800D02*
G03X191630Y299018I-1845J-3918D01*
G01X194758Y298800D02*
G03X196161Y299691I419J891D01*
G01Y308821*
X146161Y129528D02*
G03X146202Y129101I2264J-0D01*
G01X146161Y129528D02*
Y147553D01*
G03X144758Y148444I-984J0*
G01X141197Y148386D02*
G03X144758Y148444I1716J3976D01*
G01X141197Y148386D02*
G03X139823Y147482I-390J-904D01*
G01Y133858*
X139160Y132258D02*
G03X139823Y133858I-1601J1600D01*
G01X139160Y132258D02*
X136618Y129715D01*
G03X137598Y128077I696J-696*
G01X140579Y127639D02*
G03X137598Y128077I-1957J-2954D01*
G01X140579Y127639D02*
G03X141666I543J821D01*
G01X144885Y127996D02*
G03X141666Y127639I-1263J-3311D01*
G01X144885Y127996D02*
G03X146202Y129101I350J919D01*
G01X151280Y267946D02*
G03X150991Y268642I-985J-0D01*
G01X127566Y292067*
G03X125886Y291371I-696J-696*
G01Y261255*
G03X125956Y260890I984J0*
G01X126997Y258286*
G03X127117Y258070I914J365*
G01X125226Y251489D02*
G03X127117Y258070I-1604J4023D01*
G01X125226Y251489D02*
G03X124606Y250575I365J-914D01*
G01Y246817*
G03X125322Y245870I985J-0*
G01X137320Y236765D02*
G03X125322Y245870I-17635J-10781D01*
G01X137320Y236765D02*
G03X138441Y236335I840J513D01*
G01X144033Y224330D02*
G03X138441Y236335I-3679J5591D01*
G01X144033Y224330D02*
G03X143975Y222727I541J-822D01*
G01X144833Y216733D02*
G03X143975Y222727I-3494J2558D01*
G01X144833Y216733D02*
G03X144714Y216517I794J-581D01*
G01X143673Y213913*
G03X143602Y213548I914J-365*
G01Y191798*
G03X145370Y191202I985J-0*
G01X150022Y192743D02*
G03X145370Y191202I-1203J-4160D01*
G01X150022Y192743D02*
G03X151280Y193688I273J945D01*
G01Y267946*
X129331Y183401D02*
G03X128128Y184360I-985J-0D01*
G01X125882Y184446D02*
G03X128128Y184360I1283J4137D01*
G01X125882Y184446D02*
G03X124606Y183506I-291J-940D01*
G01Y139592*
G03X126388Y139016I985J0*
G01X128419Y140150D02*
G03X126388Y139016I203J-2748D01*
G01X128419Y140150D02*
G03X129331Y141132I-73J982D01*
G01Y183401*
X146900Y467017D02*
G03X147775Y466476I1328J1172D01*
G01X146900Y467017D02*
G03X145177Y466366I-739J-651D01*
G01Y463861*
G03X147027Y463392I984J-0*
G01X148154Y464769D02*
G03X147027Y463392I3027J-3627D01*
G01X148154Y464769D02*
G03X147775Y466476I-631J756D01*
G01X423622Y324094D02*
G03X423622I-4724J0D01*
G01X403984Y407717D02*
G03X403984I-4771J0D01*
G01X403622Y438583D02*
G03X403622I-4724J0D01*
G01X306504Y479921D02*
G03X306504I-4772J0D01*
G01X305559Y493701D02*
G03X305559I-4772J0D01*
G01X252409Y479921D02*
G03X252409I-4771J0D01*
G01Y493701D02*
G03X252409I-4771J0D01*
G01X174409Y451260D02*
G03X174409I-4724J0D01*
G01Y471260D02*
G03X174409I-4724J0D01*
G01X163827Y407717D02*
G03X163827I-4772J0D01*
G01X346504Y479921D02*
G03X346504I-4772J0D01*
G01X375984Y271260D02*
G03X375984I-4330J0D01*
G01X392173Y407717D02*
G03X392173I-4771J0D01*
G01X398079Y493701D02*
G03X398079I-4772J0D01*
G01X256299Y156693D02*
G03X256299I-4330J0D01*
G01X281496Y266535D02*
G03X281496I-4331J0D01*
G01X279969Y322441D02*
G03X279969I-4772J0D01*
G01Y336220D02*
G03X279969I-4772J0D01*
G01X189764Y272520D02*
G03X189764I-4725J0D01*
G01X147047Y249606D02*
G03X147047I-6693J0D01*
G01X140158Y270866D02*
G03X140158I-4331J0D01*
G01X346752Y179133D02*
X370669D01*
X346752Y177361D02*
X370669D01*
X350730Y166731D02*
X370669D01*
X352415Y164959D02*
X370669D01*
X354008Y163188D02*
X370669D01*
X354232Y161416D02*
X370669D01*
X354245Y159644D02*
X370669D01*
X354959Y157873D02*
X370669D01*
X355721Y156101D02*
X370669D01*
X356592Y154329D02*
X370669D01*
X367043Y152558D02*
X370669D01*
X308465Y143699D02*
X370669D01*
X366380Y141928D02*
X370669D01*
X367911Y129526D02*
X370669D01*
X355920Y127755D02*
X370669D01*
X355035Y125983D02*
X370669D01*
X354327Y124211D02*
X370669D01*
X364897Y122440D02*
X370669D01*
X346772Y180904D02*
X370650D01*
X368473Y168503D02*
X370630D01*
X368915Y145471D02*
X370452D01*
X369302Y175589D02*
X370068D01*
X354232Y122440D02*
X364630D01*
X356703Y152558D02*
X364453D01*
X308465Y141928D02*
X363147D01*
X356662Y168503D02*
X363023D01*
X326389Y145471D02*
X362581D01*
X357388Y175589D02*
X362297D01*
X356114Y150786D02*
X362117D01*
X356299Y129526D02*
X361617D01*
X344943Y147243D02*
X361582D01*
X358175Y170274D02*
X361510D01*
X354350Y149014D02*
X361458D01*
X358432Y173818D02*
X361253D01*
X358651Y172046D02*
X361034D01*
X308465Y140156D02*
X360022D01*
X355921Y131298D02*
X359501D01*
X308465Y138385D02*
X358757D01*
X354460Y133070D02*
X358502D01*
X308603Y136613D02*
X358176D01*
X344022Y134841D02*
X358097D01*
X346752Y175589D02*
X350486D01*
X329383Y122440D02*
X349705D01*
X347100Y170274D02*
X349676D01*
X328697Y124211D02*
X349610D01*
X346142Y149014D02*
X349587D01*
X345825Y133070D02*
X349477D01*
X346752Y173818D02*
X349442D01*
X346752Y172046D02*
X349223D01*
X326831Y125983D02*
X348902D01*
X345419Y127755D02*
X348017D01*
X346635Y131298D02*
X347932D01*
X328061Y134841D02*
X339443D01*
X320285Y154329D02*
X338697D01*
X327798Y147243D02*
X338522D01*
X321209Y156101D02*
X338157D01*
X327609Y127755D02*
X338045D01*
X329179Y133070D02*
X337640D01*
X326840Y152558D02*
X337385D01*
X328224Y149014D02*
X337322D01*
X329019Y129526D02*
X337158D01*
X329445Y131298D02*
X337045D01*
X327959Y150786D02*
X337008D01*
X308465Y125983D02*
X322618D01*
X308465Y127755D02*
X321840D01*
X308840Y134841D02*
X321388D01*
X308697Y124211D02*
X320752D01*
X318043Y145471D02*
X320619D01*
X309019Y129526D02*
X320430D01*
X309179Y133070D02*
X320270D01*
X309383Y122440D02*
X320066D01*
X309445Y131298D02*
X320004D01*
X345079Y159644D02*
X349692D01*
X345079Y161416D02*
X349532D01*
X345079Y157873D02*
X348978D01*
X345074Y156101D02*
X348216D01*
X345079Y163188D02*
X347784D01*
X344767Y154329D02*
X347345D01*
X426232Y365156D02*
X429724D01*
X424460Y363385D02*
X429724D01*
X422955Y361613D02*
X429724D01*
X421388Y359841D02*
X429724D01*
X411863Y358070D02*
X429724D01*
X424911Y356298D02*
X429724D01*
X423296Y347440D02*
X429724D01*
X423352Y345668D02*
X429724D01*
X423618Y343896D02*
X429724D01*
X423192Y342125D02*
X429724D01*
X421782Y340353D02*
X429724D01*
X403568Y338581D02*
X429724D01*
X405519Y336810D02*
X429724D01*
X406282Y335038D02*
X429724D01*
X406305Y333266D02*
X429724D01*
X405598Y331495D02*
X429724D01*
X403651Y329723D02*
X429724D01*
X421626Y327951D02*
X429724D01*
X423137Y326180D02*
X429724D01*
X423612Y324408D02*
X429724D01*
X423391Y322636D02*
X429724D01*
X422346Y320865D02*
X429724D01*
X403424Y319093D02*
X429724D01*
X405103Y317322D02*
X429724D01*
X406148Y315550D02*
X429724D01*
X406367Y313778D02*
X429724D01*
X405891Y312007D02*
X429724D01*
X404378Y310235D02*
X429724D01*
X403653Y308463D02*
X429724D01*
X405600Y306692D02*
X429724D01*
X406305Y304920D02*
X429724D01*
X406282Y303148D02*
X429724D01*
X405518Y301377D02*
X429724D01*
X403567Y299605D02*
X429724D01*
X404541Y297833D02*
X429724D01*
X426176Y296062D02*
X429724D01*
X427052Y294290D02*
X429724D01*
X427093Y292518D02*
X429724D01*
X426327Y290747D02*
X429724D01*
X425587Y288975D02*
X429724D01*
X425098Y287203D02*
X429724D01*
X425098Y285432D02*
X429724D01*
X425098Y283660D02*
X429724D01*
X425098Y281888D02*
X429724D01*
X425098Y280117D02*
X429724D01*
X425098Y278345D02*
X429724D01*
X425098Y276573D02*
X429724D01*
X425098Y274802D02*
X429724D01*
X425098Y273030D02*
X429724D01*
X425098Y271259D02*
X429724D01*
X425098Y269487D02*
X429724D01*
X425098Y267715D02*
X429724D01*
X425098Y265944D02*
X429724D01*
X425098Y264172D02*
X429724D01*
X425098Y262400D02*
X429724D01*
X425098Y260629D02*
X429724D01*
X425098Y258857D02*
X429724D01*
X425098Y257085D02*
X429724D01*
X425098Y255314D02*
X429724D01*
X425098Y253542D02*
X429724D01*
X425098Y251770D02*
X429724D01*
X425098Y249999D02*
X429724D01*
X425098Y248227D02*
X429724D01*
X401673Y203936D02*
X429724D01*
X401964Y202164D02*
X429724D01*
X401495Y200392D02*
X429724D01*
X399819Y198621D02*
X429724D01*
X408854Y196849D02*
X429724D01*
X409730Y195077D02*
X429724D01*
X409770Y193306D02*
X429724D01*
X409252Y191534D02*
X429724D01*
X409252Y189762D02*
X429724D01*
X409252Y187991D02*
X429724D01*
X409252Y186219D02*
X429724D01*
X409252Y184448D02*
X429724D01*
X409252Y182676D02*
X429724D01*
X409252Y180904D02*
X429724D01*
X409252Y179133D02*
X429724D01*
X409252Y177361D02*
X429724D01*
X409252Y175589D02*
X429724D01*
X409252Y173818D02*
X429724D01*
X420515Y172046D02*
X429724D01*
X421498Y170274D02*
X429724D01*
X421684Y168503D02*
X429724D01*
X421181Y166731D02*
X429724D01*
X419875Y164959D02*
X429724D01*
X419972Y163188D02*
X429724D01*
X420715Y161416D02*
X429724D01*
X421587Y159644D02*
X429724D01*
X422266Y157873D02*
X429724D01*
X422916Y156101D02*
X429724D01*
X423640Y154329D02*
X429724D01*
X425289Y152558D02*
X429724D01*
X426605Y150786D02*
X429724D01*
X426673Y149014D02*
X429724D01*
X426673Y147243D02*
X429724D01*
X426673Y145471D02*
X429724D01*
X426673Y143699D02*
X429724D01*
X426673Y141928D02*
X429724D01*
X426673Y140156D02*
X429724D01*
X426673Y138385D02*
X429724D01*
X426673Y136613D02*
X429724D01*
X426673Y134841D02*
X429724D01*
X426673Y133070D02*
X429724D01*
X426673Y131298D02*
X429724D01*
X426673Y129526D02*
X429724D01*
X426673Y127755D02*
X429724D01*
X426665Y125983D02*
X429724D01*
X425641Y124211D02*
X429724D01*
X423869Y122440D02*
X429724D01*
X425098Y246455D02*
X429656D01*
X400388Y205707D02*
X429552D01*
X428003Y366928D02*
X429475D01*
X428186Y349211D02*
X429294D01*
X398701Y207479D02*
X425438D01*
X410550Y356298D02*
X424696D01*
X400247Y209251D02*
X422513D01*
X409252Y147243D02*
X422146D01*
X409252Y145471D02*
X422146D01*
X409252Y143699D02*
X422146D01*
X415593Y141928D02*
X422146D01*
X418719Y140156D02*
X422146D01*
X419983Y138385D02*
X422146D01*
X409252Y149014D02*
X422138D01*
X408874Y354526D02*
X421308D01*
X405393Y349211D02*
X420855D01*
X409252Y150786D02*
X420658D01*
X405393Y350983D02*
X420586D01*
X405210Y287203D02*
X420571D01*
X406184Y285432D02*
X420571D01*
X406358Y283660D02*
X420571D01*
X405831Y281888D02*
X420571D01*
X404203Y280117D02*
X420571D01*
X397539Y278345D02*
X420571D01*
X397539Y276573D02*
X420571D01*
X397539Y274802D02*
X420571D01*
X397539Y273030D02*
X420571D01*
X397539Y271259D02*
X420571D01*
X397539Y269487D02*
X420571D01*
X397539Y267715D02*
X420571D01*
X397539Y265944D02*
X420571D01*
X397539Y264172D02*
X420571D01*
X398282Y262400D02*
X420571D01*
X400053Y260629D02*
X420571D01*
X401825Y258857D02*
X420571D01*
X403597Y257085D02*
X420571D01*
X417472Y255314D02*
X420571D01*
X405020Y242912D02*
X420571D01*
X406548Y352755D02*
X420544D01*
X418511Y244684D02*
X420518D01*
X405020Y241140D02*
X420484D01*
X402019Y211022D02*
X420385D01*
X403431Y288975D02*
X420083D01*
X405948Y296062D02*
X419493D01*
X404987Y290747D02*
X419342D01*
X405020Y239369D02*
X418895D01*
X403791Y212794D02*
X418732D01*
X406374Y294290D02*
X418617D01*
X406107Y292518D02*
X418576D01*
X404985Y214566D02*
X417417D01*
X413076Y359841D02*
X416407D01*
X405020Y216337D02*
X416366D01*
X405020Y237597D02*
X416281D01*
X404381Y327951D02*
X416169D01*
X409252Y152558D02*
X416056D01*
X404538Y340353D02*
X416013D01*
X405393Y347440D02*
X415561D01*
X405020Y218109D02*
X415535D01*
X405102Y320865D02*
X415450D01*
X409252Y163188D02*
X415146D01*
X405020Y219881D02*
X414898D01*
X405892Y326180D02*
X414658D01*
X405948Y342125D02*
X414603D01*
X413936Y361613D02*
X414542D01*
X406108Y345668D02*
X414443D01*
X405020Y221652D02*
X414435D01*
X406147Y322636D02*
X414404D01*
X409252Y161416D02*
X414403D01*
X409252Y164959D02*
X414235D01*
X406367Y324408D02*
X414184D01*
X406374Y343896D02*
X414177D01*
X409252Y154329D02*
X413665D01*
X409252Y159644D02*
X413531D01*
X409252Y172046D02*
X413343D01*
X409252Y156101D02*
X412890D01*
X409252Y157873D02*
X412853D01*
X409252Y166731D02*
X412678D01*
X405020Y223424D02*
X412370D01*
X409252Y170274D02*
X412360D01*
X409275Y141928D02*
X412360D01*
X409252Y168503D02*
X412174D01*
X405020Y235825D02*
X410824D01*
X404942Y255314D02*
X410480D01*
X405020Y244684D02*
X409442D01*
X405020Y225196D02*
X409237D01*
X405020Y234054D02*
X408712D01*
X405020Y253542D02*
X408563D01*
X405020Y246455D02*
X408072D01*
X405020Y226967D02*
X407971D01*
X405020Y232282D02*
X407714D01*
X405020Y251770D02*
X407643D01*
X405020Y248227D02*
X407427D01*
X405020Y228739D02*
X407389D01*
X405020Y230510D02*
X407309D01*
X405020Y249999D02*
X407295D01*
X394390Y196849D02*
X402170D01*
X394390Y191534D02*
X401772D01*
X394390Y189762D02*
X401772D01*
X394390Y187991D02*
X401772D01*
X394390Y186219D02*
X401772D01*
X394390Y184448D02*
X401772D01*
X400173Y182676D02*
X401397D01*
X394390Y195077D02*
X401294D01*
X394390Y193306D02*
X401254D01*
X397946Y280117D02*
X399103D01*
X419239Y131298D02*
X422146D01*
X417124Y129526D02*
X422146D01*
X395621Y127755D02*
X422146D01*
X420238Y133070D02*
X422085D01*
X396385Y125983D02*
X421010D01*
X396343Y124211D02*
X418446D01*
X395466Y122440D02*
X413554D01*
X394879Y129526D02*
X410829D01*
X394390Y131298D02*
X408714D01*
X394390Y133070D02*
X402613D01*
X394390Y134841D02*
X401819D01*
X394390Y150786D02*
X401772D01*
X394390Y149014D02*
X401772D01*
X394390Y147243D02*
X401772D01*
X394390Y145471D02*
X401772D01*
X394390Y143699D02*
X401772D01*
X394390Y141928D02*
X401772D01*
X394390Y140156D02*
X401772D01*
X394390Y138385D02*
X401772D01*
X394390Y136613D02*
X401772D01*
X398924Y152558D02*
X401761D01*
X394656D02*
X396351D01*
X355571Y480314D02*
X429724D01*
X355571Y478542D02*
X429724D01*
X355571Y476770D02*
X429724D01*
X355571Y474999D02*
X429724D01*
X355571Y473227D02*
X429724D01*
X361412Y471455D02*
X429724D01*
X362696Y469684D02*
X429724D01*
X362988Y467912D02*
X429724D01*
X362518Y466140D02*
X429724D01*
X370467Y464369D02*
X429724D01*
X371751Y462597D02*
X429724D01*
X372043Y460825D02*
X429724D01*
X371573Y459054D02*
X429724D01*
X369898Y457282D02*
X429724D01*
X362402Y455510D02*
X429724D01*
X362402Y453739D02*
X429724D01*
X362402Y451967D02*
X429724D01*
X362402Y450196D02*
X429724D01*
X362402Y448424D02*
X429724D01*
X362402Y446652D02*
X429724D01*
X362402Y444881D02*
X429724D01*
X420252Y443109D02*
X429724D01*
X422736Y441337D02*
X429724D01*
X423519Y439566D02*
X429724D01*
X423556Y437794D02*
X429724D01*
X423118Y436022D02*
X429724D01*
X422881Y434251D02*
X429724D01*
X422645Y432479D02*
X429724D01*
X422638Y430707D02*
X429724D01*
X422638Y428936D02*
X429724D01*
X422638Y427164D02*
X429724D01*
X422651Y425392D02*
X429724D01*
X423425Y423621D02*
X429724D01*
X423425Y421849D02*
X429724D01*
X423425Y420077D02*
X429724D01*
X423425Y418306D02*
X429724D01*
X422463Y416534D02*
X429724D01*
X421292Y414762D02*
X429724D01*
X422896Y412991D02*
X429724D01*
X423411Y411219D02*
X429724D01*
X423197Y409448D02*
X429724D01*
X422110Y407676D02*
X429724D01*
X413976Y398818D02*
X429724D01*
X413976Y397046D02*
X429724D01*
X413976Y395274D02*
X429724D01*
X413976Y393503D02*
X429724D01*
X413976Y391731D02*
X429724D01*
X413976Y389959D02*
X429724D01*
X413976Y388188D02*
X429724D01*
X413976Y386416D02*
X429724D01*
X413976Y384644D02*
X429724D01*
X413976Y382873D02*
X429724D01*
X413976Y381101D02*
X429724D01*
X413976Y379329D02*
X429724D01*
X422975Y377558D02*
X429724D01*
X423425Y375786D02*
X429724D01*
X413976Y405904D02*
X429669D01*
X413976Y400589D02*
X429575D01*
X413976Y404133D02*
X428853D01*
X413976Y402361D02*
X428813D01*
X423425Y374014D02*
X428687D01*
X355571Y482085D02*
X427762D01*
X423425Y372243D02*
X426915D01*
X423677Y370471D02*
X425144D01*
X355571Y483857D02*
X424001D01*
X355571Y485629D02*
X421495D01*
X355636Y487400D02*
X419602D01*
X394810Y489172D02*
X418111D01*
X400252Y443109D02*
X417544D01*
X397202Y490944D02*
X416920D01*
X397976Y492715D02*
X415971D01*
X414237Y407676D02*
X415685D01*
X398014Y494487D02*
X415230D01*
X362402Y430707D02*
X415157D01*
X362402Y428936D02*
X415157D01*
X362402Y427164D02*
X415157D01*
X362402Y432479D02*
X415151D01*
X362402Y425392D02*
X415137D01*
X402736Y441337D02*
X415059D01*
X400783Y434251D02*
X414914D01*
X402868Y436022D02*
X414677D01*
X397335Y496259D02*
X414672D01*
X395313Y498030D02*
X414283D01*
X403519Y439566D02*
X414277D01*
X403556Y437794D02*
X414240D01*
X168710Y499802D02*
X414053D01*
X169073Y503345D02*
X414052D01*
X169273Y501573D02*
X413976D01*
X362402Y423621D02*
X407706D01*
X362402Y421849D02*
X406628D01*
X362402Y420077D02*
X406496D01*
X362402Y418306D02*
X406496D01*
X362402Y416534D02*
X406496D01*
X362402Y414762D02*
X406496D01*
X362402Y412991D02*
X406496D01*
X402453Y411219D02*
X406496D01*
X403659Y409448D02*
X406496D01*
X403984Y407676D02*
X406496D01*
X403627Y405904D02*
X406496D01*
X402363Y404133D02*
X406496D01*
X362402Y402361D02*
X406496D01*
X362402Y400589D02*
X406496D01*
X392233Y398818D02*
X406496D01*
X395621Y397046D02*
X406496D01*
X396385Y395274D02*
X406496D01*
X396343Y393503D02*
X406496D01*
X395508Y391731D02*
X406496D01*
X394799Y389959D02*
X406496D01*
X394390Y388188D02*
X406496D01*
X394390Y386416D02*
X406496D01*
X394390Y384644D02*
X406496D01*
X394390Y382873D02*
X406496D01*
X399320Y381101D02*
X406496D01*
X402707Y379329D02*
X406496D01*
X403471Y377558D02*
X406496D01*
X404165Y375786D02*
X406441D01*
X394390Y381101D02*
X399105D01*
X362652Y443109D02*
X397544D01*
X362890Y434251D02*
X397012D01*
X390552Y404133D02*
X396062D01*
X390642Y411219D02*
X395972D01*
X367909Y441337D02*
X395059D01*
X368060Y436022D02*
X394927D01*
X391816Y405904D02*
X394798D01*
X391848Y409448D02*
X394766D01*
X392173Y407676D02*
X394441D01*
X368785Y439566D02*
X394277D01*
X368825Y437794D02*
X394240D01*
X362402Y398818D02*
X392019D01*
X356379Y489172D02*
X391804D01*
X355313Y498030D02*
X391301D01*
X383366Y248227D02*
X391043D01*
X383033Y246455D02*
X391043D01*
X381350Y244684D02*
X391043D01*
X379578Y242912D02*
X391043D01*
X378574Y241140D02*
X391043D01*
X377880Y239369D02*
X391043D01*
X377115Y237597D02*
X391043D01*
X367916Y235825D02*
X391043D01*
X370029Y234054D02*
X391043D01*
X371026Y232282D02*
X391043D01*
X371431Y230510D02*
X391043D01*
X371351Y228739D02*
X391043D01*
X370770Y226967D02*
X391043D01*
X369503Y225196D02*
X391043D01*
X366370Y223424D02*
X390974D01*
X383366Y249999D02*
X390107D01*
X362402Y388188D02*
X389862D01*
X362402Y386416D02*
X389862D01*
X362402Y384644D02*
X389862D01*
X362402Y382873D02*
X389862D01*
X362402Y381101D02*
X389862D01*
X362402Y379329D02*
X389862D01*
X362402Y377558D02*
X389862D01*
X362402Y375786D02*
X389862D01*
X382170Y374014D02*
X389862D01*
X362402Y389959D02*
X389453D01*
X357202Y490944D02*
X389413D01*
X360433Y221652D02*
X389317D01*
X357335Y496259D02*
X389279D01*
X362402Y391731D02*
X388744D01*
X357976Y492715D02*
X388638D01*
X362402Y397046D02*
X388631D01*
X358014Y494487D02*
X388601D01*
X383366Y251770D02*
X388335D01*
X362402Y393503D02*
X387909D01*
X362402Y395274D02*
X387867D01*
X360433Y219881D02*
X387545D01*
X383366Y253542D02*
X386564D01*
X383022Y372243D02*
X385891D01*
X360433Y218109D02*
X385774D01*
X384095Y255314D02*
X384606D01*
X362402Y404133D02*
X384251D01*
X362402Y411219D02*
X384161D01*
X360433Y216337D02*
X384002D01*
X362402Y405904D02*
X382987D01*
X362402Y409448D02*
X382955D01*
X362402Y407676D02*
X382630D01*
X360433Y214566D02*
X382230D01*
X360433Y212794D02*
X380459D01*
X360433Y211022D02*
X379626D01*
X360433Y209251D02*
X379626D01*
X360433Y207479D02*
X379626D01*
X369084Y205707D02*
X379626D01*
X370203Y203936D02*
X379626D01*
X370468Y202164D02*
X379626D01*
X370042Y200392D02*
X379626D01*
X368633Y198621D02*
X379626D01*
X346752Y196849D02*
X379626D01*
X346752Y195077D02*
X379626D01*
X346752Y193306D02*
X379626D01*
X346752Y191534D02*
X379626D01*
X347147Y189762D02*
X379231D01*
X362696Y359841D02*
X378839D01*
X362988Y358070D02*
X378839D01*
X367824Y356298D02*
X378839D01*
X371211Y354526D02*
X378839D01*
X371975Y352755D02*
X378839D01*
X371934Y350983D02*
X378839D01*
X371784Y349211D02*
X378839D01*
X376334Y347440D02*
X378839D01*
X376378Y345668D02*
X378839D01*
X376378Y343896D02*
X378839D01*
X376378Y342125D02*
X378839D01*
X376193Y340353D02*
X378839D01*
X374332Y338581D02*
X378839D01*
X375519Y336810D02*
X378839D01*
X376282Y335038D02*
X378839D01*
X376305Y333266D02*
X378839D01*
X375598Y331495D02*
X378839D01*
X373651Y329723D02*
X378839D01*
X374381Y327951D02*
X378839D01*
X375892Y326180D02*
X378839D01*
X376367Y324408D02*
X378839D01*
X376147Y322636D02*
X378839D01*
X375102Y320865D02*
X378839D01*
X373424Y319093D02*
X378839D01*
X375103Y317322D02*
X378839D01*
X376148Y315550D02*
X378839D01*
X376367Y313778D02*
X378839D01*
X375891Y312007D02*
X378839D01*
X374378Y310235D02*
X378839D01*
X373653Y308463D02*
X378839D01*
X375600Y306692D02*
X378839D01*
X376305Y304920D02*
X378839D01*
X376282Y303148D02*
X378839D01*
X375518Y301377D02*
X378839D01*
X373567Y299605D02*
X378839D01*
X374541Y297833D02*
X378839D01*
X375948Y296062D02*
X378839D01*
X376374Y294290D02*
X378839D01*
X376107Y292518D02*
X378839D01*
X374987Y290747D02*
X378839D01*
X373431Y288975D02*
X378839D01*
X375210Y287203D02*
X378839D01*
X376184Y285432D02*
X378839D01*
X376358Y283660D02*
X378839D01*
X375831Y281888D02*
X378839D01*
X374203Y280117D02*
X378839D01*
X362402Y278345D02*
X378839D01*
X362402Y276573D02*
X378839D01*
X374145Y274802D02*
X378839D01*
X375606Y273030D02*
X378839D01*
X375984Y271259D02*
X378839D01*
X375605Y269487D02*
X378839D01*
X374142Y267715D02*
X378839D01*
X362402Y265944D02*
X378839D01*
X362402Y264172D02*
X378839D01*
X362402Y262400D02*
X378839D01*
X362402Y260629D02*
X378839D01*
X362402Y258857D02*
X378839D01*
X362404Y257085D02*
X378839D01*
X368260Y255314D02*
X378839D01*
X370177Y253542D02*
X378839D01*
X371097Y251770D02*
X378839D01*
X371445Y249999D02*
X378839D01*
X371313Y248227D02*
X378490D01*
X362402Y361613D02*
X378099D01*
X373902Y374014D02*
X376885D01*
X370669Y246455D02*
X376718D01*
X362402Y363385D02*
X376327D01*
X362402Y365156D02*
X374556D01*
X369440Y244684D02*
X373613D01*
X362402Y366928D02*
X372784D01*
X367466Y242912D02*
X370280D01*
X362481Y237597D02*
X370129D01*
X362402Y319093D02*
X369883D01*
X362402Y288975D02*
X369875D01*
X362402Y299605D02*
X369740D01*
X362402Y329723D02*
X369655D01*
X362402Y308463D02*
X369654D01*
X365721Y241140D02*
X369404D01*
X363950Y239369D02*
X369364D01*
X362402Y368699D02*
X369303D01*
X362402Y267715D02*
X369165D01*
X362402Y274802D02*
X369162D01*
X362402Y280117D02*
X369103D01*
X362402Y338581D02*
X368975D01*
X362402Y310235D02*
X368928D01*
X362402Y327951D02*
X368925D01*
X362402Y297833D02*
X368766D01*
X362402Y374014D02*
X368618D01*
X362402Y290747D02*
X368319D01*
X362402Y320865D02*
X368205D01*
X362402Y317322D02*
X368203D01*
X362402Y287203D02*
X368096D01*
X362402Y370471D02*
X367920D01*
X362402Y301377D02*
X367789D01*
X362402Y336810D02*
X367787D01*
X362402Y372243D02*
X367766D01*
X362402Y331495D02*
X367708D01*
X362402Y306692D02*
X367707D01*
X362402Y269487D02*
X367702D01*
X362402Y273030D02*
X367701D01*
X362518Y356298D02*
X367609D01*
X362402Y281888D02*
X367475D01*
X362402Y312007D02*
X367415D01*
X362402Y326180D02*
X367414D01*
X362402Y296062D02*
X367358D01*
X362402Y271259D02*
X367323D01*
X362402Y292518D02*
X367199D01*
X362402Y322636D02*
X367159D01*
X362402Y315550D02*
X367159D01*
X362402Y285432D02*
X367122D01*
X362402Y340353D02*
X367114D01*
X362402Y303148D02*
X367024D01*
X362402Y335038D02*
X367024D01*
X362402Y333266D02*
X367002D01*
X362402Y304920D02*
X367002D01*
X362402Y283660D02*
X366949D01*
X362402Y313778D02*
X366939D01*
X362402Y324408D02*
X366939D01*
X362402Y294290D02*
X366933D01*
X362402Y345668D02*
X366929D01*
X362402Y343896D02*
X366929D01*
X362402Y342125D02*
X366929D01*
X362402Y347440D02*
X366803D01*
X362402Y457282D02*
X365536D01*
X362402Y464369D02*
X364966D01*
X362456Y349211D02*
X364377D01*
X362552Y354526D02*
X364222D01*
X360524Y223424D02*
X363158D01*
X356952Y198621D02*
X362863D01*
X360507Y205707D02*
X362412D01*
X359878Y200392D02*
X361429D01*
X342794Y498030D02*
X351301D01*
X346752Y198621D02*
X351052D01*
X318777Y485629D02*
X351043D01*
X344430Y483857D02*
X351043D01*
X345985Y482085D02*
X351043D01*
X346488Y480314D02*
X351043D01*
X346300Y478542D02*
X351043D01*
X345316Y476770D02*
X351043D01*
X321020Y474999D02*
X351043D01*
X320768Y473227D02*
X351043D01*
X320768Y471455D02*
X351043D01*
X320768Y469684D02*
X351043D01*
X320768Y467912D02*
X351043D01*
X320768Y466140D02*
X351043D01*
X328220Y487400D02*
X350978D01*
X342290Y489172D02*
X350235D01*
X320768Y464369D02*
X350183D01*
X346752Y200392D02*
X349643D01*
X346752Y205707D02*
X349624D01*
X346752Y203936D02*
X349482D01*
X344682Y490944D02*
X349413D01*
X344816Y496259D02*
X349279D01*
X346752Y202164D02*
X349217D01*
X345456Y492715D02*
X348638D01*
X345494Y494487D02*
X348601D01*
X320768Y462597D02*
X348411D01*
X320768Y460825D02*
X346640D01*
X320768Y459054D02*
X343796D01*
X339045Y457282D02*
X340148D01*
X329992Y489172D02*
X339285D01*
X320311Y483857D02*
X339034D01*
X302794Y498030D02*
X338781D01*
X321728Y476770D02*
X338149D01*
X322255Y482085D02*
X337480D01*
X322609Y478542D02*
X337164D01*
X322817Y480314D02*
X336977D01*
X331763Y490944D02*
X336893D01*
X320768Y448424D02*
X333583D01*
X320768Y446652D02*
X333583D01*
X320768Y444881D02*
X333583D01*
X320768Y443109D02*
X333583D01*
X320768Y441337D02*
X333583D01*
X320768Y439566D02*
X333583D01*
X320768Y437794D02*
X333583D01*
X320768Y436022D02*
X333583D01*
X320768Y434251D02*
X333583D01*
X320768Y432479D02*
X333018D01*
X329633Y450196D02*
X333016D01*
X331545Y457282D02*
X332648D01*
X320768Y430707D02*
X331246D01*
X304816Y496259D02*
X331048D01*
X321336Y428936D02*
X329474D01*
X305494Y494487D02*
X328903D01*
X322135Y427164D02*
X327703D01*
X305456Y492715D02*
X327132D01*
X320768Y450196D02*
X327060D01*
X322794Y425392D02*
X325931D01*
X304682Y490944D02*
X325360D01*
X320768Y457282D02*
X325177D01*
X320768Y451967D02*
X324718D01*
X320768Y455510D02*
X324180D01*
X320768Y453739D02*
X324056D01*
X208563Y420077D02*
X319426D01*
X208563Y418306D02*
X318844D01*
X208563Y416534D02*
X317073D01*
X313137Y450196D02*
X316240D01*
X306614Y448424D02*
X316240D01*
X306614Y446652D02*
X316240D01*
X306568Y444881D02*
X316240D01*
X305326Y443109D02*
X316240D01*
X303555Y441337D02*
X316240D01*
X301855Y439566D02*
X316240D01*
X304070Y437794D02*
X316240D01*
X306282Y436022D02*
X316240D01*
X307063Y434251D02*
X316240D01*
X307140Y432479D02*
X316240D01*
X306551Y430707D02*
X316240D01*
X304893Y428936D02*
X315672D01*
X302290Y489172D02*
X315537D01*
X275608Y421849D02*
X315337D01*
X208563Y414762D02*
X315301D01*
X302373Y427164D02*
X314873D01*
X276607Y423621D02*
X314338D01*
X300602Y425392D02*
X314213D01*
X284539Y487400D02*
X313766D01*
X208563Y412991D02*
X313529D01*
X282624Y485629D02*
X311994D01*
X208563Y411219D02*
X311758D01*
X307181Y450196D02*
X310564D01*
X304430Y483857D02*
X310223D01*
X208563Y409448D02*
X309986D01*
X305985Y482085D02*
X309587D01*
X306488Y480314D02*
X309587D01*
X306300Y478542D02*
X309587D01*
X305316Y476770D02*
X309587D01*
X289293Y474999D02*
X309587D01*
X289272Y473227D02*
X309587D01*
X289272Y471455D02*
X309587D01*
X289272Y469684D02*
X309587D01*
X289272Y467912D02*
X309587D01*
X289272Y466140D02*
X309587D01*
X289272Y464369D02*
X309587D01*
X289272Y462597D02*
X309587D01*
X289272Y460825D02*
X309587D01*
X289272Y459054D02*
X309255D01*
X208563Y407676D02*
X308215D01*
X208563Y405904D02*
X306443D01*
X208563Y404133D02*
X304671D01*
X208563Y402361D02*
X302900D01*
X289272Y448424D02*
X302087D01*
X289272Y446652D02*
X302086D01*
X298137Y450196D02*
X301520D01*
X300049Y457282D02*
X301152D01*
X208563Y400589D02*
X301128D01*
X289272Y444881D02*
X300695D01*
X208563Y398818D02*
X299936D01*
X208563Y397046D02*
X299902D01*
X208563Y395274D02*
X299902D01*
X208563Y393503D02*
X299902D01*
X208563Y391731D02*
X299902D01*
X208563Y389959D02*
X299902D01*
X208563Y388188D02*
X299902D01*
X208563Y386416D02*
X299902D01*
X208563Y384644D02*
X299902D01*
X208563Y382873D02*
X299902D01*
X246675Y381101D02*
X299902D01*
X247807Y379329D02*
X299567D01*
X289141Y489172D02*
X299285D01*
X290336Y483857D02*
X299034D01*
X289272Y443109D02*
X298923D01*
X294567Y377558D02*
X298808D01*
X289644Y498030D02*
X298781D01*
X291221Y476770D02*
X298149D01*
X296461Y375786D02*
X297870D01*
X291891Y482085D02*
X297480D01*
X292206Y478542D02*
X297164D01*
X289272Y441337D02*
X297152D01*
X292393Y480314D02*
X296977D01*
X291532Y490944D02*
X296893D01*
X291666Y496259D02*
X296759D01*
X292307Y492715D02*
X296119D01*
X292344Y494487D02*
X296081D01*
X289272Y450196D02*
X295564D01*
X289272Y439566D02*
X295220D01*
X289272Y457282D02*
X293681D01*
X289272Y451967D02*
X293221D01*
X289272Y455510D02*
X292683D01*
X289272Y453739D02*
X292560D01*
X284567Y377558D02*
X289764D01*
X286461Y375786D02*
X287870D01*
X276731Y425392D02*
X286367D01*
X249644Y498030D02*
X285632D01*
X282633Y483857D02*
X284940D01*
X276072Y427164D02*
X284886D01*
X251666Y496259D02*
X283610D01*
X252344Y494487D02*
X282931D01*
X252307Y492715D02*
X282326D01*
X251532Y490944D02*
X281357D01*
X274567Y377558D02*
X279764D01*
X275383Y428936D02*
X279438D01*
X249141Y489172D02*
X278169D01*
X231389Y487400D02*
X278091D01*
X229618Y485629D02*
X278091D01*
X250336Y483857D02*
X278091D01*
X251891Y482085D02*
X278091D01*
X252393Y480314D02*
X278091D01*
X252206Y478542D02*
X278091D01*
X251221Y476770D02*
X278091D01*
X234564Y474999D02*
X278091D01*
X230995Y473227D02*
X278091D01*
X229224Y471455D02*
X278091D01*
X228484Y469684D02*
X278091D01*
X228484Y467912D02*
X278091D01*
X228484Y466140D02*
X278091D01*
X228484Y464369D02*
X278091D01*
X228484Y462597D02*
X278091D01*
X228484Y460825D02*
X278091D01*
X276282Y436022D02*
X278049D01*
X274070Y437794D02*
X277922D01*
X276461Y375786D02*
X277870D01*
X228484Y459054D02*
X277759D01*
X276728Y430707D02*
X277603D01*
X243622Y439566D02*
X276150D01*
X243622Y441337D02*
X274379D01*
X251986Y443109D02*
X272607D01*
X252985Y444881D02*
X270924D01*
X252450Y448424D02*
X270591D01*
X253109Y446652D02*
X270591D01*
X264070Y437794D02*
X270261D01*
X266641Y450196D02*
X270024D01*
X264567Y377558D02*
X269764D01*
X268553Y457282D02*
X269656D01*
X208563Y421849D02*
X269274D01*
X264893Y428936D02*
X269253D01*
X262255Y427164D02*
X268810D01*
X258596Y423621D02*
X268275D01*
X260484Y425392D02*
X268150D01*
X266282Y436022D02*
X268049D01*
X266461Y375786D02*
X267870D01*
X266728Y430707D02*
X267603D01*
X251651Y450196D02*
X264068D01*
X252028Y457282D02*
X262185D01*
X252487Y451967D02*
X261725D01*
X253025Y455510D02*
X261187D01*
X253148Y453739D02*
X261064D01*
X254070Y437794D02*
X260261D01*
X256752Y377558D02*
X259764D01*
X256282Y436022D02*
X258049D01*
X243796Y437794D02*
X250261D01*
X245545Y436022D02*
X248049D01*
X235991Y489172D02*
X246135D01*
X244557Y457282D02*
X245660D01*
X243665Y443109D02*
X245652D01*
X236494Y498030D02*
X245632D01*
X237186Y483857D02*
X244940D01*
X238072Y476770D02*
X244054D01*
X238383Y490944D02*
X243743D01*
X238516Y496259D02*
X243610D01*
X238741Y482085D02*
X243385D01*
X239056Y478542D02*
X243070D01*
X239157Y492715D02*
X242969D01*
X239195Y494487D02*
X242931D01*
X239244Y480314D02*
X242882D01*
X208563Y381101D02*
X240727D01*
X208563Y379329D02*
X239595D01*
X238029Y377558D02*
X238793D01*
X208563Y423621D02*
X238491D01*
X237057Y457282D02*
X238160D01*
X208563Y425392D02*
X236603D01*
X208563Y427164D02*
X234831D01*
X208563Y377558D02*
X234413D01*
X209896Y366928D02*
X233957D01*
X211667Y365156D02*
X233957D01*
X213260Y363385D02*
X233957D01*
X213484Y361613D02*
X233957D01*
X213484Y359841D02*
X233957D01*
X213484Y358070D02*
X233957D01*
X213484Y356298D02*
X233957D01*
X223558Y354526D02*
X233957D01*
X225944Y352755D02*
X233957D01*
X208563Y368699D02*
X233704D01*
X208563Y428936D02*
X233060D01*
X208563Y370471D02*
X232996D01*
X226717Y350983D02*
X232821D01*
X196494Y498030D02*
X232482D01*
X208563Y375786D02*
X232469D01*
X208563Y372243D02*
X232115D01*
X208563Y374014D02*
X231908D01*
X227846Y483857D02*
X231790D01*
X226753Y349211D02*
X231342D01*
X208563Y430707D02*
X231288D01*
X226074Y347440D02*
X231060D01*
X228485Y457282D02*
X230689D01*
X198516Y496259D02*
X230460D01*
X226074Y482085D02*
X230235D01*
X225087Y345668D02*
X229824D01*
X199195Y494487D02*
X229782D01*
X224303Y480314D02*
X229695D01*
X226628Y343896D02*
X229532D01*
X208563Y432479D02*
X229516D01*
X199157Y492715D02*
X229132D01*
X222531Y478542D02*
X228971D01*
X198383Y490944D02*
X228407D01*
X220759Y476770D02*
X228136D01*
X208563Y434251D02*
X227745D01*
X195991Y489172D02*
X226758D01*
X220374Y474999D02*
X226364D01*
X208563Y436022D02*
X225973D01*
X184893Y487400D02*
X224986D01*
X220374Y473227D02*
X224593D01*
X208563Y437794D02*
X224290D01*
X220374Y471455D02*
X223957D01*
X220374Y469684D02*
X223957D01*
X220374Y467912D02*
X223957D01*
X220374Y466140D02*
X223957D01*
X220374Y464369D02*
X223957D01*
X220374Y462597D02*
X223957D01*
X220374Y460825D02*
X223957D01*
X220374Y459054D02*
X223957D01*
X220374Y457282D02*
X223957D01*
X220374Y455510D02*
X223957D01*
X220374Y453739D02*
X223957D01*
X220374Y451967D02*
X223957D01*
X220942Y450196D02*
X223957D01*
X221741Y448424D02*
X223957D01*
X221277Y443109D02*
X223957D01*
X208563Y441337D02*
X223957D01*
X208563Y439566D02*
X223957D01*
X141192Y485629D02*
X223215D01*
X222775Y444881D02*
X223170D01*
X213484Y342125D02*
X221821D01*
X197186Y483857D02*
X221443D01*
X213484Y354526D02*
X220537D01*
X213484Y343896D02*
X220252D01*
X213484Y345668D02*
X219689D01*
X207594Y482085D02*
X219671D01*
X213484Y340353D02*
X219662D01*
X213484Y352755D02*
X218151D01*
X213484Y347440D02*
X218021D01*
X213484Y338581D02*
X217901D01*
X209930Y480314D02*
X217900D01*
X213484Y350983D02*
X217378D01*
X213484Y349211D02*
X217341D01*
X213484Y336810D02*
X217311D01*
X213484Y335038D02*
X216610D01*
X210590Y478542D02*
X216156D01*
X213484Y333266D02*
X215865D01*
X209602Y474999D02*
X215846D01*
X208894Y473227D02*
X215846D01*
X208563Y471455D02*
X215846D01*
X208563Y469684D02*
X215846D01*
X208563Y467912D02*
X215846D01*
X208563Y466140D02*
X215846D01*
X208563Y464369D02*
X215846D01*
X208563Y462597D02*
X215846D01*
X208563Y460825D02*
X215846D01*
X208563Y459054D02*
X215846D01*
X208563Y457282D02*
X215846D01*
X208563Y455510D02*
X215846D01*
X208563Y453739D02*
X215846D01*
X208563Y451967D02*
X215846D01*
X210465Y476770D02*
X215724D01*
X208563Y450196D02*
X215278D01*
X208563Y443109D02*
X214943D01*
X208563Y448424D02*
X214480D01*
X208563Y444881D02*
X213944D01*
X208563Y446652D02*
X213820D01*
X198741Y482085D02*
X205004D01*
X172573Y474999D02*
X198524D01*
X173980Y473227D02*
X198524D01*
X174405Y471455D02*
X198524D01*
X174139Y469684D02*
X198524D01*
X173019Y467912D02*
X198524D01*
X154071Y466140D02*
X198524D01*
X154632Y464369D02*
X198524D01*
X155676Y462597D02*
X198524D01*
X155895Y460825D02*
X198524D01*
X155419Y459054D02*
X198524D01*
X153906Y457282D02*
X198524D01*
X171747Y455510D02*
X198524D01*
X173707Y453739D02*
X198524D01*
X174356Y451967D02*
X198524D01*
X174288Y450196D02*
X198524D01*
X173464Y448424D02*
X198524D01*
X170729Y446652D02*
X198524D01*
X145177Y444881D02*
X198524D01*
X145177Y443109D02*
X198524D01*
X145177Y441337D02*
X198524D01*
X145177Y439566D02*
X198524D01*
X145177Y437794D02*
X198524D01*
X145177Y436022D02*
X198524D01*
X145177Y434251D02*
X198524D01*
X145177Y432479D02*
X198524D01*
X145177Y430707D02*
X198524D01*
X145177Y428936D02*
X198524D01*
X145177Y427164D02*
X198524D01*
X145177Y425392D02*
X198524D01*
X145177Y423621D02*
X198524D01*
X145177Y421849D02*
X198524D01*
X145177Y420077D02*
X198524D01*
X145177Y418306D02*
X198524D01*
X145177Y416534D02*
X198524D01*
X145177Y414762D02*
X198524D01*
X145177Y412991D02*
X198524D01*
X162296Y411219D02*
X198524D01*
X163502Y409448D02*
X198524D01*
X185453Y407676D02*
X198524D01*
X186450Y405904D02*
X198524D01*
X186574Y404133D02*
X198335D01*
X184547Y386416D02*
X196161D01*
X184547Y384644D02*
X196161D01*
X184547Y382873D02*
X196161D01*
X184547Y381101D02*
X196161D01*
X184547Y379329D02*
X196161D01*
X184547Y377558D02*
X196161D01*
X184547Y375786D02*
X196161D01*
X184547Y374014D02*
X196161D01*
X184547Y372243D02*
X196161D01*
X184547Y370471D02*
X196161D01*
X184547Y368699D02*
X196161D01*
X184547Y366928D02*
X196161D01*
X184547Y365156D02*
X196161D01*
X184547Y363385D02*
X196161D01*
X184547Y361613D02*
X196161D01*
X184547Y359841D02*
X196161D01*
X184547Y358070D02*
X196161D01*
X184547Y356298D02*
X196161D01*
X184547Y354526D02*
X196161D01*
X184547Y352755D02*
X196161D01*
X184547Y350983D02*
X196161D01*
X184547Y349211D02*
X196149D01*
X184547Y388188D02*
X195619D01*
X184547Y389959D02*
X194025D01*
X184547Y393503D02*
X193799D01*
X184547Y391731D02*
X193799D01*
X184547Y395274D02*
X193311D01*
X186665Y489172D02*
X192985D01*
X185912Y402361D02*
X192721D01*
X184547Y397046D02*
X192570D01*
X166762Y498030D02*
X192482D01*
X185114Y400589D02*
X191845D01*
X184547Y398818D02*
X191805D01*
X149445Y483857D02*
X191790D01*
X150995Y476770D02*
X190905D01*
X188436Y490944D02*
X190594D01*
X151389Y482085D02*
X190235D01*
X151743Y478542D02*
X189920D01*
X151951Y480314D02*
X189733D01*
X155640Y496259D02*
X187721D01*
X155906Y494487D02*
X185577D01*
X155526Y492715D02*
X183805D01*
X168611Y398818D02*
X180020D01*
X171999Y397046D02*
X180020D01*
X172763Y395274D02*
X180020D01*
X172721Y393503D02*
X180020D01*
X171886Y391731D02*
X180020D01*
X171177Y389959D02*
X180020D01*
X170768Y388188D02*
X180020D01*
X170768Y386416D02*
X180020D01*
X170768Y384644D02*
X180020D01*
X170768Y382873D02*
X180020D01*
X170768Y381101D02*
X180020D01*
X170768Y379329D02*
X180020D01*
X177791Y377558D02*
X179927D01*
X145177Y400589D02*
X179453D01*
X163827Y407676D02*
X179114D01*
X145177Y402361D02*
X178655D01*
X163469Y405904D02*
X178117D01*
X162205Y404133D02*
X177993D01*
X170768Y377558D02*
X174177D01*
X145177Y446652D02*
X168641D01*
X145177Y398818D02*
X168396D01*
X145177Y455510D02*
X167623D01*
X155657Y474999D02*
X166797D01*
X155884Y467912D02*
X166351D01*
X145177Y388188D02*
X166240D01*
X145177Y386416D02*
X166240D01*
X145177Y384644D02*
X166240D01*
X145177Y382873D02*
X166240D01*
X145177Y381101D02*
X166240D01*
X145177Y379329D02*
X166240D01*
X145177Y377558D02*
X166240D01*
X145177Y375786D02*
X166240D01*
X146116Y374014D02*
X166240D01*
X160566Y372243D02*
X166240D01*
X162951Y370471D02*
X166226D01*
X145177Y448424D02*
X165906D01*
X145177Y389959D02*
X165830D01*
X145177Y453739D02*
X165663D01*
X155906Y473227D02*
X165390D01*
X155906Y469684D02*
X165231D01*
X145177Y391731D02*
X165122D01*
X145177Y450196D02*
X165082D01*
X145177Y451967D02*
X165014D01*
X145177Y397046D02*
X165009D01*
X155906Y471455D02*
X164965D01*
X145177Y393503D02*
X164287D01*
X145177Y395274D02*
X164245D01*
X147888Y372243D02*
X157544D01*
X145177Y404133D02*
X155905D01*
X145177Y411219D02*
X155815D01*
X149660Y370471D02*
X155159D01*
X145177Y405904D02*
X154641D01*
X145177Y409448D02*
X154608D01*
X151431Y368699D02*
X154386D01*
X145177Y407676D02*
X154284D01*
X145177Y457282D02*
X148456D01*
X145406Y459054D02*
X146917D01*
X140805Y483857D02*
X145831D01*
X394455Y173818D02*
X401772D01*
X394390Y172046D02*
X401772D01*
X394390Y170274D02*
X401772D01*
X394390Y168503D02*
X401772D01*
X394390Y166731D02*
X401772D01*
X394390Y164959D02*
X401772D01*
X394390Y163188D02*
X401772D01*
X394394Y161416D02*
X401772D01*
X347933Y244684D02*
X358542D01*
X347933Y242912D02*
X356914D01*
X347933Y246455D02*
X356646D01*
X347933Y248227D02*
X355185D01*
X347933Y241140D02*
X355142D01*
X347933Y260629D02*
X354921D01*
X347933Y258857D02*
X354921D01*
X347933Y257085D02*
X354921D01*
X347933Y255314D02*
X354921D01*
X347933Y253542D02*
X354921D01*
X347933Y251770D02*
X354921D01*
X347933Y249999D02*
X354921D01*
X353625Y262400D02*
X354249D01*
X347933Y239369D02*
X353512D01*
X347933Y237597D02*
X352958D01*
X347933Y235825D02*
X352953D01*
X347933Y234054D02*
X352953D01*
X347933Y232282D02*
X352953D01*
X347933Y230510D02*
X352953D01*
X347933Y228739D02*
X352953D01*
X347933Y226967D02*
X352953D01*
X347933Y225196D02*
X352953D01*
X348344Y223424D02*
X352953D01*
X349052Y221652D02*
X352953D01*
X349887Y219881D02*
X352953D01*
X349928Y218109D02*
X352953D01*
X349162Y216337D02*
X352953D01*
X339817Y214566D02*
X352796D01*
X341589Y212794D02*
X348012D01*
X343360Y211022D02*
X347014D01*
X345132Y209251D02*
X346599D01*
X326181Y221652D02*
X342286D01*
X340779Y223424D02*
X342226D01*
X335875Y203936D02*
X342224D01*
X336826Y202164D02*
X342224D01*
X336984Y200392D02*
X342224D01*
X336440Y198621D02*
X342224D01*
X334770Y196849D02*
X342224D01*
X326181Y195077D02*
X342224D01*
X326181Y193306D02*
X342224D01*
X326181Y191534D02*
X342224D01*
X337747Y216337D02*
X342176D01*
X326181Y205707D02*
X342156D01*
X326181Y189762D02*
X341829D01*
X326181Y219881D02*
X341452D01*
X334359Y218109D02*
X341411D01*
X326181Y207479D02*
X340501D01*
X326181Y209251D02*
X338729D01*
X326181Y223424D02*
X337567D01*
X326181Y225196D02*
X334434D01*
X326181Y218109D02*
X334145D01*
X326181Y234054D02*
X333193D01*
X326181Y226967D02*
X333167D01*
X326181Y232282D02*
X332911D01*
X326181Y228739D02*
X332586D01*
X326181Y230510D02*
X332506D01*
X326181Y235825D02*
X331445D01*
X326181Y211022D02*
X330912D01*
X326181Y216337D02*
X330757D01*
X326181Y212794D02*
X330035D01*
X326181Y214566D02*
X329993D01*
X326181Y196849D02*
X329797D01*
X326181Y237597D02*
X329674D01*
X326181Y203936D02*
X328692D01*
X326207Y187991D02*
X328331D01*
X326181Y239369D02*
X328193D01*
X326223Y198621D02*
X328127D01*
X347933Y297833D02*
X354921D01*
X347933Y296062D02*
X354921D01*
X347933Y294290D02*
X354921D01*
X347933Y292518D02*
X354921D01*
X347933Y290747D02*
X354921D01*
X347933Y288975D02*
X354921D01*
X347933Y287203D02*
X354921D01*
X347933Y285432D02*
X354921D01*
X347933Y283660D02*
X354921D01*
X347933Y281888D02*
X354921D01*
X347933Y280117D02*
X354921D01*
X347933Y278345D02*
X354921D01*
X347933Y276573D02*
X354921D01*
X347933Y274802D02*
X354921D01*
X347933Y273030D02*
X354921D01*
X347933Y271259D02*
X354921D01*
X352973Y269487D02*
X354758D01*
X353440Y299605D02*
X354399D01*
X347992D02*
X350497D01*
X351271Y459054D02*
X354921D01*
X349499Y457282D02*
X354921D01*
X348383Y455510D02*
X354921D01*
X347640Y453739D02*
X354921D01*
X346975Y451967D02*
X354921D01*
X344633Y450196D02*
X354921D01*
X338110Y448424D02*
X354921D01*
X338110Y446652D02*
X354921D01*
X338110Y444881D02*
X354921D01*
X338110Y443109D02*
X354921D01*
X338110Y441337D02*
X354921D01*
X338110Y439566D02*
X354921D01*
X338110Y437794D02*
X354921D01*
X338110Y436022D02*
X354921D01*
X338110Y434251D02*
X354921D01*
X338110Y432479D02*
X354921D01*
X337626Y430707D02*
X354921D01*
X335877Y428936D02*
X354921D01*
X334106Y427164D02*
X354921D01*
X332334Y425392D02*
X354921D01*
X330562Y423621D02*
X354921D01*
X328791Y421849D02*
X354921D01*
X327019Y420077D02*
X354921D01*
X325247Y418306D02*
X354921D01*
X323476Y416534D02*
X354921D01*
X321704Y414762D02*
X354921D01*
X319932Y412991D02*
X354921D01*
X318161Y411219D02*
X354921D01*
X316389Y409448D02*
X354921D01*
X324035Y407676D02*
X354921D01*
X325033Y405904D02*
X354921D01*
X325156Y404133D02*
X354921D01*
X342318Y402361D02*
X354921D01*
X343194Y400589D02*
X354921D01*
X343235Y398818D02*
X354921D01*
X342469Y397046D02*
X354921D01*
X341729Y395274D02*
X354921D01*
X341240Y393503D02*
X354921D01*
X341240Y391731D02*
X354921D01*
X341240Y389959D02*
X354921D01*
X341240Y388188D02*
X354921D01*
X341240Y386416D02*
X354921D01*
X341240Y384644D02*
X354921D01*
X341240Y382873D02*
X354921D01*
X341240Y381101D02*
X354921D01*
X341240Y379329D02*
X354921D01*
X341240Y377558D02*
X354921D01*
X341240Y375786D02*
X354921D01*
X341240Y374014D02*
X354921D01*
X341240Y372243D02*
X354921D01*
X341240Y370471D02*
X354921D01*
X341240Y368699D02*
X354921D01*
X341240Y366928D02*
X354921D01*
X341240Y365156D02*
X354921D01*
X341240Y363385D02*
X354921D01*
X341240Y361613D02*
X354921D01*
X341240Y354526D02*
X354921D01*
X341240Y352755D02*
X354921D01*
X341240Y350983D02*
X354921D01*
X341240Y356298D02*
X354805D01*
X353043Y460825D02*
X354786D01*
X341240Y349211D02*
X354723D01*
X341240Y359841D02*
X354627D01*
X341240Y358070D02*
X354335D01*
X341240Y338581D02*
X349290D01*
X341808Y336810D02*
X348102D01*
X341240Y340353D02*
X347429D01*
X342607Y335038D02*
X347339D01*
X343267Y333266D02*
X347310D01*
X341240Y347440D02*
X347288D01*
X341240Y345668D02*
X347244D01*
X341240Y343896D02*
X347244D01*
X341240Y342125D02*
X347244D01*
X338677Y450196D02*
X342060D01*
X323130Y393503D02*
X336713D01*
X323130Y391731D02*
X336713D01*
X335062Y389959D02*
X336394D01*
X323130Y395274D02*
X336224D01*
X324495Y402361D02*
X335635D01*
X323130Y397046D02*
X335484D01*
X323697Y400589D02*
X334759D01*
X323130Y398818D02*
X334718D01*
X323130Y381101D02*
X329626D01*
X323130Y379329D02*
X329626D01*
X323130Y377558D02*
X329626D01*
X323130Y375786D02*
X329626D01*
X323130Y374014D02*
X329626D01*
X323130Y372243D02*
X329626D01*
X323130Y370471D02*
X329626D01*
X323130Y368699D02*
X329626D01*
X323130Y366928D02*
X329626D01*
X323130Y365156D02*
X329626D01*
X323130Y363385D02*
X329626D01*
X323130Y361613D02*
X329626D01*
X323130Y359841D02*
X329626D01*
X323130Y358070D02*
X329626D01*
X323130Y356298D02*
X329626D01*
X323130Y354526D02*
X329626D01*
X323130Y352755D02*
X329626D01*
X323130Y350983D02*
X329626D01*
X323130Y349211D02*
X329626D01*
X323130Y347440D02*
X329626D01*
X323130Y345668D02*
X329626D01*
X323130Y343896D02*
X329626D01*
X323130Y342125D02*
X329626D01*
X323130Y340353D02*
X329626D01*
X323130Y338581D02*
X329626D01*
X323130Y336810D02*
X329626D01*
X323130Y335038D02*
X329626D01*
X323130Y333266D02*
X329626D01*
X323130Y331495D02*
X329626D01*
X323130Y329723D02*
X329625D01*
X323130Y382873D02*
X329059D01*
X323130Y327951D02*
X328979D01*
X323130Y320865D02*
X328917D01*
X323130Y389959D02*
X328721D01*
X323130Y319093D02*
X328490D01*
X323130Y384644D02*
X328261D01*
X323130Y326180D02*
X328138D01*
X323130Y322636D02*
X327785D01*
X323130Y388188D02*
X327723D01*
X323130Y386416D02*
X327600D01*
X323130Y324408D02*
X327577D01*
X323130Y317322D02*
X326718D01*
X322661Y315550D02*
X324975D01*
X320977Y313778D02*
X324508D01*
X319273Y312007D02*
X324508D01*
X317570Y310235D02*
X324508D01*
X315866Y308463D02*
X324508D01*
X314163Y306692D02*
X324504D01*
X313287Y304920D02*
X319690D01*
X313287Y297833D02*
X318701D01*
X313287Y296062D02*
X318701D01*
X313287Y294290D02*
X318701D01*
X313287Y292518D02*
X318701D01*
X313287Y290747D02*
X318701D01*
X313287Y288975D02*
X318701D01*
X313287Y287203D02*
X318701D01*
X313287Y285432D02*
X318701D01*
X313287Y283660D02*
X318701D01*
X315484Y281888D02*
X318701D01*
X305759Y398818D02*
X318602D01*
X304429Y397046D02*
X318602D01*
X304429Y395274D02*
X318602D01*
X304429Y393503D02*
X318602D01*
X304429Y391731D02*
X318602D01*
X304429Y389959D02*
X318602D01*
X304429Y388188D02*
X318602D01*
X304429Y386416D02*
X318602D01*
X304429Y384644D02*
X318602D01*
X304429Y382873D02*
X318602D01*
X304429Y381101D02*
X318602D01*
X304764Y379329D02*
X318602D01*
X305523Y377558D02*
X318602D01*
X306437Y375786D02*
X318602D01*
X307110Y374014D02*
X318602D01*
X307102Y372243D02*
X318602D01*
X306411Y370471D02*
X318602D01*
X304488Y368699D02*
X318602D01*
X301671Y366928D02*
X318602D01*
X303242Y365156D02*
X318602D01*
X305014Y363385D02*
X318602D01*
X306785Y361613D02*
X318602D01*
X308557Y359841D02*
X318602D01*
X310329Y358070D02*
X318602D01*
X312101Y356298D02*
X318602D01*
X313287Y299605D02*
X318584D01*
X316991Y280117D02*
X318442D01*
X313287Y303148D02*
X318406D01*
X316707Y354526D02*
X318314D01*
X313287Y301377D02*
X318115D01*
X307531Y400589D02*
X318035D01*
X314618Y407676D02*
X317697D01*
X309303Y402361D02*
X317237D01*
X312846Y405904D02*
X316699D01*
X311074Y404133D02*
X316576D01*
X291596Y164959D02*
X303561D01*
X211713Y163188D02*
X303525D01*
X211713Y161416D02*
X301756D01*
X292774Y166731D02*
X299999D01*
X255138Y159644D02*
X299985D01*
X256135Y157873D02*
X298213D01*
X292825Y168503D02*
X298193D01*
X256259Y156101D02*
X296441D01*
X255597Y154329D02*
X294670D01*
X253255Y152558D02*
X292898D01*
X211713Y150786D02*
X291126D01*
X211713Y149014D02*
X289355D01*
X211713Y147243D02*
X287583D01*
X211713Y164959D02*
X287145D01*
X211713Y166731D02*
X285967D01*
X211713Y145471D02*
X285811D01*
X211842Y143699D02*
X284040D01*
X212518Y141928D02*
X282268D01*
X270912Y168503D02*
X281218D01*
X277610Y172046D02*
X280517D01*
X212992Y140156D02*
X280497D01*
X275838Y170274D02*
X280365D01*
X212517Y138385D02*
X278725D01*
X262295Y177361D02*
X275380D01*
X263298Y175589D02*
X274750D01*
X248478Y179133D02*
X273039D01*
X244935Y182676D02*
X272735D01*
X246707Y180904D02*
X272446D01*
X243163Y184448D02*
X271406D01*
X242421Y186219D02*
X269925D01*
X211713Y168503D02*
X267671D01*
X263246Y173818D02*
X266486D01*
X211713Y170274D02*
X266027D01*
X262068Y172046D02*
X265770D01*
X242421Y187991D02*
X263468D01*
X242421Y191534D02*
X263355D01*
X242421Y189762D02*
X262992D01*
X242421Y193306D02*
X262403D01*
X242421Y195077D02*
X261262D01*
X242421Y196849D02*
X259514D01*
X242421Y198621D02*
X258375D01*
X242421Y200392D02*
X258366D01*
X211713Y172046D02*
X257361D01*
X250250Y177361D02*
X256779D01*
X247482Y202164D02*
X252912D01*
X249288Y203936D02*
X251106D01*
X211713Y152558D02*
X250682D01*
X211713Y159644D02*
X248799D01*
X211713Y154329D02*
X248340D01*
X211713Y157873D02*
X247802D01*
X211713Y156101D02*
X247678D01*
X211713Y173818D02*
X247390D01*
X211713Y175589D02*
X245619D01*
X211713Y177361D02*
X243847D01*
X211726Y179133D02*
X242075D01*
X213240Y180904D02*
X240304D01*
X215011Y182676D02*
X238532D01*
X231791Y200392D02*
X237894D01*
X230956Y198621D02*
X237894D01*
X229184Y196849D02*
X237894D01*
X227413Y195077D02*
X237894D01*
X225641Y193306D02*
X237894D01*
X223869Y191534D02*
X237894D01*
X222098Y189762D02*
X237894D01*
X220326Y187991D02*
X237894D01*
X218555Y186219D02*
X237894D01*
X216783Y184448D02*
X237894D01*
X209479Y136613D02*
X225940D01*
X208625Y134841D02*
X224208D01*
X209249Y133070D02*
X222476D01*
X209837Y131298D02*
X220743D01*
X209704Y129526D02*
X219011D01*
X295129Y187991D02*
X298622D01*
X293358Y186219D02*
X298622D01*
X292028Y184448D02*
X298622D01*
X292028Y182676D02*
X298622D01*
X292028Y180904D02*
X298622D01*
X292028Y179133D02*
X298622D01*
X296901Y189762D02*
X298374D01*
X297334Y177361D02*
X297942D01*
X293457Y255314D02*
X302461D01*
X295374Y253542D02*
X302461D01*
X296294Y251770D02*
X302461D01*
X296642Y249999D02*
X302461D01*
X296510Y248227D02*
X302461D01*
X295865Y246455D02*
X302461D01*
X294495Y244684D02*
X302461D01*
X286132Y257085D02*
X299560D01*
X267933Y278345D02*
X298917D01*
X267933Y276573D02*
X298917D01*
X268390Y274802D02*
X298917D01*
X269242Y273030D02*
X298917D01*
X269088Y271259D02*
X298917D01*
X280335Y269487D02*
X298917D01*
X281332Y267715D02*
X298917D01*
X281455Y265944D02*
X298917D01*
X280794Y264172D02*
X298906D01*
X268533Y280117D02*
X298864D01*
X278452Y262400D02*
X298315D01*
X286081Y258857D02*
X297917D01*
X284906Y260629D02*
X297660D01*
X284941Y242912D02*
X296327D01*
X293113Y235825D02*
X295573D01*
X284941Y237597D02*
X294868D01*
X284941Y241140D02*
X294867D01*
X284941Y239369D02*
X294488D01*
X289190Y281888D02*
X292149D01*
X285166Y235825D02*
X286809D01*
X279190Y281888D02*
X282149D01*
X259744Y260629D02*
X280448D01*
X269784Y253542D02*
X280413D01*
X270704Y251770D02*
X280413D01*
X271052Y249999D02*
X280413D01*
X270919Y248227D02*
X280413D01*
X270275Y246455D02*
X280413D01*
X278221Y244684D02*
X280181D01*
X267866Y255314D02*
X279947D01*
X259744Y258857D02*
X279273D01*
X259744Y257085D02*
X279223D01*
X268905Y244684D02*
X276110D01*
X259744Y262400D02*
X275879D01*
X267705Y269487D02*
X273996D01*
X259744Y264172D02*
X273536D01*
X268480Y242912D02*
X273385D01*
X259744Y267715D02*
X272998D01*
X259744Y265944D02*
X272875D01*
X270251Y241140D02*
X272562D01*
X269273Y281888D02*
X272149D01*
X259744Y269487D02*
X263791D01*
X260484Y276573D02*
X263405D01*
X259744Y274802D02*
X263106D01*
X259744Y271259D02*
X262408D01*
X259744Y273030D02*
X262254D01*
X252122Y327951D02*
X305786D01*
X252300Y329723D02*
X304713D01*
X299465Y317322D02*
X304429D01*
X300959Y315550D02*
X304429D01*
X302453Y313778D02*
X304365D01*
X297971Y319093D02*
X303862D01*
X294208Y326180D02*
X303524D01*
X297080Y320865D02*
X303064D01*
X275857Y331495D02*
X302942D01*
X296544Y324408D02*
X302526D01*
X297204Y322636D02*
X302403D01*
X278944Y333266D02*
X301170D01*
X279820Y335038D02*
X299398D01*
X279932Y336810D02*
X297627D01*
X279344Y338581D02*
X295855D01*
X262894Y315550D02*
X294710D01*
X277582Y340353D02*
X294083D01*
X262920Y317322D02*
X293543D01*
X288484Y303148D02*
X293405D01*
X288484Y304920D02*
X293405D01*
X288484Y301377D02*
X293381D01*
X288484Y306692D02*
X292760D01*
X262894Y313778D02*
X292695D01*
X288484Y299605D02*
X292656D01*
X259722Y342125D02*
X292312D01*
X288406Y308463D02*
X291920D01*
X289479Y297833D02*
X291860D01*
X278162Y326180D02*
X291618D01*
X287098Y312007D02*
X291563D01*
X288101Y310235D02*
X291357D01*
X257573Y343896D02*
X290540D01*
X278597Y319093D02*
X289747D01*
X279544Y324408D02*
X289283D01*
X277197Y345668D02*
X288768D01*
X279701Y320865D02*
X288747D01*
X279965Y322636D02*
X288623D01*
X279223Y347440D02*
X286997D01*
X279903Y349211D02*
X285225D01*
X263894Y304920D02*
X283957D01*
X263158Y303148D02*
X283957D01*
X262894Y301377D02*
X283957D01*
X276884Y299605D02*
X283839D01*
X279866Y350983D02*
X283453D01*
X264151Y306692D02*
X282420D01*
X262885Y312007D02*
X282194D01*
X279479Y297833D02*
X281860D01*
X279222Y352755D02*
X281682D01*
X263436Y308463D02*
X281242D01*
X262125Y310235D02*
X281191D01*
X276707Y354526D02*
X279377D01*
X264378Y356298D02*
X278414D01*
X264311Y358070D02*
X276642D01*
X264311Y359841D02*
X274871D01*
X262708Y331495D02*
X274536D01*
X266884Y299605D02*
X274455D01*
X265121Y354526D02*
X273686D01*
X264048Y345668D02*
X273196D01*
X264311Y361613D02*
X273099D01*
X264433Y340353D02*
X272811D01*
X250641Y326180D02*
X272232D01*
X269479Y297833D02*
X271860D01*
X262879Y319093D02*
X271797D01*
X265795Y333266D02*
X271450D01*
X264311Y363385D02*
X271327D01*
X265944Y352755D02*
X271301D01*
X266074Y347440D02*
X271170D01*
X266194Y338581D02*
X271050D01*
X248869Y324408D02*
X270850D01*
X262003Y320865D02*
X270693D01*
X266670Y335038D02*
X270574D01*
X266717Y350983D02*
X270528D01*
X266753Y349211D02*
X270491D01*
X266782Y336810D02*
X270462D01*
X247098Y322636D02*
X270429D01*
X264311Y365156D02*
X269980D01*
X264311Y366928D02*
X269790D01*
X264577Y368699D02*
X268921D01*
X266422Y370471D02*
X267909D01*
X263390Y299605D02*
X264455D01*
X253153Y331495D02*
X261387D01*
X255801Y345668D02*
X260047D01*
X254429Y366928D02*
X259783D01*
X254429Y365156D02*
X259783D01*
X254429Y363385D02*
X259783D01*
X254429Y361613D02*
X259783D01*
X254429Y359841D02*
X259783D01*
X254429Y358070D02*
X259783D01*
X254429Y356298D02*
X259717D01*
X256715Y368699D02*
X259634D01*
X254429Y354526D02*
X258974D01*
X254105Y333266D02*
X258300D01*
X254429Y352755D02*
X258151D01*
X254429Y347440D02*
X258021D01*
X241634Y313778D02*
X257622D01*
X254313Y335038D02*
X257424D01*
X254429Y350983D02*
X257378D01*
X254429Y349211D02*
X257341D01*
X241634Y312007D02*
X257230D01*
X253751Y336810D02*
X256853D01*
X251807Y338581D02*
X256128D01*
X241634Y310235D02*
X255459D01*
X245326Y320865D02*
X255320D01*
X241634Y315550D02*
X255169D01*
X236039Y340353D02*
X254713D01*
X243555Y319093D02*
X254444D01*
X241806Y317322D02*
X254403D01*
X241634Y308463D02*
X253687D01*
X237715Y342125D02*
X252942D01*
X241634Y306692D02*
X251915D01*
X238184Y343896D02*
X250370D01*
X241634Y304920D02*
X250144D01*
X247330Y352755D02*
X249902D01*
X244987Y350983D02*
X249902D01*
X237452Y349211D02*
X249902D01*
X236690Y347440D02*
X249902D01*
X237893Y345668D02*
X249902D01*
X248030Y354526D02*
X249804D01*
X241634Y303148D02*
X248664D01*
X241634Y301377D02*
X248524D01*
X231875Y338581D02*
X248193D01*
X246884Y299605D02*
X248071D01*
X232185Y329723D02*
X247517D01*
X232185Y331495D02*
X246847D01*
X232185Y336810D02*
X246249D01*
X232185Y327951D02*
X246010D01*
X232185Y333266D02*
X245895D01*
X232185Y335038D02*
X245687D01*
X241669Y299605D02*
X244455D01*
X232185Y326180D02*
X244238D01*
X232185Y324408D02*
X242466D01*
X238476Y350983D02*
X242414D01*
X232247Y322636D02*
X240695D01*
X238975Y352755D02*
X239962D01*
X232871Y320865D02*
X238923D01*
X233459Y319093D02*
X237331D01*
X233095Y317322D02*
X237106D01*
X231082Y315550D02*
X237106D01*
X221555Y313778D02*
X237106D01*
X221555Y312007D02*
X237106D01*
X221555Y310235D02*
X237106D01*
X221555Y308463D02*
X237106D01*
X221555Y306692D02*
X237106D01*
X226886Y304920D02*
X237106D01*
X229221Y303148D02*
X237106D01*
X229881Y301377D02*
X237106D01*
X230008Y299605D02*
X237106D01*
X235059Y297833D02*
X237070D01*
X221555Y315550D02*
X228760D01*
X225475Y324408D02*
X227657D01*
X222145Y322636D02*
X227595D01*
X221555Y320865D02*
X226971D01*
X221555Y317322D02*
X226748D01*
X221555Y319093D02*
X226383D01*
X221580Y304920D02*
X224295D01*
X234721Y262400D02*
X237028D01*
X235229Y264172D02*
X236993D01*
X228355Y262400D02*
X231600D01*
X229581Y260629D02*
X231305D01*
X233176Y290747D02*
X237106D01*
X227854Y288975D02*
X237106D01*
X227854Y287203D02*
X237106D01*
X227854Y285432D02*
X237106D01*
X227854Y283660D02*
X237106D01*
X227854Y281888D02*
X237106D01*
X227854Y280117D02*
X237106D01*
X227854Y278345D02*
X237106D01*
X227854Y276573D02*
X237106D01*
X227854Y274802D02*
X237106D01*
X227854Y273030D02*
X237106D01*
X231997Y271259D02*
X237106D01*
X235389Y269487D02*
X236855D01*
X235629Y292518D02*
X236616D01*
X227855Y271259D02*
X231782D01*
X227879Y290747D02*
X230603D01*
X245965Y366928D02*
X249902D01*
X245965Y365156D02*
X249902D01*
X245965Y363385D02*
X249902D01*
X245965Y361613D02*
X249902D01*
X246297Y359841D02*
X249902D01*
X247005Y358070D02*
X249902D01*
X247868Y356298D02*
X249902D01*
X246285Y368699D02*
X247613D01*
X239463Y428936D02*
X248966D01*
X237691Y430707D02*
X244589D01*
X235919Y432479D02*
X242686D01*
X234148Y434251D02*
X240914D01*
X232376Y436022D02*
X239320D01*
X228484Y448424D02*
X239094D01*
X228484Y446652D02*
X239094D01*
X228484Y444881D02*
X239094D01*
X228484Y443109D02*
X239094D01*
X228484Y441337D02*
X239094D01*
X228833Y439566D02*
X239094D01*
X230604Y437794D02*
X239094D01*
X235145Y450196D02*
X238527D01*
X228484D02*
X232572D01*
X228715Y451967D02*
X230222D01*
X188163Y288975D02*
X196161D01*
X177854Y287203D02*
X196161D01*
X177854Y285432D02*
X196161D01*
X177854Y283660D02*
X196161D01*
X177854Y281888D02*
X196161D01*
X177854Y280117D02*
X196161D01*
X177854Y278345D02*
X196161D01*
X187466Y276573D02*
X196161D01*
X189176Y274802D02*
X196161D01*
X189736Y273030D02*
X196161D01*
X189592Y271259D02*
X196161D01*
X188662Y269487D02*
X196161D01*
X177854Y267715D02*
X196161D01*
X177854Y265944D02*
X196161D01*
X177854Y264172D02*
X196161D01*
X177854Y262400D02*
X196161D01*
X177854Y260629D02*
X196161D01*
X177854Y258857D02*
X196161D01*
X177854Y257085D02*
X196161D01*
X193063Y255314D02*
X196161D01*
X194200Y290747D02*
X195895D01*
X189426D02*
X191627D01*
X177854Y255314D02*
X186071D01*
X177854Y253542D02*
X184153D01*
X177854Y251770D02*
X183234D01*
X177854Y249999D02*
X182886D01*
X178049Y310235D02*
X182874D01*
X177854Y308463D02*
X182874D01*
X177854Y306692D02*
X182874D01*
X177854Y304920D02*
X182874D01*
X177854Y303148D02*
X182874D01*
X177854Y301377D02*
X182874D01*
X177854Y299605D02*
X182874D01*
X177854Y297833D02*
X182874D01*
X177854Y276573D02*
X182613D01*
X177854Y288975D02*
X181916D01*
X177854Y296062D02*
X181913D01*
X177854Y269487D02*
X181417D01*
X177854Y274802D02*
X180903D01*
X177854Y290747D02*
X180660D01*
X177854Y294290D02*
X180659D01*
X177854Y271259D02*
X180486D01*
X177854Y273030D02*
X180343D01*
X177854Y292518D02*
X180315D01*
X190354Y308463D02*
X196161D01*
X190354Y306692D02*
X196161D01*
X190354Y304920D02*
X196161D01*
X190354Y303148D02*
X196161D01*
X190354Y301377D02*
X196161D01*
X190420Y299605D02*
X196158D01*
X139823Y147243D02*
X146161D01*
X139823Y145471D02*
X146161D01*
X139823Y143699D02*
X146161D01*
X139823Y141928D02*
X146161D01*
X139823Y140156D02*
X146161D01*
X139823Y138385D02*
X146161D01*
X139823Y136613D02*
X146161D01*
X139823Y134841D02*
X146161D01*
X139681Y133070D02*
X146161D01*
X138200Y131298D02*
X146161D01*
X136470Y129526D02*
X146161D01*
X140392Y127755D02*
X141852D01*
X138798Y267715D02*
X151280D01*
X125886Y265944D02*
X151280D01*
X125886Y264172D02*
X151280D01*
X125886Y262400D02*
X151280D01*
X126061Y260629D02*
X151280D01*
X126769Y258857D02*
X151280D01*
X127657Y257085D02*
X151280D01*
X143850Y255314D02*
X151280D01*
X145768Y253542D02*
X151280D01*
X146688Y251770D02*
X151280D01*
X147036Y249999D02*
X151280D01*
X146904Y248227D02*
X151280D01*
X146259Y246455D02*
X151280D01*
X144889Y244684D02*
X151280D01*
X131545Y242912D02*
X151280D01*
X133739Y241140D02*
X151280D01*
X135435Y239369D02*
X151280D01*
X136784Y237597D02*
X151280D01*
X143506Y235825D02*
X151280D01*
X145619Y234054D02*
X151280D01*
X146617Y232282D02*
X151280D01*
X147021Y230510D02*
X151280D01*
X146942Y228739D02*
X151280D01*
X146360Y226967D02*
X151280D01*
X145094Y225196D02*
X151280D01*
X143594Y223424D02*
X151280D01*
X144969Y221652D02*
X151280D01*
X145629Y219881D02*
X151280D01*
X145505Y218109D02*
X151280D01*
X144641Y216337D02*
X151280D01*
X143933Y214566D02*
X151280D01*
X143602Y212794D02*
X151280D01*
X143602Y211022D02*
X151280D01*
X143602Y209251D02*
X151280D01*
X143602Y207479D02*
X151280D01*
X143602Y205707D02*
X151280D01*
X143602Y203936D02*
X151280D01*
X143602Y202164D02*
X151280D01*
X143602Y200392D02*
X151280D01*
X143602Y198621D02*
X151280D01*
X143602Y196849D02*
X151280D01*
X143602Y195077D02*
X151280D01*
X143602Y193306D02*
X151202D01*
X139932Y269487D02*
X150146D01*
X140140Y271259D02*
X148375D01*
X139578Y273030D02*
X146603D01*
X143638Y191534D02*
X145650D01*
X137634Y274802D02*
X144831D01*
X125886Y276573D02*
X143060D01*
X125886Y278345D02*
X141288D01*
X125886Y280117D02*
X139516D01*
X125886Y281888D02*
X137745D01*
X127948Y255314D02*
X136858D01*
X125886Y283660D02*
X135973D01*
X128491Y244684D02*
X135820D01*
X127479Y253542D02*
X134941D01*
X124675Y246455D02*
X134449D01*
X125886Y285432D02*
X134201D01*
X125803Y251770D02*
X134021D01*
X125886Y274802D02*
X134020D01*
X124606Y248227D02*
X133805D01*
X124606Y249999D02*
X133673D01*
X125886Y267715D02*
X132856D01*
X125886Y287203D02*
X132430D01*
X125886Y273030D02*
X132075D01*
X125886Y269487D02*
X131722D01*
X125886Y271259D02*
X131514D01*
X125886Y288975D02*
X130658D01*
X125886Y290747D02*
X128886D01*
X124606Y182676D02*
X129331D01*
X124606Y180904D02*
X129331D01*
X124606Y179133D02*
X129331D01*
X124606Y177361D02*
X129331D01*
X124606Y175589D02*
X129331D01*
X124606Y173818D02*
X129331D01*
X124606Y172046D02*
X129331D01*
X124606Y170274D02*
X129331D01*
X124606Y168503D02*
X129331D01*
X124606Y166731D02*
X129331D01*
X124606Y164959D02*
X129331D01*
X124606Y163188D02*
X129331D01*
X124606Y161416D02*
X129331D01*
X124606Y159644D02*
X129331D01*
X124606Y157873D02*
X129331D01*
X124606Y156101D02*
X129331D01*
X124606Y154329D02*
X129331D01*
X124606Y152558D02*
X129331D01*
X124606Y150786D02*
X129331D01*
X124606Y149014D02*
X129331D01*
X124606Y147243D02*
X129331D01*
X124606Y145471D02*
X129331D01*
X124606Y143699D02*
X129331D01*
X124606Y141928D02*
X129331D01*
X124606Y140156D02*
X128478D01*
X125302Y184448D02*
X125879D01*
X145177Y466140D02*
X148291D01*
X145177Y464369D02*
X147731D01*
G54D29*
X100000Y100000D02*
X454331D01*
Y521260*
X100000*
Y100000*
G74*
X0Y0D02*
M02*
