*
*
G04 PADS VX.2.4 Build Number: 11282995 generated Gerber (RS-274-X) file*
G04 PC Version=2.1*
*
%IN "gs100Fnd.pcb"*%
*
%MOIN*%
*
%FSLAX35Y35*%
*
*
*
*
G04 PC Standard Apertures*
*
*
G04 Thermal Relief Aperture macro.*
%AMTER*
1,1,$1,0,0*
1,0,$1-$2,0,0*
21,0,$3,$4,0,0,45*
21,0,$3,$4,0,0,135*
%
*
*
G04 Annular Aperture macro.*
%AMANN*
1,1,$1,0,0*
1,0,$2,0,0*
%
*
*
G04 Odd Aperture macro.*
%AMODD*
1,1,$1,0,0*
1,0,$1-0.005,0,0*
%
*
*
G04 PC Custom Aperture Macros*
*
*
*
*
*
*
G04 PC Aperture Table*
*
%ADD010C,0.001*%
%ADD029C,0.01*%
*
*
*
*
G04 PC Circuitry*
G04 Layer Name gs100Fnd.pcb - circuitry*
%LPD*%
*
*
G04 PC Custom Flashes*
G04 Layer Name gs100Fnd.pcb - flashes*
%LPD*%
*
*
G04 PC Circuitry*
G04 Layer Name gs100Fnd.pcb - circuitry*
%LPD*%
*
G54D10*
G54D29*
G01X116235Y226534D02*
X124235D01*
X120235Y222534D02*
Y230534D01*
X431196Y226534D02*
X439196D01*
X435196Y222534D02*
Y230534D01*
X241669Y281039D02*
X249669Y289039D01*
X241669D02*
X249669Y281039D01*
X241669Y291039D02*
X249669Y299039D01*
X241669D02*
X249669Y291039D01*
X251669Y281039D02*
X259669Y289039D01*
X251669D02*
X259669Y281039D01*
X251669Y291039D02*
X259669Y299039D01*
X251669D02*
X259669Y291039D01*
X261669Y281039D02*
X269669Y289039D01*
X261669D02*
X269669Y281039D01*
X261669Y291039D02*
X269669Y299039D01*
X261669D02*
X269669Y291039D01*
X271669Y281039D02*
X279669Y289039D01*
X271669D02*
X279669Y281039D01*
X271669Y291039D02*
X279669Y299039D01*
X271669D02*
X279669Y291039D01*
X281669Y281039D02*
X289669Y289039D01*
X281669D02*
X289669Y281039D01*
X281669Y291039D02*
X289669Y299039D01*
X281669D02*
X289669Y291039D01*
X291669Y281039D02*
X299669Y289039D01*
X291669D02*
X299669Y281039D01*
X291669Y291039D02*
X299669Y299039D01*
X291669D02*
X299669Y291039D01*
X301669Y281039D02*
X309669Y289039D01*
X301669D02*
X309669Y281039D01*
X301669Y291039D02*
X309669Y299039D01*
X301669D02*
X309669Y291039D01*
X361748Y198362D02*
X369748D01*
Y206362*
X361748*
Y198362*
X365748Y202362D02*
Y206362D01*
X361748Y168362D02*
X369748D01*
Y176362*
X361748*
Y168362*
X365748Y172362D02*
Y176362D01*
X139307Y340094D02*
X147307D01*
Y348094*
X139307*
Y340094*
X143307Y344094D02*
Y348094D01*
X139307Y330094D02*
X147307D01*
Y338094*
X139307*
Y330094*
X143307Y334094D02*
Y338094D01*
X139307Y320094D02*
X147307D01*
Y328094*
X139307*
Y320094*
X143307Y324094D02*
Y328094D01*
X139307Y310094D02*
X147307D01*
Y318094*
X139307*
Y310094*
X143307Y314094D02*
Y318094D01*
X139307Y300094D02*
X147307D01*
Y308094*
X139307*
Y300094*
X143307Y304094D02*
Y308094D01*
X140354Y245606D02*
X144354Y249606D01*
X140354Y253606*
X136354Y249606*
X140354Y245606*
Y249606D02*
Y253606D01*
X189567Y245606D02*
X193567Y249606D01*
X189567Y253606*
X185567Y249606*
X189567Y245606*
Y249606D02*
Y253606D01*
Y225921D02*
X193567Y229921D01*
X189567Y233921*
X185567Y229921*
X189567Y225921*
Y229921D02*
Y233921D01*
X140354Y225921D02*
X144354Y229921D01*
X140354Y233921*
X136354Y229921*
X140354Y225921*
Y229921D02*
Y233921D01*
X158992Y340094D02*
X166992D01*
Y348094*
X158992*
Y340094*
X162992Y344094D02*
Y348094D01*
X158992Y330094D02*
X166992D01*
Y338094*
X158992*
Y330094*
X162992Y334094D02*
Y338094D01*
X158992Y320094D02*
X166992D01*
Y328094*
X158992*
Y320094*
X162992Y324094D02*
Y328094D01*
X158992Y310094D02*
X166992D01*
Y318094*
X158992*
Y310094*
X162992Y314094D02*
Y318094D01*
X188992Y310094D02*
X196992D01*
Y318094*
X188992*
Y310094*
X192992Y314094D02*
Y318094D01*
X188992Y320094D02*
X196992D01*
Y328094*
X188992*
Y320094*
X192992Y324094D02*
Y328094D01*
X188992Y330094D02*
X196992D01*
Y338094*
X188992*
Y330094*
X192992Y334094D02*
Y338094D01*
X188992Y340094D02*
X196992D01*
Y348094*
X188992*
Y340094*
X192992Y344094D02*
Y348094D01*
X215157Y245606D02*
X219157Y249606D01*
X215157Y253606*
X211157Y249606*
X215157Y245606*
Y249606D02*
Y253606D01*
X264370Y245606D02*
X268370Y249606D01*
X264370Y253606*
X260370Y249606*
X264370Y245606*
Y249606D02*
Y253606D01*
Y225921D02*
X268370Y229921D01*
X264370Y233921*
X260370Y229921*
X264370Y225921*
Y229921D02*
Y233921D01*
X215157Y225921D02*
X219157Y229921D01*
X215157Y233921*
X211157Y229921*
X215157Y225921*
Y229921D02*
Y233921D01*
X347969Y340094D02*
X355969D01*
Y348094*
X347969*
Y340094*
X351969Y344094D02*
Y348094D01*
X347969Y330094D02*
X355969D01*
Y338094*
X347969*
Y330094*
X351969Y334094D02*
Y338094D01*
X347969Y320094D02*
X355969D01*
Y328094*
X347969*
Y320094*
X351969Y324094D02*
Y328094D01*
X347969Y310094D02*
X355969D01*
Y318094*
X347969*
Y310094*
X351969Y314094D02*
Y318094D01*
X347969Y300094D02*
X355969D01*
Y308094*
X347969*
Y300094*
X351969Y304094D02*
Y308094D01*
X414898Y416866D02*
X422898Y424866D01*
X414898D02*
X422898Y416866D01*
X414898Y406866D02*
X422898Y414866D01*
X414898D02*
X422898Y406866D01*
X414898Y369622D02*
X422898Y377622D01*
X414898D02*
X422898Y369622D01*
X414898Y359622D02*
X422898Y367622D01*
X414898D02*
X422898Y359622D01*
X289961Y245606D02*
X293961Y249606D01*
X289961Y253606*
X285961Y249606*
X289961Y245606*
Y249606D02*
Y253606D01*
X339173Y245606D02*
X343173Y249606D01*
X339173Y253606*
X335173Y249606*
X339173Y245606*
Y249606D02*
Y253606D01*
Y225921D02*
X343173Y229921D01*
X339173Y233921*
X335173Y229921*
X339173Y225921*
Y229921D02*
Y233921D01*
X289961Y225921D02*
X293961Y229921D01*
X289961Y233921*
X285961Y229921*
X289961Y225921*
Y229921D02*
Y233921D01*
X364764Y245606D02*
X368764Y249606D01*
X364764Y253606*
X360764Y249606*
X364764Y245606*
Y249606D02*
Y253606D01*
X413976Y245606D02*
X417976Y249606D01*
X413976Y253606*
X409976Y249606*
X413976Y245606*
Y249606D02*
Y253606D01*
Y225921D02*
X417976Y229921D01*
X413976Y233921*
X409976Y229921*
X413976Y225921*
Y229921D02*
Y233921D01*
X364764Y225921D02*
X368764Y229921D01*
X364764Y233921*
X360764Y229921*
X364764Y225921*
Y229921D02*
Y233921D01*
X383402Y363717D02*
X391402Y371717D01*
X383402D02*
X391402Y363717D01*
X383402Y403717D02*
X391402Y411717D01*
X383402D02*
X391402Y403717D01*
X395213Y363717D02*
X403213Y371717D01*
X395213D02*
X403213Y363717D01*
X395213Y403717D02*
X403213Y411717D01*
X395213D02*
X403213Y403717D01*
X349937Y198362D02*
X357937D01*
Y206362*
X349937*
Y198362*
X353937Y202362D02*
Y206362D01*
X349937Y168362D02*
X357937D01*
Y176362*
X349937*
Y168362*
X353937Y172362D02*
Y176362D01*
X309504Y145213D02*
X317504D01*
Y153213*
X309504*
Y145213*
X313504Y149213D02*
Y153213D01*
X319504Y145213D02*
X327504D01*
Y153213*
X319504*
Y145213*
X323504Y149213D02*
Y153213D01*
X147181Y467142D02*
X155181D01*
Y475142*
X147181*
Y467142*
X151181Y471142D02*
Y475142D01*
X147181Y457142D02*
X155181D01*
Y465142*
X147181*
Y457142*
X151181Y461142D02*
Y465142D01*
X300724Y127496D02*
X308724D01*
Y135496*
X300724*
Y127496*
X304724Y131496D02*
Y135496D01*
X320724Y127496D02*
X328724D01*
Y135496*
X320724*
Y127496*
X324724Y131496D02*
Y135496D01*
X165685Y467260D02*
X173685D01*
Y475260*
X165685*
Y467260*
X169685Y471260D02*
Y475260D01*
X165685Y447260D02*
X173685D01*
Y455260*
X165685*
Y447260*
X169685Y451260D02*
Y455260D01*
X412929Y164898D02*
X420929Y172898D01*
X412929D02*
X420929Y164898D01*
X372929D02*
X380929Y172898D01*
X372929D02*
X380929Y164898D01*
X373559Y153087D02*
X381559Y161087D01*
X373559D02*
X381559Y153087D01*
X413559D02*
X421559Y161087D01*
X413559D02*
X421559Y153087D01*
X367654Y340094D02*
X375654D01*
Y348094*
X367654*
Y340094*
X371654Y344094D02*
Y348094D01*
X367653Y330094D02*
X375653D01*
Y338094*
X367653*
Y330094*
X371653Y334094D02*
Y338094D01*
X367653Y320094D02*
X375653D01*
Y328094*
X367653*
Y320094*
X371653Y324094D02*
Y328094D01*
X367653Y310094D02*
X375653D01*
Y318094*
X367653*
Y310094*
X371653Y314094D02*
Y318094D01*
X367653Y300094D02*
X375653D01*
Y308094*
X367653*
Y300094*
X371653Y304094D02*
Y308094D01*
X367653Y290094D02*
X375653D01*
Y298094*
X367653*
Y290094*
X371653Y294094D02*
Y298094D01*
X367653Y280094D02*
X375653D01*
Y288094*
X367653*
Y280094*
X371653Y284094D02*
Y288094D01*
X397653Y280094D02*
X405653D01*
Y288094*
X397653*
Y280094*
X401653Y284094D02*
Y288094D01*
X397653Y290094D02*
X405653D01*
Y298094*
X397653*
Y290094*
X401653Y294094D02*
Y298094D01*
X397653Y300094D02*
X405653D01*
Y308094*
X397653*
Y300094*
X401653Y304094D02*
Y308094D01*
X397653Y310094D02*
X405653D01*
Y318094*
X397653*
Y310094*
X401653Y314094D02*
Y318094D01*
X397653Y320094D02*
X405653D01*
Y328094*
X397653*
Y320094*
X401653Y324094D02*
Y328094D01*
X397653Y330094D02*
X405653D01*
Y338094*
X397653*
Y330094*
X401653Y334094D02*
Y338094D01*
X397653Y340094D02*
X405653D01*
Y348094*
X397653*
Y340094*
X401653Y344094D02*
Y348094D01*
X373559Y174740D02*
X381559D01*
Y182740*
X373559*
Y174740*
X377559Y178740D02*
Y182740D01*
X393559Y174740D02*
X401559D01*
Y182740*
X393559*
Y174740*
X397559Y178740D02*
Y182740D01*
X364764Y131433D02*
X368764Y135433D01*
X364764Y139433*
X360764Y135433*
X364764Y131433*
Y135433D02*
Y139433D01*
X413976Y131433D02*
X417976Y135433D01*
X413976Y139433*
X409976Y135433*
X413976Y131433*
Y135433D02*
Y139433D01*
Y111748D02*
X417976Y115748D01*
X413976Y119748*
X409976Y115748*
X413976Y111748*
Y115748D02*
Y119748D01*
X364764Y111748D02*
X368764Y115748D01*
X364764Y119748*
X360764Y115748*
X364764Y111748*
Y115748D02*
Y119748D01*
X131433Y416866D02*
X139433Y424866D01*
X131433D02*
X139433Y416866D01*
X131433Y406866D02*
X139433Y414866D01*
X131433D02*
X139433Y406866D01*
X155055Y363717D02*
X163055Y371717D01*
X155055D02*
X163055Y363717D01*
X155055Y403717D02*
X163055Y411717D01*
X155055D02*
X163055Y403717D01*
X347969Y149150D02*
X355969Y157150D01*
X347969D02*
X355969Y149150D01*
X347969Y109150D02*
X355969Y117150D01*
X347969D02*
X355969Y109150D01*
X337732Y126709D02*
X345732D01*
Y134709*
X337732*
Y126709*
X341732Y130709D02*
Y134709D01*
X337732Y146709D02*
X345732D01*
Y154709*
X337732*
Y146709*
X341732Y150709D02*
Y154709D01*
X248165Y369150D02*
X256165Y377150D01*
X248165D02*
X256165Y369150D01*
X258165D02*
X266165Y377150D01*
X258165D02*
X266165Y369150D01*
X268165D02*
X276165Y377150D01*
X268165D02*
X276165Y369150D01*
X278165D02*
X286165Y377150D01*
X278165D02*
X286165Y369150D01*
X288165D02*
X296165Y377150D01*
X288165D02*
X296165Y369150D01*
X298165D02*
X306165Y377150D01*
X298165D02*
X306165Y369150D01*
X298165Y429150D02*
X306165Y437150D01*
X298165D02*
X306165Y429150D01*
X288165D02*
X296165Y437150D01*
X288165D02*
X296165Y429150D01*
X278165D02*
X286165Y437150D01*
X278165D02*
X286165Y429150D01*
X268165D02*
X276165Y437150D01*
X268165D02*
X276165Y429150D01*
X258165D02*
X266165Y437150D01*
X258165D02*
X266165Y429150D01*
X248165D02*
X256165Y437150D01*
X248165D02*
X256165Y429150D01*
X178677Y202299D02*
X186677D01*
Y210299*
X178677*
Y202299*
X182677Y206299D02*
Y210299D01*
X178677Y192299D02*
X186677D01*
Y200299*
X178677*
Y192299*
X182677Y196299D02*
Y200299D01*
X178677Y182299D02*
X186677D01*
Y190299*
X178677*
Y182299*
X182677Y186299D02*
Y190299D01*
X178677Y172299D02*
X186677D01*
Y180299*
X178677*
Y172299*
X182677Y176299D02*
Y180299D01*
X178677Y162299D02*
X186677D01*
Y170299*
X178677*
Y162299*
X182677Y166299D02*
Y170299D01*
X178677Y152299D02*
X186677D01*
Y160299*
X178677*
Y152299*
X182677Y156299D02*
Y160299D01*
X178677Y142299D02*
X186677D01*
Y150299*
X178677*
Y142299*
X182677Y146299D02*
Y150299D01*
X178677Y132299D02*
X186677D01*
Y140299*
X178677*
Y132299*
X182677Y136299D02*
Y140299D01*
X178677Y122299D02*
X186677D01*
Y130299*
X178677*
Y122299*
X182677Y126299D02*
Y130299D01*
X190488Y475921D02*
X198488Y483921D01*
X190488D02*
X198488Y475921D01*
X230488D02*
X238488Y483921D01*
X230488D02*
X238488Y475921D01*
X243638D02*
X251638Y483921D01*
X243638D02*
X251638Y475921D01*
X283638D02*
X291638Y483921D01*
X283638D02*
X291638Y475921D01*
X271197Y332220D02*
X279197Y340220D01*
X271197D02*
X279197Y332220D01*
X311197D02*
X319197Y340220D01*
X311197D02*
X319197Y332220D01*
X218047Y346000D02*
X226047Y354000D01*
X218047D02*
X226047Y346000D01*
X258047D02*
X266047Y354000D01*
X258047D02*
X266047Y346000D01*
X218047Y332220D02*
X226047Y340220D01*
X218047D02*
X226047Y332220D01*
X258047D02*
X266047Y340220D01*
X258047D02*
X266047Y332220D01*
X337732Y475921D02*
X345732Y483921D01*
X337732D02*
X345732Y475921D01*
X297732D02*
X305732Y483921D01*
X297732D02*
X305732Y475921D01*
X271197Y346000D02*
X279197Y354000D01*
X271197D02*
X279197Y346000D01*
X311197D02*
X319197Y354000D01*
X311197D02*
X319197Y346000D01*
X271197Y318441D02*
X279197Y326441D01*
X271197D02*
X279197Y318441D01*
X311197D02*
X319197Y326441D01*
X311197D02*
X319197Y318441D01*
X229858Y450331D02*
X237858D01*
Y458331*
X229858*
Y450331*
X233858Y454331D02*
Y458331D01*
X237358Y450331D02*
X245358D01*
Y458331*
X237358*
Y450331*
X241358Y454331D02*
Y458331D01*
X244858Y450331D02*
X252858D01*
Y458331*
X244858*
Y450331*
X248858Y454331D02*
Y458331D01*
X261354Y450331D02*
X269354D01*
Y458331*
X261354*
Y450331*
X265354Y454331D02*
Y458331D01*
X268854Y450331D02*
X276854D01*
Y458331*
X268854*
Y450331*
X272854Y454331D02*
Y458331D01*
X276354Y450331D02*
X284354D01*
Y458331*
X276354*
Y450331*
X280354Y454331D02*
Y458331D01*
X292850Y450331D02*
X300850D01*
Y458331*
X292850*
Y450331*
X296850Y454331D02*
Y458331D01*
X300350Y450331D02*
X308350D01*
Y458331*
X300350*
Y450331*
X304350Y454331D02*
Y458331D01*
X307850Y450331D02*
X315850D01*
Y458331*
X307850*
Y450331*
X311850Y454331D02*
Y458331D01*
X324346Y450331D02*
X332346D01*
Y458331*
X324346*
Y450331*
X328346Y454331D02*
Y458331D01*
X331846Y450331D02*
X339846D01*
Y458331*
X331846*
Y450331*
X335846Y454331D02*
Y458331D01*
X339346Y450331D02*
X347346D01*
Y458331*
X339346*
Y450331*
X343346Y454331D02*
Y458331D01*
X190488Y489701D02*
X198488Y497701D01*
X190488D02*
X198488Y489701D01*
X230488D02*
X238488Y497701D01*
X230488D02*
X238488Y489701D01*
X243638D02*
X251638Y497701D01*
X243638D02*
X251638Y489701D01*
X283638D02*
X291638Y497701D01*
X283638D02*
X291638Y489701D01*
X389307D02*
X397307Y497701D01*
X389307D02*
X397307Y489701D01*
X349307D02*
X357307Y497701D01*
X349307D02*
X357307Y489701D01*
X296787D02*
X304787Y497701D01*
X296787D02*
X304787Y489701D01*
X336787D02*
X344787Y497701D01*
X336787D02*
X344787Y489701D01*
X119622Y115685D02*
X127622D01*
X119622Y123685*
X127622*
X119622Y115685*
Y120685D02*
X127622D01*
X119622Y128685*
X127622*
X119622Y120685*
X124622Y115685D02*
X132622D01*
X124622Y123685*
X132622*
X124622Y115685*
Y120685D02*
X132622D01*
X124622Y128685*
X132622*
X124622Y120685*
X129622Y115685D02*
X137622D01*
X129622Y123685*
X137622*
X129622Y115685*
Y120685D02*
X137622D01*
X129622Y128685*
X137622*
X129622Y120685*
X134622Y115685D02*
X142622D01*
X134622Y123685*
X142622*
X134622Y115685*
Y120685D02*
X142622D01*
X134622Y128685*
X142622*
X134622Y120685*
X139622Y115685D02*
X147622D01*
X139622Y123685*
X147622*
X139622Y115685*
Y120685D02*
X147622D01*
X139622Y128685*
X147622*
X139622Y120685*
X328283Y166866D02*
X336283D01*
Y174866*
X328283*
Y166866*
X332283Y170866D02*
Y174866D01*
X328283Y196866D02*
X336283D01*
Y204866*
X328283*
Y196866*
X332283Y200866D02*
Y204866D01*
X298283Y166866D02*
X306283D01*
Y174866*
X298283*
Y166866*
X302283Y170866D02*
Y174866D01*
X298283Y196866D02*
X306283D01*
Y204866*
X298283*
Y196866*
X302283Y200866D02*
Y204866D01*
X431196Y502125D02*
X439196D01*
X435196Y498125D02*
Y506125D01*
X116235Y502125D02*
X124235D01*
X120235Y498125D02*
Y506125D01*
X273165Y216079D02*
X281165D01*
Y224079*
X273165*
Y216079*
X277165Y220079D02*
Y224079D01*
X273165Y236079D02*
X281165D01*
Y244079*
X273165*
Y236079*
X277165Y240079D02*
Y244079D01*
X139307Y167929D02*
X147307D01*
Y175929*
X139307*
Y167929*
X143307Y171929D02*
Y175929D01*
X139307Y157929D02*
X147307D01*
Y165929*
X139307*
Y157929*
X143307Y161929D02*
Y165929D01*
X155055Y166866D02*
X163055Y174866D01*
X155055D02*
X163055Y166866D01*
X155055Y126866D02*
X163055Y134866D01*
X155055D02*
X163055Y126866D01*
X181039Y288520D02*
X189039D01*
Y296520*
X181039*
Y288520*
X185039Y292520D02*
Y296520D01*
X181039Y268520D02*
X189039D01*
Y276520*
X181039*
Y268520*
X185039Y272520D02*
Y276520D01*
X300724Y117654D02*
X308724D01*
Y125654*
X300724*
Y117654*
X304724Y121654D02*
Y125654D01*
X320724Y117654D02*
X328724D01*
Y125654*
X320724*
Y117654*
X324724Y121654D02*
Y125654D01*
X414898Y434583D02*
X422898D01*
Y442583*
X414898*
Y434583*
X418898Y438583D02*
Y442583D01*
X394898Y434583D02*
X402898D01*
Y442583*
X394898*
Y434583*
X398898Y438583D02*
Y442583D01*
X414898Y340094D02*
X422898D01*
Y348094*
X414898*
Y340094*
X418898Y344094D02*
Y348094D01*
X414898Y320094D02*
X422898D01*
Y328094*
X414898*
Y320094*
X418898Y324094D02*
Y328094D01*
X202299Y340094D02*
X210299D01*
Y348094*
X202299*
Y340094*
X206299Y344094D02*
Y348094D01*
X202299Y320094D02*
X210299D01*
Y328094*
X202299*
Y320094*
X206299Y324094D02*
Y328094D01*
X115685Y198362D02*
X123685D01*
Y206362*
X115685*
Y198362*
X119685Y202362D02*
Y206362D01*
X115685Y188362D02*
X123685D01*
Y196362*
X115685*
Y188362*
X119685Y192362D02*
Y196362D01*
X115685Y178362D02*
X123685D01*
Y186362*
X115685*
Y178362*
X119685Y182362D02*
Y186362D01*
X115685Y168362D02*
X123685D01*
Y176362*
X115685*
Y168362*
X119685Y172362D02*
Y176362D01*
X115685Y158362D02*
X123685D01*
Y166362*
X115685*
Y158362*
X119685Y162362D02*
Y166362D01*
X115685Y148362D02*
X123685D01*
Y156362*
X115685*
Y148362*
X119685Y152362D02*
Y156362D01*
X271197Y202299D02*
X279197D01*
Y210299*
X271197*
Y202299*
X275197Y206299D02*
Y210299D01*
X261197Y202299D02*
X269197D01*
Y210299*
X261197*
Y202299*
X265197Y206299D02*
Y210299D01*
X251197Y202299D02*
X259197D01*
Y210299*
X251197*
Y202299*
X255197Y206299D02*
Y210299D01*
X241197Y202299D02*
X249197D01*
Y210299*
X241197*
Y202299*
X245197Y206299D02*
Y210299D01*
X231197Y202299D02*
X239197D01*
Y210299*
X231197*
Y202299*
X235197Y206299D02*
Y210299D01*
X221197Y202299D02*
X229197D01*
Y210299*
X221197*
Y202299*
X225197Y206299D02*
Y210299D01*
X211197Y202299D02*
X219197D01*
Y210299*
X211197*
Y202299*
X215197Y206299D02*
Y210299D01*
X201197Y202299D02*
X209197D01*
Y210299*
X201197*
Y202299*
X205197Y206299D02*
Y210299D01*
X191197Y202299D02*
X199197D01*
Y210299*
X191197*
Y202299*
X195197Y206299D02*
Y210299D01*
X168441Y119228D02*
X176441D01*
X168441Y127228*
X176441*
X168441Y119228*
X245213Y109780D02*
X253213D01*
X245213Y117780*
X253213*
X245213Y109780*
X239701Y110173D02*
X247701D01*
X239701Y118173*
X247701*
X239701Y110173*
X388126Y121197D02*
X396126D01*
Y129197*
X388126*
Y121197*
X392126Y125197D02*
Y129197D01*
X129071Y133402D02*
X137071D01*
Y141402*
X129071*
Y133402*
X133071Y137402D02*
Y141402D01*
X165291Y123953D02*
X173291D01*
X165291Y131953*
X173291*
X165291Y123953*
X196000Y127496D02*
X204000D01*
X196000Y135496*
X204000*
X196000Y127496*
X205449Y136157D02*
X213449D01*
X205449Y144157*
X213449*
X205449Y136157*
X202299Y127102D02*
X210299D01*
X202299Y135102*
X210299*
X202299Y127102*
X240094Y123953D02*
X248094D01*
X240094Y131953*
X248094*
X240094Y123953*
X233795D02*
X241795D01*
X233795Y131953*
X241795*
X233795Y123953*
X284583Y130252D02*
X292583D01*
X284583Y138252*
X292583*
X284583Y130252*
X279858Y126709D02*
X287858D01*
X279858Y134709*
X287858*
X279858Y126709*
X347969Y125528D02*
X355969D01*
Y133528*
X347969*
Y125528*
X351969Y129528D02*
Y133528D01*
X374346Y138520D02*
X382346D01*
Y146520*
X374346*
Y138520*
X378346Y142520D02*
Y146520D01*
X380252Y125528D02*
X388252D01*
Y133528*
X380252*
Y125528*
X384252Y129528D02*
Y133528D01*
X138913Y148362D02*
X146913D01*
Y156362*
X138913*
Y148362*
X142913Y152362D02*
Y156362D01*
X151906Y153480D02*
X159906D01*
Y161480*
X151906*
Y153480*
X155906Y157480D02*
Y161480D01*
X156630Y144425D02*
X164630D01*
X156630Y152425*
X164630*
X156630Y144425*
X188126Y157811D02*
X196126D01*
X188126Y165811*
X196126*
X188126Y157811*
X247969Y152693D02*
X255969D01*
Y160693*
X247969*
Y152693*
X251969Y156693D02*
Y160693D01*
X303874Y161354D02*
X311874D01*
Y169354*
X303874*
Y161354*
X307874Y165354D02*
Y169354D01*
X294819Y148362D02*
X302819D01*
X294819Y156362*
X302819*
X294819Y148362*
X361748Y144425D02*
X369748D01*
Y152425*
X361748*
Y144425*
X365748Y148425D02*
Y152425D01*
X393638Y152693D02*
X401638D01*
Y160693*
X393638*
Y152693*
X397638Y156693D02*
Y160693D01*
X137339Y178283D02*
X145339D01*
Y186283*
X137339*
Y178283*
X141339Y182283D02*
Y186283D01*
X186551Y177496D02*
X194551D01*
X186551Y185496*
X194551*
X186551Y177496*
X255843Y170803D02*
X263843D01*
X255843Y178803*
X263843*
X255843Y170803*
X265291Y167654D02*
X273291D01*
X265291Y175654*
X273291*
X265291Y167654*
X271984Y177102D02*
X279984D01*
X271984Y185102*
X279984*
X271984Y177102*
X285370Y163717D02*
X293370D01*
X285370Y171717*
X293370*
X285370Y163717*
X279858Y166866D02*
X287858D01*
X279858Y174866*
X287858*
X279858Y166866*
X290488Y170016D02*
X298488D01*
Y178016*
X290488*
Y170016*
X294488Y174016D02*
Y178016D01*
X129071Y198756D02*
X137071D01*
Y206756*
X129071*
Y198756*
X133071Y202756D02*
Y206756D01*
X123165Y184583D02*
X131165D01*
Y192583*
X123165*
Y184583*
X127165Y188583D02*
Y192583D01*
X144819Y184583D02*
X152819D01*
Y192583*
X144819*
Y184583*
X148819Y188583D02*
Y192583D01*
X262535Y185764D02*
X270535D01*
X262535Y193764*
X270535*
X262535Y185764*
X272772Y189307D02*
X280772D01*
Y197307*
X272772*
Y189307*
X276772Y193307D02*
Y197307D01*
X298362Y188913D02*
X306362D01*
Y196913*
X298362*
Y188913*
X302362Y192913D02*
Y196913D01*
X401512Y190094D02*
X409512D01*
Y198094*
X401512*
Y190094*
X405512Y194094D02*
Y198094D01*
X393638Y198362D02*
X401638D01*
Y206362*
X393638*
Y198362*
X397638Y202362D02*
Y206362D01*
X137339Y215291D02*
X145339D01*
Y223291*
X137339*
Y215291*
X141339Y219291D02*
Y223291D01*
X194425Y215291D02*
X202425D01*
X194425Y223291*
X202425*
X194425Y215291*
X236157Y213323D02*
X244157D01*
X236157Y221323*
X244157*
X236157Y213323*
X284583Y214898D02*
X292583D01*
X284583Y222898*
X292583*
X284583Y214898*
X312535Y212929D02*
X320535D01*
X312535Y220929*
X320535*
X312535Y212929*
X341669Y214898D02*
X349669D01*
Y222898*
X341669*
Y214898*
X345669Y218898D02*
Y222898D01*
X330252Y209780D02*
X338252D01*
Y217780*
X330252*
Y209780*
X334252Y213780D02*
Y217780D01*
X347181Y205843D02*
X355181D01*
Y213843*
X347181*
Y205843*
X351181Y209843D02*
Y213843D01*
X294819Y235370D02*
X302819D01*
Y243370*
X294819*
Y235370*
X298819Y239370D02*
Y243370D01*
X369622Y236157D02*
X377622D01*
Y244157*
X369622*
Y236157*
X373622Y240157D02*
Y244157D01*
X119622Y251512D02*
X127622D01*
Y259512*
X119622*
Y251512*
X123622Y255512D02*
Y259512D01*
X227890Y262929D02*
X235890D01*
Y270929*
X227890*
Y262929*
X231890Y266929D02*
Y270929D01*
X230252Y254661D02*
X238252D01*
X230252Y262661*
X238252*
X230252Y254661*
X241669Y245606D02*
X249669D01*
Y253606*
X241669*
Y245606*
X245669Y249606D02*
Y253606D01*
X278677Y253874D02*
X286677D01*
X278677Y261874*
X286677*
X278677Y253874*
X273165Y262535D02*
X281165D01*
Y270535*
X273165*
Y262535*
X277165Y266535D02*
Y270535D01*
X297181Y256236D02*
X305181D01*
X297181Y264236*
X305181*
X297181Y256236*
X325134Y254268D02*
X333134D01*
X325134Y262268*
X333134*
X325134Y254268*
X346787Y261748D02*
X354787D01*
Y269748*
X346787*
Y261748*
X350787Y265748D02*
Y269748D01*
X131827Y266866D02*
X139827D01*
Y274866*
X131827*
Y266866*
X135827Y270866D02*
Y274866D01*
X261748Y268441D02*
X269748D01*
X261748Y276441*
X269748*
X261748Y268441*
X308992Y274346D02*
X316992D01*
Y282346*
X308992*
Y274346*
X312992Y278346D02*
Y282346D01*
X329071Y273953D02*
X337071D01*
X329071Y281953*
X337071*
X329071Y273953*
X312535Y268441D02*
X320535D01*
X312535Y276441*
X320535*
X312535Y268441*
X367654Y267260D02*
X375654D01*
Y275260*
X367654*
Y267260*
X371654Y271260D02*
Y275260D01*
X155843Y296394D02*
X163843D01*
Y304394*
X155843*
Y296394*
X159843Y300394D02*
Y304394D01*
X188913Y290882D02*
X196913D01*
Y298882*
X188913*
Y290882*
X192913Y294882D02*
Y298882D01*
X203087Y296394D02*
X211087D01*
X203087Y304394*
X211087*
X203087Y296394*
X221591Y296787D02*
X229591D01*
Y304787*
X221591*
Y296787*
X225591Y300787D02*
Y304787D01*
X210961Y298756D02*
X218961D01*
X210961Y306756*
X218961*
X210961Y298756*
X227890Y290882D02*
X235890D01*
Y298882*
X227890*
Y290882*
X231890Y294882D02*
Y298882D01*
X256630Y302299D02*
X264630D01*
X256630Y310299*
X264630*
X256630Y302299*
X318441Y297575D02*
X326441D01*
Y305575*
X318441*
Y297575*
X322441Y301575D02*
Y305575D01*
X418835Y289307D02*
X426835D01*
Y297307*
X418835*
Y289307*
X422835Y293307D02*
Y297307D01*
X163323Y304661D02*
X171323D01*
X163323Y312661*
X171323*
X163323Y304661*
X165685Y314898D02*
X173685D01*
X165685Y322898*
X173685*
X165685Y314898*
X174740Y310173D02*
X182740D01*
X174740Y318173*
X182740*
X174740Y310173*
X209386Y305449D02*
X217386D01*
X209386Y313449*
X217386*
X209386Y305449*
X225921Y314898D02*
X233921D01*
X225921Y322898*
X233921*
X225921Y314898*
X218835Y322772D02*
X226835D01*
X218835Y330772*
X226835*
X218835Y322772*
X254661Y314110D02*
X262661D01*
Y322110*
X254661*
Y314110*
X258661Y318110D02*
Y322110D01*
X280646Y305449D02*
X288646D01*
X280646Y313449*
X288646*
X280646Y305449*
X288913Y318047D02*
X296913D01*
Y326047*
X288913*
Y318047*
X292913Y322047D02*
Y326047D01*
X291669Y306630D02*
X299669D01*
Y314630*
X291669*
Y306630*
X295669Y310630D02*
Y314630D01*
X302693Y319228D02*
X310693D01*
Y327228*
X302693*
Y319228*
X306693Y323228D02*
Y327228D01*
X329071Y308205D02*
X337071D01*
X329071Y316205*
X337071*
X329071Y308205*
X327890Y320016D02*
X335890D01*
Y328016*
X327890*
Y320016*
X331890Y324016D02*
Y328016D01*
X336157Y306236D02*
X344157D01*
X336157Y314236*
X344157*
X336157Y306236*
X335764Y315291D02*
X343764D01*
X335764Y323291*
X343764*
X335764Y315291*
X380646Y305449D02*
X388646D01*
X380646Y313449*
X388646*
X380646Y305449*
X381827Y314898D02*
X389827D01*
X381827Y322898*
X389827*
X381827Y314898*
X131433Y324346D02*
X139433D01*
Y332346*
X131433*
Y324346*
X135433Y328346D02*
Y332346D01*
X173559Y327102D02*
X181559D01*
Y335102*
X173559*
Y327102*
X177559Y331102D02*
Y335102D01*
X229858Y340094D02*
X237858D01*
Y348094*
X229858*
Y340094*
X233858Y344094D02*
Y348094D01*
X246000Y330646D02*
X254000D01*
Y338646*
X246000*
Y330646*
X250000Y334646D02*
Y338646D01*
X334976Y328677D02*
X342976D01*
Y336677*
X334976*
Y328677*
X338976Y332677D02*
Y336677D01*
X341669Y324740D02*
X349669D01*
X341669Y332740*
X349669*
X341669Y324740*
X142063Y358598D02*
X150063D01*
Y366598*
X142063*
Y358598*
X146063Y362598D02*
Y366598D01*
X171197Y357417D02*
X179197D01*
Y365417*
X171197*
Y357417*
X175197Y361417D02*
Y365417D01*
X239701Y351118D02*
X247701D01*
Y359118*
X239701*
Y351118*
X243701Y355118D02*
Y359118D01*
X363717Y347969D02*
X371717D01*
Y355969*
X363717*
Y347969*
X367717Y351969D02*
Y355969D01*
X354661Y354268D02*
X362661D01*
Y362268*
X354661*
Y354268*
X358661Y358268D02*
Y362268D01*
X402693Y354268D02*
X410693D01*
Y362268*
X402693*
Y354268*
X406693Y358268D02*
Y362268D01*
X420803Y347969D02*
X428803D01*
Y355969*
X420803*
Y347969*
X424803Y351969D02*
Y355969D01*
X114110Y383008D02*
X122110D01*
X114110Y391008*
X122110*
X114110Y383008*
X134189Y373165D02*
X142189D01*
Y381165*
X134189*
Y373165*
X138189Y377165D02*
Y381165D01*
X171984Y369622D02*
X179984D01*
Y377622*
X171984*
Y369622*
X175984Y373622D02*
Y377622D01*
X239701Y373953D02*
X247701D01*
Y381953*
X239701*
Y373953*
X243701Y377953D02*
Y381953D01*
X232220Y369622D02*
X240220D01*
Y377622*
X232220*
Y369622*
X236220Y373622D02*
Y377622D01*
X327890Y383008D02*
X335890D01*
Y391008*
X327890*
Y383008*
X331890Y387008D02*
Y391008D01*
X367260Y367654D02*
X375260D01*
X367260Y375654*
X375260*
X367260Y367654*
X375528D02*
X383528D01*
X375528Y375654*
X383528*
X375528Y367654*
X395213Y372772D02*
X403213D01*
Y380772*
X395213*
Y372772*
X399213Y376772D02*
Y380772D01*
X164504Y390488D02*
X172504D01*
Y398488*
X164504*
Y390488*
X168504Y394488D02*
Y398488D01*
X178283Y400724D02*
X186283D01*
Y408724*
X178283*
Y400724*
X182283Y404724D02*
Y408724D01*
X192063Y395606D02*
X200063D01*
Y403606*
X192063*
Y395606*
X196063Y399606D02*
Y403606D01*
X316866Y400724D02*
X324866D01*
Y408724*
X316866*
Y400724*
X320866Y404724D02*
Y408724D01*
X334976Y395606D02*
X342976D01*
Y403606*
X334976*
Y395606*
X338976Y399606D02*
Y403606D01*
X388126Y390488D02*
X396126D01*
Y398488*
X388126*
Y390488*
X392126Y394488D02*
Y398488D01*
X429071Y399150D02*
X437071D01*
Y407150*
X429071*
Y399150*
X433071Y403150D02*
Y407150D01*
X268441Y420803D02*
X276441D01*
Y428803*
X268441*
Y420803*
X272441Y424803D02*
Y428803D01*
X314504Y420803D02*
X322504D01*
Y428803*
X314504*
Y420803*
X318504Y424803D02*
Y428803D01*
X214110Y442063D02*
X222110D01*
Y450063*
X214110*
Y442063*
X218110Y446063D02*
Y450063D01*
X244819Y442063D02*
X252819D01*
Y450063*
X244819*
Y442063*
X248819Y446063D02*
Y450063D01*
X360567Y434583D02*
X368567D01*
Y442583*
X360567*
Y434583*
X364567Y438583D02*
Y442583D01*
X363717Y457024D02*
X371717D01*
Y465024*
X363717*
Y457024*
X367717Y461024D02*
Y465024D01*
X131433Y467142D02*
X139433D01*
Y475142*
X131433*
Y467142*
X135433Y471142D02*
Y475142D01*
X135764Y475528D02*
X143764D01*
Y483528*
X135764*
Y475528*
X139764Y479528D02*
Y483528D01*
X143638Y475921D02*
X151638D01*
Y483921*
X143638*
Y475921*
X147638Y479921D02*
Y483921D01*
X202299Y473953D02*
X210299D01*
Y481953*
X202299*
Y473953*
X206299Y477953D02*
Y481953D01*
X314504Y475921D02*
X322504D01*
Y483921*
X314504*
Y475921*
X318504Y479921D02*
Y483921D01*
X354661Y464110D02*
X362661D01*
Y472110*
X354661*
Y464110*
X358661Y468110D02*
Y472110D01*
X147575Y490488D02*
X155575D01*
Y498488*
X147575*
Y490488*
X151575Y494488D02*
Y498488D01*
X160961Y497969D02*
X168961D01*
Y505969*
X160961*
Y497969*
X164961Y501969D02*
Y505969D01*
X100000Y100000D02*
X454331D01*
Y521260*
X100000*
Y100000*
X494201Y243500D02*
X752201D01*
X494201Y219500D02*
X752201D01*
X494201Y195500D02*
X752201D01*
X494201Y171500D02*
X752201D01*
X494201Y147500D02*
X752201D01*
X494201Y123500D02*
X752201D01*
X494201Y99500D02*
X752201D01*
X494201Y243500D02*
Y99500D01*
X578201Y243500D02*
Y99500D01*
X614201Y243500D02*
Y99500D01*
X650201Y243500D02*
Y99500D01*
X704201Y243500D02*
Y99500D01*
X752201Y243500D02*
Y99500D01*
X529701Y232250D02*
X529155Y233000D01*
X528337Y233375*
X527246*
X526428Y233000*
X525883Y232250*
Y231500*
X526155Y230750*
X526428Y230375*
X526974Y230000*
X528610Y229250*
X529155Y228875*
X529428Y228500*
X529701Y227750*
Y226625*
X529155Y225875*
X528337Y225500*
X527246*
X526428Y225875*
X525883Y226625*
X532155Y233375D02*
Y225500D01*
X538428Y233375D02*
X534610Y225500D01*
Y233375D02*
X538428D01*
X534610Y225500D02*
X538428D01*
X540883Y233375D02*
Y225500D01*
Y233375D02*
X544428D01*
X540883Y229625D02*
X543064D01*
X540883Y225500D02*
X544428D01*
X588064Y233375D02*
X587519Y233000D01*
X586974Y232250*
X586701Y231500*
X586428Y230375*
Y228500*
X586701Y227375*
X586974Y226625*
X587519Y225875*
X588064Y225500*
X589155*
X589701Y225875*
X590246Y226625*
X590519Y227375*
X590792Y228500*
Y230375*
X590519Y231500*
X590246Y232250*
X589701Y233000*
X589155Y233375*
X588064*
X588883Y227000D02*
X590519Y224750D01*
X595155Y233375D02*
Y225500D01*
X593246Y233375D02*
X597064D01*
X599519D02*
X601701Y229625D01*
Y225500*
X603883Y233375D02*
X601701Y229625D01*
X626246Y232250D02*
X625701Y233000D01*
X624883Y233375*
X623792*
X622974Y233000*
X622428Y232250*
Y231500*
X622701Y230750*
X622974Y230375*
X623519Y230000*
X625155Y229250*
X625701Y228875*
X625974Y228500*
X626246Y227750*
Y226625*
X625701Y225875*
X624883Y225500*
X623792*
X622974Y225875*
X622428Y226625*
X628701Y233375D02*
X630883Y229625D01*
Y225500*
X633064Y233375D02*
X630883Y229625D01*
X635519Y233375D02*
Y225500D01*
Y233375D02*
X637701Y225500D01*
X639883Y233375D02*
X637701Y225500D01*
X639883Y233375D02*
Y225500D01*
X661701Y233375D02*
Y225500D01*
Y233375D02*
X664155D01*
X664974Y233000*
X665246Y232625*
X665519Y231875*
Y230750*
X665246Y230000*
X664974Y229625*
X664155Y229250*
X661701*
X667974Y233375D02*
Y225500D01*
X671246*
X675883Y233375D02*
X673701Y225500D01*
X675883Y233375D02*
X678064Y225500D01*
X674519Y228125D02*
X677246D01*
X682428Y233375D02*
Y225500D01*
X680519Y233375D02*
X684337D01*
X686792D02*
Y225500D01*
Y233375D02*
X690337D01*
X686792Y229625D02*
X688974D01*
X686792Y225500D02*
X690337D01*
X692792Y233375D02*
Y225500D01*
Y233375D02*
X694701D01*
X695519Y233000*
X696064Y232250*
X696337Y231500*
X696610Y230375*
Y228500*
X696337Y227375*
X696064Y226625*
X695519Y225875*
X694701Y225500*
X692792*
X720883Y233375D02*
Y225500D01*
X718974Y233375D02*
X722792D01*
X726883D02*
X726337Y233000D01*
X725792Y232250*
X725519Y231500*
X725246Y230375*
Y228500*
X725519Y227375*
X725792Y226625*
X726337Y225875*
X726883Y225500*
X727974*
X728519Y225875*
X729064Y226625*
X729337Y227375*
X729610Y228500*
Y230375*
X729337Y231500*
X729064Y232250*
X728519Y233000*
X727974Y233375*
X726883*
X732064D02*
Y225500D01*
X735337*
X500746Y209375D02*
X503746D01*
X502110Y206375*
X502928*
X503474Y206000*
X503746Y205625*
X504019Y204500*
Y203750*
X503746Y202625*
X503201Y201875*
X502383Y201500*
X501564*
X500746Y201875*
X500474Y202250*
X500201Y203000*
X506746Y202250D02*
X506474Y201875D01*
X506746Y201500*
X507019Y201875*
X506746Y202250*
X513019Y209375D02*
X510292D01*
X510019Y206000*
X510292Y206375*
X511110Y206750*
X511928*
X512746Y206375*
X513292Y205625*
X513564Y204500*
X513292Y203750*
X513019Y202625*
X512474Y201875*
X511655Y201500*
X510837*
X510019Y201875*
X509746Y202250*
X509474Y203000*
X595837Y209375D02*
X593110Y204125D01*
X597201*
X595837Y209375D02*
Y201500D01*
X626201Y207500D02*
X638201D01*
X632201Y201500D02*
Y213500D01*
X658837Y209375D02*
X661019Y205625D01*
Y201500*
X663201Y209375D02*
X661019Y205625D01*
X665655Y209375D02*
Y201500D01*
Y209375D02*
X669201D01*
X665655Y205625D02*
X667837D01*
X665655Y201500D02*
X669201D01*
X675474Y208250D02*
X674928Y209000D01*
X674110Y209375*
X673019*
X672201Y209000*
X671655Y208250*
Y207500*
X671928Y206750*
X672201Y206375*
X672746Y206000*
X674383Y205250*
X674928Y204875*
X675201Y204500*
X675474Y203750*
Y202625*
X674928Y201875*
X674110Y201500*
X673019*
X672201Y201875*
X671655Y202625*
X712019Y208250D02*
Y201500D01*
X709564Y204875D02*
X714474D01*
X721837Y210875D02*
X716928Y198875D01*
X724292Y204875D02*
X729201D01*
X733292Y209375D02*
X732474Y209000D01*
X731928Y207875*
X731655Y206000*
Y204875*
X731928Y203000*
X732474Y201875*
X733292Y201500*
X733837*
X734655Y201875*
X735201Y203000*
X735474Y204875*
Y206000*
X735201Y207875*
X734655Y209000*
X733837Y209375*
X733292*
X738201Y202250D02*
X737928Y201875D01*
X738201Y201500*
X738474Y201875*
X738201Y202250*
X742564Y209375D02*
X741746Y209000D01*
X741201Y207875*
X740928Y206000*
Y204875*
X741201Y203000*
X741746Y201875*
X742564Y201500*
X743110*
X743928Y201875*
X744474Y203000*
X744746Y204875*
Y206000*
X744474Y207875*
X743928Y209000*
X743110Y209375*
X742564*
X500201Y183875D02*
X500746Y184250D01*
X501564Y185375*
Y177500*
X593928Y185375D02*
X591201Y177500D01*
X590110Y185375D02*
X593928D01*
X598019D02*
X597201Y185000D01*
X596655Y183875*
X596383Y182000*
Y180875*
X596655Y179000*
X597201Y177875*
X598019Y177500*
X598564*
X599383Y177875*
X599928Y179000*
X600201Y180875*
Y182000*
X599928Y183875*
X599383Y185000*
X598564Y185375*
X598019*
X626201Y177500D02*
X638201Y189500D01*
X626201D02*
X638201Y177500D01*
X658837Y185375D02*
X661019Y181625D01*
Y177500*
X663201Y185375D02*
X661019Y181625D01*
X665655Y185375D02*
Y177500D01*
Y185375D02*
X669201D01*
X665655Y181625D02*
X667837D01*
X665655Y177500D02*
X669201D01*
X675474Y184250D02*
X674928Y185000D01*
X674110Y185375*
X673019*
X672201Y185000*
X671655Y184250*
Y183500*
X671928Y182750*
X672201Y182375*
X672746Y182000*
X674383Y181250*
X674928Y180875*
X675201Y180500*
X675474Y179750*
Y178625*
X674928Y177875*
X674110Y177500*
X673019*
X672201Y177875*
X671655Y178625*
X712019Y184250D02*
Y177500D01*
X709564Y180875D02*
X714474D01*
X721837Y186875D02*
X716928Y174875D01*
X724292Y180875D02*
X729201D01*
X733292Y185375D02*
X732474Y185000D01*
X731928Y183875*
X731655Y182000*
Y180875*
X731928Y179000*
X732474Y177875*
X733292Y177500*
X733837*
X734655Y177875*
X735201Y179000*
X735474Y180875*
Y182000*
X735201Y183875*
X734655Y185000*
X733837Y185375*
X733292*
X738201Y178250D02*
X737928Y177875D01*
X738201Y177500*
X738474Y177875*
X738201Y178250*
X742564Y185375D02*
X741746Y185000D01*
X741201Y183875*
X740928Y182000*
Y180875*
X741201Y179000*
X741746Y177875*
X742564Y177500*
X743110*
X743928Y177875*
X744474Y179000*
X744746Y180875*
Y182000*
X744474Y183875*
X743928Y185000*
X743110Y185375*
X742564*
X501837Y161375D02*
X501019Y161000D01*
X500474Y159875*
X500201Y158000*
Y156875*
X500474Y155000*
X501019Y153875*
X501837Y153500*
X502383*
X503201Y153875*
X503746Y155000*
X504019Y156875*
Y158000*
X503746Y159875*
X503201Y161000*
X502383Y161375*
X501837*
X506746Y154250D02*
X506474Y153875D01*
X506746Y153500*
X507019Y153875*
X506746Y154250*
X513019Y158750D02*
X512746Y157625D01*
X512201Y156875*
X511383Y156500*
X511110*
X510292Y156875*
X509746Y157625*
X509474Y158750*
Y159125*
X509746Y160250*
X510292Y161000*
X511110Y161375*
X511383*
X512201Y161000*
X512746Y160250*
X513019Y158750*
Y156875*
X512746Y155000*
X512201Y153875*
X511383Y153500*
X510837*
X510019Y153875*
X509746Y154625*
X588337Y159875D02*
X588883Y160250D01*
X589701Y161375*
Y153500*
X593519Y161375D02*
X592701Y161000D01*
X592428Y160250*
Y159500*
X592701Y158750*
X593246Y158375*
X594337Y158000*
X595155Y157625*
X595701Y156875*
X595974Y156125*
Y155000*
X595701Y154250*
X595428Y153875*
X594610Y153500*
X593519*
X592701Y153875*
X592428Y154250*
X592155Y155000*
Y156125*
X592428Y156875*
X592974Y157625*
X593792Y158000*
X594883Y158375*
X595428Y158750*
X595701Y159500*
Y160250*
X595428Y161000*
X594610Y161375*
X593519*
X601701Y160250D02*
X601428Y161000D01*
X600610Y161375*
X600064*
X599246Y161000*
X598701Y159875*
X598428Y158000*
Y156125*
X598701Y154625*
X599246Y153875*
X600064Y153500*
X600337*
X601155Y153875*
X601701Y154625*
X601974Y155750*
Y156125*
X601701Y157250*
X601155Y158000*
X600337Y158375*
X600064*
X599246Y158000*
X598701Y157250*
X598428Y156125*
X626201Y153500D02*
X638201D01*
Y165500*
X626201*
Y153500*
X632201Y159500D02*
Y165500D01*
X658837Y161375D02*
X661019Y157625D01*
Y153500*
X663201Y161375D02*
X661019Y157625D01*
X665655Y161375D02*
Y153500D01*
Y161375D02*
X669201D01*
X665655Y157625D02*
X667837D01*
X665655Y153500D02*
X669201D01*
X675474Y160250D02*
X674928Y161000D01*
X674110Y161375*
X673019*
X672201Y161000*
X671655Y160250*
Y159500*
X671928Y158750*
X672201Y158375*
X672746Y158000*
X674383Y157250*
X674928Y156875*
X675201Y156500*
X675474Y155750*
Y154625*
X674928Y153875*
X674110Y153500*
X673019*
X672201Y153875*
X671655Y154625*
X712019Y160250D02*
Y153500D01*
X709564Y156875D02*
X714474D01*
X721837Y162875D02*
X716928Y150875D01*
X724292Y156875D02*
X729201D01*
X733292Y161375D02*
X732474Y161000D01*
X731928Y159875*
X731655Y158000*
Y156875*
X731928Y155000*
X732474Y153875*
X733292Y153500*
X733837*
X734655Y153875*
X735201Y155000*
X735474Y156875*
Y158000*
X735201Y159875*
X734655Y161000*
X733837Y161375*
X733292*
X738201Y154250D02*
X737928Y153875D01*
X738201Y153500*
X738474Y153875*
X738201Y154250*
X742564Y161375D02*
X741746Y161000D01*
X741201Y159875*
X740928Y158000*
Y156875*
X741201Y155000*
X741746Y153875*
X742564Y153500*
X743110*
X743928Y153875*
X744474Y155000*
X744746Y156875*
Y158000*
X744474Y159875*
X743928Y161000*
X743110Y161375*
X742564*
X500201Y135875D02*
X500746Y136250D01*
X501564Y137375*
Y129500*
X504292Y130250D02*
X504019Y129875D01*
X504292Y129500*
X504564Y129875*
X504292Y130250*
X510564Y137375D02*
X507837D01*
X507564Y134000*
X507837Y134375*
X508655Y134750*
X509474*
X510292Y134375*
X510837Y133625*
X511110Y132500*
X510837Y131750*
X510564Y130625*
X510019Y129875*
X509201Y129500*
X508383*
X507564Y129875*
X507292Y130250*
X507019Y131000*
X590383Y135500D02*
Y135875D01*
X590655Y136625*
X590928Y137000*
X591474Y137375*
X592564*
X593110Y137000*
X593383Y136625*
X593655Y135875*
Y135125*
X593383Y134375*
X592837Y133250*
X590110Y129500*
X593928*
X598019Y137375D02*
X597201Y137000D01*
X596655Y135875*
X596383Y134000*
Y132875*
X596655Y131000*
X597201Y129875*
X598019Y129500*
X598564*
X599383Y129875*
X599928Y131000*
X600201Y132875*
Y134000*
X599928Y135875*
X599383Y137000*
X598564Y137375*
X598019*
X632201Y129500D02*
X638201Y135500D01*
X632201Y141500*
X626201Y135500*
X632201Y129500*
Y135500D02*
Y141500D01*
X658837Y137375D02*
X661019Y133625D01*
Y129500*
X663201Y137375D02*
X661019Y133625D01*
X665655Y137375D02*
Y129500D01*
Y137375D02*
X669201D01*
X665655Y133625D02*
X667837D01*
X665655Y129500D02*
X669201D01*
X675474Y136250D02*
X674928Y137000D01*
X674110Y137375*
X673019*
X672201Y137000*
X671655Y136250*
Y135500*
X671928Y134750*
X672201Y134375*
X672746Y134000*
X674383Y133250*
X674928Y132875*
X675201Y132500*
X675474Y131750*
Y130625*
X674928Y129875*
X674110Y129500*
X673019*
X672201Y129875*
X671655Y130625*
X712019Y136250D02*
Y129500D01*
X709564Y132875D02*
X714474D01*
X721837Y138875D02*
X716928Y126875D01*
X724292Y132875D02*
X729201D01*
X733292Y137375D02*
X732474Y137000D01*
X731928Y135875*
X731655Y134000*
Y132875*
X731928Y131000*
X732474Y129875*
X733292Y129500*
X733837*
X734655Y129875*
X735201Y131000*
X735474Y132875*
Y134000*
X735201Y135875*
X734655Y137000*
X733837Y137375*
X733292*
X738201Y130250D02*
X737928Y129875D01*
X738201Y129500*
X738474Y129875*
X738201Y130250*
X742564Y137375D02*
X741746Y137000D01*
X741201Y135875*
X740928Y134000*
Y132875*
X741201Y131000*
X741746Y129875*
X742564Y129500*
X743110*
X743928Y129875*
X744474Y131000*
X744746Y132875*
Y134000*
X744474Y135875*
X743928Y137000*
X743110Y137375*
X742564*
X501837Y113375D02*
X501019Y113000D01*
X500474Y111875*
X500201Y110000*
Y108875*
X500474Y107000*
X501019Y105875*
X501837Y105500*
X502383*
X503201Y105875*
X503746Y107000*
X504019Y108875*
Y110000*
X503746Y111875*
X503201Y113000*
X502383Y113375*
X501837*
X506746Y106250D02*
X506474Y105875D01*
X506746Y105500*
X507019Y105875*
X506746Y106250*
X512746Y112250D02*
X512474Y113000D01*
X511655Y113375*
X511110*
X510292Y113000*
X509746Y111875*
X509474Y110000*
Y108125*
X509746Y106625*
X510292Y105875*
X511110Y105500*
X511383*
X512201Y105875*
X512746Y106625*
X513019Y107750*
Y108125*
X512746Y109250*
X512201Y110000*
X511383Y110375*
X511110*
X510292Y110000*
X509746Y109250*
X509474Y108125*
X594746Y112250D02*
X594474Y113000D01*
X593655Y113375*
X593110*
X592292Y113000*
X591746Y111875*
X591474Y110000*
Y108125*
X591746Y106625*
X592292Y105875*
X593110Y105500*
X593383*
X594201Y105875*
X594746Y106625*
X595019Y107750*
Y108125*
X594746Y109250*
X594201Y110000*
X593383Y110375*
X593110*
X592292Y110000*
X591746Y109250*
X591474Y108125*
X597474Y111875D02*
X598019Y112250D01*
X598837Y113375*
Y105500*
X626201D02*
X638201D01*
X626201Y117500*
X638201*
X626201Y105500*
X658837Y113375D02*
X661019Y109625D01*
Y105500*
X663201Y113375D02*
X661019Y109625D01*
X665655Y113375D02*
Y105500D01*
Y113375D02*
X669201D01*
X665655Y109625D02*
X667837D01*
X665655Y105500D02*
X669201D01*
X675474Y112250D02*
X674928Y113000D01*
X674110Y113375*
X673019*
X672201Y113000*
X671655Y112250*
Y111500*
X671928Y110750*
X672201Y110375*
X672746Y110000*
X674383Y109250*
X674928Y108875*
X675201Y108500*
X675474Y107750*
Y106625*
X674928Y105875*
X674110Y105500*
X673019*
X672201Y105875*
X671655Y106625*
X712019Y112250D02*
Y105500D01*
X709564Y108875D02*
X714474D01*
X721837Y114875D02*
X716928Y102875D01*
X724292Y108875D02*
X729201D01*
X733292Y113375D02*
X732474Y113000D01*
X731928Y111875*
X731655Y110000*
Y108875*
X731928Y107000*
X732474Y105875*
X733292Y105500*
X733837*
X734655Y105875*
X735201Y107000*
X735474Y108875*
Y110000*
X735201Y111875*
X734655Y113000*
X733837Y113375*
X733292*
X738201Y106250D02*
X737928Y105875D01*
X738201Y105500*
X738474Y105875*
X738201Y106250*
X742564Y113375D02*
X741746Y113000D01*
X741201Y111875*
X740928Y110000*
Y108875*
X741201Y107000*
X741746Y105875*
X742564Y105500*
X743110*
X743928Y105875*
X744474Y107000*
X744746Y108875*
Y110000*
X744474Y111875*
X743928Y113000*
X743110Y113375*
X742564*
X0Y0D02*
M02*
