M48
;FILE_FORMAT=2:4
INCH,LZ
FMAT,2
ICI,OFF
;TYPE=PLATED
T1C.02362
T2C.03543
T3C.03937
T4C.05906
T5C.1378
%
M72
G90
G93X0Y0
T1C.02362F197S55
X012362Y011969
X012862Y011969
X013362Y011969
X013862Y011969
X014362Y011969
X013362Y012469
X012862Y012469
X013862Y012469
X014362Y012469
X012362Y012469
X016063Y014843
X016732Y030866
X011811Y038701
X016969Y03189
X017874Y031417
X021339Y030945
X021496Y030276
X020709Y030039
X019843Y021929
X019055Y01815
X019213Y016181
X020945Y014016
X02Y01315
X02063Y01311
X016929Y012795
X017244Y012323
X024921Y011378
X02437Y011417
X02378Y012795
X024409Y012795
X025984Y01748
X026654Y018976
X024016Y021732
X023425Y025866
X026575Y027244
X026063Y03063
X022992Y03189
X022283Y032677
X028465Y030945
X031654Y027244
X030118Y026024
X028268Y025787
X028858Y02189
X031654Y021693
X027598Y01811
X026929Y017165
X028386Y017087
X028937Y016772
X029882Y015236
X028858Y013425
X028386Y013071
X032913Y025827
X033307Y027795
X038465Y030945
X034016Y031024
X033307Y03122
X038583Y03189
X033976Y031929
X034567Y032874
X037126Y037165
X037953Y037165
T2C.03543F197S55
X013307Y01374
X011969Y015236
X014291Y015236
X011969Y016236
X011969Y017236
X014134Y018228
X011969Y018236
X012717Y018858
X011969Y019236
X011969Y020236
X013307Y020276
X014134Y021929
X012362Y025551
X013583Y027087
X013543Y032835
X013819Y037717
X013543Y047114
X013976Y047953
X016496Y050197
X015157Y049449
X014764Y047992
X015118Y047114
X015118Y046114
X014606Y03626
X016299Y034409
X014331Y034409
X016299Y033409
X014331Y033409
X016299Y032409
X014331Y032409
X016299Y031409
X014331Y031409
X014331Y030409
X015984Y030039
X014882Y018858
X014331Y017193
X014331Y016193
X015591Y015748
X018268Y01263
X018268Y01363
X018268Y01463
X018268Y01563
X018268Y01663
X018268Y01763
X018268Y01863
X018268Y01963
X018268Y02063
X018504Y027252
X018504Y029252
X019291Y029488
X019299Y031409
X019299Y032409
X017756Y03311
X019299Y033409
X019299Y034409
X01752Y036142
X017598Y037362
X01685Y039449
X018228Y040472
X016969Y045126
X016969Y047126
X02063Y047795
X023386Y045433
X024136Y045433
X021811Y044606
X019606Y039961
X023622Y037362
X02063Y034409
X023386Y034409
X02063Y032409
X022559Y030079
X023189Y029488
X023189Y026693
X02352Y02063
X02252Y02063
X02152Y02063
X01952Y02063
X02052Y02063
X025197Y015669
X027677Y019331
X02452Y02063
X02652Y02063
X02752Y02063
X02552Y02063
X027717Y022008
X027717Y024008
X024567Y024961
X027717Y026654
X025866Y031811
X029291Y032205
X025Y033465
X02437Y035512
X02437Y037795
X027244Y04248
X024882Y044606
X026535Y045433
X027285Y045433
X028035Y045433
X024886Y045433
X03185Y047992
X030435Y045433
X031185Y045433
X032835Y045433
X033585Y045433
X029685Y045433
X03185Y04248
X032087Y040472
X033898Y039961
X033189Y038701
X033898Y033268
X033189Y032402
X030669Y032323
X029567Y031063
X032244Y030157
X031299Y027835
X029882Y023937
X033425Y021378
X030228Y020087
X033228Y020087
X030236Y019291
X029449Y017402
X030228Y017087
X033228Y017087
X030787Y016535
X034173Y015071
X03235Y014921
X03135Y014921
X030472Y01315
X032472Y01315
X034173Y013071
X030472Y012165
X032472Y012165
X035197Y012953
X036575Y014843
X035394Y017236
X036575Y017236
X035394Y020236
X036575Y020236
X035118Y020984
X034567Y02189
X035079Y026575
X035197Y030409
X035197Y031409
X035197Y032409
X035197Y033409
X035197Y034409
X036772Y035197
X035866Y035827
X036457Y043858
X034335Y045433
X036772Y046102
X035866Y046811
X03989Y043858
X039213Y039449
X039921Y037677
X040669Y035827
X037165Y034409
X040165Y034409
X037165Y033409
X040165Y033409
X037165Y032409
X040165Y032409
X040165Y031409
X037165Y031409
X040165Y030409
X037165Y030409
X037165Y029409
X040165Y029409
X037165Y028409
X040165Y028409
X037165Y027126
X037362Y024016
X039764Y020236
X040551Y019409
X039756Y017874
X037756Y017874
X039764Y015669
X037835Y014252
X038425Y012953
X039213Y01252
X042283Y029331
X04189Y032409
X04189Y034409
X04248Y035197
X043307Y040315
X04189Y043858
T3C.03937F197S55
X015906Y013087
X015906Y017087
X015906Y036772
X015906Y040772
X013543Y041087
X013543Y042087
X019449Y04937
X023449Y04937
X024764Y04937
X019449Y047992
X024764Y047992
X023449Y047992
X026217Y043315
X025217Y043315
X025217Y037315
X026217Y037315
X026205Y035
X022205Y035
X022205Y033622
X026205Y033622
X024567Y029504
X025567Y029504
X026567Y029504
X025567Y028504
X026567Y028504
X024567Y028504
X027567Y028504
X028567Y028504
X030567Y028504
X029567Y028504
X028567Y029504
X027567Y029504
X030567Y029504
X029567Y029504
X02752Y032244
X03152Y032244
X03152Y033622
X02752Y033622
X03152Y035
X02752Y035
X029217Y037315
X027217Y037315
X030217Y037315
X028217Y037315
X029217Y043315
X030217Y043315
X027217Y043315
X028217Y043315
X030173Y047992
X028764Y047992
X028764Y04937
X030079Y04937
X034079Y04937
X035331Y04937
X034173Y047992
X03874Y040772
X03874Y036772
X037693Y01689
X037756Y015709
X035197Y015315
X035197Y011315
X041756Y015709
X041693Y01689
X04189Y036362
X039921Y036772
X04189Y037362
X039921Y040772
X04189Y041087
X04189Y042087
X039331Y04937
T4C.05906F107S55
X014035Y022992
X018957Y022992
X021516Y022992
X018957Y024961
X021516Y024961
X014035Y024961
X026437Y024961
X028996Y024961
X026437Y022992
X028996Y022992
X036476Y011575
X036476Y013543
X036476Y022992
X033917Y022992
X033917Y024961
X036476Y024961
X041398Y024961
X041398Y022992
X041398Y013543
X041398Y011575
T5C.1378F035S794
X012024Y022653
X012024Y050212
X04352Y050212
X04352Y022653
M30
