*
*
G04 PADS VX.2.4 Build Number: 11282995 generated Gerber (RS-274-X) file*
G04 PC Version=2.1*
*
%IN "gs100Fnd.pcb"*%
*
%MOIN*%
*
%FSLAX35Y35*%
*
*
*
*
G04 PC Standard Apertures*
*
*
G04 Thermal Relief Aperture macro.*
%AMTER*
1,1,$1,0,0*
1,0,$1-$2,0,0*
21,0,$3,$4,0,0,45*
21,0,$3,$4,0,0,135*
%
*
*
G04 Annular Aperture macro.*
%AMANN*
1,1,$1,0,0*
1,0,$2,0,0*
%
*
*
G04 Odd Aperture macro.*
%AMODD*
1,1,$1,0,0*
1,0,$1-0.005,0,0*
%
*
*
G04 PC Custom Aperture Macros*
*
*
*
*
*
*
G04 PC Aperture Table*
*
%ADD010C,0.001*%
%ADD029C,0.01*%
%ADD030C,0.24622*%
%ADD031R,0.06906X0.06906*%
%ADD032C,0.06906*%
%ADD033C,0.10843*%
%ADD034R,0.06512X0.06512*%
%ADD035C,0.06512*%
%ADD036C,0.07*%
%ADD037O,0.075X0.026*%
%ADD038O,0.026X0.075*%
%ADD039R,0.07496X0.07496*%
%ADD040C,0.07496*%
%ADD041C,0.06118*%
%ADD042C,0.04543*%
*
*
*
*
G04 PC Circuitry*
G04 Layer Name gs100Fnd.pcb - circuitry*
%LPD*%
*
*
G04 PC Custom Flashes*
G04 Layer Name gs100Fnd.pcb - flashes*
%LPD*%
*
*
G04 PC Circuitry*
G04 Layer Name gs100Fnd.pcb - circuitry*
%LPD*%
*
G54D10*
G54D29*
G01X100000Y100000D02*
X454331D01*
Y521260*
X100000*
Y100000*
G54D30*
X120235Y226534D03*
X435196D03*
Y502125D03*
X120235D03*
G54D31*
X245669Y285039D03*
X143307Y344094D03*
X162992D03*
X351969D03*
X313504Y149213D03*
X151181Y471142D03*
X371654Y344094D03*
X182677Y206299D03*
X143307Y171929D03*
X119685Y202362D03*
X275197Y206299D03*
G54D32*
X245669Y295039D03*
X255669Y285039D03*
Y295039D03*
X265669Y285039D03*
Y295039D03*
X275669Y285039D03*
Y295039D03*
X285669Y285039D03*
Y295039D03*
X295669Y285039D03*
Y295039D03*
X305669Y285039D03*
Y295039D03*
X365748Y202362D03*
Y172362D03*
X143307Y334094D03*
Y324094D03*
Y314094D03*
Y304094D03*
X162992Y334094D03*
Y324094D03*
Y314094D03*
X192992D03*
Y324094D03*
Y334094D03*
Y344094D03*
X351969Y334094D03*
Y324094D03*
Y314094D03*
Y304094D03*
X353937Y202362D03*
Y172362D03*
X323504Y149213D03*
X151181Y461142D03*
X304724Y131496D03*
X324724D03*
X169685Y471260D03*
Y451260D03*
X371653Y334094D03*
Y324094D03*
Y314094D03*
Y304094D03*
Y294094D03*
Y284094D03*
X401653D03*
Y294094D03*
Y304094D03*
Y314094D03*
Y324094D03*
Y334094D03*
Y344094D03*
X377559Y178740D03*
X397559D03*
X341732Y130709D03*
Y150709D03*
X182677Y196299D03*
Y186299D03*
Y176299D03*
Y166299D03*
Y156299D03*
Y146299D03*
Y136299D03*
Y126299D03*
X332283Y170866D03*
Y200866D03*
X302283Y170866D03*
Y200866D03*
X277165Y220079D03*
Y240079D03*
X143307Y161929D03*
X185039Y292520D03*
Y272520D03*
X304724Y121654D03*
X324724D03*
X418898Y438583D03*
X398898D03*
X418898Y344094D03*
Y324094D03*
X206299Y344094D03*
Y324094D03*
X119685Y192362D03*
Y182362D03*
Y172362D03*
Y162362D03*
Y152362D03*
X265197Y206299D03*
X255197D03*
X245197D03*
X235197D03*
X225197D03*
X215197D03*
X205197D03*
X195197D03*
G54D33*
X140354Y249606D03*
X189567D03*
Y229921D03*
X140354D03*
X215157Y249606D03*
X264370D03*
Y229921D03*
X215157D03*
X289961Y249606D03*
X339173D03*
Y229921D03*
X289961D03*
X364764Y249606D03*
X413976D03*
Y229921D03*
X364764D03*
Y135433D03*
X413976D03*
Y115748D03*
X364764D03*
G54D34*
X418898Y420866D03*
Y373622D03*
X135433Y420866D03*
G54D35*
X418898Y410866D03*
Y363622D03*
X135433Y410866D03*
G54D36*
X387402Y367717D03*
Y407717D03*
X399213Y367717D03*
Y407717D03*
X416929Y168898D03*
X376929D03*
X377559Y157087D03*
X417559D03*
X159055Y367717D03*
Y407717D03*
X351969Y153150D03*
Y113150D03*
X194488Y479921D03*
X234488D03*
X247638D03*
X287638D03*
X275197Y336220D03*
X315197D03*
X222047Y350000D03*
X262047D03*
X222047Y336220D03*
X262047D03*
X341732Y479921D03*
X301732D03*
X275197Y350000D03*
X315197D03*
X275197Y322441D03*
X315197D03*
X194488Y493701D03*
X234488D03*
X247638D03*
X287638D03*
X393307D03*
X353307D03*
X300787D03*
X340787D03*
X159055Y170866D03*
Y130866D03*
G54D37*
X275919Y127631D03*
Y130771D03*
Y133911D03*
Y137051D03*
Y140191D03*
Y143331D03*
Y146471D03*
Y149611D03*
Y152751D03*
Y155891D03*
Y159031D03*
Y162171D03*
Y165311D03*
Y168451D03*
Y171591D03*
Y174731D03*
X215419D03*
Y171591D03*
Y168451D03*
Y165311D03*
Y162171D03*
Y159031D03*
Y155891D03*
Y152751D03*
Y149611D03*
Y146471D03*
Y143331D03*
Y140191D03*
Y137051D03*
Y133911D03*
Y130771D03*
Y127631D03*
G54D38*
X269219Y181431D03*
X266079D03*
X262939D03*
X259799D03*
X256659D03*
X253519D03*
X250379D03*
X247239D03*
X244099D03*
X240959D03*
X237819D03*
X234679D03*
X231539D03*
X228399D03*
X225259D03*
X222119D03*
Y120931D03*
X225259D03*
X228399D03*
X231539D03*
X234679D03*
X237819D03*
X240959D03*
X244099D03*
X247239D03*
X250379D03*
X253519D03*
X256659D03*
X259799D03*
X262939D03*
X266079D03*
X269219D03*
G54D39*
X252165Y373150D03*
G54D40*
X262165D03*
X272165D03*
X282165D03*
X292165D03*
X302165D03*
Y433150D03*
X292165D03*
X282165D03*
X272165D03*
X262165D03*
X252165D03*
G54D41*
X233858Y454331D03*
X241358D03*
X248858D03*
X265354D03*
X272854D03*
X280354D03*
X296850D03*
X304350D03*
X311850D03*
X328346D03*
X335846D03*
X343346D03*
G54D42*
X123622Y119685D03*
Y124685D03*
X128622Y119685D03*
Y124685D03*
X133622Y119685D03*
Y124685D03*
X138622Y119685D03*
Y124685D03*
X143622Y119685D03*
Y124685D03*
X0Y0D02*
M02*
