*
*
G04 PADS VX.2.4 Build Number: 11282995 generated Gerber (RS-274-X) file*
G04 PC Version=2.1*
*
%IN "gs100Fnd.pcb"*%
*
%MOIN*%
*
%FSLAX35Y35*%
*
*
*
*
G04 PC Standard Apertures*
*
*
G04 Thermal Relief Aperture macro.*
%AMTER*
1,1,$1,0,0*
1,0,$1-$2,0,0*
21,0,$3,$4,0,0,45*
21,0,$3,$4,0,0,135*
%
*
*
G04 Annular Aperture macro.*
%AMANN*
1,1,$1,0,0*
1,0,$2,0,0*
%
*
*
G04 Odd Aperture macro.*
%AMODD*
1,1,$1,0,0*
1,0,$1-0.005,0,0*
%
*
*
G04 PC Custom Aperture Macros*
*
*
*
*
*
*
G04 PC Aperture Table*
*
%ADD010C,0.001*%
%ADD024C,0.00984*%
%ADD029C,0.01*%
%ADD043C,0.00787*%
%ADD044C,0.005*%
%ADD045C,0.0015*%
%ADD046C,0.00492*%
*
*
*
*
G04 PC Circuitry*
G04 Layer Name gs100Fnd.pcb - circuitry*
%LPD*%
*
*
G04 PC Custom Flashes*
G04 Layer Name gs100Fnd.pcb - flashes*
%LPD*%
*
*
G04 PC Circuitry*
G04 Layer Name gs100Fnd.pcb - circuitry*
%LPD*%
*
G54D10*
G54D24*
G01X365748Y179862D02*
Y177362D01*
Y194862D02*
Y197362D01*
X360748Y194862D02*
X370748D01*
Y179862*
X360748*
Y194862*
X167992Y349094D02*
Y309094D01*
X187992*
Y349094*
X167992*
X353937Y179862D02*
Y177362D01*
Y194862D02*
Y197362D01*
X348937Y194862D02*
X358937D01*
Y179862*
X348937*
Y194862*
X316724Y127953D02*
Y135039D01*
X312724D02*
Y127953D01*
X309724Y131496D02*
X312724D01*
X316724D02*
X319724D01*
X166142Y459260D02*
X173228D01*
Y463260D02*
X166142D01*
X169685Y466260D02*
Y463260D01*
Y459260D02*
Y456260D01*
X376653Y349094D02*
Y279094D01*
X396653*
Y349094*
X376653*
X389559Y175197D02*
Y182283D01*
X385559D02*
Y175197D01*
X382559Y178740D02*
X385559D01*
X389559D02*
X392559D01*
X345276Y142709D02*
X338189D01*
Y138709D02*
X345276D01*
X341732Y135709D02*
Y138709D01*
Y142709D02*
Y145709D01*
X280709Y232079D02*
X273622D01*
Y228079D02*
X280709D01*
X277165Y225079D02*
Y228079D01*
Y232079D02*
Y235079D01*
X181496Y280520D02*
X188583D01*
Y284520D02*
X181496D01*
X185039Y287520D02*
Y284520D01*
Y280520D02*
Y277520D01*
X316724Y118110D02*
Y125197D01*
X312724D02*
Y118110D01*
X309724Y121654D02*
X312724D01*
X316724D02*
X319724D01*
X406898Y442126D02*
Y435039D01*
X410898D02*
Y442126D01*
X413898Y438583D02*
X410898D01*
X406898D02*
X403898D01*
X415354Y332094D02*
X422441D01*
Y336094D02*
X415354D01*
X418898Y339094D02*
Y336094D01*
Y332094D02*
Y329094D01*
X202756Y332094D02*
X209843D01*
Y336094D02*
X202756D01*
X206299Y339094D02*
Y336094D01*
Y332094D02*
Y329094D01*
G54D29*
X148307Y349094D02*
Y299094D01*
X138307*
Y349094*
X148307*
X356969D02*
Y299094D01*
X346969*
Y349094*
X356969*
X272669Y119181D02*
X275669D01*
X277669Y121181*
Y124181*
Y178181D02*
Y183181D01*
X272669*
X218669D02*
X213669D01*
Y178181*
X218669Y119181D02*
X213669D01*
Y124181*
X187677Y211299D02*
Y121299D01*
X177677*
Y211299*
X187677*
X280197Y201299D02*
X190197D01*
Y211299*
X280197*
Y201299*
X375063Y475079D02*
X374835Y475704D01*
X374381Y476329*
X373926Y476641*
X373017*
X372563Y476329*
X372108Y475704*
X371881Y475079*
X371654Y474141*
Y472579*
X371881Y471641*
X372108Y471016*
X372563Y470391*
X373017Y470079*
X373926*
X374381Y470391*
X374835Y471016*
X375063Y471641*
Y472579*
X373926D02*
X375063D01*
X380290Y475704D02*
X379835Y476329D01*
X379154Y476641*
X378244*
X377563Y476329*
X377108Y475704*
Y475079*
X377335Y474454*
X377563Y474141*
X378017Y473829*
X379381Y473204*
X379835Y472891*
X380063Y472579*
X380290Y471954*
Y471016*
X379835Y470391*
X379154Y470079*
X378244*
X377563Y470391*
X377108Y471016*
X382335Y475391D02*
X382790Y475704D01*
X383472Y476641*
Y470079*
X386881Y476641D02*
X386199Y476329D01*
X385744Y475391*
X385517Y473829*
Y472891*
X385744Y471329*
X386199Y470391*
X386881Y470079*
X387335*
X388017Y470391*
X388472Y471329*
X388699Y472891*
Y473829*
X388472Y475391*
X388017Y476329*
X387335Y476641*
X386881*
X392108D02*
X391426Y476329D01*
X390972Y475391*
X390744Y473829*
Y472891*
X390972Y471329*
X391426Y470391*
X392108Y470079*
X392563*
X393244Y470391*
X393699Y471329*
X393926Y472891*
Y473829*
X393699Y475391*
X393244Y476329*
X392563Y476641*
X392108*
X395972D02*
Y470079D01*
Y476641D02*
X398926D01*
X395972Y473516D02*
X397790D01*
X400972Y476641D02*
Y470079D01*
Y476641D02*
X404154Y470079D01*
Y476641D02*
Y470079D01*
X406199Y476641D02*
Y470079D01*
Y476641D02*
X407790D01*
X408472Y476329*
X408926Y475704*
X409154Y475079*
X409381Y474141*
Y472579*
X409154Y471641*
X408926Y471016*
X408472Y470391*
X407790Y470079*
X406199*
X418472Y476641D02*
X416654Y470079D01*
X418472Y476641D02*
X420290Y470079D01*
X417335Y472266D02*
X419608D01*
X423699Y476641D02*
X423017Y476329D01*
X422563Y475391*
X422335Y473829*
Y472891*
X422563Y471329*
X423017Y470391*
X423699Y470079*
X424154*
X424835Y470391*
X425290Y471329*
X425517Y472891*
Y473829*
X425290Y475391*
X424835Y476329*
X424154Y476641*
X423699*
X430290Y475704D02*
X430063Y476329D01*
X429381Y476641*
X428926*
X428244Y476329*
X427790Y475391*
X427563Y473829*
Y472266*
X427790Y471016*
X428244Y470391*
X428926Y470079*
X429154*
X429835Y470391*
X430290Y471016*
X430517Y471954*
Y472266*
X430290Y473204*
X429835Y473829*
X429154Y474141*
X428926*
X428244Y473829*
X427790Y473204*
X427563Y472266*
X432563Y475391D02*
X433017Y475704D01*
X433699Y476641*
Y470079*
X435744Y475391D02*
X436199Y475704D01*
X436881Y476641*
Y470079*
X100000Y100000D02*
X454331D01*
Y521260*
X100000*
Y100000*
G54D43*
X240669Y300039D02*
X310669D01*
Y280039*
X243669*
X240669Y283039*
Y300039*
G54D44*
X107767Y228642D02*
Y223991D01*
Y228642D02*
X109055Y223991D01*
X110344Y228642D02*
X109055Y223991D01*
X110344Y228642D02*
Y223991D01*
X112921Y228642D02*
Y223991D01*
X111793Y228642D02*
X114048D01*
X115497D02*
Y223991D01*
X117752Y228642D02*
Y223991D01*
X115497Y226427D02*
X117752D01*
X120168Y228642D02*
X119846Y228420D01*
X119524Y227977*
X119363Y227534*
X119202Y226870*
Y225763*
X119363Y225098*
X119524Y224656*
X119846Y224213*
X120168Y223991*
X120812*
X121135Y224213*
X121457Y224656*
X121618Y225098*
X121779Y225763*
Y226870*
X121618Y227534*
X121457Y227977*
X121135Y228420*
X120812Y228642*
X120168*
X123228D02*
Y223991D01*
X125161*
X126611Y228642D02*
Y223991D01*
Y228642D02*
X128704D01*
X126611Y226427D02*
X127899D01*
X126611Y223991D02*
X128704D01*
X130476Y228642D02*
X132248D01*
X131281Y226870*
X131764*
X132087Y226649*
X132248Y226427*
X132409Y225763*
Y225320*
X132248Y224656*
X131926Y224213*
X131442Y223991*
X130959*
X130476Y224213*
X130315Y224434*
X130154Y224877*
X422003Y228642D02*
Y223991D01*
Y228642D02*
X423291Y223991D01*
X424579Y228642D02*
X423291Y223991D01*
X424579Y228642D02*
Y223991D01*
X427156Y228642D02*
Y223991D01*
X426029Y228642D02*
X428284D01*
X429733D02*
Y223991D01*
X431988Y228642D02*
Y223991D01*
X429733Y226427D02*
X431988D01*
X434404Y228642D02*
X434082Y228420D01*
X433760Y227977*
X433599Y227534*
X433438Y226870*
Y225763*
X433599Y225098*
X433760Y224656*
X434082Y224213*
X434404Y223991*
X435048*
X435370Y224213*
X435693Y224656*
X435854Y225098*
X436015Y225763*
Y226870*
X435854Y227534*
X435693Y227977*
X435370Y228420*
X435048Y228642*
X434404*
X437464D02*
Y223991D01*
X439397*
X440846Y228642D02*
Y223991D01*
Y228642D02*
X442940D01*
X440846Y226427D02*
X442135D01*
X440846Y223991D02*
X442940D01*
X446000Y228642D02*
X444390Y225541D01*
X446806*
X446000Y228642D02*
Y223991D01*
X242350Y273094D02*
X242189Y273506D01*
X241866Y273918*
X241866D02*
X241544Y274124D01*
X240900*
X240578Y273918*
X240256Y273506*
X240095Y273094*
X239934Y272477*
Y271448*
X240095Y270830*
X240256Y270419*
X240578Y270007*
X240900Y269801*
X241544*
X241866Y270007*
X241866D02*
X242189Y270419D01*
X242350Y270830*
X244766Y274124D02*
X244443Y273918D01*
X244121Y273506*
X243960Y273094*
X243799Y272477*
Y271448*
X243960Y270830*
X244121Y270419*
X244443Y270007*
X244766Y269801*
X245410*
X245732Y270007*
X246054Y270419*
X246215Y270830*
X246376Y271448*
Y272477*
X246215Y273094*
X246054Y273506*
X245732Y273918*
X245410Y274124*
X244766*
X247826D02*
Y269801D01*
Y274124D02*
X250081Y269801D01*
Y274124D02*
Y269801D01*
X251530Y273300D02*
X251852Y273506D01*
X252335Y274124*
Y269801*
X366462Y190551D02*
X361811D01*
Y188618*
X365354Y187008D02*
X365576D01*
X366019Y186847*
X366240Y186686*
X366462Y186364*
Y185719*
X366240Y185397*
X366019Y185236*
X365576Y185075*
X365133*
X364690Y185236*
X364026Y185558*
X361811Y187169*
Y184914*
X138952Y357272D02*
Y352622D01*
Y357272D02*
X140401D01*
X140884Y357051*
X141046Y356829*
X141207Y356386*
Y355944*
X141046Y355501*
X140884Y355279*
X140401Y355058*
X138952*
X140079D02*
X141207Y352622D01*
X143945Y357272D02*
X142656Y352622D01*
X143945Y357272D02*
X145233Y352622D01*
X143139Y354172D02*
X144750D01*
X146683Y356386D02*
X147005Y356608D01*
X147488Y357272*
Y352622*
X164639Y241757D02*
X164316Y242200D01*
X163833Y242421*
X163189*
X162706Y242200*
X162384Y241757*
Y241314*
X162545Y240871*
X162706Y240650*
X163028Y240428*
X163994Y239985*
X164316Y239764*
X164477Y239542*
X164639Y239099*
Y238435*
X164316Y237992*
X163833Y237771*
X163189*
X162706Y237992*
X162384Y238435*
X166088Y241535D02*
X166410Y241757D01*
X166893Y242421*
Y237771*
X168873Y357228D02*
Y353906D01*
X169034Y353241*
X169356Y352798*
X169839Y352577*
X170162*
X170645Y352798*
X170967Y353241*
X171128Y353906*
Y357228*
X172577Y356342D02*
X172900Y356563D01*
X173383Y357228*
Y352577*
X238717Y241757D02*
X238395Y242200D01*
X237912Y242421*
X237267*
X236784Y242200*
X236462Y241757*
Y241314*
X236623Y240871*
X236784Y240650*
X237106Y240428*
X238073Y239985*
X238395Y239764*
X238556Y239542*
X238717Y239099*
Y238435*
X238395Y237992*
X237912Y237771*
X237267*
X236784Y237992*
X236462Y238435*
X240327Y241314D02*
Y241535D01*
X240489Y241978*
X240650Y242200*
X240972Y242421*
X241616*
X241938Y242200*
X242099Y241978*
X242260Y241535*
Y241093*
X242099Y240650*
X241777Y239985*
X240166Y237771*
X242421*
X341314Y356816D02*
Y352165D01*
Y356816D02*
X342764D01*
X343247Y356594*
X343408Y356373*
X343569Y355930*
Y355487*
X343408Y355044*
X343247Y354823*
X342764Y354601*
X341314*
X342441D02*
X343569Y352165D01*
X346307Y356816D02*
X345018Y352165D01*
X346307Y356816D02*
X347595Y352165D01*
X345502Y353716D02*
X347112D01*
X349206Y355709D02*
Y355930D01*
X349367Y356373*
X349528Y356594*
X349850Y356816*
X350494*
X350816Y356594*
X350978Y356373*
X351139Y355930*
Y355487*
X350978Y355044*
X350655Y354380*
X349045Y352165*
X351300*
X413592Y432785D02*
Y428462D01*
X415524*
X416974Y432785D02*
Y428462D01*
Y432785D02*
X419068D01*
X416974Y430727D02*
X418262D01*
X416974Y428462D02*
X419068D01*
X420678Y431756D02*
Y431962D01*
X420839Y432373*
X421000Y432579*
X421322Y432785*
X421967*
X422289Y432579*
X422450Y432373*
X422611Y431962*
Y431550*
X422450Y431138*
X422128Y430521*
X420517Y428462*
X422772*
X413985Y385935D02*
Y381612D01*
X415918*
X417368Y385935D02*
Y381612D01*
Y385935D02*
X419461D01*
X417368Y383876D02*
X418656D01*
X417368Y381612D02*
X419461D01*
X421233Y385935D02*
X423005D01*
X422038Y384288*
X422521*
X422844Y384082*
X423005Y383876*
X423166Y383259*
Y382847*
X423005Y382230*
X422683Y381818*
X422199Y381612*
X421716*
X421233Y381818*
X421072Y382024*
X420911Y382435*
X313520Y241757D02*
X313198Y242200D01*
X312715Y242421*
X312071*
X311587Y242200*
X311265Y241757*
Y241314*
X311426Y240871*
X311587Y240650*
X311909Y240428*
X312876Y239985*
X313198Y239764*
X313359Y239542*
X313520Y239099*
Y238435*
X313198Y237992*
X312715Y237771*
X312071*
X311587Y237992*
X311265Y238435*
X315292Y242421D02*
X317063D01*
X316097Y240650*
X316580*
X316902Y240428*
X317063Y240207*
X317224Y239542*
Y239099*
X317063Y238435*
X316741Y237992*
X316258Y237771*
X315775*
X315292Y237992*
X315131Y238214*
X314970Y238656*
X388243Y241757D02*
X387921Y242200D01*
X387437Y242421*
X386793*
X386310Y242200*
X385988Y241757*
Y241314*
X386149Y240871*
X386310Y240650*
X386632Y240428*
X387598Y239985*
X387921Y239764*
X388082Y239542*
X388243Y239099*
Y238435*
X387921Y237992*
X387437Y237771*
X386793*
X386310Y237992*
X385988Y238435*
X391303Y242421D02*
X389692Y239321D01*
X392108*
X391303Y242421D02*
Y237771D01*
X384670Y417491D02*
Y412840D01*
Y417491D02*
X386120D01*
X386603Y417269*
X386764Y417048*
X386925Y416605*
Y416162*
X386764Y415719*
X386603Y415497*
X386120Y415276*
X384670*
X385798D02*
X386925Y412840D01*
X390468Y415940D02*
X390307Y415276D01*
X389985Y414833*
X389502Y414612*
X389341*
X388858Y414833*
X388536Y415276*
X388375Y415940*
Y416162*
X388536Y416826*
X388858Y417269*
X389341Y417491*
X389502*
X389985Y417269*
X390307Y416826*
X390468Y415940*
Y414833*
X390307Y413726*
X389985Y413061*
X389502Y412840*
X389180*
X388697Y413061*
X388536Y413504*
X396088Y418359D02*
Y413708D01*
Y418359D02*
X397537D01*
X398020Y418137*
X398181Y417916*
X398342Y417473*
Y417030*
X398181Y416587*
X398020Y416365*
X397537Y416144*
X396088*
X397215D02*
X398342Y413708D01*
X399792Y417473D02*
X400114Y417694D01*
X400597Y418359*
Y413708*
X403013Y418359D02*
X402530Y418137D01*
X402208Y417473*
X402047Y416365*
Y415701*
X402208Y414594*
X402530Y413929*
X403013Y413708*
X403335*
X403818Y413929*
X404141Y414594*
X404302Y415701*
Y416365*
X404141Y417473*
X403818Y418137*
X403335Y418359*
X403013*
X356594Y189835D02*
X351944D01*
Y187903*
X355709Y186453D02*
X355930Y186131D01*
X356594Y185648*
X351944*
X315014Y137992D02*
X314853Y138435D01*
X314531Y138878*
X314209Y139099*
X313565*
X313243Y138878*
X312921Y138435*
X312759Y137992*
X312598Y137328*
Y136220*
X312759Y135556*
X312921Y135113*
X313243Y134670*
X313565Y134449*
X314209*
X314531Y134670*
X314853Y135113*
X315014Y135556*
X318074Y139099D02*
X316464Y135999D01*
X318880*
X318074Y139099D02*
Y134449D01*
X157509Y481416D02*
X157348Y481858D01*
X157026Y482301*
X156704Y482523*
X156060*
X155738Y482301*
X155416Y481858*
X155255Y481416*
X155094Y480751*
X155094D02*
Y479644D01*
X155094D02*
X155255Y478980D01*
X155416Y478537*
X155738Y478094*
X156060Y477872*
X156704*
X157026Y478094*
X157348Y478537*
X157509Y478980*
X158959Y481637D02*
X159281Y481858D01*
X159764Y482523*
Y477872*
X291061Y141289D02*
Y136639D01*
Y141289D02*
X292511D01*
X292994Y141068*
X293155Y140846*
X293316Y140404*
Y139961*
X293155Y139518*
X292994Y139296*
X292511Y139075*
X291061D02*
X292511D01*
X292994Y138853*
X293155Y138632*
X293316Y138189*
Y137525*
X293155Y137082*
X292994Y136860*
X292511Y136639*
X291061*
X297181Y140182D02*
X297020Y140625D01*
X296698Y141068*
X296376Y141289*
X295732*
X295410Y141068*
X295088Y140625*
X294927Y140182*
X294766Y139518*
Y138410*
X294927Y137746*
X295088Y137303*
X295410Y136860*
X295732Y136639*
X296376*
X296698Y136860*
X297020Y137303*
X297181Y137746*
X300886Y141289D02*
X299275Y136639D01*
X298631Y141289D02*
X300886D01*
X273380Y115305D02*
Y111983D01*
X273542Y111319*
X273864Y110876*
X274347Y110655*
X274669*
X275152Y110876*
X275474Y111319*
X275635Y111983*
Y115305*
X277407D02*
X279179D01*
X278212Y113533*
X278695*
X279018Y113312*
X279179Y113091*
X279340Y112426*
Y111983*
X279179Y111319*
X278856Y110876*
X278373Y110655*
X277890*
X277407Y110876*
X277246Y111097*
X277085Y111540*
X179823Y466652D02*
X175172D01*
X179823D02*
Y465202D01*
X179601Y464719*
X179380Y464558*
X178937Y464397*
X178494*
X178051Y464558*
X177830Y464719*
X177608Y465202*
Y466652D02*
Y465202D01*
X177387Y464719*
X177165Y464558*
X176722Y464397*
X176058*
X175615Y464558*
X175394Y464719*
X175172Y465202*
Y466652*
X178716Y460531D02*
X179158Y460693D01*
X179601Y461015*
X179823Y461337*
Y461981*
X179601Y462303*
X179158Y462625*
X178716Y462786*
X178051Y462947*
X176944*
X176280Y462786*
X175837Y462625*
X175394Y462303*
X175172Y461981*
Y461337*
X175394Y461015*
X175837Y460693*
X176280Y460531*
X178937Y459082D02*
X179158Y458760D01*
X179823Y458277*
X175172*
X423720Y171211D02*
Y166560D01*
Y171211D02*
X425170D01*
X425653Y170989*
X425814Y170768*
X425975Y170325*
Y169882*
X425814Y169439*
X425653Y169218*
X425170Y168996*
X423720*
X424848D02*
X425975Y166560D01*
X427425Y170325D02*
X427747Y170546D01*
X428230Y171211*
Y166560*
X430485Y171211D02*
X430002Y170989D01*
X429841Y170546*
Y170103*
X430002Y169660*
X430324Y169439*
X430968Y169218*
X431451Y168996*
X431773Y168553*
X431935Y168110*
X431935D02*
Y167446D01*
X431935D02*
X431773Y167003D01*
X431612Y166781*
X431612D02*
X431129Y166560D01*
X430485*
X430002Y166781*
X430002D02*
X429841Y167003D01*
X429680Y167446*
Y168110*
X429841Y168553*
X430163Y168996*
X430646Y169218*
X431290Y169439*
X431612Y169660*
X431773Y170103*
Y170546*
X431612Y170989*
X431129Y171211*
X430485*
X425394Y159744D02*
Y155094D01*
Y159744D02*
X426843D01*
X427326Y159523*
X427487Y159301*
X427649Y158858*
Y158415*
X427487Y157972*
X427326Y157751*
X426843Y157530*
X425394*
X426521D02*
X427649Y155094D01*
X429098Y158858D02*
X429420Y159080D01*
X429903Y159744*
Y155094*
X433447Y158194D02*
X433286Y157530D01*
X432963Y157087*
X432480Y156865*
X432319*
X431836Y157087*
X431514Y157530*
X431353Y158194*
Y158415*
X431514Y159080*
X431836Y159523*
X432319Y159744*
X432480*
X432963Y159523*
X433286Y159080*
X433447Y158194*
Y157087*
X433286Y155979*
X432963Y155315*
X432480Y155094*
X432158*
X431675Y155315*
X431514Y155758*
X377534Y357559D02*
Y354237D01*
X377696Y353572*
X378018Y353129*
X378501Y352908*
X378823*
X379306Y353129*
X379628Y353572*
X379789Y354237*
Y357559*
X381400Y356451D02*
Y356673D01*
X381561Y357116*
X381722Y357337*
X382044Y357559*
X382688*
X383010Y357337*
X383172Y357116*
X383333Y356673*
Y356230*
X383172Y355787*
X382849Y355123*
X381239Y352908*
X383494*
X406961Y180290D02*
X406800Y180733D01*
X406478Y181176*
X406156Y181398*
X405512*
X405190Y181176*
X404868Y180733*
X404707Y180290*
X404545Y179626*
Y178519*
X404707Y177854*
X404868Y177411*
X405190Y176969*
X405512Y176747*
X406156*
X406478Y176969*
X406800Y177411*
X406961Y177854*
X408572Y180290D02*
Y180512D01*
X408733Y180955*
X408894Y181176*
X409216Y181398*
X409860*
X410183Y181176*
X410344Y180955*
X410505Y180512*
Y180069*
X410344Y179626*
X410021Y178962*
X408411Y176747*
X410666*
X388809Y120191D02*
X388537Y120566D01*
X388127Y120754*
X387582*
X387173Y120566*
X386900Y120191*
Y119816*
X387037Y119441*
X387173Y119254*
X387446Y119066*
X388264Y118691*
X388537Y118504*
X388673Y118316*
X388809Y117941*
Y117379*
X388537Y117004*
X388127Y116816*
X387582*
X387173Y117004*
X386900Y117379*
X391809Y120754D02*
X390446D01*
X390309Y119066*
X390446Y119254*
X390855Y119441*
X391264*
X391673Y119254*
X391946Y118879*
X392082Y118316*
X391946Y117941*
X391809Y117379*
X391537Y117004*
X391127Y116816*
X390718*
X390309Y117004*
X390173Y117191*
X390037Y117566*
X131639Y433572D02*
Y429250D01*
X133572*
X135021Y433572D02*
Y429250D01*
Y433572D02*
X137115D01*
X135021Y431514D02*
X136310D01*
X135021Y429250D02*
X137115D01*
X138565Y432749D02*
X138887Y432955D01*
X139370Y433572*
Y429250*
X156324Y418278D02*
Y413627D01*
Y418278D02*
X157773D01*
X158257Y418057*
X158418Y417835*
X158579Y417392*
Y416949*
X158418Y416506*
X158257Y416285*
X157773Y416063*
X156324*
X157451D02*
X158579Y413627D01*
X160833Y418278D02*
X160350Y418057D01*
X160189Y417614*
Y417171*
X160350Y416728*
X160672Y416506*
X161317Y416285*
X161800Y416063*
X162122Y415621*
X162283Y415178*
Y414513*
X162122Y414070*
X161961Y413849*
X161478Y413627*
X160833*
X160350Y413849*
X160189Y414070*
X160028Y414513*
Y415178*
X160189Y415621*
X160511Y416063*
X160995Y416285*
X161639Y416506*
X161961Y416728*
X162122Y417171*
Y417614*
X161961Y418057*
X161478Y418278*
X160833*
X338214Y114735D02*
Y110084D01*
Y114735D02*
X339663D01*
X340146Y114513*
X340307Y114292*
X340468Y113849*
Y113406*
X340307Y112963*
X340146Y112742*
X339663Y112520*
X338214*
X339341D02*
X340468Y110084D01*
X342079Y113627D02*
Y113849D01*
X342240Y114292*
X342401Y114513*
X342723Y114735*
X343367*
X343690Y114513*
X343851Y114292*
X344012Y113849*
Y113406*
X343851Y112963*
X343529Y112299*
X341918Y110084*
X344173*
X345622Y113849D02*
X345944Y114070D01*
X346428Y114735*
Y110084*
X338267Y124571D02*
X338106Y125013D01*
X337784Y125456*
X337462Y125678*
X336818*
X336496Y125456*
X336173Y125013*
X336012Y124571*
X335851Y123906*
Y122799*
X336012Y122134*
X336173Y121692*
X336496Y121249*
X336818Y121027*
X337462*
X337784Y121249*
X338106Y121692*
X338267Y122134*
X341811Y125678D02*
X340200D01*
X340039Y123685*
X340200Y123906*
X340683Y124128*
X341166*
X341650Y123906*
X341972Y123463*
X342133Y122799*
X341972Y122356*
X341811Y121692*
X341488Y121249*
X341005Y121027*
X340522*
X340039Y121249*
X339878Y121470*
X339717Y121913*
X181201Y448327D02*
Y443676D01*
Y448327D02*
X183295D01*
X181201Y446112D02*
X182489D01*
X184744Y448327D02*
Y443676D01*
Y448327D02*
X186999Y443676D01*
Y448327D02*
Y443676D01*
X188448Y448327D02*
Y443676D01*
Y448327D02*
X189576D01*
X190059Y448105*
X190381Y447662*
X190542Y447219*
X190703Y446555*
Y445448*
X190542Y444783*
X190381Y444341*
X190059Y443898*
X189576Y443676*
X188448*
X192153Y447441D02*
X192475Y447662D01*
X192958Y448327*
Y443676*
X166560Y205026D02*
Y200376D01*
Y205026D02*
X168010D01*
X168493Y204805*
X168654Y204583*
X168815Y204141*
Y203698*
X168654Y203255*
X168493Y203033*
X168010Y202812*
X166560*
X167687D02*
X168815Y200376D01*
X170264Y204141D02*
X170587Y204362D01*
X171070Y205026*
Y200376*
X174452Y204362D02*
X174291Y204805D01*
X173808Y205026*
X173486*
X173002Y204805*
X172680Y204141*
X172519Y203033*
Y201926*
X172680Y201040*
X173002Y200597*
X173486Y200376*
X173647*
X174130Y200597*
X174452Y201040*
X174613Y201705*
Y201926*
X174452Y202590*
X174130Y203033*
X173647Y203255*
X173486*
X173002Y203033*
X172680Y202590*
X172519Y201926*
X179035Y482185D02*
Y477534D01*
Y482185D02*
X180485D01*
X180968Y481964*
X181129Y481742*
X181290Y481299*
Y480856*
X181129Y480413*
X180968Y480192*
X180485Y479970*
X179035*
X180163D02*
X181290Y477534D01*
X184834Y482185D02*
X183223D01*
X183062Y480192*
X183223Y480413*
X183706Y480635*
X184189*
X184673Y480413*
X184995Y479970*
X185156Y479306*
X184995Y478863*
X184834Y478199*
X184511Y477756*
X184028Y477534*
X183545*
X183062Y477756*
X182901Y477977*
X182740Y478420*
X243289Y475098D02*
Y470448D01*
Y475098D02*
X244739D01*
X245222Y474877*
X245383Y474656*
X245544Y474213*
Y473770*
X245383Y473327*
X245222Y473105*
X244739Y472884*
X243289*
X244417D02*
X245544Y470448D01*
X248926Y474434D02*
X248765Y474877D01*
X248282Y475098*
X247960*
X247477Y474877*
X247155Y474213*
X246994Y473105*
Y471998*
X247155Y471112*
X247477Y470669*
X247960Y470448*
X248121*
X248604Y470669*
X248926Y471112*
X249087Y471777*
Y471998*
X248926Y472662*
X248604Y473105*
X248121Y473327*
X247960*
X247477Y473105*
X247155Y472662*
X246994Y471998*
X321188Y338878D02*
Y334227D01*
Y338878D02*
X322638D01*
X323121Y338656*
X323282Y338435*
X323443Y337992*
Y337549*
X323282Y337106*
X323121Y336885*
X322638Y336663*
X321188*
X322316D02*
X323443Y334227D01*
X324893Y337992D02*
X325215Y338214D01*
X325698Y338878*
Y334227*
X328758Y338878D02*
X327147Y335778D01*
X329563*
X328758Y338878D02*
Y334227D01*
X218406Y360531D02*
Y355881D01*
Y360531D02*
X219855D01*
X220338Y360310*
X220499Y360089*
X220660Y359646*
Y359203*
X220499Y358760*
X220338Y358538*
X219855Y358317*
X218406*
X219533D02*
X220660Y355881D01*
X222110Y359646D02*
X222432Y359867D01*
X222915Y360531*
Y355881*
X224365Y359646D02*
X224687Y359867D01*
X225170Y360531*
Y355881*
X230923Y329035D02*
Y324385D01*
Y329035D02*
X232373D01*
X232856Y328814*
X233017Y328593*
X233178Y328150*
Y327707*
X233017Y327264*
X232856Y327042*
X232373Y326821*
X230923*
X232051D02*
X233178Y324385D01*
X234628Y328150D02*
X234950Y328371D01*
X235433Y329035*
Y324385*
X237205Y329035D02*
X238976D01*
X238010Y327264*
X238493*
X238815Y327042*
X238976Y326821*
X239137Y326156*
Y325714*
X238976Y325049*
X238654Y324606*
X238171Y324385*
X237688*
X237205Y324606*
X237044Y324828*
X236883Y325271*
X347029Y482234D02*
Y477584D01*
Y482234D02*
X348479D01*
X348962Y482013*
X349123Y481791*
X349284Y481348*
Y480906*
X349123Y480463*
X348962Y480241*
X348479Y480020*
X347029*
X348157D02*
X349284Y477584D01*
X352989Y482234D02*
X351378Y477584D01*
X350734Y482234D02*
X352989D01*
X270768Y360531D02*
Y355881D01*
Y360531D02*
X272217D01*
X272700Y360310*
X272861Y360089*
X273023Y359646*
Y359203*
X272861Y358760*
X272700Y358538*
X272217Y358317*
X270768*
X271895D02*
X273023Y355881D01*
X274472Y359646D02*
X274794Y359867D01*
X275277Y360531*
Y355881*
X276888Y359424D02*
Y359646D01*
X277049Y360089*
X277210Y360310*
X277532Y360531*
X278176*
X278499Y360310*
X278660Y360089*
X278821Y359646*
Y359203*
X278660Y358760*
X278338Y358095*
X276727Y355881*
X278982*
X262831Y325886D02*
Y321235D01*
Y325886D02*
X264281D01*
X264764Y325664*
X264925Y325443*
X265086Y325000*
Y324557*
X264925Y324114*
X264764Y323893*
X264281Y323671*
X262831*
X263958D02*
X265086Y321235D01*
X266535Y325000D02*
X266858Y325221D01*
X267341Y325886*
Y321235*
X270884Y325886D02*
X269273D01*
X269112Y323893*
X269273Y324114*
X269757Y324336*
X270240*
X270723Y324114*
X271045Y323671*
X271206Y323007*
X271045Y322564*
X270884Y321900*
X270562Y321457*
X270079Y321235*
X269596*
X269112Y321457*
X268951Y321678*
X268790Y322121*
X227505Y464862D02*
X227183Y464641D01*
X226861Y464198*
X226700Y463755*
X226539Y463091*
Y461983*
X226700Y461319*
X226861Y460876*
X227183Y460433*
X227505Y460212*
X228150*
X228472Y460433*
X228794Y460876*
X228955Y461319*
X229116Y461983*
Y463091*
X228955Y463755*
X228794Y464198*
X228472Y464641*
X228150Y464862*
X227505*
X227989Y461097D02*
X228955Y459769D01*
X230565Y463976D02*
X230888Y464198D01*
X231371Y464862*
Y460212*
X260889Y464862D02*
X260567Y464641D01*
X260245Y464198*
X260084Y463755*
X259923Y463091*
Y461983*
X260084Y461319*
X260245Y460876*
X260567Y460433*
X260889Y460212*
X261534*
X261856Y460433*
X262178Y460876*
X262339Y461319*
X262500Y461983*
Y463091*
X262339Y463755*
X262178Y464198*
X261856Y464641*
X261534Y464862*
X260889*
X261373Y461097D02*
X262339Y459769D01*
X264111Y463755D02*
Y463976D01*
X264272Y464419*
X264433Y464641*
X264755Y464862*
X265399*
X265721Y464641*
X265882Y464419*
X266043Y463976*
Y463533*
X265882Y463091*
X265560Y462426*
X263950Y460212*
X266204*
X290497Y462894D02*
X290175Y462672D01*
X289853Y462229*
X289692Y461786*
X289531Y461122*
Y460015*
X289692Y459350*
X289853Y458907*
X290175Y458465*
X290497Y458243*
X291142*
X291464Y458465*
X291786Y458907*
X291947Y459350*
X292108Y460015*
Y461122*
X291947Y461786*
X291786Y462229*
X291464Y462672*
X291142Y462894*
X290497*
X290981Y459129D02*
X291947Y457800D01*
X293880Y462894D02*
X295651D01*
X294685Y461122*
X295168*
X295490Y460901*
X295651Y460679*
X295812Y460015*
Y459572*
X295651Y458907*
X295329Y458465*
X294846Y458243*
X294363*
X293880Y458465*
X293719Y458686*
X293558Y459129*
X318817Y464862D02*
X318495Y464641D01*
X318173Y464198*
X318012Y463755*
X317851Y463091*
Y461983*
X318012Y461319*
X318173Y460876*
X318495Y460433*
X318817Y460212*
X319461*
X319783Y460433*
X320106Y460876*
X320267Y461319*
X320428Y461983*
Y463091*
X320267Y463755*
X320106Y464198*
X319783Y464641*
X319461Y464862*
X318817*
X319300Y461097D02*
X320267Y459769D01*
X323488Y464862D02*
X321877Y461762D01*
X324293*
X323488Y464862D02*
Y460212D01*
X191518Y504232D02*
Y499582D01*
Y504232D02*
X192967D01*
X193450Y504011*
X193611Y503789*
X193772Y503346*
Y502904*
X193611Y502461*
X193450Y502239*
X192967Y502018*
X191518*
X192645D02*
X193772Y499582D01*
X195222Y503346D02*
X195544Y503568D01*
X196027Y504232*
Y499582*
X244649Y503839D02*
Y499188D01*
Y503839D02*
X246099D01*
X246582Y503617*
X246743Y503396*
X246904Y502953*
Y502510*
X246743Y502067*
X246582Y501845*
X246099Y501624*
X244649*
X245777D02*
X246904Y499188D01*
X248515Y502731D02*
Y502953D01*
X248676Y503396*
X248837Y503617*
X249159Y503839*
X249803*
X250125Y503617*
X250286Y503396*
X250447Y502953*
Y502510*
X250286Y502067*
X249964Y501403*
X248354Y499188*
X250608*
X349445Y504281D02*
Y499631D01*
Y504281D02*
X350895D01*
X351378Y504060*
X351539Y503839*
X351700Y503396*
Y502953*
X351539Y502510*
X351378Y502288*
X350895Y502067*
X349445*
X350573D02*
X351700Y499631D01*
X354760Y504281D02*
X353150Y501181D01*
X355565*
X354760Y504281D02*
Y499631D01*
X297092Y504232D02*
Y499582D01*
Y504232D02*
X298542D01*
X299025Y504011*
X299186Y503789*
X299347Y503346*
Y502904*
X299186Y502461*
X299025Y502239*
X298542Y502018*
X297092*
X298219D02*
X299347Y499582D01*
X301118Y504232D02*
X302890D01*
X301924Y502461*
X302407*
X302729Y502239*
X302890Y502018*
X303051Y501353*
Y500910*
X302890Y500246*
X302568Y499803*
X302085Y499582*
X301602*
X301118Y499803*
X300957Y500025*
X300796Y500468*
X422835Y504257D02*
Y499606D01*
Y504257D02*
X424123Y499606D01*
X425412Y504257D02*
X424123Y499606D01*
X425412Y504257D02*
Y499606D01*
X427989Y504257D02*
Y499606D01*
X426861Y504257D02*
X429116D01*
X430565D02*
Y499606D01*
X432820Y504257D02*
Y499606D01*
X430565Y502042D02*
X432820D01*
X435236Y504257D02*
X434914Y504035D01*
X434592Y503593*
X434431Y503150*
X434270Y502485*
Y501378*
X434431Y500714*
X434592Y500271*
X434914Y499828*
X435236Y499606*
X435880*
X436203Y499828*
X436525Y500271*
X436686Y500714*
X436847Y501378*
Y502485*
X436686Y503150*
X436525Y503593*
X436203Y504035*
X435880Y504257*
X435236*
X438296D02*
Y499606D01*
X440229*
X441679Y504257D02*
Y499606D01*
Y504257D02*
X443772D01*
X441679Y502042D02*
X442967D01*
X441679Y499606D02*
X443772D01*
X445383Y503150D02*
Y503371D01*
X445544Y503814*
X445705Y504035*
X446027Y504257*
X446671*
X446994Y504035*
X447155Y503814*
X447316Y503371*
Y502928*
X447155Y502485*
X446832Y501821*
X446832D02*
X445222Y499606D01*
X447477*
X108930Y504232D02*
Y499582D01*
Y504232D02*
X110218Y499582D01*
X111507Y504232D02*
X110218Y499582D01*
X111507Y504232D02*
Y499582D01*
X114084Y504232D02*
Y499582D01*
X112956Y504232D02*
X115211D01*
X116661D02*
Y499582D01*
X118916Y504232D02*
Y499582D01*
X116661Y502018D02*
X118916D01*
X121331Y504232D02*
X121009Y504011D01*
X120687Y503568*
X120526Y503125*
X120365Y502461*
Y501353*
X120526Y500689*
X120687Y500246*
X121009Y499803*
X121331Y499582*
X121976*
X122298Y499803*
X122620Y500246*
X122781Y500689*
X122942Y501353*
Y502461*
X122781Y503125*
X122620Y503568*
X122298Y504011*
X121976Y504232*
X121331*
X124392D02*
Y499582D01*
X126324*
X127774Y504232D02*
Y499582D01*
Y504232D02*
X129868D01*
X127774Y502018D02*
X129062D01*
X127774Y499582D02*
X129868D01*
X131317Y503346D02*
X131639Y503568D01*
X132122Y504232*
Y499582*
X279035Y256335D02*
X274385D01*
X279035D02*
Y254885D01*
X278814Y254402*
X278593Y254241*
X278150Y254080*
X277707*
X277264Y254241*
X277042Y254402*
X276821Y254885*
Y256335D02*
Y254885D01*
X276599Y254402*
X276378Y254241*
X275935Y254080*
X275271*
X274828Y254241*
X274606Y254402*
X274385Y254885*
Y256335*
X277928Y250215D02*
X278371Y250376D01*
X278814Y250698*
X279035Y251020*
Y251664*
X278814Y251986*
X278371Y252309*
X277928Y252470*
X277264Y252631*
X276156*
X275492Y252470*
X275049Y252309*
X274606Y251986*
X274385Y251664*
Y251020*
X274606Y250698*
X275049Y250376*
X275492Y250215*
X278371Y246832D02*
X278814Y246994D01*
X279035Y247477*
Y247799*
X278814Y248282*
X278150Y248604*
X277042Y248765*
X275935*
X275049Y248604*
X274606Y248282*
X274385Y247799*
Y247638*
X274606Y247155*
X275049Y246832*
X275714Y246671*
X275935*
X276599Y246832*
X277042Y247155*
X277264Y247638*
Y247799*
X277042Y248282*
X276599Y248604*
X275935Y248765*
X152785Y181416D02*
X152624Y181858D01*
X152302Y182301*
X151980Y182523*
X151335*
X151013Y182301*
X150691Y181858*
X150530Y181416*
X150369Y180751*
Y179644*
X150530Y178980*
X150691Y178537*
X151013Y178094*
X151335Y177872*
X151980*
X152302Y178094*
X152624Y178537*
X152785Y178980*
X154557Y182523D02*
X156328D01*
X155362Y180751*
X155845*
X156167Y180530*
X156328Y180308*
X156489Y179644*
Y179201*
X156328Y178537*
X156006Y178094*
X155523Y177872*
X155040*
X154557Y178094*
X154396Y178315*
X154235Y178758*
X158637Y180706D02*
Y176056D01*
Y180706D02*
X160086D01*
X160570Y180485*
X160731Y180264*
X160892Y179821*
Y179378*
X160731Y178935*
X160570Y178713*
X160086Y178492*
X158637*
X159764D02*
X160892Y176056D01*
X162502Y179599D02*
Y179821D01*
X162663Y180264*
X162824Y180485*
X163146Y180706*
X163791*
X164113Y180485*
X164274Y180264*
X164435Y179821*
Y179378*
X164274Y178935*
X163952Y178270*
X162341Y176056*
X164596*
X167012Y180706D02*
X166529Y180485D01*
X166207Y179821*
X166046Y178713*
Y178049*
X166207Y176942*
X166529Y176277*
X167012Y176056*
X167334*
X167817Y176277*
X168139Y176942*
X168300Y178049*
Y178713*
X168139Y179821*
X167817Y180485*
X167334Y180706*
X167012*
X196801Y286811D02*
X192151D01*
X196801D02*
Y285361D01*
X196580Y284878*
X196358Y284717*
X195915Y284556*
X195472*
X195030Y284717*
X194808Y284878*
X194587Y285361*
Y286811D02*
Y285361D01*
X194365Y284878*
X194144Y284717*
X193701Y284556*
X193036*
X192594Y284717*
X192372Y284878*
X192151Y285361*
Y286811*
X195694Y280691D02*
X196137Y280852D01*
X196580Y281174*
X196801Y281496*
Y282140*
X196580Y282462*
X196137Y282785*
X195694Y282946*
X195030Y283107*
X193922*
X193258Y282946*
X192815Y282785*
X192372Y282462*
X192151Y282140*
Y281496*
X192372Y281174*
X192815Y280852*
X193258Y280691*
X196801Y277147D02*
Y278758D01*
X194808Y278919*
X195030Y278758*
X195251Y278275*
Y277792*
X195030Y277309*
X194587Y276986*
X193922Y276825*
X193479Y276986*
X192815Y277147*
X192372Y277470*
X192151Y277953*
Y278436*
X192372Y278919*
X192594Y279080*
X193036Y279241*
X289173Y123967D02*
Y119316D01*
Y123967D02*
X290623D01*
X291106Y123745*
X291267Y123524*
X291428Y123081*
Y122638*
X291267Y122195*
X291106Y121973*
X290623Y121752*
X289173D02*
X290623D01*
X291106Y121531*
X291267Y121309*
X291428Y120866*
Y120202*
X291267Y119759*
X291106Y119537*
X290623Y119316*
X289173*
X295293Y122859D02*
X295132Y123302D01*
X294810Y123745*
X294488Y123967*
X293844*
X293522Y123745*
X293200Y123302*
X293039Y122859*
X292878Y122195*
Y121088*
X293039Y120423*
X293200Y119980*
X293522Y119537*
X293844Y119316*
X294488*
X294810Y119537*
X295132Y119980*
X295293Y120423*
X297548Y123967D02*
X297065Y123745D01*
X296904Y123302*
Y122859*
X297065Y122416*
X297387Y122195*
X298031Y121973*
X298515Y121752*
X298837Y121309*
X298998Y120866*
Y120202*
X298837Y119759*
X298676Y119537*
X298193Y119316*
X297548*
X297065Y119537*
X296904Y119759*
X296743Y120202*
Y120866*
X296904Y121309*
X297226Y121752*
X297709Y121973*
X298354Y122195*
X298676Y122416*
X298837Y122859*
Y123302*
X298676Y123745*
X298193Y123967*
X297548*
X404053Y450344D02*
Y445694D01*
Y450344D02*
X405503D01*
X405986Y450123*
X406147Y449902*
X406308Y449459*
Y449016*
X406147Y448573*
X405986Y448351*
X405503Y448130*
X404053D02*
X405503D01*
X405986Y447908*
X406147Y447687*
X406308Y447244*
Y446580*
X406147Y446137*
X405986Y445915*
X405503Y445694*
X404053*
X410174Y449237D02*
X410013Y449680D01*
X409690Y450123*
X409368Y450344*
X408724*
X408402Y450123*
X408080Y449680*
X407919Y449237*
X407758Y448573*
Y447466*
X407919Y446801*
X408080Y446358*
X408402Y445915*
X408724Y445694*
X409368*
X409690Y445915*
X410013Y446358*
X410174Y446801*
X411784Y449237D02*
Y449459D01*
X411945Y449902*
X412106Y450123*
X412428Y450344*
X413073*
X413395Y450123*
X413556Y449902*
X413717Y449459*
Y449016*
X413556Y448573*
X413234Y447908*
X411623Y445694*
X413878*
X428642Y340336D02*
X423991D01*
X428642D02*
Y338887D01*
X428420Y338404*
X428199Y338243*
X427756Y338082*
X427313*
X426870Y338243*
X426649Y338404*
X426427Y338887*
Y340336D02*
Y338887D01*
X426206Y338404*
X425984Y338243*
X425541Y338082*
X424877*
X424434Y338243*
X424213Y338404*
X423991Y338887*
Y340336*
X427534Y334216D02*
X427977Y334377D01*
X428420Y334699*
X428642Y335021*
Y335666*
X428420Y335988*
X427977Y336310*
X427534Y336471*
X426870Y336632*
X425763*
X425098Y336471*
X424656Y336310*
X424213Y335988*
X423991Y335666*
Y335021*
X424213Y334699*
X424656Y334377*
X425098Y334216*
X428642Y331156D02*
X425541Y332767D01*
Y330351*
X428642Y331156D02*
X423991D01*
X217667Y340041D02*
X213017D01*
X217667D02*
Y338592D01*
X217446Y338108*
X217224Y337947*
X216781Y337786*
X216339*
X215896Y337947*
X215674Y338108*
X215453Y338592*
Y340041D02*
Y338592D01*
X215231Y338108*
X215010Y337947*
X214567Y337786*
X213903*
X213460Y337947*
X213238Y338108*
X213017Y338592*
Y340041*
X216560Y333921D02*
X217003Y334082D01*
X217446Y334404*
X217667Y334726*
Y335370*
X217446Y335693*
X217003Y336015*
X216560Y336176*
X215896Y336337*
X214788*
X214124Y336176*
X213681Y336015*
X213238Y335693*
X213017Y335370*
Y334726*
X213238Y334404*
X213681Y334082*
X214124Y333921*
X217667Y332149D02*
Y330378D01*
X215896Y331344*
Y330861*
X215674Y330539*
X215453Y330378*
X214788Y330217*
X214345*
X213681Y330378*
X213238Y330700*
X213017Y331183*
Y331666*
X213238Y332149*
X213460Y332310*
X213903Y332471*
X135493Y211845D02*
Y208301D01*
X135332Y207637*
X135171Y207415*
X134849Y207194*
X134527*
X134205Y207415*
X134044Y207637*
X133883Y208301*
Y208744*
X136943Y210959D02*
X137265Y211180D01*
X137748Y211845*
Y207194*
G54D45*
X111871Y120175D02*
Y116632D01*
X111710Y115967*
X111549Y115746*
X111227Y115524*
X110905*
X110583Y115746*
X110422Y115967*
X110261Y116632*
Y117075*
X113482Y119068D02*
Y119289D01*
X113643Y119732*
X113804Y119953*
X114126Y120175*
X114770*
X115093Y119953*
X115254Y119732*
X115415Y119289*
Y118846*
X115254Y118403*
X114932Y117739*
X113321Y115524*
X115576*
X310655Y184312D02*
X312909Y179662D01*
Y184312D02*
X310655Y179662D01*
X315486Y184312D02*
Y179662D01*
X314359Y184312D02*
X316614D01*
X319352D02*
X318063Y179662D01*
X319352Y184312D02*
X320640Y179662D01*
X318546Y181212D02*
X320157D01*
X322090Y184312D02*
Y179662D01*
X324022*
X325472Y183427D02*
X325794Y183648D01*
X326277Y184312*
Y179662*
G54D46*
X282185Y208169D02*
Y203519D01*
Y208169D02*
X283635D01*
X284118Y207948*
X284279Y207726*
X284440Y207283*
Y206841*
X284279Y206398*
X284118Y206176*
X283635Y205955*
X282185*
X283312D02*
X284440Y203519D01*
X285889Y207283D02*
X286212Y207505D01*
X286695Y208169*
Y203519*
X290399Y208169D02*
X288788Y203519D01*
X288144Y208169D02*
X290399D01*
X0Y0D02*
M02*
